<?xml version="1.0" encoding="UTF-8"?>
<!-- Generator: visioncortex VTracer 0.6.4 -->
<svg version="1.1" xmlns="http://www.w3.org/2000/svg" width="512" height="512">
<path d="M0 0 C0.986 0.002 0.986 0.002 1.992 0.004 C4.07 0.01 6.148 0.022 8.227 0.035 C9.645 0.04 11.062 0.045 12.48 0.049 C15.938 0.06 19.395 0.077 22.852 0.098 C22.852 0.758 22.852 1.418 22.852 2.098 C24.502 2.098 26.152 2.098 27.852 2.098 C28.182 2.758 28.512 3.418 28.852 4.098 C29.429 4.386 30.007 4.675 30.602 4.973 C33.344 6.344 35.485 8.156 37.852 10.098 C41.376 12.457 41.376 12.457 45.352 13.535 C47.852 14.098 47.852 14.098 49.852 16.098 C51.168 16.797 52.502 17.465 53.852 18.098 C61.852 22.098 61.852 22.098 64.852 24.098 C67.017 25.32 67.017 25.32 70.414 25.535 C71.548 25.721 72.683 25.906 73.852 26.098 C74.182 26.758 74.512 27.418 74.852 28.098 C75.842 28.758 76.832 29.418 77.852 30.098 C77.852 31.418 77.852 32.738 77.852 34.098 C79.491 34.036 79.491 34.036 81.164 33.973 C84.852 34.098 84.852 34.098 87.852 36.098 C88.182 36.758 88.512 37.418 88.852 38.098 C90.977 38.564 90.977 38.564 93.414 38.723 C94.24 38.797 95.067 38.872 95.918 38.949 C96.556 38.998 97.194 39.047 97.852 39.098 C97.852 39.428 97.852 39.758 97.852 40.098 C99.027 40.283 99.027 40.283 100.227 40.473 C102.852 41.098 102.852 41.098 104.852 43.098 C105.512 43.428 106.172 43.758 106.852 44.098 C108.852 45.098 108.852 45.098 110.852 47.098 C114.419 49.476 116.724 49.484 120.891 49.754 C121.538 49.867 122.185 49.981 122.852 50.098 C123.182 50.758 123.512 51.418 123.852 52.098 C125.089 52.345 125.089 52.345 126.352 52.598 C127.589 52.845 127.589 52.845 128.852 53.098 C129.518 54.431 130.185 55.764 130.852 57.098 C131.842 57.428 132.832 57.758 133.852 58.098 C134.512 58.428 135.172 58.758 135.852 59.098 C138.116 59.811 140.386 60.502 142.66 61.184 C145.017 62.166 146.172 63.207 147.852 65.098 C150.783 67.638 153.008 68.564 156.852 69.098 C156.852 69.428 156.852 69.758 156.852 70.098 C158.058 70.283 158.058 70.283 159.289 70.473 C160.135 70.679 160.98 70.885 161.852 71.098 C162.182 71.758 162.512 72.418 162.852 73.098 C163.512 73.428 164.172 73.758 164.852 74.098 C164.852 75.088 164.852 76.078 164.852 77.098 C166.172 76.768 167.492 76.438 168.852 76.098 C168.852 76.758 168.852 77.418 168.852 78.098 C169.706 78.219 170.561 78.34 171.441 78.465 C172.546 78.632 173.651 78.8 174.789 78.973 C175.891 79.135 176.993 79.297 178.129 79.465 C179.027 79.674 179.926 79.882 180.852 80.098 C181.852 82.098 181.852 82.098 182.852 86.098 C186.152 86.098 189.452 86.098 192.852 86.098 C193.182 86.758 193.512 87.418 193.852 88.098 C194.677 88.263 195.502 88.428 196.352 88.598 C197.177 88.763 198.002 88.928 198.852 89.098 C199.182 89.758 199.512 90.418 199.852 91.098 C200.842 91.758 201.832 92.418 202.852 93.098 C205.852 95.098 205.852 95.098 206.852 97.098 C208.899 100.169 210.584 101.464 213.852 103.098 C214.164 105.812 214.365 108.437 214.477 111.16 C214.515 111.919 214.554 112.677 214.594 113.459 C214.688 115.338 214.771 117.218 214.852 119.098 C216.502 119.428 218.152 119.758 219.852 120.098 C219.983 144.726 220.113 169.355 220.243 193.984 C220.303 205.423 220.363 216.862 220.424 228.301 C220.478 238.286 220.53 248.272 220.583 258.258 C220.61 263.531 220.638 268.804 220.666 274.077 C220.677 276.105 220.688 278.132 220.699 280.16 C220.704 281.145 220.71 282.131 220.715 283.146 C220.755 290.589 220.786 298.032 220.815 305.475 C220.836 310.443 220.869 315.41 220.915 320.377 C220.941 323.319 220.959 326.262 220.976 329.204 C220.99 331.175 221.014 333.146 221.039 335.118 C221.044 336.271 221.049 337.425 221.055 338.614 C221.064 339.609 221.073 340.604 221.082 341.629 C220.852 344.098 220.852 344.098 218.852 347.098 C218.522 347.758 218.192 348.418 217.852 349.098 C216.532 349.098 215.212 349.098 213.852 349.098 C213.852 354.378 213.852 359.658 213.852 365.098 C213.192 365.428 212.532 365.758 211.852 366.098 C210.162 367.741 208.499 369.412 206.852 371.098 C205.185 372.764 203.518 374.431 201.852 376.098 C201.171 376.902 201.171 376.902 200.477 377.723 C197.924 379.882 194.933 380.865 191.852 382.098 C191.192 382.428 190.532 382.758 189.852 383.098 C185.852 385.098 185.852 385.098 183.852 386.035 C181.804 387.041 181.804 387.041 180.055 388.559 C177.601 390.273 175.477 390.991 172.602 391.785 C171.71 392.037 170.817 392.288 169.898 392.547 C168.885 392.82 168.885 392.82 167.852 393.098 C167.852 393.758 167.852 394.418 167.852 395.098 C165.872 395.758 163.892 396.418 161.852 397.098 C161.852 397.758 161.852 398.418 161.852 399.098 C160.738 399.531 160.738 399.531 159.602 399.973 C154.829 401.919 154.829 401.919 150.852 405.098 C150.852 405.428 150.852 405.758 150.852 406.098 C150.109 406.221 149.367 406.345 148.602 406.473 C146.032 407.057 144.143 407.834 141.852 409.098 C139.185 410.431 136.518 411.764 133.852 413.098 C133.852 413.428 133.852 413.758 133.852 414.098 C133.088 414.18 132.325 414.263 131.539 414.348 C128.318 415.247 127.528 416.274 125.852 419.098 C125.852 419.428 125.852 419.758 125.852 420.098 C124.082 420.602 122.311 421.101 120.539 421.598 C119.06 422.015 119.06 422.015 117.551 422.441 C114.852 423.098 114.852 423.098 111.852 423.098 C111.522 424.088 111.192 425.078 110.852 426.098 C109.862 426.428 108.872 426.758 107.852 427.098 C107.852 427.758 107.852 428.418 107.852 429.098 C107.109 429.201 106.367 429.304 105.602 429.41 C102.67 430.143 101.092 431.106 98.852 433.098 C98.852 433.428 98.852 433.758 98.852 434.098 C96.542 434.428 94.232 434.758 91.852 435.098 C91.852 435.758 91.852 436.418 91.852 437.098 C90.518 437.764 89.185 438.431 87.852 439.098 C87.253 439.428 86.655 439.758 86.039 440.098 C83.07 441.455 79.992 442.216 76.852 443.098 C75.175 443.74 73.504 444.397 71.852 445.098 C71.852 445.758 71.852 446.418 71.852 447.098 C69.458 449.491 68.12 449.54 64.852 450.098 C61.734 450.744 61.734 450.744 60.852 453.098 C60.522 453.758 60.192 454.418 59.852 455.098 C57.789 455.489 55.757 455.604 53.664 455.754 C53.066 455.867 52.468 455.981 51.852 456.098 C51.522 456.758 51.192 457.418 50.852 458.098 C50.192 458.098 49.532 458.098 48.852 458.098 C48.522 459.088 48.192 460.078 47.852 461.098 C47.192 461.428 46.532 461.758 45.852 462.098 C45.852 462.428 45.852 462.758 45.852 463.098 C44.202 463.428 42.552 463.758 40.852 464.098 C40.852 464.428 40.852 464.758 40.852 465.098 C36.863 466.043 33.142 466.227 29.047 466.23 C27.741 466.232 26.435 466.233 25.09 466.234 C24.076 466.231 24.076 466.231 23.042 466.228 C20.99 466.223 18.938 466.228 16.887 466.234 C15.578 466.233 14.27 466.232 12.922 466.23 C11.734 466.229 10.545 466.228 9.321 466.227 C5.77 466.095 2.358 465.661 -1.148 465.098 C-1.478 464.108 -1.808 463.118 -2.148 462.098 C-4.863 459.383 -5.815 459.139 -9.711 458.66 C-10.845 458.475 -11.98 458.289 -13.148 458.098 C-13.478 457.438 -13.808 456.778 -14.148 456.098 C-14.973 455.933 -15.798 455.768 -16.648 455.598 C-17.473 455.433 -18.298 455.268 -19.148 455.098 C-19.815 453.764 -20.482 452.431 -21.148 451.098 C-23.728 450.407 -23.728 450.407 -26.711 449.973 C-27.723 449.805 -28.735 449.637 -29.777 449.465 C-30.56 449.344 -31.342 449.223 -32.148 449.098 C-32.148 448.438 -32.148 447.778 -32.148 447.098 C-36.541 445.077 -40.302 443.689 -45.148 443.098 C-45.148 442.438 -45.148 441.778 -45.148 441.098 C-48.135 439.107 -50.745 438.156 -54.148 437.098 C-54.148 435.448 -54.148 433.798 -54.148 432.098 C-57.448 432.098 -60.748 432.098 -64.148 432.098 C-64.478 431.438 -64.808 430.778 -65.148 430.098 C-67.676 429.442 -67.676 429.442 -70.148 429.098 C-70.148 428.438 -70.148 427.778 -70.148 427.098 C-71.138 426.768 -72.128 426.438 -73.148 426.098 C-73.148 425.108 -73.148 424.118 -73.148 423.098 C-74.345 422.974 -75.541 422.85 -76.773 422.723 C-80.428 422.262 -83.726 421.517 -87.148 420.098 C-87.478 419.438 -87.808 418.778 -88.148 418.098 C-88.808 417.768 -89.468 417.438 -90.148 417.098 C-90.148 416.438 -90.148 415.778 -90.148 415.098 C-91.097 414.974 -92.046 414.85 -93.023 414.723 C-96.148 414.098 -96.148 414.098 -98.148 412.098 C-99.324 411.933 -100.5 411.768 -101.711 411.598 C-102.845 411.433 -103.98 411.268 -105.148 411.098 C-105.478 410.438 -105.808 409.778 -106.148 409.098 C-108.031 408.194 -108.031 408.194 -110.211 407.473 C-111.311 407.082 -111.311 407.082 -112.434 406.684 C-112.999 406.49 -113.565 406.297 -114.148 406.098 C-114.148 405.438 -114.148 404.778 -114.148 404.098 C-115.144 403.968 -115.144 403.968 -116.16 403.836 C-122.09 402.892 -125.193 401.892 -129.148 397.098 C-132.091 394.91 -132.091 394.91 -135.773 394.098 C-136.887 393.768 -138.001 393.438 -139.148 393.098 C-139.478 392.438 -139.808 391.778 -140.148 391.098 C-142.676 390.442 -142.676 390.442 -145.148 390.098 C-145.148 389.768 -145.148 389.438 -145.148 389.098 C-145.912 388.995 -146.675 388.891 -147.461 388.785 C-150.397 388.034 -151.198 387.315 -153.148 385.098 C-155.921 383.16 -155.921 383.16 -158.148 382.098 C-159.138 381.438 -160.128 380.778 -161.148 380.098 C-162.18 379.933 -163.211 379.768 -164.273 379.598 C-165.222 379.433 -166.171 379.268 -167.148 379.098 C-167.478 378.438 -167.808 377.778 -168.148 377.098 C-171.521 373.855 -174.625 373.695 -179.148 373.098 C-179.478 372.438 -179.808 371.778 -180.148 371.098 C-181.99 369.045 -181.99 369.045 -184.148 368.098 C-184.643 366.613 -184.643 366.613 -185.148 365.098 C-185.808 365.098 -186.468 365.098 -187.148 365.098 C-187.148 363.778 -187.148 362.458 -187.148 361.098 C-187.767 360.953 -188.386 360.809 -189.023 360.66 C-191.148 360.098 -191.148 360.098 -193.148 359.098 C-193.148 353.818 -193.148 348.538 -193.148 343.098 C-194.468 342.768 -195.788 342.438 -197.148 342.098 C-197.171 313.341 -197.189 284.584 -197.2 255.827 C-197.201 252.434 -197.202 249.042 -197.203 245.65 C-197.204 244.975 -197.204 244.299 -197.204 243.603 C-197.209 232.657 -197.216 221.71 -197.226 210.764 C-197.235 199.538 -197.24 188.313 -197.243 177.087 C-197.244 170.779 -197.247 164.471 -197.254 158.163 C-197.261 152.232 -197.263 146.302 -197.262 140.371 C-197.262 138.188 -197.264 136.005 -197.268 133.823 C-197.273 130.855 -197.271 127.886 -197.269 124.918 C-197.272 124.044 -197.275 123.171 -197.278 122.271 C-197.263 116.326 -197.263 116.326 -196.148 114.098 C-195.158 114.098 -194.168 114.098 -193.148 114.098 C-193.183 113.338 -193.218 112.579 -193.254 111.797 C-193.281 110.803 -193.308 109.809 -193.336 108.785 C-193.388 107.306 -193.388 107.306 -193.441 105.797 C-193.148 103.098 -193.148 103.098 -191.824 101.242 C-190.148 100.098 -190.148 100.098 -187.148 100.098 C-186.818 99.108 -186.488 98.118 -186.148 97.098 C-182.639 92.343 -182.639 92.343 -180.148 91.098 C-178.21 88.325 -178.21 88.325 -177.148 86.098 C-174.086 85.473 -174.086 85.473 -171.148 85.098 C-171.148 84.438 -171.148 83.778 -171.148 83.098 C-168.178 82.603 -168.178 82.603 -165.148 82.098 C-165.148 81.438 -165.148 80.778 -165.148 80.098 C-164.014 79.974 -162.88 79.85 -161.711 79.723 C-159.947 79.413 -159.947 79.413 -158.148 79.098 C-157.818 78.438 -157.488 77.778 -157.148 77.098 C-153.848 77.098 -150.548 77.098 -147.148 77.098 C-147.148 75.118 -147.148 73.138 -147.148 71.098 C-146.22 70.974 -145.292 70.85 -144.336 70.723 C-141.009 70.282 -141.009 70.282 -138.148 68.098 C-137.282 67.933 -136.416 67.768 -135.523 67.598 C-134.74 67.433 -133.956 67.268 -133.148 67.098 C-132.818 66.438 -132.488 65.778 -132.148 65.098 C-131.158 64.438 -130.168 63.778 -129.148 63.098 C-129.148 62.768 -129.148 62.438 -129.148 62.098 C-127.498 61.768 -125.848 61.438 -124.148 61.098 C-124.148 60.768 -124.148 60.438 -124.148 60.098 C-122.498 60.098 -120.848 60.098 -119.148 60.098 C-118.653 59.108 -118.653 59.108 -118.148 58.098 C-117.653 57.108 -117.653 57.108 -117.148 56.098 C-114.586 55.473 -114.586 55.473 -112.148 55.098 C-112.148 54.438 -112.148 53.778 -112.148 53.098 C-110.498 52.768 -108.848 52.438 -107.148 52.098 C-107.148 51.438 -107.148 50.778 -107.148 50.098 C-106.241 49.974 -105.333 49.85 -104.398 49.723 C-100.355 48.945 -98.051 48.001 -95.148 45.098 C-95.148 44.768 -95.148 44.438 -95.148 44.098 C-91.683 43.603 -91.683 43.603 -88.148 43.098 C-88.148 42.438 -88.148 41.778 -88.148 41.098 C-83.693 40.603 -83.693 40.603 -79.148 40.098 C-79.025 39.314 -78.901 38.53 -78.773 37.723 C-77.148 35.098 -77.148 35.098 -74.789 34.32 C-72.246 33.828 -69.718 33.415 -67.148 33.098 C-67.148 32.438 -67.148 31.778 -67.148 31.098 C-64.583 28.532 -62.672 28.557 -59.148 28.098 C-59.148 27.438 -59.148 26.778 -59.148 26.098 C-57.498 25.768 -55.848 25.438 -54.148 25.098 C-54.148 24.438 -54.148 23.778 -54.148 23.098 C-53.241 22.85 -52.333 22.603 -51.398 22.348 C-48.105 21.334 -48.105 21.334 -46.086 19.035 C-43.8 16.749 -42.308 16.449 -39.148 16.098 C-39.148 15.438 -39.148 14.778 -39.148 14.098 C-35.683 13.603 -35.683 13.603 -32.148 13.098 C-32.148 12.438 -32.148 11.778 -32.148 11.098 C-30.498 10.768 -28.848 10.438 -27.148 10.098 C-27.148 9.438 -27.148 8.778 -27.148 8.098 C-25.168 7.438 -23.188 6.778 -21.148 6.098 C-21.148 5.768 -21.148 5.438 -21.148 5.098 C-20.385 4.995 -19.622 4.891 -18.836 4.785 C-16.133 4.346 -16.133 4.346 -14.711 2.598 C-11.091 -0.877 -4.717 -0.02 0 0 Z M-131.148 66.098 C-130.148 68.098 -130.148 68.098 -130.148 68.098 Z M162.852 75.098 C163.852 77.098 163.852 77.098 163.852 77.098 Z M-189.148 101.098 C-185.148 102.098 -185.148 102.098 -185.148 102.098 Z M-192.148 104.098 C-192.148 107.398 -192.148 110.698 -192.148 114.098 C-191.818 114.098 -191.488 114.098 -191.148 114.098 C-191.148 110.798 -191.148 107.498 -191.148 104.098 C-191.478 104.098 -191.808 104.098 -192.148 104.098 Z M217.852 315.098 C217.852 323.678 217.852 332.258 217.852 341.098 C218.182 341.098 218.512 341.098 218.852 341.098 C218.852 332.518 218.852 323.938 218.852 315.098 C218.522 315.098 218.192 315.098 217.852 315.098 Z M-81.148 420.098 C-77.148 421.098 -77.148 421.098 -77.148 421.098 Z M114.852 420.098 C114.852 420.428 114.852 420.758 114.852 421.098 C116.502 421.098 118.152 421.098 119.852 421.098 C119.852 420.768 119.852 420.438 119.852 420.098 C118.202 420.098 116.552 420.098 114.852 420.098 Z M-72.148 423.098 C-71.148 425.098 -71.148 425.098 -71.148 425.098 Z M-23.148 449.098 C-19.148 450.098 -19.148 450.098 -19.148 450.098 Z " fill="#FCF0D6" transform="translate(245.1484375,22.90234375)"/>
<path d="M0 0 C0.986 0.002 0.986 0.002 1.992 0.004 C4.07 0.01 6.148 0.022 8.227 0.035 C9.645 0.04 11.062 0.045 12.48 0.049 C15.938 0.06 19.395 0.077 22.852 0.098 C22.852 0.758 22.852 1.418 22.852 2.098 C24.502 2.098 26.152 2.098 27.852 2.098 C28.182 2.758 28.512 3.418 28.852 4.098 C29.429 4.386 30.007 4.675 30.602 4.973 C33.344 6.344 35.485 8.156 37.852 10.098 C41.376 12.457 41.376 12.457 45.352 13.535 C47.852 14.098 47.852 14.098 49.852 16.098 C51.168 16.797 52.502 17.465 53.852 18.098 C61.852 22.098 61.852 22.098 64.852 24.098 C67.017 25.32 67.017 25.32 70.414 25.535 C71.548 25.721 72.683 25.906 73.852 26.098 C74.182 26.758 74.512 27.418 74.852 28.098 C75.842 28.758 76.832 29.418 77.852 30.098 C77.852 31.418 77.852 32.738 77.852 34.098 C79.491 34.036 79.491 34.036 81.164 33.973 C84.852 34.098 84.852 34.098 87.852 36.098 C88.182 36.758 88.512 37.418 88.852 38.098 C90.977 38.564 90.977 38.564 93.414 38.723 C94.24 38.797 95.067 38.872 95.918 38.949 C96.556 38.998 97.194 39.047 97.852 39.098 C97.852 39.428 97.852 39.758 97.852 40.098 C99.027 40.283 99.027 40.283 100.227 40.473 C102.852 41.098 102.852 41.098 104.852 43.098 C105.512 43.428 106.172 43.758 106.852 44.098 C108.852 45.098 108.852 45.098 110.852 47.098 C114.419 49.476 116.724 49.484 120.891 49.754 C121.538 49.867 122.185 49.981 122.852 50.098 C123.182 50.758 123.512 51.418 123.852 52.098 C125.089 52.345 125.089 52.345 126.352 52.598 C127.589 52.845 127.589 52.845 128.852 53.098 C129.518 54.431 130.185 55.764 130.852 57.098 C131.842 57.428 132.832 57.758 133.852 58.098 C134.512 58.428 135.172 58.758 135.852 59.098 C138.116 59.811 140.386 60.502 142.66 61.184 C145.017 62.166 146.172 63.207 147.852 65.098 C150.783 67.638 153.008 68.564 156.852 69.098 C156.852 69.428 156.852 69.758 156.852 70.098 C158.058 70.283 158.058 70.283 159.289 70.473 C160.135 70.679 160.98 70.885 161.852 71.098 C162.182 71.758 162.512 72.418 162.852 73.098 C163.512 73.428 164.172 73.758 164.852 74.098 C164.852 75.088 164.852 76.078 164.852 77.098 C166.172 76.768 167.492 76.438 168.852 76.098 C168.852 76.758 168.852 77.418 168.852 78.098 C169.706 78.219 170.561 78.34 171.441 78.465 C172.546 78.632 173.651 78.8 174.789 78.973 C175.891 79.135 176.993 79.297 178.129 79.465 C179.027 79.674 179.926 79.882 180.852 80.098 C181.852 82.098 181.852 82.098 182.852 86.098 C186.152 86.098 189.452 86.098 192.852 86.098 C193.182 86.758 193.512 87.418 193.852 88.098 C194.677 88.263 195.502 88.428 196.352 88.598 C197.177 88.763 198.002 88.928 198.852 89.098 C199.182 89.758 199.512 90.418 199.852 91.098 C200.842 91.758 201.832 92.418 202.852 93.098 C205.852 95.098 205.852 95.098 206.852 97.098 C208.899 100.169 210.584 101.464 213.852 103.098 C214.164 105.812 214.365 108.437 214.477 111.16 C214.515 111.919 214.554 112.677 214.594 113.459 C214.688 115.338 214.771 117.218 214.852 119.098 C216.502 119.428 218.152 119.758 219.852 120.098 C219.983 144.726 220.113 169.355 220.243 193.984 C220.303 205.423 220.363 216.862 220.424 228.301 C220.478 238.286 220.53 248.272 220.583 258.258 C220.61 263.531 220.638 268.804 220.666 274.077 C220.677 276.105 220.688 278.132 220.699 280.16 C220.704 281.145 220.71 282.131 220.715 283.146 C220.755 290.589 220.786 298.032 220.815 305.475 C220.836 310.443 220.869 315.41 220.915 320.377 C220.941 323.319 220.959 326.262 220.976 329.204 C220.99 331.175 221.014 333.146 221.039 335.118 C221.044 336.271 221.049 337.425 221.055 338.614 C221.064 339.609 221.073 340.604 221.082 341.629 C220.852 344.098 220.852 344.098 218.852 347.098 C218.522 347.758 218.192 348.418 217.852 349.098 C216.532 349.098 215.212 349.098 213.852 349.098 C213.852 354.378 213.852 359.658 213.852 365.098 C213.192 365.428 212.532 365.758 211.852 366.098 C210.162 367.741 208.499 369.412 206.852 371.098 C205.185 372.764 203.518 374.431 201.852 376.098 C201.171 376.902 201.171 376.902 200.477 377.723 C197.924 379.882 194.933 380.865 191.852 382.098 C191.192 382.428 190.532 382.758 189.852 383.098 C185.852 385.098 185.852 385.098 183.852 386.035 C181.804 387.041 181.804 387.041 180.055 388.559 C177.601 390.273 175.477 390.991 172.602 391.785 C171.71 392.037 170.817 392.288 169.898 392.547 C168.885 392.82 168.885 392.82 167.852 393.098 C167.852 393.758 167.852 394.418 167.852 395.098 C165.872 395.758 163.892 396.418 161.852 397.098 C161.852 397.758 161.852 398.418 161.852 399.098 C160.738 399.531 160.738 399.531 159.602 399.973 C154.829 401.919 154.829 401.919 150.852 405.098 C150.852 405.428 150.852 405.758 150.852 406.098 C150.109 406.221 149.367 406.345 148.602 406.473 C146.032 407.057 144.143 407.834 141.852 409.098 C139.185 410.431 136.518 411.764 133.852 413.098 C133.852 413.428 133.852 413.758 133.852 414.098 C133.088 414.18 132.325 414.263 131.539 414.348 C128.318 415.247 127.528 416.274 125.852 419.098 C125.852 419.428 125.852 419.758 125.852 420.098 C124.082 420.602 122.311 421.101 120.539 421.598 C119.06 422.015 119.06 422.015 117.551 422.441 C114.852 423.098 114.852 423.098 111.852 423.098 C111.522 424.088 111.192 425.078 110.852 426.098 C109.862 426.428 108.872 426.758 107.852 427.098 C107.852 427.758 107.852 428.418 107.852 429.098 C107.109 429.201 106.367 429.304 105.602 429.41 C102.67 430.143 101.092 431.106 98.852 433.098 C98.852 433.428 98.852 433.758 98.852 434.098 C96.542 434.428 94.232 434.758 91.852 435.098 C91.852 435.758 91.852 436.418 91.852 437.098 C90.518 437.764 89.185 438.431 87.852 439.098 C87.253 439.428 86.655 439.758 86.039 440.098 C83.07 441.455 79.992 442.216 76.852 443.098 C75.175 443.74 73.504 444.397 71.852 445.098 C71.852 445.758 71.852 446.418 71.852 447.098 C69.458 449.491 68.12 449.54 64.852 450.098 C61.734 450.744 61.734 450.744 60.852 453.098 C60.522 453.758 60.192 454.418 59.852 455.098 C57.789 455.489 55.757 455.604 53.664 455.754 C53.066 455.867 52.468 455.981 51.852 456.098 C51.522 456.758 51.192 457.418 50.852 458.098 C50.192 458.098 49.532 458.098 48.852 458.098 C48.522 459.088 48.192 460.078 47.852 461.098 C47.192 461.428 46.532 461.758 45.852 462.098 C45.852 462.428 45.852 462.758 45.852 463.098 C44.202 463.428 42.552 463.758 40.852 464.098 C40.852 464.428 40.852 464.758 40.852 465.098 C36.863 466.043 33.142 466.227 29.047 466.23 C27.741 466.232 26.435 466.233 25.09 466.234 C24.076 466.231 24.076 466.231 23.042 466.228 C20.99 466.223 18.938 466.228 16.887 466.234 C15.578 466.233 14.27 466.232 12.922 466.23 C11.734 466.229 10.545 466.228 9.321 466.227 C5.77 466.095 2.358 465.661 -1.148 465.098 C-1.478 464.108 -1.808 463.118 -2.148 462.098 C-4.863 459.383 -5.815 459.139 -9.711 458.66 C-10.845 458.475 -11.98 458.289 -13.148 458.098 C-13.478 457.438 -13.808 456.778 -14.148 456.098 C-14.973 455.933 -15.798 455.768 -16.648 455.598 C-17.473 455.433 -18.298 455.268 -19.148 455.098 C-19.815 453.764 -20.482 452.431 -21.148 451.098 C-23.728 450.407 -23.728 450.407 -26.711 449.973 C-27.723 449.805 -28.735 449.637 -29.777 449.465 C-30.56 449.344 -31.342 449.223 -32.148 449.098 C-32.148 448.438 -32.148 447.778 -32.148 447.098 C-36.541 445.077 -40.302 443.689 -45.148 443.098 C-45.148 442.438 -45.148 441.778 -45.148 441.098 C-48.135 439.107 -50.745 438.156 -54.148 437.098 C-54.148 435.448 -54.148 433.798 -54.148 432.098 C-57.448 432.098 -60.748 432.098 -64.148 432.098 C-64.478 431.438 -64.808 430.778 -65.148 430.098 C-67.676 429.442 -67.676 429.442 -70.148 429.098 C-70.148 428.438 -70.148 427.778 -70.148 427.098 C-71.138 426.768 -72.128 426.438 -73.148 426.098 C-73.148 425.108 -73.148 424.118 -73.148 423.098 C-74.345 422.974 -75.541 422.85 -76.773 422.723 C-80.428 422.262 -83.726 421.517 -87.148 420.098 C-87.478 419.438 -87.808 418.778 -88.148 418.098 C-88.808 417.768 -89.468 417.438 -90.148 417.098 C-90.148 416.438 -90.148 415.778 -90.148 415.098 C-91.097 414.974 -92.046 414.85 -93.023 414.723 C-96.148 414.098 -96.148 414.098 -98.148 412.098 C-99.324 411.933 -100.5 411.768 -101.711 411.598 C-102.845 411.433 -103.98 411.268 -105.148 411.098 C-105.478 410.438 -105.808 409.778 -106.148 409.098 C-108.031 408.194 -108.031 408.194 -110.211 407.473 C-111.311 407.082 -111.311 407.082 -112.434 406.684 C-112.999 406.49 -113.565 406.297 -114.148 406.098 C-114.148 405.438 -114.148 404.778 -114.148 404.098 C-115.144 403.968 -115.144 403.968 -116.16 403.836 C-122.09 402.892 -125.193 401.892 -129.148 397.098 C-132.091 394.91 -132.091 394.91 -135.773 394.098 C-136.887 393.768 -138.001 393.438 -139.148 393.098 C-139.478 392.438 -139.808 391.778 -140.148 391.098 C-142.676 390.442 -142.676 390.442 -145.148 390.098 C-145.148 389.768 -145.148 389.438 -145.148 389.098 C-145.912 388.995 -146.675 388.891 -147.461 388.785 C-150.397 388.034 -151.198 387.315 -153.148 385.098 C-155.921 383.16 -155.921 383.16 -158.148 382.098 C-159.138 381.438 -160.128 380.778 -161.148 380.098 C-162.18 379.933 -163.211 379.768 -164.273 379.598 C-165.222 379.433 -166.171 379.268 -167.148 379.098 C-167.478 378.438 -167.808 377.778 -168.148 377.098 C-171.521 373.855 -174.625 373.695 -179.148 373.098 C-179.478 372.438 -179.808 371.778 -180.148 371.098 C-181.99 369.045 -181.99 369.045 -184.148 368.098 C-184.643 366.613 -184.643 366.613 -185.148 365.098 C-185.808 365.098 -186.468 365.098 -187.148 365.098 C-187.148 363.778 -187.148 362.458 -187.148 361.098 C-187.767 360.953 -188.386 360.809 -189.023 360.66 C-191.148 360.098 -191.148 360.098 -193.148 359.098 C-193.148 353.818 -193.148 348.538 -193.148 343.098 C-194.468 342.768 -195.788 342.438 -197.148 342.098 C-197.171 313.341 -197.189 284.584 -197.2 255.827 C-197.201 252.434 -197.202 249.042 -197.203 245.65 C-197.204 244.975 -197.204 244.299 -197.204 243.603 C-197.209 232.657 -197.216 221.71 -197.226 210.764 C-197.235 199.538 -197.24 188.313 -197.243 177.087 C-197.244 170.779 -197.247 164.471 -197.254 158.163 C-197.261 152.232 -197.263 146.302 -197.262 140.371 C-197.262 138.188 -197.264 136.005 -197.268 133.823 C-197.273 130.855 -197.271 127.886 -197.269 124.918 C-197.272 124.044 -197.275 123.171 -197.278 122.271 C-197.263 116.326 -197.263 116.326 -196.148 114.098 C-195.158 114.098 -194.168 114.098 -193.148 114.098 C-193.183 113.338 -193.218 112.579 -193.254 111.797 C-193.281 110.803 -193.308 109.809 -193.336 108.785 C-193.388 107.306 -193.388 107.306 -193.441 105.797 C-193.148 103.098 -193.148 103.098 -191.824 101.242 C-190.148 100.098 -190.148 100.098 -187.148 100.098 C-186.818 99.108 -186.488 98.118 -186.148 97.098 C-182.639 92.343 -182.639 92.343 -180.148 91.098 C-178.21 88.325 -178.21 88.325 -177.148 86.098 C-174.086 85.473 -174.086 85.473 -171.148 85.098 C-171.148 84.438 -171.148 83.778 -171.148 83.098 C-168.178 82.603 -168.178 82.603 -165.148 82.098 C-165.148 81.438 -165.148 80.778 -165.148 80.098 C-164.014 79.974 -162.88 79.85 -161.711 79.723 C-159.947 79.413 -159.947 79.413 -158.148 79.098 C-157.818 78.438 -157.488 77.778 -157.148 77.098 C-153.848 77.098 -150.548 77.098 -147.148 77.098 C-147.148 75.118 -147.148 73.138 -147.148 71.098 C-146.22 70.974 -145.292 70.85 -144.336 70.723 C-141.009 70.282 -141.009 70.282 -138.148 68.098 C-137.282 67.933 -136.416 67.768 -135.523 67.598 C-134.74 67.433 -133.956 67.268 -133.148 67.098 C-132.818 66.438 -132.488 65.778 -132.148 65.098 C-131.158 64.438 -130.168 63.778 -129.148 63.098 C-129.148 62.768 -129.148 62.438 -129.148 62.098 C-127.498 61.768 -125.848 61.438 -124.148 61.098 C-124.148 60.768 -124.148 60.438 -124.148 60.098 C-122.498 60.098 -120.848 60.098 -119.148 60.098 C-118.653 59.108 -118.653 59.108 -118.148 58.098 C-117.653 57.108 -117.653 57.108 -117.148 56.098 C-114.586 55.473 -114.586 55.473 -112.148 55.098 C-112.148 54.438 -112.148 53.778 -112.148 53.098 C-110.498 52.768 -108.848 52.438 -107.148 52.098 C-107.148 51.438 -107.148 50.778 -107.148 50.098 C-106.241 49.974 -105.333 49.85 -104.398 49.723 C-100.355 48.945 -98.051 48.001 -95.148 45.098 C-95.148 44.768 -95.148 44.438 -95.148 44.098 C-91.683 43.603 -91.683 43.603 -88.148 43.098 C-88.148 42.438 -88.148 41.778 -88.148 41.098 C-83.693 40.603 -83.693 40.603 -79.148 40.098 C-79.025 39.314 -78.901 38.53 -78.773 37.723 C-77.148 35.098 -77.148 35.098 -74.789 34.32 C-72.246 33.828 -69.718 33.415 -67.148 33.098 C-67.148 32.438 -67.148 31.778 -67.148 31.098 C-64.583 28.532 -62.672 28.557 -59.148 28.098 C-59.148 27.438 -59.148 26.778 -59.148 26.098 C-57.498 25.768 -55.848 25.438 -54.148 25.098 C-54.148 24.438 -54.148 23.778 -54.148 23.098 C-53.241 22.85 -52.333 22.603 -51.398 22.348 C-48.105 21.334 -48.105 21.334 -46.086 19.035 C-43.8 16.749 -42.308 16.449 -39.148 16.098 C-39.148 15.438 -39.148 14.778 -39.148 14.098 C-35.683 13.603 -35.683 13.603 -32.148 13.098 C-32.148 12.438 -32.148 11.778 -32.148 11.098 C-30.498 10.768 -28.848 10.438 -27.148 10.098 C-27.148 9.438 -27.148 8.778 -27.148 8.098 C-25.168 7.438 -23.188 6.778 -21.148 6.098 C-21.148 5.768 -21.148 5.438 -21.148 5.098 C-20.385 4.995 -19.622 4.891 -18.836 4.785 C-16.133 4.346 -16.133 4.346 -14.711 2.598 C-11.091 -0.877 -4.717 -0.02 0 0 Z M-7.148 14.098 C-7.148 15.088 -7.148 16.078 -7.148 17.098 C-8.138 17.098 -9.128 17.098 -10.148 17.098 C-10.148 18.088 -10.148 19.078 -10.148 20.098 C-11.798 20.098 -13.448 20.098 -15.148 20.098 C-15.148 21.088 -15.148 22.078 -15.148 23.098 C-17.128 23.098 -19.108 23.098 -21.148 23.098 C-21.148 24.088 -21.148 25.078 -21.148 26.098 C-22.798 26.098 -24.448 26.098 -26.148 26.098 C-26.148 27.088 -26.148 28.078 -26.148 29.098 C-28.128 29.098 -30.108 29.098 -32.148 29.098 C-32.148 30.088 -32.148 31.078 -32.148 32.098 C-33.138 32.098 -34.128 32.098 -35.148 32.098 C-35.148 33.088 -35.148 34.078 -35.148 35.098 C-37.128 35.098 -39.108 35.098 -41.148 35.098 C-41.148 36.088 -41.148 37.078 -41.148 38.098 C-43.458 38.098 -45.768 38.098 -48.148 38.098 C-48.148 39.088 -48.148 40.078 -48.148 41.098 C-49.798 41.098 -51.448 41.098 -53.148 41.098 C-53.148 42.088 -53.148 43.078 -53.148 44.098 C-56.118 44.098 -59.088 44.098 -62.148 44.098 C-62.148 45.088 -62.148 46.078 -62.148 47.098 C-64.128 47.098 -66.108 47.098 -68.148 47.098 C-68.148 48.088 -68.148 49.078 -68.148 50.098 C-69.138 50.098 -70.128 50.098 -71.148 50.098 C-71.148 51.088 -71.148 52.078 -71.148 53.098 C-74.118 53.098 -77.088 53.098 -80.148 53.098 C-80.148 54.418 -80.148 55.738 -80.148 57.098 C-82.128 57.098 -84.108 57.098 -86.148 57.098 C-86.148 58.088 -86.148 59.078 -86.148 60.098 C-87.138 60.098 -88.128 60.098 -89.148 60.098 C-89.643 61.088 -89.643 61.088 -90.148 62.098 C-92.711 62.723 -92.711 62.723 -95.148 63.098 C-95.148 63.758 -95.148 64.418 -95.148 65.098 C-97.128 65.098 -99.108 65.098 -101.148 65.098 C-101.148 66.088 -101.148 67.078 -101.148 68.098 C-103.458 68.098 -105.768 68.098 -108.148 68.098 C-108.148 69.088 -108.148 70.078 -108.148 71.098 C-109.798 71.098 -111.448 71.098 -113.148 71.098 C-113.148 72.088 -113.148 73.078 -113.148 74.098 C-114.798 74.098 -116.448 74.098 -118.148 74.098 C-118.148 75.088 -118.148 76.078 -118.148 77.098 C-120.128 77.098 -122.108 77.098 -124.148 77.098 C-124.148 78.088 -124.148 79.078 -124.148 80.098 C-125.798 80.098 -127.448 80.098 -129.148 80.098 C-129.148 81.088 -129.148 82.078 -129.148 83.098 C-131.128 83.098 -133.108 83.098 -135.148 83.098 C-135.148 84.088 -135.148 85.078 -135.148 86.098 C-136.468 86.098 -137.788 86.098 -139.148 86.098 C-139.148 87.088 -139.148 88.078 -139.148 89.098 C-141.128 89.098 -143.108 89.098 -145.148 89.098 C-145.148 90.088 -145.148 91.078 -145.148 92.098 C-146.798 92.098 -148.448 92.098 -150.148 92.098 C-150.148 93.088 -150.148 94.078 -150.148 95.098 C-151.798 95.098 -153.448 95.098 -155.148 95.098 C-155.148 96.088 -155.148 97.078 -155.148 98.098 C-156.138 98.098 -157.128 98.098 -158.148 98.098 C-158.148 99.088 -158.148 100.078 -158.148 101.098 C-160.128 101.098 -162.108 101.098 -164.148 101.098 C-164.148 102.088 -164.148 103.078 -164.148 104.098 C-166.458 104.098 -168.768 104.098 -171.148 104.098 C-171.148 104.758 -171.148 105.418 -171.148 106.098 C-173.128 106.098 -175.108 106.098 -177.148 106.098 C-177.148 110.718 -177.148 115.338 -177.148 120.098 C-179.458 120.098 -181.768 120.098 -184.148 120.098 C-184.148 193.028 -184.148 265.958 -184.148 341.098 C-181.838 341.098 -179.528 341.098 -177.148 341.098 C-177.148 341.758 -177.148 342.418 -177.148 343.098 C-176.488 343.098 -175.828 343.098 -175.148 343.098 C-175.148 344.088 -175.148 345.078 -175.148 346.098 C-173.828 346.098 -172.508 346.098 -171.148 346.098 C-171.148 347.088 -171.148 348.078 -171.148 349.098 C-169.828 349.098 -168.508 349.098 -167.148 349.098 C-167.148 350.088 -167.148 351.078 -167.148 352.098 C-166.158 352.098 -165.168 352.098 -164.148 352.098 C-164.148 353.088 -164.148 354.078 -164.148 355.098 C-162.498 355.098 -160.848 355.098 -159.148 355.098 C-159.148 356.088 -159.148 357.078 -159.148 358.098 C-157.498 358.098 -155.848 358.098 -154.148 358.098 C-154.148 358.758 -154.148 359.418 -154.148 360.098 C-150.921 362.25 -149.864 362.299 -146.148 362.098 C-146.148 362.758 -146.148 363.418 -146.148 364.098 C-144.168 364.098 -142.188 364.098 -140.148 364.098 C-140.148 365.088 -140.148 366.078 -140.148 367.098 C-138.498 367.098 -136.848 367.098 -135.148 367.098 C-135.148 368.088 -135.148 369.078 -135.148 370.098 C-133.168 370.098 -131.188 370.098 -129.148 370.098 C-129.148 371.088 -129.148 372.078 -129.148 373.098 C-128.158 373.098 -127.168 373.098 -126.148 373.098 C-126.148 374.088 -126.148 375.078 -126.148 376.098 C-124.498 376.098 -122.848 376.098 -121.148 376.098 C-121.148 377.088 -121.148 378.078 -121.148 379.098 C-118.508 379.098 -115.868 379.098 -113.148 379.098 C-113.148 380.088 -113.148 381.078 -113.148 382.098 C-111.168 382.098 -109.188 382.098 -107.148 382.098 C-107.148 383.088 -107.148 384.078 -107.148 385.098 C-105.498 385.098 -103.848 385.098 -102.148 385.098 C-101.653 386.583 -101.653 386.583 -101.148 388.098 C-99.498 388.098 -97.848 388.098 -96.148 388.098 C-96.148 388.758 -96.148 389.418 -96.148 390.098 C-94.168 390.098 -92.188 390.098 -90.148 390.098 C-90.148 391.418 -90.148 392.738 -90.148 394.098 C-88.498 394.098 -86.848 394.098 -85.148 394.098 C-85.148 395.088 -85.148 396.078 -85.148 397.098 C-83.498 397.098 -81.848 397.098 -80.148 397.098 C-80.148 397.758 -80.148 398.418 -80.148 399.098 C-77.838 399.098 -75.528 399.098 -73.148 399.098 C-73.148 400.088 -73.148 401.078 -73.148 402.098 C-70.838 402.428 -68.528 402.758 -66.148 403.098 C-66.148 404.088 -66.148 405.078 -66.148 406.098 C-64.828 406.098 -63.508 406.098 -62.148 406.098 C-62.148 406.758 -62.148 407.418 -62.148 408.098 C-59.838 408.098 -57.528 408.098 -55.148 408.098 C-55.148 409.088 -55.148 410.078 -55.148 411.098 C-52.838 411.098 -50.528 411.098 -48.148 411.098 C-48.148 412.088 -48.148 413.078 -48.148 414.098 C-47.158 414.098 -46.168 414.098 -45.148 414.098 C-45.148 415.088 -45.148 416.078 -45.148 417.098 C-43.828 417.098 -42.508 417.098 -41.148 417.098 C-41.148 418.088 -41.148 419.078 -41.148 420.098 C-38.508 420.098 -35.868 420.098 -33.148 420.098 C-33.148 421.088 -33.148 422.078 -33.148 423.098 C-30.838 423.098 -28.528 423.098 -26.148 423.098 C-26.148 423.758 -26.148 424.418 -26.148 425.098 C-24.498 425.098 -22.848 425.098 -21.148 425.098 C-21.148 426.088 -21.148 427.078 -21.148 428.098 C-19.498 428.098 -17.848 428.098 -16.148 428.098 C-16.148 429.088 -16.148 430.078 -16.148 431.098 C-14.498 431.098 -12.848 431.098 -11.148 431.098 C-11.148 432.088 -11.148 433.078 -11.148 434.098 C-8.838 434.098 -6.528 434.098 -4.148 434.098 C-4.148 435.088 -4.148 436.078 -4.148 437.098 C-2.168 437.098 -0.188 437.098 1.852 437.098 C1.852 438.088 1.852 439.078 1.852 440.098 C3.172 440.098 4.492 440.098 5.852 440.098 C5.852 441.088 5.852 442.078 5.852 443.098 C9.482 443.098 13.112 443.098 16.852 443.098 C16.852 442.108 16.852 441.118 16.852 440.098 C17.842 440.098 18.832 440.098 19.852 440.098 C19.852 438.778 19.852 437.458 19.852 436.098 C20.842 436.098 21.832 436.098 22.852 436.098 C22.852 434.448 22.852 432.798 22.852 431.098 C23.512 431.098 24.172 431.098 24.852 431.098 C24.852 360.808 24.852 290.518 24.852 218.098 C25.842 218.098 26.832 218.098 27.852 218.098 C27.852 215.458 27.852 212.818 27.852 210.098 C28.512 210.098 29.172 210.098 29.852 210.098 C29.852 208.778 29.852 207.458 29.852 206.098 C30.842 206.098 31.832 206.098 32.852 206.098 C33.182 204.118 33.512 202.138 33.852 200.098 C34.842 200.098 35.832 200.098 36.852 200.098 C36.852 199.108 36.852 198.118 36.852 197.098 C38.832 197.098 40.812 197.098 42.852 197.098 C42.852 196.108 42.852 195.118 42.852 194.098 C45.492 194.098 48.132 194.098 50.852 194.098 C50.852 193.108 50.852 192.118 50.852 191.098 C51.842 191.098 52.832 191.098 53.852 191.098 C53.852 190.108 53.852 189.118 53.852 188.098 C55.502 188.098 57.152 188.098 58.852 188.098 C58.852 187.108 58.852 186.118 58.852 185.098 C61.822 185.098 64.792 185.098 67.852 185.098 C67.852 183.778 67.852 182.458 67.852 181.098 C69.502 181.098 71.152 181.098 72.852 181.098 C72.852 180.108 72.852 179.118 72.852 178.098 C74.172 178.098 75.492 178.098 76.852 178.098 C76.852 177.108 76.852 176.118 76.852 175.098 C78.502 175.098 80.152 175.098 81.852 175.098 C81.852 174.108 81.852 173.118 81.852 172.098 C83.832 172.098 85.812 172.098 87.852 172.098 C87.852 171.108 87.852 170.118 87.852 169.098 C89.172 169.098 90.492 169.098 91.852 169.098 C92.182 168.438 92.512 167.778 92.852 167.098 C95.173 166.69 97.508 166.353 99.852 166.098 C99.852 165.438 99.852 164.778 99.852 164.098 C101.832 164.098 103.812 164.098 105.852 164.098 C105.852 163.108 105.852 162.118 105.852 161.098 C107.502 161.098 109.152 161.098 110.852 161.098 C110.852 159.778 110.852 158.458 110.852 157.098 C112.832 157.098 114.812 157.098 116.852 157.098 C116.852 156.438 116.852 155.778 116.852 155.098 C118.502 155.098 120.152 155.098 121.852 155.098 C121.852 153.778 121.852 152.458 121.852 151.098 C123.832 151.098 125.812 151.098 127.852 151.098 C127.852 150.108 127.852 149.118 127.852 148.098 C129.502 148.098 131.152 148.098 132.852 148.098 C133.182 147.438 133.512 146.778 133.852 146.098 C136.414 145.473 136.414 145.473 138.852 145.098 C138.852 144.108 138.852 143.118 138.852 142.098 C140.832 142.098 142.812 142.098 144.852 142.098 C144.852 141.108 144.852 140.118 144.852 139.098 C146.832 139.098 148.812 139.098 150.852 139.098 C150.852 138.108 150.852 137.118 150.852 136.098 C152.832 136.098 154.812 136.098 156.852 136.098 C156.852 135.438 156.852 134.778 156.852 134.098 C158.502 134.098 160.152 134.098 161.852 134.098 C161.852 133.108 161.852 132.118 161.852 131.098 C163.502 131.098 165.152 131.098 166.852 131.098 C166.852 130.108 166.852 129.118 166.852 128.098 C168.832 128.098 170.812 128.098 172.852 128.098 C172.852 127.108 172.852 126.118 172.852 125.098 C174.502 125.098 176.152 125.098 177.852 125.098 C177.852 124.108 177.852 123.118 177.852 122.098 C179.502 122.098 181.152 122.098 182.852 122.098 C182.852 120.778 182.852 119.458 182.852 118.098 C183.842 118.098 184.832 118.098 185.852 118.098 C185.852 113.808 185.852 109.518 185.852 105.098 C185.192 104.768 184.532 104.438 183.852 104.098 C183.522 103.108 183.192 102.118 182.852 101.098 C181.862 101.098 180.872 101.098 179.852 101.098 C179.852 100.108 179.852 99.118 179.852 98.098 C177.872 98.098 175.892 98.098 173.852 98.098 C173.852 97.108 173.852 96.118 173.852 95.098 C171.542 95.098 169.232 95.098 166.852 95.098 C166.852 94.108 166.852 93.118 166.852 92.098 C164.872 92.098 162.892 92.098 160.852 92.098 C160.852 91.108 160.852 90.118 160.852 89.098 C159.202 89.098 157.552 89.098 155.852 89.098 C155.852 88.108 155.852 87.118 155.852 86.098 C154.202 86.098 152.552 86.098 150.852 86.098 C150.852 85.108 150.852 84.118 150.852 83.098 C148.872 83.098 146.892 83.098 144.852 83.098 C144.852 82.108 144.852 81.118 144.852 80.098 C142.872 80.098 140.892 80.098 138.852 80.098 C138.852 79.108 138.852 78.118 138.852 77.098 C137.202 77.098 135.552 77.098 133.852 77.098 C133.852 76.108 133.852 75.118 133.852 74.098 C131.872 74.098 129.892 74.098 127.852 74.098 C127.852 73.108 127.852 72.118 127.852 71.098 C126.202 71.098 124.552 71.098 122.852 71.098 C122.852 70.108 122.852 69.118 122.852 68.098 C120.872 68.098 118.892 68.098 116.852 68.098 C116.852 67.108 116.852 66.118 116.852 65.098 C114.872 65.098 112.892 65.098 110.852 65.098 C110.852 64.438 110.852 63.778 110.852 63.098 C108.872 63.098 106.892 63.098 104.852 63.098 C104.852 62.108 104.852 61.118 104.852 60.098 C100.892 59.603 100.892 59.603 96.852 59.098 C96.852 58.108 96.852 57.118 96.852 56.098 C95.202 56.098 93.552 56.098 91.852 56.098 C91.852 55.108 91.852 54.118 91.852 53.098 C89.542 53.098 87.232 53.098 84.852 53.098 C84.852 52.108 84.852 51.118 84.852 50.098 C83.202 50.098 81.552 50.098 79.852 50.098 C79.852 49.108 79.852 48.118 79.852 47.098 C77.872 47.098 75.892 47.098 73.852 47.098 C73.852 46.108 73.852 45.118 73.852 44.098 C71.872 44.098 69.892 44.098 67.852 44.098 C67.852 43.108 67.852 42.118 67.852 41.098 C65.872 41.098 63.892 41.098 61.852 41.098 C61.852 40.438 61.852 39.778 61.852 39.098 C60.862 39.098 59.872 39.098 58.852 39.098 C58.852 38.438 58.852 37.778 58.852 37.098 C56.872 37.098 54.892 37.098 52.852 37.098 C52.852 36.438 52.852 35.778 52.852 35.098 C52.212 34.974 51.573 34.85 50.914 34.723 C50.233 34.516 49.553 34.31 48.852 34.098 C48.522 33.438 48.192 32.778 47.852 32.098 C46.202 32.098 44.552 32.098 42.852 32.098 C42.852 31.108 42.852 30.118 42.852 29.098 C41.202 29.098 39.552 29.098 37.852 29.098 C37.852 28.108 37.852 27.118 37.852 26.098 C35.212 26.098 32.572 26.098 29.852 26.098 C29.852 25.108 29.852 24.118 29.852 23.098 C28.202 23.098 26.552 23.098 24.852 23.098 C24.852 22.108 24.852 21.118 24.852 20.098 C23.202 20.098 21.552 20.098 19.852 20.098 C19.852 19.108 19.852 18.118 19.852 17.098 C18.202 17.098 16.552 17.098 14.852 17.098 C14.852 16.108 14.852 15.118 14.852 14.098 C7.592 14.098 0.332 14.098 -7.148 14.098 Z M-131.148 66.098 C-130.148 68.098 -130.148 68.098 -130.148 68.098 Z M162.852 75.098 C163.852 77.098 163.852 77.098 163.852 77.098 Z M-189.148 101.098 C-185.148 102.098 -185.148 102.098 -185.148 102.098 Z M-192.148 104.098 C-192.148 107.398 -192.148 110.698 -192.148 114.098 C-191.818 114.098 -191.488 114.098 -191.148 114.098 C-191.148 110.798 -191.148 107.498 -191.148 104.098 C-191.478 104.098 -191.808 104.098 -192.148 104.098 Z M217.852 315.098 C217.852 323.678 217.852 332.258 217.852 341.098 C218.182 341.098 218.512 341.098 218.852 341.098 C218.852 332.518 218.852 323.938 218.852 315.098 C218.522 315.098 218.192 315.098 217.852 315.098 Z M-81.148 420.098 C-77.148 421.098 -77.148 421.098 -77.148 421.098 Z M114.852 420.098 C114.852 420.428 114.852 420.758 114.852 421.098 C116.502 421.098 118.152 421.098 119.852 421.098 C119.852 420.768 119.852 420.438 119.852 420.098 C118.202 420.098 116.552 420.098 114.852 420.098 Z M-72.148 423.098 C-71.148 425.098 -71.148 425.098 -71.148 425.098 Z M-23.148 449.098 C-19.148 450.098 -19.148 450.098 -19.148 450.098 Z " fill="#E0C6A1" transform="translate(245.1484375,22.90234375)"/>
<path d="M0 0 C0.986 0.002 0.986 0.002 1.992 0.004 C4.07 0.01 6.148 0.022 8.227 0.035 C9.645 0.04 11.062 0.045 12.48 0.049 C15.938 0.06 19.395 0.077 22.852 0.098 C22.852 0.758 22.852 1.418 22.852 2.098 C24.502 2.098 26.152 2.098 27.852 2.098 C28.182 2.758 28.512 3.418 28.852 4.098 C29.429 4.386 30.007 4.675 30.602 4.973 C33.344 6.344 35.485 8.156 37.852 10.098 C41.376 12.457 41.376 12.457 45.352 13.535 C47.852 14.098 47.852 14.098 49.852 16.098 C51.168 16.797 52.502 17.465 53.852 18.098 C61.852 22.098 61.852 22.098 64.852 24.098 C67.017 25.32 67.017 25.32 70.414 25.535 C71.548 25.721 72.683 25.906 73.852 26.098 C74.182 26.758 74.512 27.418 74.852 28.098 C75.842 28.758 76.832 29.418 77.852 30.098 C77.852 31.418 77.852 32.738 77.852 34.098 C79.491 34.036 79.491 34.036 81.164 33.973 C84.852 34.098 84.852 34.098 87.852 36.098 C88.182 36.758 88.512 37.418 88.852 38.098 C90.977 38.564 90.977 38.564 93.414 38.723 C94.24 38.797 95.067 38.872 95.918 38.949 C96.556 38.998 97.194 39.047 97.852 39.098 C97.852 39.428 97.852 39.758 97.852 40.098 C99.027 40.283 99.027 40.283 100.227 40.473 C102.852 41.098 102.852 41.098 104.852 43.098 C105.512 43.428 106.172 43.758 106.852 44.098 C108.852 45.098 108.852 45.098 110.852 47.098 C114.419 49.476 116.724 49.484 120.891 49.754 C121.538 49.867 122.185 49.981 122.852 50.098 C123.182 50.758 123.512 51.418 123.852 52.098 C125.089 52.345 125.089 52.345 126.352 52.598 C127.589 52.845 127.589 52.845 128.852 53.098 C129.518 54.431 130.185 55.764 130.852 57.098 C131.842 57.428 132.832 57.758 133.852 58.098 C134.512 58.428 135.172 58.758 135.852 59.098 C138.116 59.811 140.386 60.502 142.66 61.184 C145.017 62.166 146.172 63.207 147.852 65.098 C150.783 67.638 153.008 68.564 156.852 69.098 C156.852 69.428 156.852 69.758 156.852 70.098 C158.058 70.283 158.058 70.283 159.289 70.473 C160.135 70.679 160.98 70.885 161.852 71.098 C162.182 71.758 162.512 72.418 162.852 73.098 C163.512 73.428 164.172 73.758 164.852 74.098 C164.852 75.088 164.852 76.078 164.852 77.098 C166.172 76.768 167.492 76.438 168.852 76.098 C168.852 76.758 168.852 77.418 168.852 78.098 C169.706 78.219 170.561 78.34 171.441 78.465 C172.546 78.632 173.651 78.8 174.789 78.973 C175.891 79.135 176.993 79.297 178.129 79.465 C179.027 79.674 179.926 79.882 180.852 80.098 C181.852 82.098 181.852 82.098 182.852 86.098 C186.152 86.098 189.452 86.098 192.852 86.098 C193.182 86.758 193.512 87.418 193.852 88.098 C194.677 88.263 195.502 88.428 196.352 88.598 C197.177 88.763 198.002 88.928 198.852 89.098 C199.182 89.758 199.512 90.418 199.852 91.098 C200.842 91.758 201.832 92.418 202.852 93.098 C205.852 95.098 205.852 95.098 206.852 97.098 C208.899 100.169 210.584 101.464 213.852 103.098 C214.164 105.812 214.365 108.437 214.477 111.16 C214.515 111.919 214.554 112.677 214.594 113.459 C214.688 115.338 214.771 117.218 214.852 119.098 C216.502 119.428 218.152 119.758 219.852 120.098 C219.983 144.726 220.113 169.355 220.243 193.984 C220.303 205.423 220.363 216.862 220.424 228.301 C220.478 238.286 220.53 248.272 220.583 258.258 C220.61 263.531 220.638 268.804 220.666 274.077 C220.677 276.105 220.688 278.132 220.699 280.16 C220.704 281.145 220.71 282.131 220.715 283.146 C220.755 290.589 220.786 298.032 220.815 305.475 C220.836 310.443 220.869 315.41 220.915 320.377 C220.941 323.319 220.959 326.262 220.976 329.204 C220.99 331.175 221.014 333.146 221.039 335.118 C221.044 336.271 221.049 337.425 221.055 338.614 C221.064 339.609 221.073 340.604 221.082 341.629 C220.852 344.098 220.852 344.098 218.852 347.098 C218.522 347.758 218.192 348.418 217.852 349.098 C216.532 349.098 215.212 349.098 213.852 349.098 C213.852 354.378 213.852 359.658 213.852 365.098 C213.192 365.428 212.532 365.758 211.852 366.098 C210.162 367.741 208.499 369.412 206.852 371.098 C205.185 372.764 203.518 374.431 201.852 376.098 C201.171 376.902 201.171 376.902 200.477 377.723 C197.924 379.882 194.933 380.865 191.852 382.098 C191.192 382.428 190.532 382.758 189.852 383.098 C185.852 385.098 185.852 385.098 183.852 386.035 C181.804 387.041 181.804 387.041 180.055 388.559 C177.601 390.273 175.477 390.991 172.602 391.785 C171.71 392.037 170.817 392.288 169.898 392.547 C168.885 392.82 168.885 392.82 167.852 393.098 C167.852 393.758 167.852 394.418 167.852 395.098 C165.872 395.758 163.892 396.418 161.852 397.098 C161.852 397.758 161.852 398.418 161.852 399.098 C160.738 399.531 160.738 399.531 159.602 399.973 C154.829 401.919 154.829 401.919 150.852 405.098 C150.852 405.428 150.852 405.758 150.852 406.098 C150.109 406.221 149.367 406.345 148.602 406.473 C146.032 407.057 144.143 407.834 141.852 409.098 C139.185 410.431 136.518 411.764 133.852 413.098 C133.852 413.428 133.852 413.758 133.852 414.098 C133.088 414.18 132.325 414.263 131.539 414.348 C128.318 415.247 127.528 416.274 125.852 419.098 C125.852 419.428 125.852 419.758 125.852 420.098 C124.082 420.602 122.311 421.101 120.539 421.598 C119.06 422.015 119.06 422.015 117.551 422.441 C114.852 423.098 114.852 423.098 111.852 423.098 C111.522 424.088 111.192 425.078 110.852 426.098 C109.862 426.428 108.872 426.758 107.852 427.098 C107.852 427.758 107.852 428.418 107.852 429.098 C107.109 429.201 106.367 429.304 105.602 429.41 C102.67 430.143 101.092 431.106 98.852 433.098 C98.852 433.428 98.852 433.758 98.852 434.098 C96.542 434.428 94.232 434.758 91.852 435.098 C91.852 435.758 91.852 436.418 91.852 437.098 C90.518 437.764 89.185 438.431 87.852 439.098 C87.253 439.428 86.655 439.758 86.039 440.098 C83.07 441.455 79.992 442.216 76.852 443.098 C75.175 443.74 73.504 444.397 71.852 445.098 C71.852 445.758 71.852 446.418 71.852 447.098 C69.458 449.491 68.12 449.54 64.852 450.098 C61.734 450.744 61.734 450.744 60.852 453.098 C60.522 453.758 60.192 454.418 59.852 455.098 C57.789 455.489 55.757 455.604 53.664 455.754 C53.066 455.867 52.468 455.981 51.852 456.098 C51.522 456.758 51.192 457.418 50.852 458.098 C50.192 458.098 49.532 458.098 48.852 458.098 C48.522 459.088 48.192 460.078 47.852 461.098 C47.192 461.428 46.532 461.758 45.852 462.098 C45.852 462.428 45.852 462.758 45.852 463.098 C44.202 463.428 42.552 463.758 40.852 464.098 C40.852 464.428 40.852 464.758 40.852 465.098 C36.863 466.043 33.142 466.227 29.047 466.23 C27.741 466.232 26.435 466.233 25.09 466.234 C24.076 466.231 24.076 466.231 23.042 466.228 C20.99 466.223 18.938 466.228 16.887 466.234 C15.578 466.233 14.27 466.232 12.922 466.23 C11.734 466.229 10.545 466.228 9.321 466.227 C5.77 466.095 2.358 465.661 -1.148 465.098 C-1.478 464.108 -1.808 463.118 -2.148 462.098 C-4.863 459.383 -5.815 459.139 -9.711 458.66 C-10.845 458.475 -11.98 458.289 -13.148 458.098 C-13.478 457.438 -13.808 456.778 -14.148 456.098 C-14.973 455.933 -15.798 455.768 -16.648 455.598 C-17.473 455.433 -18.298 455.268 -19.148 455.098 C-19.815 453.764 -20.482 452.431 -21.148 451.098 C-23.728 450.407 -23.728 450.407 -26.711 449.973 C-27.723 449.805 -28.735 449.637 -29.777 449.465 C-30.56 449.344 -31.342 449.223 -32.148 449.098 C-32.148 448.438 -32.148 447.778 -32.148 447.098 C-36.541 445.077 -40.302 443.689 -45.148 443.098 C-45.148 442.438 -45.148 441.778 -45.148 441.098 C-48.135 439.107 -50.745 438.156 -54.148 437.098 C-54.148 435.448 -54.148 433.798 -54.148 432.098 C-57.448 432.098 -60.748 432.098 -64.148 432.098 C-64.478 431.438 -64.808 430.778 -65.148 430.098 C-67.676 429.442 -67.676 429.442 -70.148 429.098 C-70.148 428.438 -70.148 427.778 -70.148 427.098 C-71.138 426.768 -72.128 426.438 -73.148 426.098 C-73.148 425.108 -73.148 424.118 -73.148 423.098 C-74.345 422.974 -75.541 422.85 -76.773 422.723 C-80.428 422.262 -83.726 421.517 -87.148 420.098 C-87.478 419.438 -87.808 418.778 -88.148 418.098 C-88.808 417.768 -89.468 417.438 -90.148 417.098 C-90.148 416.438 -90.148 415.778 -90.148 415.098 C-91.097 414.974 -92.046 414.85 -93.023 414.723 C-96.148 414.098 -96.148 414.098 -98.148 412.098 C-99.324 411.933 -100.5 411.768 -101.711 411.598 C-102.845 411.433 -103.98 411.268 -105.148 411.098 C-105.478 410.438 -105.808 409.778 -106.148 409.098 C-108.031 408.194 -108.031 408.194 -110.211 407.473 C-111.311 407.082 -111.311 407.082 -112.434 406.684 C-112.999 406.49 -113.565 406.297 -114.148 406.098 C-114.148 405.438 -114.148 404.778 -114.148 404.098 C-115.144 403.968 -115.144 403.968 -116.16 403.836 C-122.09 402.892 -125.193 401.892 -129.148 397.098 C-132.091 394.91 -132.091 394.91 -135.773 394.098 C-136.887 393.768 -138.001 393.438 -139.148 393.098 C-139.478 392.438 -139.808 391.778 -140.148 391.098 C-142.676 390.442 -142.676 390.442 -145.148 390.098 C-145.148 389.768 -145.148 389.438 -145.148 389.098 C-145.912 388.995 -146.675 388.891 -147.461 388.785 C-150.397 388.034 -151.198 387.315 -153.148 385.098 C-155.921 383.16 -155.921 383.16 -158.148 382.098 C-159.138 381.438 -160.128 380.778 -161.148 380.098 C-162.18 379.933 -163.211 379.768 -164.273 379.598 C-165.222 379.433 -166.171 379.268 -167.148 379.098 C-167.478 378.438 -167.808 377.778 -168.148 377.098 C-171.521 373.855 -174.625 373.695 -179.148 373.098 C-179.478 372.438 -179.808 371.778 -180.148 371.098 C-181.99 369.045 -181.99 369.045 -184.148 368.098 C-184.643 366.613 -184.643 366.613 -185.148 365.098 C-185.808 365.098 -186.468 365.098 -187.148 365.098 C-187.148 363.778 -187.148 362.458 -187.148 361.098 C-187.767 360.953 -188.386 360.809 -189.023 360.66 C-191.148 360.098 -191.148 360.098 -193.148 359.098 C-193.148 353.818 -193.148 348.538 -193.148 343.098 C-194.468 342.768 -195.788 342.438 -197.148 342.098 C-197.171 313.341 -197.189 284.584 -197.2 255.827 C-197.201 252.434 -197.202 249.042 -197.203 245.65 C-197.204 244.975 -197.204 244.299 -197.204 243.603 C-197.209 232.657 -197.216 221.71 -197.226 210.764 C-197.235 199.538 -197.24 188.313 -197.243 177.087 C-197.244 170.779 -197.247 164.471 -197.254 158.163 C-197.261 152.232 -197.263 146.302 -197.262 140.371 C-197.262 138.188 -197.264 136.005 -197.268 133.823 C-197.273 130.855 -197.271 127.886 -197.269 124.918 C-197.272 124.044 -197.275 123.171 -197.278 122.271 C-197.263 116.326 -197.263 116.326 -196.148 114.098 C-195.158 114.098 -194.168 114.098 -193.148 114.098 C-193.183 113.338 -193.218 112.579 -193.254 111.797 C-193.281 110.803 -193.308 109.809 -193.336 108.785 C-193.388 107.306 -193.388 107.306 -193.441 105.797 C-193.148 103.098 -193.148 103.098 -191.824 101.242 C-190.148 100.098 -190.148 100.098 -187.148 100.098 C-186.818 99.108 -186.488 98.118 -186.148 97.098 C-182.639 92.343 -182.639 92.343 -180.148 91.098 C-178.21 88.325 -178.21 88.325 -177.148 86.098 C-174.086 85.473 -174.086 85.473 -171.148 85.098 C-171.148 84.438 -171.148 83.778 -171.148 83.098 C-168.178 82.603 -168.178 82.603 -165.148 82.098 C-165.148 81.438 -165.148 80.778 -165.148 80.098 C-164.014 79.974 -162.88 79.85 -161.711 79.723 C-159.947 79.413 -159.947 79.413 -158.148 79.098 C-157.818 78.438 -157.488 77.778 -157.148 77.098 C-153.848 77.098 -150.548 77.098 -147.148 77.098 C-147.148 75.118 -147.148 73.138 -147.148 71.098 C-146.22 70.974 -145.292 70.85 -144.336 70.723 C-141.009 70.282 -141.009 70.282 -138.148 68.098 C-137.282 67.933 -136.416 67.768 -135.523 67.598 C-134.74 67.433 -133.956 67.268 -133.148 67.098 C-132.818 66.438 -132.488 65.778 -132.148 65.098 C-131.158 64.438 -130.168 63.778 -129.148 63.098 C-129.148 62.768 -129.148 62.438 -129.148 62.098 C-127.498 61.768 -125.848 61.438 -124.148 61.098 C-124.148 60.768 -124.148 60.438 -124.148 60.098 C-122.498 60.098 -120.848 60.098 -119.148 60.098 C-118.653 59.108 -118.653 59.108 -118.148 58.098 C-117.653 57.108 -117.653 57.108 -117.148 56.098 C-114.586 55.473 -114.586 55.473 -112.148 55.098 C-112.148 54.438 -112.148 53.778 -112.148 53.098 C-110.498 52.768 -108.848 52.438 -107.148 52.098 C-107.148 51.438 -107.148 50.778 -107.148 50.098 C-106.241 49.974 -105.333 49.85 -104.398 49.723 C-100.355 48.945 -98.051 48.001 -95.148 45.098 C-95.148 44.768 -95.148 44.438 -95.148 44.098 C-91.683 43.603 -91.683 43.603 -88.148 43.098 C-88.148 42.438 -88.148 41.778 -88.148 41.098 C-83.693 40.603 -83.693 40.603 -79.148 40.098 C-79.025 39.314 -78.901 38.53 -78.773 37.723 C-77.148 35.098 -77.148 35.098 -74.789 34.32 C-72.246 33.828 -69.718 33.415 -67.148 33.098 C-67.148 32.438 -67.148 31.778 -67.148 31.098 C-64.583 28.532 -62.672 28.557 -59.148 28.098 C-59.148 27.438 -59.148 26.778 -59.148 26.098 C-57.498 25.768 -55.848 25.438 -54.148 25.098 C-54.148 24.438 -54.148 23.778 -54.148 23.098 C-53.241 22.85 -52.333 22.603 -51.398 22.348 C-48.105 21.334 -48.105 21.334 -46.086 19.035 C-43.8 16.749 -42.308 16.449 -39.148 16.098 C-39.148 15.438 -39.148 14.778 -39.148 14.098 C-35.683 13.603 -35.683 13.603 -32.148 13.098 C-32.148 12.438 -32.148 11.778 -32.148 11.098 C-30.498 10.768 -28.848 10.438 -27.148 10.098 C-27.148 9.438 -27.148 8.778 -27.148 8.098 C-25.168 7.438 -23.188 6.778 -21.148 6.098 C-21.148 5.768 -21.148 5.438 -21.148 5.098 C-20.385 4.995 -19.622 4.891 -18.836 4.785 C-16.133 4.346 -16.133 4.346 -14.711 2.598 C-11.091 -0.877 -4.717 -0.02 0 0 Z M-7.148 14.098 C-7.148 15.088 -7.148 16.078 -7.148 17.098 C-8.138 17.098 -9.128 17.098 -10.148 17.098 C-10.148 18.088 -10.148 19.078 -10.148 20.098 C-11.798 20.098 -13.448 20.098 -15.148 20.098 C-15.148 21.088 -15.148 22.078 -15.148 23.098 C-17.128 23.098 -19.108 23.098 -21.148 23.098 C-21.148 24.088 -21.148 25.078 -21.148 26.098 C-22.798 26.098 -24.448 26.098 -26.148 26.098 C-26.148 27.088 -26.148 28.078 -26.148 29.098 C-28.128 29.098 -30.108 29.098 -32.148 29.098 C-32.148 30.088 -32.148 31.078 -32.148 32.098 C-33.138 32.098 -34.128 32.098 -35.148 32.098 C-35.148 33.088 -35.148 34.078 -35.148 35.098 C-37.128 35.098 -39.108 35.098 -41.148 35.098 C-41.148 36.088 -41.148 37.078 -41.148 38.098 C-43.458 38.098 -45.768 38.098 -48.148 38.098 C-48.148 39.088 -48.148 40.078 -48.148 41.098 C-49.798 41.098 -51.448 41.098 -53.148 41.098 C-53.148 42.088 -53.148 43.078 -53.148 44.098 C-56.118 44.098 -59.088 44.098 -62.148 44.098 C-62.148 45.088 -62.148 46.078 -62.148 47.098 C-64.128 47.098 -66.108 47.098 -68.148 47.098 C-68.148 48.088 -68.148 49.078 -68.148 50.098 C-69.138 50.098 -70.128 50.098 -71.148 50.098 C-71.148 51.088 -71.148 52.078 -71.148 53.098 C-74.118 53.098 -77.088 53.098 -80.148 53.098 C-80.148 54.418 -80.148 55.738 -80.148 57.098 C-82.128 57.098 -84.108 57.098 -86.148 57.098 C-86.148 58.088 -86.148 59.078 -86.148 60.098 C-87.138 60.098 -88.128 60.098 -89.148 60.098 C-89.643 61.088 -89.643 61.088 -90.148 62.098 C-92.711 62.723 -92.711 62.723 -95.148 63.098 C-95.148 63.758 -95.148 64.418 -95.148 65.098 C-97.128 65.098 -99.108 65.098 -101.148 65.098 C-101.148 66.088 -101.148 67.078 -101.148 68.098 C-103.458 68.098 -105.768 68.098 -108.148 68.098 C-108.148 69.088 -108.148 70.078 -108.148 71.098 C-109.798 71.098 -111.448 71.098 -113.148 71.098 C-113.148 72.088 -113.148 73.078 -113.148 74.098 C-114.798 74.098 -116.448 74.098 -118.148 74.098 C-118.148 75.088 -118.148 76.078 -118.148 77.098 C-120.128 77.098 -122.108 77.098 -124.148 77.098 C-124.148 78.088 -124.148 79.078 -124.148 80.098 C-125.798 80.098 -127.448 80.098 -129.148 80.098 C-129.148 81.088 -129.148 82.078 -129.148 83.098 C-131.128 83.098 -133.108 83.098 -135.148 83.098 C-135.148 84.088 -135.148 85.078 -135.148 86.098 C-136.468 86.098 -137.788 86.098 -139.148 86.098 C-139.148 87.088 -139.148 88.078 -139.148 89.098 C-141.128 89.098 -143.108 89.098 -145.148 89.098 C-145.148 90.088 -145.148 91.078 -145.148 92.098 C-146.798 92.098 -148.448 92.098 -150.148 92.098 C-150.148 93.088 -150.148 94.078 -150.148 95.098 C-151.798 95.098 -153.448 95.098 -155.148 95.098 C-155.148 96.088 -155.148 97.078 -155.148 98.098 C-156.138 98.098 -157.128 98.098 -158.148 98.098 C-158.148 99.088 -158.148 100.078 -158.148 101.098 C-160.128 101.098 -162.108 101.098 -164.148 101.098 C-164.148 102.088 -164.148 103.078 -164.148 104.098 C-166.458 104.098 -168.768 104.098 -171.148 104.098 C-171.148 104.758 -171.148 105.418 -171.148 106.098 C-173.128 106.098 -175.108 106.098 -177.148 106.098 C-177.148 110.718 -177.148 115.338 -177.148 120.098 C-179.458 120.098 -181.768 120.098 -184.148 120.098 C-184.148 193.028 -184.148 265.958 -184.148 341.098 C-182.168 341.098 -180.188 341.098 -178.148 341.098 C-178.148 344.728 -178.148 348.358 -178.148 352.098 C-177.158 352.098 -176.168 352.098 -175.148 352.098 C-175.148 353.088 -175.148 354.078 -175.148 355.098 C-173.498 355.098 -171.848 355.098 -170.148 355.098 C-170.148 356.088 -170.148 357.078 -170.148 358.098 C-168.168 358.098 -166.188 358.098 -164.148 358.098 C-164.148 359.088 -164.148 360.078 -164.148 361.098 C-162.498 361.098 -160.848 361.098 -159.148 361.098 C-159.148 363.078 -159.148 365.058 -159.148 367.098 C-156.178 367.098 -153.208 367.098 -150.148 367.098 C-150.148 368.088 -150.148 369.078 -150.148 370.098 C-148.828 370.098 -147.508 370.098 -146.148 370.098 C-146.148 371.088 -146.148 372.078 -146.148 373.098 C-144.498 373.098 -142.848 373.098 -141.148 373.098 C-141.148 374.088 -141.148 375.078 -141.148 376.098 C-139.168 376.098 -137.188 376.098 -135.148 376.098 C-135.148 377.088 -135.148 378.078 -135.148 379.098 C-133.168 379.098 -131.188 379.098 -129.148 379.098 C-129.148 380.088 -129.148 381.078 -129.148 382.098 C-127.498 382.098 -125.848 382.098 -124.148 382.098 C-124.148 383.088 -124.148 384.078 -124.148 385.098 C-122.168 385.098 -120.188 385.098 -118.148 385.098 C-118.148 385.758 -118.148 386.418 -118.148 387.098 C-116.168 387.098 -114.188 387.098 -112.148 387.098 C-112.148 387.758 -112.148 388.418 -112.148 389.098 C-111.488 389.098 -110.828 389.098 -110.148 389.098 C-110.148 389.758 -110.148 390.418 -110.148 391.098 C-108.168 391.098 -106.188 391.098 -104.148 391.098 C-104.148 392.088 -104.148 393.078 -104.148 394.098 C-102.498 394.098 -100.848 394.098 -99.148 394.098 C-99.148 394.758 -99.148 395.418 -99.148 396.098 C-97.828 396.098 -96.508 396.098 -95.148 396.098 C-95.148 397.088 -95.148 398.078 -95.148 399.098 C-93.849 399.221 -92.55 399.345 -91.211 399.473 C-88.996 399.684 -88.996 399.684 -87.148 400.098 C-86.818 400.758 -86.488 401.418 -86.148 402.098 C-85.323 402.263 -84.498 402.428 -83.648 402.598 C-82.823 402.763 -81.998 402.928 -81.148 403.098 C-80.818 403.758 -80.488 404.418 -80.148 405.098 C-78.828 405.098 -77.508 405.098 -76.148 405.098 C-76.148 406.088 -76.148 407.078 -76.148 408.098 C-74.498 408.098 -72.848 408.098 -71.148 408.098 C-71.148 409.088 -71.148 410.078 -71.148 411.098 C-69.168 411.098 -67.188 411.098 -65.148 411.098 C-65.148 412.088 -65.148 413.078 -65.148 414.098 C-63.168 414.098 -61.188 414.098 -59.148 414.098 C-59.148 415.088 -59.148 416.078 -59.148 417.098 C-57.498 417.098 -55.848 417.098 -54.148 417.098 C-54.148 418.088 -54.148 419.078 -54.148 420.098 C-52.828 420.098 -51.508 420.098 -50.148 420.098 C-50.148 420.758 -50.148 421.418 -50.148 422.098 C-49.344 422.221 -48.54 422.345 -47.711 422.473 C-46.442 422.782 -46.442 422.782 -45.148 423.098 C-44.818 423.758 -44.488 424.418 -44.148 425.098 C-42.498 425.098 -40.848 425.098 -39.148 425.098 C-39.148 426.088 -39.148 427.078 -39.148 428.098 C-37.828 428.098 -36.508 428.098 -35.148 428.098 C-35.148 428.758 -35.148 429.418 -35.148 430.098 C-32.178 430.428 -29.208 430.758 -26.148 431.098 C-26.148 432.088 -26.148 433.078 -26.148 434.098 C-24.498 434.098 -22.848 434.098 -21.148 434.098 C-21.148 435.088 -21.148 436.078 -21.148 437.098 C-19.498 437.098 -17.848 437.098 -16.148 437.098 C-16.148 438.088 -16.148 439.078 -16.148 440.098 C-14.168 440.098 -12.188 440.098 -10.148 440.098 C-10.148 441.088 -10.148 442.078 -10.148 443.098 C-7.838 443.098 -5.528 443.098 -3.148 443.098 C-3.148 443.758 -3.148 444.418 -3.148 445.098 C-1.168 445.098 0.812 445.098 2.852 445.098 C2.852 446.088 2.852 447.078 2.852 448.098 C4.172 448.098 5.492 448.098 6.852 448.098 C6.852 449.418 6.852 450.738 6.852 452.098 C15.432 452.098 24.012 452.098 32.852 452.098 C32.852 450.778 32.852 449.458 32.852 448.098 C34.502 448.098 36.152 448.098 37.852 448.098 C37.852 447.108 37.852 446.118 37.852 445.098 C39.502 445.098 41.152 445.098 42.852 445.098 C42.852 444.438 42.852 443.778 42.852 443.098 C44.502 443.098 46.152 443.098 47.852 443.098 C47.852 442.108 47.852 441.118 47.852 440.098 C49.832 440.098 51.812 440.098 53.852 440.098 C53.852 439.108 53.852 438.118 53.852 437.098 C55.502 437.098 57.152 437.098 58.852 437.098 C58.852 436.108 58.852 435.118 58.852 434.098 C60.832 434.098 62.812 434.098 64.852 434.098 C64.852 433.108 64.852 432.118 64.852 431.098 C66.502 431.098 68.152 431.098 69.852 431.098 C69.852 430.108 69.852 429.118 69.852 428.098 C71.832 428.098 73.812 428.098 75.852 428.098 C75.852 427.438 75.852 426.778 75.852 426.098 C77.172 426.098 78.492 426.098 79.852 426.098 C79.852 425.108 79.852 424.118 79.852 423.098 C81.502 423.098 83.152 423.098 84.852 423.098 C84.852 422.108 84.852 421.118 84.852 420.098 C86.172 420.098 87.492 420.098 88.852 420.098 C88.852 419.108 88.852 418.118 88.852 417.098 C90.832 417.098 92.812 417.098 94.852 417.098 C94.852 416.108 94.852 415.118 94.852 414.098 C97.492 414.098 100.132 414.098 102.852 414.098 C102.852 413.108 102.852 412.118 102.852 411.098 C104.502 411.098 106.152 411.098 107.852 411.098 C107.852 410.108 107.852 409.118 107.852 408.098 C108.842 408.098 109.832 408.098 110.852 408.098 C110.852 407.108 110.852 406.118 110.852 405.098 C112.832 405.098 114.812 405.098 116.852 405.098 C116.852 404.108 116.852 403.118 116.852 402.098 C118.502 402.098 120.152 402.098 121.852 402.098 C121.852 401.108 121.852 400.118 121.852 399.098 C123.832 399.098 125.812 399.098 127.852 399.098 C127.852 398.108 127.852 397.118 127.852 396.098 C128.842 396.098 129.832 396.098 130.852 396.098 C130.852 395.438 130.852 394.778 130.852 394.098 C132.502 394.098 134.152 394.098 135.852 394.098 C135.852 393.108 135.852 392.118 135.852 391.098 C138.822 391.098 141.792 391.098 144.852 391.098 C144.852 389.778 144.852 388.458 144.852 387.098 C146.832 387.098 148.812 387.098 150.852 387.098 C150.852 386.438 150.852 385.778 150.852 385.098 C152.502 385.098 154.152 385.098 155.852 385.098 C155.852 384.108 155.852 383.118 155.852 382.098 C157.832 382.098 159.812 382.098 161.852 382.098 C161.852 381.108 161.852 380.118 161.852 379.098 C163.502 379.098 165.152 379.098 166.852 379.098 C166.852 378.108 166.852 377.118 166.852 376.098 C168.502 376.098 170.152 376.098 171.852 376.098 C171.852 375.108 171.852 374.118 171.852 373.098 C173.832 373.098 175.812 373.098 177.852 373.098 C177.852 372.108 177.852 371.118 177.852 370.098 C179.502 370.098 181.152 370.098 182.852 370.098 C182.852 369.108 182.852 368.118 182.852 367.098 C184.832 367.098 186.812 367.098 188.852 367.098 C188.852 366.108 188.852 365.118 188.852 364.098 C189.842 364.098 190.832 364.098 191.852 364.098 C191.852 363.108 191.852 362.118 191.852 361.098 C193.172 361.098 194.492 361.098 195.852 361.098 C195.852 360.438 195.852 359.778 195.852 359.098 C196.842 359.098 197.832 359.098 198.852 359.098 C198.852 354.148 198.852 349.198 198.852 344.098 C200.832 344.098 202.812 344.098 204.852 344.098 C204.852 270.508 204.852 196.918 204.852 121.098 C202.542 121.098 200.232 121.098 197.852 121.098 C197.852 116.478 197.852 111.858 197.852 107.098 C195.872 107.098 193.892 107.098 191.852 107.098 C191.852 106.108 191.852 105.118 191.852 104.098 C188.882 104.098 185.912 104.098 182.852 104.098 C182.852 103.108 182.852 102.118 182.852 101.098 C181.862 101.098 180.872 101.098 179.852 101.098 C179.852 100.108 179.852 99.118 179.852 98.098 C177.872 98.098 175.892 98.098 173.852 98.098 C173.852 97.108 173.852 96.118 173.852 95.098 C171.542 95.098 169.232 95.098 166.852 95.098 C166.852 94.108 166.852 93.118 166.852 92.098 C164.872 92.098 162.892 92.098 160.852 92.098 C160.852 91.108 160.852 90.118 160.852 89.098 C159.202 89.098 157.552 89.098 155.852 89.098 C155.852 88.108 155.852 87.118 155.852 86.098 C154.202 86.098 152.552 86.098 150.852 86.098 C150.852 85.108 150.852 84.118 150.852 83.098 C148.872 83.098 146.892 83.098 144.852 83.098 C144.852 82.108 144.852 81.118 144.852 80.098 C142.872 80.098 140.892 80.098 138.852 80.098 C138.852 79.108 138.852 78.118 138.852 77.098 C137.202 77.098 135.552 77.098 133.852 77.098 C133.852 76.108 133.852 75.118 133.852 74.098 C131.872 74.098 129.892 74.098 127.852 74.098 C127.852 73.108 127.852 72.118 127.852 71.098 C126.202 71.098 124.552 71.098 122.852 71.098 C122.852 70.108 122.852 69.118 122.852 68.098 C120.872 68.098 118.892 68.098 116.852 68.098 C116.852 67.108 116.852 66.118 116.852 65.098 C114.872 65.098 112.892 65.098 110.852 65.098 C110.852 64.438 110.852 63.778 110.852 63.098 C108.872 63.098 106.892 63.098 104.852 63.098 C104.852 62.108 104.852 61.118 104.852 60.098 C100.892 59.603 100.892 59.603 96.852 59.098 C96.852 58.108 96.852 57.118 96.852 56.098 C95.202 56.098 93.552 56.098 91.852 56.098 C91.852 55.108 91.852 54.118 91.852 53.098 C89.542 53.098 87.232 53.098 84.852 53.098 C84.852 52.108 84.852 51.118 84.852 50.098 C83.202 50.098 81.552 50.098 79.852 50.098 C79.852 49.108 79.852 48.118 79.852 47.098 C77.872 47.098 75.892 47.098 73.852 47.098 C73.852 46.108 73.852 45.118 73.852 44.098 C71.872 44.098 69.892 44.098 67.852 44.098 C67.852 43.108 67.852 42.118 67.852 41.098 C65.872 41.098 63.892 41.098 61.852 41.098 C61.852 40.438 61.852 39.778 61.852 39.098 C60.862 39.098 59.872 39.098 58.852 39.098 C58.852 38.438 58.852 37.778 58.852 37.098 C56.872 37.098 54.892 37.098 52.852 37.098 C52.852 36.438 52.852 35.778 52.852 35.098 C52.212 34.974 51.573 34.85 50.914 34.723 C50.233 34.516 49.553 34.31 48.852 34.098 C48.522 33.438 48.192 32.778 47.852 32.098 C46.202 32.098 44.552 32.098 42.852 32.098 C42.852 31.108 42.852 30.118 42.852 29.098 C41.202 29.098 39.552 29.098 37.852 29.098 C37.852 28.108 37.852 27.118 37.852 26.098 C35.212 26.098 32.572 26.098 29.852 26.098 C29.852 25.108 29.852 24.118 29.852 23.098 C28.202 23.098 26.552 23.098 24.852 23.098 C24.852 22.108 24.852 21.118 24.852 20.098 C23.202 20.098 21.552 20.098 19.852 20.098 C19.852 19.108 19.852 18.118 19.852 17.098 C18.202 17.098 16.552 17.098 14.852 17.098 C14.852 16.108 14.852 15.118 14.852 14.098 C7.592 14.098 0.332 14.098 -7.148 14.098 Z M-131.148 66.098 C-130.148 68.098 -130.148 68.098 -130.148 68.098 Z M162.852 75.098 C163.852 77.098 163.852 77.098 163.852 77.098 Z M-189.148 101.098 C-185.148 102.098 -185.148 102.098 -185.148 102.098 Z M-192.148 104.098 C-192.148 107.398 -192.148 110.698 -192.148 114.098 C-191.818 114.098 -191.488 114.098 -191.148 114.098 C-191.148 110.798 -191.148 107.498 -191.148 104.098 C-191.478 104.098 -191.808 104.098 -192.148 104.098 Z M217.852 315.098 C217.852 323.678 217.852 332.258 217.852 341.098 C218.182 341.098 218.512 341.098 218.852 341.098 C218.852 332.518 218.852 323.938 218.852 315.098 C218.522 315.098 218.192 315.098 217.852 315.098 Z M-81.148 420.098 C-77.148 421.098 -77.148 421.098 -77.148 421.098 Z M114.852 420.098 C114.852 420.428 114.852 420.758 114.852 421.098 C116.502 421.098 118.152 421.098 119.852 421.098 C119.852 420.768 119.852 420.438 119.852 420.098 C118.202 420.098 116.552 420.098 114.852 420.098 Z M-72.148 423.098 C-71.148 425.098 -71.148 425.098 -71.148 425.098 Z M-23.148 449.098 C-19.148 450.098 -19.148 450.098 -19.148 450.098 Z " fill="#1C1A23" transform="translate(245.1484375,22.90234375)"/>
<path d="M0 0 C2.31 0 4.62 0 7 0 C7 0.99 7 1.98 7 3 C9.64 3 12.28 3 15 3 C15 3.99 15 4.98 15 6 C16.98 6 18.96 6 21 6 C21 6.99 21 7.98 21 9 C22.98 9 24.96 9 27 9 C27 9.99 27 10.98 27 12 C28.65 12 30.3 12 32 12 C32 12.99 32 13.98 32 15 C33.98 15 35.96 15 38 15 C38 15.99 38 16.98 38 18 C39.32 18 40.64 18 42 18 C42 18.99 42 19.98 42 21 C42.99 21 43.98 21 45 21 C45 38.16 45 55.32 45 73 C42.03 73 39.06 73 36 73 C36 74.98 36 76.96 36 79 C34.02 79 32.04 79 30 79 C29.67 78.01 29.34 77.02 29 76 C27.35 76 25.7 76 24 76 C24 75.01 24 74.02 24 73 C22.02 73 20.04 73 18 73 C18 72.01 18 71.02 18 70 C16.35 70 14.7 70 13 70 C13 69.01 13 68.02 13 67 C11.02 67 9.04 67 7 67 C7 66.01 7 65.02 7 64 C4.69 64 2.38 64 0 64 C0 63.01 0 62.02 0 61 C-1.98 61 -3.96 61 -6 61 C-6 60.01 -6 59.02 -6 58 C-6.99 58 -7.98 58 -9 58 C-9 40.84 -9 23.68 -9 6 C-6.03 6 -3.06 6 0 6 C0 4.02 0 2.04 0 0 Z " fill="#17151E" transform="translate(200,267)"/>
<path d="M0 0 C1.65 0 3.3 0 5 0 C5 0.99 5 1.98 5 3 C6.98 3 8.96 3 11 3 C11 3.99 11 4.98 11 6 C14.3 6.33 17.6 6.66 21 7 C21 7.99 21 8.98 21 10 C22.65 10 24.3 10 26 10 C26 10.66 26 11.32 26 12 C27.98 12 29.96 12 32 12 C32 12.99 32 13.98 32 15 C33.98 15 35.96 15 38 15 C38 15.99 38 16.98 38 18 C39.98 18 41.96 18 44 18 C44 18.99 44 19.98 44 21 C44.66 21 45.32 21 46 21 C46 38.16 46 55.32 46 73 C43.36 73 40.72 73 38 73 C38 74.98 38 76.96 38 79 C36.02 79 34.04 79 32 79 C32 78.01 32 77.02 32 76 C29.69 76 27.38 76 25 76 C24.67 75.34 24.34 74.68 24 74 C21.473 73.344 21.473 73.344 19 73 C19 72.01 19 71.02 19 70 C17.35 70 15.7 70 14 70 C14 69.01 14 68.02 14 67 C12.35 67 10.7 67 9 67 C9 66.34 9 65.68 9 65 C7.02 65 5.04 65 3 65 C3 64.01 3 63.02 3 62 C1.02 62 -0.96 62 -3 62 C-3 61.01 -3 60.02 -3 59 C-4.65 59 -6.3 59 -8 59 C-8 41.84 -8 24.68 -8 7 C-5.36 7 -2.72 7 0 7 C0 4.69 0 2.38 0 0 Z " fill="#15131D" transform="translate(92,220)"/>
<path d="M0 0 C2.375 2.5 2.375 2.5 4 5 C4.66 5.33 5.32 5.66 6 6 C6 6.99 6 7.98 6 9 C8.475 9.495 8.475 9.495 11 10 C11 10.66 11 11.32 11 12 C12.671 11.969 12.671 11.969 14.375 11.938 C18 12 18 12 20 13 C20 13.99 20 14.98 20 16 C21.98 16 23.96 16 26 16 C26 16.99 26 17.98 26 19 C27.98 19 29.96 19 32 19 C32 19.99 32 20.98 32 22 C32.66 22 33.32 22 34 22 C34 22.66 34 23.32 34 24 C35.98 24 37.96 24 40 24 C40 24.99 40 25.98 40 27 C42.64 27 45.28 27 48 27 C48 27.99 48 28.98 48 30 C49.98 30 51.96 30 54 30 C54 30.99 54 31.98 54 33 C55.98 33 57.96 33 60 33 C60 33.99 60 34.98 60 36 C61.65 36 63.3 36 65 36 C65 36.99 65 37.98 65 39 C67.64 39 70.28 39 73 39 C73 39.99 73 40.98 73 42 C74.98 42 76.96 42 79 42 C79 42.99 79 43.98 79 45 C80.98 45 82.96 45 85 45 C85 45.99 85 46.98 85 48 C86.65 48 88.3 48 90 48 C90 48.99 90 49.98 90 51 C91.98 51 93.96 51 96 51 C96 51.99 96 52.98 96 54 C97.98 54 99.96 54 102 54 C102 54.99 102 55.98 102 57 C104.97 57 107.94 57 111 57 C111 57.99 111 58.98 111 60 C112.65 60 114.3 60 116 60 C116.33 60.99 116.66 61.98 117 63 C118.98 63 120.96 63 123 63 C123 63.99 123 64.98 123 66 C124.918 66.186 124.918 66.186 126.875 66.375 C130.75 66.75 130.75 66.75 133 69 C135.069 69.643 135.069 69.643 137 70 C137 70.66 137 71.32 137 72 C138.98 72 140.96 72 143 72 C143 72.99 143 73.98 143 75 C144.65 75 146.3 75 148 75 C148 76.32 148 77.64 148 79 C150.31 79 152.62 79 155 79 C155 79.99 155 80.98 155 82 C156.65 82 158.3 82 160 82 C160.33 82.99 160.66 83.98 161 85 C161.763 84.897 162.526 84.794 163.312 84.688 C164.199 84.791 165.086 84.894 166 85 C167.625 87.437 167.625 87.437 169 90 C169.99 90.33 170.98 90.66 172 91 C171.34 92.98 170.68 94.96 170 97 C168.02 97 166.04 97 164 97 C163.67 96.01 163.34 95.02 163 94 C161.02 94 159.04 94 157 94 C157 93.01 157 92.02 157 91 C155.02 91 153.04 91 151 91 C151 90.01 151 89.02 151 88 C149.35 88 147.7 88 146 88 C145.67 87.01 145.34 86.02 145 85 C143.35 85 141.7 85 140 85 C139.67 84.01 139.34 83.02 139 82 C137.35 82 135.7 82 134 82 C134 81.01 134 80.02 134 79 C132.02 79 130.04 79 128 79 C128 77.68 128 76.36 128 75 C125.36 75 122.72 75 120 75 C120 74.01 120 73.02 120 72 C118.35 72 116.7 72 115 72 C115 71.34 115 70.68 115 70 C113.35 69.67 111.7 69.34 110 69 C110 68.01 110 67.02 110 66 C108.02 66 106.04 66 104 66 C104 65.01 104 64.02 104 63 C102.35 63 100.7 63 99 63 C99 62.01 99 61.02 99 60 C97.701 60.021 96.401 60.041 95.062 60.062 C93.708 60.084 92.352 60.071 91 60 C90.67 59.67 90.34 59.34 90 59 C87.672 58.632 85.338 58.298 83 58 C83 56.68 83 55.36 83 54 C80.69 54 78.38 54 76 54 C76 53.01 76 52.02 76 51 C75.278 51.041 74.556 51.083 73.812 51.125 C70.706 50.987 68.717 50.51 66 49 C65.188 46.875 65.188 46.875 65 45 C63.35 45 61.7 45 60 45 C60 44.01 60 43.02 60 42 C58.02 42 56.04 42 54 42 C53.67 41.01 53.34 40.02 53 39 C50.69 39 48.38 39 46 39 C45.67 38.34 45.34 37.68 45 37 C42.678 36.593 40.343 36.256 38 36 C38 35.01 38 34.02 38 33 C36.68 33 35.36 33 34 33 C34 32.01 34 31.02 34 30 C31.36 30 28.72 30 26 30 C26 29.34 26 28.68 26 28 C24.35 28 22.7 28 21 28 C20.505 26.02 20.505 26.02 20 24 C19.01 24 18.02 24 17 24 C17 23.34 17 22.68 17 22 C14.69 22 12.38 22 10 22 C10 21.01 10 20.02 10 19 C8.35 19 6.7 19 5 19 C5 18.34 5 17.68 5 17 C3.02 17 1.04 17 -1 17 C-1 16.01 -1 15.02 -1 14 C-1.99 14 -2.98 14 -4 14 C-4 13.34 -4 12.68 -4 12 C-5.65 12 -7.3 12 -9 12 C-9.33 11.01 -9.66 10.02 -10 9 C-10.66 8.67 -11.32 8.34 -12 8 C-12 5.69 -12 3.38 -12 1 C-8.21 -1.685 -4.265 -1.395 0 0 Z " fill="#FEFDFC" transform="translate(90,129)"/>
<path d="M0 0 C3.3 0 6.6 0 10 0 C10.33 1.32 10.66 2.64 11 4 C13.97 4.495 13.97 4.495 17 5 C17 5.99 17 6.98 17 8 C19.64 8.33 22.28 8.66 25 9 C25 9.66 25 10.32 25 11 C26.32 11.33 27.64 11.66 29 12 C29 12.66 29 13.32 29 14 C29.66 14 30.32 14 31 14 C31 15.32 31 16.64 31 18 C31.66 18 32.32 18 33 18 C33 23.61 33 29.22 33 35 C31.35 35 29.7 35 28 35 C28 35.99 28 36.98 28 38 C24.565 40.29 23.015 40.178 19 40 C19 39.34 19 38.68 19 38 C18.01 38 17.02 38 16 38 C16 37.01 16 36.02 16 35 C13.36 35 10.72 35 8 35 C8 34.01 8 33.02 8 32 C6.02 32 4.04 32 2 32 C2 31.01 2 30.02 2 29 C0.02 29 -1.96 29 -4 29 C-4 28.01 -4 27.02 -4 26 C-4.66 26 -5.32 26 -6 26 C-6 25.01 -6 24.02 -6 23 C-6.99 23 -7.98 23 -9 23 C-9 17.39 -9 11.78 -9 6 C-8.01 6 -7.02 6 -6 6 C-6 4.68 -6 3.36 -6 2 C-4.02 2 -2.04 2 0 2 C0 1.34 0 0.68 0 0 Z " fill="#FDACA6" transform="translate(219,346)"/>
<path d="M0 0 C4.29 0 8.58 0 13 0 C13 0.99 13 1.98 13 3 C14.98 3 16.96 3 19 3 C19 3.66 19 4.32 19 5 C21.97 5 24.94 5 28 5 C28 5.99 28 6.98 28 8 C28.99 8 29.98 8 31 8 C31 8.99 31 9.98 31 11 C31.66 11 32.32 11 33 11 C33 11.99 33 12.98 33 14 C33.66 14 34.32 14 35 14 C35 20.6 35 27.2 35 34 C33.68 34 32.36 34 31 34 C31 34.99 31 35.98 31 37 C27.04 37 23.08 37 19 37 C19 36.01 19 35.02 19 34 C16.36 34 13.72 34 11 34 C11 33.01 11 32.02 11 31 C9.02 31 7.04 31 5 31 C5 30.01 5 29.02 5 28 C2.69 28 0.38 28 -2 28 C-2 26.02 -2 24.04 -2 22 C-3.32 22 -4.64 22 -6 22 C-6 15.73 -6 9.46 -6 3 C-4.02 2.67 -2.04 2.34 0 2 C0 1.34 0 0.68 0 0 Z " fill="#FEABA2" transform="translate(73,285)"/>
<path d="M0 0 C0 0.66 0 1.32 0 2 C-1.65 2 -3.3 2 -5 2 C-5 2.99 -5 3.98 -5 5 C-6.65 5 -8.3 5 -10 5 C-10.33 5.99 -10.66 6.98 -11 8 C-12.98 8 -14.96 8 -17 8 C-17 8.99 -17 9.98 -17 11 C-18.65 11 -20.3 11 -22 11 C-22 11.99 -22 12.98 -22 14 C-23.32 14 -24.64 14 -26 14 C-26 14.99 -26 15.98 -26 17 C-28.31 17 -30.62 17 -33 17 C-33 17.66 -33 18.32 -33 19 C-35.31 19 -37.62 19 -40 19 C-40 20.32 -40 21.64 -40 23 C-42.31 23 -44.62 23 -47 23 C-47 23.66 -47 24.32 -47 25 C-47.639 25.124 -48.279 25.248 -48.938 25.375 C-49.618 25.581 -50.299 25.787 -51 26 C-51.33 26.66 -51.66 27.32 -52 28 C-52.66 28 -53.32 28 -54 28 C-54 28.99 -54 29.98 -54 31 C-54.99 31 -55.98 31 -57 31 C-57 31.99 -57 32.98 -57 34 C-57.99 34 -58.98 34 -60 34 C-60 35.98 -60 37.96 -60 40 C-61.98 40 -63.96 40 -66 40 C-66 44.62 -66 49.24 -66 54 C-67.65 54 -69.3 54 -71 54 C-71 127.26 -71 200.52 -71 276 C-69.35 276 -67.7 276 -66 276 C-66 281.94 -66 287.88 -66 294 C-64.02 294 -62.04 294 -60 294 C-60 295.98 -60 297.96 -60 300 C-59.01 300 -58.02 300 -57 300 C-57 300.99 -57 301.98 -57 303 C-56.34 303.33 -55.68 303.66 -55 304 C-56.65 304 -58.3 304 -60 304 C-60.495 302.515 -60.495 302.515 -61 301 C-61.66 301 -62.32 301 -63 301 C-63 299.68 -63 298.36 -63 297 C-63.619 296.856 -64.237 296.711 -64.875 296.562 C-67 296 -67 296 -69 295 C-69 289.72 -69 284.44 -69 279 C-70.32 278.67 -71.64 278.34 -73 278 C-73.023 249.243 -73.041 220.486 -73.051 191.729 C-73.052 188.337 -73.054 184.944 -73.055 181.552 C-73.055 180.877 -73.055 180.202 -73.056 179.506 C-73.06 168.559 -73.068 157.613 -73.077 146.666 C-73.086 135.441 -73.092 124.215 -73.094 112.99 C-73.095 106.682 -73.098 100.374 -73.106 94.066 C-73.112 88.135 -73.115 82.204 -73.113 76.273 C-73.113 74.09 -73.115 71.908 -73.119 69.725 C-73.124 66.757 -73.123 63.789 -73.12 60.82 C-73.123 59.947 -73.126 59.073 -73.129 58.173 C-73.114 52.228 -73.114 52.228 -72 50 C-71.01 50 -70.02 50 -69 50 C-69.052 48.861 -69.052 48.861 -69.105 47.699 C-69.133 46.705 -69.16 45.711 -69.188 44.688 C-69.24 43.208 -69.24 43.208 -69.293 41.699 C-69 39 -69 39 -67.676 37.145 C-66 36 -66 36 -63 36 C-62.67 35.01 -62.34 34.02 -62 33 C-58.491 28.245 -58.491 28.245 -56 27 C-54.062 24.227 -54.062 24.227 -53 22 C-49.938 21.375 -49.938 21.375 -47 21 C-47 20.34 -47 19.68 -47 19 C-45.02 18.67 -43.04 18.34 -41 18 C-41 17.34 -41 16.68 -41 16 C-39.866 15.876 -38.731 15.752 -37.562 15.625 C-36.387 15.419 -35.211 15.213 -34 15 C-33.67 14.34 -33.34 13.68 -33 13 C-29.7 13 -26.4 13 -23 13 C-23 11.02 -23 9.04 -23 7 C-22.072 6.876 -21.144 6.752 -20.188 6.625 C-16.861 6.185 -16.861 6.185 -14 4 C-13.134 3.835 -12.267 3.67 -11.375 3.5 C-10.591 3.335 -9.808 3.17 -9 3 C-8.67 2.34 -8.34 1.68 -8 1 C-5.072 0.024 -3.044 -0.082 0 0 Z M-7 2 C-6 4 -6 4 -6 4 Z M-65 37 C-61 38 -61 38 -61 38 Z M-68 40 C-68 43.3 -68 46.6 -68 50 C-67.67 50 -67.34 50 -67 50 C-67 46.7 -67 43.4 -67 40 C-67.33 40 -67.66 40 -68 40 Z " fill="#BCBDBF" transform="translate(121,87)"/>
<path d="M0 0 C2.64 0 5.28 0 8 0 C8 0.99 8 1.98 8 3 C9.32 3 10.64 3 12 3 C12 6.96 12 10.92 12 15 C12.99 15 13.98 15 15 15 C15 15.99 15 16.98 15 18 C17.31 18 19.62 18 22 18 C22 18.99 22 19.98 22 21 C23.98 21 25.96 21 28 21 C28 21.99 28 22.98 28 24 C30.97 24 33.94 24 37 24 C37 21.03 37 18.06 37 15 C40.63 15 44.26 15 48 15 C48 19.62 48 24.24 48 29 C45.03 29 42.06 29 39 29 C39 30.98 39 32.96 39 35 C36.36 35 33.72 35 31 35 C30.67 34.34 30.34 33.68 30 33 C27.473 32.344 27.473 32.344 25 32 C25 31.01 25 30.02 25 29 C22.69 29 20.38 29 18 29 C18 28.01 18 27.02 18 26 C16.02 26 14.04 26 12 26 C12 25.34 12 24.68 12 24 C10.68 24 9.36 24 8 24 C8 21.03 8 18.06 8 15 C5.36 15 2.72 15 0 15 C0 10.05 0 5.1 0 0 Z " fill="#13111B" transform="translate(138,319)"/>
<path d="M0 0 C2.97 0.33 5.94 0.66 9 1 C9.33 6.28 9.66 11.56 10 17 C11.65 17.33 13.3 17.66 15 18 C15.131 42.629 15.262 67.257 15.391 91.886 C15.451 103.325 15.512 114.764 15.573 126.203 C15.626 136.189 15.679 146.174 15.731 156.16 C15.758 161.433 15.786 166.706 15.815 171.98 C15.826 174.007 15.837 176.034 15.848 178.062 C15.853 179.047 15.858 180.033 15.864 181.048 C15.903 188.491 15.935 195.935 15.964 203.378 C15.984 208.345 16.017 213.312 16.063 218.279 C16.089 221.222 16.108 224.164 16.124 227.106 C16.138 229.078 16.162 231.049 16.187 233.02 C16.192 234.174 16.198 235.328 16.203 236.516 C16.212 237.512 16.221 238.507 16.231 239.532 C16 242 16 242 14 245 C13.505 245.99 13.505 245.99 13 247 C11.68 247 10.36 247 9 247 C9 252.28 9 257.56 9 263 C8.34 263.33 7.68 263.66 7 264 C3.557 267.16 3.557 267.16 1 271 C0.01 271 -0.98 271 -2 271 C-2 270.01 -2 269.02 -2 268 C-1.34 268 -0.68 268 0 268 C0 266.68 0 265.36 0 264 C0.99 264 1.98 264 3 264 C3 263.34 3 262.68 3 262 C3.99 262 4.98 262 6 262 C6 256.06 6 250.12 6 244 C7.98 244 9.96 244 12 244 C12 169.75 12 95.5 12 19 C10.02 19 8.04 19 6 19 C6 13.39 6 7.78 6 2 C4.02 2 2.04 2 0 2 C0 1.34 0 0.68 0 0 Z M13 213 C13 221.58 13 230.16 13 239 C13.33 239 13.66 239 14 239 C14 230.42 14 221.84 14 213 C13.67 213 13.34 213 13 213 Z " fill="#666469" transform="translate(450,125)"/>
<path d="M0 0 C1.98 0 3.96 0 6 0 C6 0.99 6 1.98 6 3 C7.98 3 9.96 3 12 3 C12 3.99 12 4.98 12 6 C13.98 6 15.96 6 18 6 C18 12.6 18 19.2 18 26 C17.01 26 16.02 26 15 26 C15 25.01 15 24.02 15 23 C12.03 23 9.06 23 6 23 C6 22.01 6 21.02 6 20 C4.02 20 2.04 20 0 20 C0 13.4 0 6.8 0 0 Z " fill="#EDECEC" transform="translate(201,279)"/>
<path d="M0 0 C1.65 0 3.3 0 5 0 C5 0.99 5 1.98 5 3 C6.98 3 8.96 3 11 3 C11 3.99 11 4.98 11 6 C12.98 6 14.96 6 17 6 C17 11.94 17 17.88 17 24 C15.02 24 13.04 24 11 24 C11 23.01 11 22.02 11 21 C9.02 21 7.04 21 5 21 C5 20.34 5 19.68 5 19 C3.35 19 1.7 19 0 19 C0 12.73 0 6.46 0 0 Z " fill="#F3F3F3" transform="translate(93,232)"/>
<path d="M0 0 C2.97 0 5.94 0 9 0 C9.33 0.66 9.66 1.32 10 2 C11.238 2.248 11.238 2.248 12.5 2.5 C13.738 2.748 13.738 2.748 15 3 C15.667 4.333 16.333 5.667 17 7 C17.99 7.33 18.98 7.66 20 8 C20.66 8.33 21.32 8.66 22 9 C24.264 9.713 26.535 10.404 28.809 11.086 C31.165 12.069 32.321 13.109 34 15 C36.931 17.541 39.156 18.466 43 19 C43 19.33 43 19.66 43 20 C43.804 20.124 44.609 20.248 45.438 20.375 C46.706 20.684 46.706 20.684 48 21 C48.495 21.99 48.495 21.99 49 23 C49.66 23.33 50.32 23.66 51 24 C51 24.99 51 25.98 51 27 C52.32 26.67 53.64 26.34 55 26 C55 26.66 55 27.32 55 28 C56.282 28.182 56.282 28.182 57.59 28.367 C58.695 28.535 59.799 28.702 60.938 28.875 C62.591 29.119 62.591 29.119 64.277 29.367 C65.176 29.576 66.074 29.785 67 30 C68 32 68 32 69 36 C72.3 36 75.6 36 79 36 C79.33 36.66 79.66 37.32 80 38 C80.825 38.165 81.65 38.33 82.5 38.5 C83.325 38.665 84.15 38.83 85 39 C85.33 39.66 85.66 40.32 86 41 C87.485 41.99 87.485 41.99 89 43 C92 45 92 45 93 47 C94.833 50.167 94.833 50.167 98 52 C96.02 52 94.04 52 92 52 C91.505 50.02 91.505 50.02 91 48 C89.68 48 88.36 48 87 48 C87 47.01 87 46.02 87 45 C86.01 45 85.02 45 84 45 C84 44.34 84 43.68 84 43 C82.35 43 80.7 43 79 43 C78.67 42.01 78.34 41.02 78 40 C76.02 40 74.04 40 72 40 C71.67 39.01 71.34 38.02 71 37 C69.35 37 67.7 37 66 37 C66 35.68 66 34.36 66 33 C63.69 33 61.38 33 59 33 C59 32.01 59 31.02 59 30 C57.02 30 55.04 30 53 30 C53 29.34 53 28.68 53 28 C51.35 28 49.7 28 48 28 C48 27.01 48 26.02 48 25 C46.02 25 44.04 25 42 25 C42 24.01 42 23.02 42 22 C40.02 22 38.04 22 36 22 C36 21.01 36 20.02 36 19 C34.35 19 32.7 19 31 19 C31 18.01 31 17.02 31 16 C29.02 16 27.04 16 25 16 C25 15.01 25 14.02 25 13 C23.02 13 21.04 13 19 13 C19 12.01 19 11.02 19 10 C17.35 10 15.7 10 14 10 C14 9.01 14 8.02 14 7 C12.02 7 10.04 7 8 7 C8 6.01 8 5.02 8 4 C5.36 4 2.72 4 0 4 C0 2.68 0 1.36 0 0 Z M49 25 C50 27 50 27 50 27 Z " fill="#A8A6A8" transform="translate(359,73)"/>
<path d="M0 0 C0.33 0 0.66 0 1 0 C1 73.92 1 147.84 1 224 C0.67 224 0.34 224 0 224 C0 150.08 0 76.16 0 0 Z " fill="#ABACAC" transform="translate(46,140)"/>
<path d="M0 0 C2.64 0 5.28 0 8 0 C8 0.99 8 1.98 8 3 C9.32 3 10.64 3 12 3 C12 6.96 12 10.92 12 15 C11.01 15.495 11.01 15.495 10 16 C9.593 18.322 9.256 20.657 9 23 C9.99 23.33 10.98 23.66 12 24 C10.68 24 9.36 24 8 24 C8 21.03 8 18.06 8 15 C5.36 15 2.72 15 0 15 C0 10.05 0 5.1 0 0 Z " fill="#2E2C31" transform="translate(138,319)"/>
<path d="M0 0 C3.3 0 6.6 0 10 0 C6.69 3.31 5.468 3.504 1 4 C1 4.66 1 5.32 1 6 C0.051 6.309 -0.897 6.619 -1.875 6.938 C-4.69 7.895 -6.514 8.606 -8.797 10.457 C-11.251 12.175 -13.372 12.892 -16.25 13.688 C-17.142 13.939 -18.034 14.19 -18.953 14.449 C-19.629 14.631 -20.304 14.813 -21 15 C-21 15.66 -21 16.32 -21 17 C-22.98 17.66 -24.96 18.32 -27 19 C-27 19.66 -27 20.32 -27 21 C-27.743 21.289 -28.485 21.577 -29.25 21.875 C-34.023 23.822 -34.023 23.822 -38 27 C-38 27.33 -38 27.66 -38 28 C-38.743 28.124 -39.485 28.248 -40.25 28.375 C-42.953 28.863 -42.953 28.863 -45 30.062 C-47.45 31.211 -49.326 31.149 -52 31 C-51.34 30.67 -50.68 30.34 -50 30 C-50 29.01 -50 28.02 -50 27 C-48.35 27 -46.7 27 -45 27 C-45 26.01 -45 25.02 -45 24 C-43.02 24 -41.04 24 -39 24 C-39 23.01 -39 22.02 -39 21 C-37.02 21 -35.04 21 -33 21 C-33 20.01 -33 19.02 -33 18 C-31.35 18 -29.7 18 -28 18 C-27.67 17.01 -27.34 16.02 -27 15 C-25.68 15 -24.36 15 -23 15 C-23 14.01 -23 13.02 -23 12 C-21.02 12 -19.04 12 -17 12 C-17 11.01 -17 10.02 -17 9 C-15.35 9 -13.7 9 -12 9 C-12 8.01 -12 7.02 -12 6 C-10.02 6 -8.04 6 -6 6 C-6 5.01 -6 4.02 -6 3 C-4.02 3 -2.04 3 0 3 C0 2.01 0 1.02 0 0 Z " fill="#99979A" transform="translate(434,401)"/>
<path d="M0 0 C0.66 0 1.32 0 2 0 C3.752 5.577 3.186 11.594 3.185 17.382 C3.187 19.559 3.206 21.735 3.225 23.912 C3.228 25.297 3.23 26.682 3.23 28.066 C3.235 29.324 3.239 30.582 3.243 31.877 C3 35 3 35 1 38 C0.67 38.66 0.34 39.32 0 40 C-1.32 40 -2.64 40 -4 40 C-4 45.28 -4 50.56 -4 56 C-4.99 56.495 -4.99 56.495 -6 57 C-9.443 60.16 -9.443 60.16 -12 64 C-12.99 64 -13.98 64 -15 64 C-15 63.01 -15 62.02 -15 61 C-14.34 61 -13.68 61 -13 61 C-13 59.68 -13 58.36 -13 57 C-12.01 57 -11.02 57 -10 57 C-10 56.34 -10 55.68 -10 55 C-9.01 55 -8.02 55 -7 55 C-7 49.06 -7 43.12 -7 37 C-5.02 37 -3.04 37 -1 37 C-1.005 35.95 -1.01 34.9 -1.016 33.819 C-1.034 29.931 -1.045 26.044 -1.055 22.156 C-1.06 20.472 -1.067 18.788 -1.075 17.104 C-1.088 14.687 -1.093 12.269 -1.098 9.852 C-1.103 9.096 -1.108 8.341 -1.113 7.563 C-1.114 2.228 -1.114 2.228 0 0 Z M0 6 C0 14.58 0 23.16 0 32 C0.33 32 0.66 32 1 32 C1 23.42 1 14.84 1 6 C0.67 6 0.34 6 0 6 Z " fill="#79787B" transform="translate(463,332)"/>
<path d="M0 0 C1.65 0 3.3 0 5 0 C5 0.66 5 1.32 5 2 C7.31 2 9.62 2 12 2 C12 5.96 12 9.92 12 14 C9.36 14 6.72 14 4 14 C4 13.01 4 12.02 4 11 C2.68 11 1.36 11 0 11 C0 7.37 0 3.74 0 0 Z " fill="#EBECED" transform="translate(224,317)"/>
<path d="M0 0 C1.65 0 3.3 0 5 0 C5 0.99 5 1.98 5 3 C6.98 3 8.96 3 11 3 C11 6.96 11 10.92 11 15 C9.02 15 7.04 15 5 15 C5 14.01 5 13.02 5 12 C3.35 12 1.7 12 0 12 C0 8.04 0 4.08 0 0 Z " fill="#F7F7F7" transform="translate(116,270)"/>
<path d="M0 0 C0.66 0 1.32 0 2 0 C2 0.66 2 1.32 2 2 C3.65 2 5.3 2 7 2 C5 3 3 4 1 5 C1 5.33 1 5.66 1 6 C-0.145 6.124 -0.145 6.124 -1.312 6.25 C-4.534 7.149 -5.324 8.177 -7 11 C-7 11.33 -7 11.66 -7 12 C-8.769 12.505 -10.541 13.004 -12.312 13.5 C-13.299 13.778 -14.285 14.057 -15.301 14.344 C-18 15 -18 15 -21 15 C-21.33 15.99 -21.66 16.98 -22 18 C-22.99 18.33 -23.98 18.66 -25 19 C-25 19.66 -25 20.32 -25 21 C-25.743 21.103 -26.485 21.206 -27.25 21.312 C-30.182 22.045 -31.759 23.008 -34 25 C-34 25.33 -34 25.66 -34 26 C-35.98 26.33 -37.96 26.66 -40 27 C-40.33 25.68 -40.66 24.36 -41 23 C-39.35 23 -37.7 23 -36 23 C-36 22.01 -36 21.02 -36 20 C-34.02 20 -32.04 20 -30 20 C-30 19.01 -30 18.02 -30 17 C-28.35 17 -26.7 17 -25 17 C-25 16.01 -25 15.02 -25 14 C-23.02 14 -21.04 14 -19 14 C-19 13.01 -19 12.02 -19 11 C-17.02 11 -15.04 11 -13 11 C-13 10.01 -13 9.02 -13 8 C-11.35 8 -9.7 8 -8 8 C-8 7.34 -8 6.68 -8 6 C-7.01 6 -6.02 6 -5 6 C-5 5.01 -5 4.02 -5 3 C-3.35 3 -1.7 3 0 3 C0 2.01 0 1.02 0 0 Z M-18 12 C-18 12.33 -18 12.66 -18 13 C-16.35 13 -14.7 13 -13 13 C-13 12.67 -13 12.34 -13 12 C-14.65 12 -16.3 12 -18 12 Z " fill="#A5A5A6" transform="translate(378,431)"/>
<path d="M0 0 C2.97 0.33 5.94 0.66 9 1 C9 1.99 9 2.98 9 4 C11.64 4 14.28 4 17 4 C17 4.99 17 5.98 17 7 C18.65 7 20.3 7 22 7 C22 7.66 22 8.32 22 9 C22.969 9.124 23.939 9.248 24.938 9.375 C25.948 9.581 26.959 9.788 28 10 C28.33 10.66 28.66 11.32 29 12 C30.895 12.465 30.895 12.465 33.062 12.625 C34.362 12.749 35.661 12.873 37 13 C37 13.66 37 14.32 37 15 C37.99 15.33 38.98 15.66 40 16 C40 16.66 40 17.32 40 18 C41.65 18 43.3 18 45 18 C44.505 20.475 44.505 20.475 44 23 C43.34 22.67 42.68 22.34 42 22 C42 21.34 42 20.68 42 20 C41.051 19.876 40.102 19.752 39.125 19.625 C36 19 36 19 34 17 C32.824 16.835 31.649 16.67 30.438 16.5 C29.303 16.335 28.169 16.17 27 16 C26.67 15.34 26.34 14.68 26 14 C24.117 13.097 24.117 13.097 21.938 12.375 C21.204 12.115 20.471 11.854 19.715 11.586 C19.149 11.393 18.583 11.199 18 11 C18 10.34 18 9.68 18 9 C17.336 8.914 16.672 8.827 15.988 8.738 C10.058 7.795 6.955 6.794 3 2 C2.01 1.34 1.02 0.68 0 0 Z " fill="#A5A4A8" transform="translate(113,418)"/>
<path d="M0 0 C0.495 0.99 0.495 0.99 1 2 C0.196 2.124 -0.609 2.247 -1.438 2.375 C-2.283 2.581 -3.129 2.788 -4 3 C-4.33 3.66 -4.66 4.32 -5 5 C-6.65 5 -8.3 5 -10 5 C-10.33 6.32 -10.66 7.64 -11 9 C-12.65 9 -14.3 9 -16 9 C-16 9.99 -16 10.98 -16 12 C-17.98 12 -19.96 12 -22 12 C-22 12.66 -22 13.32 -22 14 C-23.65 14 -25.3 14 -27 14 C-27 14.99 -27 15.98 -27 17 C-27.639 17.124 -28.279 17.248 -28.938 17.375 C-29.618 17.581 -30.299 17.788 -31 18 C-31.33 18.66 -31.66 19.32 -32 20 C-33.65 20 -35.3 20 -37 20 C-37 20.99 -37 21.98 -37 23 C-38.98 23 -40.96 23 -43 23 C-43 22.01 -43 21.02 -43 20 C-41.35 19.67 -39.7 19.34 -38 19 C-38 18.34 -38 17.68 -38 17 C-37.093 16.752 -36.185 16.505 -35.25 16.25 C-31.957 15.236 -31.957 15.236 -29.938 12.938 C-27.652 10.652 -26.159 10.351 -23 10 C-23 9.34 -23 8.68 -23 8 C-19.535 7.505 -19.535 7.505 -16 7 C-16 6.34 -16 5.68 -16 5 C-14.35 4.67 -12.7 4.34 -11 4 C-11 3.34 -11 2.68 -11 2 C-5.555 1.01 -5.555 1.01 0 0 Z " fill="#96969D" transform="translate(229,29)"/>
<path d="M0 0 C0 0.66 0 1.32 0 2 C-1.65 2 -3.3 2 -5 2 C-5 2.99 -5 3.98 -5 5 C-6.65 5 -8.3 5 -10 5 C-10.33 5.99 -10.66 6.98 -11 8 C-12.98 8 -14.96 8 -17 8 C-17 8.99 -17 9.98 -17 11 C-18.65 11 -20.3 11 -22 11 C-22 11.99 -22 12.98 -22 14 C-23.32 14 -24.64 14 -26 14 C-26 14.99 -26 15.98 -26 17 C-30.95 17 -35.9 17 -41 17 C-41 16.67 -41 16.34 -41 16 C-39.866 15.876 -38.731 15.752 -37.562 15.625 C-36.387 15.419 -35.211 15.213 -34 15 C-33.67 14.34 -33.34 13.68 -33 13 C-29.7 13 -26.4 13 -23 13 C-23 11.02 -23 9.04 -23 7 C-22.072 6.876 -21.144 6.752 -20.188 6.625 C-16.861 6.185 -16.861 6.185 -14 4 C-13.134 3.835 -12.267 3.67 -11.375 3.5 C-10.199 3.252 -10.199 3.252 -9 3 C-8.67 2.34 -8.34 1.68 -8 1 C-5.072 0.024 -3.044 -0.082 0 0 Z M-7 2 C-6 4 -6 4 -6 4 Z " fill="#A8A9AD" transform="translate(121,87)"/>
<path d="M0 0 C0.986 0.002 0.986 0.002 1.992 0.004 C4.07 0.01 6.148 0.022 8.227 0.035 C9.645 0.04 11.062 0.045 12.48 0.049 C15.938 0.06 19.395 0.077 22.852 0.098 C22.852 0.758 22.852 1.418 22.852 2.098 C24.502 2.098 26.152 2.098 27.852 2.098 C28.347 3.088 28.347 3.088 28.852 4.098 C29.78 4.562 29.78 4.562 30.727 5.035 C32.852 6.098 32.852 6.098 35.852 9.098 C32.882 8.768 29.912 8.438 26.852 8.098 C26.852 7.438 26.852 6.778 26.852 6.098 C24.542 6.098 22.232 6.098 19.852 6.098 C19.357 3.623 19.357 3.623 18.852 1.098 C14.705 1.236 10.56 1.384 6.414 1.535 C5.23 1.574 4.046 1.614 2.826 1.654 C1.701 1.696 0.577 1.738 -0.582 1.781 C-1.624 1.818 -2.666 1.855 -3.74 1.892 C-6.098 1.833 -6.098 1.833 -7.148 3.098 C-8.815 3.138 -10.482 3.14 -12.148 3.098 C-12.478 3.758 -12.808 4.418 -13.148 5.098 C-14.138 4.438 -15.128 3.778 -16.148 3.098 C-11.106 -0.264 -5.927 -0.025 0 0 Z " fill="#8B8C92" transform="translate(245.1484375,22.90234375)"/>
<path d="M0 0 C1.32 0.33 2.64 0.66 4 1 C4 1.66 4 2.32 4 3 C2.667 3.667 1.333 4.333 0 5 C-0.598 5.33 -1.196 5.66 -1.812 6 C-4.782 7.357 -7.86 8.119 -11 9 C-12.676 9.642 -14.348 10.299 -16 11 C-16 11.66 -16 12.32 -16 13 C-18.393 15.393 -19.731 15.442 -23 16 C-26.118 16.646 -26.118 16.646 -27 19 C-29.97 19 -32.94 19 -36 19 C-36 18.67 -36 18.34 -36 18 C-33.69 18 -31.38 18 -29 18 C-29 16.68 -29 15.36 -29 14 C-27.35 14 -25.7 14 -24 14 C-24 13.01 -24 12.02 -24 11 C-22.02 11 -20.04 11 -18 11 C-17.67 10.01 -17.34 9.02 -17 8 C-15.35 8 -13.7 8 -12 8 C-11.67 7.01 -11.34 6.02 -11 5 C-9.35 5 -7.7 5 -6 5 C-6 4.34 -6 3.68 -6 3 C-4.02 3 -2.04 3 0 3 C0 2.01 0 1.02 0 0 Z " fill="#A19FA2" transform="translate(333,457)"/>
<path d="M0 0 C1.32 0 2.64 0 4 0 C4 1.32 4 2.64 4 4 C6.97 4 9.94 4 13 4 C13 4.99 13 5.98 13 7 C20.92 7 28.84 7 37 7 C37 6.01 37 5.02 37 4 C38.98 4 40.96 4 43 4 C43 3.34 43 2.68 43 2 C45.31 2 47.62 2 50 2 C50 2.99 50 3.98 50 5 C48.35 5.33 46.7 5.66 45 6 C45 6.33 45 6.66 45 7 C41.011 7.945 37.29 8.129 33.195 8.133 C31.889 8.134 30.584 8.135 29.238 8.137 C28.562 8.135 27.886 8.133 27.19 8.13 C25.138 8.125 23.087 8.13 21.035 8.137 C19.727 8.135 18.418 8.134 17.07 8.133 C15.882 8.132 14.694 8.131 13.469 8.129 C9.918 7.997 6.506 7.564 3 7 C2.67 6.01 2.34 5.02 2 4 C1.34 3.34 0.68 2.68 0 2 C0 1.34 0 0.68 0 0 Z " fill="#99999B" transform="translate(241,481)"/>
<path d="M0 0 C2.31 0 4.62 0 7 0 C7 0.33 7 0.66 7 1 C5.02 1.66 3.04 2.32 1 3 C1 3.66 1 4.32 1 5 C0.257 5.289 -0.485 5.577 -1.25 5.875 C-6.023 7.822 -6.023 7.822 -10 11 C-10 11.33 -10 11.66 -10 12 C-10.743 12.124 -11.485 12.248 -12.25 12.375 C-14.953 12.863 -14.953 12.863 -17 14.062 C-19.45 15.211 -21.326 15.149 -24 15 C-23.34 14.67 -22.68 14.34 -22 14 C-22 13.01 -22 12.02 -22 11 C-20.35 11 -18.7 11 -17 11 C-17 10.01 -17 9.02 -17 8 C-15.02 8 -13.04 8 -11 8 C-11 7.01 -11 6.02 -11 5 C-9.02 5 -7.04 5 -5 5 C-5 4.01 -5 3.02 -5 2 C-3.35 2 -1.7 2 0 2 C0 1.34 0 0.68 0 0 Z " fill="#ACACB0" transform="translate(406,417)"/>
<path d="M0 0 C2.31 0 4.62 0 7 0 C7 0.99 7 1.98 7 3 C5.68 3 4.36 3 3 3 C3 8.28 3 13.56 3 19 C2.34 19.33 1.68 19.66 1 20 C-2.443 23.16 -2.443 23.16 -5 27 C-5.99 27 -6.98 27 -8 27 C-8 26.01 -8 25.02 -8 24 C-7.34 24 -6.68 24 -6 24 C-6 22.68 -6 21.36 -6 20 C-5.01 20 -4.02 20 -3 20 C-3 19.34 -3 18.68 -3 18 C-2.01 18 -1.02 18 0 18 C0 12.06 0 6.12 0 0 Z " fill="#84838A" transform="translate(456,369)"/>
<path d="M0 0 C1.315 0.282 2.627 0.576 3.938 0.875 C4.668 1.037 5.399 1.2 6.152 1.367 C8 2 8 2 9 4 C10.999 4.34 12.999 4.673 15 5 C15.66 5.66 16.32 6.32 17 7 C18.316 7.699 19.65 8.367 21 9 C23 10 25 11 27 12 C27 12.66 27 13.32 27 14 C24.69 14 22.38 14 20 14 C20 13.01 20 12.02 20 11 C18.35 11 16.7 11 15 11 C15 10.34 15 9.68 15 9 C12.36 9 9.72 9 7 9 C7 7.68 7 6.36 7 5 C5.68 5 4.36 5 3 5 C3 4.01 3 3.02 3 2 C2.01 2 1.02 2 0 2 C0 1.34 0 0.68 0 0 Z " fill="#919193" transform="translate(278,32)"/>
<path d="M0 0 C0.33 0.66 0.66 1.32 1 2 C1.99 2.66 2.98 3.32 4 4 C7 6 7 6 8 8 C9.833 11.167 9.833 11.167 13 13 C11.02 13 9.04 13 7 13 C6.67 11.68 6.34 10.36 6 9 C4.68 9 3.36 9 2 9 C2 8.01 2 7.02 2 6 C1.01 6 0.02 6 -1 6 C-1 5.34 -1 4.68 -1 4 C-2.65 4 -4.3 4 -6 4 C-6.33 3.01 -6.66 2.02 -7 1 C-8.98 1 -10.96 1 -13 1 C-13 0.67 -13 0.34 -13 0 C-4.081 -1.36 -4.081 -1.36 0 0 Z " fill="#8A8B8D" transform="translate(444,112)"/>
<path d="M0 0 C3.96 0 7.92 0 12 0 C12 0.33 12 0.66 12 1 C8.04 1 4.08 1 0 1 C0 0.67 0 0.34 0 0 Z " fill="#4A4A4A" transform="translate(253,490)"/>
<path d="M0 0 C1.65 0 3.3 0 5 0 C5 0.33 5 0.66 5 1 C3.35 1 1.7 1 0 1 C0 0.67 0 0.34 0 0 Z " fill="#B2B2B2" transform="translate(323,465)"/>
<path d="M0 0 C1.65 0 3.3 0 5 0 C5 0.33 5 0.66 5 1 C3.35 1 1.7 1 0 1 C0 0.67 0 0.34 0 0 Z " fill="#C1A8C1" transform="translate(414,100)"/>
<path d="M0 0 C4 1 4 1 4 1 Z " fill="#AAAAAA" transform="translate(408,419)"/>
<path d="M0 0 C4 1 4 1 4 1 Z " fill="#CCCCCC" transform="translate(413,416)"/>
<path d="M0 0 C4 1 4 1 4 1 Z " fill="#555555" transform="translate(162,62)"/>
<path d="M0 0 C3 1 3 1 3 1 Z " fill="#B8B8B8" transform="translate(219,474)"/>
<path d="M0 0 C3 1 3 1 3 1 Z " fill="#000000" transform="translate(319,467)"/>
<path d="M0 0 C3 1 3 1 3 1 Z " fill="#787878" transform="translate(334,60)"/>
<path d="M0 0 C2 1 2 1 2 1 Z " fill="#3F3F3F" transform="translate(277,490)"/>
<path d="M0 0 C2 1 2 1 2 1 Z " fill="#D8D8D8" transform="translate(317,468)"/>
<path d="" fill="#7F7F7F" transform="translate(0,0)"/>
<path d="M0 0 C2 1 2 1 2 1 Z " fill="#D4D4D4" transform="translate(162,445)"/>
<path d="M0 0 C2 1 2 1 2 1 Z " fill="#5F5F5F" transform="translate(129,427)"/>
<path d="M0 0 C2 1 2 1 2 1 Z " fill="#555555" transform="translate(427,409)"/>
<path d="" fill="#3F3F3F" transform="translate(0,0)"/>
<path d="M0 0 C2 1 2 1 2 1 Z " fill="#7F7F7F" transform="translate(109,89)"/>
<path d="" fill="#7F7F7F" transform="translate(0,0)"/>
<path d="" fill="#FFFFFF" transform="translate(0,0)"/>
<path d="" fill="#FFFFFF" transform="translate(0,0)"/>
<path d="" fill="#AAAAAA" transform="translate(0,0)"/>
<path d="" fill="#FFFFFF" transform="translate(0,0)"/>
<path d="" fill="#FFFFFF" transform="translate(0,0)"/>
<path d="" fill="#FFFFFF" transform="translate(0,0)"/>
<path d="" fill="#FFFFFF" transform="translate(0,0)"/>
<path d="" fill="#555555" transform="translate(0,0)"/>
<path d="" fill="#7F7F7F" transform="translate(0,0)"/>
<path d="" fill="#FFFFFF" transform="translate(0,0)"/>
<path d="" fill="#FFFFFF" transform="translate(0,0)"/>
<path d="" fill="#FFFFFF" transform="translate(0,0)"/>
<path d="" fill="#FFFFFF" transform="translate(0,0)"/>
<path d="" fill="#FFFFFF" transform="translate(0,0)"/>
<path d="" fill="#FFFFFF" transform="translate(0,0)"/>
<path d="" fill="#AAAAAA" transform="translate(0,0)"/>
<path d="" fill="#FFFFFF" transform="translate(0,0)"/>
<path d="" fill="#000000" transform="translate(0,0)"/>
<path d="" fill="#7F7F7F" transform="translate(0,0)"/>
<path d="" fill="#FFFFFF" transform="translate(0,0)"/>
<path d="" fill="#FFFFFF" transform="translate(0,0)"/>
<path d="" fill="#AAAAAA" transform="translate(0,0)"/>
<path d="" fill="#FFFFFF" transform="translate(0,0)"/>
<path d="" fill="#FFFFFF" transform="translate(0,0)"/>
<path d="" fill="#AAAAAA" transform="translate(0,0)"/>
<path d="" fill="#000000" transform="translate(0,0)"/>
</svg>
