<?xml version="1.0" encoding="UTF-8"?>
<!-- Generator: visioncortex VTracer 0.6.4 -->
<svg version="1.1" xmlns="http://www.w3.org/2000/svg" width="512" height="512">
<path d="M0 0 C1.108 -0.006 2.216 -0.013 3.358 -0.019 C4.555 -0.015 5.751 -0.011 6.985 -0.007 C8.214 -0.009 9.443 -0.011 10.71 -0.013 C13.978 -0.014 17.246 -0.006 20.515 0.005 C23.833 0.011 27.152 -0.004 30.471 -0.015 C32.996 -0.013 35.522 -0.011 38.047 -0.007 C39.242 -0.011 40.437 -0.015 41.668 -0.019 C43.335 -0.01 43.335 -0.01 45.035 0 C46.012 0.002 46.989 0.003 47.995 0.005 C50.686 0.269 52.272 0.9 54.582 2.259 C55.242 2.589 55.902 2.919 56.582 3.259 C59.706 4.82 62.669 6.317 65.582 8.259 C66.242 8.589 66.902 8.919 67.582 9.259 C70.706 10.82 73.669 12.317 76.582 14.259 C77.242 14.589 77.902 14.919 78.582 15.259 C78.706 15.878 78.83 16.496 78.957 17.134 C79.794 19.978 81.196 20.554 83.582 22.259 C84.222 23.063 84.861 23.868 85.52 24.696 C87.644 27.335 89.927 29.178 92.582 31.259 C92.912 31.919 93.242 32.579 93.582 33.259 C94.572 33.589 95.562 33.919 96.582 34.259 C96.912 34.919 97.242 35.579 97.582 36.259 C99.649 38.989 101.754 41.427 104.207 43.821 C106.315 45.984 107.447 47.516 108.582 50.259 C108.912 50.919 109.242 51.579 109.582 52.259 C109.912 52.259 110.242 52.259 110.582 52.259 C110.706 53.001 110.83 53.744 110.957 54.509 C112.284 60.347 115.809 65.665 119.582 70.259 C120.242 70.589 120.902 70.919 121.582 71.259 C121.582 72.909 121.582 74.559 121.582 76.259 C122.572 76.589 123.562 76.919 124.582 77.259 C124.912 78.249 125.242 79.239 125.582 80.259 C126.222 80.795 126.861 81.331 127.52 81.884 C130.127 84.886 130.462 87.379 131.09 91.235 C131.448 93.471 131.448 93.471 133.582 95.259 C134.242 95.589 134.902 95.919 135.582 96.259 C136.207 99.321 136.207 99.321 136.582 102.259 C137.242 102.259 137.902 102.259 138.582 102.259 C138.912 104.239 139.242 106.219 139.582 108.259 C140.242 108.259 140.902 108.259 141.582 108.259 C141.582 109.909 141.582 111.559 141.582 113.259 C142.242 113.259 142.902 113.259 143.582 113.259 C143.984 114.651 143.984 114.651 144.395 116.071 C145.492 119.016 146.161 120.364 148.582 122.259 C148.912 122.259 149.242 122.259 149.582 122.259 C149.778 124.31 149.973 126.36 150.168 128.411 C150.305 129.021 150.441 129.631 150.582 130.259 C151.242 130.589 151.902 130.919 152.582 131.259 C153.207 133.821 153.207 133.821 153.582 136.259 C154.242 136.259 154.902 136.259 155.582 136.259 C155.912 137.909 156.242 139.559 156.582 141.259 C157.242 141.259 157.902 141.259 158.582 141.259 C158.912 144.229 159.242 147.199 159.582 150.259 C160.242 150.259 160.902 150.259 161.582 150.259 C161.562 151.001 161.541 151.744 161.52 152.509 C161.576 154.99 161.75 156.93 162.582 159.259 C163.242 159.589 163.902 159.919 164.582 160.259 C166.556 162.627 167.596 164.3 168.582 167.259 C169.233 168.6 169.899 169.934 170.582 171.259 C170.912 171.919 171.242 172.579 171.582 173.259 C171.912 173.259 172.242 173.259 172.582 173.259 C172.912 175.899 173.242 178.539 173.582 181.259 C174.242 181.259 174.902 181.259 175.582 181.259 C175.582 183.239 175.582 185.219 175.582 187.259 C176.242 187.259 176.902 187.259 177.582 187.259 C178.015 188.465 178.015 188.465 178.457 189.696 C179.315 192.391 179.315 192.391 181.582 193.259 C181.582 195.899 181.582 198.539 181.582 201.259 C182.242 201.259 182.902 201.259 183.582 201.259 C183.912 202.909 184.242 204.559 184.582 206.259 C185.242 206.259 185.902 206.259 186.582 206.259 C186.778 208.31 186.973 210.36 187.168 212.411 C187.305 213.021 187.441 213.631 187.582 214.259 C188.242 214.589 188.902 214.919 189.582 215.259 C190.207 217.821 190.207 217.821 190.582 220.259 C191.242 220.259 191.902 220.259 192.582 220.259 C192.582 224.549 192.582 228.839 192.582 233.259 C193.572 233.589 194.562 233.919 195.582 234.259 C196.572 234.589 197.562 234.919 198.582 235.259 C198.582 237.899 198.582 240.539 198.582 243.259 C199.572 243.589 200.562 243.919 201.582 244.259 C201.582 245.909 201.582 247.559 201.582 249.259 C202.242 249.259 202.902 249.259 203.582 249.259 C204.194 256.942 204.715 264.549 204.582 272.259 C205.242 272.589 205.902 272.919 206.582 273.259 C210.443 275.833 210.525 277.869 211.582 282.259 C211.912 282.259 212.242 282.259 212.582 282.259 C212.565 283.757 212.565 283.757 212.547 285.286 C212.538 286.576 212.529 287.867 212.52 289.196 C212.502 291.128 212.502 291.128 212.485 293.099 C212.217 296.122 212.217 296.122 213.582 297.259 C213.681 299.099 213.71 300.942 213.712 302.785 C213.715 303.967 213.718 305.149 213.721 306.366 C213.718 308.299 213.718 308.299 213.715 310.271 C213.717 312.245 213.717 312.245 213.718 314.259 C213.719 317.052 213.717 319.846 213.713 322.639 C213.707 326.209 213.71 329.779 213.716 333.349 C213.72 336.098 213.719 338.848 213.716 341.598 C213.715 343.551 213.718 345.504 213.721 347.457 C213.718 348.654 213.715 349.852 213.712 351.086 C213.71 352.66 213.71 352.66 213.709 354.266 C213.578 357.36 213.278 360.24 212.582 363.259 C211.922 363.589 211.262 363.919 210.582 364.259 C210.417 365.084 210.252 365.909 210.082 366.759 C209.917 367.584 209.752 368.409 209.582 369.259 C207.582 370.259 207.582 370.259 204.582 371.259 C204.675 373.146 204.675 373.146 204.77 375.071 C204.784 379.014 204.784 379.014 203.145 381.009 C202.629 381.421 202.114 381.834 201.582 382.259 C201.417 382.919 201.252 383.579 201.082 384.259 C200.467 386.721 199.504 387.645 197.582 389.259 C196.922 389.589 196.262 389.919 195.582 390.259 C195.252 390.919 194.922 391.579 194.582 392.259 C192.957 394.025 191.74 395.18 189.582 396.259 C189.149 396.919 188.716 397.579 188.27 398.259 C186.168 400.749 184.753 400.916 181.582 401.259 C181.582 401.919 181.582 402.579 181.582 403.259 C180.84 403.383 180.097 403.506 179.332 403.634 C175.77 404.443 173.353 405.67 170.457 407.884 C168.582 409.259 168.582 409.259 166.582 409.259 C166.582 409.919 166.582 410.579 166.582 411.259 C164.932 411.589 163.282 411.919 161.582 412.259 C161.582 412.919 161.582 413.579 161.582 414.259 C159.602 414.919 157.622 415.579 155.582 416.259 C155.582 416.589 155.582 416.919 155.582 417.259 C154.84 417.383 154.097 417.506 153.332 417.634 C150.763 418.218 148.873 418.995 146.582 420.259 C145.922 420.589 145.262 420.919 144.582 421.259 C143.922 421.919 143.262 422.579 142.582 423.259 C139.957 423.884 139.957 423.884 137.582 424.259 C137.582 424.919 137.582 425.579 137.582 426.259 C135.31 427.754 133.014 429.043 130.582 430.259 C128.53 432.101 128.53 432.101 127.582 434.259 C125.586 434.614 123.585 434.945 121.582 435.259 C120.902 435.609 120.221 435.96 119.52 436.321 C117.103 437.491 115.233 437.406 112.582 437.259 C112.252 438.249 111.922 439.239 111.582 440.259 C109.336 443.629 108.727 443.78 105.02 444.821 C102.633 445.461 102.633 445.461 100.582 446.259 C100.252 446.919 99.922 447.579 99.582 448.259 C96.52 448.884 96.52 448.884 93.582 449.259 C93.582 449.919 93.582 450.579 93.582 451.259 C92.819 451.341 92.056 451.424 91.27 451.509 C88.45 451.97 88.45 451.97 87.332 454.259 C84.773 457.183 82.192 456.918 78.446 457.181 C77.831 457.206 77.216 457.232 76.582 457.259 C76.582 457.919 76.582 458.579 76.582 459.259 C73.582 461.259 73.582 461.259 71.457 462.259 C69.412 463.117 69.412 463.117 68.582 465.259 C65.934 465.852 63.29 466.001 60.582 466.259 C60.582 466.589 60.582 466.919 60.582 467.259 C53.012 468.189 45.548 468.405 37.926 468.392 C36.152 468.393 36.152 468.393 34.341 468.395 C31.854 468.395 29.366 468.393 26.879 468.389 C23.094 468.384 19.309 468.389 15.524 468.396 C13.095 468.395 10.667 468.394 8.239 468.392 C7.118 468.394 5.998 468.396 4.844 468.398 C-9.488 468.355 -9.488 468.355 -14.418 467.259 C-14.748 466.599 -15.078 465.939 -15.418 465.259 C-17.73 462.947 -18.35 462.986 -21.48 462.759 C-22.78 462.594 -24.079 462.429 -25.418 462.259 C-25.748 461.599 -26.078 460.939 -26.418 460.259 C-28.945 459.603 -28.945 459.603 -31.418 459.259 C-31.748 458.269 -32.078 457.279 -32.418 456.259 C-32.748 455.599 -33.078 454.939 -33.418 454.259 C-35.398 454.259 -37.378 454.259 -39.418 454.259 C-39.748 453.599 -40.078 452.939 -40.418 452.259 C-42.945 451.603 -42.945 451.603 -45.418 451.259 C-45.418 450.599 -45.418 449.939 -45.418 449.259 C-46.387 449.135 -47.356 449.011 -48.355 448.884 C-49.871 448.574 -49.871 448.574 -51.418 448.259 C-51.748 447.599 -52.078 446.939 -52.418 446.259 C-54.531 445.352 -54.531 445.352 -56.98 444.634 C-58.22 444.243 -58.22 444.243 -59.484 443.845 C-60.441 443.555 -60.441 443.555 -61.418 443.259 C-61.088 442.599 -60.758 441.939 -60.418 441.259 C-61.078 440.929 -61.738 440.599 -62.418 440.259 C-62.418 439.269 -62.418 438.279 -62.418 437.259 C-65.058 437.259 -67.698 437.259 -70.418 437.259 C-70.418 436.599 -70.418 435.939 -70.418 435.259 C-73.388 434.929 -76.358 434.599 -79.418 434.259 C-79.088 433.599 -78.758 432.939 -78.418 432.259 C-79.408 432.259 -80.398 432.259 -81.418 432.259 C-81.748 431.269 -82.078 430.279 -82.418 429.259 C-83.552 429.135 -84.686 429.011 -85.855 428.884 C-87.619 428.574 -87.619 428.574 -89.418 428.259 C-89.748 427.599 -90.078 426.939 -90.418 426.259 C-91.408 426.094 -92.398 425.929 -93.418 425.759 C-94.408 425.594 -95.398 425.429 -96.418 425.259 C-96.748 424.599 -97.078 423.939 -97.418 423.259 C-100.059 420.618 -102.546 419.845 -106.043 418.696 C-107.269 418.292 -107.269 418.292 -108.519 417.88 C-109.459 417.572 -109.459 417.572 -110.418 417.259 C-110.418 416.599 -110.418 415.939 -110.418 415.259 C-111.387 415.135 -112.356 415.011 -113.355 414.884 C-114.871 414.574 -114.871 414.574 -116.418 414.259 C-116.748 413.599 -117.078 412.939 -117.418 412.259 C-118.243 412.094 -119.068 411.929 -119.918 411.759 C-120.743 411.594 -121.568 411.429 -122.418 411.259 C-122.748 410.599 -123.078 409.939 -123.418 409.259 C-125.351 408.167 -125.351 408.167 -127.418 407.259 C-128.078 406.929 -128.738 406.599 -129.418 406.259 C-130.593 406.114 -131.769 405.97 -132.98 405.821 C-134.115 405.636 -135.249 405.45 -136.418 405.259 C-137.084 403.925 -137.751 402.592 -138.418 401.259 C-140.945 400.603 -140.945 400.603 -143.418 400.259 C-143.418 399.599 -143.418 398.939 -143.418 398.259 C-144.738 397.929 -146.058 397.599 -147.418 397.259 C-147.418 396.269 -147.418 395.279 -147.418 394.259 C-150.058 394.259 -152.698 394.259 -155.418 394.259 C-155.748 393.599 -156.078 392.939 -156.418 392.259 C-157.243 392.094 -158.068 391.929 -158.918 391.759 C-159.743 391.594 -160.568 391.429 -161.418 391.259 C-161.748 390.599 -162.078 389.939 -162.418 389.259 C-165.597 387.257 -168.73 386.762 -172.418 386.259 C-172.418 385.599 -172.418 384.939 -172.418 384.259 C-174.068 383.929 -175.718 383.599 -177.418 383.259 C-177.418 382.599 -177.418 381.939 -177.418 381.259 C-178.387 381.135 -179.356 381.011 -180.355 380.884 C-181.366 380.678 -182.376 380.471 -183.418 380.259 C-183.748 379.599 -184.078 378.939 -184.418 378.259 C-186.945 377.603 -186.945 377.603 -189.418 377.259 C-189.418 376.599 -189.418 375.939 -189.418 375.259 C-192.286 373.156 -192.286 373.156 -195.418 372.259 C-195.418 371.599 -195.418 370.939 -195.418 370.259 C-198.2 368.298 -198.2 368.298 -200.543 367.259 C-202.418 366.259 -202.418 366.259 -203.418 364.259 C-204.408 363.599 -205.398 362.939 -206.418 362.259 C-207.439 361.28 -208.438 360.279 -209.418 359.259 C-210.16 358.516 -210.16 358.516 -210.918 357.759 C-211.949 356.727 -212.969 355.685 -213.98 354.634 C-215.391 353.149 -215.391 353.149 -217.418 352.259 C-217.418 350.609 -217.418 348.959 -217.418 347.259 C-218.346 346.795 -218.346 346.795 -219.293 346.321 C-220.668 345.634 -222.043 344.946 -223.418 344.259 C-223.418 342.609 -223.418 340.959 -223.418 339.259 C-224.078 339.259 -224.738 339.259 -225.418 339.259 C-225.748 337.939 -226.078 336.619 -226.418 335.259 C-227.078 335.259 -227.738 335.259 -228.418 335.259 C-228.541 334.454 -228.665 333.65 -228.793 332.821 C-228.999 331.976 -229.205 331.13 -229.418 330.259 C-230.078 329.929 -230.738 329.599 -231.418 329.259 C-231.383 328.632 -231.348 328.006 -231.312 327.36 C-231.285 326.543 -231.258 325.726 -231.23 324.884 C-231.195 324.072 -231.161 323.26 -231.125 322.423 C-231.221 321.709 -231.318 320.995 -231.418 320.259 C-232.408 319.599 -233.398 318.939 -234.418 318.259 C-234.799 315.222 -234.799 315.222 -234.806 311.271 C-234.811 310.552 -234.816 309.833 -234.822 309.092 C-234.835 306.71 -234.826 304.328 -234.816 301.946 C-234.818 300.295 -234.821 298.643 -234.825 296.992 C-234.829 293.528 -234.823 290.065 -234.809 286.602 C-234.792 282.156 -234.802 277.71 -234.82 273.265 C-234.83 269.854 -234.827 266.443 -234.819 263.032 C-234.817 261.393 -234.82 259.753 -234.827 258.114 C-234.834 255.824 -234.823 253.536 -234.806 251.247 C-234.804 249.943 -234.801 248.639 -234.799 247.295 C-234.673 246.293 -234.547 245.291 -234.418 244.259 C-232.933 243.269 -232.933 243.269 -231.418 242.259 C-231.168 238.675 -231.168 238.675 -231.418 235.259 C-230.428 234.929 -229.438 234.599 -228.418 234.259 C-227.923 233.269 -227.923 233.269 -227.418 232.259 C-226.923 231.269 -226.923 231.269 -226.418 230.259 C-226.201 228.495 -226.201 228.495 -225.98 226.696 C-225.795 225.562 -225.609 224.428 -225.418 223.259 C-224.758 222.929 -224.098 222.599 -223.418 222.259 C-221.731 221.158 -221.731 221.158 -220.418 219.259 C-220.056 216.93 -219.721 214.596 -219.418 212.259 C-218.758 211.929 -218.098 211.599 -217.418 211.259 C-217.074 209.928 -216.742 208.594 -216.418 207.259 C-215.428 206.269 -215.428 206.269 -214.418 205.259 C-214.088 204.269 -213.758 203.279 -213.418 202.259 C-212.428 201.269 -212.428 201.269 -211.418 200.259 C-211.251 197.675 -211.251 197.675 -211.418 195.259 C-210.084 194.592 -208.751 193.925 -207.418 193.259 C-207.913 191.279 -207.913 191.279 -208.418 189.259 C-207.758 188.929 -207.098 188.599 -206.418 188.259 C-206.108 187.64 -205.799 187.021 -205.48 186.384 C-204.382 184.188 -203.217 182.901 -201.418 181.259 C-200.25 180.281 -200.25 180.281 -200.105 178.509 C-199.187 175.504 -197.406 173.669 -195.418 171.259 C-194.242 169.159 -194.242 169.159 -193.418 167.259 C-192.064 164.551 -190.558 162.399 -188.418 160.259 C-188.056 158.933 -187.72 157.599 -187.418 156.259 C-187.088 155.929 -186.758 155.599 -186.418 155.259 C-186.377 153.593 -186.375 151.925 -186.418 150.259 C-185.758 149.929 -185.098 149.599 -184.418 149.259 C-181.183 147.603 -181.183 147.603 -180.855 144.696 C-180.711 143.892 -180.566 143.088 -180.418 142.259 C-179.758 141.929 -179.098 141.599 -178.418 141.259 C-176.448 139.289 -175.67 137.817 -174.543 135.321 C-173.394 133.214 -172.18 131.868 -170.418 130.259 C-169.031 129.077 -169.031 129.077 -168.98 125.759 C-168.702 124.026 -168.702 124.026 -168.418 122.259 C-166.418 121.259 -166.418 121.259 -163.418 120.259 C-162.746 118.323 -162.746 118.323 -162.418 116.259 C-158.418 108.259 -158.418 108.259 -155.418 107.259 C-155.294 106.454 -155.17 105.65 -155.043 104.821 C-154.836 103.976 -154.63 103.13 -154.418 102.259 C-153.758 101.929 -153.098 101.599 -152.418 101.259 C-152.201 100.362 -152.201 100.362 -151.98 99.446 C-150.92 95.322 -147.916 92.637 -144.855 89.821 C-143.173 88.207 -143.173 88.207 -142.418 85.259 C-141.441 84.236 -140.436 83.24 -139.418 82.259 C-138.758 81.434 -138.098 80.609 -137.418 79.759 C-134.187 75.72 -134.187 75.72 -132.418 74.259 C-131.428 74.259 -130.438 74.259 -129.418 74.259 C-128.923 72.774 -128.923 72.774 -128.418 71.259 C-124.662 65.972 -120.273 62.078 -114.418 59.259 C-113.923 58.269 -113.923 58.269 -113.418 57.259 C-110.355 56.634 -110.355 56.634 -107.418 56.259 C-107.418 55.599 -107.418 54.939 -107.418 54.259 C-104.724 51.565 -102.059 51.263 -98.418 50.259 C-95.225 49.002 -95.225 49.002 -93.418 46.259 C-90.855 45.634 -90.855 45.634 -88.418 45.259 C-88.418 44.599 -88.418 43.939 -88.418 43.259 C-85.342 42.966 -85.342 42.966 -82.265 42.673 C-81.656 42.536 -81.046 42.4 -80.418 42.259 C-80.088 41.599 -79.758 40.939 -79.418 40.259 C-78.428 39.599 -77.438 38.939 -76.418 38.259 C-76.418 37.929 -76.418 37.599 -76.418 37.259 C-74.438 36.599 -72.458 35.939 -70.418 35.259 C-70.418 34.929 -70.418 34.599 -70.418 34.259 C-69.675 34.135 -68.933 34.011 -68.168 33.884 C-65.598 33.3 -63.709 32.523 -61.418 31.259 C-60.076 30.588 -58.721 29.942 -57.355 29.321 C-55.256 28.409 -55.256 28.409 -54.418 26.259 C-52.124 25.945 -49.86 25.88 -47.547 25.798 C-46.844 25.62 -46.142 25.442 -45.418 25.259 C-44.243 23.367 -44.243 23.367 -43.418 21.259 C-41.775 19.896 -40.109 18.56 -38.418 17.259 C-38.088 16.599 -37.758 15.939 -37.418 15.259 C-35.42 14.911 -33.42 14.579 -31.418 14.259 C-30.428 13.599 -29.438 12.939 -28.418 12.259 C-20.81 7.577 -20.81 7.577 -17.23 6.759 C-16.632 6.594 -16.034 6.429 -15.418 6.259 C-15.088 5.599 -14.758 4.939 -14.418 4.259 C-12.427 3.566 -10.426 2.901 -8.418 2.259 C-5.054 0.016 -3.934 0.006 0 0 Z M127.582 85.259 C128.582 87.259 128.582 87.259 128.582 87.259 Z M-154.418 104.259 C-153.418 106.259 -153.418 106.259 -153.418 106.259 Z M-168.418 124.259 C-167.418 128.259 -167.418 128.259 -167.418 128.259 Z M-233.418 245.259 C-233.418 248.559 -233.418 251.859 -233.418 255.259 C-233.088 255.259 -232.758 255.259 -232.418 255.259 C-232.418 251.959 -232.418 248.659 -232.418 245.259 C-232.748 245.259 -233.078 245.259 -233.418 245.259 Z M199.582 245.259 C200.582 247.259 200.582 247.259 200.582 247.259 Z M207.582 276.259 C207.582 277.909 207.582 279.559 207.582 281.259 C207.912 281.259 208.242 281.259 208.582 281.259 C208.582 279.609 208.582 277.959 208.582 276.259 C208.252 276.259 207.922 276.259 207.582 276.259 Z M-146.418 394.259 C-145.418 396.259 -145.418 396.259 -145.418 396.259 Z M-44.418 449.259 C-40.418 450.259 -40.418 450.259 -40.418 450.259 Z " fill="#F9EFD8" transform="translate(266.417724609375,21.7412109375)"/>
<path d="M0 0 C1.108 -0.006 2.216 -0.013 3.358 -0.019 C4.555 -0.015 5.751 -0.011 6.985 -0.007 C8.214 -0.009 9.443 -0.011 10.71 -0.013 C13.978 -0.014 17.246 -0.006 20.515 0.005 C23.833 0.011 27.152 -0.004 30.471 -0.015 C32.996 -0.013 35.522 -0.011 38.047 -0.007 C39.242 -0.011 40.437 -0.015 41.668 -0.019 C43.335 -0.01 43.335 -0.01 45.035 0 C46.012 0.002 46.989 0.003 47.995 0.005 C50.686 0.269 52.272 0.9 54.582 2.259 C55.242 2.589 55.902 2.919 56.582 3.259 C59.706 4.82 62.669 6.317 65.582 8.259 C66.242 8.589 66.902 8.919 67.582 9.259 C70.706 10.82 73.669 12.317 76.582 14.259 C77.242 14.589 77.902 14.919 78.582 15.259 C78.706 15.878 78.83 16.496 78.957 17.134 C79.794 19.978 81.196 20.554 83.582 22.259 C84.222 23.063 84.861 23.868 85.52 24.696 C87.644 27.335 89.927 29.178 92.582 31.259 C92.912 31.919 93.242 32.579 93.582 33.259 C94.572 33.589 95.562 33.919 96.582 34.259 C96.912 34.919 97.242 35.579 97.582 36.259 C99.649 38.989 101.754 41.427 104.207 43.821 C106.315 45.984 107.447 47.516 108.582 50.259 C108.912 50.919 109.242 51.579 109.582 52.259 C109.912 52.259 110.242 52.259 110.582 52.259 C110.706 53.001 110.83 53.744 110.957 54.509 C112.284 60.347 115.809 65.665 119.582 70.259 C120.242 70.589 120.902 70.919 121.582 71.259 C121.582 72.909 121.582 74.559 121.582 76.259 C122.572 76.589 123.562 76.919 124.582 77.259 C124.912 78.249 125.242 79.239 125.582 80.259 C126.222 80.795 126.861 81.331 127.52 81.884 C130.127 84.886 130.462 87.379 131.09 91.235 C131.448 93.471 131.448 93.471 133.582 95.259 C134.242 95.589 134.902 95.919 135.582 96.259 C136.207 99.321 136.207 99.321 136.582 102.259 C137.242 102.259 137.902 102.259 138.582 102.259 C138.912 104.239 139.242 106.219 139.582 108.259 C140.242 108.259 140.902 108.259 141.582 108.259 C141.582 109.909 141.582 111.559 141.582 113.259 C142.242 113.259 142.902 113.259 143.582 113.259 C143.984 114.651 143.984 114.651 144.395 116.071 C145.492 119.016 146.161 120.364 148.582 122.259 C148.912 122.259 149.242 122.259 149.582 122.259 C149.778 124.31 149.973 126.36 150.168 128.411 C150.305 129.021 150.441 129.631 150.582 130.259 C151.242 130.589 151.902 130.919 152.582 131.259 C153.207 133.821 153.207 133.821 153.582 136.259 C154.242 136.259 154.902 136.259 155.582 136.259 C155.912 137.909 156.242 139.559 156.582 141.259 C157.242 141.259 157.902 141.259 158.582 141.259 C158.912 144.229 159.242 147.199 159.582 150.259 C160.242 150.259 160.902 150.259 161.582 150.259 C161.562 151.001 161.541 151.744 161.52 152.509 C161.576 154.99 161.75 156.93 162.582 159.259 C163.242 159.589 163.902 159.919 164.582 160.259 C166.556 162.627 167.596 164.3 168.582 167.259 C169.233 168.6 169.899 169.934 170.582 171.259 C170.912 171.919 171.242 172.579 171.582 173.259 C171.912 173.259 172.242 173.259 172.582 173.259 C172.912 175.899 173.242 178.539 173.582 181.259 C174.242 181.259 174.902 181.259 175.582 181.259 C175.582 183.239 175.582 185.219 175.582 187.259 C176.242 187.259 176.902 187.259 177.582 187.259 C178.015 188.465 178.015 188.465 178.457 189.696 C179.315 192.391 179.315 192.391 181.582 193.259 C181.582 195.899 181.582 198.539 181.582 201.259 C182.242 201.259 182.902 201.259 183.582 201.259 C183.912 202.909 184.242 204.559 184.582 206.259 C185.242 206.259 185.902 206.259 186.582 206.259 C186.778 208.31 186.973 210.36 187.168 212.411 C187.305 213.021 187.441 213.631 187.582 214.259 C188.242 214.589 188.902 214.919 189.582 215.259 C190.207 217.821 190.207 217.821 190.582 220.259 C191.242 220.259 191.902 220.259 192.582 220.259 C192.582 224.549 192.582 228.839 192.582 233.259 C193.572 233.589 194.562 233.919 195.582 234.259 C196.572 234.589 197.562 234.919 198.582 235.259 C198.582 237.899 198.582 240.539 198.582 243.259 C199.572 243.589 200.562 243.919 201.582 244.259 C201.582 245.909 201.582 247.559 201.582 249.259 C202.242 249.259 202.902 249.259 203.582 249.259 C204.194 256.942 204.715 264.549 204.582 272.259 C205.242 272.589 205.902 272.919 206.582 273.259 C210.443 275.833 210.525 277.869 211.582 282.259 C211.912 282.259 212.242 282.259 212.582 282.259 C212.565 283.757 212.565 283.757 212.547 285.286 C212.538 286.576 212.529 287.867 212.52 289.196 C212.502 291.128 212.502 291.128 212.485 293.099 C212.217 296.122 212.217 296.122 213.582 297.259 C213.681 299.099 213.71 300.942 213.712 302.785 C213.715 303.967 213.718 305.149 213.721 306.366 C213.718 308.299 213.718 308.299 213.715 310.271 C213.717 312.245 213.717 312.245 213.718 314.259 C213.719 317.052 213.717 319.846 213.713 322.639 C213.707 326.209 213.71 329.779 213.716 333.349 C213.72 336.098 213.719 338.848 213.716 341.598 C213.715 343.551 213.718 345.504 213.721 347.457 C213.718 348.654 213.715 349.852 213.712 351.086 C213.71 352.66 213.71 352.66 213.709 354.266 C213.578 357.36 213.278 360.24 212.582 363.259 C211.922 363.589 211.262 363.919 210.582 364.259 C210.417 365.084 210.252 365.909 210.082 366.759 C209.917 367.584 209.752 368.409 209.582 369.259 C207.582 370.259 207.582 370.259 204.582 371.259 C204.675 373.146 204.675 373.146 204.77 375.071 C204.784 379.014 204.784 379.014 203.145 381.009 C202.629 381.421 202.114 381.834 201.582 382.259 C201.417 382.919 201.252 383.579 201.082 384.259 C200.467 386.721 199.504 387.645 197.582 389.259 C196.922 389.589 196.262 389.919 195.582 390.259 C195.252 390.919 194.922 391.579 194.582 392.259 C192.957 394.025 191.74 395.18 189.582 396.259 C189.149 396.919 188.716 397.579 188.27 398.259 C186.168 400.749 184.753 400.916 181.582 401.259 C181.582 401.919 181.582 402.579 181.582 403.259 C180.84 403.383 180.097 403.506 179.332 403.634 C175.77 404.443 173.353 405.67 170.457 407.884 C168.582 409.259 168.582 409.259 166.582 409.259 C166.582 409.919 166.582 410.579 166.582 411.259 C164.932 411.589 163.282 411.919 161.582 412.259 C161.582 412.919 161.582 413.579 161.582 414.259 C159.602 414.919 157.622 415.579 155.582 416.259 C155.582 416.589 155.582 416.919 155.582 417.259 C154.84 417.383 154.097 417.506 153.332 417.634 C150.763 418.218 148.873 418.995 146.582 420.259 C145.922 420.589 145.262 420.919 144.582 421.259 C143.922 421.919 143.262 422.579 142.582 423.259 C139.957 423.884 139.957 423.884 137.582 424.259 C137.582 424.919 137.582 425.579 137.582 426.259 C135.31 427.754 133.014 429.043 130.582 430.259 C128.53 432.101 128.53 432.101 127.582 434.259 C125.586 434.614 123.585 434.945 121.582 435.259 C120.902 435.609 120.221 435.96 119.52 436.321 C117.103 437.491 115.233 437.406 112.582 437.259 C112.252 438.249 111.922 439.239 111.582 440.259 C109.336 443.629 108.727 443.78 105.02 444.821 C102.633 445.461 102.633 445.461 100.582 446.259 C100.252 446.919 99.922 447.579 99.582 448.259 C96.52 448.884 96.52 448.884 93.582 449.259 C93.582 449.919 93.582 450.579 93.582 451.259 C92.819 451.341 92.056 451.424 91.27 451.509 C88.45 451.97 88.45 451.97 87.332 454.259 C84.773 457.183 82.192 456.918 78.446 457.181 C77.831 457.206 77.216 457.232 76.582 457.259 C76.582 457.919 76.582 458.579 76.582 459.259 C73.582 461.259 73.582 461.259 71.457 462.259 C69.412 463.117 69.412 463.117 68.582 465.259 C65.934 465.852 63.29 466.001 60.582 466.259 C60.582 466.589 60.582 466.919 60.582 467.259 C53.012 468.189 45.548 468.405 37.926 468.392 C36.152 468.393 36.152 468.393 34.341 468.395 C31.854 468.395 29.366 468.393 26.879 468.389 C23.094 468.384 19.309 468.389 15.524 468.396 C13.095 468.395 10.667 468.394 8.239 468.392 C7.118 468.394 5.998 468.396 4.844 468.398 C-9.488 468.355 -9.488 468.355 -14.418 467.259 C-14.748 466.599 -15.078 465.939 -15.418 465.259 C-17.73 462.947 -18.35 462.986 -21.48 462.759 C-22.78 462.594 -24.079 462.429 -25.418 462.259 C-25.748 461.599 -26.078 460.939 -26.418 460.259 C-28.945 459.603 -28.945 459.603 -31.418 459.259 C-31.748 458.269 -32.078 457.279 -32.418 456.259 C-32.748 455.599 -33.078 454.939 -33.418 454.259 C-35.398 454.259 -37.378 454.259 -39.418 454.259 C-39.748 453.599 -40.078 452.939 -40.418 452.259 C-42.945 451.603 -42.945 451.603 -45.418 451.259 C-45.418 450.599 -45.418 449.939 -45.418 449.259 C-46.387 449.135 -47.356 449.011 -48.355 448.884 C-49.871 448.574 -49.871 448.574 -51.418 448.259 C-51.748 447.599 -52.078 446.939 -52.418 446.259 C-54.531 445.352 -54.531 445.352 -56.98 444.634 C-58.22 444.243 -58.22 444.243 -59.484 443.845 C-60.441 443.555 -60.441 443.555 -61.418 443.259 C-61.088 442.599 -60.758 441.939 -60.418 441.259 C-61.078 440.929 -61.738 440.599 -62.418 440.259 C-62.418 439.269 -62.418 438.279 -62.418 437.259 C-65.058 437.259 -67.698 437.259 -70.418 437.259 C-70.418 436.599 -70.418 435.939 -70.418 435.259 C-73.388 434.929 -76.358 434.599 -79.418 434.259 C-79.088 433.599 -78.758 432.939 -78.418 432.259 C-79.408 432.259 -80.398 432.259 -81.418 432.259 C-81.748 431.269 -82.078 430.279 -82.418 429.259 C-83.552 429.135 -84.686 429.011 -85.855 428.884 C-87.619 428.574 -87.619 428.574 -89.418 428.259 C-89.748 427.599 -90.078 426.939 -90.418 426.259 C-91.408 426.094 -92.398 425.929 -93.418 425.759 C-94.408 425.594 -95.398 425.429 -96.418 425.259 C-96.748 424.599 -97.078 423.939 -97.418 423.259 C-100.059 420.618 -102.546 419.845 -106.043 418.696 C-107.269 418.292 -107.269 418.292 -108.519 417.88 C-109.459 417.572 -109.459 417.572 -110.418 417.259 C-110.418 416.599 -110.418 415.939 -110.418 415.259 C-111.387 415.135 -112.356 415.011 -113.355 414.884 C-114.871 414.574 -114.871 414.574 -116.418 414.259 C-116.748 413.599 -117.078 412.939 -117.418 412.259 C-118.243 412.094 -119.068 411.929 -119.918 411.759 C-120.743 411.594 -121.568 411.429 -122.418 411.259 C-122.748 410.599 -123.078 409.939 -123.418 409.259 C-125.351 408.167 -125.351 408.167 -127.418 407.259 C-128.078 406.929 -128.738 406.599 -129.418 406.259 C-130.593 406.114 -131.769 405.97 -132.98 405.821 C-134.115 405.636 -135.249 405.45 -136.418 405.259 C-137.084 403.925 -137.751 402.592 -138.418 401.259 C-140.945 400.603 -140.945 400.603 -143.418 400.259 C-143.418 399.599 -143.418 398.939 -143.418 398.259 C-144.738 397.929 -146.058 397.599 -147.418 397.259 C-147.418 396.269 -147.418 395.279 -147.418 394.259 C-150.058 394.259 -152.698 394.259 -155.418 394.259 C-155.748 393.599 -156.078 392.939 -156.418 392.259 C-157.243 392.094 -158.068 391.929 -158.918 391.759 C-159.743 391.594 -160.568 391.429 -161.418 391.259 C-161.748 390.599 -162.078 389.939 -162.418 389.259 C-165.597 387.257 -168.73 386.762 -172.418 386.259 C-172.418 385.599 -172.418 384.939 -172.418 384.259 C-174.068 383.929 -175.718 383.599 -177.418 383.259 C-177.418 382.599 -177.418 381.939 -177.418 381.259 C-178.387 381.135 -179.356 381.011 -180.355 380.884 C-181.366 380.678 -182.376 380.471 -183.418 380.259 C-183.748 379.599 -184.078 378.939 -184.418 378.259 C-186.945 377.603 -186.945 377.603 -189.418 377.259 C-189.418 376.599 -189.418 375.939 -189.418 375.259 C-192.286 373.156 -192.286 373.156 -195.418 372.259 C-195.418 371.599 -195.418 370.939 -195.418 370.259 C-198.2 368.298 -198.2 368.298 -200.543 367.259 C-202.418 366.259 -202.418 366.259 -203.418 364.259 C-204.408 363.599 -205.398 362.939 -206.418 362.259 C-207.439 361.28 -208.438 360.279 -209.418 359.259 C-210.16 358.516 -210.16 358.516 -210.918 357.759 C-211.949 356.727 -212.969 355.685 -213.98 354.634 C-215.391 353.149 -215.391 353.149 -217.418 352.259 C-217.418 350.609 -217.418 348.959 -217.418 347.259 C-218.346 346.795 -218.346 346.795 -219.293 346.321 C-220.668 345.634 -222.043 344.946 -223.418 344.259 C-223.418 342.609 -223.418 340.959 -223.418 339.259 C-224.078 339.259 -224.738 339.259 -225.418 339.259 C-225.748 337.939 -226.078 336.619 -226.418 335.259 C-227.078 335.259 -227.738 335.259 -228.418 335.259 C-228.541 334.454 -228.665 333.65 -228.793 332.821 C-228.999 331.976 -229.205 331.13 -229.418 330.259 C-230.078 329.929 -230.738 329.599 -231.418 329.259 C-231.383 328.632 -231.348 328.006 -231.312 327.36 C-231.285 326.543 -231.258 325.726 -231.23 324.884 C-231.195 324.072 -231.161 323.26 -231.125 322.423 C-231.221 321.709 -231.318 320.995 -231.418 320.259 C-232.408 319.599 -233.398 318.939 -234.418 318.259 C-234.799 315.222 -234.799 315.222 -234.806 311.271 C-234.811 310.552 -234.816 309.833 -234.822 309.092 C-234.835 306.71 -234.826 304.328 -234.816 301.946 C-234.818 300.295 -234.821 298.643 -234.825 296.992 C-234.829 293.528 -234.823 290.065 -234.809 286.602 C-234.792 282.156 -234.802 277.71 -234.82 273.265 C-234.83 269.854 -234.827 266.443 -234.819 263.032 C-234.817 261.393 -234.82 259.753 -234.827 258.114 C-234.834 255.824 -234.823 253.536 -234.806 251.247 C-234.804 249.943 -234.801 248.639 -234.799 247.295 C-234.673 246.293 -234.547 245.291 -234.418 244.259 C-232.933 243.269 -232.933 243.269 -231.418 242.259 C-231.168 238.675 -231.168 238.675 -231.418 235.259 C-230.428 234.929 -229.438 234.599 -228.418 234.259 C-227.923 233.269 -227.923 233.269 -227.418 232.259 C-226.923 231.269 -226.923 231.269 -226.418 230.259 C-226.201 228.495 -226.201 228.495 -225.98 226.696 C-225.795 225.562 -225.609 224.428 -225.418 223.259 C-224.758 222.929 -224.098 222.599 -223.418 222.259 C-221.731 221.158 -221.731 221.158 -220.418 219.259 C-220.056 216.93 -219.721 214.596 -219.418 212.259 C-218.758 211.929 -218.098 211.599 -217.418 211.259 C-217.074 209.928 -216.742 208.594 -216.418 207.259 C-215.428 206.269 -215.428 206.269 -214.418 205.259 C-214.088 204.269 -213.758 203.279 -213.418 202.259 C-212.428 201.269 -212.428 201.269 -211.418 200.259 C-211.251 197.675 -211.251 197.675 -211.418 195.259 C-210.084 194.592 -208.751 193.925 -207.418 193.259 C-207.913 191.279 -207.913 191.279 -208.418 189.259 C-207.758 188.929 -207.098 188.599 -206.418 188.259 C-206.108 187.64 -205.799 187.021 -205.48 186.384 C-204.382 184.188 -203.217 182.901 -201.418 181.259 C-200.25 180.281 -200.25 180.281 -200.105 178.509 C-199.187 175.504 -197.406 173.669 -195.418 171.259 C-194.242 169.159 -194.242 169.159 -193.418 167.259 C-192.064 164.551 -190.558 162.399 -188.418 160.259 C-188.056 158.933 -187.72 157.599 -187.418 156.259 C-187.088 155.929 -186.758 155.599 -186.418 155.259 C-186.377 153.593 -186.375 151.925 -186.418 150.259 C-185.758 149.929 -185.098 149.599 -184.418 149.259 C-181.183 147.603 -181.183 147.603 -180.855 144.696 C-180.711 143.892 -180.566 143.088 -180.418 142.259 C-179.758 141.929 -179.098 141.599 -178.418 141.259 C-176.448 139.289 -175.67 137.817 -174.543 135.321 C-173.394 133.214 -172.18 131.868 -170.418 130.259 C-169.031 129.077 -169.031 129.077 -168.98 125.759 C-168.702 124.026 -168.702 124.026 -168.418 122.259 C-166.418 121.259 -166.418 121.259 -163.418 120.259 C-162.746 118.323 -162.746 118.323 -162.418 116.259 C-158.418 108.259 -158.418 108.259 -155.418 107.259 C-155.294 106.454 -155.17 105.65 -155.043 104.821 C-154.836 103.976 -154.63 103.13 -154.418 102.259 C-153.758 101.929 -153.098 101.599 -152.418 101.259 C-152.201 100.362 -152.201 100.362 -151.98 99.446 C-150.92 95.322 -147.916 92.637 -144.855 89.821 C-143.173 88.207 -143.173 88.207 -142.418 85.259 C-141.441 84.236 -140.436 83.24 -139.418 82.259 C-138.758 81.434 -138.098 80.609 -137.418 79.759 C-134.187 75.72 -134.187 75.72 -132.418 74.259 C-131.428 74.259 -130.438 74.259 -129.418 74.259 C-128.923 72.774 -128.923 72.774 -128.418 71.259 C-124.662 65.972 -120.273 62.078 -114.418 59.259 C-113.923 58.269 -113.923 58.269 -113.418 57.259 C-110.355 56.634 -110.355 56.634 -107.418 56.259 C-107.418 55.599 -107.418 54.939 -107.418 54.259 C-104.724 51.565 -102.059 51.263 -98.418 50.259 C-95.225 49.002 -95.225 49.002 -93.418 46.259 C-90.855 45.634 -90.855 45.634 -88.418 45.259 C-88.418 44.599 -88.418 43.939 -88.418 43.259 C-85.342 42.966 -85.342 42.966 -82.265 42.673 C-81.656 42.536 -81.046 42.4 -80.418 42.259 C-80.088 41.599 -79.758 40.939 -79.418 40.259 C-78.428 39.599 -77.438 38.939 -76.418 38.259 C-76.418 37.929 -76.418 37.599 -76.418 37.259 C-74.438 36.599 -72.458 35.939 -70.418 35.259 C-70.418 34.929 -70.418 34.599 -70.418 34.259 C-69.675 34.135 -68.933 34.011 -68.168 33.884 C-65.598 33.3 -63.709 32.523 -61.418 31.259 C-60.076 30.588 -58.721 29.942 -57.355 29.321 C-55.256 28.409 -55.256 28.409 -54.418 26.259 C-52.124 25.945 -49.86 25.88 -47.547 25.798 C-46.844 25.62 -46.142 25.442 -45.418 25.259 C-44.243 23.367 -44.243 23.367 -43.418 21.259 C-41.775 19.896 -40.109 18.56 -38.418 17.259 C-38.088 16.599 -37.758 15.939 -37.418 15.259 C-35.42 14.911 -33.42 14.579 -31.418 14.259 C-30.428 13.599 -29.438 12.939 -28.418 12.259 C-20.81 7.577 -20.81 7.577 -17.23 6.759 C-16.632 6.594 -16.034 6.429 -15.418 6.259 C-15.088 5.599 -14.758 4.939 -14.418 4.259 C-12.427 3.566 -10.426 2.901 -8.418 2.259 C-5.054 0.016 -3.934 0.006 0 0 Z M5.582 12.259 C5.582 13.249 5.582 14.239 5.582 15.259 C2.942 15.259 0.302 15.259 -2.418 15.259 C-2.418 16.249 -2.418 17.239 -2.418 18.259 C-3.738 18.259 -5.058 18.259 -6.418 18.259 C-6.418 18.919 -6.418 19.579 -6.418 20.259 C-8.068 20.259 -9.718 20.259 -11.418 20.259 C-11.418 21.249 -11.418 22.239 -11.418 23.259 C-13.068 23.259 -14.718 23.259 -16.418 23.259 C-16.418 24.249 -16.418 25.239 -16.418 26.259 C-18.398 26.259 -20.378 26.259 -22.418 26.259 C-22.418 27.249 -22.418 28.239 -22.418 29.259 C-24.398 29.259 -26.378 29.259 -28.418 29.259 C-28.418 30.249 -28.418 31.239 -28.418 32.259 C-30.398 32.259 -32.378 32.259 -34.418 32.259 C-34.418 33.249 -34.418 34.239 -34.418 35.259 C-36.068 35.259 -37.718 35.259 -39.418 35.259 C-39.418 36.249 -39.418 37.239 -39.418 38.259 C-41.398 38.259 -43.378 38.259 -45.418 38.259 C-45.418 39.249 -45.418 40.239 -45.418 41.259 C-46.078 41.259 -46.738 41.259 -47.418 41.259 C-47.418 42.249 -47.418 43.239 -47.418 44.259 C-49.398 44.259 -51.378 44.259 -53.418 44.259 C-53.418 44.919 -53.418 45.579 -53.418 46.259 C-55.398 46.259 -57.378 46.259 -59.418 46.259 C-59.418 47.249 -59.418 48.239 -59.418 49.259 C-61.398 49.259 -63.378 49.259 -65.418 49.259 C-65.418 50.249 -65.418 51.239 -65.418 52.259 C-67.068 52.259 -68.718 52.259 -70.418 52.259 C-70.418 53.249 -70.418 54.239 -70.418 55.259 C-72.398 55.259 -74.378 55.259 -76.418 55.259 C-76.418 55.919 -76.418 56.579 -76.418 57.259 C-77.078 57.259 -77.738 57.259 -78.418 57.259 C-78.418 58.249 -78.418 59.239 -78.418 60.259 C-81.388 60.259 -84.358 60.259 -87.418 60.259 C-87.418 61.249 -87.418 62.239 -87.418 63.259 C-89.068 63.259 -90.718 63.259 -92.418 63.259 C-92.418 65.239 -92.418 67.219 -92.418 69.259 C-95.388 69.259 -98.358 69.259 -101.418 69.259 C-101.418 69.919 -101.418 70.579 -101.418 71.259 C-102.408 71.259 -103.398 71.259 -104.418 71.259 C-104.418 72.249 -104.418 73.239 -104.418 74.259 C-107.058 74.259 -109.698 74.259 -112.418 74.259 C-112.418 75.249 -112.418 76.239 -112.418 77.259 C-113.408 77.259 -114.398 77.259 -115.418 77.259 C-115.418 78.249 -115.418 79.239 -115.418 80.259 C-116.408 80.259 -117.398 80.259 -118.418 80.259 C-118.418 81.249 -118.418 82.239 -118.418 83.259 C-119.408 83.259 -120.398 83.259 -121.418 83.259 C-121.418 84.249 -121.418 85.239 -121.418 86.259 C-122.078 86.259 -122.738 86.259 -123.418 86.259 C-123.418 87.249 -123.418 88.239 -123.418 89.259 C-124.408 89.259 -125.398 89.259 -126.418 89.259 C-126.418 91.239 -126.418 93.219 -126.418 95.259 C-127.408 95.259 -128.398 95.259 -129.418 95.259 C-129.418 95.919 -129.418 96.579 -129.418 97.259 C-130.408 97.259 -131.398 97.259 -132.418 97.259 C-132.418 98.249 -132.418 99.239 -132.418 100.259 C-133.408 100.259 -134.398 100.259 -135.418 100.259 C-135.418 101.249 -135.418 102.239 -135.418 103.259 C-136.408 103.259 -137.398 103.259 -138.418 103.259 C-138.418 104.909 -138.418 106.559 -138.418 108.259 C-139.078 108.259 -139.738 108.259 -140.418 108.259 C-140.418 110.239 -140.418 112.219 -140.418 114.259 C-141.408 114.259 -142.398 114.259 -143.418 114.259 C-143.418 115.249 -143.418 116.239 -143.418 117.259 C-144.408 117.259 -145.398 117.259 -146.418 117.259 C-146.418 119.239 -146.418 121.219 -146.418 123.259 C-147.408 123.259 -148.398 123.259 -149.418 123.259 C-151.209 124.382 -151.209 124.382 -152.418 126.259 C-152.668 128.884 -152.668 128.884 -152.418 131.259 C-153.078 131.259 -153.738 131.259 -154.418 131.259 C-154.418 133.239 -154.418 135.219 -154.418 137.259 C-155.408 137.259 -156.398 137.259 -157.418 137.259 C-157.418 138.909 -157.418 140.559 -157.418 142.259 C-159.398 142.259 -161.378 142.259 -163.418 142.259 C-163.418 144.239 -163.418 146.219 -163.418 148.259 C-164.408 148.259 -165.398 148.259 -166.418 148.259 C-166.418 150.239 -166.418 152.219 -166.418 154.259 C-167.408 154.259 -168.398 154.259 -169.418 154.259 C-169.418 155.909 -169.418 157.559 -169.418 159.259 C-170.078 159.259 -170.738 159.259 -171.418 159.259 C-171.418 160.249 -171.418 161.239 -171.418 162.259 C-172.408 162.259 -173.398 162.259 -174.418 162.259 C-174.418 164.239 -174.418 166.219 -174.418 168.259 C-175.408 168.259 -176.398 168.259 -177.418 168.259 C-177.418 170.239 -177.418 172.219 -177.418 174.259 C-178.408 174.259 -179.398 174.259 -180.418 174.259 C-180.418 174.919 -180.418 175.579 -180.418 176.259 C-181.408 176.259 -182.398 176.259 -183.418 176.259 C-183.418 178.239 -183.418 180.219 -183.418 182.259 C-184.408 182.259 -185.398 182.259 -186.418 182.259 C-186.418 183.249 -186.418 184.239 -186.418 185.259 C-187.078 185.259 -187.738 185.259 -188.418 185.259 C-188.418 187.899 -188.418 190.539 -188.418 193.259 C-189.408 193.259 -190.398 193.259 -191.418 193.259 C-191.418 194.249 -191.418 195.239 -191.418 196.259 C-192.408 196.259 -193.398 196.259 -194.418 196.259 C-194.418 198.239 -194.418 200.219 -194.418 202.259 C-195.408 202.259 -196.398 202.259 -197.418 202.259 C-197.418 203.909 -197.418 205.559 -197.418 207.259 C-198.408 207.259 -199.398 207.259 -200.418 207.259 C-200.418 209.239 -200.418 211.219 -200.418 213.259 C-201.408 213.259 -202.398 213.259 -203.418 213.259 C-203.418 216.229 -203.418 219.199 -203.418 222.259 C-204.078 222.259 -204.738 222.259 -205.418 222.259 C-205.418 223.909 -205.418 225.559 -205.418 227.259 C-206.408 227.259 -207.398 227.259 -208.418 227.259 C-208.418 229.239 -208.418 231.219 -208.418 233.259 C-209.408 233.259 -210.398 233.259 -211.418 233.259 C-211.418 233.919 -211.418 234.579 -211.418 235.259 C-212.078 235.259 -212.738 235.259 -213.418 235.259 C-213.748 238.229 -214.078 241.199 -214.418 244.259 C-215.408 244.259 -216.398 244.259 -217.418 244.259 C-217.418 248.219 -217.418 252.179 -217.418 256.259 C-218.078 256.259 -218.738 256.259 -219.418 256.259 C-219.418 257.909 -219.418 259.559 -219.418 261.259 C-220.408 261.259 -221.398 261.259 -222.418 261.259 C-222.418 275.119 -222.418 288.979 -222.418 303.259 C-221.758 303.259 -221.098 303.259 -220.418 303.259 C-220.418 307.219 -220.418 311.179 -220.418 315.259 C-219.428 315.259 -218.438 315.259 -217.418 315.259 C-217.418 317.899 -217.418 320.539 -217.418 323.259 C-216.428 323.259 -215.438 323.259 -214.418 323.259 C-214.418 325.239 -214.418 327.219 -214.418 329.259 C-213.428 329.259 -212.438 329.259 -211.418 329.259 C-211.418 331.239 -211.418 333.219 -211.418 335.259 C-210.428 335.259 -209.438 335.259 -208.418 335.259 C-208.418 335.919 -208.418 336.579 -208.418 337.259 C-207.428 337.259 -206.438 337.259 -205.418 337.259 C-205.418 338.249 -205.418 339.239 -205.418 340.259 C-204.758 340.259 -204.098 340.259 -203.418 340.259 C-203.418 342.239 -203.418 344.219 -203.418 346.259 C-202.428 346.259 -201.438 346.259 -200.418 346.259 C-200.418 347.249 -200.418 348.239 -200.418 349.259 C-199.428 349.259 -198.438 349.259 -197.418 349.259 C-197.418 349.919 -197.418 350.579 -197.418 351.259 C-196.428 351.259 -195.438 351.259 -194.418 351.259 C-194.418 352.249 -194.418 353.239 -194.418 354.259 C-192.438 354.259 -190.458 354.259 -188.418 354.259 C-188.418 355.249 -188.418 356.239 -188.418 357.259 C-187.758 357.259 -187.098 357.259 -186.418 357.259 C-186.418 358.249 -186.418 359.239 -186.418 360.259 C-184.438 360.259 -182.458 360.259 -180.418 360.259 C-180.418 361.249 -180.418 362.239 -180.418 363.259 C-178.768 363.259 -177.118 363.259 -175.418 363.259 C-175.418 364.249 -175.418 365.239 -175.418 366.259 C-173.438 366.259 -171.458 366.259 -169.418 366.259 C-169.418 367.249 -169.418 368.239 -169.418 369.259 C-167.438 369.259 -165.458 369.259 -163.418 369.259 C-163.418 370.249 -163.418 371.239 -163.418 372.259 C-161.438 372.259 -159.458 372.259 -157.418 372.259 C-157.418 359.059 -157.418 345.859 -157.418 332.259 C-155.768 332.259 -154.118 332.259 -152.418 332.259 C-152.418 331.269 -152.418 330.279 -152.418 329.259 C-149.448 329.259 -146.478 329.259 -143.418 329.259 C-143.418 330.249 -143.418 331.239 -143.418 332.259 C-141.768 332.259 -140.118 332.259 -138.418 332.259 C-138.418 333.249 -138.418 334.239 -138.418 335.259 C-136.438 335.259 -134.458 335.259 -132.418 335.259 C-132.418 335.919 -132.418 336.579 -132.418 337.259 C-130.438 337.259 -128.458 337.259 -126.418 337.259 C-126.418 338.249 -126.418 339.239 -126.418 340.259 C-124.768 340.259 -123.118 340.259 -121.418 340.259 C-121.418 341.249 -121.418 342.239 -121.418 343.259 C-119.438 343.259 -117.458 343.259 -115.418 343.259 C-115.418 344.249 -115.418 345.239 -115.418 346.259 C-113.768 346.259 -112.118 346.259 -110.418 346.259 C-110.418 347.249 -110.418 348.239 -110.418 349.259 C-108.438 349.259 -106.458 349.259 -104.418 349.259 C-104.418 349.919 -104.418 350.579 -104.418 351.259 C-102.438 351.259 -100.458 351.259 -98.418 351.259 C-98.418 352.249 -98.418 353.239 -98.418 354.259 C-96.768 354.259 -95.118 354.259 -93.418 354.259 C-93.418 355.249 -93.418 356.239 -93.418 357.259 C-91.438 357.259 -89.458 357.259 -87.418 357.259 C-87.418 358.249 -87.418 359.239 -87.418 360.259 C-85.438 360.259 -83.458 360.259 -81.418 360.259 C-81.418 361.249 -81.418 362.239 -81.418 363.259 C-79.768 363.259 -78.118 363.259 -76.418 363.259 C-76.418 364.249 -76.418 365.239 -76.418 366.259 C-74.438 366.259 -72.458 366.259 -70.418 366.259 C-70.418 366.919 -70.418 367.579 -70.418 368.259 C-68.768 368.259 -67.118 368.259 -65.418 368.259 C-65.418 369.249 -65.418 370.239 -65.418 371.259 C-63.438 371.259 -61.458 371.259 -59.418 371.259 C-59.418 372.249 -59.418 373.239 -59.418 374.259 C-57.438 374.259 -55.458 374.259 -53.418 374.259 C-53.418 375.249 -53.418 376.239 -53.418 377.259 C-51.768 377.259 -50.118 377.259 -48.418 377.259 C-48.418 378.249 -48.418 379.239 -48.418 380.259 C-46.438 380.259 -44.458 380.259 -42.418 380.259 C-42.418 381.249 -42.418 382.239 -42.418 383.259 C-41.428 383.259 -40.438 383.259 -39.418 383.259 C-39.418 401.079 -39.418 418.899 -39.418 437.259 C-37.438 437.259 -35.458 437.259 -33.418 437.259 C-33.418 437.919 -33.418 438.579 -33.418 439.259 C-31.768 439.259 -30.118 439.259 -28.418 439.259 C-28.418 440.249 -28.418 441.239 -28.418 442.259 C-26.438 442.259 -24.458 442.259 -22.418 442.259 C-22.418 443.249 -22.418 444.239 -22.418 445.259 C-20.438 445.259 -18.458 445.259 -16.418 445.259 C-16.418 446.249 -16.418 447.239 -16.418 448.259 C-14.768 448.259 -13.118 448.259 -11.418 448.259 C-11.418 449.249 -11.418 450.239 -11.418 451.259 C-9.438 451.259 -7.458 451.259 -5.418 451.259 C-5.418 452.249 -5.418 453.239 -5.418 454.259 C-0.798 454.259 3.822 454.259 8.582 454.259 C8.582 454.919 8.582 455.579 8.582 456.259 C18.812 456.259 29.042 456.259 39.582 456.259 C39.582 454.609 39.582 452.959 39.582 451.259 C42.552 451.259 45.522 451.259 48.582 451.259 C48.582 450.269 48.582 449.279 48.582 448.259 C49.242 448.259 49.902 448.259 50.582 448.259 C50.582 447.269 50.582 446.279 50.582 445.259 C51.572 445.259 52.562 445.259 53.582 445.259 C53.582 444.269 53.582 443.279 53.582 442.259 C54.572 442.259 55.562 442.259 56.582 442.259 C56.582 441.269 56.582 440.279 56.582 439.259 C57.572 439.259 58.562 439.259 59.582 439.259 C59.582 437.609 59.582 435.959 59.582 434.259 C60.572 434.259 61.562 434.259 62.582 434.259 C62.582 432.279 62.582 430.299 62.582 428.259 C63.242 428.259 63.902 428.259 64.582 428.259 C64.582 425.289 64.582 422.319 64.582 419.259 C65.572 419.259 66.562 419.259 67.582 419.259 C67.582 416.619 67.582 413.979 67.582 411.259 C68.572 411.259 69.562 411.259 70.582 411.259 C70.582 398.059 70.582 384.859 70.582 371.259 C69.592 371.259 68.602 371.259 67.582 371.259 C67.582 368.619 67.582 365.979 67.582 363.259 C66.592 363.259 65.602 363.259 64.582 363.259 C64.582 359.299 64.582 355.339 64.582 351.259 C63.922 351.259 63.262 351.259 62.582 351.259 C62.582 348.619 62.582 345.979 62.582 343.259 C65.222 343.259 67.862 343.259 70.582 343.259 C70.582 342.269 70.582 341.279 70.582 340.259 C72.562 340.259 74.542 340.259 76.582 340.259 C76.582 339.269 76.582 338.279 76.582 337.259 C77.572 337.259 78.562 337.259 79.582 337.259 C79.582 336.599 79.582 335.939 79.582 335.259 C81.232 335.259 82.882 335.259 84.582 335.259 C84.582 334.269 84.582 333.279 84.582 332.259 C86.562 332.259 88.542 332.259 90.582 332.259 C90.582 331.269 90.582 330.279 90.582 329.259 C93.222 329.259 95.862 329.259 98.582 329.259 C98.582 328.269 98.582 327.279 98.582 326.259 C100.562 326.259 102.542 326.259 104.582 326.259 C104.582 325.269 104.582 324.279 104.582 323.259 C106.562 323.259 108.542 323.259 110.582 323.259 C110.582 321.609 110.582 319.959 110.582 318.259 C112.562 318.259 114.542 318.259 116.582 318.259 C116.582 317.269 116.582 316.279 116.582 315.259 C118.232 315.259 119.882 315.259 121.582 315.259 C121.582 314.269 121.582 313.279 121.582 312.259 C123.562 312.259 125.542 312.259 127.582 312.259 C127.582 311.269 127.582 310.279 127.582 309.259 C129.232 309.259 130.882 309.259 132.582 309.259 C132.582 308.269 132.582 307.279 132.582 306.259 C134.562 306.259 136.542 306.259 138.582 306.259 C138.582 305.599 138.582 304.939 138.582 304.259 C140.562 304.259 142.542 304.259 144.582 304.259 C144.582 303.269 144.582 302.279 144.582 301.259 C146.562 301.259 148.542 301.259 150.582 301.259 C150.582 300.269 150.582 299.279 150.582 298.259 C153.222 298.259 155.862 298.259 158.582 298.259 C158.582 297.269 158.582 296.279 158.582 295.259 C159.572 295.259 160.562 295.259 161.582 295.259 C161.582 294.269 161.582 293.279 161.582 292.259 C162.345 292.321 163.109 292.383 163.895 292.446 C166.591 292.496 166.591 292.496 168.395 290.946 C169.87 289.194 169.87 289.194 169.582 286.259 C171.562 286.259 173.542 286.259 175.582 286.259 C175.582 285.599 175.582 284.939 175.582 284.259 C177.562 284.259 179.542 284.259 181.582 284.259 C181.582 283.269 181.582 282.279 181.582 281.259 C183.232 281.259 184.882 281.259 186.582 281.259 C186.582 279.279 186.582 277.299 186.582 275.259 C187.572 275.259 188.562 275.259 189.582 275.259 C189.582 269.979 189.582 264.699 189.582 259.259 C188.592 259.259 187.602 259.259 186.582 259.259 C186.582 256.289 186.582 253.319 186.582 250.259 C185.592 250.259 184.602 250.259 183.582 250.259 C183.582 248.279 183.582 246.299 183.582 244.259 C182.592 244.259 181.602 244.259 180.582 244.259 C180.582 241.619 180.582 238.979 180.582 236.259 C179.592 236.259 178.602 236.259 177.582 236.259 C177.582 234.279 177.582 232.299 177.582 230.259 C176.922 230.259 176.262 230.259 175.582 230.259 C175.582 227.619 175.582 224.979 175.582 222.259 C174.592 222.259 173.602 222.259 172.582 222.259 C172.582 219.289 172.582 216.319 172.582 213.259 C171.592 213.259 170.602 213.259 169.582 213.259 C169.582 211.609 169.582 209.959 169.582 208.259 C168.922 207.929 168.262 207.599 167.582 207.259 C166.957 204.696 166.957 204.696 166.582 202.259 C165.922 202.259 165.262 202.259 164.582 202.259 C164.582 199.289 164.582 196.319 164.582 193.259 C163.592 193.259 162.602 193.259 161.582 193.259 C161.582 190.619 161.582 187.979 161.582 185.259 C160.592 185.259 159.602 185.259 158.582 185.259 C158.582 184.269 158.582 183.279 158.582 182.259 C157.592 182.259 156.602 182.259 155.582 182.259 C155.582 179.289 155.582 176.319 155.582 173.259 C154.592 173.259 153.602 173.259 152.582 173.259 C152.582 171.609 152.582 169.959 152.582 168.259 C151.922 168.259 151.262 168.259 150.582 168.259 C150.582 166.279 150.582 164.299 150.582 162.259 C149.262 162.259 147.942 162.259 146.582 162.259 C146.582 159.619 146.582 156.979 146.582 154.259 C145.922 154.259 145.262 154.259 144.582 154.259 C144.582 152.279 144.582 150.299 144.582 148.259 C143.592 148.259 142.602 148.259 141.582 148.259 C141.582 146.279 141.582 144.299 141.582 142.259 C140.592 142.259 139.602 142.259 138.582 142.259 C138.582 140.609 138.582 138.959 138.582 137.259 C137.592 137.259 136.602 137.259 135.582 137.259 C135.582 135.279 135.582 133.299 135.582 131.259 C134.592 131.259 133.602 131.259 132.582 131.259 C132.582 129.279 132.582 127.299 132.582 125.259 C131.922 125.259 131.262 125.259 130.582 125.259 C130.582 123.609 130.582 121.959 130.582 120.259 C129.592 120.259 128.602 120.259 127.582 120.259 C127.582 118.279 127.582 116.299 127.582 114.259 C126.592 114.259 125.602 114.259 124.582 114.259 C124.582 112.279 124.582 110.299 124.582 108.259 C123.592 108.259 122.602 108.259 121.582 108.259 C121.582 106.609 121.582 104.959 121.582 103.259 C120.592 103.259 119.602 103.259 118.582 103.259 C118.582 101.279 118.582 99.299 118.582 97.259 C117.922 97.259 117.262 97.259 116.582 97.259 C116.582 96.269 116.582 95.279 116.582 94.259 C115.592 94.259 114.602 94.259 113.582 94.259 C113.582 92.609 113.582 90.959 113.582 89.259 C112.592 89.259 111.602 89.259 110.582 89.259 C110.582 87.279 110.582 85.299 110.582 83.259 C109.592 83.259 108.602 83.259 107.582 83.259 C107.582 81.279 107.582 79.299 107.582 77.259 C106.592 77.259 105.602 77.259 104.582 77.259 C104.582 76.269 104.582 75.279 104.582 74.259 C103.592 74.259 102.602 74.259 101.582 74.259 C101.582 72.609 101.582 70.959 101.582 69.259 C100.592 69.259 99.602 69.259 98.582 69.259 C98.582 67.279 98.582 65.299 98.582 63.259 C97.922 63.259 97.262 63.259 96.582 63.259 C96.582 61.609 96.582 59.959 96.582 58.259 C95.592 58.259 94.602 58.259 93.582 58.259 C93.582 57.269 93.582 56.279 93.582 55.259 C92.592 55.259 91.602 55.259 90.582 55.259 C90.582 53.279 90.582 51.299 90.582 49.259 C89.592 49.259 88.602 49.259 87.582 49.259 C87.582 48.269 87.582 47.279 87.582 46.259 C86.592 46.259 85.602 46.259 84.582 46.259 C84.582 45.269 84.582 44.279 84.582 43.259 C83.592 43.259 82.602 43.259 81.582 43.259 C81.582 42.269 81.582 41.279 81.582 40.259 C80.592 40.259 79.602 40.259 78.582 40.259 C78.582 39.599 78.582 38.939 78.582 38.259 C77.592 38.259 76.602 38.259 75.582 38.259 C75.582 37.269 75.582 36.279 75.582 35.259 C74.922 35.259 74.262 35.259 73.582 35.259 C73.582 34.269 73.582 33.279 73.582 32.259 C72.592 32.259 71.602 32.259 70.582 32.259 C70.582 31.269 70.582 30.279 70.582 29.259 C68.602 29.259 66.622 29.259 64.582 29.259 C64.582 27.609 64.582 25.959 64.582 24.259 C62.932 24.259 61.282 24.259 59.582 24.259 C59.582 23.269 59.582 22.279 59.582 21.259 C57.602 21.259 55.622 21.259 53.582 21.259 C53.582 20.269 53.582 19.279 53.582 18.259 C51.602 18.259 49.622 18.259 47.582 18.259 C47.582 17.269 47.582 16.279 47.582 15.259 C44.942 15.259 42.302 15.259 39.582 15.259 C39.582 14.269 39.582 13.279 39.582 12.259 C28.362 12.259 17.142 12.259 5.582 12.259 Z M127.582 85.259 C128.582 87.259 128.582 87.259 128.582 87.259 Z M-154.418 104.259 C-153.418 106.259 -153.418 106.259 -153.418 106.259 Z M-168.418 124.259 C-167.418 128.259 -167.418 128.259 -167.418 128.259 Z M-233.418 245.259 C-233.418 248.559 -233.418 251.859 -233.418 255.259 C-233.088 255.259 -232.758 255.259 -232.418 255.259 C-232.418 251.959 -232.418 248.659 -232.418 245.259 C-232.748 245.259 -233.078 245.259 -233.418 245.259 Z M199.582 245.259 C200.582 247.259 200.582 247.259 200.582 247.259 Z M207.582 276.259 C207.582 277.909 207.582 279.559 207.582 281.259 C207.912 281.259 208.242 281.259 208.582 281.259 C208.582 279.609 208.582 277.959 208.582 276.259 C208.252 276.259 207.922 276.259 207.582 276.259 Z M-146.418 394.259 C-145.418 396.259 -145.418 396.259 -145.418 396.259 Z M-44.418 449.259 C-40.418 450.259 -40.418 450.259 -40.418 450.259 Z " fill="#242826" transform="translate(266.417724609375,21.7412109375)"/>
<path d="M0 0 C0.66 0 1.32 0 2 0 C2 0.99 2 1.98 2 3 C2.99 3 3.98 3 5 3 C5 3.99 5 4.98 5 6 C5.99 6 6.98 6 8 6 C8 6.99 8 7.98 8 9 C8.99 9 9.98 9 11 9 C11 10.98 11 12.96 11 15 C11.99 15 12.98 15 14 15 C14 15.99 14 16.98 14 18 C14.99 18 15.98 18 17 18 C17 19.65 17 21.3 17 23 C17.66 23 18.32 23 19 23 C19 24.98 19 26.96 19 29 C19.99 29 20.98 29 22 29 C22 30.65 22 32.3 22 34 C22.99 34 23.98 34 25 34 C25 34.99 25 35.98 25 37 C25.99 37 26.98 37 28 37 C28 38.98 28 40.96 28 43 C28.99 43 29.98 43 31 43 C31 44.98 31 46.96 31 49 C31.99 49 32.98 49 34 49 C34 50.65 34 52.3 34 54 C34.99 54 35.98 54 37 54 C37 54.99 37 55.98 37 57 C37.66 57 38.32 57 39 57 C39 58.98 39 60.96 39 63 C39.99 63 40.98 63 42 63 C42 64.65 42 66.3 42 68 C42.99 68 43.98 68 45 68 C45 69.98 45 71.96 45 74 C45.99 74 46.98 74 48 74 C48 75.98 48 77.96 48 80 C48.99 80 49.98 80 51 80 C51 81.65 51 83.3 51 85 C51.66 85 52.32 85 53 85 C53 86.98 53 88.96 53 91 C53.99 91 54.98 91 56 91 C56 92.98 56 94.96 56 97 C56.99 97 57.98 97 59 97 C59 98.65 59 100.3 59 102 C59.99 102 60.98 102 62 102 C62 103.98 62 105.96 62 108 C62.99 108 63.98 108 65 108 C65 109.98 65 111.96 65 114 C65.66 114 66.32 114 67 114 C67 116.64 67 119.28 67 122 C68.32 122 69.64 122 71 122 C71 123.98 71 125.96 71 128 C71.66 128 72.32 128 73 128 C73 129.65 73 131.3 73 133 C73.99 133 74.98 133 76 133 C76 135.97 76 138.94 76 142 C76.99 142 77.98 142 79 142 C79 142.99 79 143.98 79 145 C79.99 145 80.98 145 82 145 C82 147.64 82 150.28 82 153 C82.99 153 83.98 153 85 153 C85 155.97 85 158.94 85 162 C85.66 162 86.32 162 87 162 C87.124 162.804 87.248 163.609 87.375 164.438 C87.581 165.283 87.788 166.129 88 167 C88.66 167.33 89.32 167.66 90 168 C90 169.65 90 171.3 90 173 C90.99 173 91.98 173 93 173 C93 175.97 93 178.94 93 182 C93.99 182 94.98 182 96 182 C96 184.64 96 187.28 96 190 C96.66 190 97.32 190 98 190 C98 191.98 98 193.96 98 196 C98.99 196 99.98 196 101 196 C101 198.64 101 201.28 101 204 C101.99 204 102.98 204 104 204 C104 205.98 104 207.96 104 210 C104.99 210 105.98 210 107 210 C107 212.97 107 215.94 107 219 C107.99 219 108.98 219 110 219 C110 224.28 110 229.56 110 235 C109.01 235 108.02 235 107 235 C107 236.98 107 238.96 107 241 C105.35 241 103.7 241 102 241 C102 241.99 102 242.98 102 244 C100.02 244 98.04 244 96 244 C96 244.66 96 245.32 96 246 C94.02 246 92.04 246 90 246 C90 246.99 90 247.98 90 249 C88.812 250.688 88.812 250.688 87 252 C84.312 252.188 84.312 252.188 82 252 C82 252.99 82 253.98 82 255 C81.01 255 80.02 255 79 255 C79 255.99 79 256.98 79 258 C76.36 258 73.72 258 71 258 C71 258.99 71 259.98 71 261 C69.02 261 67.04 261 65 261 C65 261.99 65 262.98 65 264 C63.02 264 61.04 264 59 264 C59 264.66 59 265.32 59 266 C57.02 266 55.04 266 53 266 C53 266.99 53 267.98 53 269 C51.35 269 49.7 269 48 269 C48 269.99 48 270.98 48 272 C46.02 272 44.04 272 42 272 C42 272.99 42 273.98 42 275 C40.35 275 38.7 275 37 275 C37 275.99 37 276.98 37 278 C35.02 278 33.04 278 31 278 C31 279.65 31 281.3 31 283 C29.02 283 27.04 283 25 283 C25 283.99 25 284.98 25 286 C23.02 286 21.04 286 19 286 C19 286.99 19 287.98 19 289 C16.36 289 13.72 289 11 289 C11 289.99 11 290.98 11 292 C9.02 292 7.04 292 5 292 C5 292.99 5 293.98 5 295 C3.35 295 1.7 295 0 295 C0 295.66 0 296.32 0 297 C-0.99 297 -1.98 297 -3 297 C-3 297.99 -3 298.98 -3 300 C-4.98 300 -6.96 300 -9 300 C-9 300.99 -9 301.98 -9 303 C-11.64 303 -14.28 303 -17 303 C-17 305.64 -17 308.28 -17 311 C-16.34 311 -15.68 311 -15 311 C-15 314.96 -15 318.92 -15 323 C-14.01 323 -13.02 323 -12 323 C-12 325.64 -12 328.28 -12 331 C-11.01 331 -10.02 331 -9 331 C-9 344.2 -9 357.4 -9 371 C-9.99 371 -10.98 371 -12 371 C-12 373.64 -12 376.28 -12 379 C-12.99 379 -13.98 379 -15 379 C-15 381.97 -15 384.94 -15 388 C-15.66 388 -16.32 388 -17 388 C-17 389.98 -17 391.96 -17 394 C-17.99 394 -18.98 394 -20 394 C-20 395.65 -20 397.3 -20 399 C-20.99 399 -21.98 399 -23 399 C-23 399.99 -23 400.98 -23 402 C-23.99 402 -24.98 402 -26 402 C-26 402.99 -26 403.98 -26 405 C-26.99 405 -27.98 405 -29 405 C-29 405.99 -29 406.98 -29 408 C-29.66 408 -30.32 408 -31 408 C-31 408.99 -31 409.98 -31 411 C-33.97 411 -36.94 411 -40 411 C-40 412.65 -40 414.3 -40 416 C-50.23 416 -60.46 416 -71 416 C-71 415.34 -71 414.68 -71 414 C-75.62 414 -80.24 414 -85 414 C-85 413.01 -85 412.02 -85 411 C-86.98 411 -88.96 411 -91 411 C-91 410.01 -91 409.02 -91 408 C-92.65 408 -94.3 408 -96 408 C-96 407.01 -96 406.02 -96 405 C-97.98 405 -99.96 405 -102 405 C-102 404.01 -102 403.02 -102 402 C-103.98 402 -105.96 402 -108 402 C-108 401.01 -108 400.02 -108 399 C-109.65 399 -111.3 399 -113 399 C-113 398.34 -113 397.68 -113 397 C-114.98 397 -116.96 397 -119 397 C-119 379.18 -119 361.36 -119 343 C-118.67 343 -118.34 343 -118 343 C-118 357.85 -118 372.7 -118 388 C-116.35 388 -114.7 388 -113 388 C-113 388.99 -113 389.98 -113 391 C-111.35 391 -109.7 391 -108 391 C-108 391.99 -108 392.98 -108 394 C-106.35 394 -104.7 394 -103 394 C-103 394.66 -103 395.32 -103 396 C-100.69 396 -98.38 396 -96 396 C-96 396.99 -96 397.98 -96 399 C-94.02 399 -92.04 399 -90 399 C-90 399.99 -90 400.98 -90 402 C-88.35 402 -86.7 402 -85 402 C-85 402.99 -85 403.98 -85 405 C-75.1 405 -65.2 405 -55 405 C-55 404.01 -55 403.02 -55 402 C-53.02 402 -51.04 402 -49 402 C-49 401.01 -49 400.02 -49 399 C-48.01 399 -47.02 399 -46 399 C-46 398.01 -46 397.02 -46 396 C-44.02 396 -42.04 396 -40 396 C-40 395.01 -40 394.02 -40 393 C-39.01 393 -38.02 393 -37 393 C-37 392.01 -37 391.02 -37 390 C-36.34 390 -35.68 390 -35 390 C-34.67 389.01 -34.34 388.02 -34 387 C-33.34 387 -32.68 387 -32 387 C-32 385.35 -32 383.7 -32 382 C-31.01 382 -30.02 382 -29 382 C-29 381.01 -29 380.02 -29 379 C-28.01 379 -27.02 379 -26 379 C-26 376.36 -26 373.72 -26 371 C-25.01 371 -24.02 371 -23 371 C-23 368.03 -23 365.06 -23 362 C-22.01 362 -21.02 362 -20 362 C-20 353.75 -20 345.5 -20 337 C-20.99 337 -21.98 337 -23 337 C-23 331.39 -23 325.78 -23 320 C-23.99 319.67 -24.98 319.34 -26 319 C-26 312.07 -26 305.14 -26 298 C-26.99 297.67 -27.98 297.34 -29 297 C-29 295.02 -29 293.04 -29 291 C-29.66 291 -30.32 291 -31 291 C-31 287.7 -31 284.4 -31 281 C-30.34 281 -29.68 281 -29 281 C-29 276.38 -29 271.76 -29 267 C-29.66 267 -30.32 267 -31 267 C-31 263.04 -31 259.08 -31 255 C-31.99 255 -32.98 255 -34 255 C-34 252.03 -34 249.06 -34 246 C-34.99 246 -35.98 246 -37 246 C-37 243.36 -37 240.72 -37 238 C-37.99 238 -38.98 238 -40 238 C-40 235.03 -40 232.06 -40 229 C-40.99 229 -41.98 229 -43 229 C-43 226.36 -43 223.72 -43 221 C-43.99 221 -44.98 221 -46 221 C-46 219.02 -46 217.04 -46 215 C-46.99 215 -47.98 215 -49 215 C-49 212.36 -49 209.72 -49 207 C-49.66 207 -50.32 207 -51 207 C-51 204.36 -51 201.72 -51 199 C-51.99 199 -52.98 199 -54 199 C-54 196.03 -54 193.06 -54 190 C-54.99 190 -55.98 190 -57 190 C-57 188.35 -57 186.7 -57 185 C-57.99 185 -58.98 185 -60 185 C-60 181.7 -60 178.4 -60 175 C-60.66 175 -61.32 175 -62 175 C-62 173.35 -62 171.7 -62 170 C-62.99 170 -63.98 170 -65 170 C-65 168.02 -65 166.04 -65 164 C-65.99 164 -66.98 164 -68 164 C-68 161.36 -68 158.72 -68 156 C-68.99 156 -69.98 156 -71 156 C-71 154.02 -71 152.04 -71 150 C-71.99 150 -72.98 150 -74 150 C-74 148.35 -74 146.7 -74 145 C-74.99 144.67 -75.98 144.34 -77 144 C-77 141.36 -77 138.72 -77 136 C-77.99 136 -78.98 136 -80 136 C-80 135.01 -80 134.02 -80 133 C-80.66 133 -81.32 133 -82 133 C-82 130.36 -82 127.72 -82 125 C-82.99 125 -83.98 125 -85 125 C-85 123.02 -85 121.04 -85 119 C-85.99 119 -86.98 119 -88 119 C-88 117.35 -88 115.7 -88 114 C-88.99 114 -89.98 114 -91 114 C-91 112.02 -91 110.04 -91 108 C-91.99 108 -92.98 108 -94 108 C-94 105.03 -94 102.06 -94 99 C-94.66 99 -95.32 99 -96 99 C-96 97.35 -96 95.7 -96 94 C-96.99 94 -97.98 94 -99 94 C-99 92.02 -99 90.04 -99 88 C-99.99 88 -100.98 88 -102 88 C-102 86.02 -102 84.04 -102 82 C-102.99 82 -103.98 82 -105 82 C-105 80.35 -105 78.7 -105 77 C-105.66 77 -106.32 77 -107 77 C-107 76.01 -107 75.02 -107 74 C-105.35 74 -103.7 74 -102 74 C-102 72.02 -102 70.04 -102 68 C-100.02 68 -98.04 68 -96 68 C-96 67.34 -96 66.68 -96 66 C-95.01 66 -94.02 66 -93 66 C-93 65.01 -93 64.02 -93 63 C-92.34 63 -91.68 63 -91 63 C-91 62.01 -91 61.02 -91 60 C-89.35 60 -87.7 60 -86 60 C-86 59.01 -86 58.02 -86 57 C-84.02 57 -82.04 57 -80 57 C-80 56.01 -80 55.02 -80 54 C-78.02 54 -76.04 54 -74 54 C-73.67 53.01 -73.34 52.02 -73 51 C-71.35 51 -69.7 51 -68 51 C-68 50.34 -68 49.68 -68 49 C-66.35 49 -64.7 49 -63 49 C-63 48.01 -63 47.02 -63 46 C-61.02 46 -59.04 46 -57 46 C-57 45.01 -57 44.02 -57 43 C-55.02 43 -53.04 43 -51 43 C-51 42.01 -51 41.02 -51 40 C-49.35 40 -47.7 40 -46 40 C-46 39.01 -46 38.02 -46 37 C-45.01 37 -44.02 37 -43 37 C-43 36.34 -43 35.68 -43 35 C-41.02 34.67 -39.04 34.34 -37 34 C-37 33.34 -37 32.68 -37 32 C-36.196 31.876 -35.391 31.752 -34.562 31.625 C-33.717 31.419 -32.871 31.213 -32 31 C-31.67 30.34 -31.34 29.68 -31 29 C-29.35 29 -27.7 29 -26 29 C-26 28.01 -26 27.02 -26 26 C-24.02 26 -22.04 26 -20 26 C-20 25.01 -20 24.02 -20 23 C-18.35 23 -16.7 23 -15 23 C-15 22.01 -15 21.02 -15 20 C-13.02 20 -11.04 20 -9 20 C-9 19.01 -9 18.02 -9 17 C-7.02 17 -5.04 17 -3 17 C-3 16.34 -3 15.68 -3 15 C-2.34 14.67 -1.68 14.34 -1 14 C-0.53 10.724 -0.53 10.724 -0.375 6.938 C-0.3 5.647 -0.225 4.357 -0.148 3.027 C-0.075 1.529 -0.075 1.529 0 0 Z " fill="#E2C8A4" transform="translate(346,62)"/>
<path d="M0 0 C11.22 0 22.44 0 34 0 C34 0.99 34 1.98 34 3 C36.64 3 39.28 3 42 3 C42 3.99 42 4.98 42 6 C43.98 6 45.96 6 48 6 C48 6.99 48 7.98 48 9 C49.98 9 51.96 9 54 9 C54 9.99 54 10.98 54 12 C55.65 12 57.3 12 59 12 C59 13.65 59 15.3 59 17 C60.98 17 62.96 17 65 17 C65 17.99 65 18.98 65 20 C65.99 20 66.98 20 68 20 C68 20.99 68 21.98 68 23 C68.66 23 69.32 23 70 23 C70 23.99 70 24.98 70 26 C70.99 26 71.98 26 73 26 C74.502 29.003 74.093 31.791 74.062 35.125 C74.053 36.406 74.044 37.688 74.035 39.008 C74.018 40.489 74.018 40.489 74 42 C73.01 42.33 72.02 42.66 71 43 C71 43.66 71 44.32 71 45 C69.02 45 67.04 45 65 45 C65 45.99 65 46.98 65 48 C63.02 48 61.04 48 59 48 C59 48.99 59 49.98 59 51 C57.35 51 55.7 51 54 51 C54 51.99 54 52.98 54 54 C52.02 54 50.04 54 48 54 C48 54.99 48 55.98 48 57 C46.35 57 44.7 57 43 57 C42.67 57.99 42.34 58.98 42 60 C40.35 60 38.7 60 37 60 C37 60.66 37 61.32 37 62 C34.03 62.495 34.03 62.495 31 63 C31 63.66 31 64.32 31 65 C30.01 65 29.02 65 28 65 C28 65.99 28 66.98 28 68 C26.35 68 24.7 68 23 68 C23 68.99 23 69.98 23 71 C21.02 71 19.04 71 17 71 C17 71.99 17 72.98 17 74 C15.02 74 13.04 74 11 74 C11 74.99 11 75.98 11 77 C9.35 77 7.7 77 6 77 C6 77.66 6 78.32 6 79 C5.196 79.124 4.391 79.248 3.562 79.375 C2.294 79.684 2.294 79.684 1 80 C0.67 80.66 0.34 81.32 0 82 C-1.98 82 -3.96 82 -6 82 C-6 82.99 -6 83.98 -6 85 C-7.98 85 -9.96 85 -12 85 C-12 85.99 -12 86.98 -12 88 C-13.65 88 -15.3 88 -17 88 C-17 88.99 -17 89.98 -17 91 C-17.66 91 -18.32 91 -19 91 C-19 91.99 -19 92.98 -19 94 C-19.99 94 -20.98 94 -22 94 C-22 94.66 -22 95.32 -22 96 C-23.98 96 -25.96 96 -28 96 C-28 97.98 -28 99.96 -28 102 C-29.65 102 -31.3 102 -33 102 C-33.33 102.66 -33.66 103.32 -34 104 C-34 103.01 -34 102.02 -34 101 C-34.66 101 -35.32 101 -36 101 C-36 99.35 -36 97.7 -36 96 C-36.99 96 -37.98 96 -39 96 C-43 91.657 -43 91.657 -43 89 C-43.66 89 -44.32 89 -45 89 C-45 87.68 -45 86.36 -45 85 C-45.66 85 -46.32 85 -47 85 C-47.928 84.041 -47.928 84.041 -48.875 83.062 C-51.114 80.889 -52.101 80.7 -55 80 C-55.33 79.01 -55.66 78.02 -56 77 C-56.99 76.67 -57.98 76.34 -59 76 C-59 75.01 -59 74.02 -59 73 C-59.99 73 -60.98 73 -62 73 C-62 72.34 -62 71.68 -62 71 C-63.65 71 -65.3 71 -67 71 C-67 70.01 -67 69.02 -67 68 C-68.65 68 -70.3 68 -72 68 C-72 67.01 -72 66.02 -72 65 C-74.97 65 -77.94 65 -81 65 C-81.495 63.515 -81.495 63.515 -82 62 C-84.64 62 -87.28 62 -90 62 C-90 61.01 -90 60.02 -90 59 C-95.61 59 -101.22 59 -107 59 C-107 58.34 -107 57.68 -107 57 C-104.03 57 -101.06 57 -98 57 C-98 55.02 -98 53.04 -98 51 C-96.35 51 -94.7 51 -93 51 C-93 50.01 -93 49.02 -93 48 C-90.03 48 -87.06 48 -84 48 C-84 47.01 -84 46.02 -84 45 C-83.34 45 -82.68 45 -82 45 C-82 44.34 -82 43.68 -82 43 C-80.02 43 -78.04 43 -76 43 C-76 42.01 -76 41.02 -76 40 C-74.35 40 -72.7 40 -71 40 C-71 39.01 -71 38.02 -71 37 C-69.02 37 -67.04 37 -65 37 C-65 36.01 -65 35.02 -65 34 C-63.02 34 -61.04 34 -59 34 C-59 33.34 -59 32.68 -59 32 C-57.02 32 -55.04 32 -53 32 C-53 31.01 -53 30.02 -53 29 C-52.34 29 -51.68 29 -51 29 C-51 28.01 -51 27.02 -51 26 C-49.02 26 -47.04 26 -45 26 C-45 25.01 -45 24.02 -45 23 C-43.35 23 -41.7 23 -40 23 C-40 22.01 -40 21.02 -40 20 C-38.02 20 -36.04 20 -34 20 C-34 19.01 -34 18.02 -34 17 C-32.02 17 -30.04 17 -28 17 C-28 16.01 -28 15.02 -28 14 C-26.02 14 -24.04 14 -22 14 C-22 13.01 -22 12.02 -22 11 C-20.35 11 -18.7 11 -17 11 C-17 10.01 -17 9.02 -17 8 C-15.35 8 -13.7 8 -12 8 C-12 7.34 -12 6.68 -12 6 C-10.68 6 -9.36 6 -8 6 C-8 5.01 -8 4.02 -8 3 C-5.36 3 -2.72 3 0 3 C0 2.01 0 1.02 0 0 Z " fill="#F5E3C5" transform="translate(272,34)"/>
<path d="M0 0 C1.65 0 3.3 0 5 0 C5 0.66 5 1.32 5 2 C6.65 2 8.3 2 10 2 C10 2.99 10 3.98 10 5 C11.65 5 13.3 5 15 5 C15 5.66 15 6.32 15 7 C16.65 7 18.3 7 20 7 C20.33 7.99 20.66 8.98 21 10 C22.32 10 23.64 10 25 10 C25 10.66 25 11.32 25 12 C26.98 12 28.96 12 31 12 C31 12.99 31 13.98 31 15 C32.98 15 34.96 15 37 15 C37 15.99 37 16.98 37 18 C38.98 18 40.96 18 43 18 C43 18.99 43 19.98 43 21 C43.66 21 44.32 21 45 21 C45 37.83 45 54.66 45 72 C42.36 72 39.72 72 37 72 C37 73.98 37 75.96 37 78 C35.02 78 33.04 78 31 78 C31 77.01 31 76.02 31 75 C28.69 75 26.38 75 24 75 C24 74.01 24 73.02 24 72 C22.02 72 20.04 72 18 72 C18 71.01 18 70.02 18 69 C16.35 69 14.7 69 13 69 C13 68.34 13 67.68 13 67 C11.35 67 9.7 67 8 67 C8 66.01 8 65.02 8 64 C6.35 64 4.7 64 3 64 C3 63.01 3 62.02 3 61 C1.02 61 -0.96 61 -3 61 C-3 60.01 -3 59.02 -3 58 C-4.98 58 -6.96 58 -9 58 C-9 41.17 -9 24.34 -9 7 C-6.03 7 -3.06 7 0 7 C0 4.69 0 2.38 0 0 Z " fill="#181620" transform="translate(103,225)"/>
<path d="M0 0 C2.31 0 4.62 0 7 0 C7 0.66 7 1.32 7 2 C9.64 2 12.28 2 15 2 C15 2.99 15 3.98 15 5 C16.98 5 18.96 5 21 5 C21 5.99 21 6.98 21 8 C22.98 8 24.96 8 27 8 C27 8.99 27 9.98 27 11 C28.65 11 30.3 11 32 11 C32 11.99 32 12.98 32 14 C33.98 14 35.96 14 38 14 C38 14.99 38 15.98 38 17 C39.32 17 40.64 17 42 17 C42 17.66 42 18.32 42 19 C42.99 19 43.98 19 45 19 C45 36.16 45 53.32 45 71 C41.7 71 38.4 71 35 71 C35 72.98 35 74.96 35 77 C33.02 77 31.04 77 29 77 C29 76.01 29 75.02 29 74 C27.35 74 25.7 74 24 74 C24 73.01 24 72.02 24 71 C22.02 71 20.04 71 18 71 C18 70.01 18 69.02 18 68 C16.35 68 14.7 68 13 68 C13 67.01 13 66.02 13 65 C11.02 65 9.04 65 7 65 C7 64.01 7 63.02 7 62 C4.69 62 2.38 62 0 62 C0 61.01 0 60.02 0 59 C-1.65 59 -3.3 59 -5 59 C-5 58.01 -5 57.02 -5 56 C-5.99 56 -6.98 56 -8 56 C-8 39.17 -8 22.34 -8 5 C-5.36 5 -2.72 5 0 5 C0 3.35 0 1.7 0 0 Z " fill="#191721" transform="translate(209,272)"/>
<path d="M0 0 C3.63 0 7.26 0 11 0 C11 1.65 11 3.3 11 5 C12.98 5 14.96 5 17 5 C17 5.99 17 6.98 17 8 C19.97 8.33 22.94 8.66 26 9 C26 9.66 26 10.32 26 11 C26.99 11 27.98 11 29 11 C29 11.99 29 12.98 29 14 C29.99 14 30.98 14 32 14 C32 14.66 32 15.32 32 16 C32.66 16 33.32 16 34 16 C34 21.94 34 27.88 34 34 C32.02 34.495 32.02 34.495 30 35 C30 35.66 30 36.32 30 37 C28.68 37 27.36 37 26 37 C26 37.66 26 38.32 26 39 C23.03 39 20.06 39 17 39 C17 38.01 17 37.02 17 36 C14.03 35.67 11.06 35.34 8 35 C8 34.01 8 33.02 8 32 C6.02 32 4.04 32 2 32 C2 31.34 2 30.68 2 30 C0.35 30 -1.3 30 -3 30 C-3 28.68 -3 27.36 -3 26 C-3.99 26 -4.98 26 -6 26 C-6 24.68 -6 23.36 -6 22 C-6.66 22 -7.32 22 -8 22 C-8 16.72 -8 11.44 -8 6 C-7.34 6 -6.68 6 -6 6 C-5.67 4.68 -5.34 3.36 -5 2 C-3.35 2 -1.7 2 0 2 C0 1.34 0 0.68 0 0 Z " fill="#F9AAA3" transform="translate(227,349)"/>
<path d="M0 0 C1.281 0.009 2.563 0.018 3.883 0.027 C4.87 0.039 5.858 0.051 6.875 0.062 C6.875 1.053 6.875 2.043 6.875 3.062 C8.855 3.062 10.835 3.062 12.875 3.062 C12.875 3.723 12.875 4.382 12.875 5.062 C15.515 5.062 18.155 5.062 20.875 5.062 C20.875 6.053 20.875 7.043 20.875 8.062 C21.865 8.062 22.855 8.062 23.875 8.062 C23.875 9.053 23.875 10.043 23.875 11.062 C24.535 11.062 25.195 11.062 25.875 11.062 C25.875 12.053 25.875 13.043 25.875 14.062 C26.865 14.062 27.855 14.062 28.875 14.062 C28.875 20.663 28.875 27.262 28.875 34.062 C27.555 34.062 26.235 34.062 24.875 34.062 C24.875 35.053 24.875 36.043 24.875 37.062 C20.915 37.062 16.955 37.062 12.875 37.062 C12.875 36.072 12.875 35.082 12.875 34.062 C9.905 34.062 6.935 34.062 3.875 34.062 C3.875 33.072 3.875 32.082 3.875 31.062 C2.225 31.062 0.575 31.062 -1.125 31.062 C-1.125 30.072 -1.125 29.082 -1.125 28.062 C-3.105 28.062 -5.085 28.062 -7.125 28.062 C-7.125 27.072 -7.125 26.082 -7.125 25.062 C-7.785 25.062 -8.445 25.062 -9.125 25.062 C-9.125 24.072 -9.125 23.082 -9.125 22.062 C-10.115 22.062 -11.105 22.062 -12.125 22.062 C-12.125 15.793 -12.125 9.522 -12.125 3.062 C-11.135 3.062 -10.145 3.062 -9.125 3.062 C-9.125 2.402 -9.125 1.743 -9.125 1.062 C-6.122 -0.439 -3.334 -0.03 0 0 Z " fill="#F9A9A3" transform="translate(90.125,288.9375)"/>
<path d="M0 0 C2.97 0 5.94 0 9 0 C9 0.99 9 1.98 9 3 C10.98 3 12.96 3 15 3 C15 3.99 15 4.98 15 6 C16.65 6 18.3 6 20 6 C20 6.99 20 7.98 20 9 C21.98 9 23.96 9 26 9 C26 9.99 26 10.98 26 12 C27.65 12 29.3 12 31 12 C31 12.99 31 13.98 31 15 C32.98 15 34.96 15 37 15 C37 15.99 37 16.98 37 18 C38.65 18 40.3 18 42 18 C42 18.66 42 19.32 42 20 C43.98 20 45.96 20 48 20 C48 20.99 48 21.98 48 23 C49.65 23 51.3 23 53 23 C53 23.99 53 24.98 53 26 C54.98 26 56.96 26 59 26 C59 26.99 59 27.98 59 29 C60.98 29 62.96 29 65 29 C65 29.99 65 30.98 65 32 C66.65 32 68.3 32 70 32 C70 32.66 70 33.32 70 34 C71.98 34 73.96 34 76 34 C76 34.99 76 35.98 76 37 C76.99 37 77.98 37 79 37 C79 37.99 79 38.98 79 40 C80.98 40 82.96 40 85 40 C85 40.99 85 41.98 85 43 C86.65 43 88.3 43 90 43 C90 43.99 90 44.98 90 46 C91.98 46 93.96 46 96 46 C96 46.99 96 47.98 96 49 C97.65 49 99.3 49 101 49 C101 49.99 101 50.98 101 52 C101.99 52 102.98 52 104 52 C104 52.66 104 53.32 104 54 C101.36 54 98.72 54 96 54 C96 53.01 96 52.02 96 51 C94.02 51 92.04 51 90 51 C90 50.34 90 49.68 90 49 C88.02 49 86.04 49 84 49 C84 48.01 84 47.02 84 46 C82.515 45.505 82.515 45.505 81 45 C81 44.34 81 43.68 81 43 C79.35 43 77.7 43 76 43 C76 42.01 76 41.02 76 40 C74.35 40 72.7 40 71 40 C71 39.01 71 38.02 71 37 C69.02 37 67.04 37 65 37 C65 36.01 65 35.02 65 34 C64.299 34.041 63.597 34.082 62.875 34.125 C59.616 33.983 57.044 33.133 54 32 C54 31.01 54 30.02 54 29 C52.02 29 50.04 29 48 29 C48 28.01 48 27.02 48 26 C46.02 26 44.04 26 42 26 C42 25.01 42 24.02 42 23 C40.35 23 38.7 23 37 23 C37 22.01 37 21.02 37 20 C35.02 20 33.04 20 31 20 C31 19.34 31 18.68 31 18 C29.35 18 27.7 18 26 18 C25.67 17.34 25.34 16.68 25 16 C22.473 15.344 22.473 15.344 20 15 C20 14.01 20 13.02 20 12 C18.02 12 16.04 12 14 12 C14 11.01 14 10.02 14 9 C12.35 9 10.7 9 9 9 C9 8.01 9 7.02 9 6 C8.01 6 7.02 6 6 6 C6 18.21 6 30.42 6 43 C5.01 43 4.02 43 3 43 C3 42.01 3 41.02 3 40 C2.01 40 1.02 40 0 40 C0 26.8 0 13.6 0 0 Z " fill="#4B5740" transform="translate(114,359)"/>
<path d="M0 0 C0.66 0 1.32 0 2 0 C2.361 4.449 2.361 4.449 0.812 6.812 C-1.56 8.367 -3.22 8.225 -6 8 C-6 8.99 -6 9.98 -6 11 C-7.98 11 -9.96 11 -12 11 C-12 11.99 -12 12.98 -12 14 C-13.98 14 -15.96 14 -18 14 C-18 14.66 -18 15.32 -18 16 C-18.66 16 -19.32 16 -20 16 C-20 16.99 -20 17.98 -20 19 C-21.98 19 -23.96 19 -26 19 C-26 19.99 -26 20.98 -26 22 C-27.98 22 -29.96 22 -32 22 C-32 22.99 -32 23.98 -32 25 C-32.66 25 -33.32 25 -34 25 C-34 25.99 -34 26.98 -34 28 C-35.98 28 -37.96 28 -40 28 C-40 28.99 -40 29.98 -40 31 C-41.98 31 -43.96 31 -46 31 C-46 31.66 -46 32.32 -46 33 C-47.65 33 -49.3 33 -51 33 C-51 34.32 -51 35.64 -51 37 C-52.98 37 -54.96 37 -57 37 C-57 37.66 -57 38.32 -57 39 C-58.98 39 -60.96 39 -63 39 C-63 39.99 -63 40.98 -63 42 C-64.65 42 -66.3 42 -68 42 C-68 42.99 -68 43.98 -68 45 C-68.99 45 -69.98 45 -71 45 C-71 45.66 -71 46.32 -71 47 C-72.98 47 -74.96 47 -77 47 C-77 47.99 -77 48.98 -77 50 C-78.98 50 -80.96 50 -83 50 C-83 50.99 -83 51.98 -83 53 C-84.65 53 -86.3 53 -88 53 C-88 53.99 -88 54.98 -88 56 C-89.98 56 -91.96 56 -94 56 C-94 56.99 -94 57.98 -94 59 C-96.97 59.495 -96.97 59.495 -100 60 C-100 60.66 -100 61.32 -100 62 C-102.31 62 -104.62 62 -107 62 C-107 60.35 -107 58.7 -107 57 C-104.525 56.505 -104.525 56.505 -102 56 C-102 55.01 -102 54.02 -102 53 C-100.35 53 -98.7 53 -97 53 C-97 52.01 -97 51.02 -97 50 C-95.02 50 -93.04 50 -91 50 C-91 49.01 -91 48.02 -91 47 C-89.35 47 -87.7 47 -86 47 C-86 46.34 -86 45.68 -86 45 C-84.02 45 -82.04 45 -80 45 C-80 44.01 -80 43.02 -80 42 C-77.03 42 -74.06 42 -71 42 C-71 40.02 -71 38.04 -71 36 C-69.35 36 -67.7 36 -66 36 C-66 35.34 -66 34.68 -66 34 C-64.02 34 -62.04 34 -60 34 C-60 33.01 -60 32.02 -60 31 C-58.02 31 -56.04 31 -54 31 C-54 30.01 -54 29.02 -54 28 C-52.35 28 -50.7 28 -49 28 C-49 27.01 -49 26.02 -49 25 C-47.02 25 -45.04 25 -43 25 C-43 24.01 -43 23.02 -43 22 C-41.02 22 -39.04 22 -37 22 C-37 21.01 -37 20.02 -37 19 C-35.02 19 -33.04 19 -31 19 C-31 18.01 -31 17.02 -31 16 C-29.35 16 -27.7 16 -26 16 C-26 15.34 -26 14.68 -26 14 C-24.02 14 -22.04 14 -20 14 C-20 13.01 -20 12.02 -20 11 C-18.35 11 -16.7 11 -15 11 C-15 10.01 -15 9.02 -15 8 C-13.02 8 -11.04 8 -9 8 C-9 7.34 -9 6.68 -9 6 C-8.01 6 -7.02 6 -6 6 C-6 5.01 -6 4.02 -6 3 C-4.02 3 -2.04 3 0 3 C0 2.01 0 1.02 0 0 Z " fill="#48553D" transform="translate(448,312)"/>
<path d="M0 0 C2.64 0 5.28 0 8 0 C8 0.66 8 1.32 8 2 C9.32 2 10.64 2 12 2 C12 5.96 12 9.92 12 14 C12.66 14 13.32 14 14 14 C14 14.99 14 15.98 14 17 C16.64 17 19.28 17 22 17 C22 17.99 22 18.98 22 20 C23.65 20 25.3 20 27 20 C27 20.99 27 21.98 27 23 C29.97 23 32.94 23 36 23 C36 20.03 36 17.06 36 14 C39.63 14 43.26 14 47 14 C47 18.62 47 23.24 47 28 C44.36 28 41.72 28 39 28 C39 30.31 39 32.62 39 35 C36.03 35 33.06 35 30 35 C30 34.01 30 33.02 30 32 C28.02 32 26.04 32 24 32 C24 31.01 24 30.02 24 29 C21.69 29 19.38 29 17 29 C17 28.01 17 27.02 17 26 C15.02 26 13.04 26 11 26 C11 25.01 11 24.02 11 23 C10.01 23 9.02 23 8 23 C8 20.03 8 17.06 8 14 C5.36 14 2.72 14 0 14 C0 9.38 0 4.76 0 0 Z " fill="#1B191F" transform="translate(148,323)"/>
<path d="M0 0 C0.33 0.66 0.66 1.32 1 2 C1.99 2.33 2.98 2.66 4 3 C4 6.3 4 9.6 4 13 C5.65 13.33 7.3 13.66 9 14 C9 15.98 9 17.96 9 20 C9.99 20 10.98 20 12 20 C12 21.65 12 23.3 12 25 C12.99 25 13.98 25 15 25 C15 25.66 15 26.32 15 27 C15.66 27 16.32 27 17 27 C17 28.32 17 29.64 17 31 C17.99 31 18.98 31 20 31 C20 31.66 20 32.32 20 33 C20.99 33 21.98 33 23 33 C23 33.99 23 34.98 23 36 C23.99 36 24.98 36 26 36 C26 36.99 26 37.98 26 39 C26.99 39 27.98 39 29 39 C29 39.99 29 40.98 29 42 C29.99 42 30.98 42 32 42 C32 42.99 32 43.98 32 45 C33.65 45 35.3 45 37 45 C37 45.99 37 46.98 37 48 C37.99 48 38.98 48 40 48 C40 48.99 40 49.98 40 51 C41.98 51 43.96 51 46 51 C46 51.66 46 52.32 46 53 C46.66 53 47.32 53 48 53 C48 53.99 48 54.98 48 56 C49.98 56 51.96 56 54 56 C54 56.99 54 57.98 54 59 C56.64 59 59.28 59 62 59 C62 48.77 62 38.54 62 28 C62.33 28 62.66 28 63 28 C63 41.2 63 54.4 63 68 C61.02 68 59.04 68 57 68 C57 67.01 57 66.02 57 65 C55.02 65 53.04 65 51 65 C51 64.01 51 63.02 51 62 C49.02 62 47.04 62 45 62 C45 61.01 45 60.02 45 59 C43.35 59 41.7 59 40 59 C40 58.01 40 57.02 40 56 C38.02 56 36.04 56 34 56 C34 55.01 34 54.02 34 53 C33.34 53 32.68 53 32 53 C32 52.01 32 51.02 32 50 C30.02 50 28.04 50 26 50 C26 49.01 26 48.02 26 47 C25.01 47 24.02 47 23 47 C23 46.34 23 45.68 23 45 C22.01 45 21.02 45 20 45 C20 44.01 20 43.02 20 42 C19.01 42 18.02 42 17 42 C17 40.02 17 38.04 17 36 C16.34 36 15.68 36 15 36 C15 35.01 15 34.02 15 33 C14.01 33 13.02 33 12 33 C12 32.34 12 31.68 12 31 C11.01 31 10.02 31 9 31 C9 29.02 9 27.04 9 25 C8.01 25 7.02 25 6 25 C6 23.02 6 21.04 6 19 C5.01 19 4.02 19 3 19 C3 16.36 3 13.72 3 11 C2.01 11 1.02 11 0 11 C0 7.37 0 3.74 0 0 Z " fill="#D7C3A4" transform="translate(46,326)"/>
<path d="M0 0 C1.98 0 3.96 0 6 0 C6 0.99 6 1.98 6 3 C7.98 3 9.96 3 12 3 C12 3.99 12 4.98 12 6 C13.65 6 15.3 6 17 6 C17 12.27 17 18.54 17 25 C16.34 25 15.68 25 15 25 C15 24.34 15 23.68 15 23 C12.03 23 9.06 23 6 23 C6 22.01 6 21.02 6 20 C4.02 20 2.04 20 0 20 C0 13.4 0 6.8 0 0 Z " fill="#F2F2F2" transform="translate(210,283)"/>
<path d="M0 0 C1.65 0 3.3 0 5 0 C5 0.99 5 1.98 5 3 C6.65 3 8.3 3 10 3 C10 3.99 10 4.98 10 6 C12.31 6 14.62 6 17 6 C17 11.94 17 17.88 17 24 C14.69 24 12.38 24 10 24 C10 23.01 10 22.02 10 21 C8.35 21 6.7 21 5 21 C5 20.01 5 19.02 5 18 C3.35 18 1.7 18 0 18 C0 12.06 0 6.12 0 0 Z " fill="#F7F7F7" transform="translate(104,237)"/>
<path d="M0 0 C2.97 0 5.94 0 9 0 C9.66 2.64 10.32 5.28 11 8 C12.32 8 13.64 8 15 8 C15 11.96 15 15.92 15 20 C12.03 20 9.06 20 6 20 C6 19.01 6 18.02 6 17 C5.01 16.67 4.02 16.34 3 16 C3 14.35 3 12.7 3 11 C2.01 11 1.02 11 0 11 C0 7.37 0 3.74 0 0 Z " fill="#FDFDF8" transform="translate(63,320)"/>
<path d="M0 0 C0 2.64 0 5.28 0 8 C-0.99 8 -1.98 8 -3 8 C-3 9.98 -3 11.96 -3 14 C-4.32 14 -5.64 14 -7 14 C-7.33 14.99 -7.66 15.98 -8 17 C-10.97 17 -13.94 17 -17 17 C-17 13.37 -17 9.74 -17 6 C-15.68 5.67 -14.36 5.34 -13 5 C-12.67 4.34 -12.34 3.68 -12 3 C-11.01 2.67 -10.02 2.34 -9 2 C-8.67 1.34 -8.34 0.68 -8 0 C-4.71 -1.097 -3.287 -0.8 0 0 Z " fill="#FDFDF7" transform="translate(289,419)"/>
<path d="M0 0 C2.97 0 5.94 0 9 0 C9 0.99 9 1.98 9 3 C9.99 3 10.98 3 12 3 C12 3.99 12 4.98 12 6 C12.99 6 13.98 6 15 6 C15 6.66 15 7.32 15 8 C15.99 8 16.98 8 18 8 C18 10.31 18 12.62 18 15 C14.04 15 10.08 15 6 15 C6 14.01 6 13.02 6 12 C5.01 12 4.02 12 3 12 C3 11.01 3 10.02 3 9 C2.01 9 1.02 9 0 9 C0 6.03 0 3.06 0 0 Z " fill="#EEEADF" transform="translate(277,147)"/>
<path d="M0 0 C2.64 0 5.28 0 8 0 C8 0.99 8 1.98 8 3 C9.32 3 10.64 3 12 3 C12 3.99 12 4.98 12 6 C12.66 6 13.32 6 14 6 C14 6.99 14 7.98 14 9 C14.99 9 15.98 9 17 9 C17 11.64 17 14.28 17 17 C14.03 17 11.06 17 8 17 C8 16.01 8 15.02 8 14 C7.34 14 6.68 14 6 14 C6 13.01 6 12.02 6 11 C5.01 11 4.02 11 3 11 C3 10.01 3 9.02 3 8 C2.01 8 1.02 8 0 8 C0 5.36 0 2.72 0 0 Z " fill="#EFECE2" transform="translate(405,249)"/>
<path d="M0 0 C2.64 0 5.28 0 8 0 C8 0.66 8 1.32 8 2 C9.32 2 10.64 2 12 2 C12 5.96 12 9.92 12 14 C11.01 14 10.02 14 9 14 C9 16.64 9 19.28 9 22 C9.99 22 10.98 22 12 22 C12 22.99 12 23.98 12 25 C13.65 25 15.3 25 17 25 C17 25.33 17 25.66 17 26 C15.02 26 13.04 26 11 26 C11 25.01 11 24.02 11 23 C10.01 23 9.02 23 8 23 C8 20.03 8 17.06 8 14 C5.36 14 2.72 14 0 14 C0 9.38 0 4.76 0 0 Z " fill="#2E2C2F" transform="translate(148,323)"/>
<path d="M0 0 C1.65 0 3.3 0 5 0 C5 0.99 5 1.98 5 3 C5.99 3 6.98 3 8 3 C8 7.62 8 12.24 8 17 C7.01 17 6.02 17 5 17 C5 17.99 5 18.98 5 20 C3.35 20 1.7 20 0 20 C0 18.02 0 16.04 0 14 C-0.99 14 -1.98 14 -3 14 C-3 10.37 -3 6.74 -3 3 C-2.01 3 -1.02 3 0 3 C0 2.01 0 1.02 0 0 Z " fill="#F1EEE4" transform="translate(346,294)"/>
<path d="M0 0 C1.98 0 3.96 0 6 0 C6 0.99 6 1.98 6 3 C6.66 3 7.32 3 8 3 C8 6.63 8 10.26 8 14 C7.01 14 6.02 14 5 14 C5 14.99 5 15.98 5 17 C4.34 17 3.68 17 3 17 C3 17.99 3 18.98 3 20 C1.02 20 -0.96 20 -3 20 C-3 15.38 -3 10.76 -3 6 C-2.01 6 -1.02 6 0 6 C0 4.02 0 2.04 0 0 Z " fill="#EFEDE4" transform="translate(357,144)"/>
<path d="M0 0 C2.97 0 5.94 0 9 0 C9 3.63 9 7.26 9 11 C8.01 11.33 7.02 11.66 6 12 C5.67 12.66 5.34 13.32 5 14 C2.351 14.594 -0.292 14.742 -3 15 C-3 13.68 -3 12.36 -3 11 C-3.66 11 -4.32 11 -5 11 C-5.366 6.483 -5.366 6.483 -3.625 4.188 C-2 3 -2 3 0 3 C0 2.01 0 1.02 0 0 Z " fill="#FEFEF9" transform="translate(134,170)"/>
<path d="M0 0 C1.98 0 3.96 0 6 0 C6 0.99 6 1.98 6 3 C7.65 3 9.3 3 11 3 C11 6.63 11 10.26 11 14 C9.35 14 7.7 14 6 14 C6 13.34 6 12.68 6 12 C4.02 12 2.04 12 0 12 C0 8.04 0 4.08 0 0 Z " fill="#F6F6F6" transform="translate(126,274)"/>
<path d="M0 0 C1.65 0 3.3 0 5 0 C5 0.99 5 1.98 5 3 C6.98 3 8.96 3 11 3 C11 6.63 11 10.26 11 14 C8.69 14 6.38 14 4 14 C4 13.01 4 12.02 4 11 C2.68 11 1.36 11 0 11 C0 7.37 0 3.74 0 0 Z " fill="#FAFAFA" transform="translate(233,320)"/>
<path d="M0 0 C0.99 0 1.98 0 3 0 C3 1.32 3 2.64 3 4 C2.34 4 1.68 4 1 4 C1.062 4.928 1.124 5.856 1.188 6.812 C1 10 1 10 -0.375 11.875 C-2 13 -2 13 -4 13 C-4.33 14.65 -4.66 16.3 -5 18 C-5.99 18 -6.98 18 -8 18 C-8 19.65 -8 21.3 -8 23 C-8.99 23 -9.98 23 -11 23 C-11 24.65 -11 26.3 -11 28 C-11.99 27.67 -12.98 27.34 -14 27 C-14 25.35 -14 23.7 -14 22 C-12.667 21.333 -11.333 20.667 -10 20 C-10.33 18.68 -10.66 17.36 -11 16 C-10.34 15.67 -9.68 15.34 -9 15 C-8.691 14.381 -8.381 13.762 -8.062 13.125 C-6.965 10.929 -5.799 9.643 -4 8 C-2.827 7.003 -2.827 7.003 -2.562 5.125 C-2 3 -2 3 0 0 Z " fill="#868588" transform="translate(69,195)"/>
<path d="M0 0 C7.332 -0.051 14.665 -0.086 21.997 -0.11 C24.492 -0.12 26.987 -0.134 29.481 -0.151 C33.066 -0.175 36.65 -0.186 40.234 -0.195 C41.351 -0.206 42.468 -0.216 43.619 -0.227 C44.659 -0.227 45.7 -0.227 46.772 -0.227 C47.687 -0.231 48.602 -0.236 49.545 -0.241 C52.167 0.016 53.742 0.683 56 2 C56.66 2.33 57.32 2.66 58 3 C61.123 4.562 64.087 6.058 67 8 C62.31 9.117 59.462 8.806 55 7 C55 6.01 55 5.02 55 4 C53.02 4 51.04 4 49 4 C49 3.01 49 2.02 49 1 C32.83 1 16.66 1 0 1 C0 0.67 0 0.34 0 0 Z " fill="#4D4D50" transform="translate(265,22)"/>
<path d="M0 0 C3.63 0 7.26 0 11 0 C11.33 0.99 11.66 1.98 12 3 C13.65 3 15.3 3 17 3 C17 3.99 17 4.98 17 6 C18.65 5.67 20.3 5.34 22 5 C22.33 6.32 22.66 7.64 23 9 C24.65 9 26.3 9 28 9 C28 9.99 28 10.98 28 12 C26.02 12 24.04 12 22 12 C21.67 11.34 21.34 10.68 21 10 C20.175 9.835 19.35 9.67 18.5 9.5 C17.675 9.335 16.85 9.17 16 9 C15.67 8.34 15.34 7.68 15 7 C11.821 4.998 8.687 4.503 5 4 C5 3.34 5 2.68 5 2 C3.35 1.67 1.7 1.34 0 1 C0 0.67 0 0.34 0 0 Z " fill="#828184" transform="translate(89,404)"/>
<path d="M0 0 C1.887 0.031 1.887 0.031 3.812 0.062 C3.173 0.351 2.534 0.64 1.875 0.938 C-0.34 1.891 -0.34 1.891 -1.188 4.062 C-2.838 4.062 -4.488 4.062 -6.188 4.062 C-6.188 5.052 -6.188 6.043 -6.188 7.062 C-6.992 7.186 -7.796 7.31 -8.625 7.438 C-9.471 7.644 -10.316 7.85 -11.188 8.062 C-11.518 8.722 -11.847 9.382 -12.188 10.062 C-13.838 10.062 -15.488 10.062 -17.188 10.062 C-17.518 11.052 -17.847 12.043 -18.188 13.062 C-21.157 13.062 -24.127 13.062 -27.188 13.062 C-27.188 12.733 -27.188 12.403 -27.188 12.062 C-25.208 11.733 -23.227 11.403 -21.188 11.062 C-21.188 10.403 -21.188 9.743 -21.188 9.062 C-18.493 6.368 -15.829 6.067 -12.188 5.062 C-8.995 3.806 -8.995 3.806 -7.188 1.062 C-4.437 0.146 -2.828 -0.046 0 0 Z " fill="#89898A" transform="translate(180.1875,66.9375)"/>
<path d="M0 0 C2.31 0 4.62 0 7 0 C7 0.99 7 1.98 7 3 C6.257 3.124 5.515 3.248 4.75 3.375 C1.187 4.185 -1.229 5.411 -4.125 7.625 C-6 9 -6 9 -8 9 C-8 9.66 -8 10.32 -8 11 C-11.734 11.879 -15.168 12.089 -19 12 C-19 11.67 -19 11.34 -19 11 C-17.35 11 -15.7 11 -14 11 C-14 10.01 -14 9.02 -14 8 C-12.02 7.67 -10.04 7.34 -8 7 C-8 6.34 -8 5.68 -8 5 C-7.01 5 -6.02 5 -5 5 C-5 4.01 -5 3.02 -5 2 C-3.35 2 -1.7 2 0 2 C0 1.34 0 0.68 0 0 Z " fill="#9C9C9F" transform="translate(441,422)"/>
<path d="M0 0 C0 0.66 0 1.32 0 2 C2.64 2 5.28 2 8 2 C8 2.99 8 3.98 8 5 C9.65 5 11.3 5 13 5 C13 5.99 13 6.98 13 8 C14.98 8 16.96 8 19 8 C19 8.99 19 9.98 19 11 C20.65 11 22.3 11 24 11 C24 11.33 24 11.66 24 12 C15.493 12.284 15.493 12.284 12 10 C11.34 9.67 10.68 9.34 10 9 C9.01 8.34 8.02 7.68 7 7 C4.835 5.778 4.835 5.778 1.438 5.562 C0.303 5.377 -0.831 5.191 -2 5 C-2.667 3.667 -3.333 2.333 -4 1 C-2 0 -2 0 0 0 Z " fill="#6A696B" transform="translate(132,422)"/>
<path d="M0 0 C0.33 0 0.66 0 1 0 C1 18.81 1 37.62 1 57 C0.67 57 0.34 57 0 57 C0 38.19 0 19.38 0 0 Z " fill="#7F7C7F" transform="translate(481,320)"/>
<path d="M0 0 C17.82 0 35.64 0 54 0 C54 0.33 54 0.66 54 1 C36.18 1 18.36 1 0 1 C0 0.67 0 0.34 0 0 Z " fill="#555555" transform="translate(263,491)"/>
<path d="M0 0 C17.16 0 34.32 0 52 0 C52 0.33 52 0.66 52 1 C34.84 1 17.68 1 0 1 C0 0.67 0 0.34 0 0 Z " fill="#110D45" transform="translate(263,20)"/>
<path d="M0 0 C0.33 0 0.66 0 1 0 C1 15.18 1 30.36 1 46 C0.67 46 0.34 46 0 46 C0 30.82 0 15.64 0 0 Z " fill="#0B0351" transform="translate(30,280)"/>
<path d="M0 0 C4 1 4 1 4 1 Z " fill="#2A2A2A" transform="translate(192,457)"/>
<path d="M0 0 C4 1 4 1 4 1 Z " fill="#3A3A4A" transform="translate(404,446)"/>
<path d="" fill="#2A2A2A" transform="translate(0,0)"/>
<path d="M0 0 C2 1 2 1 2 1 Z " fill="#3F3F3F" transform="translate(198,460)"/>
<path d="" fill="#2A2A2A" transform="translate(0,0)"/>
<path d="" fill="#FFFFFF" transform="translate(0,0)"/>
<path d="" fill="#FFFFFF" transform="translate(0,0)"/>
<path d="" fill="#FFFFFF" transform="translate(0,0)"/>
<path d="" fill="#000000" transform="translate(0,0)"/>
<path d="" fill="#000000" transform="translate(0,0)"/>
<path d="" fill="#FFFFFF" transform="translate(0,0)"/>
<path d="" fill="#FFFFAA" transform="translate(0,0)"/>
<path d="" fill="#FFFFFF" transform="translate(0,0)"/>
<path d="" fill="#AAAAAA" transform="translate(0,0)"/>
<path d="" fill="#AAAAAA" transform="translate(0,0)"/>
<path d="" fill="#FFFFFF" transform="translate(0,0)"/>
<path d="" fill="#FFFFFF" transform="translate(0,0)"/>
<path d="" fill="#FFFFFF" transform="translate(0,0)"/>
<path d="" fill="#FFFFFF" transform="translate(0,0)"/>
</svg>
