<?xml version="1.0" encoding="UTF-8"?>
<!-- Generator: visioncortex VTracer 0.6.4 -->
<svg version="1.1" xmlns="http://www.w3.org/2000/svg" viewBox="47 33 166 188">

<path d="M0 0 C0 0.66 0 1.32 0 2 C0.99 2.124 0.99 2.124 2 2.25 C5.99 3.248 9.385 5.072 13 7 C13 7.66 13 8.32 13 9 C14.176 9.351 15.351 9.701 16.562 10.062 C21.863 11.813 26.832 14.168 31.858 16.574 C34.552 17.864 37.162 19.054 40 20 C40 20.66 40 21.32 40 22 C40.626 22.205 41.253 22.41 41.898 22.621 C42.716 22.891 43.533 23.16 44.375 23.438 C45.593 23.838 45.593 23.838 46.836 24.246 C49 25 49 25 51 26 C51 26.66 51 27.32 51 28 C51.534 28.159 52.067 28.317 52.617 28.48 C68.482 33.449 68.482 33.449 71.285 38.16 C71.639 39.071 71.639 39.071 72 40 C72.99 40 73.98 40 75 40 C75 42.31 75 44.62 75 47 C75.66 47 76.32 47 77 47 C77 76.04 77 105.08 77 135 C76.34 135 75.68 135 75 135 C75.124 136.052 75.248 137.104 75.375 138.188 C75 142 75 142 72.402 144.523 C69.21 146.993 65.845 148.722 62.188 150.438 C53.508 154.609 45.155 159.325 36.782 164.076 C21.022 173 21.022 173 17 173 C17 173.66 17 174.32 17 175 C15 176 13 177 11 178 C10.072 178.557 9.144 179.114 8.188 179.688 C3.046 181.805 -2.703 181.804 -8 180 C-8.33 179.34 -8.66 178.68 -9 178 C-10.979 177.273 -12.98 176.602 -15 176 C-15 175.34 -15 174.68 -15 174 C-15.684 173.898 -16.369 173.796 -17.074 173.691 C-20.583 172.862 -23.558 171.483 -26.812 169.938 C-27.974 169.39 -29.135 168.842 -30.332 168.277 C-31.212 167.856 -32.093 167.434 -33 167 C-33 166.34 -33 165.68 -33 165 C-33.548 164.836 -34.096 164.673 -34.661 164.504 C-40.398 162.705 -45.5 160.347 -50.75 157.438 C-57.213 153.879 -57.213 153.879 -64 151 C-64 150.34 -64 149.68 -64 149 C-64.58 148.83 -65.16 148.66 -65.758 148.484 C-70.77 146.929 -74.92 145.347 -79 142 C-79 141.01 -79 140.02 -79 139 C-79.99 139 -80.98 139 -82 139 C-82 136.69 -82 134.38 -82 132 C-82.66 132 -83.32 132 -84 132 C-84 103.29 -84 74.58 -84 45 C-83.34 45 -82.68 45 -82 45 C-82 43.35 -82 41.7 -82 40 C-81.01 40 -80.02 40 -79 40 C-78.835 39.257 -78.67 38.515 -78.5 37.75 C-76.294 33.705 -73.101 32.787 -69 31 C-67.907 30.422 -66.814 29.845 -65.688 29.25 C-63 28 -63 28 -60 28 C-60 27.34 -60 26.68 -60 26 C-57.65 24.7 -55.296 23.41 -52.938 22.125 C-52.281 21.76 -51.624 21.395 -50.947 21.02 C-46.694 18.715 -42.699 17.161 -38 16 C-38 15.34 -38 14.68 -38 14 C-35.234 12.617 -32.468 11.237 -29.695 9.867 C-27.096 8.571 -24.54 7.214 -21.992 5.82 C-8.454 -1.463 -8.454 -1.463 0 0 Z " fill="#FBF0D6" transform="translate(133,37)"/>
<path d="M0 0 C0 0.66 0 1.32 0 2 C0.99 2.124 0.99 2.124 2 2.25 C5.99 3.248 9.385 5.072 13 7 C13 7.66 13 8.32 13 9 C14.176 9.351 15.351 9.701 16.562 10.062 C21.863 11.813 26.832 14.168 31.858 16.574 C34.552 17.864 37.162 19.054 40 20 C40 20.66 40 21.32 40 22 C40.626 22.205 41.253 22.41 41.898 22.621 C42.716 22.891 43.533 23.16 44.375 23.438 C45.593 23.838 45.593 23.838 46.836 24.246 C49 25 49 25 51 26 C51 26.66 51 27.32 51 28 C51.534 28.159 52.067 28.317 52.617 28.48 C68.482 33.449 68.482 33.449 71.285 38.16 C71.639 39.071 71.639 39.071 72 40 C72.99 40 73.98 40 75 40 C75 42.31 75 44.62 75 47 C75.66 47 76.32 47 77 47 C77 76.04 77 105.08 77 135 C76.34 135 75.68 135 75 135 C75.124 136.052 75.248 137.104 75.375 138.188 C75 142 75 142 72.402 144.523 C69.21 146.993 65.845 148.722 62.188 150.438 C53.508 154.609 45.155 159.325 36.782 164.076 C21.022 173 21.022 173 17 173 C17 173.66 17 174.32 17 175 C15 176 13 177 11 178 C10.072 178.557 9.144 179.114 8.188 179.688 C3.046 181.805 -2.703 181.804 -8 180 C-8.33 179.34 -8.66 178.68 -9 178 C-10.979 177.273 -12.98 176.602 -15 176 C-15 175.34 -15 174.68 -15 174 C-15.684 173.898 -16.369 173.796 -17.074 173.691 C-20.583 172.862 -23.558 171.483 -26.812 169.938 C-27.974 169.39 -29.135 168.842 -30.332 168.277 C-31.212 167.856 -32.093 167.434 -33 167 C-33 166.34 -33 165.68 -33 165 C-33.548 164.836 -34.096 164.673 -34.661 164.504 C-40.398 162.705 -45.5 160.347 -50.75 157.438 C-57.213 153.879 -57.213 153.879 -64 151 C-64 150.34 -64 149.68 -64 149 C-64.58 148.83 -65.16 148.66 -65.758 148.484 C-70.77 146.929 -74.92 145.347 -79 142 C-79 141.01 -79 140.02 -79 139 C-79.99 139 -80.98 139 -82 139 C-82 136.69 -82 134.38 -82 132 C-82.66 132 -83.32 132 -84 132 C-84 103.29 -84 74.58 -84 45 C-83.34 45 -82.68 45 -82 45 C-82 43.35 -82 41.7 -82 40 C-81.01 40 -80.02 40 -79 40 C-78.835 39.257 -78.67 38.515 -78.5 37.75 C-76.294 33.705 -73.101 32.787 -69 31 C-67.907 30.422 -66.814 29.845 -65.688 29.25 C-63 28 -63 28 -60 28 C-60 27.34 -60 26.68 -60 26 C-57.65 24.7 -55.296 23.41 -52.938 22.125 C-52.281 21.76 -51.624 21.395 -50.947 21.02 C-46.694 18.715 -42.699 17.161 -38 16 C-38 15.34 -38 14.68 -38 14 C-35.234 12.617 -32.468 11.237 -29.695 9.867 C-27.096 8.571 -24.54 7.214 -21.992 5.82 C-8.454 -1.463 -8.454 -1.463 0 0 Z M-14 7 C-14 7.66 -14 8.32 -14 9 C-14.833 9.246 -15.665 9.492 -16.523 9.746 C-20.472 11.17 -23.967 13.026 -27.625 15.062 C-34.894 19.105 -34.894 19.105 -39 20 C-39 20.66 -39 21.32 -39 22 C-39.887 22.289 -40.774 22.578 -41.688 22.875 C-44.504 23.831 -47.251 24.868 -50 26 C-50 26.66 -50 27.32 -50 28 C-50.825 28.248 -51.65 28.495 -52.5 28.75 C-56.524 30.187 -60.22 32.024 -64 34 C-64 34.66 -64 35.32 -64 36 C-64.846 36.268 -65.691 36.536 -66.562 36.812 C-70.139 38.048 -73.539 39.477 -77 41 C-77 42.98 -77 44.96 -77 47 C-77.66 47 -78.32 47 -79 47 C-79.209 57.961 -79.369 68.922 -79.466 79.885 C-79.513 84.976 -79.577 90.066 -79.679 95.156 C-79.777 100.071 -79.831 104.985 -79.854 109.9 C-79.87 111.773 -79.903 113.646 -79.952 115.518 C-80.541 125.599 -80.541 125.599 -77.112 134.711 C-73.282 137.853 -69.875 139.219 -65 140 C-65 140.66 -65 141.32 -65 142 C-63.4 142.841 -61.795 143.672 -60.188 144.5 C-59.294 144.964 -58.401 145.428 -57.48 145.906 C-54.994 147.202 -54.994 147.202 -52 147 C-52.33 147.99 -52.66 148.98 -53 150 C-52.152 150.097 -51.304 150.193 -50.43 150.293 C-46.558 151.091 -43.628 152.491 -40.125 154.312 C-39.509 154.629 -38.892 154.946 -38.257 155.273 C-36.501 156.176 -34.751 157.088 -33 158 C-23.864 163.409 -23.864 163.409 -14 166 C-14 166.66 -14 167.32 -14 168 C-8.304 171.019 -8.304 171.019 -2.062 171.938 C0.338 171.066 0.338 171.066 2 168 C2.192 165.354 2.27 162.813 2.255 160.167 C2.259 159.37 2.263 158.573 2.266 157.752 C2.273 156.02 2.276 154.288 2.274 152.556 C2.273 149.81 2.286 147.065 2.303 144.32 C2.35 136.513 2.374 128.707 2.381 120.9 C2.386 116.124 2.41 111.349 2.446 106.573 C2.456 104.757 2.458 102.941 2.453 101.125 C2.446 98.576 2.463 96.029 2.486 93.48 C2.474 92.366 2.474 92.366 2.461 91.229 C2.545 85.831 3.893 81.466 7 77 C10.031 74.898 10.031 74.898 13.5 73.375 C14.742 72.809 15.985 72.243 17.227 71.676 C18.165 71.263 18.165 71.263 19.122 70.842 C22.088 69.512 24.976 68.032 27.875 66.562 C29.583 65.708 31.292 64.854 33 64 C33 63.34 33 62.68 33 62 C33.722 61.886 34.445 61.772 35.189 61.654 C38.127 60.97 40.326 59.958 42.977 58.531 C43.894 58.043 44.812 57.554 45.758 57.051 C46.704 56.539 47.65 56.027 48.625 55.5 C50.512 54.488 52.4 53.477 54.289 52.469 C55.121 52.02 55.954 51.57 56.811 51.107 C59 50 59 50 62 49 C62 48.34 62 47.68 62 47 C62.99 46.67 63.98 46.34 65 46 C65 44.35 65 42.7 65 41 C64.34 41 63.68 41 63 41 C63 40.01 63 39.02 63 38 C60.03 37.505 60.03 37.505 57 37 C57 36.34 57 35.68 57 35 C54.544 33.829 52.085 32.663 49.625 31.5 C48.577 30.999 48.577 30.999 47.508 30.488 C43.912 28.648 43.912 28.648 40 28 C40 27.34 40 26.68 40 26 C38.377 25.329 36.751 24.663 35.125 24 C34.22 23.629 33.315 23.258 32.383 22.875 C30.11 21.885 30.11 21.885 28 22 C28 21.34 28 20.68 28 20 C24.874 18.554 21.746 17.109 18.617 15.668 C16.329 14.613 14.042 13.553 11.758 12.488 C10.786 12.038 9.814 11.589 8.812 11.125 C7.492 10.51 7.492 10.51 6.145 9.883 C4.078 8.873 4.078 8.873 2 9 C2 8.34 2 7.68 2 7 C-2.746 3.836 -9.254 3.836 -14 7 Z " fill="#E0C6A1" transform="translate(133,37)"/>
<path d="M0 0 C0 0.66 0 1.32 0 2 C0.99 2.124 0.99 2.124 2 2.25 C5.99 3.248 9.385 5.072 13 7 C13 7.66 13 8.32 13 9 C14.176 9.351 15.351 9.701 16.562 10.062 C21.863 11.813 26.832 14.168 31.858 16.574 C34.552 17.864 37.162 19.054 40 20 C40 20.66 40 21.32 40 22 C40.626 22.205 41.253 22.41 41.898 22.621 C42.716 22.891 43.533 23.16 44.375 23.438 C45.593 23.838 45.593 23.838 46.836 24.246 C49 25 49 25 51 26 C51 26.66 51 27.32 51 28 C51.534 28.159 52.067 28.317 52.617 28.48 C68.482 33.449 68.482 33.449 71.285 38.16 C71.639 39.071 71.639 39.071 72 40 C72.99 40 73.98 40 75 40 C75 42.31 75 44.62 75 47 C75.66 47 76.32 47 77 47 C77 76.04 77 105.08 77 135 C76.34 135 75.68 135 75 135 C75.124 136.052 75.248 137.104 75.375 138.188 C75 142 75 142 72.402 144.523 C69.21 146.993 65.845 148.722 62.188 150.438 C53.508 154.609 45.155 159.325 36.782 164.076 C21.022 173 21.022 173 17 173 C17 173.66 17 174.32 17 175 C15 176 13 177 11 178 C10.072 178.557 9.144 179.114 8.188 179.688 C3.046 181.805 -2.703 181.804 -8 180 C-8.33 179.34 -8.66 178.68 -9 178 C-10.979 177.273 -12.98 176.602 -15 176 C-15 175.34 -15 174.68 -15 174 C-15.684 173.898 -16.369 173.796 -17.074 173.691 C-20.583 172.862 -23.558 171.483 -26.812 169.938 C-27.974 169.39 -29.135 168.842 -30.332 168.277 C-31.212 167.856 -32.093 167.434 -33 167 C-33 166.34 -33 165.68 -33 165 C-33.548 164.836 -34.096 164.673 -34.661 164.504 C-40.398 162.705 -45.5 160.347 -50.75 157.438 C-57.213 153.879 -57.213 153.879 -64 151 C-64 150.34 -64 149.68 -64 149 C-64.58 148.83 -65.16 148.66 -65.758 148.484 C-70.77 146.929 -74.92 145.347 -79 142 C-79 141.01 -79 140.02 -79 139 C-79.99 139 -80.98 139 -82 139 C-82 136.69 -82 134.38 -82 132 C-82.66 132 -83.32 132 -84 132 C-84 103.29 -84 74.58 -84 45 C-83.34 45 -82.68 45 -82 45 C-82 43.35 -82 41.7 -82 40 C-81.01 40 -80.02 40 -79 40 C-78.835 39.257 -78.67 38.515 -78.5 37.75 C-76.294 33.705 -73.101 32.787 -69 31 C-67.907 30.422 -66.814 29.845 -65.688 29.25 C-63 28 -63 28 -60 28 C-60 27.34 -60 26.68 -60 26 C-57.65 24.7 -55.296 23.41 -52.938 22.125 C-52.281 21.76 -51.624 21.395 -50.947 21.02 C-46.694 18.715 -42.699 17.161 -38 16 C-38 15.34 -38 14.68 -38 14 C-35.234 12.617 -32.468 11.237 -29.695 9.867 C-27.096 8.571 -24.54 7.214 -21.992 5.82 C-8.454 -1.463 -8.454 -1.463 0 0 Z M-14 7 C-14 7.66 -14 8.32 -14 9 C-14.833 9.246 -15.665 9.492 -16.523 9.746 C-20.472 11.17 -23.967 13.026 -27.625 15.062 C-34.894 19.105 -34.894 19.105 -39 20 C-39 20.66 -39 21.32 -39 22 C-39.887 22.289 -40.774 22.578 -41.688 22.875 C-44.504 23.831 -47.251 24.868 -50 26 C-50 26.66 -50 27.32 -50 28 C-50.825 28.248 -51.65 28.495 -52.5 28.75 C-56.524 30.187 -60.22 32.024 -64 34 C-64 34.66 -64 35.32 -64 36 C-64.846 36.268 -65.691 36.536 -66.562 36.812 C-70.139 38.048 -73.539 39.477 -77 41 C-77 42.98 -77 44.96 -77 47 C-77.66 47 -78.32 47 -79 47 C-79 75.05 -79 103.1 -79 132 C-78.34 132 -77.68 132 -77 132 C-77.103 132.763 -77.206 133.526 -77.312 134.312 C-77.209 135.199 -77.106 136.086 -77 137 C-74.139 139.242 -72.659 140 -69 140 C-69 140.66 -69 141.32 -69 142 C-68.01 142 -67.02 142 -66 142 C-65.67 142.99 -65.34 143.98 -65 145 C-62.903 146.023 -62.903 146.023 -60.438 146.688 C-59.198 147.065 -59.198 147.065 -57.934 147.449 C-57.296 147.631 -56.657 147.813 -56 148 C-56 148.66 -56 149.32 -56 150 C-55.325 150.266 -54.649 150.531 -53.953 150.805 C-52.615 151.334 -52.615 151.334 -51.25 151.875 C-50.368 152.223 -49.487 152.571 -48.578 152.93 C-46 154 -46 154 -43.859 155.133 C-41.889 156.211 -41.889 156.211 -39 156 C-39 156.66 -39 157.32 -39 158 C-36.711 159.172 -34.419 160.337 -32.125 161.5 C-31.149 162.001 -31.149 162.001 -30.152 162.512 C-26.748 164.368 -26.748 164.368 -23 165 C-23 165.66 -23 166.32 -23 167 C-22.031 167.412 -21.061 167.825 -20.062 168.25 C-16.318 169.847 -12.616 171.531 -8.918 173.23 C-7.035 174.124 -7.035 174.124 -5 174 C-5 174.66 -5 175.32 -5 176 C-1.7 176 1.6 176 5 176 C5 175.34 5 174.68 5 174 C5.859 173.734 6.717 173.469 7.602 173.195 C11.029 171.99 14.142 170.528 17.375 168.875 C18.435 168.336 19.494 167.797 20.586 167.242 C21.383 166.832 22.179 166.422 23 166 C23 165.34 23 164.68 23 164 C23.781 163.847 23.781 163.847 24.578 163.691 C27.808 162.769 30.711 161.366 33.75 159.938 C34.92 159.39 36.091 158.842 37.297 158.277 C38.189 157.856 39.081 157.434 40 157 C40 156.34 40 155.68 40 155 C44.304 153.252 48.648 151.623 53 150 C53 149.34 53 148.68 53 148 C53.846 147.732 54.691 147.464 55.562 147.188 C59.139 145.952 62.539 144.523 66 143 C66 142.34 66 141.68 66 141 C67.32 140.34 68.64 139.68 70 139 C70 137.02 70 135.04 70 133 C70.66 133 71.32 133 72 133 C72 104.62 72 76.24 72 47 C71.01 47 70.02 47 69 47 C69 45.02 69 43.04 69 41 C67.566 40.326 66.127 39.661 64.688 39 C63.887 38.629 63.086 38.257 62.262 37.875 C59.938 36.82 59.938 36.82 57 37 C57 36.34 57 35.68 57 35 C54.544 33.829 52.085 32.663 49.625 31.5 C48.577 30.999 48.577 30.999 47.508 30.488 C43.912 28.648 43.912 28.648 40 28 C40 27.34 40 26.68 40 26 C38.377 25.329 36.751 24.663 35.125 24 C34.22 23.629 33.315 23.258 32.383 22.875 C30.11 21.885 30.11 21.885 28 22 C28 21.34 28 20.68 28 20 C24.874 18.554 21.746 17.109 18.617 15.668 C16.329 14.613 14.042 13.553 11.758 12.488 C10.786 12.038 9.814 11.589 8.812 11.125 C7.492 10.51 7.492 10.51 6.145 9.883 C4.078 8.873 4.078 8.873 2 9 C2 8.34 2 7.68 2 7 C-2.746 3.836 -9.254 3.836 -14 7 Z " fill="#1F1C25" transform="translate(133,37)"/>
<path d="M0 0 C0 0.66 0 1.32 0 2 C0.99 2.124 0.99 2.124 2 2.25 C5.99 3.248 9.385 5.072 13 7 C13 7.66 13 8.32 13 9 C14.176 9.351 15.351 9.701 16.562 10.062 C21.863 11.813 26.832 14.168 31.858 16.574 C34.552 17.864 37.162 19.054 40 20 C40 20.66 40 21.32 40 22 C40.626 22.205 41.253 22.41 41.898 22.621 C42.716 22.891 43.533 23.16 44.375 23.438 C45.593 23.838 45.593 23.838 46.836 24.246 C49 25 49 25 51 26 C51 26.66 51 27.32 51 28 C51.534 28.159 52.067 28.317 52.617 28.48 C57.028 29.862 61.294 31.454 65.5 33.375 C66.335 33.754 67.171 34.133 68.031 34.523 C70 36 70 36 70.809 38.457 C71.034 41.456 70.614 44.065 70 47 C69.67 47 69.34 47 69 47 C69 45.02 69 43.04 69 41 C68.385 40.795 67.77 40.59 67.137 40.379 C62.068 38.689 62.068 38.689 57 37 C57 36.34 57 35.68 57 35 C56.237 34.773 55.474 34.546 54.688 34.312 C49.647 32.518 44.847 30.259 40 28 C40 27.34 40 26.68 40 26 C38.952 25.693 38.952 25.693 37.883 25.379 C36.973 25.109 36.063 24.84 35.125 24.562 C34.22 24.296 33.315 24.029 32.383 23.754 C30 23 30 23 28 22 C28 21.34 28 20.68 28 20 C27.28 19.882 26.56 19.764 25.818 19.643 C22.918 18.981 20.59 18.01 17.918 16.715 C16.987 16.267 16.055 15.819 15.096 15.357 C14.136 14.889 13.176 14.42 12.188 13.938 C11.208 13.465 10.229 12.993 9.221 12.506 C6.811 11.342 4.405 10.174 2 9 C2 8.34 2 7.68 2 7 C-3.003 5.332 -8.997 5.332 -14 7 C-14 7.66 -14 8.32 -14 9 C-16.374 10.272 -18.75 11.542 -21.125 12.812 C-21.79 13.169 -22.455 13.525 -23.141 13.893 C-24.463 14.599 -25.788 15.303 -27.114 16.002 C-28.83 16.91 -30.537 17.835 -32.242 18.762 C-35 20 -35 20 -39 20 C-39 20.66 -39 21.32 -39 22 C-40.267 22.674 -41.539 23.339 -42.812 24 C-43.52 24.371 -44.228 24.742 -44.957 25.125 C-47 26 -47 26 -50 26 C-50 26.66 -50 27.32 -50 28 C-51.956 29.005 -53.915 30.004 -55.875 31 C-57.511 31.835 -57.511 31.835 -59.18 32.688 C-62 34 -62 34 -64 34 C-64 34.66 -64 35.32 -64 36 C-65.6 36.841 -67.205 37.672 -68.812 38.5 C-69.706 38.964 -70.599 39.428 -71.52 39.906 C-74 41 -74 41 -77 41 C-77 42.65 -77 44.3 -77 46 C-77.99 46 -78.98 46 -80 46 C-80 76.69 -80 107.38 -80 139 C-80.66 139 -81.32 139 -82 139 C-82 136.69 -82 134.38 -82 132 C-82.66 132 -83.32 132 -84 132 C-84 103.29 -84 74.58 -84 45 C-83.34 45 -82.68 45 -82 45 C-82 43.35 -82 41.7 -82 40 C-81.01 40 -80.02 40 -79 40 C-78.835 39.257 -78.67 38.515 -78.5 37.75 C-76.294 33.705 -73.101 32.787 -69 31 C-67.907 30.422 -66.814 29.845 -65.688 29.25 C-63 28 -63 28 -60 28 C-60 27.34 -60 26.68 -60 26 C-57.65 24.7 -55.296 23.41 -52.938 22.125 C-52.281 21.76 -51.624 21.395 -50.947 21.02 C-46.694 18.715 -42.699 17.161 -38 16 C-38 15.34 -38 14.68 -38 14 C-35.234 12.617 -32.468 11.237 -29.695 9.867 C-27.096 8.571 -24.54 7.214 -21.992 5.82 C-8.454 -1.463 -8.454 -1.463 0 0 Z " fill="#222029" transform="translate(133,37)"/>
<path d="M0 0 C0.99 0.33 1.98 0.66 3 1 C2.34 1 1.68 1 1 1 C1 29.05 1 57.1 1 86 C1.66 86 2.32 86 3 86 C3.021 86.763 3.041 87.526 3.062 88.312 C3.797 91.414 3.797 91.414 7.562 92.812 C8.697 93.204 9.831 93.596 11 94 C11 94.66 11 95.32 11 96 C11.99 96 12.98 96 14 96 C14.412 96.433 14.825 96.866 15.25 97.312 C17.823 99.793 20.687 100.687 24 102 C24 102.66 24 103.32 24 104 C24.641 104.182 25.281 104.364 25.941 104.551 C31.144 106.063 36.071 107.75 41 110 C41 110.66 41 111.32 41 112 C41.784 112.227 42.567 112.454 43.375 112.688 C48.123 114.407 52.521 116.681 57 119 C57 119.66 57 120.32 57 121 C57.684 121.102 58.369 121.204 59.074 121.309 C62.583 122.138 65.558 123.517 68.812 125.062 C69.974 125.61 71.135 126.158 72.332 126.723 C73.653 127.355 73.653 127.355 75 128 C75 128.66 75 129.32 75 130 C78.3 130 81.6 130 85 130 C85 129.34 85 128.68 85 128 C87.766 126.657 90.539 125.327 93.312 124 C94.098 123.618 94.884 123.237 95.693 122.844 C96.451 122.483 97.208 122.122 97.988 121.75 C98.685 121.415 99.381 121.08 100.099 120.734 C102 120 102 120 105 120 C104.67 120.66 104.34 121.32 104 122 C104.66 122 105.32 122 106 122 C106 122.66 106 123.32 106 124 C100.375 127 100.375 127 97 127 C97 127.66 97 128.32 97 129 C95 130 93 131 91 132 C90.072 132.557 89.144 133.114 88.188 133.688 C83.046 135.805 77.297 135.804 72 134 C71.67 133.34 71.34 132.68 71 132 C69.021 131.273 67.02 130.602 65 130 C65 129.34 65 128.68 65 128 C64.316 127.898 63.631 127.796 62.926 127.691 C59.417 126.862 56.442 125.483 53.188 123.938 C52.026 123.39 50.865 122.842 49.668 122.277 C48.347 121.645 48.347 121.645 47 121 C47 120.34 47 119.68 47 119 C46.452 118.836 45.904 118.673 45.339 118.504 C39.602 116.705 34.5 114.347 29.25 111.438 C22.787 107.879 22.787 107.879 16 105 C16 104.34 16 103.68 16 103 C15.42 102.83 14.84 102.66 14.242 102.484 C9.214 100.924 5.128 99.302 1 96 C-0.321 92.037 -0.131 88.253 -0.114 84.122 C-0.114 83.215 -0.114 82.307 -0.114 81.372 C-0.113 78.369 -0.105 75.366 -0.098 72.363 C-0.096 70.282 -0.094 68.202 -0.093 66.121 C-0.09 60.641 -0.08 55.162 -0.069 49.683 C-0.058 44.093 -0.054 38.502 -0.049 32.912 C-0.038 21.941 -0.021 10.971 0 0 Z " fill="#1B1923" transform="translate(53,83)"/>
<path d="M0 0 C8.571 2 8.571 2 12 4 C12 4.66 12 5.32 12 6 C12.959 6.217 12.959 6.217 13.938 6.438 C16 7 16 7 17 8 C17.087 9.489 17.107 10.981 17.098 12.473 C17.094 13.372 17.091 14.271 17.088 15.197 C17.08 16.143 17.071 17.088 17.062 18.062 C17.058 19.012 17.053 19.961 17.049 20.939 C17.037 23.293 17.021 25.646 17 28 C15.68 28 14.36 28 13 28 C13 28.66 13 29.32 13 30 C7.607 28.439 0.068 26.068 -4 22 C-4.087 20.511 -4.107 19.019 -4.098 17.527 C-4.094 16.628 -4.091 15.729 -4.088 14.803 C-4.08 13.857 -4.071 12.912 -4.062 11.938 C-4.058 10.988 -4.053 10.039 -4.049 9.061 C-4.037 6.707 -4.021 4.354 -4 2 C-2.68 2 -1.36 2 0 2 C0 1.34 0 0.68 0 0 Z " fill="#14121C" transform="translate(108,132)"/>
<path d="M0 0 C1.65 0 3.3 0 5 0 C4.01 0.495 4.01 0.495 3 1 C3 3.31 3 5.62 3 8 C4.32 8.33 5.64 8.66 7 9 C7 9.66 7 10.32 7 11 C7.99 11 8.98 11 10 11 C10 8.36 10 5.72 10 3 C9.34 2.67 8.68 2.34 8 2 C12.049 1.028 14.329 0.72 18.219 2.344 C21.31 5.296 21.419 5.734 21.586 9.766 C21.546 11.595 21.475 13.423 21.375 15.25 C21.348 16.186 21.321 17.122 21.293 18.086 C21.222 20.393 21.124 22.695 21 25 C19.68 25 18.36 25 17 25 C17 25.66 17 26.32 17 27 C15.662 26.619 14.33 26.219 13 25.812 C12.257 25.592 11.515 25.372 10.75 25.145 C2.789 21.831 2.789 21.831 0 19 C-0.973 15.679 -0.766 12.612 -0.5 9.188 C-0.464 8.304 -0.428 7.42 -0.391 6.51 C-0.297 4.338 -0.153 2.168 0 0 Z " fill="#191821" transform="translate(63,117)"/>
<path d="M0 0 C0.99 0.33 1.98 0.66 3 1 C2.34 1 1.68 1 1 1 C1 29.05 1 57.1 1 86 C1.66 86 2.32 86 3 86 C3.021 86.763 3.041 87.526 3.062 88.312 C3.797 91.414 3.797 91.414 7.562 92.812 C8.697 93.204 9.831 93.596 11 94 C11 94.66 11 95.32 11 96 C11.99 96 12.98 96 14 96 C14.412 96.433 14.825 96.866 15.25 97.312 C17.823 99.793 20.687 100.687 24 102 C24 102.66 24 103.32 24 104 C24.675 104.182 25.351 104.364 26.047 104.551 C26.939 104.802 27.831 105.054 28.75 105.312 C29.632 105.556 30.513 105.8 31.422 106.051 C34.058 107.021 35.854 108.21 38 110 C34.911 111.421 33.354 112.024 30 112 C25.083 110.078 20.569 107.631 16 105 C16 104.34 16 103.68 16 103 C15.42 102.83 14.84 102.66 14.242 102.484 C9.214 100.924 5.128 99.302 1 96 C-0.321 92.037 -0.131 88.253 -0.114 84.122 C-0.114 83.215 -0.114 82.307 -0.114 81.372 C-0.113 78.369 -0.105 75.366 -0.098 72.363 C-0.096 70.282 -0.094 68.202 -0.093 66.121 C-0.09 60.641 -0.08 55.162 -0.069 49.683 C-0.058 44.093 -0.054 38.502 -0.049 32.912 C-0.038 21.941 -0.021 10.971 0 0 Z " fill="#3C393E" transform="translate(53,83)"/>
<path d="M0 0 C3.367 -0.23 5.414 -0.339 8.375 1.375 C8.911 1.911 9.448 2.448 10 3 C10 3.66 10 4.32 10 5 C10.887 5.103 11.774 5.206 12.688 5.312 C16.083 6.017 18.219 6.955 21 9 C21 9.66 21 10.32 21 11 C21.828 11.085 22.655 11.17 23.508 11.258 C27.745 12.158 31.074 13.855 34.875 15.875 C40.156 18.653 45.373 20.998 51 23 C51 23.66 51 24.32 51 25 C51.846 25.103 52.691 25.206 53.562 25.312 C57.414 26.083 60.441 27.363 64 29 C64 29.66 64 30.32 64 31 C64.949 31.289 65.897 31.578 66.875 31.875 C70 33 70 33 72 35 C72 35.99 72 36.98 72 38 C69.69 37.34 67.38 36.68 65 36 C65 35.34 65 34.68 65 34 C64.257 33.876 63.515 33.752 62.75 33.625 C60.199 33.045 58.273 32.263 56 31 C56 30.34 56 29.68 56 29 C55.134 28.897 54.267 28.794 53.375 28.688 C49.833 27.966 47.157 26.729 44 25 C44 24.34 44 23.68 44 23 C43.443 22.902 42.886 22.804 42.312 22.703 C36.619 21.587 32.092 19.778 27 17 C27 16.34 27 15.68 27 15 C26.175 14.918 25.35 14.835 24.5 14.75 C20.965 13.993 18.446 12.857 15.293 11.168 C11.739 9.358 8.022 7.921 4.32 6.441 C1.458 4.663 0.923 3.179 0 0 Z " fill="#FEFDFA" transform="translate(59,78)"/>
<path d="M0 0 C0.33 1.32 0.66 2.64 1 4 C1.66 4 2.32 4 3 4 C3.33 2.68 3.66 1.36 4 0 C4 1.65 4 3.3 4 5 C3.01 5 2.02 5 1 5 C1 35.69 1 66.38 1 98 C0.67 98 0.34 98 0 98 C-0.33 95.03 -0.66 92.06 -1 89 C-1.33 89 -1.66 89 -2 89 C-2 61.28 -2 33.56 -2 5 C-1.34 5 -0.68 5 0 5 C0 3.35 0 1.7 0 0 Z " fill="#0C0A16" transform="translate(52,78)"/>
<path d="M0 0 C1 3 1 3 1 5 C2.636 6.049 4.305 7.049 6 8 C7 9 7 9 7.062 12.562 C7.042 13.697 7.021 14.831 7 16 C6.34 16 5.68 16 5 16 C5 16.66 5 17.32 5 18 C0.293 17.412 -5.559 15.441 -9 12 C-9.467 5.7 -9.467 5.7 -7.75 3.125 C-5.796 1.869 -4.303 1.297 -2 1 C-1.34 1.33 -0.68 1.66 0 2 C0 1.34 0 0.68 0 0 Z " fill="#FAADA6" transform="translate(121,160)"/>
<path d="M0 0 C5.695 0.047 10.811 0.811 15 5 C15.141 7.671 15.042 10.324 15 13 C9.585 14.527 4.919 13.61 0 11 C-1.165 7.506 -1.136 4.663 -1 1 C-0.67 0.67 -0.34 0.34 0 0 Z " fill="#FEABA3" transform="translate(57,139)"/>
<path d="M0 0 C0 0.66 0 1.32 0 2 C0.784 2.227 1.567 2.454 2.375 2.688 C7.123 4.407 11.521 6.681 16 9 C16 9.66 16 10.32 16 11 C17.32 11.33 18.64 11.66 20 12 C18.667 13.333 17.333 14.667 16 16 C12.7 14.35 9.4 12.7 6 11 C6 10.34 6 9.68 6 9 C5.42 8.818 4.84 8.636 4.242 8.449 C-0.391 6.958 -4.698 5.317 -9 3 C-9 2.34 -9 1.68 -9 1 C-5.804 -0.065 -3.343 -0.074 0 0 Z " fill="#1C1A23" transform="translate(94,193)"/>
<path d="M0 0 C0 0.66 0 1.32 0 2 C0.784 2.083 1.567 2.165 2.375 2.25 C5 3 5 3 6.312 4.938 C7 7 7 7 7 9 C5.35 9 3.7 9 2 9 C2 8.34 2 7.68 2 7 C-3.003 5.332 -8.997 5.332 -14 7 C-14 7.66 -14 8.32 -14 9 C-16.468 7.848 -18.048 6.952 -20 5 C-13.167 0.929 -7.965 -0.763 0 0 Z " fill="#15141E" transform="translate(133,37)"/>
<path d="M0 0 C8.571 1.857 8.571 1.857 12 5 C10.68 5.33 9.36 5.66 8 6 C7.67 8.97 7.34 11.94 7 15 C6.67 14.34 6.34 13.68 6 13 C2.971 12.342 2.971 12.342 0 12 C0 9.36 0 6.72 0 4 C-0.99 3.67 -1.98 3.34 -3 3 C-3 9.27 -3 15.54 -3 22 C-3.33 22 -3.66 22 -4 22 C-4 15.4 -4 8.8 -4 2 C-2.68 2 -1.36 2 0 2 C0 1.34 0 0.68 0 0 Z " fill="#3F3C3F" transform="translate(108,132)"/>
<path d="M0 0 C1.32 0 2.64 0 4 0 C4 0.66 4 1.32 4 2 C6.97 2.495 6.97 2.495 10 3 C9.505 3.33 9.01 3.66 8.5 4 C6.118 7.176 6.808 10.102 7 14 C6.01 14 5.02 14 4 14 C4 13.34 4 12.68 4 12 C2.68 11.67 1.36 11.34 0 11 C0 8.69 0 6.38 0 4 C-0.99 3.67 -1.98 3.34 -3 3 C-2.67 9.6 -2.34 16.2 -2 23 C-2.66 23 -3.32 23 -4 23 C-4 16.07 -4 9.14 -4 2 C-2.68 2 -1.36 2 0 2 C0 1.34 0 0.68 0 0 Z " fill="#3D3B3D" transform="translate(66,114)"/>
<path d="M0 0 C1.32 0.33 2.64 0.66 4 1 C4.33 2.65 4.66 4.3 5 6 C7.97 6.99 10.94 7.98 14 9 C14 8.01 14 7.02 14 6 C15.32 6 16.64 6 18 6 C18 7.98 18 9.96 18 12 C17.01 12 16.02 12 15 12 C15 12.66 15 13.32 15 14 C12.03 13.505 12.03 13.505 9 13 C9 12.34 9 11.68 9 11 C7.35 10.67 5.7 10.34 4 10 C3.67 8.68 3.34 7.36 3 6 C2.01 6 1.02 6 0 6 C0 4.02 0 2.04 0 0 Z " fill="#18171F" transform="translate(84,152)"/>
<path d="M0 0 C1.32 0 2.64 0 4 0 C4.375 3.188 4.375 3.188 4 7 C0.472 10.78 -2.826 13.03 -8 14 C-11.375 13.125 -11.375 13.125 -14 12 C-11.062 9.497 -8.821 8.531 -5 8 C-5 7.34 -5 6.68 -5 6 C-3.35 5.34 -1.7 4.68 0 4 C0 2.68 0 1.36 0 0 Z " fill="#201D27" transform="translate(204,172)"/>
<path d="M0 0 C0.33 0.66 0.66 1.32 1 2 C1.33 1.34 1.66 0.68 2 0 C7.614 1.564 12.868 3.164 18 6 C14.996 8.003 13.539 8.728 10 9 C7.324 7.891 7.324 7.891 4.688 6.25 C3.804 5.719 2.921 5.188 2.012 4.641 C1.348 4.099 0.684 3.558 0 3 C0 2.01 0 1.02 0 0 Z " fill="#1C1923" transform="translate(73,186)"/>
<path d="M0 0 C2.18 1.223 2.18 1.223 4 3 C4.172 5.48 4.172 5.48 3.75 8.188 C3.621 9.089 3.492 9.99 3.359 10.918 C3.241 11.605 3.122 12.292 3 13 C2.67 13 2.34 13 2 13 C2 11.02 2 9.04 2 7 C1.385 6.807 0.77 6.613 0.137 6.414 C-1.076 6.023 -1.076 6.023 -2.312 5.625 C-3.113 5.37 -3.914 5.115 -4.738 4.852 C-7 4 -7 4 -10 2 C-9.01 2 -8.02 2 -7 2 C-7 1.34 -7 0.68 -7 0 C-4.257 -1.371 -2.915 -0.833 0 0 Z " fill="#2E2B32" transform="translate(200,71)"/>
<path d="M0 0 C4.472 1.418 8.711 3.113 13 5 C13 5.66 13 6.32 13 7 C12.34 7 11.68 7 11 7 C11 7.66 11 8.32 11 9 C6.872 8.393 3.668 6.962 0 5 C0 3.35 0 1.7 0 0 Z " fill="#15121C" transform="translate(182,64)"/>
<path d="M0 0 C3.719 0.507 6.735 1.116 10 3 C10 3.66 10 4.32 10 5 C10.66 5.33 11.32 5.66 12 6 C11.67 6.99 11.34 7.98 11 9 C9.68 8.67 8.36 8.34 7 8 C7 7.34 7 6.68 7 6 C5.824 5.783 5.824 5.783 4.625 5.562 C2 5 2 5 0 4 C0 2.68 0 1.36 0 0 Z " fill="#14121C" transform="translate(111,205)"/>
<path d="M0 0 C2.31 0.66 4.62 1.32 7 2 C7 4.64 7 7.28 7 10 C6.01 10 5.02 10 4 10 C4 9.34 4 8.68 4 8 C2.68 7.67 1.36 7.34 0 7 C0 4.69 0 2.38 0 0 Z " fill="#DFDFE0" transform="translate(66,118)"/>
<path d="M0 0 C0.66 0.33 1.32 0.66 2 1 C2 1.66 2 2.32 2 3 C-2.229 5.417 -5.123 6.348 -10 6 C-9.67 4.68 -9.34 3.36 -9 2 C-8.34 2 -7.68 2 -7 2 C-7 1.34 -7 0.68 -7 0 C-3.833 -1.056 -3.036 -0.979 0 0 Z " fill="#1C1A24" transform="translate(102,51)"/>
<path d="M0 0 C0.66 0.33 1.32 0.66 2 1 C1.67 1.66 1.34 2.32 1 3 C1.66 3 2.32 3 3 3 C3 3.66 3 4.32 3 5 C-0.858 7.153 -3.551 8.393 -8 8 C-8 7.34 -8 6.68 -8 6 C-8.66 5.67 -9.32 5.34 -10 5 C-8.38 4.136 -6.754 3.284 -5.125 2.438 C-4.22 1.962 -3.315 1.486 -2.383 0.996 C-1.203 0.503 -1.203 0.503 0 0 Z " fill="#16131D" transform="translate(156,202)"/>
<path d="M0 0 C0.66 0 1.32 0 2 0 C2 0.66 2 1.32 2 2 C3.65 2.33 5.3 2.66 7 3 C7 5.64 7 8.28 7 11 C6.67 10.34 6.34 9.68 6 9 C2.971 8.342 2.971 8.342 0 8 C0 5.36 0 2.72 0 0 Z " fill="#E7E7E7" transform="translate(108,136)"/>
<path d="M0 0 C0.922 0.632 0.922 0.632 1.863 1.277 C3.076 2.099 3.076 2.099 4.312 2.938 C5.113 3.483 5.914 4.028 6.738 4.59 C9.026 6.138 9.026 6.138 12 7 C12 7.66 12 8.32 12 9 C12.99 9 13.98 9 15 9 C15 9.66 15 10.32 15 11 C12.69 10.34 10.38 9.68 8 9 C8 8.34 8 7.68 8 7 C6.855 6.814 6.855 6.814 5.688 6.625 C3 6 3 6 0 4 C0 2.68 0 1.36 0 0 Z " fill="#E9D0AE" transform="translate(56,170)"/>
<path d="M0 0 C1.65 0.33 3.3 0.66 5 1 C5 1.66 5 2.32 5 3 C6.32 3.33 7.64 3.66 9 4 C7.667 5.333 6.333 6.667 5 8 C3.02 7.01 1.04 6.02 -1 5 C-0.01 4.67 0.98 4.34 2 4 C1.34 3.67 0.68 3.34 0 3 C0 2.01 0 1.02 0 0 Z " fill="#2E2B31" transform="translate(105,201)"/>
<path d="M0 0 C4.75 0.875 4.75 0.875 7 2 C7.688 3.938 7.688 3.938 8 6 C7.67 6.66 7.34 7.32 7 8 C6.01 8 5.02 8 4 8 C1.683 5.505 0.596 3.34 0 0 Z " fill="#25222A" transform="translate(121,209)"/>
<path d="M0 0 C0 0.66 0 1.32 0 2 C0.66 2.33 1.32 2.66 2 3 C-0.97 4.32 -3.94 5.64 -7 7 C-7.66 6.34 -8.32 5.68 -9 5 C-7.879 4.161 -6.753 3.329 -5.625 2.5 C-4.999 2.036 -4.372 1.572 -3.727 1.094 C-2 0 -2 0 0 0 Z " fill="#1B1822" transform="translate(113,45)"/>
<path d="M0 0 C0.553 2.076 1 3.844 1 6 C0.34 6 -0.32 6 -1 6 C-1 6.66 -1 7.32 -1 8 C-3.468 6.848 -5.048 5.952 -7 4 C-4.69 2.68 -2.38 1.36 0 0 Z " fill="#1E1C26" transform="translate(120,38)"/>
<path d="M0 0 C5.656 -0.566 9.226 1.286 14 4 C12.328 5.148 12.328 5.148 10 6 C7.422 5.102 7.422 5.102 4.75 3.625 C3.858 3.143 2.966 2.661 2.047 2.164 C1.371 1.78 0.696 1.396 0 1 C0 0.67 0 0.34 0 0 Z " fill="#DFC4A3" transform="translate(67,180)"/>
<path d="M0 0 C1.459 0.477 2.917 0.957 4.375 1.438 C5.187 1.704 5.999 1.971 6.836 2.246 C9 3 9 3 11 4 C10.67 4.99 10.34 5.98 10 7 C6.04 5.35 2.08 3.7 -2 2 C-1.34 1.34 -0.68 0.68 0 0 Z " fill="#CFB698" transform="translate(79,185)"/>
<path d="M0 0 C1.32 0 2.64 0 4 0 C4 2.31 4 4.62 4 7 C3.01 7.33 2.02 7.66 1 8 C0.01 6.68 -0.98 5.36 -2 4 C-1.34 4 -0.68 4 0 4 C0 2.68 0 1.36 0 0 Z " fill="#34313C" transform="translate(204,172)"/>
<path d="M0 0 C4.75 0.75 4.75 0.75 7 3 C6.67 3.66 6.34 4.32 6 5 C3.562 5.75 3.562 5.75 1 6 C0.34 5.34 -0.32 4.68 -1 4 C-0.625 1.875 -0.625 1.875 0 0 Z " fill="#2E2B2F" transform="translate(70,183)"/>
<path d="M0 0 C2.475 0.495 2.475 0.495 5 1 C5 2.65 5 4.3 5 6 C3.35 5.67 1.7 5.34 0 5 C0 3.35 0 1.7 0 0 Z " fill="#CECFD1" transform="translate(117,151)"/>
<path d="M0 0 C-0.33 0.99 -0.66 1.98 -1 3 C-2.052 2.526 -3.104 2.051 -4.188 1.562 C-7.102 0.307 -9.847 -0.522 -13 -1 C-13 -1.33 -13 -1.66 -13 -2 C-7.527 -3.468 -4.881 -2.44 0 0 Z " fill="#F6E3CB" transform="translate(71,140)"/>
<path d="M0 0 C0.33 0.66 0.66 1.32 1 2 C1.66 2.33 2.32 2.66 3 3 C2.67 4.98 2.34 6.96 2 9 C1.01 9 0.02 9 -1 9 C-0.67 6.03 -0.34 3.06 0 0 Z " fill="#15131E" transform="translate(204,75)"/>
<path d="M0 0 C0.66 0.33 1.32 0.66 2 1 C1.288 1.588 1.288 1.588 0.562 2.188 C-1.352 4.408 -1.613 6.134 -2 9 C-2.66 9 -3.32 9 -4 9 C-4.33 7.35 -4.66 5.7 -5 4 C-4.34 4 -3.68 4 -3 4 C-2.67 3.01 -2.34 2.02 -2 1 C-1.34 0.67 -0.68 0.34 0 0 Z " fill="#13121C" transform="translate(57,73)"/>
<path d="M0 0 C0 2.333 0 4.667 0 7 C-1.65 6.67 -3.3 6.34 -5 6 C-5.33 5.01 -5.66 4.02 -6 3 C-4.02 2.01 -2.04 1.02 0 0 Z " fill="#25232C" transform="translate(106,46)"/>
<path d="M0 0 C0.33 1.98 0.66 3.96 1 6 C-1.31 5.01 -3.62 4.02 -6 3 C-6 2.34 -6 1.68 -6 1 C-3 0 -3 0 0 0 Z " fill="#26242F" transform="translate(91,193)"/>
<path d="M0 0 C2 0 2 0 3.5 1.438 C3.995 1.953 4.49 2.469 5 3 C5.66 3.33 6.32 3.66 7 4 C7 4.66 7 5.32 7 6 C5.35 6 3.7 6 2 6 C2 5.01 2 4.02 2 3 C1.34 3 0.68 3 0 3 C0 2.01 0 1.02 0 0 Z " fill="#1F1D26" transform="translate(108,132)"/>
<path d="M0 0 C1.32 0.33 2.64 0.66 4 1 C4 2.65 4 4.3 4 6 C2.68 5.67 1.36 5.34 0 5 C0 3.35 0 1.7 0 0 Z " fill="#EAEAEB" transform="translate(75,133)"/>
<path d="M0 0 C0.66 0 1.32 0 2 0 C2 0.66 2 1.32 2 2 C2.66 2 3.32 2 4 2 C4 2.66 4 3.32 4 4 C2.35 4.33 0.7 4.66 -1 5 C-0.67 3.35 -0.34 1.7 0 0 Z " fill="#25222C" transform="translate(146,208)"/>
<path d="M0 0 C1.98 0.66 3.96 1.32 6 2 C5.01 2.99 4.02 3.98 3 5 C1.68 4.34 0.36 3.68 -1 3 C-0.67 2.01 -0.34 1.02 0 0 Z " fill="#1C1921" transform="translate(88,158)"/>
<path d="M0 0 C1.671 0.062 1.671 0.062 3.375 0.125 C2.385 0.455 1.395 0.785 0.375 1.125 C0.375 1.785 0.375 2.445 0.375 3.125 C-2.595 2.63 -2.595 2.63 -5.625 2.125 C-3.625 0.125 -3.625 0.125 0 0 Z " fill="#403E40" transform="translate(98.625,162.875)"/>
</svg>
