<?xml version="1.0" encoding="UTF-8"?>
<!-- Generator: visioncortex VTracer 0.6.4 -->
<svg version="1.1" xmlns="http://www.w3.org/2000/svg" width="512" height="512">
<path d="M0 0 C1.019 0.004 1.019 0.004 2.059 0.009 C4.209 0.02 6.358 0.045 8.508 0.07 C9.974 0.08 11.44 0.089 12.906 0.098 C16.482 0.12 20.057 0.154 23.633 0.195 C23.633 0.855 23.633 1.515 23.633 2.195 C25.283 2.195 26.933 2.195 28.633 2.195 C28.963 2.855 29.293 3.515 29.633 4.195 C30.21 4.484 30.788 4.773 31.383 5.07 C34.126 6.442 36.267 8.254 38.633 10.195 C41.691 12.234 43.037 13.108 46.633 13.633 C49.633 14.195 49.633 14.195 51.633 16.195 C54.405 18.133 54.405 18.133 56.633 19.195 C59.756 20.757 62.719 22.253 65.633 24.195 C67.766 25.42 67.766 25.42 71.008 25.445 C74.633 26.195 74.633 26.195 77.07 28.57 C78.633 31.195 78.633 31.195 78.633 34.195 C80.272 34.133 80.272 34.133 81.945 34.07 C85.633 34.195 85.633 34.195 88.633 36.195 C88.963 36.855 89.293 37.515 89.633 38.195 C91.759 38.662 91.759 38.662 94.195 38.82 C95.022 38.895 95.848 38.97 96.699 39.047 C97.337 39.096 97.975 39.145 98.633 39.195 C98.633 39.525 98.633 39.855 98.633 40.195 C100.283 40.525 101.933 40.855 103.633 41.195 C103.633 41.855 103.633 42.515 103.633 43.195 C105.613 43.525 107.593 43.855 109.633 44.195 C109.633 44.855 109.633 45.515 109.633 46.195 C111.283 46.855 112.933 47.515 114.633 48.195 C114.633 48.525 114.633 48.855 114.633 49.195 C118.593 49.69 118.593 49.69 122.633 50.195 C122.633 50.855 122.633 51.515 122.633 52.195 C123.767 52.319 124.902 52.443 126.07 52.57 C127.246 52.777 128.422 52.983 129.633 53.195 C130.299 54.529 130.966 55.862 131.633 57.195 C132.623 57.525 133.613 57.855 134.633 58.195 C135.293 58.525 135.953 58.855 136.633 59.195 C137.313 59.505 137.994 59.814 138.695 60.133 C140.633 61.195 140.633 61.195 141.633 63.195 C143.681 64.03 143.681 64.03 146.07 64.695 C150.416 65.979 150.416 65.979 152.633 68.195 C155.203 68.843 155.203 68.843 157.633 69.195 C157.633 69.525 157.633 69.855 157.633 70.195 C158.839 70.381 158.839 70.381 160.07 70.57 C160.916 70.777 161.762 70.983 162.633 71.195 C162.963 71.855 163.293 72.515 163.633 73.195 C164.293 73.525 164.953 73.855 165.633 74.195 C165.633 75.185 165.633 76.175 165.633 77.195 C168.603 77.195 171.573 77.195 174.633 77.195 C174.963 77.855 175.293 78.515 175.633 79.195 C176.623 79.36 177.613 79.525 178.633 79.695 C179.623 79.86 180.613 80.025 181.633 80.195 C182.633 82.196 183.127 84.027 183.633 86.195 C184.331 86.172 185.03 86.149 185.75 86.125 C186.66 86.107 187.57 86.089 188.508 86.07 C189.413 86.047 190.318 86.024 191.25 86 C193.633 86.195 193.633 86.195 195.633 88.195 C196.958 88.878 198.291 89.546 199.633 90.195 C199.963 90.525 200.293 90.855 200.633 91.195 C201.623 91.835 202.613 92.474 203.633 93.133 C207.248 95.618 207.679 97.11 208.633 101.195 C209.252 101.34 209.87 101.484 210.508 101.633 C212.633 102.195 212.633 102.195 214.633 103.195 C214.633 108.805 214.633 114.415 214.633 120.195 C215.953 120.195 217.273 120.195 218.633 120.195 C218.633 195.765 218.633 271.335 218.633 349.195 C217.313 349.195 215.993 349.195 214.633 349.195 C214.633 354.475 214.633 359.755 214.633 365.195 C213.973 365.525 213.313 365.855 212.633 366.195 C209.384 367.918 209.384 367.918 208.633 371.195 C206.758 373.383 206.758 373.383 204.633 375.195 C203.643 375.195 202.653 375.195 201.633 375.195 C201.303 375.855 200.973 376.515 200.633 377.195 C199.011 380.438 195.882 380.884 192.633 382.195 C191.358 382.833 190.086 383.478 188.82 384.133 C186.633 385.195 186.633 385.195 184.07 386.195 C181.442 387.18 181.442 387.18 178.633 389.195 C175.426 390.965 172.118 392.086 168.633 393.195 C168.633 393.855 168.633 394.515 168.633 395.195 C166.653 395.855 164.673 396.515 162.633 397.195 C162.633 397.855 162.633 398.515 162.633 399.195 C160.983 399.525 159.333 399.855 157.633 400.195 C157.633 400.855 157.633 401.515 157.633 402.195 C157.018 402.293 156.403 402.391 155.77 402.492 C150.752 403.245 150.752 403.245 146.883 406.195 C146.47 406.855 146.058 407.515 145.633 408.195 C143.195 409.32 143.195 409.32 140.633 410.195 C139.292 410.847 137.957 411.51 136.633 412.195 C135.973 412.525 135.313 412.855 134.633 413.195 C134.633 413.525 134.633 413.855 134.633 414.195 C133.849 414.298 133.065 414.402 132.258 414.508 C129.302 414.971 129.302 414.971 127.633 418.195 C126.973 418.525 126.313 418.855 125.633 419.195 C125.633 419.525 125.633 419.855 125.633 420.195 C124.89 420.319 124.148 420.443 123.383 420.57 C120.674 421.066 120.674 421.066 118.57 422.258 C116.633 423.195 116.633 423.195 112.633 423.195 C112.303 424.185 111.973 425.175 111.633 426.195 C110.643 426.525 109.653 426.855 108.633 427.195 C108.633 427.855 108.633 428.515 108.633 429.195 C107.89 429.319 107.148 429.443 106.383 429.57 C103.804 430.157 101.885 430.828 99.633 432.195 C99.303 432.855 98.973 433.515 98.633 434.195 C95.57 434.82 95.57 434.82 92.633 435.195 C92.633 435.855 92.633 436.515 92.633 437.195 C90.58 438.222 88.533 439.241 86.445 440.195 C84.461 441.067 84.461 441.067 83.633 443.195 C81.637 443.55 79.636 443.881 77.633 444.195 C75.286 445.134 73.907 445.898 72.195 447.758 C70.123 449.664 68.381 449.783 65.633 450.195 C62.515 450.842 62.515 450.842 61.633 453.195 C61.303 453.855 60.973 454.515 60.633 455.195 C58.57 455.587 56.538 455.702 54.445 455.852 C53.847 455.965 53.249 456.078 52.633 456.195 C52.303 456.855 51.973 457.515 51.633 458.195 C50.973 458.195 50.313 458.195 49.633 458.195 C49.303 459.185 48.973 460.175 48.633 461.195 C47.973 461.525 47.313 461.855 46.633 462.195 C46.633 462.525 46.633 462.855 46.633 463.195 C44.983 463.525 43.333 463.855 41.633 464.195 C41.633 464.525 41.633 464.855 41.633 465.195 C34.663 466.502 27.704 466.342 20.633 466.32 C19.388 466.324 18.142 466.328 16.859 466.332 C11.02 466.326 5.38 466.273 -0.367 465.195 C-0.697 464.205 -1.027 463.215 -1.367 462.195 C-4.082 459.481 -5.034 459.236 -8.93 458.758 C-10.064 458.572 -11.198 458.387 -12.367 458.195 C-12.697 457.535 -13.027 456.875 -13.367 456.195 C-14.192 456.03 -15.017 455.865 -15.867 455.695 C-16.692 455.53 -17.517 455.365 -18.367 455.195 C-19.034 453.862 -19.701 452.529 -20.367 451.195 C-22.347 451.195 -24.327 451.195 -26.367 451.195 C-26.367 450.865 -26.367 450.535 -26.367 450.195 C-28.017 449.865 -29.667 449.535 -31.367 449.195 C-31.697 448.205 -32.027 447.215 -32.367 446.195 C-34.347 445.865 -36.327 445.535 -38.367 445.195 C-38.367 444.865 -38.367 444.535 -38.367 444.195 C-39.172 444.072 -39.976 443.948 -40.805 443.82 C-42.073 443.511 -42.073 443.511 -43.367 443.195 C-43.697 442.535 -44.027 441.875 -44.367 441.195 C-47.354 439.204 -49.964 438.254 -53.367 437.195 C-53.367 435.545 -53.367 433.895 -53.367 432.195 C-56.667 432.195 -59.967 432.195 -63.367 432.195 C-63.697 431.535 -64.027 430.875 -64.367 430.195 C-66.895 429.54 -66.895 429.54 -69.367 429.195 C-69.367 428.535 -69.367 427.875 -69.367 427.195 C-70.357 426.865 -71.347 426.535 -72.367 426.195 C-72.367 425.205 -72.367 424.215 -72.367 423.195 C-73.043 423.158 -73.718 423.121 -74.414 423.082 C-75.752 422.983 -75.752 422.983 -77.117 422.883 C-77.999 422.825 -78.881 422.767 -79.789 422.707 C-82.738 422.122 -84.1 421.125 -86.367 419.195 C-87.357 418.535 -88.347 417.875 -89.367 417.195 C-89.367 416.535 -89.367 415.875 -89.367 415.195 C-90.316 415.072 -91.265 414.948 -92.242 414.82 C-95.367 414.195 -95.367 414.195 -97.367 412.195 C-98.543 412.03 -99.718 411.865 -100.93 411.695 C-102.064 411.53 -103.198 411.365 -104.367 411.195 C-104.697 410.535 -105.027 409.875 -105.367 409.195 C-107.711 407.807 -109.945 407.014 -112.555 406.195 C-115.367 405.195 -115.367 405.195 -116.367 403.195 C-117.522 403.03 -118.677 402.865 -119.867 402.695 C-121.022 402.53 -122.177 402.365 -123.367 402.195 C-123.697 401.535 -124.027 400.875 -124.367 400.195 C-126.209 398.143 -126.209 398.143 -128.367 397.195 C-129.357 396.535 -130.347 395.875 -131.367 395.195 C-131.367 394.865 -131.367 394.535 -131.367 394.195 C-132.502 394.072 -133.636 393.948 -134.805 393.82 C-135.98 393.614 -137.156 393.408 -138.367 393.195 C-138.697 392.535 -139.027 391.875 -139.367 391.195 C-140.192 391.03 -141.017 390.865 -141.867 390.695 C-142.692 390.53 -143.517 390.365 -144.367 390.195 C-144.697 389.535 -145.027 388.875 -145.367 388.195 C-146.357 387.865 -147.347 387.535 -148.367 387.195 C-149.357 386.865 -150.347 386.535 -151.367 386.195 C-151.367 385.535 -151.367 384.875 -151.367 384.195 C-151.945 384.072 -152.522 383.948 -153.117 383.82 C-155.367 383.195 -155.367 383.195 -157.18 382.258 C-159.549 381.023 -159.549 381.023 -163.055 380.195 C-164.148 379.865 -165.241 379.535 -166.367 379.195 C-166.697 378.535 -167.027 377.875 -167.367 377.195 C-170.74 373.953 -173.844 373.793 -178.367 373.195 C-178.697 372.535 -179.027 371.875 -179.367 371.195 C-181.209 369.143 -181.209 369.143 -183.367 368.195 C-183.862 366.71 -183.862 366.71 -184.367 365.195 C-185.027 365.195 -185.687 365.195 -186.367 365.195 C-186.367 363.875 -186.367 362.555 -186.367 361.195 C-186.986 361.051 -187.605 360.907 -188.242 360.758 C-190.367 360.195 -190.367 360.195 -192.367 359.195 C-192.394 357.091 -192.414 354.987 -192.43 352.883 C-192.441 351.711 -192.453 350.539 -192.465 349.332 C-192.367 346.195 -192.367 346.195 -191.367 343.195 C-191.965 343.072 -192.563 342.948 -193.18 342.82 C-195.367 342.195 -195.367 342.195 -198.367 340.195 C-198.668 337.246 -198.771 334.506 -198.748 331.554 C-198.753 330.648 -198.757 329.743 -198.762 328.81 C-198.774 325.757 -198.765 322.705 -198.755 319.653 C-198.759 317.472 -198.765 315.291 -198.771 313.11 C-198.785 307.172 -198.78 301.234 -198.77 295.296 C-198.763 289.092 -198.77 282.888 -198.774 276.684 C-198.78 265.592 -198.771 254.501 -198.756 243.41 C-198.742 233.352 -198.744 223.294 -198.758 213.236 C-198.774 201.562 -198.78 189.889 -198.771 178.216 C-198.767 172.034 -198.766 165.852 -198.776 159.671 C-198.785 153.858 -198.779 148.045 -198.761 142.232 C-198.757 140.096 -198.759 137.959 -198.765 135.823 C-198.773 132.912 -198.763 130.002 -198.748 127.091 C-198.755 126.24 -198.762 125.389 -198.768 124.513 C-198.735 121.157 -198.601 118.642 -197.031 115.639 C-195.367 114.195 -195.367 114.195 -192.367 114.195 C-192.402 113.436 -192.437 112.677 -192.473 111.895 C-192.5 110.901 -192.527 109.907 -192.555 108.883 C-192.589 107.897 -192.624 106.911 -192.66 105.895 C-192.367 103.195 -192.367 103.195 -191.043 101.34 C-189.367 100.195 -189.367 100.195 -186.367 100.195 C-186.037 99.205 -185.707 98.215 -185.367 97.195 C-183.367 94.195 -183.367 94.195 -180.367 92.195 C-177.472 89.494 -177.472 89.494 -175.367 86.195 C-172.397 86.195 -169.427 86.195 -166.367 86.195 C-165.872 84.71 -165.872 84.71 -165.367 83.195 C-164.872 81.71 -164.872 81.71 -164.367 80.195 C-163.233 80.072 -162.098 79.948 -160.93 79.82 C-159.166 79.511 -159.166 79.511 -157.367 79.195 C-157.037 78.535 -156.707 77.875 -156.367 77.195 C-153.067 77.195 -149.767 77.195 -146.367 77.195 C-146.037 75.215 -145.707 73.235 -145.367 71.195 C-144.625 71.072 -143.882 70.948 -143.117 70.82 C-137.61 69.569 -133.022 66.298 -128.367 63.195 C-128.367 62.865 -128.367 62.535 -128.367 62.195 C-126.717 61.865 -125.067 61.535 -123.367 61.195 C-123.367 60.865 -123.367 60.535 -123.367 60.195 C-122.46 59.907 -121.552 59.618 -120.617 59.32 C-115.093 57.474 -115.093 57.474 -111.367 53.195 C-108.742 52.508 -108.742 52.508 -106.367 52.195 C-106.367 51.535 -106.367 50.875 -106.367 50.195 C-105.46 50.072 -104.552 49.948 -103.617 49.82 C-99.574 49.043 -97.27 48.098 -94.367 45.195 C-94.367 44.865 -94.367 44.535 -94.367 44.195 C-90.902 43.7 -90.902 43.7 -87.367 43.195 C-87.367 42.535 -87.367 41.875 -87.367 41.195 C-85.717 40.865 -84.067 40.535 -82.367 40.195 C-82.367 39.865 -82.367 39.535 -82.367 39.195 C-80.717 38.865 -79.067 38.535 -77.367 38.195 C-77.037 37.205 -76.707 36.215 -76.367 35.195 C-71.417 34.7 -71.417 34.7 -66.367 34.195 C-66.037 33.205 -65.707 32.215 -65.367 31.195 C-65.037 30.535 -64.707 29.875 -64.367 29.195 C-61.805 28.57 -61.805 28.57 -59.367 28.195 C-59.367 27.535 -59.367 26.875 -59.367 26.195 C-56.397 25.7 -56.397 25.7 -53.367 25.195 C-53.367 24.535 -53.367 23.875 -53.367 23.195 C-52.46 22.927 -51.552 22.659 -50.617 22.383 C-47.601 21.281 -45.835 20.169 -43.367 18.195 C-42.645 17.845 -41.923 17.494 -41.18 17.133 C-39.188 16.328 -39.188 16.328 -38.367 14.195 C-36.046 13.788 -33.71 13.451 -31.367 13.195 C-31.367 12.535 -31.367 11.875 -31.367 11.195 C-29.717 10.865 -28.067 10.535 -26.367 10.195 C-26.367 9.535 -26.367 8.875 -26.367 8.195 C-24.387 7.535 -22.407 6.875 -20.367 6.195 C-20.367 5.865 -20.367 5.535 -20.367 5.195 C-19.583 5.072 -18.8 4.948 -17.992 4.82 C-15.227 4.404 -15.227 4.404 -13.367 2.195 C-8.803 0.289 -4.92 -0.041 0 0 Z M-130.367 66.195 C-129.367 68.195 -129.367 68.195 -129.367 68.195 Z M163.633 75.195 C164.633 77.195 164.633 77.195 164.633 77.195 Z M-188.367 101.195 C-184.367 102.195 -184.367 102.195 -184.367 102.195 Z M-191.367 104.195 C-191.367 107.495 -191.367 110.795 -191.367 114.195 C-191.037 114.195 -190.707 114.195 -190.367 114.195 C-190.367 110.895 -190.367 107.595 -190.367 104.195 C-190.697 104.195 -191.027 104.195 -191.367 104.195 Z M-197.367 119.195 C-197.367 192.125 -197.367 265.055 -197.367 340.195 C-197.037 340.195 -196.707 340.195 -196.367 340.195 C-196.367 267.265 -196.367 194.335 -196.367 119.195 C-196.697 119.195 -197.027 119.195 -197.367 119.195 Z M-159.367 379.195 C-155.367 380.195 -155.367 380.195 -155.367 380.195 Z M-71.367 423.195 C-70.367 425.195 -70.367 425.195 -70.367 425.195 Z M-66.367 426.195 C-65.707 426.855 -65.047 427.515 -64.367 428.195 C-64.367 427.535 -64.367 426.875 -64.367 426.195 C-65.027 426.195 -65.687 426.195 -66.367 426.195 Z " fill="#DFC39C" transform="translate(244.3671875,22.8046875)"/>
<path d="M0 0 C7.26 0 14.52 0 22 0 C22 0.99 22 1.98 22 3 C23.65 3 25.3 3 27 3 C27 3.99 27 4.98 27 6 C28.65 6 30.3 6 32 6 C32 6.99 32 7.98 32 9 C33.65 9 35.3 9 37 9 C37 9.99 37 10.98 37 12 C39.64 12 42.28 12 45 12 C45 12.99 45 13.98 45 15 C46.65 15 48.3 15 50 15 C50 15.99 50 16.98 50 18 C51.98 18 53.96 18 56 18 C56 18.99 56 19.98 56 21 C57.32 21 58.64 21 60 21 C60 21.66 60 22.32 60 23 C61.98 23 63.96 23 66 23 C66 23.66 66 24.32 66 25 C66.99 25 67.98 25 69 25 C69 25.66 69 26.32 69 27 C70.98 27 72.96 27 75 27 C75 27.99 75 28.98 75 30 C76.98 30 78.96 30 81 30 C81 30.99 81 31.98 81 33 C82.98 33 84.96 33 87 33 C87 33.99 87 34.98 87 36 C88.65 36 90.3 36 92 36 C92 36.99 92 37.98 92 39 C94.31 39 96.62 39 99 39 C99 39.99 99 40.98 99 42 C100.65 42 102.3 42 104 42 C104 42.99 104 43.98 104 45 C107.96 45.495 107.96 45.495 112 46 C112 46.99 112 47.98 112 49 C113.98 49 115.96 49 118 49 C118 49.66 118 50.32 118 51 C119.98 51 121.96 51 124 51 C124 51.99 124 52.98 124 54 C125.65 54 127.3 54 129 54 C129 55.32 129 56.64 129 58 C130.98 58 132.96 58 135 58 C135 58.66 135 59.32 135 60 C136.98 60 138.96 60 141 60 C141 60.99 141 61.98 141 63 C142.65 63 144.3 63 146 63 C146 63.99 146 64.98 146 66 C147.98 66 149.96 66 152 66 C152 66.99 152 67.98 152 69 C153.98 69 155.96 69 158 69 C158 69.99 158 70.98 158 72 C159.65 72 161.3 72 163 72 C163 72.99 163 73.98 163 75 C164.65 75 166.3 75 168 75 C168 75.99 168 76.98 168 78 C169.98 78 171.96 78 174 78 C174 78.99 174 79.98 174 81 C176.31 81 178.62 81 181 81 C181 81.99 181 82.98 181 84 C182.98 84 184.96 84 187 84 C187 84.66 187 85.32 187 86 C187.99 86 188.98 86 190 86 C190 87.65 190 89.3 190 91 C190.99 91 191.98 91 193 91 C193 95.29 193 99.58 193 104 C192.01 104 191.02 104 190 104 C190 105.32 190 106.64 190 108 C188.35 108 186.7 108 185 108 C185 108.99 185 109.98 185 111 C183.35 111 181.7 111 180 111 C180 111.99 180 112.98 180 114 C178.02 114 176.04 114 174 114 C174 114.99 174 115.98 174 117 C172.35 117 170.7 117 169 117 C169 117.99 169 118.98 169 120 C167.02 119.67 165.04 119.34 163 119 C163 120.32 163 121.64 163 123 C161.02 123 159.04 123 157 123 C157 123.66 157 124.32 157 125 C155.35 125 153.7 125 152 125 C152 125.99 152 126.98 152 128 C150.02 128 148.04 128 146 128 C146 128.99 146 129.98 146 131 C145.196 131.124 144.391 131.248 143.562 131.375 C142.717 131.581 141.871 131.787 141 132 C140.67 132.66 140.34 133.32 140 134 C138.35 134 136.7 134 135 134 C135 134.99 135 135.98 135 137 C133.02 137 131.04 137 129 137 C129 138.32 129 139.64 129 141 C127.35 141 125.7 141 124 141 C124 141.66 124 142.32 124 143 C122.02 143 120.04 143 118 143 C118 144.32 118 145.64 118 147 C116.35 147 114.7 147 113 147 C113 147.99 113 148.98 113 150 C111.02 150 109.04 150 107 150 C107 150.99 107 151.98 107 153 C104.69 153 102.38 153 100 153 C100 153.99 100 154.98 100 156 C98.35 156 96.7 156 95 156 C95 156.66 95 157.32 95 158 C93.02 158 91.04 158 89 158 C89 158.99 89 159.98 89 161 C87.35 161 85.7 161 84 161 C84 161.99 84 162.98 84 164 C82.68 164 81.36 164 80 164 C80 164.99 80 165.98 80 167 C78.02 167 76.04 167 74 167 C74 168.32 74 169.64 74 171 C71.36 171 68.72 171 66 171 C66 171.99 66 172.98 66 174 C64.35 174 62.7 174 61 174 C61 174.99 61 175.98 61 177 C60.01 177 59.02 177 58 177 C58 177.99 58 178.98 58 180 C55.36 180 52.72 180 50 180 C50 180.99 50 181.98 50 183 C48.02 183 46.04 183 44 183 C44 183.99 44 184.98 44 186 C43.01 186 42.02 186 41 186 C40.67 187.98 40.34 189.96 40 192 C39.01 192 38.02 192 37 192 C37 193.32 37 194.64 37 196 C36.34 196 35.68 196 35 196 C35 198.64 35 201.28 35 204 C34.01 204 33.02 204 32 204 C32 226.44 32 248.88 32 272 C30.02 272 28.04 272 26 272 C26 270.02 26 268.04 26 266 C24.02 266 22.04 266 20 266 C20 262.7 20 259.4 20 256 C18.35 256 16.7 256 15 256 C15 252.7 15 249.4 15 246 C13.68 246 12.36 246 11 246 C11 244.02 11 242.04 11 240 C9.68 240 8.36 240 7 240 C7 239.01 7 238.02 7 237 C5.68 237 4.36 237 3 237 C3 235.68 3 234.36 3 233 C1.68 233 0.36 233 -1 233 C-1 231.35 -1 229.7 -1 228 C-3.31 228 -5.62 228 -8 228 C-8 226.68 -8 225.36 -8 224 C-17.57 224 -27.14 224 -37 224 C-37 225.32 -37 226.64 -37 228 C-39.97 228.33 -42.94 228.66 -46 229 C-46.33 230.32 -46.66 231.64 -47 233 C-47.99 233 -48.98 233 -50 233 C-50 234.32 -50 235.64 -50 237 C-51.32 237 -52.64 237 -54 237 C-54 237.99 -54 238.98 -54 240 C-55.65 240 -57.3 240 -59 240 C-59 242.97 -59 245.94 -59 249 C-60.32 249 -61.64 249 -63 249 C-63 261.21 -63 273.42 -63 286 C-61.35 286 -59.7 286 -58 286 C-58 289.3 -58 292.6 -58 296 C-56.68 296 -55.36 296 -54 296 C-54 297.32 -54 298.64 -54 300 C-52.68 300 -51.36 300 -50 300 C-50 301.32 -50 302.64 -50 304 C-49.01 304 -48.02 304 -47 304 C-47 304.99 -47 305.98 -47 307 C-45.68 307 -44.36 307 -43 307 C-43 308.65 -43 310.3 -43 312 C-41.02 312 -39.04 312 -37 312 C-37 313.65 -37 315.3 -37 317 C-34.03 317 -31.06 317 -28 317 C-28 321.95 -28 326.9 -28 332 C-27.01 332 -26.02 332 -25 332 C-25 332.99 -25 333.98 -25 335 C-24.34 335 -23.68 335 -23 335 C-23 335.99 -23 336.98 -23 338 C-21.02 338 -19.04 338 -17 338 C-17 338.99 -17 339.98 -17 341 C-18.98 341 -20.96 341 -23 341 C-23 342.65 -23 344.3 -23 346 C-24.65 346 -26.3 346 -28 346 C-28 347.32 -28 348.64 -28 350 C-29.32 350 -30.64 350 -32 350 C-32 351.65 -32 353.3 -32 355 C-33.65 355 -35.3 355 -37 355 C-37 356.32 -37 357.64 -37 359 C-38.65 359 -40.3 359 -42 359 C-42 366.92 -42 374.84 -42 383 C-40.35 383 -38.7 383 -37 383 C-37 384.65 -37 386.3 -37 388 C-35.35 388 -33.7 388 -32 388 C-32 389.32 -32 390.64 -32 392 C-30.68 392 -29.36 392 -28 392 C-28 393.32 -28 394.64 -28 396 C-26.35 396 -24.7 396 -23 396 C-23 397.65 -23 399.3 -23 401 C-16.07 401 -9.14 401 -2 401 C-2 399.35 -2 397.7 -2 396 C-0.02 396 1.96 396 4 396 C4 396.99 4 397.98 4 399 C4.99 399 5.98 399 7 399 C7 400.32 7 401.64 7 403 C8.32 403 9.64 403 11 403 C11 406.96 11 410.92 11 415 C11.99 415 12.98 415 14 415 C14 416.32 14 417.64 14 419 C15.98 419 17.96 419 20 419 C20 420.65 20 422.3 20 424 C22.31 424 24.62 424 27 424 C27 424.66 27 425.32 27 426 C26.01 426 25.02 426 24 426 C24 426.99 24 427.98 24 429 C20.37 429 16.74 429 13 429 C13 428.01 13 427.02 13 426 C11.68 426 10.36 426 9 426 C9 425.01 9 424.02 9 423 C7.02 423 5.04 423 3 423 C3 422.01 3 421.02 3 420 C0.69 420 -1.62 420 -4 420 C-4 419.01 -4 418.02 -4 417 C-5.65 417 -7.3 417 -9 417 C-9 416.01 -9 415.02 -9 414 C-10.65 414 -12.3 414 -14 414 C-14 413.01 -14 412.02 -14 411 C-15.98 411 -17.96 411 -20 411 C-20 410.34 -20 409.68 -20 409 C-21.98 409 -23.96 409 -26 409 C-26 408.01 -26 407.02 -26 406 C-28.64 406 -31.28 406 -34 406 C-34 405.01 -34 404.02 -34 403 C-34.99 403 -35.98 403 -37 403 C-37 402.01 -37 401.02 -37 400 C-38.32 400 -39.64 400 -41 400 C-41 399.01 -41 398.02 -41 397 C-43.64 397 -46.28 397 -49 397 C-49 396.34 -49 395.68 -49 395 C-50.98 394.67 -52.96 394.34 -55 394 C-55 393.01 -55 392.02 -55 391 C-56.32 391 -57.64 391 -59 391 C-59 390.34 -59 389.68 -59 389 C-61.31 388.67 -63.62 388.34 -66 388 C-66 387.01 -66 386.02 -66 385 C-67.98 385 -69.96 385 -72 385 C-72 384.34 -72 383.68 -72 383 C-73.98 383 -75.96 383 -78 383 C-78 382.01 -78 381.02 -78 380 C-79.32 380 -80.64 380 -82 380 C-82 378.68 -82 377.36 -82 376 C-84.31 376 -86.62 376 -89 376 C-89 375.34 -89 374.68 -89 374 C-90.65 374 -92.3 374 -94 374 C-94.33 373.34 -94.66 372.68 -95 372 C-97.527 371.344 -97.527 371.344 -100 371 C-100 370.01 -100 369.02 -100 368 C-101.98 368 -103.96 368 -106 368 C-106 367.01 -106 366.02 -106 365 C-108.64 365 -111.28 365 -114 365 C-114 364.01 -114 363.02 -114 362 C-115.98 362 -117.96 362 -120 362 C-120 361.01 -120 360.02 -120 359 C-120.66 359 -121.32 359 -122 359 C-122 358.01 -122 357.02 -122 356 C-123.98 356 -125.96 356 -128 356 C-128 355.01 -128 354.02 -128 353 C-129.65 353 -131.3 353 -133 353 C-133 352.01 -133 351.02 -133 350 C-134.98 350 -136.96 350 -139 350 C-139 349.34 -139 348.68 -139 348 C-141.31 348 -143.62 348 -146 348 C-146 347.34 -146 346.68 -146 346 C-146.66 346 -147.32 346 -148 346 C-148 345.34 -148 344.68 -148 344 C-149.32 344 -150.64 344 -152 344 C-152 343.01 -152 342.02 -152 341 C-153.65 341 -155.3 341 -157 341 C-157 340.34 -157 339.68 -157 339 C-158.32 338.67 -159.64 338.34 -161 338 C-161 337.34 -161 336.68 -161 336 C-161.99 336 -162.98 336 -164 336 C-164 334.68 -164 333.36 -164 332 C-165.98 332.33 -167.96 332.66 -170 333 C-170 330.69 -170 328.38 -170 326 C-171.98 326 -173.96 326 -176 326 C-176 253.4 -176 180.8 -176 106 C-174.02 106 -172.04 106 -170 106 C-170 101.38 -170 96.76 -170 92 C-168.02 92 -166.04 92 -164 92 C-164 91.34 -164 90.68 -164 90 C-161.69 90 -159.38 90 -157 90 C-157 89.01 -157 88.02 -157 87 C-155.02 87 -153.04 87 -151 87 C-151 86.01 -151 85.02 -151 84 C-150.01 84 -149.02 84 -148 84 C-148 83.01 -148 82.02 -148 81 C-146.35 81 -144.7 81 -143 81 C-143 80.01 -143 79.02 -143 78 C-141.35 78 -139.7 78 -138 78 C-138 77.01 -138 76.02 -138 75 C-136.02 75 -134.04 75 -132 75 C-132 74.01 -132 73.02 -132 72 C-130.35 72 -128.7 72 -127 72 C-127 71.01 -127 70.02 -127 69 C-125.35 69 -123.7 69 -122 69 C-122 68.01 -122 67.02 -122 66 C-120.35 66 -118.7 66 -117 66 C-117 65.01 -117 64.02 -117 63 C-115.02 63 -113.04 63 -111 63 C-111 62.01 -111 61.02 -111 60 C-109.35 60 -107.7 60 -106 60 C-106 59.01 -106 58.02 -106 57 C-104.35 57 -102.7 57 -101 57 C-101 56.01 -101 55.02 -101 54 C-98.69 54 -96.38 54 -94 54 C-94 53.01 -94 52.02 -94 51 C-92.02 51 -90.04 51 -88 51 C-88 50.34 -88 49.68 -88 49 C-86.35 48.67 -84.7 48.34 -83 48 C-82.67 47.01 -82.34 46.02 -82 45 C-81.01 45 -80.02 45 -79 45 C-79 44.01 -79 43.02 -79 42 C-77.02 42 -75.04 42 -73 42 C-73 41.01 -73 40.02 -73 39 C-70.03 39 -67.06 39 -64 39 C-64 38.01 -64 37.02 -64 36 C-63.01 36 -62.02 36 -61 36 C-61 35.01 -61 34.02 -61 33 C-59.02 33 -57.04 33 -55 33 C-55 32.01 -55 31.02 -55 30 C-52.03 30 -49.06 30 -46 30 C-46 29.01 -46 28.02 -46 27 C-44.35 27 -42.7 27 -41 27 C-41 26.01 -41 25.02 -41 24 C-38.69 24 -36.38 24 -34 24 C-34 23.01 -34 22.02 -34 21 C-32.02 21 -30.04 21 -28 21 C-28 20.01 -28 19.02 -28 18 C-27.01 18 -26.02 18 -25 18 C-25 17.01 -25 16.02 -25 15 C-23.02 15 -21.04 15 -19 15 C-19 14.01 -19 13.02 -19 12 C-17.35 12 -15.7 12 -14 12 C-14 11.01 -14 10.02 -14 9 C-12.02 9 -10.04 9 -8 9 C-8 8.01 -8 7.02 -8 6 C-6.35 6 -4.7 6 -3 6 C-3 5.01 -3 4.02 -3 3 C-2.01 3 -1.02 3 0 3 C0 2.01 0 1.02 0 0 Z " fill="#FBEFD3" transform="translate(238,37)"/>
<path d="M0 0 C1.019 0.004 1.019 0.004 2.059 0.009 C4.209 0.02 6.358 0.045 8.508 0.07 C9.974 0.08 11.44 0.089 12.906 0.098 C16.482 0.12 20.057 0.154 23.633 0.195 C23.633 0.855 23.633 1.515 23.633 2.195 C25.283 2.195 26.933 2.195 28.633 2.195 C28.963 2.855 29.293 3.515 29.633 4.195 C30.21 4.484 30.788 4.773 31.383 5.07 C34.126 6.442 36.267 8.254 38.633 10.195 C41.691 12.234 43.037 13.108 46.633 13.633 C49.633 14.195 49.633 14.195 51.633 16.195 C54.405 18.133 54.405 18.133 56.633 19.195 C59.756 20.757 62.719 22.253 65.633 24.195 C67.766 25.42 67.766 25.42 71.008 25.445 C74.633 26.195 74.633 26.195 77.07 28.57 C78.633 31.195 78.633 31.195 78.633 34.195 C80.272 34.133 80.272 34.133 81.945 34.07 C85.633 34.195 85.633 34.195 88.633 36.195 C88.963 36.855 89.293 37.515 89.633 38.195 C91.759 38.662 91.759 38.662 94.195 38.82 C95.022 38.895 95.848 38.97 96.699 39.047 C97.337 39.096 97.975 39.145 98.633 39.195 C98.633 39.525 98.633 39.855 98.633 40.195 C100.283 40.525 101.933 40.855 103.633 41.195 C103.633 41.855 103.633 42.515 103.633 43.195 C105.613 43.525 107.593 43.855 109.633 44.195 C109.633 44.855 109.633 45.515 109.633 46.195 C111.283 46.855 112.933 47.515 114.633 48.195 C114.633 48.525 114.633 48.855 114.633 49.195 C118.593 49.69 118.593 49.69 122.633 50.195 C122.633 50.855 122.633 51.515 122.633 52.195 C123.767 52.319 124.902 52.443 126.07 52.57 C127.246 52.777 128.422 52.983 129.633 53.195 C130.299 54.529 130.966 55.862 131.633 57.195 C132.623 57.525 133.613 57.855 134.633 58.195 C135.293 58.525 135.953 58.855 136.633 59.195 C137.313 59.505 137.994 59.814 138.695 60.133 C140.633 61.195 140.633 61.195 141.633 63.195 C143.681 64.03 143.681 64.03 146.07 64.695 C150.416 65.979 150.416 65.979 152.633 68.195 C155.203 68.843 155.203 68.843 157.633 69.195 C157.633 69.525 157.633 69.855 157.633 70.195 C158.839 70.381 158.839 70.381 160.07 70.57 C160.916 70.777 161.762 70.983 162.633 71.195 C162.963 71.855 163.293 72.515 163.633 73.195 C164.293 73.525 164.953 73.855 165.633 74.195 C165.633 75.185 165.633 76.175 165.633 77.195 C168.603 77.195 171.573 77.195 174.633 77.195 C174.963 77.855 175.293 78.515 175.633 79.195 C176.623 79.36 177.613 79.525 178.633 79.695 C179.623 79.86 180.613 80.025 181.633 80.195 C182.633 82.196 183.127 84.027 183.633 86.195 C184.331 86.172 185.03 86.149 185.75 86.125 C186.66 86.107 187.57 86.089 188.508 86.07 C189.413 86.047 190.318 86.024 191.25 86 C193.633 86.195 193.633 86.195 195.633 88.195 C196.958 88.878 198.291 89.546 199.633 90.195 C199.963 90.525 200.293 90.855 200.633 91.195 C201.623 91.835 202.613 92.474 203.633 93.133 C207.248 95.618 207.679 97.11 208.633 101.195 C209.252 101.34 209.87 101.484 210.508 101.633 C212.633 102.195 212.633 102.195 214.633 103.195 C214.633 108.805 214.633 114.415 214.633 120.195 C215.953 120.195 217.273 120.195 218.633 120.195 C218.633 195.765 218.633 271.335 218.633 349.195 C217.313 349.195 215.993 349.195 214.633 349.195 C214.633 354.475 214.633 359.755 214.633 365.195 C213.973 365.525 213.313 365.855 212.633 366.195 C209.384 367.918 209.384 367.918 208.633 371.195 C206.758 373.383 206.758 373.383 204.633 375.195 C203.643 375.195 202.653 375.195 201.633 375.195 C201.303 375.855 200.973 376.515 200.633 377.195 C199.011 380.438 195.882 380.884 192.633 382.195 C191.358 382.833 190.086 383.478 188.82 384.133 C186.633 385.195 186.633 385.195 184.07 386.195 C181.442 387.18 181.442 387.18 178.633 389.195 C175.426 390.965 172.118 392.086 168.633 393.195 C168.633 393.855 168.633 394.515 168.633 395.195 C166.653 395.855 164.673 396.515 162.633 397.195 C162.633 397.855 162.633 398.515 162.633 399.195 C160.983 399.525 159.333 399.855 157.633 400.195 C157.633 400.855 157.633 401.515 157.633 402.195 C157.018 402.293 156.403 402.391 155.77 402.492 C150.752 403.245 150.752 403.245 146.883 406.195 C146.47 406.855 146.058 407.515 145.633 408.195 C143.195 409.32 143.195 409.32 140.633 410.195 C139.292 410.847 137.957 411.51 136.633 412.195 C135.973 412.525 135.313 412.855 134.633 413.195 C134.633 413.525 134.633 413.855 134.633 414.195 C133.849 414.298 133.065 414.402 132.258 414.508 C129.302 414.971 129.302 414.971 127.633 418.195 C126.973 418.525 126.313 418.855 125.633 419.195 C125.633 419.525 125.633 419.855 125.633 420.195 C124.89 420.319 124.148 420.443 123.383 420.57 C120.674 421.066 120.674 421.066 118.57 422.258 C116.633 423.195 116.633 423.195 112.633 423.195 C112.303 424.185 111.973 425.175 111.633 426.195 C110.643 426.525 109.653 426.855 108.633 427.195 C108.633 427.855 108.633 428.515 108.633 429.195 C107.89 429.319 107.148 429.443 106.383 429.57 C103.804 430.157 101.885 430.828 99.633 432.195 C99.303 432.855 98.973 433.515 98.633 434.195 C95.57 434.82 95.57 434.82 92.633 435.195 C92.633 435.855 92.633 436.515 92.633 437.195 C90.58 438.222 88.533 439.241 86.445 440.195 C84.461 441.067 84.461 441.067 83.633 443.195 C81.637 443.55 79.636 443.881 77.633 444.195 C75.286 445.134 73.907 445.898 72.195 447.758 C70.123 449.664 68.381 449.783 65.633 450.195 C62.515 450.842 62.515 450.842 61.633 453.195 C61.303 453.855 60.973 454.515 60.633 455.195 C58.57 455.587 56.538 455.702 54.445 455.852 C53.847 455.965 53.249 456.078 52.633 456.195 C52.303 456.855 51.973 457.515 51.633 458.195 C50.973 458.195 50.313 458.195 49.633 458.195 C49.303 459.185 48.973 460.175 48.633 461.195 C47.973 461.525 47.313 461.855 46.633 462.195 C46.633 462.525 46.633 462.855 46.633 463.195 C44.983 463.525 43.333 463.855 41.633 464.195 C41.633 464.525 41.633 464.855 41.633 465.195 C34.663 466.502 27.704 466.342 20.633 466.32 C19.388 466.324 18.142 466.328 16.859 466.332 C11.02 466.326 5.38 466.273 -0.367 465.195 C-0.697 464.205 -1.027 463.215 -1.367 462.195 C-4.082 459.481 -5.034 459.236 -8.93 458.758 C-10.064 458.572 -11.198 458.387 -12.367 458.195 C-12.697 457.535 -13.027 456.875 -13.367 456.195 C-14.192 456.03 -15.017 455.865 -15.867 455.695 C-16.692 455.53 -17.517 455.365 -18.367 455.195 C-19.034 453.862 -19.701 452.529 -20.367 451.195 C-22.347 451.195 -24.327 451.195 -26.367 451.195 C-26.367 450.865 -26.367 450.535 -26.367 450.195 C-28.017 449.865 -29.667 449.535 -31.367 449.195 C-31.697 448.205 -32.027 447.215 -32.367 446.195 C-34.347 445.865 -36.327 445.535 -38.367 445.195 C-38.367 444.865 -38.367 444.535 -38.367 444.195 C-39.172 444.072 -39.976 443.948 -40.805 443.82 C-42.073 443.511 -42.073 443.511 -43.367 443.195 C-43.697 442.535 -44.027 441.875 -44.367 441.195 C-47.354 439.204 -49.964 438.254 -53.367 437.195 C-53.367 435.545 -53.367 433.895 -53.367 432.195 C-56.667 432.195 -59.967 432.195 -63.367 432.195 C-63.697 431.535 -64.027 430.875 -64.367 430.195 C-66.895 429.54 -66.895 429.54 -69.367 429.195 C-69.367 428.535 -69.367 427.875 -69.367 427.195 C-70.357 426.865 -71.347 426.535 -72.367 426.195 C-72.367 425.205 -72.367 424.215 -72.367 423.195 C-73.043 423.158 -73.718 423.121 -74.414 423.082 C-75.752 422.983 -75.752 422.983 -77.117 422.883 C-77.999 422.825 -78.881 422.767 -79.789 422.707 C-82.738 422.122 -84.1 421.125 -86.367 419.195 C-87.357 418.535 -88.347 417.875 -89.367 417.195 C-89.367 416.535 -89.367 415.875 -89.367 415.195 C-90.316 415.072 -91.265 414.948 -92.242 414.82 C-95.367 414.195 -95.367 414.195 -97.367 412.195 C-98.543 412.03 -99.718 411.865 -100.93 411.695 C-102.064 411.53 -103.198 411.365 -104.367 411.195 C-104.697 410.535 -105.027 409.875 -105.367 409.195 C-107.711 407.807 -109.945 407.014 -112.555 406.195 C-115.367 405.195 -115.367 405.195 -116.367 403.195 C-117.522 403.03 -118.677 402.865 -119.867 402.695 C-121.022 402.53 -122.177 402.365 -123.367 402.195 C-123.697 401.535 -124.027 400.875 -124.367 400.195 C-126.209 398.143 -126.209 398.143 -128.367 397.195 C-129.357 396.535 -130.347 395.875 -131.367 395.195 C-131.367 394.865 -131.367 394.535 -131.367 394.195 C-132.502 394.072 -133.636 393.948 -134.805 393.82 C-135.98 393.614 -137.156 393.408 -138.367 393.195 C-138.697 392.535 -139.027 391.875 -139.367 391.195 C-140.192 391.03 -141.017 390.865 -141.867 390.695 C-142.692 390.53 -143.517 390.365 -144.367 390.195 C-144.697 389.535 -145.027 388.875 -145.367 388.195 C-146.357 387.865 -147.347 387.535 -148.367 387.195 C-149.357 386.865 -150.347 386.535 -151.367 386.195 C-151.367 385.535 -151.367 384.875 -151.367 384.195 C-151.945 384.072 -152.522 383.948 -153.117 383.82 C-155.367 383.195 -155.367 383.195 -157.18 382.258 C-159.549 381.023 -159.549 381.023 -163.055 380.195 C-164.148 379.865 -165.241 379.535 -166.367 379.195 C-166.697 378.535 -167.027 377.875 -167.367 377.195 C-170.74 373.953 -173.844 373.793 -178.367 373.195 C-178.697 372.535 -179.027 371.875 -179.367 371.195 C-181.209 369.143 -181.209 369.143 -183.367 368.195 C-183.862 366.71 -183.862 366.71 -184.367 365.195 C-185.027 365.195 -185.687 365.195 -186.367 365.195 C-186.367 363.875 -186.367 362.555 -186.367 361.195 C-186.986 361.051 -187.605 360.907 -188.242 360.758 C-190.367 360.195 -190.367 360.195 -192.367 359.195 C-192.394 357.091 -192.414 354.987 -192.43 352.883 C-192.441 351.711 -192.453 350.539 -192.465 349.332 C-192.367 346.195 -192.367 346.195 -191.367 343.195 C-191.965 343.072 -192.563 342.948 -193.18 342.82 C-195.367 342.195 -195.367 342.195 -198.367 340.195 C-198.668 337.246 -198.771 334.506 -198.748 331.554 C-198.753 330.648 -198.757 329.743 -198.762 328.81 C-198.774 325.757 -198.765 322.705 -198.755 319.653 C-198.759 317.472 -198.765 315.291 -198.771 313.11 C-198.785 307.172 -198.78 301.234 -198.77 295.296 C-198.763 289.092 -198.77 282.888 -198.774 276.684 C-198.78 265.592 -198.771 254.501 -198.756 243.41 C-198.742 233.352 -198.744 223.294 -198.758 213.236 C-198.774 201.562 -198.78 189.889 -198.771 178.216 C-198.767 172.034 -198.766 165.852 -198.776 159.671 C-198.785 153.858 -198.779 148.045 -198.761 142.232 C-198.757 140.096 -198.759 137.959 -198.765 135.823 C-198.773 132.912 -198.763 130.002 -198.748 127.091 C-198.755 126.24 -198.762 125.389 -198.768 124.513 C-198.735 121.157 -198.601 118.642 -197.031 115.639 C-195.367 114.195 -195.367 114.195 -192.367 114.195 C-192.402 113.436 -192.437 112.677 -192.473 111.895 C-192.5 110.901 -192.527 109.907 -192.555 108.883 C-192.589 107.897 -192.624 106.911 -192.66 105.895 C-192.367 103.195 -192.367 103.195 -191.043 101.34 C-189.367 100.195 -189.367 100.195 -186.367 100.195 C-186.037 99.205 -185.707 98.215 -185.367 97.195 C-183.367 94.195 -183.367 94.195 -180.367 92.195 C-177.472 89.494 -177.472 89.494 -175.367 86.195 C-172.397 86.195 -169.427 86.195 -166.367 86.195 C-165.872 84.71 -165.872 84.71 -165.367 83.195 C-164.872 81.71 -164.872 81.71 -164.367 80.195 C-163.233 80.072 -162.098 79.948 -160.93 79.82 C-159.166 79.511 -159.166 79.511 -157.367 79.195 C-157.037 78.535 -156.707 77.875 -156.367 77.195 C-153.067 77.195 -149.767 77.195 -146.367 77.195 C-146.037 75.215 -145.707 73.235 -145.367 71.195 C-144.625 71.072 -143.882 70.948 -143.117 70.82 C-137.61 69.569 -133.022 66.298 -128.367 63.195 C-128.367 62.865 -128.367 62.535 -128.367 62.195 C-126.717 61.865 -125.067 61.535 -123.367 61.195 C-123.367 60.865 -123.367 60.535 -123.367 60.195 C-122.46 59.907 -121.552 59.618 -120.617 59.32 C-115.093 57.474 -115.093 57.474 -111.367 53.195 C-108.742 52.508 -108.742 52.508 -106.367 52.195 C-106.367 51.535 -106.367 50.875 -106.367 50.195 C-105.46 50.072 -104.552 49.948 -103.617 49.82 C-99.574 49.043 -97.27 48.098 -94.367 45.195 C-94.367 44.865 -94.367 44.535 -94.367 44.195 C-90.902 43.7 -90.902 43.7 -87.367 43.195 C-87.367 42.535 -87.367 41.875 -87.367 41.195 C-85.717 40.865 -84.067 40.535 -82.367 40.195 C-82.367 39.865 -82.367 39.535 -82.367 39.195 C-80.717 38.865 -79.067 38.535 -77.367 38.195 C-77.037 37.205 -76.707 36.215 -76.367 35.195 C-71.417 34.7 -71.417 34.7 -66.367 34.195 C-66.037 33.205 -65.707 32.215 -65.367 31.195 C-65.037 30.535 -64.707 29.875 -64.367 29.195 C-61.805 28.57 -61.805 28.57 -59.367 28.195 C-59.367 27.535 -59.367 26.875 -59.367 26.195 C-56.397 25.7 -56.397 25.7 -53.367 25.195 C-53.367 24.535 -53.367 23.875 -53.367 23.195 C-52.46 22.927 -51.552 22.659 -50.617 22.383 C-47.601 21.281 -45.835 20.169 -43.367 18.195 C-42.645 17.845 -41.923 17.494 -41.18 17.133 C-39.188 16.328 -39.188 16.328 -38.367 14.195 C-36.046 13.788 -33.71 13.451 -31.367 13.195 C-31.367 12.535 -31.367 11.875 -31.367 11.195 C-29.717 10.865 -28.067 10.535 -26.367 10.195 C-26.367 9.535 -26.367 8.875 -26.367 8.195 C-24.387 7.535 -22.407 6.875 -20.367 6.195 C-20.367 5.865 -20.367 5.535 -20.367 5.195 C-19.583 5.072 -18.8 4.948 -17.992 4.82 C-15.227 4.404 -15.227 4.404 -13.367 2.195 C-8.803 0.289 -4.92 -0.041 0 0 Z M-6.367 14.195 C-6.367 15.185 -6.367 16.175 -6.367 17.195 C-7.357 17.195 -8.347 17.195 -9.367 17.195 C-9.367 18.185 -9.367 19.175 -9.367 20.195 C-11.017 20.195 -12.667 20.195 -14.367 20.195 C-14.367 21.185 -14.367 22.175 -14.367 23.195 C-16.347 23.195 -18.327 23.195 -20.367 23.195 C-20.367 24.185 -20.367 25.175 -20.367 26.195 C-22.017 26.195 -23.667 26.195 -25.367 26.195 C-25.367 27.185 -25.367 28.175 -25.367 29.195 C-27.347 29.195 -29.327 29.195 -31.367 29.195 C-31.367 30.185 -31.367 31.175 -31.367 32.195 C-32.357 32.195 -33.347 32.195 -34.367 32.195 C-34.367 33.185 -34.367 34.175 -34.367 35.195 C-36.347 35.195 -38.327 35.195 -40.367 35.195 C-40.367 36.185 -40.367 37.175 -40.367 38.195 C-42.677 38.195 -44.987 38.195 -47.367 38.195 C-47.367 39.185 -47.367 40.175 -47.367 41.195 C-49.017 41.195 -50.667 41.195 -52.367 41.195 C-52.367 42.185 -52.367 43.175 -52.367 44.195 C-55.337 44.195 -58.307 44.195 -61.367 44.195 C-61.367 45.185 -61.367 46.175 -61.367 47.195 C-63.347 47.195 -65.327 47.195 -67.367 47.195 C-67.367 48.185 -67.367 49.175 -67.367 50.195 C-68.357 50.195 -69.347 50.195 -70.367 50.195 C-70.367 51.185 -70.367 52.175 -70.367 53.195 C-73.337 53.195 -76.307 53.195 -79.367 53.195 C-79.367 54.185 -79.367 55.175 -79.367 56.195 C-81.347 56.195 -83.327 56.195 -85.367 56.195 C-85.367 57.185 -85.367 58.175 -85.367 59.195 C-86.357 59.195 -87.347 59.195 -88.367 59.195 C-88.697 60.185 -89.027 61.175 -89.367 62.195 C-91.017 62.525 -92.667 62.855 -94.367 63.195 C-94.367 63.855 -94.367 64.515 -94.367 65.195 C-96.347 65.195 -98.327 65.195 -100.367 65.195 C-100.367 66.185 -100.367 67.175 -100.367 68.195 C-102.677 68.195 -104.987 68.195 -107.367 68.195 C-107.367 69.185 -107.367 70.175 -107.367 71.195 C-109.017 71.195 -110.667 71.195 -112.367 71.195 C-112.367 72.185 -112.367 73.175 -112.367 74.195 C-114.017 74.195 -115.667 74.195 -117.367 74.195 C-117.367 75.185 -117.367 76.175 -117.367 77.195 C-119.347 77.195 -121.327 77.195 -123.367 77.195 C-123.367 78.185 -123.367 79.175 -123.367 80.195 C-125.017 80.195 -126.667 80.195 -128.367 80.195 C-128.367 81.185 -128.367 82.175 -128.367 83.195 C-130.017 83.195 -131.667 83.195 -133.367 83.195 C-133.367 84.185 -133.367 85.175 -133.367 86.195 C-135.017 86.195 -136.667 86.195 -138.367 86.195 C-138.367 87.185 -138.367 88.175 -138.367 89.195 C-140.347 89.195 -142.327 89.195 -144.367 89.195 C-144.367 90.185 -144.367 91.175 -144.367 92.195 C-146.017 92.195 -147.667 92.195 -149.367 92.195 C-149.367 93.185 -149.367 94.175 -149.367 95.195 C-151.017 95.195 -152.667 95.195 -154.367 95.195 C-154.367 96.185 -154.367 97.175 -154.367 98.195 C-155.357 98.195 -156.347 98.195 -157.367 98.195 C-157.367 99.185 -157.367 100.175 -157.367 101.195 C-159.347 101.195 -161.327 101.195 -163.367 101.195 C-163.367 102.185 -163.367 103.175 -163.367 104.195 C-165.677 104.195 -167.987 104.195 -170.367 104.195 C-170.367 104.855 -170.367 105.515 -170.367 106.195 C-172.347 106.195 -174.327 106.195 -176.367 106.195 C-176.367 110.815 -176.367 115.435 -176.367 120.195 C-178.677 120.195 -180.987 120.195 -183.367 120.195 C-183.367 193.125 -183.367 266.055 -183.367 341.195 C-181.387 341.195 -179.407 341.195 -177.367 341.195 C-177.367 344.825 -177.367 348.455 -177.367 352.195 C-176.377 352.195 -175.387 352.195 -174.367 352.195 C-174.367 353.185 -174.367 354.175 -174.367 355.195 C-172.717 355.195 -171.067 355.195 -169.367 355.195 C-169.367 356.185 -169.367 357.175 -169.367 358.195 C-167.387 358.195 -165.407 358.195 -163.367 358.195 C-163.367 359.185 -163.367 360.175 -163.367 361.195 C-161.717 361.195 -160.067 361.195 -158.367 361.195 C-158.367 363.175 -158.367 365.155 -158.367 367.195 C-155.397 367.195 -152.427 367.195 -149.367 367.195 C-149.367 368.185 -149.367 369.175 -149.367 370.195 C-148.047 370.195 -146.727 370.195 -145.367 370.195 C-145.367 371.185 -145.367 372.175 -145.367 373.195 C-143.717 373.195 -142.067 373.195 -140.367 373.195 C-140.367 374.185 -140.367 375.175 -140.367 376.195 C-138.387 376.195 -136.407 376.195 -134.367 376.195 C-134.367 377.185 -134.367 378.175 -134.367 379.195 C-132.387 379.195 -130.407 379.195 -128.367 379.195 C-128.367 380.185 -128.367 381.175 -128.367 382.195 C-126.717 382.195 -125.067 382.195 -123.367 382.195 C-123.367 383.185 -123.367 384.175 -123.367 385.195 C-121.387 385.195 -119.407 385.195 -117.367 385.195 C-117.367 385.855 -117.367 386.515 -117.367 387.195 C-114.727 387.525 -112.087 387.855 -109.367 388.195 C-109.367 389.185 -109.367 390.175 -109.367 391.195 C-107.387 391.195 -105.407 391.195 -103.367 391.195 C-103.367 391.855 -103.367 392.515 -103.367 393.195 C-101.387 393.195 -99.407 393.195 -97.367 393.195 C-97.367 394.185 -97.367 395.175 -97.367 396.195 C-96.377 396.195 -95.387 396.195 -94.367 396.195 C-94.367 397.185 -94.367 398.175 -94.367 399.195 C-91.397 399.195 -88.427 399.195 -85.367 399.195 C-85.367 400.185 -85.367 401.175 -85.367 402.195 C-83.717 402.195 -82.067 402.195 -80.367 402.195 C-80.367 403.185 -80.367 404.175 -80.367 405.195 C-78.717 405.195 -77.067 405.195 -75.367 405.195 C-75.367 406.185 -75.367 407.175 -75.367 408.195 C-73.717 408.195 -72.067 408.195 -70.367 408.195 C-70.367 409.185 -70.367 410.175 -70.367 411.195 C-68.387 411.195 -66.407 411.195 -64.367 411.195 C-64.367 412.185 -64.367 413.175 -64.367 414.195 C-62.387 414.195 -60.407 414.195 -58.367 414.195 C-58.367 415.185 -58.367 416.175 -58.367 417.195 C-56.717 417.195 -55.067 417.195 -53.367 417.195 C-53.367 418.185 -53.367 419.175 -53.367 420.195 C-52.047 420.195 -50.727 420.195 -49.367 420.195 C-49.367 420.855 -49.367 421.515 -49.367 422.195 C-47.387 422.195 -45.407 422.195 -43.367 422.195 C-43.367 423.185 -43.367 424.175 -43.367 425.195 C-42.728 425.319 -42.088 425.443 -41.43 425.57 C-40.749 425.777 -40.068 425.983 -39.367 426.195 C-39.037 426.855 -38.707 427.515 -38.367 428.195 C-37.047 428.195 -35.727 428.195 -34.367 428.195 C-34.367 428.855 -34.367 429.515 -34.367 430.195 C-31.727 430.525 -29.087 430.855 -26.367 431.195 C-26.367 432.185 -26.367 433.175 -26.367 434.195 C-24.387 434.195 -22.407 434.195 -20.367 434.195 C-20.367 435.185 -20.367 436.175 -20.367 437.195 C-18.717 437.195 -17.067 437.195 -15.367 437.195 C-15.367 438.185 -15.367 439.175 -15.367 440.195 C-13.387 440.195 -11.407 440.195 -9.367 440.195 C-9.367 441.185 -9.367 442.175 -9.367 443.195 C-7.057 443.195 -4.747 443.195 -2.367 443.195 C-2.367 443.855 -2.367 444.515 -2.367 445.195 C-0.387 445.195 1.593 445.195 3.633 445.195 C3.633 446.185 3.633 447.175 3.633 448.195 C4.953 448.195 6.273 448.195 7.633 448.195 C7.633 449.515 7.633 450.835 7.633 452.195 C16.213 452.195 24.793 452.195 33.633 452.195 C33.633 450.875 33.633 449.555 33.633 448.195 C35.283 448.195 36.933 448.195 38.633 448.195 C38.633 447.535 38.633 446.875 38.633 446.195 C40.283 446.195 41.933 446.195 43.633 446.195 C43.633 445.205 43.633 444.215 43.633 443.195 C45.283 443.195 46.933 443.195 48.633 443.195 C48.633 442.205 48.633 441.215 48.633 440.195 C50.613 440.195 52.593 440.195 54.633 440.195 C54.633 439.205 54.633 438.215 54.633 437.195 C56.283 437.195 57.933 437.195 59.633 437.195 C59.633 436.205 59.633 435.215 59.633 434.195 C61.283 434.195 62.933 434.195 64.633 434.195 C64.633 433.205 64.633 432.215 64.633 431.195 C66.613 431.195 68.593 431.195 70.633 431.195 C70.633 430.205 70.633 429.215 70.633 428.195 C72.613 428.195 74.593 428.195 76.633 428.195 C76.633 427.535 76.633 426.875 76.633 426.195 C77.953 425.865 79.273 425.535 80.633 425.195 C80.633 424.535 80.633 423.875 80.633 423.195 C82.283 423.195 83.933 423.195 85.633 423.195 C85.633 422.205 85.633 421.215 85.633 420.195 C86.953 419.865 88.273 419.535 89.633 419.195 C89.633 418.535 89.633 417.875 89.633 417.195 C91.613 417.195 93.593 417.195 95.633 417.195 C95.633 416.205 95.633 415.215 95.633 414.195 C98.273 414.195 100.913 414.195 103.633 414.195 C103.633 413.205 103.633 412.215 103.633 411.195 C105.283 411.195 106.933 411.195 108.633 411.195 C108.633 410.205 108.633 409.215 108.633 408.195 C109.623 408.195 110.613 408.195 111.633 408.195 C111.633 407.205 111.633 406.215 111.633 405.195 C113.613 405.195 115.593 405.195 117.633 405.195 C117.633 404.535 117.633 403.875 117.633 403.195 C119.283 403.195 120.933 403.195 122.633 403.195 C122.633 401.875 122.633 400.555 122.633 399.195 C124.613 399.195 126.593 399.195 128.633 399.195 C128.633 398.205 128.633 397.215 128.633 396.195 C129.623 396.195 130.613 396.195 131.633 396.195 C131.633 395.535 131.633 394.875 131.633 394.195 C133.283 394.195 134.933 394.195 136.633 394.195 C136.633 393.205 136.633 392.215 136.633 391.195 C139.603 391.195 142.573 391.195 145.633 391.195 C145.633 390.205 145.633 389.215 145.633 388.195 C147.283 388.195 148.933 388.195 150.633 388.195 C150.963 387.205 151.293 386.215 151.633 385.195 C153.283 385.195 154.933 385.195 156.633 385.195 C156.633 384.205 156.633 383.215 156.633 382.195 C158.613 382.195 160.593 382.195 162.633 382.195 C162.633 381.205 162.633 380.215 162.633 379.195 C164.283 379.195 165.933 379.195 167.633 379.195 C167.633 378.205 167.633 377.215 167.633 376.195 C169.283 376.195 170.933 376.195 172.633 376.195 C172.633 375.205 172.633 374.215 172.633 373.195 C174.613 373.195 176.593 373.195 178.633 373.195 C178.633 372.205 178.633 371.215 178.633 370.195 C180.283 370.195 181.933 370.195 183.633 370.195 C183.633 369.205 183.633 368.215 183.633 367.195 C185.613 367.195 187.593 367.195 189.633 367.195 C189.633 366.205 189.633 365.215 189.633 364.195 C190.953 364.195 192.273 364.195 193.633 364.195 C193.633 363.205 193.633 362.215 193.633 361.195 C194.293 361.195 194.953 361.195 195.633 361.195 C197.404 360.221 197.404 360.221 198.633 358.195 C198.85 355.545 198.916 353.145 198.82 350.508 C198.8 349.455 198.8 349.455 198.779 348.381 C198.744 346.652 198.69 344.924 198.633 343.195 C200.943 343.195 203.253 343.195 205.633 343.195 C205.633 269.935 205.633 196.675 205.633 121.195 C203.323 121.195 201.013 121.195 198.633 121.195 C198.633 116.575 198.633 111.955 198.633 107.195 C196.653 107.195 194.673 107.195 192.633 107.195 C192.633 106.205 192.633 105.215 192.633 104.195 C189.663 104.195 186.693 104.195 183.633 104.195 C183.633 102.875 183.633 101.555 183.633 100.195 C182.643 100.195 181.653 100.195 180.633 100.195 C180.633 99.535 180.633 98.875 180.633 98.195 C178.653 98.195 176.673 98.195 174.633 98.195 C174.633 97.205 174.633 96.215 174.633 95.195 C172.323 95.195 170.013 95.195 167.633 95.195 C167.633 94.205 167.633 93.215 167.633 92.195 C165.653 92.195 163.673 92.195 161.633 92.195 C161.633 91.205 161.633 90.215 161.633 89.195 C159.983 89.195 158.333 89.195 156.633 89.195 C156.633 88.205 156.633 87.215 156.633 86.195 C154.983 86.195 153.333 86.195 151.633 86.195 C151.633 85.205 151.633 84.215 151.633 83.195 C149.653 83.195 147.673 83.195 145.633 83.195 C145.633 82.205 145.633 81.215 145.633 80.195 C143.653 80.195 141.673 80.195 139.633 80.195 C139.633 79.205 139.633 78.215 139.633 77.195 C137.983 77.195 136.333 77.195 134.633 77.195 C134.633 76.205 134.633 75.215 134.633 74.195 C132.653 74.195 130.673 74.195 128.633 74.195 C128.633 73.535 128.633 72.875 128.633 72.195 C126.653 72.195 124.673 72.195 122.633 72.195 C122.633 70.875 122.633 69.555 122.633 68.195 C120.983 68.195 119.333 68.195 117.633 68.195 C117.633 67.205 117.633 66.215 117.633 65.195 C115.653 65.195 113.673 65.195 111.633 65.195 C111.633 64.535 111.633 63.875 111.633 63.195 C109.653 63.195 107.673 63.195 105.633 63.195 C105.633 62.205 105.633 61.215 105.633 60.195 C101.673 59.7 101.673 59.7 97.633 59.195 C97.633 58.205 97.633 57.215 97.633 56.195 C95.983 56.195 94.333 56.195 92.633 56.195 C92.633 55.205 92.633 54.215 92.633 53.195 C90.323 53.195 88.013 53.195 85.633 53.195 C85.633 52.205 85.633 51.215 85.633 50.195 C83.983 50.195 82.333 50.195 80.633 50.195 C80.633 49.205 80.633 48.215 80.633 47.195 C78.653 47.195 76.673 47.195 74.633 47.195 C74.633 46.205 74.633 45.215 74.633 44.195 C72.653 44.195 70.673 44.195 68.633 44.195 C68.633 43.205 68.633 42.215 68.633 41.195 C66.653 41.195 64.673 41.195 62.633 41.195 C62.633 40.535 62.633 39.875 62.633 39.195 C61.643 39.195 60.653 39.195 59.633 39.195 C59.633 38.535 59.633 37.875 59.633 37.195 C57.653 37.195 55.673 37.195 53.633 37.195 C53.633 36.535 53.633 35.875 53.633 35.195 C52.313 35.195 50.993 35.195 49.633 35.195 C49.633 34.205 49.633 33.215 49.633 32.195 C47.653 32.195 45.673 32.195 43.633 32.195 C43.633 31.205 43.633 30.215 43.633 29.195 C41.983 29.195 40.333 29.195 38.633 29.195 C38.633 28.205 38.633 27.215 38.633 26.195 C35.993 26.195 33.353 26.195 30.633 26.195 C30.633 25.205 30.633 24.215 30.633 23.195 C28.983 23.195 27.333 23.195 25.633 23.195 C25.633 22.205 25.633 21.215 25.633 20.195 C23.983 20.195 22.333 20.195 20.633 20.195 C20.633 19.205 20.633 18.215 20.633 17.195 C18.983 17.195 17.333 17.195 15.633 17.195 C15.633 16.205 15.633 15.215 15.633 14.195 C8.373 14.195 1.113 14.195 -6.367 14.195 Z M-130.367 66.195 C-129.367 68.195 -129.367 68.195 -129.367 68.195 Z M163.633 75.195 C164.633 77.195 164.633 77.195 164.633 77.195 Z M-188.367 101.195 C-184.367 102.195 -184.367 102.195 -184.367 102.195 Z M-191.367 104.195 C-191.367 107.495 -191.367 110.795 -191.367 114.195 C-191.037 114.195 -190.707 114.195 -190.367 114.195 C-190.367 110.895 -190.367 107.595 -190.367 104.195 C-190.697 104.195 -191.027 104.195 -191.367 104.195 Z M-197.367 119.195 C-197.367 192.125 -197.367 265.055 -197.367 340.195 C-197.037 340.195 -196.707 340.195 -196.367 340.195 C-196.367 267.265 -196.367 194.335 -196.367 119.195 C-196.697 119.195 -197.027 119.195 -197.367 119.195 Z M-159.367 379.195 C-155.367 380.195 -155.367 380.195 -155.367 380.195 Z M-71.367 423.195 C-70.367 425.195 -70.367 425.195 -70.367 425.195 Z M-66.367 426.195 C-65.707 426.855 -65.047 427.515 -64.367 428.195 C-64.367 427.535 -64.367 426.875 -64.367 426.195 C-65.027 426.195 -65.687 426.195 -66.367 426.195 Z " fill="#242229" transform="translate(244.3671875,22.8046875)"/>
<path d="M0 0 C9.57 0 19.14 0 29 0 C29 1.32 29 2.64 29 4 C31.31 4 33.62 4 36 4 C36 5.65 36 7.3 36 9 C37.32 9 38.64 9 40 9 C40 10.32 40 11.64 40 13 C41.32 13 42.64 13 44 13 C44 13.99 44 14.98 44 16 C45.32 16 46.64 16 48 16 C48 17.98 48 19.96 48 22 C49.32 22 50.64 22 52 22 C52 25.3 52 28.6 52 32 C53.65 32 55.3 32 57 32 C57 35.3 57 38.6 57 42 C58.98 42 60.96 42 63 42 C63 43.98 63 45.96 63 48 C64.98 48 66.96 48 69 48 C69 51.63 69 55.26 69 59 C67.02 59 65.04 59 63 59 C63 85.4 63 111.8 63 139 C61.02 139 59.04 139 57 139 C56.505 103.36 56.505 103.36 56 67 C54.68 67 53.36 67 52 67 C52 69.97 52 72.94 52 76 C50.35 76.33 48.7 76.66 47 77 C47 77.99 47 78.98 47 80 C46.01 80 45.02 80 44 80 C44 80.99 44 81.98 44 83 C42.68 83 41.36 83 40 83 C40 84.65 40 86.3 40 88 C37.03 88 34.06 88 31 88 C31 89.32 31 90.64 31 92 C20.77 92 10.54 92 0 92 C0 90.68 0 89.36 0 88 C-1.98 88 -3.96 88 -6 88 C-6 86.35 -6 84.7 -6 83 C-7.32 83 -8.64 83 -10 83 C-10 82.01 -10 81.02 -10 80 C-10.99 80 -11.98 80 -13 80 C-13 78.68 -13 77.36 -13 76 C-14.32 76 -15.64 76 -17 76 C-17 74.68 -17 73.36 -17 72 C-18.32 72 -19.64 72 -21 72 C-21 68.7 -21 65.4 -21 62 C-22.65 62 -24.3 62 -26 62 C-26 49.79 -26 37.58 -26 25 C-24.68 25 -23.36 25 -22 25 C-22 22.03 -22 19.06 -22 16 C-20.35 16 -18.7 16 -17 16 C-17 15.01 -17 14.02 -17 13 C-15.68 13 -14.36 13 -13 13 C-13 11.68 -13 10.36 -13 9 C-12.01 9 -11.02 9 -10 9 C-9.67 7.35 -9.34 5.7 -9 4 C-6.03 4 -3.06 4 0 4 C0 2.68 0 1.36 0 0 Z " fill="#5A737C" transform="translate(201,261)"/>
<path d="M0 0 C6.93 0 13.86 0 21 0 C21 1.65 21 3.3 21 5 C22.98 5 24.96 5 27 5 C27 6.32 27 7.64 27 9 C28.32 9 29.64 9 31 9 C31 10.65 31 12.3 31 14 C32.65 14 34.3 14 36 14 C36 15.32 36 16.64 36 18 C37.65 18 39.3 18 41 18 C41 25.92 41 33.84 41 42 C39.35 42 37.7 42 36 42 C36 43.32 36 44.64 36 46 C37.32 46 38.64 46 40 46 C40 47.65 40 49.3 40 51 C41.65 51 43.3 51 45 51 C45 49.68 45 48.36 45 47 C51.27 47 57.54 47 64 47 C64 45.68 64 44.36 64 43 C64.99 43 65.98 43 67 43 C67 41.68 67 40.36 67 39 C68.65 39 70.3 39 72 39 C72 36.69 72 34.38 72 32 C73.98 32 75.96 32 78 32 C78 35.3 78 38.6 78 42 C76.02 42 74.04 42 72 42 C71.67 44.64 71.34 47.28 71 50 C69.68 50 68.36 50 67 50 C67 51.32 67 52.64 67 54 C61.06 54 55.12 54 49 54 C49 56.64 49 59.28 49 62 C46.36 62 43.72 62 41 62 C41 65.96 41 69.92 41 74 C47.27 74 53.54 74 60 74 C60 72.68 60 71.36 60 70 C62.31 70 64.62 70 67 70 C67 68.68 67 67.36 67 66 C68.65 66 70.3 66 72 66 C72 64.68 72 63.36 72 62 C73.98 62 75.96 62 78 62 C78 60.68 78 59.36 78 58 C79.65 58 81.3 58 83 58 C83 56.35 83 54.7 83 53 C84.98 53 86.96 53 89 53 C89 49.7 89 46.4 89 43 C90.98 43 92.96 43 95 43 C95 38.05 95 33.1 95 28 C96.65 28 98.3 28 100 28 C101 29 101 29 101.114 30.766 C101.106 31.889 101.106 31.889 101.098 33.035 C101.093 34.248 101.093 34.248 101.088 35.486 C101.075 36.762 101.075 36.762 101.062 38.062 C101.058 38.917 101.053 39.771 101.049 40.65 C101.037 42.767 101.019 44.883 101 47 C99.02 47 97.04 47 95 47 C95 49.97 95 52.94 95 56 C94.34 56 93.68 56 93 56 C93 56.66 93 57.32 93 58 C91.68 58 90.36 58 89 58 C89 59.32 89 60.64 89 62 C87.35 62 85.7 62 84 62 C84 63.32 84 64.64 84 66 C82.02 66 80.04 66 78 66 C78 67.32 78 68.64 78 70 C76.02 70 74.04 70 72 70 C72 71.32 72 72.64 72 74 C70.35 74 68.7 74 67 74 C67 75.32 67 76.64 67 78 C68.32 78 69.64 78 71 78 C71 80.64 71 83.28 71 86 C69.68 86 68.36 86 67 86 C67 87.65 67 89.3 67 91 C64.36 91 61.72 91 59 91 C59 89.35 59 87.7 59 86 C57.68 86 56.36 86 55 86 C55 84.68 55 83.36 55 82 C51.04 82 47.08 82 43 82 C43 80.68 43 79.36 43 78 C41.02 78 39.04 78 37 78 C37 76.68 37 75.36 37 74 C36.01 74 35.02 74 34 74 C34 70.04 34 66.08 34 62 C32.68 62 31.36 62 30 62 C30 60.68 30 59.36 30 58 C29.01 58 28.02 58 27 58 C27 57.01 27 56.02 27 55 C25.02 55 23.04 55 21 55 C21 56.65 21 58.3 21 60 C14.07 60 7.14 60 0 60 C0 58.35 0 56.7 0 55 C-1.65 55 -3.3 55 -5 55 C-5 53.68 -5 52.36 -5 51 C-6.32 51 -7.64 51 -9 51 C-9 49.68 -9 48.36 -9 47 C-10.65 47 -12.3 47 -14 47 C-14 45.35 -14 43.7 -14 42 C-15.65 42 -17.3 42 -19 42 C-19 34.08 -19 26.16 -19 18 C-17.35 18 -15.7 18 -14 18 C-14 16.68 -14 15.36 -14 14 C-12.35 14 -10.7 14 -9 14 C-9 12.35 -9 10.7 -9 9 C-7.68 9 -6.36 9 -5 9 C-5 7.68 -5 6.36 -5 5 C-3.35 5 -1.7 5 0 5 C0 3.35 0 1.7 0 0 Z " fill="#63676C" transform="translate(215,378)"/>
<path d="M0 0 C1.65 0 3.3 0 5 0 C5 0.99 5 1.98 5 3 C6.98 3 8.96 3 11 3 C11 3.99 11 4.98 11 6 C14.3 6.33 17.6 6.66 21 7 C21 7.99 21 8.98 21 10 C22.65 10 24.3 10 26 10 C26 10.66 26 11.32 26 12 C27.98 12 29.96 12 32 12 C32 12.99 32 13.98 32 15 C33.98 15 35.96 15 38 15 C38 15.99 38 16.98 38 18 C39.98 18 41.96 18 44 18 C44 18.99 44 19.98 44 21 C44.66 21 45.32 21 46 21 C46 38.16 46 55.32 46 73 C43.36 73 40.72 73 38 73 C38 74.98 38 76.96 38 79 C36.02 79 34.04 79 32 79 C32 78.01 32 77.02 32 76 C29.36 76 26.72 76 24 76 C24 75.01 24 74.02 24 73 C22.02 73 20.04 73 18 73 C18 72.01 18 71.02 18 70 C16.68 70 15.36 70 14 70 C14 69.34 14 68.68 14 68 C12.35 68 10.7 68 9 68 C9 67.01 9 66.02 9 65 C7.02 65 5.04 65 3 65 C3 64.01 3 63.02 3 62 C1.02 62 -0.96 62 -3 62 C-3 61.01 -3 60.02 -3 59 C-4.65 59 -6.3 59 -8 59 C-8 41.84 -8 24.68 -8 7 C-5.36 7 -2.72 7 0 7 C0 4.69 0 2.38 0 0 Z " fill="#15141C" transform="translate(92,220)"/>
<path d="M0 0 C1.32 0 2.64 0 4 0 C4 1.32 4 2.64 4 4 C3.01 4 2.02 4 1 4 C1 6.64 1 9.28 1 12 C1.99 12 2.98 12 4 12 C4 13.32 4 14.64 4 16 C3.01 16 2.02 16 1 16 C1 25.9 1 35.8 1 46 C2.32 46 3.64 46 5 46 C5 48.97 5 51.94 5 55 C5.99 55 6.98 55 8 55 C8 56.32 8 57.64 8 59 C8.99 59 9.98 59 11 59 C11 60.32 11 61.64 11 63 C12.98 63 14.96 63 17 63 C17 63.99 17 64.98 17 66 C18.98 66 20.96 66 23 66 C23 66.99 23 67.98 23 69 C28.61 69 34.22 69 40 69 C40.495 67.515 40.495 67.515 41 66 C41 66.99 41 67.98 41 69 C42.65 69 44.3 69 46 69 C46 68.01 46 67.02 46 66 C47.98 66 49.96 66 52 66 C52 65.01 52 64.02 52 63 C54.475 62.505 54.475 62.505 57 62 C57.33 59.36 57.66 56.72 58 54 C58.99 54 59.98 54 61 54 C61 53.01 61 52.02 61 51 C61.66 51 62.32 51 63 51 C63 45.06 63 39.12 63 33 C64.65 33 66.3 33 68 33 C68 28.71 68 24.42 68 20 C66.68 20 65.36 20 64 20 C64 16.37 64 12.74 64 9 C62.68 9 61.36 9 60 9 C60 7.35 60 5.7 60 4 C59.01 4 58.02 4 57 4 C57 2.68 57 1.36 57 0 C58.32 0 59.64 0 61 0 C61 0.99 61 1.98 61 3 C62.32 3 63.64 3 65 3 C65 4.98 65 6.96 65 9 C66.32 9 67.64 9 69 9 C69 12.3 69 15.6 69 19 C70.65 19 72.3 19 74 19 C74 22.3 74 25.6 74 29 C75.98 29 77.96 29 80 29 C80 30.98 80 32.96 80 35 C81.98 35 83.96 35 86 35 C86 38.63 86 42.26 86 46 C84.02 46 82.04 46 80 46 C80 72.4 80 98.8 80 126 C78.02 126 76.04 126 74 126 C73.505 90.36 73.505 90.36 73 54 C71.68 54 70.36 54 69 54 C69 56.97 69 59.94 69 63 C67.35 63.33 65.7 63.66 64 64 C64 64.99 64 65.98 64 67 C63.01 67 62.02 67 61 67 C61 67.99 61 68.98 61 70 C59.68 70 58.36 70 57 70 C57 71.65 57 73.3 57 75 C54.03 75 51.06 75 48 75 C48 76.32 48 77.64 48 79 C37.77 79 27.54 79 17 79 C17 77.68 17 76.36 17 75 C15.02 75 13.04 75 11 75 C11 73.35 11 71.7 11 70 C9.68 70 8.36 70 7 70 C7 69.01 7 68.02 7 67 C6.01 67 5.02 67 4 67 C4 65.68 4 64.36 4 63 C2.68 63 1.36 63 0 63 C0 61.68 0 60.36 0 59 C-1.32 59 -2.64 59 -4 59 C-4 55.7 -4 52.4 -4 49 C-5.65 49 -7.3 49 -9 49 C-9 36.79 -9 24.58 -9 12 C-7.68 12 -6.36 12 -5 12 C-5 9.03 -5 6.06 -5 3 C-3.35 3 -1.7 3 0 3 C0 2.01 0 1.02 0 0 Z " fill="#B38A50" transform="translate(184,274)"/>
<path d="M0 0 C0.33 0 0.66 0 1 0 C1 24.75 1 49.5 1 75 C2.98 75 4.96 75 7 75 C7 77.64 7 80.28 7 83 C8.98 83 10.96 83 13 83 C13 88.28 13 93.56 13 99 C9.7 99 6.4 99 3 99 C3 100.65 3 102.3 3 104 C1.35 104 -0.3 104 -2 104 C-2 102.35 -2 100.7 -2 99 C-3.32 99 -4.64 99 -6 99 C-6 97.68 -6 96.36 -6 95 C-4.35 95 -2.7 95 -1 95 C-1 87.08 -1 79.16 -1 71 C-2.65 71 -4.3 71 -6 71 C-6 69.68 -6 68.36 -6 67 C-7.65 67 -9.3 67 -11 67 C-11 65.35 -11 63.7 -11 62 C-12.32 62 -13.64 62 -15 62 C-15 60.68 -15 59.36 -15 58 C-16.98 58 -18.96 58 -21 58 C-21 56.35 -21 54.7 -21 53 C-25.95 53 -30.9 53 -36 53 C-36 52.01 -36 51.02 -36 50 C-37.98 50 -39.96 50 -42 50 C-42 49.01 -42 48.02 -42 47 C-42.66 47 -43.32 47 -44 47 C-44 46.01 -44 45.02 -44 44 C-44.99 44 -45.98 44 -47 44 C-47 39.05 -47 34.1 -47 29 C-49.97 29 -52.94 29 -56 29 C-56 28.67 -56 28.34 -56 28 C-45.77 28 -35.54 28 -25 28 C-25 26.68 -25 25.36 -25 24 C-22.03 24 -19.06 24 -16 24 C-16 22.35 -16 20.7 -16 19 C-14.68 19 -13.36 19 -12 19 C-12 18.01 -12 17.02 -12 16 C-11.01 16 -10.02 16 -9 16 C-9 15.01 -9 14.02 -9 13 C-7.35 12.67 -5.7 12.34 -4 12 C-4 9.03 -4 6.06 -4 3 C-2.68 3 -1.36 3 0 3 C0 2.01 0 1.02 0 0 Z " fill="#FAEED1" transform="translate(257,325)"/>
<path d="M0 0 C1.65 0 3.3 0 5 0 C6 1 6 1 6.114 2.766 C6.106 3.889 6.106 3.889 6.098 5.035 C6.093 6.248 6.093 6.248 6.088 7.486 C6.075 8.762 6.075 8.762 6.062 10.062 C6.058 10.917 6.053 11.771 6.049 12.65 C6.037 14.767 6.019 16.883 6 19 C4.02 19 2.04 19 0 19 C0 21.97 0 24.94 0 28 C-0.66 28 -1.32 28 -2 28 C-2 28.66 -2 29.32 -2 30 C-3.32 30 -4.64 30 -6 30 C-6 31.32 -6 32.64 -6 34 C-7.65 34 -9.3 34 -11 34 C-11 35.32 -11 36.64 -11 38 C-12.98 38 -14.96 38 -17 38 C-17 39.32 -17 40.64 -17 42 C-18.98 42 -20.96 42 -23 42 C-23 43.32 -23 44.64 -23 46 C-24.65 46 -26.3 46 -28 46 C-28 47.32 -28 48.64 -28 50 C-26.68 50 -25.36 50 -24 50 C-24 52.64 -24 55.28 -24 58 C-25.32 58 -26.64 58 -28 58 C-28 59.65 -28 61.3 -28 63 C-30.64 63 -33.28 63 -36 63 C-36 61.35 -36 59.7 -36 58 C-37.32 58 -38.64 58 -40 58 C-40 56.68 -40 55.36 -40 54 C-43.96 54 -47.92 54 -52 54 C-52 52.68 -52 51.36 -52 50 C-53.98 50 -55.96 50 -58 50 C-58 48.68 -58 47.36 -58 46 C-58.99 46 -59.98 46 -61 46 C-61 42.04 -61 38.08 -61 34 C-62.32 34 -63.64 34 -65 34 C-65 32.68 -65 31.36 -65 30 C-65.99 30 -66.98 30 -68 30 C-68 29.01 -68 28.02 -68 27 C-69.98 27 -71.96 27 -74 27 C-74 25.68 -74 24.36 -74 23 C-72.02 23 -70.04 23 -68 23 C-68 21.68 -68 20.36 -68 19 C-66.68 19 -65.36 19 -64 19 C-64 17.35 -64 15.7 -64 14 C-62.68 14 -61.36 14 -60 14 C-60 15.65 -60 17.3 -60 19 C-58.35 19 -56.7 19 -55 19 C-55 20.32 -55 21.64 -55 23 C-53.35 23 -51.7 23 -50 23 C-50 21.68 -50 20.36 -50 19 C-43.73 19 -37.46 19 -31 19 C-31 17.68 -31 16.36 -31 15 C-30.01 15 -29.02 15 -28 15 C-28 13.68 -28 12.36 -28 11 C-26.35 11 -24.7 11 -23 11 C-23 8.69 -23 6.38 -23 4 C-21.02 4 -19.04 4 -17 4 C-17 7.3 -17 10.6 -17 14 C-18.98 14 -20.96 14 -23 14 C-23.33 16.64 -23.66 19.28 -24 22 C-25.32 22 -26.64 22 -28 22 C-28 23.32 -28 24.64 -28 26 C-33.94 26 -39.88 26 -46 26 C-46 28.64 -46 31.28 -46 34 C-48.64 34 -51.28 34 -54 34 C-54 37.96 -54 41.92 -54 46 C-47.73 46 -41.46 46 -35 46 C-35 44.68 -35 43.36 -35 42 C-32.69 42 -30.38 42 -28 42 C-28 40.68 -28 39.36 -28 38 C-26.35 38 -24.7 38 -23 38 C-23 36.68 -23 35.36 -23 34 C-21.02 34 -19.04 34 -17 34 C-17 32.68 -17 31.36 -17 30 C-15.35 30 -13.7 30 -12 30 C-12 28.35 -12 26.7 -12 25 C-10.02 25 -8.04 25 -6 25 C-6 21.7 -6 18.4 -6 15 C-4.02 15 -2.04 15 0 15 C0 10.05 0 5.1 0 0 Z " fill="#1D171D" transform="translate(310,406)"/>
<path d="M0 0 C2.97 0 5.94 0 9 0 C9 0.99 9 1.98 9 3 C7.02 3 5.04 3 3 3 C3 3.99 3 4.98 3 6 C2.01 6.33 1.02 6.66 0 7 C-0.33 22.18 -0.66 37.36 -1 53 C0.32 53 1.64 53 3 53 C3 53.99 3 54.98 3 56 C3.66 56 4.32 56 5 56 C5 55.01 5 54.02 5 53 C6.32 53 7.64 53 9 53 C9 51.68 9 50.36 9 49 C9.99 49 10.98 49 12 49 C12 47.68 12 46.36 12 45 C12.99 45 13.98 45 15 45 C15 44.01 15 43.02 15 42 C16.32 42 17.64 42 19 42 C19 40.68 19 39.36 19 38 C19.99 38 20.98 38 22 38 C22 37.01 22 36.02 22 35 C22.99 35 23.98 35 25 35 C25 34.34 25 33.68 25 33 C24.34 33 23.68 33 23 33 C23 32.34 23 31.68 23 31 C20.36 31 17.72 31 15 31 C15 30.01 15 29.02 15 28 C13.35 28 11.7 28 10 28 C10 21.4 10 14.8 10 8 C11.65 8 13.3 8 15 8 C15 8.99 15 9.98 15 11 C16.98 11 18.96 11 21 11 C21 11.66 21 12.32 21 13 C22.98 13 24.96 13 27 13 C27.495 20.92 27.495 20.92 28 29 C28.99 29 29.98 29 31 29 C31 28.01 31 27.02 31 26 C31.99 26 32.98 26 34 26 C34 25.01 34 24.02 34 23 C34.99 23 35.98 23 37 23 C37 21.68 37 20.36 37 19 C37.99 19 38.98 19 40 19 C40 17.68 40 16.36 40 15 C41.65 15 43.3 15 45 15 C45 14.01 45 13.02 45 12 C46.32 12 47.64 12 49 12 C49.495 14.97 49.495 14.97 50 18 C49.01 18 48.02 18 47 18 C47 19.32 47 20.64 47 22 C45.68 22 44.36 22 43 22 C43 23.32 43 24.64 43 26 C42.01 26.495 42.01 26.495 41 27 C40.505 28.485 40.505 28.485 40 30 C39.01 30 38.02 30 37 30 C37 31.32 37 32.64 37 34 C35.68 34 34.36 34 33 34 C33 34.99 33 35.98 33 37 C31.68 37 30.36 37 29 37 C29 38.65 29 40.3 29 42 C28.01 42 27.02 42 26 42 C26 42.99 26 43.98 26 45 C24.68 45 23.36 45 22 45 C22 46.32 22 47.64 22 49 C20.68 49 19.36 49 18 49 C18 50.32 18 51.64 18 53 C16.68 53 15.36 53 14 53 C14 53.99 14 54.98 14 56 C13.34 56 12.68 56 12 56 C12 57.32 12 58.64 12 60 C12.99 60 13.98 60 15 60 C15 60.99 15 61.98 15 63 C16.98 63 18.96 63 21 63 C21 63.99 21 64.98 21 66 C22.65 66 24.3 66 26 66 C26 66.99 26 67.98 26 69 C27.98 69 29.96 69 32 69 C32 69.99 32 70.98 32 72 C26.39 72 20.78 72 15 72 C15 71.01 15 70.02 15 69 C13.02 69 11.04 69 9 69 C9 68.01 9 67.02 9 66 C7.02 66 5.04 66 3 66 C3 64.68 3 63.36 3 62 C2.01 62 1.02 62 0 62 C0 60.68 0 59.36 0 58 C-0.99 58 -1.98 58 -3 58 C-3 55.03 -3 52.06 -3 49 C-4.32 49 -5.64 49 -7 49 C-7 39.1 -7 29.2 -7 19 C-6.01 19 -5.02 19 -4 19 C-4 17.68 -4 16.36 -4 15 C-4.99 15 -5.98 15 -7 15 C-7 12.36 -7 9.72 -7 7 C-6.01 7 -5.02 7 -4 7 C-4 5.68 -4 4.36 -4 3 C-2.68 3 -1.36 3 0 3 C0 2.01 0 1.02 0 0 Z " fill="#AFCBD0" transform="translate(192,271)"/>
<path d="M0 0 C1.189 0.009 2.377 0.018 3.602 0.027 C4.517 0.039 5.432 0.051 6.375 0.062 C6.375 1.053 6.375 2.043 6.375 3.062 C8.355 3.062 10.335 3.062 12.375 3.062 C12.375 3.723 12.375 4.382 12.375 5.062 C15.345 5.062 18.315 5.062 21.375 5.062 C21.375 6.053 21.375 7.043 21.375 8.062 C22.365 8.062 23.355 8.062 24.375 8.062 C24.375 9.053 24.375 10.043 24.375 11.062 C25.035 11.062 25.695 11.062 26.375 11.062 C26.375 12.053 26.375 13.043 26.375 14.062 C27.035 14.062 27.695 14.062 28.375 14.062 C28.375 20.663 28.375 27.262 28.375 34.062 C27.055 34.062 25.735 34.062 24.375 34.062 C24.375 35.053 24.375 36.043 24.375 37.062 C20.745 37.062 17.115 37.062 13.375 37.062 C13.375 36.072 13.375 35.082 13.375 34.062 C10.405 34.062 7.435 34.062 4.375 34.062 C4.375 33.403 4.375 32.743 4.375 32.062 C2.395 32.062 0.415 32.062 -1.625 32.062 C-1.625 31.072 -1.625 30.082 -1.625 29.062 C-3.935 29.062 -6.245 29.062 -8.625 29.062 C-8.625 26.752 -8.625 24.442 -8.625 22.062 C-9.945 22.062 -11.265 22.062 -12.625 22.062 C-12.625 15.793 -12.625 9.522 -12.625 3.062 C-11.305 3.062 -9.985 3.062 -8.625 3.062 C-8.625 2.402 -8.625 1.743 -8.625 1.062 C-5.741 -0.38 -3.208 -0.031 0 0 Z " fill="#F9A99E" transform="translate(79.625,284.9375)"/>
<path d="M0 0 C4.62 0 9.24 0 14 0 C14 0.99 14 1.98 14 3 C15.98 3 17.96 3 20 3 C20 3.99 20 4.98 20 6 C21.98 6 23.96 6 26 6 C26 6.66 26 7.32 26 8 C27.65 8 29.3 8 31 8 C31 8.99 31 9.98 31 11 C32.32 11 33.64 11 35 11 C35 12.32 35 13.64 35 15 C33.68 15 32.36 15 31 15 C31 16.32 31 17.64 31 19 C30.01 19 29.02 19 28 19 C28 20.32 28 21.64 28 23 C27.01 23 26.02 23 25 23 C25 23.99 25 24.98 25 26 C24.01 26 23.02 26 22 26 C22 26.99 22 27.98 22 29 C21.01 29 20.02 29 19 29 C18.67 29.66 18.34 30.32 18 31 C18 25.06 18 19.12 18 13 C16.02 13 14.04 13 12 13 C12 12.34 12 11.68 12 11 C10.02 11 8.04 11 6 11 C6 10.01 6 9.02 6 8 C4.35 8 2.7 8 1 8 C1 14.6 1 21.2 1 28 C2.65 28 4.3 28 6 28 C6 28.99 6 29.98 6 31 C8.64 31 11.28 31 14 31 C14 31.66 14 32.32 14 33 C14.66 33 15.32 33 16 33 C16 33.66 16 34.32 16 35 C15.01 35 14.02 35 13 35 C13 35.99 13 36.98 13 38 C12.01 38 11.02 38 10 38 C10 39.32 10 40.64 10 42 C8.68 42 7.36 42 6 42 C6 42.99 6 43.98 6 45 C5.01 45 4.02 45 3 45 C3 46.32 3 47.64 3 49 C2.01 49 1.02 49 0 49 C0 50.32 0 51.64 0 53 C-1.32 53 -2.64 53 -4 53 C-4 53.99 -4 54.98 -4 56 C-4.66 56 -5.32 56 -6 56 C-6 55.01 -6 54.02 -6 53 C-7.32 53 -8.64 53 -10 53 C-10 37.82 -10 22.64 -10 7 C-8.68 6.67 -7.36 6.34 -6 6 C-6 5.01 -6 4.02 -6 3 C-4.02 3 -2.04 3 0 3 C0 2.01 0 1.02 0 0 Z " fill="#647E86" transform="translate(201,271)"/>
<path d="M0 0 C1.485 0.495 1.485 0.495 3 1 C3 1.99 3 2.98 3 4 C6.3 4 9.6 4 13 4 C13 4.99 13 5.98 13 7 C13.99 7 14.98 7 16 7 C16 8.32 16 9.64 16 11 C16.66 11 17.32 11 18 11 C18 11.99 18 12.98 18 14 C18.66 14 19.32 14 20 14 C20 19.28 20 24.56 20 30 C18.68 30.33 17.36 30.66 16 31 C15.67 31.99 15.34 32.98 15 34 C11.37 33.67 7.74 33.34 4 33 C4 31.35 4 29.7 4 28 C-0.95 28 -5.9 28 -11 28 C-11 27.01 -11 26.02 -11 25 C-12.98 25 -14.96 25 -17 25 C-17 24.01 -17 23.02 -17 22 C-17.66 22 -18.32 22 -19 22 C-19 21.01 -19 20.02 -19 19 C-19.99 19 -20.98 19 -22 19 C-22 14.05 -22 9.1 -22 4 C-24.97 4 -27.94 4 -31 4 C-31 3.67 -31 3.34 -31 3 C-20.77 3 -10.54 3 0 3 C0 2.01 0 1.02 0 0 Z " fill="#F8A59F" transform="translate(232,350)"/>
<path d="M0 0 C6.93 0 13.86 0 21 0 C21 1.65 21 3.3 21 5 C22.65 5 24.3 5 26 5 C26 12.26 26 19.52 26 27 C24.35 27 22.7 27 21 27 C21 28.65 21 30.3 21 32 C14.07 32 7.14 32 0 32 C0 30.35 0 28.7 0 27 C-1.65 27 -3.3 27 -5 27 C-5 19.74 -5 12.48 -5 5 C-3.35 5 -1.7 5 0 5 C0 3.35 0 1.7 0 0 Z " fill="#CFE6EB" transform="translate(215,392)"/>
<path d="M0 0 C9.57 0 19.14 0 29 0 C29 1.32 29 2.64 29 4 C31.31 4 33.62 4 36 4 C36 5.65 36 7.3 36 9 C37.32 9 38.64 9 40 9 C40 11.64 40 14.28 40 17 C40.99 17 41.98 17 43 17 C43 18.65 43 20.3 43 22 C44.32 22 45.64 22 47 22 C47 25.63 47 29.26 47 33 C48.32 33 49.64 33 51 33 C51 37.29 51 41.58 51 46 C49.35 46 47.7 46 46 46 C46 51.94 46 57.88 46 64 C45.34 64 44.68 64 44 64 C44 53.77 44 43.54 44 33 C43.34 33 42.68 33 42 33 C42 31.68 42 30.36 42 29 C41.01 29 40.02 29 39 29 C38.505 30.485 38.505 30.485 38 32 C38 30.68 38 29.36 38 28 C38.99 28 39.98 28 41 28 C40.505 25.03 40.505 25.03 40 22 C38.68 22 37.36 22 36 22 C35.505 23.485 35.505 23.485 35 25 C35 23.68 35 22.36 35 21 C33.68 21 32.36 21 31 21 C31 20.01 31 19.02 31 18 C29.35 18 27.7 18 26 18 C26 17.34 26 16.68 26 16 C24.02 16 22.04 16 20 16 C20 15.01 20 14.02 20 13 C18.02 13 16.04 13 14 13 C14 12.01 14 11.02 14 10 C6.41 10 -1.18 10 -9 10 C-9 10.99 -9 11.98 -9 13 C-10.32 13 -11.64 13 -13 13 C-13 11.68 -13 10.36 -13 9 C-12.01 9 -11.02 9 -10 9 C-9.67 7.35 -9.34 5.7 -9 4 C-6.03 4 -3.06 4 0 4 C0 2.68 0 1.36 0 0 Z " fill="#C5A469" transform="translate(201,261)"/>
<path d="M0 0 C1.32 0 2.64 0 4 0 C4 2.97 4 5.94 4 9 C6.31 9 8.62 9 11 9 C11 10.98 11 12.96 11 15 C12.98 15 14.96 15 17 15 C17 18.63 17 22.26 17 26 C15.02 26 13.04 26 11 26 C11 52.4 11 78.8 11 106 C9.02 106 7.04 106 5 106 C4.67 81.91 4.34 57.82 4 33 C2.68 33 1.36 33 0 33 C0 22.11 0 11.22 0 0 Z " fill="#5E380E" transform="translate(253,294)"/>
<path d="M0 0 C9.57 0 19.14 0 29 0 C29 0.66 29 1.32 29 2 C30.98 2 32.96 2 35 2 C35 2.99 35 3.98 35 5 C36.65 5 38.3 5 40 5 C40 6.98 40 8.96 40 11 C41.98 11 43.96 11 46 11 C46 12.98 46 14.96 46 17 C42.04 17 38.08 17 34 17 C34 16.01 34 15.02 34 14 C32.02 14 30.04 14 28 14 C28 13.01 28 12.02 28 11 C19.75 11 11.5 11 3 11 C3 11.99 3 12.98 3 14 C-1.62 14 -6.24 14 -11 14 C-11 11.03 -11 8.06 -11 5 C-9.35 5 -7.7 5 -6 5 C-6 4.34 -6 3.68 -6 3 C-4.02 3 -2.04 3 0 3 C0 2.01 0 1.02 0 0 Z " fill="#1B1920" transform="translate(201,238)"/>
<path d="M0 0 C1.65 0 3.3 0 5 0 C5 7.26 5 14.52 5 22 C6.65 22 8.3 22 10 22 C10 14.74 10 7.48 10 0 C11.32 0 12.64 0 14 0 C14 7.26 14 14.52 14 22 C15.65 22 17.3 22 19 22 C19 23.65 19 25.3 19 27 C17.35 27 15.7 27 14 27 C14 28.32 14 29.64 14 31 C15.65 31 17.3 31 19 31 C19 30.01 19 29.02 19 28 C25.93 28 32.86 28 40 28 C40 32.29 40 36.58 40 41 C33.07 41 26.14 41 19 41 C19 39.35 19 37.7 19 36 C17.35 36 15.7 36 14 36 C14 34.68 14 33.36 14 32 C12.68 32 11.36 32 10 32 C10 30.68 10 29.36 10 28 C8.35 28 6.7 28 5 28 C5 26.35 5 24.7 5 23 C3.35 23 1.7 23 0 23 C0 15.41 0 7.82 0 0 Z " fill="#43464D" transform="translate(196,397)"/>
<path d="M0 0 C2.97 0 5.94 0 9 0 C9 0.99 9 1.98 9 3 C7.02 3 5.04 3 3 3 C3 3.99 3 4.98 3 6 C2.01 6.33 1.02 6.66 0 7 C-0.33 22.18 -0.66 37.36 -1 53 C0.32 53 1.64 53 3 53 C3 54.32 3 55.64 3 57 C5.97 56.505 5.97 56.505 9 56 C9 57.32 9 58.64 9 60 C10.98 60 12.96 60 15 60 C15 60.99 15 61.98 15 63 C16.98 63 18.96 63 21 63 C21 63.99 21 64.98 21 66 C22.65 66 24.3 66 26 66 C26 66.99 26 67.98 26 69 C27.98 69 29.96 69 32 69 C32 69.99 32 70.98 32 72 C26.39 72 20.78 72 15 72 C15 71.01 15 70.02 15 69 C13.02 69 11.04 69 9 69 C9 68.01 9 67.02 9 66 C7.02 66 5.04 66 3 66 C3 64.68 3 63.36 3 62 C2.01 62 1.02 62 0 62 C0 60.68 0 59.36 0 58 C-0.99 58 -1.98 58 -3 58 C-3 55.03 -3 52.06 -3 49 C-4.32 49 -5.64 49 -7 49 C-7 39.1 -7 29.2 -7 19 C-6.01 19 -5.02 19 -4 19 C-4 17.68 -4 16.36 -4 15 C-4.99 15 -5.98 15 -7 15 C-7 12.36 -7 9.72 -7 7 C-6.01 7 -5.02 7 -4 7 C-4 5.68 -4 4.36 -4 3 C-2.68 3 -1.36 3 0 3 C0 2.01 0 1.02 0 0 Z " fill="#DBEFE7" transform="translate(192,271)"/>
<path d="M0 0 C4.62 0 9.24 0 14 0 C14 1.32 14 2.64 14 4 C16.97 4 19.94 4 23 4 C23 5.32 23 6.64 23 8 C24.65 8 26.3 8 28 8 C28 8.99 28 9.98 28 11 C30.64 11 33.28 11 36 11 C36 12.65 36 14.3 36 16 C38.31 16 40.62 16 43 16 C43 16.99 43 17.98 43 19 C44.65 19 46.3 19 48 19 C48 21.31 48 23.62 48 26 C44.37 26 40.74 26 37 26 C37 25.01 37 24.02 37 23 C34.69 23 32.38 23 30 23 C29.67 21.68 29.34 20.36 29 19 C26.69 19 24.38 19 22 19 C22 18.34 22 17.68 22 17 C21.34 17 20.68 17 20 17 C20 16.34 20 15.68 20 15 C18.02 15 16.04 15 14 15 C14 13.68 14 12.36 14 11 C7.07 10.505 7.07 10.505 0 10 C0 6.7 0 3.4 0 0 Z " fill="#19171D" transform="translate(90,198)"/>
<path d="M0 0 C1.98 0 3.96 0 6 0 C6 25.74 6 51.48 6 78 C4.02 78 2.04 78 0 78 C0 52.26 0 26.52 0 0 Z " fill="#FCF1D2" transform="translate(264,321)"/>
<path d="M0 0 C4.83 3.083 6.714 4.487 8 10 C8.928 10.217 8.928 10.217 9.875 10.438 C12 11 12 11 14 12 C14 17.61 14 23.22 14 29 C15.32 29 16.64 29 18 29 C18 104.57 18 180.14 18 258 C16.68 258 15.36 258 14 258 C14 263.28 14 268.56 14 274 C13.34 274.33 12.68 274.66 12 275 C8.752 276.722 8.752 276.722 8 280 C7.34 280.66 6.68 281.32 6 282 C5.01 282 4.02 282 3 282 C3.613 279.038 4.254 277.619 6 275 C6.66 275 7.32 275 8 275 C8 274.01 8 273.02 8 272 C8.99 272 9.98 272 11 272 C11 266.39 11 260.78 11 255 C12.98 255 14.96 255 17 255 C17 180.75 17 106.5 17 30 C15.02 30 13.04 30 11 30 C11 24.39 11 18.78 11 13 C9.02 13 7.04 13 5 13 C5 11.02 5 9.04 5 7 C3.68 7 2.36 7 1 7 C1 6.01 1 5.02 1 4 C0.01 4 -0.98 4 -2 4 C-2 3.01 -2 2.02 -2 1 C-1.34 0.67 -0.68 0.34 0 0 Z " fill="#69686C" transform="translate(445,114)"/>
<path d="M0 0 C0.33 0 0.66 0 1 0 C1 24.75 1 49.5 1 75 C2.98 75 4.96 75 7 75 C7 77.64 7 80.28 7 83 C8.98 83 10.96 83 13 83 C13 88.28 13 93.56 13 99 C9.7 99 6.4 99 3 99 C3 100.65 3 102.3 3 104 C1.35 104 -0.3 104 -2 104 C-2 102.35 -2 100.7 -2 99 C-3.32 99 -4.64 99 -6 99 C-6 97.68 -6 96.36 -6 95 C-4.02 95 -2.04 95 0 95 C0 63.65 0 32.3 0 0 Z " fill="#F0E3C4" transform="translate(257,325)"/>
<path d="M0 0 C6.93 0 13.86 0 21 0 C21 1.65 21 3.3 21 5 C22.98 5 24.96 5 27 5 C27 6.32 27 7.64 27 9 C28.32 9 29.64 9 31 9 C31 10.65 31 12.3 31 14 C29.35 14 27.7 14 26 14 C26 12.68 26 11.36 26 10 C24.35 10 22.7 10 21 10 C21 10.99 21 11.98 21 13 C14.4 13 7.8 13 1 13 C1 12.01 1 11.02 1 10 C-0.98 10 -2.96 10 -5 10 C-5 11.32 -5 12.64 -5 14 C-6.32 14 -7.64 14 -9 14 C-9 12.35 -9 10.7 -9 9 C-7.68 9 -6.36 9 -5 9 C-5 7.68 -5 6.36 -5 5 C-3.35 5 -1.7 5 0 5 C0 3.35 0 1.7 0 0 Z " fill="#37373F" transform="translate(215,378)"/>
<path d="M0 0 C1.65 0 3.3 0 5 0 C5 2.97 5 5.94 5 9 C6.32 9 7.64 9 9 9 C9 10.32 9 11.64 9 13 C9.99 13 10.98 13 12 13 C12 14.32 12 15.64 12 17 C13.32 17 14.64 17 16 17 C16 18.32 16 19.64 16 21 C17.65 21 19.3 21 21 21 C21 22.32 21 23.64 21 25 C31.23 25 41.46 25 52 25 C52 23.68 52 22.36 52 21 C54.97 21 57.94 21 61 21 C61 22.65 61 24.3 61 26 C58.03 26 55.06 26 52 26 C52 27.32 52 28.64 52 30 C41.77 30 31.54 30 21 30 C21 28.68 21 27.36 21 26 C19.02 26 17.04 26 15 26 C15 24.35 15 22.7 15 21 C13.68 21 12.36 21 11 21 C11 20.01 11 19.02 11 18 C10.01 18 9.02 18 8 18 C8 16.68 8 15.36 8 14 C6.68 14 5.36 14 4 14 C4 12.68 4 11.36 4 10 C2.68 10 1.36 10 0 10 C0 6.7 0 3.4 0 0 Z " fill="#6F4B1F" transform="translate(180,323)"/>
<path d="M0 0 C3.63 0 7.26 0 11 0 C11 0.66 11 1.32 11 2 C12.65 2 14.3 2 16 2 C16 2.99 16 3.98 16 5 C18.97 5 21.94 5 25 5 C25 5.99 25 6.98 25 8 C26.98 8 28.96 8 31 8 C31 8.99 31 9.98 31 11 C32.65 11 34.3 11 36 11 C36 13.97 36 16.94 36 20 C34.35 20 32.7 20 31 20 C31 19.01 31 18.02 31 17 C29.02 17 27.04 17 25 17 C25 16.01 25 15.02 25 14 C22.03 14 19.06 14 16 14 C16 13.01 16 12.02 16 11 C14.35 11 12.7 11 11 11 C11 10.34 11 9.68 11 9 C8.03 9 5.06 9 2 9 C2 7.68 2 6.36 2 5 C1.34 5 0.68 5 0 5 C0 3.35 0 1.7 0 0 Z " fill="#1C181E" transform="translate(139,332)"/>
<path d="M0 0 C1.65 0 3.3 0 5 0 C5 0.99 5 1.98 5 3 C6.98 3 8.96 3 11 3 C11 3.99 11 4.98 11 6 C12.98 6 14.96 6 17 6 C17 11.94 17 17.88 17 24 C15.02 24 13.04 24 11 24 C11 23.01 11 22.02 11 21 C9.02 21 7.04 21 5 21 C5 20.34 5 19.68 5 19 C3.35 19 1.7 19 0 19 C0 12.73 0 6.46 0 0 Z " fill="#F4F4F4" transform="translate(93,232)"/>
<path d="M0 0 C1.65 0 3.3 0 5 0 C5 0.99 5 1.98 5 3 C6.98 3 8.96 3 11 3 C11 3.99 11 4.98 11 6 C12.65 6 14.3 6 16 6 C16 11.94 16 17.88 16 24 C12.37 23.67 8.74 23.34 5 23 C5 22.01 5 21.02 5 20 C3.35 20 1.7 20 0 20 C0 13.4 0 6.8 0 0 Z " fill="#DFF6FB" transform="translate(202,279)"/>
<path d="M0 0 C0.33 0.66 0.66 1.32 1 2 C3.97 2 6.94 2 10 2 C10 2.66 10 3.32 10 4 C10.66 4 11.32 4 12 4 C12 4.66 12 5.32 12 6 C11.01 6 10.02 6 9 6 C9 6.99 9 7.98 9 9 C8.01 9 7.02 9 6 9 C6 10.32 6 11.64 6 13 C4.68 13 3.36 13 2 13 C2 13.99 2 14.98 2 16 C1.01 16 0.02 16 -1 16 C-1 17.32 -1 18.64 -1 20 C-1.99 20 -2.98 20 -4 20 C-4 21.32 -4 22.64 -4 24 C-5.32 24 -6.64 24 -8 24 C-8 24.99 -8 25.98 -8 27 C-8.66 27 -9.32 27 -10 27 C-10 26.01 -10 25.02 -10 24 C-10.99 24 -11.98 24 -13 24 C-13 20.04 -13 16.08 -13 12 C-11.02 11.67 -9.04 11.34 -7 11 C-7 10.01 -7 9.02 -7 8 C-6.01 8 -5.02 8 -4 8 C-4 6.68 -4 5.36 -4 4 C-3.01 4 -2.02 4 -1 4 C-0.67 2.68 -0.34 1.36 0 0 Z " fill="#58747C" transform="translate(205,300)"/>
<path d="M0 0 C1.98 0 3.96 0 6 0 C6 0.99 6 1.98 6 3 C12.6 3 19.2 3 26 3 C26 2.01 26 1.02 26 0 C27.65 0 29.3 0 31 0 C31 1.32 31 2.64 31 4 C32.32 4 33.64 4 35 4 C35 5.32 35 6.64 35 8 C30.545 8.495 30.545 8.495 26 9 C26 7.35 26 5.7 26 4 C19.07 4 12.14 4 5 4 C5 5.65 5 7.3 5 9 C2.03 9 -0.94 9 -4 9 C-4 16.26 -4 23.52 -4 31 C-5.65 31 -7.3 31 -9 31 C-9 23.74 -9 16.48 -9 9 C-10.65 9 -12.3 9 -14 9 C-14 8.67 -14 8.34 -14 8 C-12.35 8 -10.7 8 -9 8 C-9 6.68 -9 5.36 -9 4 C-6.03 4 -3.06 4 0 4 C0 2.68 0 1.36 0 0 Z " fill="#7B8389" transform="translate(210,388)"/>
<path d="M0 0 C1.32 0 2.64 0 4 0 C4 1.32 4 2.64 4 4 C3.01 4 2.02 4 1 4 C1 6.64 1 9.28 1 12 C-0.65 12 -2.3 12 -4 12 C-4 24.21 -4 36.42 -4 49 C-5.65 49 -7.3 49 -9 49 C-9 36.79 -9 24.58 -9 12 C-7.68 12 -6.36 12 -5 12 C-5 9.03 -5 6.06 -5 3 C-3.35 3 -1.7 3 0 3 C0 2.01 0 1.02 0 0 Z " fill="#5B370B" transform="translate(184,274)"/>
<path d="M0 0 C9.57 0 19.14 0 29 0 C29 1.32 29 2.64 29 4 C31.31 4 33.62 4 36 4 C36 5.65 36 7.3 36 9 C33.69 9 31.38 9 29 9 C29 7.68 29 6.36 29 5 C19.43 5 9.86 5 0 5 C0 6.65 0 8.3 0 10 C-2.97 10 -5.94 10 -9 10 C-9 10.99 -9 11.98 -9 13 C-10.32 13 -11.64 13 -13 13 C-13 11.68 -13 10.36 -13 9 C-12.01 9 -11.02 9 -10 9 C-9.67 7.35 -9.34 5.7 -9 4 C-6.03 4 -3.06 4 0 4 C0 2.68 0 1.36 0 0 Z " fill="#7B5A2C" transform="translate(201,261)"/>
<path d="M0 0 C1.32 0 2.64 0 4 0 C4 1.32 4 2.64 4 4 C5.98 3.67 7.96 3.34 10 3 C10 4.32 10 5.64 10 7 C11.98 7 13.96 7 16 7 C16 7.99 16 8.98 16 10 C17.98 10 19.96 10 22 10 C22 10.99 22 11.98 22 13 C23.65 13 25.3 13 27 13 C27 13.99 27 14.98 27 16 C28.98 16 30.96 16 33 16 C33 16.99 33 17.98 33 19 C27.39 19 21.78 19 16 19 C16 18.01 16 17.02 16 16 C14.02 16 12.04 16 10 16 C10 15.01 10 14.02 10 13 C8.02 13 6.04 13 4 13 C4 11.68 4 10.36 4 9 C3.01 9 2.02 9 1 9 C1 7.68 1 6.36 1 5 C0.01 4.67 -0.98 4.34 -2 4 C-1.34 2.68 -0.68 1.36 0 0 Z " fill="#D3E7DE" transform="translate(191,324)"/>
<path d="M0 0 C0 2.97 0 5.94 0 9 C-0.99 9 -1.98 9 -3 9 C-3 10.32 -3 11.64 -3 13 C-3.99 13 -4.98 13 -6 13 C-6 14.32 -6 15.64 -6 17 C-8.97 17 -11.94 17 -15 17 C-15 18.32 -15 19.64 -15 21 C-25.23 21 -35.46 21 -46 21 C-46 19.68 -46 18.36 -46 17 C-47.65 17 -49.3 17 -51 17 C-51 16.67 -51 16.34 -51 16 C-40.11 16 -29.22 16 -18 16 C-17.67 15.01 -17.34 14.02 -17 13 C-15.02 13 -13.04 13 -11 13 C-11 12.01 -11 11.02 -11 10 C-9.35 9.67 -7.7 9.34 -6 9 C-5.67 6.36 -5.34 3.72 -5 1 C-2 0 -2 0 0 0 Z " fill="#AC7D43" transform="translate(247,327)"/>
<path d="M0 0 C0.33 0 0.66 0 1 0 C1 74.91 1 149.82 1 227 C0.67 227 0.34 227 0 227 C0 152.09 0 77.18 0 0 Z " fill="#666666" transform="translate(464,143)"/>
<path d="M0 0 C2.97 0.495 2.97 0.495 6 1 C5.01 1.33 4.02 1.66 3 2 C2.67 2.66 2.34 3.32 2 4 C0.379 7.243 -2.751 7.689 -6 9 C-7.275 9.638 -8.546 10.283 -9.812 10.938 C-12 12 -12 12 -14.562 13 C-17.191 13.985 -17.191 13.985 -20 16 C-23.207 17.769 -26.515 18.891 -30 20 C-30 20.66 -30 21.32 -30 22 C-31.98 22.66 -33.96 23.32 -36 24 C-36 24.66 -36 25.32 -36 26 C-37.65 26.33 -39.3 26.66 -41 27 C-41 27.66 -41 28.32 -41 29 C-41.922 29.147 -41.922 29.147 -42.863 29.297 C-47.881 30.049 -47.881 30.049 -51.75 33 C-52.163 33.66 -52.575 34.32 -53 35 C-55.438 36.125 -55.438 36.125 -58 37 C-59.341 37.651 -60.676 38.315 -62 39 C-62.99 39.495 -62.99 39.495 -64 40 C-64 40.33 -64 40.66 -64 41 C-65.176 41.155 -65.176 41.155 -66.375 41.312 C-69.33 41.776 -69.33 41.776 -71 45 C-74.625 45.188 -74.625 45.188 -78 45 C-78 44.34 -78 43.68 -78 43 C-76.35 43 -74.7 43 -73 43 C-73 42.34 -73 41.68 -73 41 C-72.01 41 -71.02 41 -70 41 C-70 40.01 -70 39.02 -70 38 C-68.35 38 -66.7 38 -65 38 C-65 37.01 -65 36.02 -65 35 C-63.02 35 -61.04 35 -59 35 C-59 34.01 -59 33.02 -59 32 C-57.02 32 -55.04 32 -53 32 C-53 31.01 -53 30.02 -53 29 C-51.35 29 -49.7 29 -48 29 C-48 28.01 -48 27.02 -48 26 C-46.02 26 -44.04 26 -42 26 C-42 25.01 -42 24.02 -42 23 C-40.35 23 -38.7 23 -37 23 C-36.505 21.515 -36.505 21.515 -36 20 C-34.68 20 -33.36 20 -32 20 C-32 19.01 -32 18.02 -32 17 C-30.02 17 -28.04 17 -26 17 C-26 16.01 -26 15.02 -26 14 C-24.35 14 -22.7 14 -21 14 C-21 13.01 -21 12.02 -21 11 C-19.02 11 -17.04 11 -15 11 C-15 10.01 -15 9.02 -15 8 C-13.02 8 -11.04 8 -9 8 C-9 7.01 -9 6.02 -9 5 C-7.02 5 -5.04 5 -3 5 C-2.67 4.01 -2.34 3.02 -2 2 C-1.34 2 -0.68 2 0 2 C0 1.34 0 0.68 0 0 Z " fill="#949496" transform="translate(443,396)"/>
<path d="M0 0 C3.96 0 7.92 0 12 0 C12 3.63 12 7.26 12 11 C10.02 11 8.04 11 6 11 C6 37.4 6 63.8 6 91 C5.67 91 5.34 91 5 91 C5 64.93 5 38.86 5 12 C3.35 12 1.7 12 0 12 C0 8.04 0 4.08 0 0 Z " fill="#9D7A47" transform="translate(258,309)"/>
<path d="M0 0 C2.31 0 4.62 0 7 0 C7.667 1.333 8.333 2.667 9 4 C9.99 4.33 10.98 4.66 12 5 C12.66 5.33 13.32 5.66 14 6 C14.681 6.309 15.361 6.619 16.062 6.938 C18 8 18 8 19 10 C21.048 10.835 21.048 10.835 23.438 11.5 C27.784 12.784 27.784 12.784 30 15 C32.571 15.648 32.571 15.648 35 16 C35 16.33 35 16.66 35 17 C35.804 17.124 36.609 17.248 37.438 17.375 C38.706 17.684 38.706 17.684 40 18 C40.495 18.99 40.495 18.99 41 20 C41.66 20.33 42.32 20.66 43 21 C43 21.99 43 22.98 43 24 C45.97 24 48.94 24 52 24 C52.495 24.99 52.495 24.99 53 26 C53.99 26.165 54.98 26.33 56 26.5 C56.99 26.665 57.98 26.83 59 27 C60 29 60.494 30.831 61 33 C61.699 32.977 62.397 32.954 63.117 32.93 C64.027 32.912 64.937 32.894 65.875 32.875 C67.232 32.84 67.232 32.84 68.617 32.805 C71 33 71 33 73 35 C74.317 35.697 75.649 36.37 77 37 C76.505 37.99 76.505 37.99 76 39 C74.02 39 72.04 39 70 39 C70 38.34 70 37.68 70 37 C68.02 37 66.04 37 64 37 C63.67 36.01 63.34 35.02 63 34 C61.35 34 59.7 34 58 34 C58 32.68 58 31.36 58 30 C55.69 30 53.38 30 51 30 C51 29.01 51 28.02 51 27 C49.02 27 47.04 27 45 27 C45 26.34 45 25.68 45 25 C43.35 25 41.7 25 40 25 C40 24.01 40 23.02 40 22 C38.02 22 36.04 22 34 22 C34 21.01 34 20.02 34 19 C32.02 19 30.04 19 28 19 C28 18.01 28 17.02 28 16 C26.35 16 24.7 16 23 16 C23 15.01 23 14.02 23 13 C21.02 13 19.04 13 17 13 C17 12.01 17 11.02 17 10 C15.02 10 13.04 10 11 10 C11 9.01 11 8.02 11 7 C9.35 7 7.7 7 6 7 C6 6.01 6 5.02 6 4 C4.02 4 2.04 4 0 4 C0 2.68 0 1.36 0 0 Z M41 22 C42 24 42 24 42 24 Z " fill="#A09FA1" transform="translate(367,76)"/>
<path d="M0 0 C1.65 0 3.3 0 5 0 C5 0.66 5 1.32 5 2 C6.32 2 7.64 2 9 2 C9 3.32 9 4.64 9 6 C7.68 6 6.36 6 5 6 C5 7.32 5 8.64 5 10 C4.01 10 3.02 10 2 10 C2 11.32 2 12.64 2 14 C1.01 14 0.02 14 -1 14 C-1 14.99 -1 15.98 -1 17 C-1.99 17 -2.98 17 -4 17 C-4 17.99 -4 18.98 -4 20 C-4.99 20 -5.98 20 -7 20 C-7.33 20.66 -7.66 21.32 -8 22 C-8 17.38 -8 12.76 -8 8 C-7.34 8 -6.68 8 -6 8 C-6 7.01 -6 6.02 -6 5 C-5.01 5 -4.02 5 -3 5 C-3 4.34 -3 3.68 -3 3 C-2.01 3 -1.02 3 0 3 C0 2.01 0 1.02 0 0 Z " fill="#57717B" transform="translate(227,280)"/>
<path d="M0 0 C5.28 0 10.56 0 16 0 C16 1.65 16 3.3 16 5 C18.31 5 20.62 5 23 5 C23 5.99 23 6.98 23 8 C24.98 8 26.96 8 29 8 C29 8.99 29 9.98 29 11 C30.98 11 32.96 11 35 11 C35 12.65 35 14.3 35 16 C33.68 16 32.36 16 31 16 C31 15.01 31 14.02 31 13 C29.35 13 27.7 13 26 13 C26 12.34 26 11.68 26 11 C24.02 11 22.04 11 20 11 C20 10.01 20 9.02 20 8 C18.02 8 16.04 8 14 8 C14 7.01 14 6.02 14 5 C9.38 5 4.76 5 0 5 C0 3.35 0 1.7 0 0 Z " fill="#CEDED7" transform="translate(201,266)"/>
<path d="M0 0 C0 0.66 0 1.32 0 2 C1.65 2 3.3 2 5 2 C5 2.99 5 3.98 5 5 C6.98 5 8.96 5 11 5 C11 5.99 11 6.98 11 8 C12.65 8 14.3 8 16 8 C16 8.99 16 9.98 16 11 C18.31 11 20.62 11 23 11 C23 11.99 23 12.98 23 14 C24.65 14 26.3 14 28 14 C28 14.99 28 15.98 28 17 C29.98 17 31.96 17 34 17 C34.495 17.99 34.495 17.99 35 19 C37.527 19.656 37.527 19.656 40 20 C40 20.99 40 21.98 40 23 C40.99 23 41.98 23 43 23 C43 23.99 43 24.98 43 26 C45.64 26 48.28 26 51 26 C51.495 27.98 51.495 27.98 52 30 C50.353 29.886 48.708 29.759 47.062 29.625 C46.146 29.555 45.229 29.486 44.285 29.414 C43.531 29.277 42.777 29.141 42 29 C41.505 28.01 41.505 28.01 41 27 C39.158 24.947 39.158 24.947 37 24 C36.01 23.34 35.02 22.68 34 22 C34 21.67 34 21.34 34 21 C32.866 20.876 31.731 20.752 30.562 20.625 C29.387 20.419 28.211 20.212 27 20 C26.505 19.01 26.505 19.01 26 18 C25.175 17.835 24.35 17.67 23.5 17.5 C22.675 17.335 21.85 17.17 21 17 C20.67 16.34 20.34 15.68 20 15 C19.01 14.67 18.02 14.34 17 14 C16.01 13.67 15.02 13.34 14 13 C14 12.34 14 11.68 14 11 C13.422 10.876 12.845 10.752 12.25 10.625 C10 10 10 10 8.188 9.062 C5.818 7.828 5.818 7.828 2.312 7 C1.219 6.67 0.126 6.34 -1 6 C-1.33 5.34 -1.66 4.68 -2 4 C-3.309 2.969 -4.641 1.965 -6 1 C-3.924 0.447 -2.156 0 0 0 Z M6 6 C10 7 10 7 10 7 Z " fill="#8E8C90" transform="translate(79,396)"/>
<path d="M0 0 C1.65 0 3.3 0 5 0 C5.33 0.99 5.66 1.98 6 3 C6.804 2.979 7.609 2.959 8.438 2.938 C11 3 11 3 12 4 C12.072 5.853 12.084 7.708 12.062 9.562 C12.053 10.574 12.044 11.586 12.035 12.629 C12.024 13.411 12.012 14.194 12 15 C9.36 15 6.72 15 4 15 C4 14.01 4 13.02 4 12 C2.68 12 1.36 12 0 12 C0 8.04 0 4.08 0 0 Z " fill="#D3ECF0" transform="translate(224,316)"/>
<path d="M0 0 C0.33 0 0.66 0 1 0 C1.33 9.9 1.66 19.8 2 30 C2.66 30 3.32 30 4 30 C4 28.68 4 27.36 4 26 C4.99 26 5.98 26 7 26 C7 24.68 7 23.36 7 22 C7.99 22 8.98 22 10 22 C10 15.07 10 8.14 10 1 C10.33 1 10.66 1 11 1 C11 7.6 11 14.2 11 21 C12.65 21 14.3 21 16 21 C15 24 15 24 13 26 C12.01 26 11.02 26 10 26 C10 27.32 10 28.64 10 30 C9.01 30 8.02 30 7 30 C7 30.99 7 31.98 7 33 C5.515 33.495 5.515 33.495 4 34 C1.505 36.495 1.641 37.673 1.375 41.125 C1.3 42.035 1.225 42.945 1.148 43.883 C1.099 44.581 1.05 45.28 1 46 C0.67 46 0.34 46 0 46 C0 30.82 0 15.64 0 0 Z " fill="#7B969B" transform="translate(191,278)"/>
<path d="M0 0 C1.019 0.004 1.019 0.004 2.059 0.009 C4.209 0.02 6.358 0.045 8.508 0.07 C9.974 0.08 11.44 0.089 12.906 0.098 C16.482 0.12 20.057 0.154 23.633 0.195 C23.633 0.855 23.633 1.515 23.633 2.195 C25.283 2.195 26.933 2.195 28.633 2.195 C29.128 3.185 29.128 3.185 29.633 4.195 C30.561 4.659 30.561 4.659 31.508 5.133 C33.691 6.224 35.003 7.402 36.633 9.195 C33.993 8.865 31.353 8.535 28.633 8.195 C28.633 7.535 28.633 6.875 28.633 6.195 C25.993 6.195 23.353 6.195 20.633 6.195 C20.138 3.72 20.138 3.72 19.633 1.195 C11.053 1.195 2.473 1.195 -6.367 1.195 C-6.367 1.855 -6.367 2.515 -6.367 3.195 C-8.017 3.195 -9.667 3.195 -11.367 3.195 C-11.367 4.185 -11.367 5.175 -11.367 6.195 C-12.027 6.195 -12.687 6.195 -13.367 6.195 C-13.697 7.185 -14.027 8.175 -14.367 9.195 C-16.347 9.195 -18.327 9.195 -20.367 9.195 C-20.367 9.855 -20.367 10.515 -20.367 11.195 C-22.017 11.195 -23.667 11.195 -25.367 11.195 C-25.367 12.185 -25.367 13.175 -25.367 14.195 C-27.347 14.195 -29.327 14.195 -31.367 14.195 C-31.367 13.205 -31.367 12.215 -31.367 11.195 C-29.717 10.865 -28.067 10.535 -26.367 10.195 C-26.367 9.535 -26.367 8.875 -26.367 8.195 C-24.387 7.535 -22.407 6.875 -20.367 6.195 C-20.367 5.865 -20.367 5.535 -20.367 5.195 C-19.583 5.072 -18.8 4.948 -17.992 4.82 C-15.227 4.404 -15.227 4.404 -13.367 2.195 C-8.803 0.289 -4.92 -0.041 0 0 Z " fill="#929296" transform="translate(244.3671875,22.8046875)"/>
<path d="M0 0 C0.33 1.32 0.66 2.64 1 4 C2.32 4 3.64 4 5 4 C5 6.64 5 9.28 5 12 C3.68 12 2.36 12 1 12 C1 13.65 1 15.3 1 17 C-1.64 17 -4.28 17 -7 17 C-6.67 12.71 -6.34 8.42 -6 4 C-4.02 4 -2.04 4 0 4 C0 2.68 0 1.36 0 0 Z " fill="#433027" transform="translate(281,452)"/>
<path d="M0 0 C1.65 0 3.3 0 5 0 C5 0.99 5 1.98 5 3 C6.98 3 8.96 3 11 3 C11 6.96 11 10.92 11 15 C9.02 15 7.04 15 5 15 C5 14.01 5 13.02 5 12 C3.35 12 1.7 12 0 12 C0 8.04 0 4.08 0 0 Z " fill="#F7F7F7" transform="translate(116,270)"/>
<path d="M0 0 C-2.053 1.026 -4.1 2.046 -6.188 3 C-8.172 3.871 -8.172 3.871 -9 6 C-10.996 6.355 -12.997 6.686 -15 7 C-17.347 7.939 -18.726 8.702 -20.438 10.562 C-22.51 12.469 -24.252 12.588 -27 13 C-30.118 13.646 -30.118 13.646 -31 16 C-31.33 16.66 -31.66 17.32 -32 18 C-34.063 18.391 -36.094 18.507 -38.188 18.656 C-38.786 18.77 -39.384 18.883 -40 19 C-40.33 19.66 -40.66 20.32 -41 21 C-41.66 21 -42.32 21 -43 21 C-43.33 21.99 -43.66 22.98 -44 24 C-44.66 23.67 -45.32 23.34 -46 23 C-45.75 21.125 -45.75 21.125 -45 19 C-42.938 17.75 -42.938 17.75 -41 17 C-41 16.34 -41 15.68 -41 15 C-38.36 15 -35.72 15 -33 15 C-33 13.68 -33 12.36 -33 11 C-31.35 11 -29.7 11 -28 11 C-28 10.01 -28 9.02 -28 8 C-26.02 8 -24.04 8 -22 8 C-21.67 7.01 -21.34 6.02 -21 5 C-19.35 5 -17.7 5 -16 5 C-15.67 4.01 -15.34 3.02 -15 2 C-13.35 2 -11.7 2 -10 2 C-10 1.34 -10 0.68 -10 0 C-6.337 -0.749 -3.576 -1.238 0 0 Z " fill="#9E999E" transform="translate(337,460)"/>
<path d="M0 0 C9.9 0 19.8 0 30 0 C30 1.32 30 2.64 30 4 C20.1 4 10.2 4 0 4 C0 2.68 0 1.36 0 0 Z " fill="#603A0E" transform="translate(201,349)"/>
<path d="M0 0 C1.32 0 2.64 0 4 0 C4 7.26 4 14.52 4 22 C0.04 22.495 0.04 22.495 -4 23 C-4 23.66 -4 24.32 -4 25 C-5.32 25 -6.64 25 -8 25 C-8 23.35 -8 21.7 -8 20 C-7.01 19.67 -6.02 19.34 -5 19 C-4.267 16.985 -4.267 16.985 -4 15 C-3.01 15 -2.02 15 -1 15 C-1 13.68 -1 12.36 -1 11 C0.32 11 1.64 11 3 11 C3 7.7 3 4.4 3 1 C2.01 0.67 1.02 0.34 0 0 Z " fill="#E7F4F6" transform="translate(237,397)"/>
<path d="M0 0 C9.24 0 18.48 0 28 0 C28 1.32 28 2.64 28 4 C18.76 4 9.52 4 0 4 C0 2.68 0 1.36 0 0 Z " fill="#5A370D" transform="translate(201,261)"/>
<path d="M0 0 C1.65 0 3.3 0 5 0 C5 7.26 5 14.52 5 22 C3.35 22 1.7 22 0 22 C0 14.74 0 7.48 0 0 Z " fill="#BCC9CF" transform="translate(201,397)"/>
<path d="M0 0 C2.97 0.495 2.97 0.495 6 1 C6 2.32 6 3.64 6 5 C7.98 5 9.96 5 12 5 C12 5.99 12 6.98 12 8 C13.98 8 15.96 8 18 8 C18 8.99 18 9.98 18 11 C23.61 11 29.22 11 35 11 C35.33 10.01 35.66 9.02 36 8 C36 8.99 36 9.98 36 11 C37.32 11.33 38.64 11.66 40 12 C36.375 12.029 32.75 12.047 29.125 12.062 C28.112 12.071 27.099 12.079 26.055 12.088 C19.637 12.108 13.37 11.783 7 11 C7 10.01 7 9.02 7 8 C5.68 8 4.36 8 3 8 C3 6.68 3 5.36 3 4 C2.01 4 1.02 4 0 4 C0 2.68 0 1.36 0 0 Z " fill="#AE8A54" transform="translate(189,332)"/>
<path d="M0 0 C1.32 0 2.64 0 4 0 C4 1.32 4 2.64 4 4 C3.01 4 2.02 4 1 4 C1 6.64 1 9.28 1 12 C-0.65 12 -2.3 12 -4 12 C-4 24.21 -4 36.42 -4 49 C-4.33 49 -4.66 49 -5 49 C-5 37.12 -5 25.24 -5 13 C-6.32 12.67 -7.64 12.34 -9 12 C-7.68 12 -6.36 12 -5 12 C-5 9.03 -5 6.06 -5 3 C-3.35 3 -1.7 3 0 3 C0 2.01 0 1.02 0 0 Z " fill="#805B2B" transform="translate(184,274)"/>
<path d="M0 0 C5.94 0 11.88 0 18 0 C18 0.33 18 0.66 18 1 C15.36 1.33 12.72 1.66 10 2 C9.67 3.65 9.34 5.3 9 7 C6.36 7 3.72 7 1 7 C1 8.32 1 9.64 1 11 C-1.97 11 -4.94 11 -8 11 C-8 9.68 -8 8.36 -8 7 C-5.36 7 -2.72 7 0 7 C0 4.69 0 2.38 0 0 Z " fill="#F6E9CA" transform="translate(264,433)"/>
<path d="M0 0 C6.93 0 13.86 0 21 0 C21 1.65 21 3.3 21 5 C14.07 5 7.14 5 0 5 C0 3.35 0 1.7 0 0 Z " fill="#191822" transform="translate(215,433)"/>
<path d="M0 0 C6.93 0 13.86 0 21 0 C21 1.65 21 3.3 21 5 C14.07 5 7.14 5 0 5 C0 3.35 0 1.7 0 0 Z " fill="#140F1B" transform="translate(215,378)"/>
<path d="M0 0 C2.97 0 5.94 0 9 0 C9 0.99 9 1.98 9 3 C7.02 3 5.04 3 3 3 C3 3.99 3 4.98 3 6 C2.01 6.33 1.02 6.66 0 7 C-0.33 7.99 -0.66 8.98 -1 10 C-1.66 10 -2.32 10 -3 10 C-3 12.97 -3 15.94 -3 19 C-3.33 17.68 -3.66 16.36 -4 15 C-4.99 15 -5.98 15 -7 15 C-7 12.36 -7 9.72 -7 7 C-6.01 7 -5.02 7 -4 7 C-4 5.68 -4 4.36 -4 3 C-2.68 3 -1.36 3 0 3 C0 2.01 0 1.02 0 0 Z " fill="#F4D99B" transform="translate(192,271)"/>
<path d="M0 0 C3.63 0 7.26 0 11 0 C11 0.33 11 0.66 11 1 C9.886 1.186 9.886 1.186 8.75 1.375 C6.041 1.87 6.041 1.87 3.938 3.062 C2 4 2 4 -2 4 C-2.33 4.99 -2.66 5.98 -3 7 C-3.99 7.33 -4.98 7.66 -6 8 C-6 8.66 -6 9.32 -6 10 C-6.743 10.124 -7.485 10.248 -8.25 10.375 C-10.829 10.961 -12.748 11.633 -15 13 C-15.33 13.66 -15.66 14.32 -16 15 C-18.285 15.414 -18.285 15.414 -21.062 15.625 C-21.982 15.7 -22.901 15.775 -23.848 15.852 C-24.913 15.925 -24.913 15.925 -26 16 C-26 15.34 -26 14.68 -26 14 C-25.01 14 -24.02 14 -23 14 C-23 13.34 -23 12.68 -23 12 C-21.02 12 -19.04 12 -17 12 C-17 11.01 -17 10.02 -17 9 C-15.35 9 -13.7 9 -12 9 C-11.67 8.01 -11.34 7.02 -11 6 C-9.35 6 -7.7 6 -6 6 C-5.67 5.01 -5.34 4.02 -5 3 C-3.35 3 -1.7 3 0 3 C0 2.01 0 1.02 0 0 Z " fill="#959595" transform="translate(359,442)"/>
<path d="M0 0 C3.3 0 6.6 0 10 0 C10 0.99 10 1.98 10 3 C8.68 3 7.36 3 6 3 C6 4.65 6 6.3 6 8 C4.35 8 2.7 8 1 8 C1 9.32 1 10.64 1 12 C-0.32 12 -1.64 12 -3 12 C-3 9.03 -3 6.06 -3 3 C-2.01 3 -1.02 3 0 3 C0 2.01 0 1.02 0 0 Z " fill="#F6FCFB" transform="translate(218,397)"/>
<path d="M0 0 C1.32 0 2.64 0 4 0 C4 7.26 4 14.52 4 22 C2.68 22 1.36 22 0 22 C0 14.74 0 7.48 0 0 Z " fill="#0D0B15" transform="translate(251,397)"/>
<path d="M0 0 C1.32 0 2.64 0 4 0 C4 7.26 4 14.52 4 22 C2.68 22 1.36 22 0 22 C0 14.74 0 7.48 0 0 Z " fill="#11101A" transform="translate(197,397)"/>
<path d="M0 0 C1.32 0 2.64 0 4 0 C4 7.26 4 14.52 4 22 C2.68 22 1.36 22 0 22 C0 14.74 0 7.48 0 0 Z " fill="#ACB9C4" transform="translate(246,397)"/>
<path d="M0 0 C1.32 0 2.64 0 4 0 C4 0.99 4 1.98 4 3 C5.32 3 6.64 3 8 3 C8 4.98 8 6.96 8 9 C8.99 9 9.98 9 11 9 C11 12.3 11 15.6 11 19 C9.68 19 8.36 19 7 19 C7 15.7 7 12.4 7 9 C5.68 9 4.36 9 3 9 C3 7.35 3 5.7 3 4 C2.01 4 1.02 4 0 4 C0 2.68 0 1.36 0 0 Z " fill="#6B471B" transform="translate(241,274)"/>
<path d="M0 0 C6.93 0 13.86 0 21 0 C21 1.32 21 2.64 21 4 C14.07 4 7.14 4 0 4 C0 2.68 0 1.36 0 0 Z " fill="#A5AFBB" transform="translate(215,429)"/>
<path d="M0 0 C1.98 0 3.96 0 6 0 C6 4.62 6 9.24 6 14 C4.02 14 2.04 14 0 14 C0 9.38 0 4.76 0 0 Z " fill="#1E191A" transform="translate(293,396)"/>
<path d="M0 0 C6.93 0 13.86 0 21 0 C21 1.32 21 2.64 21 4 C14.07 4 7.14 4 0 4 C0 2.68 0 1.36 0 0 Z " fill="#C9D8DF" transform="translate(215,383)"/>
<path d="M0 0 C0.495 0.99 0.495 0.99 1 2 C0.031 2.124 -0.939 2.248 -1.938 2.375 C-3.453 2.684 -3.453 2.684 -5 3 C-5.33 3.66 -5.66 4.32 -6 5 C-7.65 5 -9.3 5 -11 5 C-11.33 5.99 -11.66 6.98 -12 8 C-13.65 8 -15.3 8 -17 8 C-17 8.99 -17 9.98 -17 11 C-18.65 11 -20.3 11 -22 11 C-22 11.99 -22 12.98 -22 14 C-25.96 14 -29.92 14 -34 14 C-34 13.67 -34 13.34 -34 13 C-32.35 12.67 -30.7 12.34 -29 12 C-29 11.67 -29 11.34 -29 11 C-28.093 10.711 -27.185 10.422 -26.25 10.125 C-20.726 8.279 -20.726 8.279 -17 4 C-14.375 3.312 -14.375 3.312 -12 3 C-12 2.34 -12 1.68 -12 1 C-6.06 0.505 -6.06 0.505 0 0 Z " fill="#959498" transform="translate(150,72)"/>
<path d="M0 0 C1.65 0 3.3 0 5 0 C5 2.97 5 5.94 5 9 C3.68 9.33 2.36 9.66 1 10 C1 10.99 1 11.98 1 13 C0.01 13 -0.98 13 -2 13 C-2 13.99 -2 14.98 -2 16 C-3.32 16 -4.64 16 -6 16 C-6 14.68 -6 13.36 -6 12 C-5.01 12 -4.02 12 -3 12 C-3 10.68 -3 9.36 -3 8 C-2.01 8 -1.02 8 0 8 C0 5.36 0 2.72 0 0 Z " fill="#6D481A" transform="translate(247,328)"/>
<path d="M0 0 C2.31 0 4.62 0 7 0 C7 0.99 7 1.98 7 3 C5.68 3 4.36 3 3 3 C3 8.28 3 13.56 3 19 C2.34 19.33 1.68 19.66 1 20 C-2.248 21.722 -2.248 21.722 -3 25 C-3.66 25.66 -4.32 26.32 -5 27 C-5.99 27 -6.98 27 -8 27 C-7.387 24.038 -6.746 22.619 -5 20 C-4.34 20 -3.68 20 -3 20 C-3 19.01 -3 18.02 -3 17 C-2.01 17 -1.02 17 0 17 C0 11.39 0 5.78 0 0 Z " fill="#838386" transform="translate(456,369)"/>
<path d="M0 0 C5.28 0 10.56 0 16 0 C16 1.65 16 3.3 16 5 C10.72 5 5.44 5 0 5 C0 3.35 0 1.7 0 0 Z " fill="#F2D390" transform="translate(201,266)"/>
<path d="M0 0 C0 0.66 0 1.32 0 2 C-1.65 2 -3.3 2 -5 2 C-5 2.99 -5 3.98 -5 5 C-6.65 5 -8.3 5 -10 5 C-10 5.99 -10 6.98 -10 8 C-11.98 8 -13.96 8 -16 8 C-16 8.99 -16 9.98 -16 11 C-17.98 11 -19.96 11 -22 11 C-22 11.99 -22 12.98 -22 14 C-25.63 14 -29.26 14 -33 14 C-33 13.67 -33 13.34 -33 13 C-29.7 13 -26.4 13 -23 13 C-22.67 11.02 -22.34 9.04 -22 7 C-21.257 6.876 -20.515 6.752 -19.75 6.625 C-16.162 5.809 -13.566 4.345 -10.438 2.438 C-6.815 0.301 -4.134 -0.112 0 0 Z M-7 2 C-6 4 -6 4 -6 4 Z " fill="#9F9EA0" transform="translate(121,87)"/>
<path d="M0 0 C2.97 0.495 2.97 0.495 6 1 C5.01 1.33 4.02 1.66 3 2 C2.67 2.66 2.34 3.32 2 4 C0.379 7.243 -2.751 7.689 -6 9 C-7.275 9.638 -8.546 10.283 -9.812 10.938 C-15.288 13.597 -19.878 15.136 -26 15 C-26 14.67 -26 14.34 -26 14 C-24.35 14 -22.7 14 -21 14 C-21 13.01 -21 12.02 -21 11 C-19.02 11 -17.04 11 -15 11 C-15 10.01 -15 9.02 -15 8 C-13.02 8 -11.04 8 -9 8 C-9 7.01 -9 6.02 -9 5 C-7.02 5 -5.04 5 -3 5 C-2.67 4.01 -2.34 3.02 -2 2 C-1.34 2 -0.68 2 0 2 C0 1.34 0 0.68 0 0 Z " fill="#878788" transform="translate(443,396)"/>
<path d="M0 0 C10.23 0 20.46 0 31 0 C31 1.65 31 3.3 31 5 C29.35 5 27.7 5 26 5 C26 3.68 26 2.36 26 1 C19.07 1 12.14 1 5 1 C5 1.99 5 2.98 5 4 C3.35 4 1.7 4 0 4 C0 2.68 0 1.36 0 0 Z " fill="#919BA6" transform="translate(210,424)"/>
<path d="M0 0 C0.99 0 1.98 0 3 0 C3 7.26 3 14.52 3 22 C2.01 22 1.02 22 0 22 C0 14.74 0 7.48 0 0 Z " fill="#393B41" transform="translate(242,397)"/>
<path d="M0 0 C0.99 0 1.98 0 3 0 C3 7.26 3 14.52 3 22 C2.01 22 1.02 22 0 22 C0 14.74 0 7.48 0 0 Z " fill="#34383F" transform="translate(206,397)"/>
<path d="M0 0 C1.98 0 3.96 0 6 0 C6 3.63 6 7.26 6 11 C4.02 11 2.04 11 0 11 C0 7.37 0 3.74 0 0 Z " fill="#5D390D" transform="translate(264,309)"/>
<path d="M0 0 C0 0.66 0 1.32 0 2 C-2.31 2 -4.62 2 -7 2 C-7 2.99 -7 3.98 -7 5 C-9.31 5 -11.62 5 -14 5 C-14 5.99 -14 6.98 -14 8 C-15.98 8 -17.96 8 -20 8 C-20 8.66 -20 9.32 -20 10 C-21.98 10 -23.96 10 -26 10 C-26 9.01 -26 8.02 -26 7 C-23.03 7 -20.06 7 -17 7 C-16.67 6.01 -16.34 5.02 -16 4 C-15.67 3.01 -15.34 2.02 -15 1 C-9.919 0.153 -5.152 -0.09 0 0 Z " fill="#9D9DA0" transform="translate(95,102)"/>
<path d="M0 0 C3.63 0 7.26 0 11 0 C11 0.33 11 0.66 11 1 C7.37 1 3.74 1 0 1 C0 0.67 0 0.34 0 0 Z " fill="#4D4D4D" transform="translate(265,490)"/>
<path d="M0 0 C3.3 0 6.6 0 10 0 C10 0.33 10 0.66 10 1 C6.7 1 3.4 1 0 1 C0 0.67 0 0.34 0 0 Z " fill="#3F3F3F" transform="translate(253,490)"/>
<path d="M0 0 C4 1 4 1 4 1 Z " fill="#AAAAAA" transform="translate(408,419)"/>
<path d="M0 0 C4 1 4 1 4 1 Z " fill="#D8CCD8" transform="translate(413,416)"/>
<path d="M0 0 C4 1 4 1 4 1 Z " fill="#EFEFEF" transform="translate(386,85)"/>
<path d="M0 0 C3 1 3 1 3 1 Z " fill="#787878" transform="translate(334,60)"/>
<path d="M0 0 C2 1 2 1 2 1 Z " fill="#3F3F3F" transform="translate(277,490)"/>
<path d="" fill="#7F7F7F" transform="translate(0,0)"/>
<path d="M0 0 C2 1 2 1 2 1 Z " fill="#FFFFFF" transform="translate(426,410)"/>
<path d="" fill="#2A2A2A" transform="translate(0,0)"/>
<path d="" fill="#7F7F7F" transform="translate(0,0)"/>
<path d="" fill="#FFFFFF" transform="translate(0,0)"/>
<path d="" fill="#FFFFFF" transform="translate(0,0)"/>
<path d="" fill="#AAAAAA" transform="translate(0,0)"/>
<path d="" fill="#FFFFFF" transform="translate(0,0)"/>
<path d="" fill="#FFFFFF" transform="translate(0,0)"/>
<path d="" fill="#FFFFFF" transform="translate(0,0)"/>
<path d="" fill="#555555" transform="translate(0,0)"/>
<path d="" fill="#7F7F7F" transform="translate(0,0)"/>
<path d="" fill="#FFFFFF" transform="translate(0,0)"/>
<path d="" fill="#FFFFFF" transform="translate(0,0)"/>
<path d="" fill="#FFFFFF" transform="translate(0,0)"/>
<path d="" fill="#FFFFFF" transform="translate(0,0)"/>
<path d="" fill="#FFFFFF" transform="translate(0,0)"/>
<path d="" fill="#FFFFFF" transform="translate(0,0)"/>
<path d="" fill="#000000" transform="translate(0,0)"/>
<path d="" fill="#FFFFFF" transform="translate(0,0)"/>
<path d="" fill="#AAAAAA" transform="translate(0,0)"/>
<path d="" fill="#000000" transform="translate(0,0)"/>
<path d="" fill="#FFFFFF" transform="translate(0,0)"/>
<path d="" fill="#FFFFFF" transform="translate(0,0)"/>
<path d="" fill="#FFFFFF" transform="translate(0,0)"/>
<path d="" fill="#FFFFFF" transform="translate(0,0)"/>
<path d="" fill="#000000" transform="translate(0,0)"/>
<path d="" fill="#AAAAAA" transform="translate(0,0)"/>
<path d="" fill="#FFFFFF" transform="translate(0,0)"/>
<path d="" fill="#7F7F7F" transform="translate(0,0)"/>
<path d="" fill="#FFFFFF" transform="translate(0,0)"/>
<path d="" fill="#FFFFFF" transform="translate(0,0)"/>
<path d="" fill="#FFFFFF" transform="translate(0,0)"/>
<path d="" fill="#7F7F7F" transform="translate(0,0)"/>
</svg>
