<?xml version="1.0" encoding="UTF-8"?>
<!-- Generator: visioncortex VTracer 0.6.4 -->
<svg version="1.1" xmlns="http://www.w3.org/2000/svg" width="512" height="512">
<path d="M0 0 C2.338 -0.341 2.338 -0.341 5.227 -0.293 C6.773 -0.278 6.773 -0.278 8.352 -0.264 C9.432 -0.239 10.512 -0.213 11.625 -0.188 C12.713 -0.174 13.801 -0.16 14.922 -0.146 C17.615 -0.111 20.307 -0.062 23 0 C24 2 24 2 25 5 C27.64 5 30.28 5 33 5 C33.33 6.32 33.66 7.64 34 9 C36.018 9.163 38.036 9.326 40.055 9.488 C42 10 42 10 44 13 C46.563 13.73 46.563 13.73 49 14 C49 14.33 49 14.66 49 15 C50.65 15.33 52.3 15.66 54 16 C54 16.66 54 17.32 54 18 C54.957 18.29 54.957 18.29 55.934 18.586 C57.173 18.977 57.173 18.977 58.438 19.375 C59.261 19.63 60.085 19.885 60.934 20.148 C63 21 63 21 64 23 C66.752 25.123 66.752 25.123 69.438 25.438 C72.696 26.153 74.668 27.668 77 30 C77.598 30.124 78.196 30.248 78.812 30.375 C81.438 31.125 83.003 32.146 85 34 C85 34.99 85 35.98 85 37 C85.784 36.979 86.567 36.959 87.375 36.938 C90 37 90 37 92 38 C92 38.66 92 39.32 92 40 C93.671 39.938 93.671 39.938 95.375 39.875 C99 40 99 40 101 42 C103.752 44.123 103.752 44.123 106.438 44.438 C109.353 45.078 110.644 46.215 113 48 C113.969 48.289 114.939 48.577 115.938 48.875 C120.129 50.415 122.991 52.982 125 57 C126.238 56.917 127.475 56.835 128.75 56.75 C132.69 56.743 132.69 56.743 135.188 58.812 C135.786 59.534 136.384 60.256 137 61 C137.908 61.536 138.815 62.072 139.75 62.625 C140.493 63.079 141.235 63.532 142 64 C142 64.66 142 65.32 142 66 C142.99 66.66 143.98 67.32 145 68 C146.778 69.642 147.913 70.826 149 73 C149.33 73 149.66 73 150 73 C150 120.19 150 167.38 150 216 C151.98 216.33 153.96 216.66 156 217 C156 217.33 156 217.66 156 218 C157.65 218.33 159.3 218.66 161 219 C161 219.66 161 220.32 161 221 C162.98 221.99 164.96 222.98 167 224 C167.054 226.125 167.093 228.25 167.125 230.375 C167.148 231.558 167.171 232.742 167.195 233.961 C167 237 167 237 165 239 C162.952 239.838 160.876 240.52 158.777 241.219 C156.804 241.861 156.804 241.861 156 244 C153.011 245.993 151.421 246.332 148 247 C144.825 248.258 144.825 248.258 143 251 C141.074 251.781 141.074 251.781 138.688 252.5 C135.625 253.431 132.775 254.383 130 256 C129.67 256.66 129.34 257.32 129 258 C127.021 258.727 125.02 259.398 123 260 C123 260.33 123 260.66 123 261 C121.35 261.33 119.7 261.66 118 262 C118 262.66 118 263.32 118 264 C116.68 264.66 115.36 265.32 114 266 C114 266.33 114 266.66 114 267 C113.092 267.103 112.185 267.206 111.25 267.312 C107.885 268.024 106.647 268.95 104 271 C102.342 271.373 100.674 271.707 99 272 C97.651 272.635 96.315 273.298 95 274 C94.01 274.33 93.02 274.66 92 275 C91.526 275.639 91.051 276.279 90.562 276.938 C88.83 279.225 87.608 279.894 85 281 C84.257 281.371 83.515 281.743 82.75 282.125 C81.884 282.558 81.884 282.558 81 283 C81 283.33 81 283.66 81 284 C80.257 284.103 79.515 284.206 78.75 284.312 C75.984 284.794 75.984 284.794 74.188 286.5 C71.782 288.149 70.714 288.228 67.875 288.438 C66.596 288.623 65.317 288.809 64 289 C62.85 290.967 62.85 290.967 62 293 C58.875 293.75 58.875 293.75 56 294 C56 294.66 56 295.32 56 296 C53.03 296 50.06 296 47 296 C48.65 296.33 50.3 296.66 52 297 C51.01 297.66 50.02 298.32 49 299 C48.34 299.66 47.68 300.32 47 301 C46.051 301.144 45.102 301.289 44.125 301.438 C41.017 301.738 41.017 301.738 39.133 303.515 C36.475 305.366 34.966 305.361 31.754 305.328 C30.752 305.323 29.749 305.318 28.717 305.312 C27.676 305.292 26.635 305.271 25.562 305.25 C24.525 305.245 23.488 305.24 22.42 305.234 C9.616 305.103 9.616 305.103 5 301 C5 300.67 5 300.34 5 300 C4.093 299.897 3.185 299.794 2.25 299.688 C-1.104 298.978 -2.425 298.146 -5 296 C-6.318 295.304 -7.648 294.628 -9 294 C-9 293.67 -9 293.34 -9 293 C-10.65 292.67 -12.3 292.34 -14 292 C-14 291.34 -14 290.68 -14 290 C-15.114 289.876 -16.228 289.752 -17.375 289.625 C-21 289 -21 289 -23 287 C-25.845 284.802 -25.845 284.802 -29.125 284.5 C-30.074 284.335 -31.022 284.17 -32 284 C-32.33 283.34 -32.66 282.68 -33 282 C-34.883 281.097 -34.883 281.097 -37.062 280.375 C-38.163 279.984 -38.163 279.984 -39.285 279.586 C-39.851 279.393 -40.417 279.199 -41 279 C-41 278.34 -41 277.68 -41 277 C-41.969 276.876 -42.939 276.752 -43.938 276.625 C-45.453 276.316 -45.453 276.316 -47 276 C-47.33 275.34 -47.66 274.68 -48 274 C-48.763 273.856 -49.526 273.711 -50.312 273.562 C-53.311 272.935 -54.585 271.811 -57 270 C-58.664 269.652 -60.33 269.316 -62 269 C-62.33 268.34 -62.66 267.68 -63 267 C-65.546 265.908 -68.137 265.015 -70.75 264.098 C-71.493 263.735 -72.235 263.373 -73 263 C-73.495 261.515 -73.495 261.515 -74 260 C-74.71 259.879 -75.421 259.758 -76.152 259.633 C-77.071 259.465 -77.991 259.298 -78.938 259.125 C-79.854 258.963 -80.771 258.8 -81.715 258.633 C-82.469 258.424 -83.223 258.215 -84 258 C-84.33 257.34 -84.66 256.68 -85 256 C-86.75 255.203 -86.75 255.203 -88.812 254.562 C-92.777 253.154 -95.621 251.559 -98.438 248.375 C-100.5 246.56 -102.33 246.521 -105 246 C-107.188 244.5 -107.188 244.5 -109 243 C-110.334 242.333 -111.69 241.707 -113.062 241.125 C-115 240 -115 240 -116 237 C-117.887 236.845 -117.887 236.845 -119.812 236.688 C-122.229 236.489 -123.683 236.201 -125.738 234.898 C-127.682 231.974 -127.396 229.402 -127.375 225.938 C-127.383 224.688 -127.39 223.439 -127.398 222.152 C-127.267 221.112 -127.135 220.072 -127 219 C-124.099 217.066 -123.103 216.699 -119.812 216.375 C-118.554 216.251 -117.296 216.127 -116 216 C-116.06 215.364 -116.119 214.729 -116.18 214.074 C-117.798 196.345 -118.27 178.787 -118.195 160.992 C-118.192 158.316 -118.189 155.641 -118.187 152.965 C-118.181 146.722 -118.164 140.479 -118.144 134.236 C-118.121 127.109 -118.111 119.981 -118.101 112.854 C-118.08 98.236 -118.045 83.618 -118 69 C-116.515 68.505 -116.515 68.505 -115 68 C-114.646 66.672 -114.315 65.338 -114 64 C-112.405 62.127 -111.204 61.102 -109 60 C-108.402 59.484 -107.804 58.969 -107.188 58.438 C-104.576 56.722 -103.063 56.745 -100 57 C-99.67 56.34 -99.34 55.68 -99 55 C-96.493 51.24 -94.135 50.608 -90 49 C-90 48.34 -90 47.68 -90 47 C-87.525 46.505 -87.525 46.505 -85 46 C-85 45.67 -85 45.34 -85 45 C-83.886 44.845 -83.886 44.845 -82.75 44.688 C-79.818 43.955 -78.241 42.992 -76 41 C-76 40.67 -76 40.34 -76 40 C-73.36 40 -70.72 40 -68 40 C-68 39.01 -68 38.02 -68 37 C-67.01 37 -66.02 37 -65 37 C-64.505 36.01 -64.505 36.01 -64 35 C-63.505 34.01 -63.505 34.01 -63 33 C-61.339 32.641 -59.671 32.311 -58 32 C-54.825 30.742 -54.825 30.742 -53 28 C-50.69 26.946 -48.357 25.943 -46 25 C-46 24.67 -46 24.34 -46 24 C-45.257 23.876 -44.515 23.752 -43.75 23.625 C-41.171 23.039 -39.252 22.367 -37 21 C-36.67 20.34 -36.34 19.68 -36 19 C-34.152 18.148 -34.152 18.148 -31.938 17.375 C-30.837 16.984 -30.837 16.984 -29.715 16.586 C-29.149 16.393 -28.583 16.199 -28 16 C-28 15.34 -28 14.68 -28 14 C-27.381 13.711 -26.762 13.423 -26.125 13.125 C-23.867 12.063 -23.867 12.063 -22 10 C-20.329 9.783 -20.329 9.783 -18.625 9.562 C-15.044 9.007 -13.566 8.463 -11 6 C-11 5.67 -11 5.34 -11 5 C-8.36 5 -5.72 5 -3 5 C-2.67 4.34 -2.34 3.68 -2 3 C-1.34 2.01 -0.68 1.02 0 0 Z M-117 70 C-117 72.64 -117 75.28 -117 78 C-116.67 78 -116.34 78 -116 78 C-116 75.36 -116 72.72 -116 70 C-116.33 70 -116.66 70 -117 70 Z M-116 79 C-116 88.9 -116 98.8 -116 109 C-115.67 109 -115.34 109 -115 109 C-115 99.1 -115 89.2 -115 79 C-115.33 79 -115.66 79 -116 79 Z M-117 110 C-117 119.57 -117 129.14 -117 139 C-116.67 139 -116.34 139 -116 139 C-116 129.43 -116 119.86 -116 110 C-116.33 110 -116.66 110 -117 110 Z M-116 140 C-116 148.58 -116 157.16 -116 166 C-115.67 166 -115.34 166 -115 166 C-115 157.42 -115 148.84 -115 140 C-115.33 140 -115.66 140 -116 140 Z M-117 167 C-117 174.59 -117 182.18 -117 190 C-116.67 190 -116.34 190 -116 190 C-116 182.41 -116 174.82 -116 167 C-116.33 167 -116.66 167 -117 167 Z M-116 190 C-116 193.3 -116 196.6 -116 200 C-115.67 200 -115.34 200 -115 200 C-115 196.7 -115 193.4 -115 190 C-115.33 190 -115.66 190 -116 190 Z M148 212 C149 214 149 214 149 214 Z M-66 264 C-62 265 -62 265 -62 265 Z " fill="#FAE6BD" transform="translate(236,186)"/>
<path d="M0 0 C2.338 -0.341 2.338 -0.341 5.227 -0.293 C6.773 -0.278 6.773 -0.278 8.352 -0.264 C9.432 -0.239 10.512 -0.213 11.625 -0.188 C12.713 -0.174 13.801 -0.16 14.922 -0.146 C17.615 -0.111 20.307 -0.062 23 0 C24 2 24 2 25 5 C27.64 5 30.28 5 33 5 C33.33 6.32 33.66 7.64 34 9 C36.018 9.163 38.036 9.326 40.055 9.488 C42 10 42 10 44 13 C46.563 13.73 46.563 13.73 49 14 C49 14.33 49 14.66 49 15 C50.65 15.33 52.3 15.66 54 16 C54 16.66 54 17.32 54 18 C54.957 18.29 54.957 18.29 55.934 18.586 C57.173 18.977 57.173 18.977 58.438 19.375 C59.261 19.63 60.085 19.885 60.934 20.148 C63 21 63 21 64 23 C66.752 25.123 66.752 25.123 69.438 25.438 C72.696 26.153 74.668 27.668 77 30 C77.598 30.124 78.196 30.248 78.812 30.375 C81.438 31.125 83.003 32.146 85 34 C85 34.99 85 35.98 85 37 C85.784 36.979 86.567 36.959 87.375 36.938 C90 37 90 37 92 38 C92 38.66 92 39.32 92 40 C93.671 39.938 93.671 39.938 95.375 39.875 C99 40 99 40 101 42 C103.752 44.123 103.752 44.123 106.438 44.438 C109.353 45.078 110.644 46.215 113 48 C113.969 48.289 114.939 48.577 115.938 48.875 C120.129 50.415 122.991 52.982 125 57 C126.238 56.917 127.475 56.835 128.75 56.75 C132.69 56.743 132.69 56.743 135.188 58.812 C135.786 59.534 136.384 60.256 137 61 C137.908 61.536 138.815 62.072 139.75 62.625 C140.493 63.079 141.235 63.532 142 64 C142 64.66 142 65.32 142 66 C142.99 66.66 143.98 67.32 145 68 C146.778 69.642 147.913 70.826 149 73 C149.33 73 149.66 73 150 73 C150 120.19 150 167.38 150 216 C151.98 216.33 153.96 216.66 156 217 C156 217.33 156 217.66 156 218 C157.65 218.33 159.3 218.66 161 219 C161 219.66 161 220.32 161 221 C162.98 221.99 164.96 222.98 167 224 C167.054 226.125 167.093 228.25 167.125 230.375 C167.148 231.558 167.171 232.742 167.195 233.961 C167 237 167 237 165 239 C162.952 239.838 160.876 240.52 158.777 241.219 C156.804 241.861 156.804 241.861 156 244 C153.011 245.993 151.421 246.332 148 247 C144.825 248.258 144.825 248.258 143 251 C141.074 251.781 141.074 251.781 138.688 252.5 C135.625 253.431 132.775 254.383 130 256 C129.67 256.66 129.34 257.32 129 258 C127.021 258.727 125.02 259.398 123 260 C123 260.33 123 260.66 123 261 C121.35 261.33 119.7 261.66 118 262 C118 262.66 118 263.32 118 264 C116.68 264.66 115.36 265.32 114 266 C114 266.33 114 266.66 114 267 C113.092 267.103 112.185 267.206 111.25 267.312 C107.885 268.024 106.647 268.95 104 271 C102.342 271.373 100.674 271.707 99 272 C97.651 272.635 96.315 273.298 95 274 C94.01 274.33 93.02 274.66 92 275 C91.526 275.639 91.051 276.279 90.562 276.938 C88.83 279.225 87.608 279.894 85 281 C84.257 281.371 83.515 281.743 82.75 282.125 C81.884 282.558 81.884 282.558 81 283 C81 283.33 81 283.66 81 284 C80.257 284.103 79.515 284.206 78.75 284.312 C75.984 284.794 75.984 284.794 74.188 286.5 C71.782 288.149 70.714 288.228 67.875 288.438 C66.596 288.623 65.317 288.809 64 289 C62.85 290.967 62.85 290.967 62 293 C58.875 293.75 58.875 293.75 56 294 C56 294.66 56 295.32 56 296 C53.03 296 50.06 296 47 296 C48.65 296.33 50.3 296.66 52 297 C51.01 297.66 50.02 298.32 49 299 C48.34 299.66 47.68 300.32 47 301 C46.051 301.144 45.102 301.289 44.125 301.438 C41.017 301.738 41.017 301.738 39.133 303.515 C36.475 305.366 34.966 305.361 31.754 305.328 C30.752 305.323 29.749 305.318 28.717 305.312 C27.676 305.292 26.635 305.271 25.562 305.25 C24.525 305.245 23.488 305.24 22.42 305.234 C9.616 305.103 9.616 305.103 5 301 C5 300.67 5 300.34 5 300 C4.093 299.897 3.185 299.794 2.25 299.688 C-1.104 298.978 -2.425 298.146 -5 296 C-6.318 295.304 -7.648 294.628 -9 294 C-9 293.67 -9 293.34 -9 293 C-10.65 292.67 -12.3 292.34 -14 292 C-14 291.34 -14 290.68 -14 290 C-15.114 289.876 -16.228 289.752 -17.375 289.625 C-21 289 -21 289 -23 287 C-25.845 284.802 -25.845 284.802 -29.125 284.5 C-30.074 284.335 -31.022 284.17 -32 284 C-32.33 283.34 -32.66 282.68 -33 282 C-34.883 281.097 -34.883 281.097 -37.062 280.375 C-38.163 279.984 -38.163 279.984 -39.285 279.586 C-39.851 279.393 -40.417 279.199 -41 279 C-41 278.34 -41 277.68 -41 277 C-41.969 276.876 -42.939 276.752 -43.938 276.625 C-45.453 276.316 -45.453 276.316 -47 276 C-47.33 275.34 -47.66 274.68 -48 274 C-48.763 273.856 -49.526 273.711 -50.312 273.562 C-53.311 272.935 -54.585 271.811 -57 270 C-58.664 269.652 -60.33 269.316 -62 269 C-62.33 268.34 -62.66 267.68 -63 267 C-65.546 265.908 -68.137 265.015 -70.75 264.098 C-71.493 263.735 -72.235 263.373 -73 263 C-73.495 261.515 -73.495 261.515 -74 260 C-74.71 259.879 -75.421 259.758 -76.152 259.633 C-77.071 259.465 -77.991 259.298 -78.938 259.125 C-79.854 258.963 -80.771 258.8 -81.715 258.633 C-82.469 258.424 -83.223 258.215 -84 258 C-84.33 257.34 -84.66 256.68 -85 256 C-86.75 255.203 -86.75 255.203 -88.812 254.562 C-92.777 253.154 -95.621 251.559 -98.438 248.375 C-100.5 246.56 -102.33 246.521 -105 246 C-107.188 244.5 -107.188 244.5 -109 243 C-110.334 242.333 -111.69 241.707 -113.062 241.125 C-115 240 -115 240 -116 237 C-117.887 236.845 -117.887 236.845 -119.812 236.688 C-122.229 236.489 -123.683 236.201 -125.738 234.898 C-127.682 231.974 -127.396 229.402 -127.375 225.938 C-127.383 224.688 -127.39 223.439 -127.398 222.152 C-127.267 221.112 -127.135 220.072 -127 219 C-124.099 217.066 -123.103 216.699 -119.812 216.375 C-118.554 216.251 -117.296 216.127 -116 216 C-116.06 215.364 -116.119 214.729 -116.18 214.074 C-117.798 196.345 -118.27 178.787 -118.195 160.992 C-118.192 158.316 -118.189 155.641 -118.187 152.965 C-118.181 146.722 -118.164 140.479 -118.144 134.236 C-118.121 127.109 -118.111 119.981 -118.101 112.854 C-118.08 98.236 -118.045 83.618 -118 69 C-116.515 68.505 -116.515 68.505 -115 68 C-114.646 66.672 -114.315 65.338 -114 64 C-112.405 62.127 -111.204 61.102 -109 60 C-108.402 59.484 -107.804 58.969 -107.188 58.438 C-104.576 56.722 -103.063 56.745 -100 57 C-99.67 56.34 -99.34 55.68 -99 55 C-96.493 51.24 -94.135 50.608 -90 49 C-90 48.34 -90 47.68 -90 47 C-87.525 46.505 -87.525 46.505 -85 46 C-85 45.67 -85 45.34 -85 45 C-83.886 44.845 -83.886 44.845 -82.75 44.688 C-79.818 43.955 -78.241 42.992 -76 41 C-76 40.67 -76 40.34 -76 40 C-73.36 40 -70.72 40 -68 40 C-68 39.01 -68 38.02 -68 37 C-67.01 37 -66.02 37 -65 37 C-64.505 36.01 -64.505 36.01 -64 35 C-63.505 34.01 -63.505 34.01 -63 33 C-61.339 32.641 -59.671 32.311 -58 32 C-54.825 30.742 -54.825 30.742 -53 28 C-50.69 26.946 -48.357 25.943 -46 25 C-46 24.67 -46 24.34 -46 24 C-45.257 23.876 -44.515 23.752 -43.75 23.625 C-41.171 23.039 -39.252 22.367 -37 21 C-36.67 20.34 -36.34 19.68 -36 19 C-34.152 18.148 -34.152 18.148 -31.938 17.375 C-30.837 16.984 -30.837 16.984 -29.715 16.586 C-29.149 16.393 -28.583 16.199 -28 16 C-28 15.34 -28 14.68 -28 14 C-27.381 13.711 -26.762 13.423 -26.125 13.125 C-23.867 12.063 -23.867 12.063 -22 10 C-20.329 9.783 -20.329 9.783 -18.625 9.562 C-15.044 9.007 -13.566 8.463 -11 6 C-11 5.67 -11 5.34 -11 5 C-8.36 5 -5.72 5 -3 5 C-2.67 4.34 -2.34 3.68 -2 3 C-1.34 2.01 -0.68 1.02 0 0 Z M4 8 C4 8.66 4 9.32 4 10 C2.68 10 1.36 10 0 10 C0 10.99 0 11.98 0 13 C-0.99 13 -1.98 13 -3 13 C-3 13.66 -3 14.32 -3 15 C-4.32 15 -5.64 15 -7 15 C-7 15.66 -7 16.32 -7 17 C-7.99 17 -8.98 17 -10 17 C-10 17.66 -10 18.32 -10 19 C-11.32 19 -12.64 19 -14 19 C-14 19.99 -14 20.98 -14 22 C-15.65 22 -17.3 22 -19 22 C-19 22.99 -19 23.98 -19 25 C-20.32 25 -21.64 25 -23 25 C-23 25.66 -23 26.32 -23 27 C-24.65 27 -26.3 27 -28 27 C-28 27.66 -28 28.32 -28 29 C-29.32 29 -30.64 29 -32 29 C-32 29.99 -32 30.98 -32 32 C-33.32 32 -34.64 32 -36 32 C-36 32.66 -36 33.32 -36 34 C-37.65 34 -39.3 34 -41 34 C-41 34.66 -41 35.32 -41 36 C-42.65 36 -44.3 36 -46 36 C-46 36.66 -46 37.32 -46 38 C-47.32 38 -48.64 38 -50 38 C-50 38.99 -50 39.98 -50 41 C-50.99 41 -51.98 41 -53 41 C-53 41.66 -53 42.32 -53 43 C-54.98 43 -56.96 43 -59 43 C-59 43.99 -59 44.98 -59 46 C-60.65 46 -62.3 46 -64 46 C-64 46.66 -64 47.32 -64 48 C-65.32 48 -66.64 48 -68 48 C-68 48.99 -68 49.98 -68 51 C-69.65 51 -71.3 51 -73 51 C-73 51.66 -73 52.32 -73 53 C-73.99 53 -74.98 53 -76 53 C-76 53.66 -76 54.32 -76 55 C-77.65 55 -79.3 55 -81 55 C-81 55.99 -81 56.98 -81 58 C-82.32 58 -83.64 58 -85 58 C-85 58.66 -85 59.32 -85 60 C-86.65 60 -88.3 60 -90 60 C-90 60.66 -90 61.32 -90 62 C-90.99 62 -91.98 62 -93 62 C-93 62.99 -93 63.98 -93 65 C-94.32 65 -95.64 65 -97 65 C-97 65.66 -97 66.32 -97 67 C-97.99 67 -98.98 67 -100 67 C-100 67.66 -100 68.32 -100 69 C-101.32 69 -102.64 69 -104 69 C-104 69.66 -104 70.32 -104 71 C-104.99 71 -105.98 71 -107 71 C-107 118.19 -107 165.38 -107 214 C-106.01 214 -105.02 214 -104 214 C-104 214.99 -104 215.98 -104 217 C-102.68 217 -101.36 217 -100 217 C-100 217.66 -100 218.32 -100 219 C-98.35 219 -96.7 219 -95 219 C-95 219.99 -95 220.98 -95 222 C-93.35 222 -91.7 222 -90 222 C-90 222.66 -90 223.32 -90 224 C-88.35 224 -86.7 224 -85 224 C-85 224.99 -85 225.98 -85 227 C-83.68 227 -82.36 227 -81 227 C-81 227.66 -81 228.32 -81 229 C-79.02 229 -77.04 229 -75 229 C-75 229.66 -75 230.32 -75 231 C-74.34 231 -73.68 231 -73 231 C-73 231.99 -73 232.98 -73 234 C-71.35 234 -69.7 234 -68 234 C-68 234.66 -68 235.32 -68 236 C-66.02 236 -64.04 236 -62 236 C-62 236.66 -62 237.32 -62 238 C-60.35 238 -58.7 238 -57 238 C-57 238.99 -57 239.98 -57 241 C-55.35 241 -53.7 241 -52 241 C-52 241.66 -52 242.32 -52 243 C-50.68 243 -49.36 243 -48 243 C-48 243.99 -48 244.98 -48 246 C-46.35 246 -44.7 246 -43 246 C-43 246.66 -43 247.32 -43 248 C-41.68 248 -40.36 248 -39 248 C-39 248.99 -39 249.98 -39 251 C-37.35 251 -35.7 251 -34 251 C-34 250.01 -34 249.02 -34 248 C-34.66 248 -35.32 248 -36 248 C-36 243.38 -36 238.76 -36 234 C-35.34 234 -34.68 234 -34 234 C-34 233.01 -34 232.02 -34 231 C-33.01 231 -32.02 231 -31 231 C-31 230.34 -31 229.68 -31 229 C-29.35 229 -27.7 229 -26 229 C-26 228.01 -26 227.02 -26 226 C-22.7 226 -19.4 226 -16 226 C-16 225.34 -16 224.68 -16 224 C-14.35 224 -12.7 224 -11 224 C-11 223.34 -11 222.68 -11 222 C-9.68 222 -8.36 222 -7 222 C-7 221.01 -7 220.02 -7 219 C-4.69 219 -2.38 219 0 219 C0 220.65 0 222.3 0 224 C-0.99 224 -1.98 224 -3 224 C-3 224.66 -3 225.32 -3 226 C-4.32 226 -5.64 226 -7 226 C-7 226.99 -7 227.98 -7 229 C-8.65 229 -10.3 229 -12 229 C-12 229.99 -12 230.98 -12 232 C-13.32 232 -14.64 232 -16 232 C-16 232.66 -16 233.32 -16 234 C-19.3 234 -22.6 234 -26 234 C-26.33 235.65 -26.66 237.3 -27 239 C-27.66 239 -28.32 239 -29 239 C-29 241.97 -29 244.94 -29 248 C-28.01 248 -27.02 248 -26 248 C-26 248.99 -26 249.98 -26 251 C-20.72 251 -15.44 251 -10 251 C-10 250.01 -10 249.02 -10 248 C-9.01 248 -8.02 248 -7 248 C-7 247.34 -7 246.68 -7 246 C-4.69 246 -2.38 246 0 246 C0 245.34 0 244.68 0 244 C0.66 244 1.32 244 2 244 C2 243.01 2 242.02 2 241 C2.66 241 3.32 241 4 241 C4 243.31 4 245.62 4 248 C3.34 248 2.68 248 2 248 C2 248.66 2 249.32 2 250 C1.34 250 0.68 250 0 250 C0 250.99 0 251.98 0 253 C-1.65 253 -3.3 253 -5 253 C-5 253.66 -5 254.32 -5 255 C-6.65 255 -8.3 255 -10 255 C-10 255.99 -10 256.98 -10 258 C-12.97 258 -15.94 258 -19 258 C-19 258.66 -19 259.32 -19 260 C-17.35 260 -15.7 260 -14 260 C-14 260.99 -14 261.98 -14 263 C-12.68 263 -11.36 263 -10 263 C-10 263.66 -10 264.32 -10 265 C-9.01 265 -8.02 265 -7 265 C-7 265.66 -7 266.32 -7 267 C-6.361 267.124 -5.721 267.248 -5.062 267.375 C-4.042 267.684 -4.042 267.684 -3 268 C-2.67 268.66 -2.34 269.32 -2 270 C-0.02 270 1.96 270 4 270 C4 270.99 4 271.98 4 273 C5.32 273 6.64 273 8 273 C8 273.66 8 274.32 8 275 C8.99 275 9.98 275 11 275 C11 275.66 11 276.32 11 277 C13.31 277.33 15.62 277.66 18 278 C18 277.01 18 276.02 18 275 C19.32 275 20.64 275 22 275 C22 273.35 22 271.7 22 270 C22.99 270 23.98 270 25 270 C25 226.77 25 183.54 25 139 C23.35 139 21.7 139 20 139 C20 137.02 20 135.04 20 133 C19.34 133 18.68 133 18 133 C18 132.34 18 131.68 18 131 C22.95 130.67 27.9 130.34 33 130 C33 129.34 33 128.68 33 128 C34.32 128 35.64 128 37 128 C37 127.34 37 126.68 37 126 C38.32 126 39.64 126 41 126 C41 125.34 41 124.68 41 124 C42.65 124 44.3 124 46 124 C46 123.01 46 122.02 46 121 C47.32 121 48.64 121 50 121 C50 120.34 50 119.68 50 119 C51.65 119 53.3 119 55 119 C55 118.01 55 117.02 55 116 C56.32 116 57.64 116 59 116 C59 115.34 59 114.68 59 114 C60.65 114 62.3 114 64 114 C64 113.34 64 112.68 64 112 C65.65 112 67.3 112 69 112 C69 111.34 69 110.68 69 110 C69.99 110 70.98 110 72 110 C72 109.34 72 108.68 72 108 C73.32 108 74.64 108 76 108 C76 107.34 76 106.68 76 106 C76.66 106 77.32 106 78 106 C78 105.34 78 104.68 78 104 C79.65 104 81.3 104 83 104 C83 103.01 83 102.02 83 101 C84.65 101 86.3 101 88 101 C88 100.34 88 99.68 88 99 C89.32 99 90.64 99 92 99 C92 98.34 92 97.68 92 97 C93.32 97 94.64 97 96 97 C96 96.34 96 95.68 96 95 C97.32 95 98.64 95 100 95 C100 94.34 100 93.68 100 93 C101.32 93 102.64 93 104 93 C104 92.01 104 91.02 104 90 C105.65 90 107.3 90 109 90 C109 89.01 109 88.02 109 87 C110.65 87 112.3 87 114 87 C114 86.34 114 85.68 114 85 C115.32 85 116.64 85 118 85 C118 84.34 118 83.68 118 83 C119.65 83 121.3 83 123 83 C123 82.01 123 81.02 123 80 C124.32 80 125.64 80 127 80 C127 79.34 127 78.68 127 78 C128.65 78 130.3 78 132 78 C132.934 73.469 132.934 73.469 132 69 C131.01 69 130.02 69 129 69 C129 68.34 129 67.68 129 67 C127.02 67 125.04 67 123 67 C123 66.34 123 65.68 123 65 C121.35 65 119.7 65 118 65 C118 64.01 118 63.02 118 62 C116.68 62 115.36 62 114 62 C114 61.34 114 60.68 114 60 C113.01 60 112.02 60 111 60 C111 59.34 111 58.68 111 58 C109.35 58 107.7 58 106 58 C106 57.01 106 56.02 106 55 C104.35 55 102.7 55 101 55 C101 54.34 101 53.68 101 53 C99.35 53 97.7 53 96 53 C96 52.34 96 51.68 96 51 C94.68 51 93.36 51 92 51 C92 50.01 92 49.02 92 48 C90.35 48 88.7 48 87 48 C87 47.34 87 46.68 87 46 C85.35 46 83.7 46 82 46 C82 45.01 82 44.02 82 43 C80.35 43 78.7 43 77 43 C77 42.34 77 41.68 77 41 C75.02 41 73.04 41 71 41 C71 40.01 71 39.02 71 38 C69.68 38 68.36 38 67 38 C67 37.34 67 36.68 67 36 C66.01 36 65.02 36 64 36 C64 35.01 64 34.02 64 33 C62.35 33 60.7 33 59 33 C59 32.34 59 31.68 59 31 C57.68 31 56.36 31 55 31 C55 30.34 55 29.68 55 29 C53.35 29 51.7 29 50 29 C50 28.34 50 27.68 50 27 C48.68 27 47.36 27 46 27 C46 26.01 46 25.02 46 24 C44.35 24 42.7 24 41 24 C41 23.34 41 22.68 41 22 C40.34 22 39.68 22 39 22 C39 21.34 39 20.68 39 20 C37.35 20 35.7 20 34 20 C34 19.01 34 18.02 34 17 C32.35 17 30.7 17 29 17 C29 16.34 29 15.68 29 15 C27.68 15 26.36 15 25 15 C25 14.34 25 13.68 25 13 C23.35 13 21.7 13 20 13 C20 12.34 20 11.68 20 11 C19.34 11 18.68 11 18 11 C18 10.01 18 9.02 18 8 C13.38 8 8.76 8 4 8 Z M-117 70 C-117 72.64 -117 75.28 -117 78 C-116.67 78 -116.34 78 -116 78 C-116 75.36 -116 72.72 -116 70 C-116.33 70 -116.66 70 -117 70 Z M-116 79 C-116 88.9 -116 98.8 -116 109 C-115.67 109 -115.34 109 -115 109 C-115 99.1 -115 89.2 -115 79 C-115.33 79 -115.66 79 -116 79 Z M-117 110 C-117 119.57 -117 129.14 -117 139 C-116.67 139 -116.34 139 -116 139 C-116 129.43 -116 119.86 -116 110 C-116.33 110 -116.66 110 -117 110 Z M-116 140 C-116 148.58 -116 157.16 -116 166 C-115.67 166 -115.34 166 -115 166 C-115 157.42 -115 148.84 -115 140 C-115.33 140 -115.66 140 -116 140 Z M-117 167 C-117 174.59 -117 182.18 -117 190 C-116.67 190 -116.34 190 -116 190 C-116 182.41 -116 174.82 -116 167 C-116.33 167 -116.66 167 -117 167 Z M-116 190 C-116 193.3 -116 196.6 -116 200 C-115.67 200 -115.34 200 -115 200 C-115 196.7 -115 193.4 -115 190 C-115.33 190 -115.66 190 -116 190 Z M148 212 C149 214 149 214 149 214 Z M-66 264 C-62 265 -62 265 -62 265 Z " fill="#E3B886" transform="translate(236,186)"/>
<path d="M0 0 C9.9 0 19.8 0 30 0 C30 0.66 30 1.32 30 2 C30.99 2.66 31.98 3.32 33 4 C33.66 3.34 34.32 2.68 35 2 C38.073 1.773 38.073 1.773 41.977 1.805 C43.004 1.809 43.004 1.809 44.053 1.813 C46.244 1.824 48.434 1.85 50.625 1.875 C52.109 1.885 53.594 1.894 55.078 1.902 C58.719 1.924 62.359 1.959 66 2 C66.495 2.99 66.495 2.99 67 4 C68.268 4.742 68.268 4.742 69.562 5.5 C70.769 6.242 70.769 6.242 72 7 C72 7.66 72 8.32 72 9 C80.25 9 88.5 9 97 9 C98 11 98.494 12.831 99 15 C99.743 14.897 100.485 14.794 101.25 14.688 C104 15 104 15 105.875 17.125 C106.576 18.074 107.278 19.023 108 20 C108.607 20.388 109.214 20.776 109.84 21.176 C112.141 22.647 113.507 23.691 115 26 C115.309 30.771 114.768 35.291 114 40 C114.99 40.33 115.98 40.66 117 41 C118 42 119 43 120 44 C120.619 44.289 121.238 44.578 121.875 44.875 C124.792 46.419 126.742 48.62 129 51 C129.33 51.33 129.66 51.66 130 52 C130.21 54.629 130.357 57.233 130.457 59.867 C130.487 60.658 130.518 61.448 130.549 62.263 C130.61 63.939 130.667 65.615 130.722 67.292 C130.782 69.011 130.851 70.729 130.929 72.448 C131.042 74.921 131.127 77.393 131.207 79.867 C131.266 81.02 131.266 81.02 131.326 82.197 C131.378 84.371 131.378 84.371 131 88 C129.175 89.883 129.175 89.883 127 91 C126.01 91.66 125.02 92.32 124 93 C123.01 93.495 123.01 93.495 122 94 C121.67 94.99 121.34 95.98 121 97 C119.625 99.187 119.625 99.187 118 101 C117.01 101 116.02 101 115 101 C115 104.96 115 108.92 115 113 C114.01 113.495 114.01 113.495 113 114 C112.711 114.577 112.423 115.155 112.125 115.75 C109.918 120.164 106.951 123.139 103 126 C102.67 126.66 102.34 127.32 102 128 C98.615 128.933 95.415 129.119 91.918 129.098 C90.987 129.094 90.055 129.091 89.096 129.088 C88.136 129.08 87.176 129.071 86.188 129.062 C85.208 129.058 84.229 129.053 83.221 129.049 C80.814 129.037 78.407 129.021 76 129 C75.938 129.598 75.876 130.196 75.812 130.812 C75 133 75 133 72.885 134.725 C69.35 136.287 66.698 136.388 62.836 136.398 C62.162 136.401 61.488 136.404 60.794 136.407 C59.377 136.409 57.96 136.404 56.543 136.391 C54.374 136.375 52.208 136.391 50.039 136.41 C48.659 136.408 47.279 136.404 45.898 136.398 C44.647 136.395 43.396 136.392 42.107 136.388 C39 136 39 136 37.069 134.663 C36 133 36 133 36 130 C35.134 130.433 35.134 130.433 34.25 130.875 C32.167 131.917 30.083 132.958 28 134 C28 134.33 28 134.66 28 135 C23.71 135 19.42 135 15 135 C15.023 136.12 15.046 137.24 15.07 138.395 C15.089 139.867 15.107 141.34 15.125 142.812 C15.15 143.919 15.15 143.919 15.176 145.049 C15.211 148.912 15.194 150.709 13 154 C12.01 154 11.02 154 10 154 C9.67 154.66 9.34 155.32 9 156 C7 159 7 159 4.875 159.688 C4.256 159.791 3.637 159.894 3 160 C3.66 160.99 4.32 161.98 5 163 C5.301 165.594 5.301 165.594 5.312 168.5 C5.329 169.459 5.346 170.418 5.363 171.406 C4.944 174.401 4.27 175.115 2 177 C1.67 177.66 1.34 178.32 1 179 C0.67 179.66 0.34 180.32 0 181 C-6.27 181 -12.54 181 -19 181 C-20 179 -20 179 -21 176 C-21.66 175.67 -22.32 175.34 -23 175 C-23.108 172.561 -23.187 170.127 -23.25 167.688 C-23.284 166.997 -23.317 166.307 -23.352 165.596 C-23.391 163.574 -23.391 163.574 -23 160 C-21.076 158.048 -19.423 157.211 -17 156 C-17.969 155.402 -18.939 154.804 -19.938 154.188 C-23 152 -23 152 -24 149 C-24.199 146.316 -24.322 143.687 -24.375 141 C-24.431 139.913 -24.431 139.913 -24.488 138.805 C-24.523 136.688 -24.523 136.688 -24 133 C-21.574 131.098 -21.574 131.098 -19 130 C-18.484 129.484 -17.969 128.969 -17.438 128.438 C-14.155 125.155 -10.487 124.612 -6 124 C-9.595 120.48 -13.232 120.56 -18 120.5 C-26.467 120.393 -29.151 117.849 -35 112 C-35.66 111.67 -36.32 111.34 -37 111 C-37.33 110.01 -37.66 109.02 -38 108 C-38.516 107.484 -39.031 106.969 -39.562 106.438 C-40.037 105.963 -40.511 105.489 -41 105 C-41 104.34 -41 103.68 -41 103 C-42.32 102.67 -43.64 102.34 -45 102 C-45 97.71 -45 93.42 -45 89 C-45.99 88.67 -46.98 88.34 -48 88 C-48.66 87.67 -49.32 87.34 -50 87 C-50 86.01 -50 85.02 -50 84 C-50.598 83.773 -51.196 83.546 -51.812 83.312 C-54.675 81.595 -55.528 79.988 -57 77 C-57.372 73.986 -57.372 73.986 -57.363 70.676 C-57.363 69.483 -57.362 68.29 -57.361 67.061 C-57.345 65.824 -57.329 64.587 -57.312 63.312 C-57.316 62.064 -57.319 60.816 -57.322 59.529 C-57.267 50.267 -57.267 50.267 -55 48 C-54.01 48 -53.02 48 -52 48 C-51.67 47.01 -51.34 46.02 -51 45 C-50.317 44.442 -49.634 43.884 -48.93 43.309 C-46.193 40.034 -46.78 37.089 -47.125 33.062 C-47.193 32.359 -47.262 31.656 -47.332 30.932 C-47.489 28.038 -47.598 25.743 -45.726 23.417 C-43.634 21.65 -41.449 20.224 -39 19 C-37.866 16.983 -37.866 16.983 -37 15 C-35.02 15 -33.04 15 -31 15 C-31.66 14.67 -32.32 14.34 -33 14 C-32.67 13.01 -32.34 12.02 -32 11 C-24.08 10.67 -16.16 10.34 -8 10 C-7.34 8.35 -6.68 6.7 -6 5 C-4 3.667 -2 2.333 0 1 C0 0.67 0 0.34 0 0 Z M113 28 C114 31 114 31 114 31 Z M112 34 C112 35.98 112 37.96 112 40 C112.33 40 112.66 40 113 40 C113 38.02 113 36.04 113 34 C112.67 34 112.34 34 112 34 Z M-13 128 C-10.36 127.67 -7.72 127.34 -5 127 C-5 126.67 -5 126.34 -5 126 C-9.493 125.575 -9.493 125.575 -13 128 Z M-5 127 C-5 127.33 -5 127.66 -5 128 C-3.35 128 -1.7 128 0 128 C0 127.67 0 127.34 0 127 C-1.65 127 -3.3 127 -5 127 Z M13 135 C13 140.28 13 145.56 13 151 C13.33 151 13.66 151 14 151 C14 145.72 14 140.44 14 135 C13.67 135 13.34 135 13 135 Z " fill="#FCEECB" transform="translate(181,23)"/>
<path d="M0 0 C2.338 -0.341 2.338 -0.341 5.227 -0.293 C6.773 -0.278 6.773 -0.278 8.352 -0.264 C9.432 -0.239 10.512 -0.213 11.625 -0.188 C12.713 -0.174 13.801 -0.16 14.922 -0.146 C17.615 -0.111 20.307 -0.062 23 0 C24 2 24 2 25 5 C27.64 5 30.28 5 33 5 C33.33 6.32 33.66 7.64 34 9 C36.018 9.163 38.036 9.326 40.055 9.488 C42 10 42 10 44 13 C46.563 13.73 46.563 13.73 49 14 C49 14.33 49 14.66 49 15 C50.65 15.33 52.3 15.66 54 16 C54 16.66 54 17.32 54 18 C54.957 18.29 54.957 18.29 55.934 18.586 C57.173 18.977 57.173 18.977 58.438 19.375 C59.261 19.63 60.085 19.885 60.934 20.148 C63 21 63 21 64 23 C66.752 25.123 66.752 25.123 69.438 25.438 C72.696 26.153 74.668 27.668 77 30 C77.598 30.124 78.196 30.248 78.812 30.375 C81.438 31.125 83.003 32.146 85 34 C85 34.99 85 35.98 85 37 C85.784 36.979 86.567 36.959 87.375 36.938 C90 37 90 37 92 38 C92 38.66 92 39.32 92 40 C93.671 39.938 93.671 39.938 95.375 39.875 C99 40 99 40 101 42 C103.752 44.123 103.752 44.123 106.438 44.438 C109.353 45.078 110.644 46.215 113 48 C113.969 48.289 114.939 48.577 115.938 48.875 C120.129 50.415 122.991 52.982 125 57 C126.238 56.917 127.475 56.835 128.75 56.75 C132.69 56.743 132.69 56.743 135.188 58.812 C135.786 59.534 136.384 60.256 137 61 C137.908 61.536 138.815 62.072 139.75 62.625 C140.493 63.079 141.235 63.532 142 64 C142 64.66 142 65.32 142 66 C142.99 66.66 143.98 67.32 145 68 C146.778 69.642 147.913 70.826 149 73 C149.33 73 149.66 73 150 73 C150 120.19 150 167.38 150 216 C151.98 216.33 153.96 216.66 156 217 C156 217.33 156 217.66 156 218 C157.65 218.33 159.3 218.66 161 219 C161 219.66 161 220.32 161 221 C162.98 221.99 164.96 222.98 167 224 C167.054 226.125 167.093 228.25 167.125 230.375 C167.148 231.558 167.171 232.742 167.195 233.961 C167 237 167 237 165 239 C162.952 239.838 160.876 240.52 158.777 241.219 C156.804 241.861 156.804 241.861 156 244 C153.011 245.993 151.421 246.332 148 247 C144.825 248.258 144.825 248.258 143 251 C141.074 251.781 141.074 251.781 138.688 252.5 C135.625 253.431 132.775 254.383 130 256 C129.67 256.66 129.34 257.32 129 258 C127.021 258.727 125.02 259.398 123 260 C123 260.33 123 260.66 123 261 C121.35 261.33 119.7 261.66 118 262 C118 262.66 118 263.32 118 264 C116.68 264.66 115.36 265.32 114 266 C114 266.33 114 266.66 114 267 C113.092 267.103 112.185 267.206 111.25 267.312 C107.885 268.024 106.647 268.95 104 271 C102.342 271.373 100.674 271.707 99 272 C97.651 272.635 96.315 273.298 95 274 C94.01 274.33 93.02 274.66 92 275 C91.526 275.639 91.051 276.279 90.562 276.938 C88.83 279.225 87.608 279.894 85 281 C84.257 281.371 83.515 281.743 82.75 282.125 C81.884 282.558 81.884 282.558 81 283 C81 283.33 81 283.66 81 284 C80.257 284.103 79.515 284.206 78.75 284.312 C75.984 284.794 75.984 284.794 74.188 286.5 C71.782 288.149 70.714 288.228 67.875 288.438 C66.596 288.623 65.317 288.809 64 289 C62.85 290.967 62.85 290.967 62 293 C58.875 293.75 58.875 293.75 56 294 C56 294.66 56 295.32 56 296 C53.03 296 50.06 296 47 296 C48.65 296.33 50.3 296.66 52 297 C51.01 297.66 50.02 298.32 49 299 C48.34 299.66 47.68 300.32 47 301 C46.051 301.144 45.102 301.289 44.125 301.438 C41.017 301.738 41.017 301.738 39.133 303.515 C36.475 305.366 34.966 305.361 31.754 305.328 C30.752 305.323 29.749 305.318 28.717 305.312 C27.676 305.292 26.635 305.271 25.562 305.25 C24.525 305.245 23.488 305.24 22.42 305.234 C9.616 305.103 9.616 305.103 5 301 C5 300.67 5 300.34 5 300 C4.093 299.897 3.185 299.794 2.25 299.688 C-1.104 298.978 -2.425 298.146 -5 296 C-6.318 295.304 -7.648 294.628 -9 294 C-9 293.67 -9 293.34 -9 293 C-10.65 292.67 -12.3 292.34 -14 292 C-14 291.34 -14 290.68 -14 290 C-15.114 289.876 -16.228 289.752 -17.375 289.625 C-21 289 -21 289 -23 287 C-25.845 284.802 -25.845 284.802 -29.125 284.5 C-30.074 284.335 -31.022 284.17 -32 284 C-32.33 283.34 -32.66 282.68 -33 282 C-34.883 281.097 -34.883 281.097 -37.062 280.375 C-38.163 279.984 -38.163 279.984 -39.285 279.586 C-39.851 279.393 -40.417 279.199 -41 279 C-41 278.34 -41 277.68 -41 277 C-41.969 276.876 -42.939 276.752 -43.938 276.625 C-45.453 276.316 -45.453 276.316 -47 276 C-47.33 275.34 -47.66 274.68 -48 274 C-48.763 273.856 -49.526 273.711 -50.312 273.562 C-53.311 272.935 -54.585 271.811 -57 270 C-58.664 269.652 -60.33 269.316 -62 269 C-62.33 268.34 -62.66 267.68 -63 267 C-65.546 265.908 -68.137 265.015 -70.75 264.098 C-71.493 263.735 -72.235 263.373 -73 263 C-73.495 261.515 -73.495 261.515 -74 260 C-74.71 259.879 -75.421 259.758 -76.152 259.633 C-77.071 259.465 -77.991 259.298 -78.938 259.125 C-79.854 258.963 -80.771 258.8 -81.715 258.633 C-82.469 258.424 -83.223 258.215 -84 258 C-84.33 257.34 -84.66 256.68 -85 256 C-86.75 255.203 -86.75 255.203 -88.812 254.562 C-92.777 253.154 -95.621 251.559 -98.438 248.375 C-100.5 246.56 -102.33 246.521 -105 246 C-107.188 244.5 -107.188 244.5 -109 243 C-110.334 242.333 -111.69 241.707 -113.062 241.125 C-115 240 -115 240 -116 237 C-117.887 236.845 -117.887 236.845 -119.812 236.688 C-122.229 236.489 -123.683 236.201 -125.738 234.898 C-127.682 231.974 -127.396 229.402 -127.375 225.938 C-127.383 224.688 -127.39 223.439 -127.398 222.152 C-127.267 221.112 -127.135 220.072 -127 219 C-124.099 217.066 -123.103 216.699 -119.812 216.375 C-118.554 216.251 -117.296 216.127 -116 216 C-116.06 215.364 -116.119 214.729 -116.18 214.074 C-117.798 196.345 -118.27 178.787 -118.195 160.992 C-118.192 158.316 -118.189 155.641 -118.187 152.965 C-118.181 146.722 -118.164 140.479 -118.144 134.236 C-118.121 127.109 -118.111 119.981 -118.101 112.854 C-118.08 98.236 -118.045 83.618 -118 69 C-116.515 68.505 -116.515 68.505 -115 68 C-114.646 66.672 -114.315 65.338 -114 64 C-112.405 62.127 -111.204 61.102 -109 60 C-108.402 59.484 -107.804 58.969 -107.188 58.438 C-104.576 56.722 -103.063 56.745 -100 57 C-99.67 56.34 -99.34 55.68 -99 55 C-96.493 51.24 -94.135 50.608 -90 49 C-90 48.34 -90 47.68 -90 47 C-87.525 46.505 -87.525 46.505 -85 46 C-85 45.67 -85 45.34 -85 45 C-83.886 44.845 -83.886 44.845 -82.75 44.688 C-79.818 43.955 -78.241 42.992 -76 41 C-76 40.67 -76 40.34 -76 40 C-73.36 40 -70.72 40 -68 40 C-68 39.01 -68 38.02 -68 37 C-67.01 37 -66.02 37 -65 37 C-64.505 36.01 -64.505 36.01 -64 35 C-63.505 34.01 -63.505 34.01 -63 33 C-61.339 32.641 -59.671 32.311 -58 32 C-54.825 30.742 -54.825 30.742 -53 28 C-50.69 26.946 -48.357 25.943 -46 25 C-46 24.67 -46 24.34 -46 24 C-45.257 23.876 -44.515 23.752 -43.75 23.625 C-41.171 23.039 -39.252 22.367 -37 21 C-36.67 20.34 -36.34 19.68 -36 19 C-34.152 18.148 -34.152 18.148 -31.938 17.375 C-30.837 16.984 -30.837 16.984 -29.715 16.586 C-29.149 16.393 -28.583 16.199 -28 16 C-28 15.34 -28 14.68 -28 14 C-27.381 13.711 -26.762 13.423 -26.125 13.125 C-23.867 12.063 -23.867 12.063 -22 10 C-20.329 9.783 -20.329 9.783 -18.625 9.562 C-15.044 9.007 -13.566 8.463 -11 6 C-11 5.67 -11 5.34 -11 5 C-8.36 5 -5.72 5 -3 5 C-2.67 4.34 -2.34 3.68 -2 3 C-1.34 2.01 -0.68 1.02 0 0 Z M4 8 C4 8.66 4 9.32 4 10 C2.68 10 1.36 10 0 10 C0 10.99 0 11.98 0 13 C-0.99 13 -1.98 13 -3 13 C-3 13.66 -3 14.32 -3 15 C-4.32 15 -5.64 15 -7 15 C-7 15.66 -7 16.32 -7 17 C-7.99 17 -8.98 17 -10 17 C-10 17.66 -10 18.32 -10 19 C-11.32 19 -12.64 19 -14 19 C-14 19.99 -14 20.98 -14 22 C-15.65 22 -17.3 22 -19 22 C-19 22.99 -19 23.98 -19 25 C-20.32 25 -21.64 25 -23 25 C-23 25.66 -23 26.32 -23 27 C-24.65 27 -26.3 27 -28 27 C-28 27.66 -28 28.32 -28 29 C-29.32 29 -30.64 29 -32 29 C-32 29.99 -32 30.98 -32 32 C-33.32 32 -34.64 32 -36 32 C-36 32.66 -36 33.32 -36 34 C-37.65 34 -39.3 34 -41 34 C-41 34.66 -41 35.32 -41 36 C-42.65 36 -44.3 36 -46 36 C-46 36.66 -46 37.32 -46 38 C-47.32 38 -48.64 38 -50 38 C-50 38.99 -50 39.98 -50 41 C-50.99 41 -51.98 41 -53 41 C-53 41.66 -53 42.32 -53 43 C-54.98 43 -56.96 43 -59 43 C-59 43.99 -59 44.98 -59 46 C-60.65 46 -62.3 46 -64 46 C-64 46.66 -64 47.32 -64 48 C-65.32 48 -66.64 48 -68 48 C-68 48.99 -68 49.98 -68 51 C-69.65 51 -71.3 51 -73 51 C-73 51.66 -73 52.32 -73 53 C-73.99 53 -74.98 53 -76 53 C-76 53.66 -76 54.32 -76 55 C-77.65 55 -79.3 55 -81 55 C-81 55.99 -81 56.98 -81 58 C-82.32 58 -83.64 58 -85 58 C-85 58.66 -85 59.32 -85 60 C-86.65 60 -88.3 60 -90 60 C-90 60.66 -90 61.32 -90 62 C-90.99 62 -91.98 62 -93 62 C-93 62.99 -93 63.98 -93 65 C-94.32 65 -95.64 65 -97 65 C-97 65.66 -97 66.32 -97 67 C-97.99 67 -98.98 67 -100 67 C-100 67.66 -100 68.32 -100 69 C-101.32 69 -102.64 69 -104 69 C-104 69.66 -104 70.32 -104 71 C-104.99 71 -105.98 71 -107 71 C-107 118.19 -107 165.38 -107 214 C-106.01 214 -105.02 214 -104 214 C-104 214.99 -104 215.98 -104 217 C-102.68 217 -101.36 217 -100 217 C-100 217.66 -100 218.32 -100 219 C-98.35 219 -96.7 219 -95 219 C-95 219.99 -95 220.98 -95 222 C-93.35 222 -91.7 222 -90 222 C-90 222.66 -90 223.32 -90 224 C-88.35 224 -86.7 224 -85 224 C-85 224.99 -85 225.98 -85 227 C-83.68 227 -82.36 227 -81 227 C-81 227.66 -81 228.32 -81 229 C-79.02 229 -77.04 229 -75 229 C-75 229.66 -75 230.32 -75 231 C-74.34 231 -73.68 231 -73 231 C-73 231.99 -73 232.98 -73 234 C-71.35 234 -69.7 234 -68 234 C-68 234.66 -68 235.32 -68 236 C-66.02 236 -64.04 236 -62 236 C-62 236.66 -62 237.32 -62 238 C-60.35 238 -58.7 238 -57 238 C-57 238.99 -57 239.98 -57 241 C-55.35 241 -53.7 241 -52 241 C-52 241.66 -52 242.32 -52 243 C-50.68 243 -49.36 243 -48 243 C-48 243.99 -48 244.98 -48 246 C-46.35 246 -44.7 246 -43 246 C-43 246.66 -43 247.32 -43 248 C-41.68 248 -40.36 248 -39 248 C-39 248.99 -39 249.98 -39 251 C-37.35 251 -35.7 251 -34 251 C-34 250.01 -34 249.02 -34 248 C-34.66 248 -35.32 248 -36 248 C-36 243.38 -36 238.76 -36 234 C-35.34 234 -34.68 234 -34 234 C-34 233.01 -34 232.02 -34 231 C-33.01 231 -32.02 231 -31 231 C-31 230.34 -31 229.68 -31 229 C-29.35 229 -27.7 229 -26 229 C-26 228.01 -26 227.02 -26 226 C-22.7 226 -19.4 226 -16 226 C-16 225.34 -16 224.68 -16 224 C-14.35 224 -12.7 224 -11 224 C-11 223.34 -11 222.68 -11 222 C-9.68 222 -8.36 222 -7 222 C-7 221.01 -7 220.02 -7 219 C-4.69 219 -2.38 219 0 219 C0 220.65 0 222.3 0 224 C-0.99 224 -1.98 224 -3 224 C-3 224.66 -3 225.32 -3 226 C-4.32 226 -5.64 226 -7 226 C-7 226.99 -7 227.98 -7 229 C-8.65 229 -10.3 229 -12 229 C-12 229.99 -12 230.98 -12 232 C-13.32 232 -14.64 232 -16 232 C-16 232.66 -16 233.32 -16 234 C-19.3 234 -22.6 234 -26 234 C-26.33 235.65 -26.66 237.3 -27 239 C-27.66 239 -28.32 239 -29 239 C-29 241.97 -29 244.94 -29 248 C-28.01 248 -27.02 248 -26 248 C-26 248.99 -26 249.98 -26 251 C-20.72 251 -15.44 251 -10 251 C-10 250.01 -10 249.02 -10 248 C-9.01 248 -8.02 248 -7 248 C-7 247.34 -7 246.68 -7 246 C-4.69 246 -2.38 246 0 246 C0 245.34 0 244.68 0 244 C0.66 244 1.32 244 2 244 C2 243.01 2 242.02 2 241 C2.66 241 3.32 241 4 241 C4 243.31 4 245.62 4 248 C3.34 248 2.68 248 2 248 C2 248.66 2 249.32 2 250 C1.34 250 0.68 250 0 250 C0 250.99 0 251.98 0 253 C-1.65 253 -3.3 253 -5 253 C-5 253.66 -5 254.32 -5 255 C-6.65 255 -8.3 255 -10 255 C-10 255.99 -10 256.98 -10 258 C-12.97 258 -15.94 258 -19 258 C-19 258.66 -19 259.32 -19 260 C-17.35 260 -15.7 260 -14 260 C-14 260.99 -14 261.98 -14 263 C-12.68 263 -11.36 263 -10 263 C-10 263.66 -10 264.32 -10 265 C-9.01 265 -8.02 265 -7 265 C-7 265.66 -7 266.32 -7 267 C-6.361 267.124 -5.721 267.248 -5.062 267.375 C-4.042 267.684 -4.042 267.684 -3 268 C-2.67 268.66 -2.34 269.32 -2 270 C-0.02 270 1.96 270 4 270 C4 270.99 4 271.98 4 273 C5.32 273 6.64 273 8 273 C8 273.66 8 274.32 8 275 C8.99 275 9.98 275 11 275 C11 275.66 11 276.32 11 277 C12.32 277 13.64 277 15 277 C15 277.66 15 278.32 15 279 C22.22 279.299 22.22 279.299 29 277 C29 276.34 29 275.68 29 275 C30.65 275 32.3 275 34 275 C34 274.34 34 273.68 34 273 C35.65 273 37.3 273 39 273 C39 272.34 39 271.68 39 271 C39.99 271 40.98 271 42 271 C42 270.34 42 269.68 42 269 C43.32 269 44.64 269 46 269 C46 268.34 46 267.68 46 267 C47.32 267 48.64 267 50 267 C50 266.34 50 265.68 50 265 C51.32 265 52.64 265 54 265 C54 264.01 54 263.02 54 262 C55.32 262 56.64 262 58 262 C58 261.34 58 260.68 58 260 C59.32 260 60.64 260 62 260 C62 259.34 62 258.68 62 258 C63.32 258 64.64 258 66 258 C66 257.01 66 256.02 66 255 C67.65 255 69.3 255 71 255 C71 254.34 71 253.68 71 253 C72.65 253 74.3 253 76 253 C76 252.34 76 251.68 76 251 C77.32 251 78.64 251 80 251 C80 250.01 80 249.02 80 248 C81.32 248 82.64 248 84 248 C84 247.34 84 246.68 84 246 C85.65 246 87.3 246 89 246 C89 245.01 89 244.02 89 243 C90.65 243 92.3 243 94 243 C94 242.34 94 241.68 94 241 C95.65 241 97.3 241 99 241 C99 240.34 99 239.68 99 239 C100.65 239 102.3 239 104 239 C104 238.01 104 237.02 104 236 C105.65 236 107.3 236 109 236 C109 235.34 109 234.68 109 234 C110.32 234 111.64 234 113 234 C113 233.01 113 232.02 113 231 C113.99 231 114.98 231 116 231 C116 230.34 116 229.68 116 229 C117.32 229 118.64 229 120 229 C120 228.01 120 227.02 120 226 C121.65 226 123.3 226 125 226 C125 225.34 125 224.68 125 224 C126.65 224 128.3 224 130 224 C130 223.34 130 222.68 130 222 C131.32 222 132.64 222 134 222 C134 221.01 134 220.02 134 219 C134.66 219 135.32 219 136 219 C136 218.01 136 217.02 136 216 C136.99 216 137.98 216 139 216 C139 169.8 139 123.6 139 76 C138.34 76 137.68 76 137 76 C136.67 75.01 136.34 74.02 136 73 C135.34 73 134.68 73 134 73 C133.01 71.02 133.01 71.02 132 69 C131.01 69 130.02 69 129 69 C129 68.34 129 67.68 129 67 C127.02 67 125.04 67 123 67 C123 66.34 123 65.68 123 65 C121.35 65 119.7 65 118 65 C118 64.01 118 63.02 118 62 C116.68 62 115.36 62 114 62 C114 61.34 114 60.68 114 60 C113.01 60 112.02 60 111 60 C111 59.34 111 58.68 111 58 C109.35 58 107.7 58 106 58 C106 57.01 106 56.02 106 55 C104.35 55 102.7 55 101 55 C101 54.34 101 53.68 101 53 C99.35 53 97.7 53 96 53 C96 52.34 96 51.68 96 51 C94.68 51 93.36 51 92 51 C92 50.01 92 49.02 92 48 C90.35 48 88.7 48 87 48 C87 47.34 87 46.68 87 46 C85.35 46 83.7 46 82 46 C82 45.01 82 44.02 82 43 C80.35 43 78.7 43 77 43 C77 42.34 77 41.68 77 41 C75.02 41 73.04 41 71 41 C71 40.01 71 39.02 71 38 C69.68 38 68.36 38 67 38 C67 37.34 67 36.68 67 36 C66.01 36 65.02 36 64 36 C64 35.01 64 34.02 64 33 C62.35 33 60.7 33 59 33 C59 32.34 59 31.68 59 31 C57.68 31 56.36 31 55 31 C55 30.34 55 29.68 55 29 C53.35 29 51.7 29 50 29 C50 28.34 50 27.68 50 27 C48.68 27 47.36 27 46 27 C46 26.01 46 25.02 46 24 C44.35 24 42.7 24 41 24 C41 23.34 41 22.68 41 22 C40.34 22 39.68 22 39 22 C39 21.34 39 20.68 39 20 C37.35 20 35.7 20 34 20 C34 19.01 34 18.02 34 17 C32.35 17 30.7 17 29 17 C29 16.34 29 15.68 29 15 C27.68 15 26.36 15 25 15 C25 14.34 25 13.68 25 13 C23.35 13 21.7 13 20 13 C20 12.34 20 11.68 20 11 C19.34 11 18.68 11 18 11 C18 10.01 18 9.02 18 8 C13.38 8 8.76 8 4 8 Z M-117 70 C-117 72.64 -117 75.28 -117 78 C-116.67 78 -116.34 78 -116 78 C-116 75.36 -116 72.72 -116 70 C-116.33 70 -116.66 70 -117 70 Z M-116 79 C-116 88.9 -116 98.8 -116 109 C-115.67 109 -115.34 109 -115 109 C-115 99.1 -115 89.2 -115 79 C-115.33 79 -115.66 79 -116 79 Z M-117 110 C-117 119.57 -117 129.14 -117 139 C-116.67 139 -116.34 139 -116 139 C-116 129.43 -116 119.86 -116 110 C-116.33 110 -116.66 110 -117 110 Z M-116 140 C-116 148.58 -116 157.16 -116 166 C-115.67 166 -115.34 166 -115 166 C-115 157.42 -115 148.84 -115 140 C-115.33 140 -115.66 140 -116 140 Z M-117 167 C-117 174.59 -117 182.18 -117 190 C-116.67 190 -116.34 190 -116 190 C-116 182.41 -116 174.82 -116 167 C-116.33 167 -116.66 167 -117 167 Z M-116 190 C-116 193.3 -116 196.6 -116 200 C-115.67 200 -115.34 200 -115 200 C-115 196.7 -115 193.4 -115 190 C-115.33 190 -115.66 190 -116 190 Z M148 212 C149 214 149 214 149 214 Z M-66 264 C-62 265 -62 265 -62 265 Z " fill="#403946" transform="translate(236,186)"/>
<path d="M0 0 C0.99 0 1.98 0 3 0 C3 47.19 3 94.38 3 143 C4.98 143.33 6.96 143.66 9 144 C9 144.33 9 144.66 9 145 C10.65 145.33 12.3 145.66 14 146 C14 146.66 14 147.32 14 148 C15.98 148.99 17.96 149.98 20 151 C20.054 153.125 20.093 155.25 20.125 157.375 C20.148 158.558 20.171 159.742 20.195 160.961 C20 164 20 164 18 166 C15.952 166.838 13.876 167.52 11.777 168.219 C9.804 168.861 9.804 168.861 9 171 C6.011 172.993 4.421 173.332 1 174 C-2.175 175.258 -2.175 175.258 -4 178 C-5.926 178.781 -5.926 178.781 -8.312 179.5 C-11.375 180.431 -14.225 181.383 -17 183 C-17.33 183.66 -17.66 184.32 -18 185 C-19.979 185.727 -21.98 186.398 -24 187 C-24 187.33 -24 187.66 -24 188 C-25.65 188.33 -27.3 188.66 -29 189 C-29 189.66 -29 190.32 -29 191 C-30.98 191.99 -30.98 191.99 -33 193 C-33 193.33 -33 193.66 -33 194 C-33.908 194.103 -34.815 194.206 -35.75 194.312 C-39.115 195.024 -40.353 195.95 -43 198 C-44.658 198.373 -46.326 198.707 -48 199 C-49.349 199.635 -50.685 200.298 -52 201 C-52.99 201.33 -53.98 201.66 -55 202 C-55.474 202.639 -55.949 203.279 -56.438 203.938 C-58.17 206.225 -59.392 206.894 -62 208 C-62.743 208.371 -63.485 208.743 -64.25 209.125 C-65.116 209.558 -65.116 209.558 -66 210 C-66 210.33 -66 210.66 -66 211 C-66.743 211.103 -67.485 211.206 -68.25 211.312 C-71.016 211.794 -71.016 211.794 -72.812 213.5 C-75.218 215.149 -76.286 215.228 -79.125 215.438 C-80.404 215.623 -81.683 215.809 -83 216 C-84.15 217.967 -84.15 217.967 -85 220 C-88.125 220.75 -88.125 220.75 -91 221 C-91 221.66 -91 222.32 -91 223 C-93.97 223 -96.94 223 -100 223 C-98.35 223.33 -96.7 223.66 -95 224 C-95.99 224.66 -96.98 225.32 -98 226 C-98.66 226.66 -99.32 227.32 -100 228 C-101.423 228.217 -101.423 228.217 -102.875 228.438 C-105.983 228.738 -105.983 228.738 -107.867 230.515 C-110.525 232.366 -112.034 232.361 -115.246 232.328 C-116.248 232.323 -117.251 232.318 -118.283 232.312 C-119.324 232.292 -120.365 232.271 -121.438 232.25 C-122.475 232.245 -123.512 232.24 -124.58 232.234 C-137.384 232.103 -137.384 232.103 -142 228 C-142 227.67 -142 227.34 -142 227 C-143.361 226.845 -143.361 226.845 -144.75 226.688 C-148.104 225.978 -149.425 225.146 -152 223 C-153.318 222.304 -154.648 221.628 -156 221 C-156 220.67 -156 220.34 -156 220 C-157.65 219.67 -159.3 219.34 -161 219 C-161 218.34 -161 217.68 -161 217 C-162.114 216.876 -163.228 216.752 -164.375 216.625 C-168 216 -168 216 -170 214 C-172.845 211.802 -172.845 211.802 -176.125 211.5 C-177.074 211.335 -178.022 211.17 -179 211 C-179.33 210.34 -179.66 209.68 -180 209 C-181.883 208.097 -181.883 208.097 -184.062 207.375 C-184.796 207.115 -185.529 206.854 -186.285 206.586 C-186.851 206.393 -187.417 206.199 -188 206 C-188 205.34 -188 204.68 -188 204 C-189.454 203.814 -189.454 203.814 -190.938 203.625 C-191.948 203.419 -192.959 203.212 -194 203 C-194.33 202.34 -194.66 201.68 -195 201 C-195.763 200.856 -196.526 200.711 -197.312 200.562 C-200.311 199.935 -201.585 198.811 -204 197 C-205.664 196.652 -207.33 196.316 -209 196 C-209.33 195.34 -209.66 194.68 -210 194 C-212.546 192.908 -215.137 192.015 -217.75 191.098 C-218.493 190.735 -219.235 190.373 -220 190 C-220.33 189.01 -220.66 188.02 -221 187 C-221.71 186.879 -222.421 186.758 -223.152 186.633 C-224.531 186.381 -224.531 186.381 -225.938 186.125 C-226.854 185.963 -227.771 185.8 -228.715 185.633 C-229.846 185.32 -229.846 185.32 -231 185 C-231.33 184.34 -231.66 183.68 -232 183 C-233.75 182.203 -233.75 182.203 -235.812 181.562 C-239.777 180.154 -242.621 178.559 -245.438 175.375 C-247.5 173.56 -249.33 173.521 -252 173 C-254.188 171.5 -254.188 171.5 -256 170 C-257.334 169.333 -258.69 168.707 -260.062 168.125 C-262 167 -262 167 -263 164 C-264.887 163.845 -264.887 163.845 -266.812 163.688 C-269.229 163.489 -270.683 163.201 -272.738 161.898 C-274.682 158.974 -274.396 156.402 -274.375 152.938 C-274.383 151.688 -274.39 150.439 -274.398 149.152 C-274.267 148.112 -274.135 147.072 -274 146 C-271.099 144.066 -270.103 143.699 -266.812 143.375 C-265.554 143.251 -264.296 143.127 -263 143 C-263.072 142.045 -263.144 141.09 -263.219 140.105 C-263.773 132.386 -264.145 124.745 -264 117 C-263.67 117 -263.34 117 -263 117 C-262.939 117.71 -262.879 118.421 -262.816 119.152 C-262.733 120.071 -262.649 120.991 -262.562 121.938 C-262.481 122.854 -262.4 123.771 -262.316 124.715 C-262.24 126.962 -262.24 126.962 -261 128 C-260.927 130.53 -260.908 133.033 -260.938 135.562 C-260.942 136.273 -260.947 136.984 -260.951 137.717 C-260.963 139.478 -260.981 141.239 -261 143 C-260.01 143.33 -259.02 143.66 -258 144 C-258 144.66 -258 145.32 -258 146 C-257.34 146 -256.68 146 -256 146 C-256 146.66 -256 147.32 -256 148 C-255.34 148 -254.68 148 -254 148 C-254 148.99 -254 149.98 -254 151 C-253.01 151 -252.02 151 -251 151 C-251 151.66 -251 152.32 -251 153 C-249.02 153 -247.04 153 -245 153 C-245 153.99 -245 154.98 -245 156 C-244.01 156 -243.02 156 -242 156 C-242 156.66 -242 157.32 -242 158 C-240.02 158 -238.04 158 -236 158 C-236 158.66 -236 159.32 -236 160 C-234.68 160 -233.36 160 -232 160 C-232 160.99 -232 161.98 -232 163 C-230.68 163 -229.36 163 -228 163 C-228 163.66 -228 164.32 -228 165 C-226.02 165 -224.04 165 -222 165 C-222 165.99 -222 166.98 -222 168 C-220.68 168 -219.36 168 -218 168 C-218 168.66 -218 169.32 -218 170 C-216.35 170 -214.7 170 -213 170 C-213 170.99 -213 171.98 -213 173 C-211.35 173 -209.7 173 -208 173 C-208 173.66 -208 174.32 -208 175 C-206.68 175 -205.36 175 -204 175 C-204 175.66 -204 176.32 -204 177 C-202.35 177.33 -200.7 177.66 -199 178 C-199 178.66 -199 179.32 -199 180 C-197.35 180 -195.7 180 -194 180 C-194 180.99 -194 181.98 -194 183 C-192.35 183 -190.7 183 -189 183 C-189 183.66 -189 184.32 -189 185 C-187.68 185 -186.36 185 -185 185 C-185 185.66 -185 186.32 -185 187 C-183.68 187 -182.36 187 -181 187 C-181 187.66 -181 188.32 -181 189 C-179.68 189 -178.36 189 -177 189 C-177 189.99 -177 190.98 -177 192 C-175.02 192 -173.04 192 -171 192 C-171 192.66 -171 193.32 -171 194 C-169.35 194 -167.7 194 -166 194 C-166 194.99 -166 195.98 -166 197 C-164.35 197 -162.7 197 -161 197 C-161 197.99 -161 198.98 -161 200 C-159.68 200 -158.36 200 -157 200 C-157 200.66 -157 201.32 -157 202 C-155.35 202 -153.7 202 -152 202 C-152 202.66 -152 203.32 -152 204 C-150.35 204 -148.7 204 -147 204 C-147 204.66 -147 205.32 -147 206 C-146.34 206 -145.68 206 -145 206 C-145 206.66 -145 207.32 -145 208 C-143.35 208 -141.7 208 -140 208 C-140 208.99 -140 209.98 -140 211 C-138.02 211 -136.04 211 -134 211 C-134 211.66 -134 212.32 -134 213 C-128.72 213 -123.44 213 -118 213 C-118 212.34 -118 211.68 -118 211 C-116.35 211 -114.7 211 -113 211 C-113 210.01 -113 209.02 -113 208 C-111.35 208 -109.7 208 -108 208 C-108 207.34 -108 206.68 -108 206 C-106.35 206 -104.7 206 -103 206 C-103 205.34 -103 204.68 -103 204 C-101.68 204 -100.36 204 -99 204 C-99 203.34 -99 202.68 -99 202 C-98.01 202 -97.02 202 -96 202 C-96 201.34 -96 200.68 -96 200 C-94.35 200 -92.7 200 -91 200 C-91 199.01 -91 198.02 -91 197 C-89.35 197 -87.7 197 -86 197 C-86 196.01 -86 195.02 -86 194 C-84.02 194 -82.04 194 -80 194 C-80 193.34 -80 192.68 -80 192 C-78.68 192 -77.36 192 -76 192 C-76 191.01 -76 190.02 -76 189 C-74.35 189 -72.7 189 -71 189 C-71 188.34 -71 187.68 -71 187 C-70.34 187 -69.68 187 -69 187 C-69 186.34 -69 185.68 -69 185 C-67.35 185 -65.7 185 -64 185 C-64 184.34 -64 183.68 -64 183 C-62.68 183 -61.36 183 -60 183 C-60 182.01 -60 181.02 -60 180 C-58.35 180 -56.7 180 -55 180 C-55 179.34 -55 178.68 -55 178 C-53.68 178 -52.36 178 -51 178 C-51 177.01 -51 176.02 -51 175 C-49.35 175 -47.7 175 -46 175 C-46 174.34 -46 173.68 -46 173 C-43.69 173 -41.38 173 -39 173 C-39 172.01 -39 171.02 -39 170 C-37.35 170 -35.7 170 -34 170 C-34 169.34 -34 168.68 -34 168 C-33.01 168 -32.02 168 -31 168 C-31 167.01 -31 166.02 -31 165 C-30.34 165 -29.68 165 -29 165 C-29 164.34 -29 163.68 -29 163 C-27.35 163 -25.7 163 -24 163 C-24 162.34 -24 161.68 -24 161 C-22.35 161 -20.7 161 -19 161 C-19 160.01 -19 159.02 -19 158 C-17.68 158 -16.36 158 -15 158 C-15 157.34 -15 156.68 -15 156 C-13.35 156 -11.7 156 -10 156 C-10 155.34 -10 154.68 -10 154 C-9.34 154 -8.68 154 -8 154 C-8 153.01 -8 152.02 -8 151 C-7.34 151 -6.68 151 -6 151 C-6 150.34 -6 149.68 -6 149 C-5.01 149 -4.02 149 -3 149 C-3 148.01 -3 147.02 -3 146 C-2.01 146 -1.02 146 0 146 C0 97.82 0 49.64 0 0 Z M1 139 C2 141 2 141 2 141 Z M-213 191 C-209 192 -209 192 -209 192 Z " fill="#CFCFCF" transform="translate(383,259)"/>
<path d="M0 0 C9.9 0 19.8 0 30 0 C30 0.66 30 1.32 30 2 C30.99 2.66 31.98 3.32 33 4 C33.66 3.34 34.32 2.68 35 2 C38.073 1.773 38.073 1.773 41.977 1.805 C43.004 1.809 43.004 1.809 44.053 1.813 C46.244 1.824 48.434 1.85 50.625 1.875 C52.109 1.885 53.594 1.894 55.078 1.902 C58.719 1.924 62.359 1.959 66 2 C66.495 2.99 66.495 2.99 67 4 C68.268 4.742 68.268 4.742 69.562 5.5 C70.769 6.242 70.769 6.242 72 7 C72 7.66 72 8.32 72 9 C80.25 9 88.5 9 97 9 C98 11 98.494 12.831 99 15 C99.743 14.897 100.485 14.794 101.25 14.688 C104 15 104 15 105.875 17.125 C106.576 18.074 107.278 19.023 108 20 C108.607 20.388 109.214 20.776 109.84 21.176 C112.141 22.647 113.507 23.691 115 26 C115.309 30.771 114.768 35.291 114 40 C114.99 40.33 115.98 40.66 117 41 C118 42 119 43 120 44 C120.619 44.289 121.238 44.578 121.875 44.875 C124.792 46.419 126.742 48.62 129 51 C129.33 51.33 129.66 51.66 130 52 C130.21 54.629 130.357 57.233 130.457 59.867 C130.487 60.658 130.518 61.448 130.549 62.263 C130.61 63.939 130.667 65.615 130.722 67.292 C130.782 69.011 130.851 70.729 130.929 72.448 C131.042 74.921 131.127 77.393 131.207 79.867 C131.266 81.02 131.266 81.02 131.326 82.197 C131.378 84.371 131.378 84.371 131 88 C129.175 89.883 129.175 89.883 127 91 C126.01 91.66 125.02 92.32 124 93 C123.01 93.495 123.01 93.495 122 94 C121.67 94.99 121.34 95.98 121 97 C119.625 99.187 119.625 99.187 118 101 C117.01 101 116.02 101 115 101 C115 104.96 115 108.92 115 113 C114.01 113.495 114.01 113.495 113 114 C112.711 114.577 112.423 115.155 112.125 115.75 C109.918 120.164 106.951 123.139 103 126 C102.67 126.66 102.34 127.32 102 128 C98.615 128.933 95.415 129.119 91.918 129.098 C90.987 129.094 90.055 129.091 89.096 129.088 C88.136 129.08 87.176 129.071 86.188 129.062 C85.208 129.058 84.229 129.053 83.221 129.049 C80.814 129.037 78.407 129.021 76 129 C75.938 129.598 75.876 130.196 75.812 130.812 C75 133 75 133 72.885 134.725 C69.35 136.287 66.698 136.388 62.836 136.398 C62.162 136.401 61.488 136.404 60.794 136.407 C59.377 136.409 57.96 136.404 56.543 136.391 C54.374 136.375 52.208 136.391 50.039 136.41 C48.659 136.408 47.279 136.404 45.898 136.398 C44.647 136.395 43.396 136.392 42.107 136.388 C39 136 39 136 37.069 134.663 C36 133 36 133 36 130 C35.134 130.433 35.134 130.433 34.25 130.875 C32.167 131.917 30.083 132.958 28 134 C28 134.33 28 134.66 28 135 C23.71 135 19.42 135 15 135 C15.023 136.12 15.046 137.24 15.07 138.395 C15.089 139.867 15.107 141.34 15.125 142.812 C15.15 143.919 15.15 143.919 15.176 145.049 C15.211 148.912 15.194 150.709 13 154 C12.01 154 11.02 154 10 154 C9.67 154.66 9.34 155.32 9 156 C7 159 7 159 4.875 159.688 C4.256 159.791 3.637 159.894 3 160 C3.66 160.99 4.32 161.98 5 163 C5.301 165.594 5.301 165.594 5.312 168.5 C5.329 169.459 5.346 170.418 5.363 171.406 C4.944 174.401 4.27 175.115 2 177 C1.67 177.66 1.34 178.32 1 179 C0.67 179.66 0.34 180.32 0 181 C-6.27 181 -12.54 181 -19 181 C-20 179 -20 179 -21 176 C-21.66 175.67 -22.32 175.34 -23 175 C-23.108 172.561 -23.187 170.127 -23.25 167.688 C-23.284 166.997 -23.317 166.307 -23.352 165.596 C-23.391 163.574 -23.391 163.574 -23 160 C-21.076 158.048 -19.423 157.211 -17 156 C-17.969 155.402 -18.939 154.804 -19.938 154.188 C-23 152 -23 152 -24 149 C-24.199 146.316 -24.322 143.687 -24.375 141 C-24.431 139.913 -24.431 139.913 -24.488 138.805 C-24.523 136.688 -24.523 136.688 -24 133 C-21.574 131.098 -21.574 131.098 -19 130 C-18.484 129.484 -17.969 128.969 -17.438 128.438 C-14.155 125.155 -10.487 124.612 -6 124 C-9.595 120.48 -13.232 120.56 -18 120.5 C-26.467 120.393 -29.151 117.849 -35 112 C-35.66 111.67 -36.32 111.34 -37 111 C-37.33 110.01 -37.66 109.02 -38 108 C-38.516 107.484 -39.031 106.969 -39.562 106.438 C-40.037 105.963 -40.511 105.489 -41 105 C-41 104.34 -41 103.68 -41 103 C-42.32 102.67 -43.64 102.34 -45 102 C-45 97.71 -45 93.42 -45 89 C-45.99 88.67 -46.98 88.34 -48 88 C-48.66 87.67 -49.32 87.34 -50 87 C-50 86.01 -50 85.02 -50 84 C-50.598 83.773 -51.196 83.546 -51.812 83.312 C-54.675 81.595 -55.528 79.988 -57 77 C-57.372 73.986 -57.372 73.986 -57.363 70.676 C-57.363 69.483 -57.362 68.29 -57.361 67.061 C-57.345 65.824 -57.329 64.587 -57.312 63.312 C-57.316 62.064 -57.319 60.816 -57.322 59.529 C-57.267 50.267 -57.267 50.267 -55 48 C-54.01 48 -53.02 48 -52 48 C-51.67 47.01 -51.34 46.02 -51 45 C-50.317 44.442 -49.634 43.884 -48.93 43.309 C-46.193 40.034 -46.78 37.089 -47.125 33.062 C-47.193 32.359 -47.262 31.656 -47.332 30.932 C-47.489 28.038 -47.598 25.743 -45.726 23.417 C-43.634 21.65 -41.449 20.224 -39 19 C-37.866 16.983 -37.866 16.983 -37 15 C-35.02 15 -33.04 15 -31 15 C-31.66 14.67 -32.32 14.34 -33 14 C-32.67 13.01 -32.34 12.02 -32 11 C-24.08 10.67 -16.16 10.34 -8 10 C-7.34 8.35 -6.68 6.7 -6 5 C-4 3.667 -2 2.333 0 1 C0 0.67 0 0.34 0 0 Z M6 8 C6 8.99 6 9.98 6 11 C5.01 11 4.02 11 3 11 C3 11.66 3 12.32 3 13 C2.34 13 1.68 13 1 13 C1 13.99 1 14.98 1 16 C0.01 16 -0.98 16 -2 16 C-2 17.98 -2 19.96 -2 22 C-3.65 22 -5.3 22 -7 22 C-7 21.34 -7 20.68 -7 20 C-10.458 19.971 -13.917 19.953 -17.375 19.938 C-18.36 19.929 -19.345 19.921 -20.359 19.912 C-21.3 19.909 -22.241 19.906 -23.211 19.902 C-24.08 19.897 -24.95 19.892 -25.845 19.886 C-28.05 19.859 -28.05 19.859 -30 21 C-30 21.66 -30 22.32 -30 23 C-30.66 23 -31.32 23 -32 23 C-32 23.99 -32 24.98 -32 26 C-32.66 26 -33.32 26 -34 26 C-34 26.66 -34 27.32 -34 28 C-34.99 28 -35.98 28 -37 28 C-37 34.6 -37 41.2 -37 48 C-38.65 48 -40.3 48 -42 48 C-42 48.99 -42 49.98 -42 51 C-42.99 51 -43.98 51 -45 51 C-45 51.66 -45 52.32 -45 53 C-45.66 53 -46.32 53 -47 53 C-47 54.32 -47 55.64 -47 57 C-47.66 57 -48.32 57 -49 57 C-49 62.28 -49 67.56 -49 73 C-48.34 73 -47.68 73 -47 73 C-47 73.99 -47 74.98 -47 76 C-46.34 76 -45.68 76 -45 76 C-45 76.66 -45 77.32 -45 78 C-44.01 78 -43.02 78 -42 78 C-42 79.32 -42 80.64 -42 82 C-39.69 82 -37.38 82 -35 82 C-35 87.61 -35 93.22 -35 99 C-34.34 99 -33.68 99 -33 99 C-33 99.99 -33 100.98 -33 102 C-32.01 102 -31.02 102 -30 102 C-30 102.99 -30 103.98 -30 105 C-29.34 105 -28.68 105 -28 105 C-28 105.66 -28 106.32 -28 107 C-27.01 107 -26.02 107 -25 107 C-25 107.66 -25 108.32 -25 109 C-24.34 109 -23.68 109 -23 109 C-23 109.66 -23 110.32 -23 111 C-17.72 111 -12.44 111 -7 111 C-7 110.34 -7 109.68 -7 109 C-5.35 109 -3.7 109 -2 109 C-2 110.98 -2 112.96 -2 115 C-1.34 115 -0.68 115 0 115 C0 115.66 0 116.32 0 117 C0.99 117 1.98 117 3 117 C3 117.99 3 118.98 3 120 C3.66 120 4.32 120 5 120 C5 120.99 5 121.98 5 123 C5.66 123 6.32 123 7 123 C7 123.66 7 124.32 7 125 C13.93 125 20.86 125 28 125 C28.33 123.35 28.66 121.7 29 120 C32.465 119.01 32.465 119.01 36 118 C36 118.66 36 119.32 36 120 C36.99 120 37.98 120 39 120 C39 120.99 39 121.98 39 123 C39.66 123 40.32 123 41 123 C41 123.66 41 124.32 41 125 C41.66 125 42.32 125 43 125 C43 125.99 43 126.98 43 128 C50.59 128 58.18 128 66 128 C66 127.01 66 126.02 66 125 C66.66 125 67.32 125 68 125 C68 124.34 68 123.68 68 123 C68.99 123 69.98 123 71 123 C71 121.68 71 120.36 71 119 C71.568 119.162 72.135 119.325 72.72 119.492 C75.05 120.011 77.093 120.129 79.477 120.133 C80.312 120.134 81.147 120.135 82.008 120.137 C82.871 120.133 83.735 120.129 84.625 120.125 C85.496 120.129 86.368 120.133 87.266 120.137 C88.098 120.135 88.931 120.134 89.789 120.133 C90.549 120.132 91.309 120.131 92.092 120.129 C94.087 120.117 94.087 120.117 96 119 C96 118.34 96 117.68 96 117 C96.66 117 97.32 117 98 117 C98.33 115.68 98.66 114.36 99 113 C99.66 113 100.32 113 101 113 C101 112.34 101 111.68 101 111 C101.99 111 102.98 111 104 111 C104 104.4 104 97.8 104 91 C107.3 91 110.6 91 114 91 C114 90.34 114 89.68 114 89 C114.99 89 115.98 89 117 89 C117 88.01 117 87.02 117 86 C117.66 86 118.32 86 119 86 C119 85.34 119 84.68 119 84 C119.99 84 120.98 84 122 84 C122 75.09 122 66.18 122 57 C121.01 57 120.02 57 119 57 C119 56.34 119 55.68 119 55 C118.01 55 117.02 55 116 55 C116 54.34 116 53.68 116 53 C115.34 53 114.68 53 114 53 C114 52.34 114 51.68 114 51 C112.35 51 110.7 51 109 51 C109 50.01 109 49.02 109 48 C107.35 48 105.7 48 104 48 C104.005 47.435 104.01 46.87 104.016 46.288 C104.037 43.733 104.05 41.179 104.062 38.625 C104.071 37.736 104.079 36.846 104.088 35.93 C104.091 35.079 104.094 34.228 104.098 33.352 C104.103 32.566 104.108 31.781 104.114 30.971 C104.126 28.922 104.126 28.922 103 27 C102.34 27 101.68 27 101 27 C101 26.34 101 25.68 101 25 C100.34 25 99.68 25 99 25 C99 24.34 99 23.68 99 23 C98.01 23 97.02 23 96 23 C96 22.34 96 21.68 96 21 C95.34 21 94.68 21 94 21 C94 20.34 94 19.68 94 19 C87.07 19 80.14 19 73 19 C73 19.99 73 20.98 73 22 C71.35 22 69.7 22 68 22 C68 20.02 68 18.04 68 16 C67.381 15.938 66.762 15.876 66.125 15.812 C65.073 15.41 65.073 15.41 64 15 C63.01 12.525 63.01 12.525 62 10 C54.74 10 47.48 10 40 10 C40 10.66 40 11.32 40 12 C39.34 12 38.68 12 38 12 C38 12.66 38 13.32 38 14 C37.34 14 36.68 14 36 14 C36 14.66 36 15.32 36 16 C34.35 16 32.7 16 31 16 C31 15.34 31 14.68 31 14 C30.34 14 29.68 14 29 14 C29 13.34 29 12.68 29 12 C28.34 12 27.68 12 27 12 C27 11.34 27 10.68 27 10 C26.34 10 25.68 10 25 10 C25 9.34 25 8.68 25 8 C18.73 8 12.46 8 6 8 Z M113 28 C114 31 114 31 114 31 Z M112 34 C112 35.98 112 37.96 112 40 C112.33 40 112.66 40 113 40 C113 38.02 113 36.04 113 34 C112.67 34 112.34 34 112 34 Z M-13 128 C-10.36 127.67 -7.72 127.34 -5 127 C-5 126.67 -5 126.34 -5 126 C-9.493 125.575 -9.493 125.575 -13 128 Z M-5 127 C-5 127.33 -5 127.66 -5 128 C-3.35 128 -1.7 128 0 128 C0 127.67 0 127.34 0 127 C-1.65 127 -3.3 127 -5 127 Z M13 135 C13 140.28 13 145.56 13 151 C13.33 151 13.66 151 14 151 C14 145.72 14 140.44 14 135 C13.67 135 13.34 135 13 135 Z " fill="#463F4C" transform="translate(181,23)"/>
<path d="M0 0 C2.97 0 5.94 0 9 0 C9 0.99 9 1.98 9 3 C9.99 3 10.98 3 12 3 C12 3.66 12 4.32 12 5 C14.31 5 16.62 5 19 5 C19 5.99 19 6.98 19 8 C20.32 8.33 21.64 8.66 23 9 C23 9.99 23 10.98 23 12 C23.99 12 24.98 12 26 12 C26 17.94 26 23.88 26 30 C25.34 30 24.68 30 24 30 C24 30.66 24 31.32 24 32 C23.01 32 22.02 32 21 32 C21 32.99 21 33.98 21 35 C19.35 35 17.7 35 16 35 C16 35.66 16 36.32 16 37 C15.34 37 14.68 37 14 37 C14 37.99 14 38.98 14 40 C12.35 40 10.7 40 9 40 C9 40.66 9 41.32 9 42 C7.35 42 5.7 42 4 42 C4 42.66 4 43.32 4 44 C-0.62 44 -5.24 44 -10 44 C-10 43.34 -10 42.68 -10 42 C-10.99 42 -11.98 42 -13 42 C-13.33 41.34 -13.66 40.68 -14 40 C-16.025 39.348 -16.025 39.348 -18 39 C-18 38.34 -18 37.68 -18 37 C-19.32 37 -20.64 37 -22 37 C-22 36.34 -22 35.68 -22 35 C-22.66 35 -23.32 35 -24 35 C-24 34.01 -24 33.02 -24 32 C-24.66 32 -25.32 32 -26 32 C-26 29.69 -26 27.38 -26 25 C-25.34 25 -24.68 25 -24 25 C-24 25.66 -24 26.32 -24 27 C-23.01 27 -22.02 27 -21 27 C-21 27.99 -21 28.98 -21 30 C-19.68 30 -18.36 30 -17 30 C-17 30.66 -17 31.32 -17 32 C-16.01 32 -15.02 32 -14 32 C-14 32.99 -14 33.98 -14 35 C-13.01 35 -12.02 35 -11 35 C-11 35.66 -11 36.32 -11 37 C-6.38 37 -1.76 37 3 37 C3 36.34 3 35.68 3 35 C4.98 35 6.96 35 9 35 C9 34.01 9 33.02 9 32 C9.99 32 10.98 32 12 32 C12 31.34 12 30.68 12 30 C13.32 30 14.64 30 16 30 C16 29.01 16 28.02 16 27 C16.99 27 17.98 27 19 27 C19 22.71 19 18.42 19 14 C18.01 14 17.02 14 16 14 C16 13.34 16 12.68 16 12 C14.35 12 12.7 12 11 12 C11 12.66 11 13.32 11 14 C9.35 14 7.7 14 6 14 C6 12.02 6 10.04 6 8 C4.68 8 3.36 8 2 8 C2 8.66 2 9.32 2 10 C1.34 10 0.68 10 0 10 C0 12.64 0 15.28 0 18 C-0.66 18 -1.32 18 -2 18 C-2 18.99 -2 19.98 -2 21 C-4.97 21 -7.94 21 -11 21 C-11 20.01 -11 19.02 -11 18 C-12.65 18 -14.3 18 -16 18 C-16 17.34 -16 16.68 -16 16 C-16.66 16 -17.32 16 -18 16 C-18 14.35 -18 12.7 -18 11 C-16.68 11 -15.36 11 -14 11 C-14 11.66 -14 12.32 -14 13 C-11.69 13 -9.38 13 -7 13 C-7 11.68 -7 10.36 -7 9 C-6.34 9 -5.68 9 -5 9 C-5 8.01 -5 7.02 -5 6 C-4.01 6 -3.02 6 -2 6 C-2 5.34 -2 4.68 -2 4 C-1.34 4 -0.68 4 0 4 C0 2.68 0 1.36 0 0 Z " fill="#3B303C" transform="translate(165,368)"/>
<path d="M0 0 C0.66 0 1.32 0 2 0 C2 3.63 2 7.26 2 11 C1.01 11 0.02 11 -1 11 C-1 11.66 -1 12.32 -1 13 C-1.66 13 -2.32 13 -3 13 C-3.33 14.32 -3.66 15.64 -4 17 C-4.66 17 -5.32 17 -6 17 C-6 17.66 -6 18.32 -6 19 C-8.307 20.154 -9.646 20.129 -12.211 20.133 C-13.044 20.134 -13.876 20.135 -14.734 20.137 C-16.041 20.131 -16.041 20.131 -17.375 20.125 C-18.239 20.129 -19.102 20.133 -19.992 20.137 C-20.827 20.135 -21.663 20.134 -22.523 20.133 C-23.286 20.132 -24.048 20.131 -24.833 20.129 C-27.005 20 -28.913 19.597 -31 19 C-31 20.32 -31 21.64 -31 23 C-31.99 23 -32.98 23 -34 23 C-34 23.66 -34 24.32 -34 25 C-34.66 25 -35.32 25 -36 25 C-36 25.99 -36 26.98 -36 28 C-43.59 28 -51.18 28 -59 28 C-59 27.01 -59 26.02 -59 25 C-59.66 25 -60.32 25 -61 25 C-61 24.34 -61 23.68 -61 23 C-61.66 23 -62.32 23 -63 23 C-63 22.01 -63 21.02 -63 20 C-63.99 20 -64.98 20 -66 20 C-66 19.34 -66 18.68 -66 18 C-68.31 18.66 -70.62 19.32 -73 20 C-73.33 21.65 -73.66 23.3 -74 25 C-80.93 25 -87.86 25 -95 25 C-95 24.34 -95 23.68 -95 23 C-95.66 23 -96.32 23 -97 23 C-97 22.01 -97 21.02 -97 20 C-97.66 20 -98.32 20 -99 20 C-99 19.01 -99 18.02 -99 17 C-99.99 17 -100.98 17 -102 17 C-102 16.34 -102 15.68 -102 15 C-102.66 15 -103.32 15 -104 15 C-104 13.35 -104 11.7 -104 10 C-101.5 11.375 -101.5 11.375 -99 13 C-99 13.66 -99 14.32 -99 15 C-98.01 15 -97.02 15 -96 15 C-96 15.66 -96 16.32 -96 17 C-94.68 17 -93.36 17 -92 17 C-92 17.66 -92 18.32 -92 19 C-87.38 19 -82.76 19 -78 19 C-78 18.34 -78 17.68 -78 17 C-76.35 17 -74.7 17 -73 17 C-73 15.68 -73 14.36 -73 13 C-71.35 13 -69.7 13 -68 13 C-68 12.34 -68 11.68 -68 11 C-67.34 11 -66.68 11 -66 11 C-66 11.66 -66 12.32 -66 13 C-65.34 13 -64.68 13 -64 13 C-64 13.66 -64 14.32 -64 15 C-63.34 15 -62.68 15 -62 15 C-62 15.66 -62 16.32 -62 17 C-61.01 17 -60.02 17 -59 17 C-59 17.99 -59 18.98 -59 20 C-57.68 20 -56.36 20 -55 20 C-55 20.66 -55 21.32 -55 22 C-51.04 22 -47.08 22 -43 22 C-43 21.34 -43 20.68 -43 20 C-41.35 20 -39.7 20 -38 20 C-38 19.01 -38 18.02 -38 17 C-36.68 17 -35.36 17 -34 17 C-34 16.34 -34 15.68 -34 15 C-33.34 15 -32.68 15 -32 15 C-32 14.01 -32 13.02 -32 12 C-30.02 12 -28.04 12 -26 12 C-26 12.99 -26 13.98 -26 15 C-21.38 15 -16.76 15 -12 15 C-12 14.34 -12 13.68 -12 13 C-10.68 13 -9.36 13 -8 13 C-8 12.34 -8 11.68 -8 11 C-7.34 11 -6.68 11 -6 11 C-6 10.34 -6 9.68 -6 9 C-5.01 9 -4.02 9 -3 9 C-2.67 7.35 -2.34 5.7 -2 4 C-1.34 4 -0.68 4 0 4 C0 2.68 0 1.36 0 0 Z " fill="#E6BF91" transform="translate(283,123)"/>
<path d="M0 0 C3.63 0 7.26 0 11 0 C11 0.66 11 1.32 11 2 C11.99 2 12.98 2 14 2 C14 2.66 14 3.32 14 4 C14.66 4 15.32 4 16 4 C16 5.32 16 6.64 16 8 C16.99 8 17.98 8 19 8 C19 12.62 19 17.24 19 22 C18.01 22 17.02 22 16 22 C16 22.66 16 23.32 16 24 C15.01 24 14.02 24 13 24 C13 24.66 13 25.32 13 26 C10.36 26 7.72 26 5 26 C5 25.34 5 24.68 5 24 C3.68 24 2.36 24 1 24 C1 23.34 1 22.68 1 22 C0.34 22 -0.32 22 -1 22 C-1.66 20.35 -2.32 18.7 -3 17 C-3.66 17 -4.32 17 -5 17 C-5 12.71 -5 8.42 -5 4 C-4.34 4 -3.68 4 -3 4 C-3 3.34 -3 2.68 -3 2 C-2.01 2 -1.02 2 0 2 C0 1.34 0 0.68 0 0 Z " fill="#49404C" transform="translate(213,337)"/>
<path d="M0 0 C2.64 0 5.28 0 8 0 C8 0.66 8 1.32 8 2 C9.65 2 11.3 2 13 2 C13 2.99 13 3.98 13 5 C13.99 5 14.98 5 16 5 C16 6.32 16 7.64 16 9 C16.99 9 17.98 9 19 9 C19 14.28 19 19.56 19 25 C17.35 25 15.7 25 14 25 C14 25.66 14 26.32 14 27 C11.03 27 8.06 27 5 27 C5 26.01 5 25.02 5 24 C3.68 24 2.36 24 1 24 C1 23.34 1 22.68 1 22 C0.01 22 -0.98 22 -2 22 C-2 21.34 -2 20.68 -2 20 C-2.66 20 -3.32 20 -4 20 C-4 14.72 -4 9.44 -4 4 C-3.34 4 -2.68 4 -2 4 C-2 3.34 -2 2.68 -2 2 C-1.34 2 -0.68 2 0 2 C0 1.34 0 0.68 0 0 Z " fill="#4C424D" transform="translate(153,312)"/>
<path d="M0 0 C0.99 0.33 1.98 0.66 3 1 C2.34 1 1.68 1 1 1 C1 26.74 1 52.48 1 79 C1.66 79 2.32 79 3 79 C3.33 77.68 3.66 76.36 4 75 C7.3 75 10.6 75 14 75 C14.33 76.32 14.66 77.64 15 79 C16.65 79 18.3 79 20 79 C20 79.66 20 80.32 20 81 C21.485 81.495 21.485 81.495 23 82 C23 82.66 23 83.32 23 84 C23.66 84 24.32 84 25 84 C25 86.64 25 89.28 25 92 C23.02 92.495 23.02 92.495 21 93 C21 93.66 21 94.32 21 95 C18.69 95 16.38 95 14 95 C14 94.34 14 93.68 14 93 C12.608 92.814 12.608 92.814 11.188 92.625 C8 92 8 92 5 90 C5 89.01 5 88.02 5 87 C4.01 87 3.02 87 2 87 C1.67 105.48 1.34 123.96 1 143 C0.67 143 0.34 143 0 143 C0 95.81 0 48.62 0 0 Z " fill="#EDB6A4" transform="translate(129,257)"/>
<path d="M0 0 C2.41 3.615 2.332 6.322 2.312 10.5 C2.329 11.177 2.345 11.854 2.361 12.551 C2.366 17.552 2.366 17.552 0.543 19.781 C-0.221 20.385 -0.221 20.385 -1 21 C-1.495 22.485 -1.495 22.485 -2 24 C-2.99 24 -3.98 24 -5 24 C-5 25.32 -5 26.64 -5 28 C-5.99 28 -6.98 28 -8 28 C-8 28.99 -8 29.98 -8 31 C-8.66 31 -9.32 31 -10 31 C-10 31.66 -10 32.32 -10 33 C-11.32 33 -12.64 33 -14 33 C-14 32.34 -14 31.68 -14 31 C-14.99 31 -15.98 31 -17 31 C-17 30.34 -17 29.68 -17 29 C-18.32 29 -19.64 29 -21 29 C-21 28.01 -21 27.02 -21 26 C-22.65 26 -24.3 26 -26 26 C-26 25.34 -26 24.68 -26 24 C-23.03 24 -20.06 24 -17 24 C-17 23.01 -17 22.02 -17 21 C-15.35 21 -13.7 21 -12 21 C-12 20.34 -12 19.68 -12 19 C-10.35 19 -8.7 19 -7 19 C-7 18.01 -7 17.02 -7 16 C-6.34 16 -5.68 16 -5 16 C-5 15.34 -5 14.68 -5 14 C-4.34 14 -3.68 14 -3 14 C-3 11.69 -3 9.38 -3 7 C-3.66 7 -4.32 7 -5 7 C-5 7.99 -5 8.98 -5 10 C-5.66 10 -6.32 10 -7 10 C-7 10.66 -7 11.32 -7 12 C-9.31 12 -11.62 12 -14 12 C-14 12.66 -14 13.32 -14 14 C-14.99 14 -15.98 14 -17 14 C-17 14.99 -17 15.98 -17 17 C-22.28 17 -27.56 17 -33 17 C-33 16.01 -33 15.02 -33 14 C-33.99 14 -34.98 14 -36 14 C-36 12.02 -36 10.04 -36 8 C-34.68 8.33 -33.36 8.66 -32 9 C-32 9.66 -32 10.32 -32 11 C-26.72 11 -21.44 11 -16 11 C-16 10.34 -16 9.68 -16 9 C-14.68 9 -13.36 9 -12 9 C-12 8.34 -12 7.68 -12 7 C-11.01 7 -10.02 7 -9 7 C-9 6.34 -9 5.68 -9 5 C-6.03 3.35 -3.06 1.7 0 0 Z " fill="#E1B98A" transform="translate(243,420)"/>
<path d="M0 0 C0.33 0 0.66 0 1 0 C1.495 12.375 1.495 12.375 2 25 C1.01 25 0.02 25 -1 25 C-1 25.99 -1 26.98 -1 28 C-1.66 28 -2.32 28 -3 28 C-3 28.66 -3 29.32 -3 30 C-3.66 30 -4.32 30 -5 30 C-5 30.99 -5 31.98 -5 33 C-5.99 33 -6.98 33 -8 33 C-8 33.66 -8 34.32 -8 35 C-9.65 35 -11.3 35 -13 35 C-13 35.66 -13 36.32 -13 37 C-14.32 37 -15.64 37 -17 37 C-17 37.99 -17 38.98 -17 40 C-18.65 40 -20.3 40 -22 40 C-22.33 40.66 -22.66 41.32 -23 42 C-23 41.34 -23 40.68 -23 40 C-24.65 40 -26.3 40 -28 40 C-28 39.01 -28 38.02 -28 37 C-28.66 37 -29.32 37 -30 37 C-30 36.34 -30 35.68 -30 35 C-31.98 35 -33.96 35 -36 35 C-36 34.34 -36 33.68 -36 33 C-37.32 33 -38.64 33 -40 33 C-40 32.01 -40 31.02 -40 30 C-41.65 30 -43.3 30 -45 30 C-45 29.34 -45 28.68 -45 28 C-46.65 28 -48.3 28 -50 28 C-50 27.67 -50 27.34 -50 27 C-48.35 27 -46.7 27 -45 27 C-44.67 26.34 -44.34 25.68 -44 25 C-44 25.66 -44 26.32 -44 27 C-42.35 27.33 -40.7 27.66 -39 28 C-39 28.66 -39 29.32 -39 30 C-38.01 30 -37.02 30 -36 30 C-36 30.66 -36 31.32 -36 32 C-31.38 32 -26.76 32 -22 32 C-22 31.34 -22 30.68 -22 30 C-20.35 30 -18.7 30 -17 30 C-17 29.34 -17 28.68 -17 28 C-15.35 28 -13.7 28 -12 28 C-12 27.01 -12 26.02 -12 25 C-11.34 25 -10.68 25 -10 25 C-10 24.34 -10 23.68 -10 23 C-8.35 23 -6.7 23 -5 23 C-5 22.01 -5 21.02 -5 20 C-4.01 20 -3.02 20 -2 20 C-2 19.34 -2 18.68 -2 18 C-1.34 18 -0.68 18 0 18 C0 12.06 0 6.12 0 0 Z " fill="#DAB285" transform="translate(191,380)"/>
<path d="M0 0 C3.96 0 7.92 0 12 0 C12 0.99 12 1.98 12 3 C13.32 3 14.64 3 16 3 C16 3.99 16 4.98 16 6 C16.99 6 17.98 6 19 6 C19 6.99 19 7.98 19 9 C19.66 9 20.32 9 21 9 C21 11.31 21 13.62 21 16 C19.68 16 18.36 16 17 16 C17 16.66 17 17.32 17 18 C13.7 18 10.4 18 7 18 C7 17.34 7 16.68 7 16 C5.68 16 4.36 16 3 16 C3 15.34 3 14.68 3 14 C2.01 14 1.02 14 0 14 C0 13.01 0 12.02 0 11 C-0.66 11 -1.32 11 -2 11 C-2 10.34 -2 9.68 -2 9 C-2.99 8.67 -3.98 8.34 -5 8 C-5 6.35 -5 4.7 -5 3 C-3.35 2.67 -1.7 2.34 0 2 C0 1.34 0 0.68 0 0 Z " fill="#F8B2A1" transform="translate(226,370)"/>
<path d="M0 0 C4.62 0 9.24 0 14 0 C14 0.66 14 1.32 14 2 C14.99 2 15.98 2 17 2 C17 5.63 17 9.26 17 13 C16.34 13 15.68 13 15 13 C15 13.66 15 14.32 15 15 C10.38 15 5.76 15 1 15 C1 14.01 1 13.02 1 12 C-0.65 11.67 -2.3 11.34 -4 11 C-4 8.03 -4 5.06 -4 2 C-2.68 2 -1.36 2 0 2 C0 1.34 0 0.68 0 0 Z " fill="#FAEDCB" transform="translate(169,159)"/>
<path d="M0 0 C0.33 0 0.66 0 1 0 C1 4.29 1 8.58 1 13 C0.01 13 -0.98 13 -2 13 C-2 13.99 -2 14.98 -2 16 C-3.32 16 -4.64 16 -6 16 C-6 16.66 -6 17.32 -6 18 C-6.99 18 -7.98 18 -9 18 C-9 18.99 -9 19.98 -9 21 C-10.98 21 -12.96 21 -15 21 C-15 21.66 -15 22.32 -15 23 C-19.62 23 -24.24 23 -29 23 C-29 22.34 -29 21.68 -29 21 C-29.99 21 -30.98 21 -32 21 C-32 20.01 -32 19.02 -32 18 C-32.99 18 -33.98 18 -35 18 C-35 17.34 -35 16.68 -35 16 C-36.32 16 -37.64 16 -39 16 C-39 15.01 -39 14.02 -39 13 C-39.99 13 -40.98 13 -42 13 C-42 12.34 -42 11.68 -42 11 C-42.66 11 -43.32 11 -44 11 C-44 13.31 -44 15.62 -44 18 C-43.34 18.33 -42.68 18.66 -42 19 C-42.99 19 -43.98 19 -45 19 C-45.027 17.375 -45.046 15.75 -45.062 14.125 C-45.074 13.22 -45.086 12.315 -45.098 11.383 C-45 9 -45 9 -44 7 C-43.01 7 -42.02 7 -41 7 C-41 7.66 -41 8.32 -41 9 C-40.01 9 -39.02 9 -38 9 C-37.67 10.32 -37.34 11.64 -37 13 C-36.01 13 -35.02 13 -34 13 C-34 13.99 -34 14.98 -34 16 C-26.74 16 -19.48 16 -12 16 C-11.67 15.01 -11.34 14.02 -11 13 C-9.68 13 -8.36 13 -7 13 C-7 12.34 -7 11.68 -7 11 C-6.01 11 -5.02 11 -4 11 C-4 10.34 -4 9.68 -4 9 C-3.34 9 -2.68 9 -2 9 C-1.34 6.03 -0.68 3.06 0 0 Z " fill="#E0B989" transform="translate(183,382)"/>
<path d="M0 0 C2.64 0 5.28 0 8 0 C8 1.65 8 3.3 8 5 C11.3 5 14.6 5 18 5 C18 5.66 18 6.32 18 7 C18.99 7 19.98 7 21 7 C21.33 8.32 21.66 9.64 22 11 C24.475 11.495 24.475 11.495 27 12 C27 11.34 27 10.68 27 10 C28.65 10 30.3 10 32 10 C31.67 12.31 31.34 14.62 31 17 C30.34 17 29.68 17 29 17 C29 17.66 29 18.32 29 19 C26.69 19 24.38 19 22 19 C22 18.34 22 17.68 22 17 C20.68 17 19.36 17 18 17 C18 16.01 18 15.02 18 14 C17.01 14 16.02 14 15 14 C15 13.34 15 12.68 15 12 C12.03 12 9.06 12 6 12 C6 11.34 6 10.68 6 10 C4.68 10 3.36 10 2 10 C2 8.68 2 7.36 2 6 C1.34 6 0.68 6 0 6 C0 4.02 0 2.04 0 0 Z " fill="#3F3541" transform="translate(171,349)"/>
<path d="M0 0 C0.33 0 0.66 0 1 0 C1 3.63 1 7.26 1 11 C1.66 11 2.32 11 3 11 C3.103 11.639 3.206 12.279 3.312 12.938 C3.539 13.618 3.766 14.299 4 15 C4.99 15.33 5.98 15.66 7 16 C7 16.66 7 17.32 7 18 C7.99 18 8.98 18 10 18 C10 18.99 10 19.98 10 21 C11.32 21 12.64 21 14 21 C14 21.66 14 22.32 14 23 C16.146 22.887 18.292 22.759 20.438 22.625 C22.23 22.521 22.23 22.521 24.059 22.414 C25.029 22.277 26 22.141 27 22 C27.33 21.34 27.66 20.68 28 20 C29.65 20 31.3 20 33 20 C33 22.31 33 24.62 33 27 C31.35 27 29.7 27 28 27 C28 27.66 28 28.32 28 29 C22.72 29 17.44 29 12 29 C12 28.34 12 27.68 12 27 C11.34 27 10.68 27 10 27 C10 26.34 10 25.68 10 25 C9.01 25 8.02 25 7 25 C7 24.34 7 23.68 7 23 C6.34 23 5.68 23 5 23 C5 22.01 5 21.02 5 20 C4.01 20 3.02 20 2 20 C2 19.01 2 18.02 2 17 C1.34 17 0.68 17 0 17 C0 11.39 0 5.78 0 0 Z " fill="#DAB68C" transform="translate(146,105)"/>
<path d="M0 0 C2.31 0 4.62 0 7 0 C7 0.66 7 1.32 7 2 C8.65 2 10.3 2 12 2 C12 2.99 12 3.98 12 5 C12.66 5 13.32 5 14 5 C14 5.66 14 6.32 14 7 C14.99 7 15.98 7 17 7 C17 7.66 17 8.32 17 9 C17.99 9 18.98 9 20 9 C20 10.65 20 12.3 20 14 C20.99 14 21.98 14 23 14 C23 16.31 23 18.62 23 21 C21.35 21 19.7 21 18 21 C18 20.34 18 19.68 18 19 C16.68 19 15.36 19 14 19 C14 18.01 14 17.02 14 16 C13.34 16 12.68 16 12 16 C12 14.35 12 12.7 12 11 C10.02 10.34 8.04 9.68 6 9 C6 8.34 6 7.68 6 7 C3.36 7 0.72 7 -2 7 C-2 5.35 -2 3.7 -2 2 C-1.34 2 -0.68 2 0 2 C0 1.34 0 0.68 0 0 Z " fill="#3F3440" transform="translate(151,291)"/>
<path d="M0 0 C5.28 0 10.56 0 16 0 C16 0.99 16 1.98 16 3 C16.99 3 17.98 3 19 3 C19 4.65 19 6.3 19 8 C14.38 8 9.76 8 5 8 C5 8.66 5 9.32 5 10 C1.04 10 -2.92 10 -7 10 C-7 8.35 -7 6.7 -7 5 C-6.01 5 -5.02 5 -4 5 C-4 4.34 -4 3.68 -4 3 C-2.68 3 -1.36 3 0 3 C0 2.01 0 1.02 0 0 Z " fill="#413741" transform="translate(215,322)"/>
<path d="M0 0 C1.65 0 3.3 0 5 0 C5 0.66 5 1.32 5 2 C13.25 2 21.5 2 30 2 C31 4 31.494 5.831 32 8 C32.743 7.897 33.485 7.794 34.25 7.688 C37 8 37 8 38.875 10.125 C39.576 11.074 40.278 12.023 41 13 C41.607 13.388 42.214 13.776 42.84 14.176 C45.141 15.647 46.507 16.691 48 19 C48.309 23.771 47.768 28.291 47 33 C47.99 33.33 48.98 33.66 50 34 C48.35 34 46.7 34 45 34 C45.33 31.69 45.66 29.38 46 27 C45.34 27 44.68 27 44 27 C44 24.36 44 21.72 44 19 C43.34 19 42.68 19 42 19 C42 18.34 42 17.68 42 17 C41.34 17 40.68 17 40 17 C40 16.34 40 15.68 40 15 C39.34 15 38.68 15 38 15 C38 14.34 38 13.68 38 13 C35.525 12.01 35.525 12.01 33 11 C33 10.34 33 9.68 33 9 C31.68 9 30.36 9 29 9 C29 7.68 29 6.36 29 5 C20.75 5 12.5 5 4 5 C3.67 4.01 3.34 3.02 3 2 C2.01 1.34 1.02 0.68 0 0 Z M46 21 C47 24 47 24 47 24 Z " fill="#959499" transform="translate(248,30)"/>
<path d="M0 0 C2.64 0 5.28 0 8 0 C8 0.99 8 1.98 8 3 C8.99 3 9.98 3 11 3 C11 5.31 11 7.62 11 10 C10.34 10 9.68 10 9 10 C9 10.99 9 11.98 9 13 C6.03 13 3.06 13 0 13 C0 12.34 0 11.68 0 11 C-0.66 11 -1.32 11 -2 11 C-2 8.36 -2 5.72 -2 3 C-1.34 3 -0.68 3 0 3 C0 2.01 0 1.02 0 0 Z " fill="#443B47" transform="translate(230,87)"/>
<path d="M0 0 C2.97 0 5.94 0 9 0 C9 0.66 9 1.32 9 2 C9.66 2 10.32 2 11 2 C11 4.64 11 7.28 11 10 C10.34 10 9.68 10 9 10 C9 10.66 9 11.32 9 12 C6.03 12 3.06 12 0 12 C0 11.34 0 10.68 0 10 C-0.66 10 -1.32 10 -2 10 C-2 7.36 -2 4.72 -2 2 C-1.34 2 -0.68 2 0 2 C0 1.34 0 0.68 0 0 Z " fill="#3F3642" transform="translate(256,90)"/>
<path d="M0 0 C2.64 0 5.28 0 8 0 C8 0.66 8 1.32 8 2 C8.66 2 9.32 2 10 2 C10 4.31 10 6.62 10 9 C9.34 9 8.68 9 8 9 C8 9.99 8 10.98 8 12 C6.543 12.081 5.084 12.139 3.625 12.188 C2.813 12.222 2.001 12.257 1.164 12.293 C0.45 12.196 -0.264 12.1 -1 12 C-3.429 8.356 -3.162 6.288 -3 2 C-2.01 2 -1.02 2 0 2 C0 1.34 0 0.68 0 0 Z " fill="#443B46" transform="translate(179,83)"/>
<path d="M0 0 C2.31 0 4.62 0 7 0 C7 0.66 7 1.32 7 2 C7.99 2 8.98 2 10 2 C10 4.64 10 7.28 10 10 C9.01 10 8.02 10 7 10 C7 10.66 7 11.32 7 12 C4.36 12 1.72 12 -1 12 C-1 11.34 -1 10.68 -1 10 C-1.66 10 -2.32 10 -3 10 C-3 7.36 -3 4.72 -3 2 C-2.01 2 -1.02 2 0 2 C0 1.34 0 0.68 0 0 Z " fill="#3E3543" transform="translate(205,85)"/>
<path d="M0 0 C0.33 0 0.66 0 1 0 C1 8.91 1 17.82 1 27 C0.01 27 -0.98 27 -2 27 C-2 27.66 -2 28.32 -2 29 C-2.66 29 -3.32 29 -4 29 C-4 29.99 -4 30.98 -4 32 C-4.99 32 -5.98 32 -7 32 C-7 32.66 -7 33.32 -7 34 C-10.3 34 -13.6 34 -17 34 C-16.01 33.505 -16.01 33.505 -15 33 C-15 32.01 -15 31.02 -15 30 C-14.01 29.67 -13.02 29.34 -12 29 C-11.67 28.34 -11.34 27.68 -11 27 C-10.01 27 -9.02 27 -8 27 C-8 26.34 -8 25.68 -8 25 C-7.01 25 -6.02 25 -5 25 C-5 24.34 -5 23.68 -5 23 C-4.01 23 -3.02 23 -2 23 C-2 21.02 -2 19.04 -2 17 C-1.34 17 -0.68 17 0 17 C0 11.39 0 5.78 0 0 Z " fill="#D8B68C" transform="translate(302,80)"/>
<path d="M0 0 C3.63 0 7.26 0 11 0 C11 0.99 11 1.98 11 3 C11.99 3 12.98 3 14 3 C14 4.65 14 6.3 14 8 C13.01 8 12.02 8 11 8 C11 8.66 11 9.32 11 10 C8.36 10 5.72 10 3 10 C3 9.34 3 8.68 3 8 C2.01 8 1.02 8 0 8 C0 5.36 0 2.72 0 0 Z " fill="#DFC8A1" transform="translate(165,186)"/>
<path d="M0 0 C2.31 0 4.62 0 7 0 C7 0.99 7 1.98 7 3 C9.64 3 12.28 3 15 3 C15.33 4.32 15.66 5.64 16 7 C18.018 7.163 20.036 7.326 22.055 7.488 C24 8 24 8 26 11 C28.563 11.73 28.563 11.73 31 12 C31 12.33 31 12.66 31 13 C33.475 13.495 33.475 13.495 36 14 C36 14.66 36 15.32 36 16 C38.97 16.99 41.94 17.98 45 19 C45 19.99 45 20.98 45 22 C43.02 22 41.04 22 39 22 C39 21.34 39 20.68 39 20 C38.01 20 37.02 20 36 20 C36 19.34 36 18.68 36 18 C34.35 18 32.7 18 31 18 C31 17.34 31 16.68 31 16 C29.35 16 27.7 16 26 16 C26 15.34 26 14.68 26 14 C25.01 14 24.02 14 23 14 C23 13.01 23 12.02 23 11 C21.35 11 19.7 11 18 11 C18 10.34 18 9.68 18 9 C16.68 9 15.36 9 14 9 C14 8.01 14 7.02 14 6 C12.35 6 10.7 6 9 6 C9 5.34 9 4.68 9 4 C7.35 4 5.7 4 4 4 C4 3.34 4 2.68 4 2 C2.68 2 1.36 2 0 2 C0 1.34 0 0.68 0 0 Z " fill="#A4A2A9" transform="translate(254,188)"/>
<path d="M0 0 C1.98 0 3.96 0 6 0 C3.86 2.14 1.707 3.646 -1 5 C-1.33 5.99 -1.66 6.98 -2 8 C-3.375 10.188 -3.375 10.188 -5 12 C-5.99 12 -6.98 12 -8 12 C-8 15.96 -8 19.92 -8 24 C-8.66 24.33 -9.32 24.66 -10 25 C-11.134 27.017 -11.134 27.017 -12 29 C-13.32 28.67 -14.64 28.34 -16 28 C-15.34 28 -14.68 28 -14 28 C-14 26.68 -14 25.36 -14 24 C-13.34 24 -12.68 24 -12 24 C-12 19.05 -12 14.1 -12 9 C-10.35 9 -8.7 9 -7 9 C-7 8.34 -7 7.68 -7 7 C-6.01 7 -5.02 7 -4 7 C-3.34 5.35 -2.68 3.7 -2 2 C-1.34 2 -0.68 2 0 2 C0 1.34 0 0.68 0 0 Z " fill="#959398" transform="translate(304,112)"/>
<path d="M0 0 C0.66 0.33 1.32 0.66 2 1 C2 1.99 2 2.98 2 4 C1.34 4 0.68 4 0 4 C0 4.66 0 5.32 0 6 C-0.99 6 -1.98 6 -3 6 C-3.33 7.65 -3.66 9.3 -4 11 C-11.59 11 -19.18 11 -27 11 C-27.33 11.99 -27.66 12.98 -28 14 C-29.32 14 -30.64 14 -32 14 C-32 14.99 -32 15.98 -32 17 C-32.99 17.33 -33.98 17.66 -35 18 C-35.66 17.67 -36.32 17.34 -37 17 C-36.34 15.68 -35.68 14.36 -35 13 C-33.02 13 -31.04 13 -29 13 C-29.66 12.67 -30.32 12.34 -31 12 C-30.67 11.01 -30.34 10.02 -30 9 C-22.08 8.67 -14.16 8.34 -6 8 C-5.34 6.35 -4.68 4.7 -4 3 C-3.01 2.34 -2.02 1.68 -1 1 C-0.67 0.67 -0.34 0.34 0 0 Z " fill="#A8A7AC" transform="translate(179,25)"/>
<path d="M0 0 C0.33 0 0.66 0 1 0 C1.33 2.31 1.66 4.62 2 7 C3.32 7 4.64 7 6 7 C6 7.66 6 8.32 6 9 C9.96 9 13.92 9 18 9 C18.66 6.03 19.32 3.06 20 0 C20.33 0 20.66 0 21 0 C21 3.63 21 7.26 21 11 C20.34 11 19.68 11 19 11 C19 11.66 19 12.32 19 13 C14.38 13 9.76 13 5 13 C5 12.01 5 11.02 5 10 C3.35 9.67 1.7 9.34 0 9 C0 6.03 0 3.06 0 0 Z " fill="#DDBA91" transform="translate(165,161)"/>
<path d="M0 0 C0.66 0 1.32 0 2 0 C1.688 1.938 1.688 1.938 1 4 C0.01 4.33 -0.98 4.66 -2 5 C-2 5.66 -2 6.32 -2 7 C-2.66 7 -3.32 7 -4 7 C-4 10.96 -4 14.92 -4 19 C-3.34 19 -2.68 19 -2 19 C-2 19.99 -2 20.98 -2 22 C-1.34 22 -0.68 22 0 22 C0 22.66 0 23.32 0 24 C0.99 24.33 1.98 24.66 3 25 C3 25.66 3 26.32 3 27 C3.66 27 4.32 27 5 27 C4.67 27.99 4.34 28.98 4 30 C3.01 30 2.02 30 1 30 C1 30.66 1 31.32 1 32 C0.01 32 -0.98 32 -2 32 C-2 32.66 -2 33.32 -2 34 C-4 33 -4 33 -5 31 C-3.036 29.494 -1.217 28.109 1 27 C0.031 26.402 -0.939 25.804 -1.938 25.188 C-5 23 -5 23 -6 20 C-6.199 17.316 -6.322 14.687 -6.375 12 C-6.412 11.276 -6.45 10.551 -6.488 9.805 C-6.523 7.688 -6.523 7.688 -6 4 C-3.539 2.062 -3.539 2.062 -1 1 C-0.67 0.67 -0.34 0.34 0 0 Z " fill="#A3A0A7" transform="translate(163,152)"/>
<path d="M0 0 C10.56 0 21.12 0 32 0 C32.495 0.99 32.495 0.99 33 2 C33.99 2.66 34.98 3.32 36 4 C33.69 4 31.38 4 29 4 C29 3.34 29 2.68 29 2 C19.1 2 9.2 2 -1 2 C-0.67 1.34 -0.34 0.68 0 0 Z " fill="#979699" transform="translate(215,25)"/>
<path d="M0 0 C0.33 0.66 0.66 1.32 1 2 C2.238 1.917 3.475 1.835 4.75 1.75 C8.69 1.743 8.69 1.743 11.188 3.812 C12.085 4.895 12.085 4.895 13 6 C13.908 6.536 14.815 7.072 15.75 7.625 C16.493 8.079 17.235 8.532 18 9 C18 9.66 18 10.32 18 11 C18.99 11.66 19.98 12.32 21 13 C22.019 13.981 23.024 14.977 24 16 C23.01 16.33 22.02 16.66 21 17 C21 17.66 21 18.32 21 19 C20.34 19 19.68 19 19 19 C19 17.68 19 16.36 19 15 C18.34 15 17.68 15 17 15 C17 14.34 17 13.68 17 13 C16.34 13 15.68 13 15 13 C15 12.01 15 11.02 15 10 C14.01 10 13.02 10 12 10 C12 9.34 12 8.68 12 8 C10.68 8 9.36 8 8 8 C8 7.01 8 6.02 8 5 C6.35 5 4.7 5 3 5 C3 4.34 3 3.68 3 3 C1.68 2.67 0.36 2.34 -1 2 C-0.67 1.34 -0.34 0.68 0 0 Z " fill="#8C8C8C" transform="translate(360,241)"/>
<path d="M0 0 C2.5 1.375 2.5 1.375 5 3 C5 3.66 5 4.32 5 5 C5.66 5 6.32 5 7 5 C7 5.99 7 6.98 7 8 C9.31 8 11.62 8 14 8 C14 9.65 14 11.3 14 13 C11.69 13 9.38 13 7 13 C7 11.68 7 10.36 7 9 C6.01 9 5.02 9 4 9 C4 8.34 4 7.68 4 7 C3.34 7 2.68 7 2 7 C2 6.01 2 5.02 2 4 C1.34 4 0.68 4 0 4 C0 2.68 0 1.36 0 0 Z " fill="#DABB92" transform="translate(132,92)"/>
<path d="M0 0 C0.33 0 0.66 0 1 0 C1 11.55 1 23.1 1 35 C0.67 35 0.34 35 0 35 C0 23.45 0 11.9 0 0 Z " fill="#7B7B7B" transform="translate(312,75)"/>
<path d="M0 0 C9.24 0 18.48 0 28 0 C28 0.33 28 0.66 28 1 C18.76 1 9.52 1 0 1 C0 0.67 0 0.34 0 0 Z " fill="#8B87A7" transform="translate(222,160)"/>
<path d="M0 0 C9.24 0 18.48 0 28 0 C28 0.33 28 0.66 28 1 C18.76 1 9.52 1 0 1 C0 0.67 0 0.34 0 0 Z " fill="#B3B3B3" transform="translate(217,23)"/>
<path d="M0 0 C0.33 0 0.66 0 1 0 C1 7.92 1 15.84 1 24 C0.67 24 0.34 24 0 24 C0 16.08 0 8.16 0 0 Z " fill="#050505" transform="translate(122,76)"/>
<path d="M0 0 C7.59 0 15.18 0 23 0 C23 0.33 23 0.66 23 1 C15.41 1 7.82 1 0 1 C0 0.67 0 0.34 0 0 Z " fill="#05050B" transform="translate(185,21)"/>
<path d="M0 0 C6.27 0 12.54 0 19 0 C19 0.33 19 0.66 19 1 C12.73 1 6.46 1 0 1 C0 0.67 0 0.34 0 0 Z " fill="#C993C9" transform="translate(152,32)"/>
<path d="M0 0 C0.33 0 0.66 0 1 0 C1.33 4.95 1.66 9.9 2 15 C1.01 14.67 0.02 14.34 -1 14 C-0.67 9.38 -0.34 4.76 0 0 Z " fill="#7CB8D6" transform="translate(118,387)"/>
<path d="M0 0 C5.28 0 10.56 0 16 0 C16 0.33 16 0.66 16 1 C10.72 1 5.44 1 0 1 C0 0.67 0 0.34 0 0 Z " fill="#C7C7C7" transform="translate(253,492)"/>
<path d="M0 0 C4.95 0 9.9 0 15 0 C15 0.33 15 0.66 15 1 C10.05 1 5.1 1 0 1 C0 0.67 0 0.34 0 0 Z " fill="#7D7D7D" transform="translate(164,205)"/>
<path d="M0 0 C4.62 0 9.24 0 14 0 C14 0.33 14 0.66 14 1 C9.38 1 4.76 1 0 1 C0 0.67 0 0.34 0 0 Z " fill="#666666" transform="translate(240,184)"/>
<path d="M0 0 C0.33 0 0.66 0 1 0 C1 4.62 1 9.24 1 14 C0.67 14 0.34 14 0 14 C0 9.38 0 4.76 0 0 Z " fill="#C8C8C8" transform="translate(155,158)"/>
<path d="M0 0 C0.33 0 0.66 0 1 0 C1 3.3 1 6.6 1 10 C0.67 10 0.34 10 0 10 C0 6.7 0 3.4 0 0 Z " fill="#FFFFFF" transform="translate(107,408)"/>
<path d="M0 0 C0.33 0 0.66 0 1 0 C1 2.97 1 5.94 1 9 C0.67 9 0.34 9 0 9 C0 6.03 0 3.06 0 0 Z " fill="#FFFFFF" transform="translate(404,412)"/>
<path d="M0 0 C1.65 0 3.3 0 5 0 C5 0.33 5 0.66 5 1 C3.35 1 1.7 1 0 1 C0 0.67 0 0.34 0 0 Z " fill="#F2F2F2" transform="translate(157,446)"/>
<path d="M0 0 C1.32 0.33 2.64 0.66 4 1 C3.01 1.495 3.01 1.495 2 2 C1.34 1.34 0.68 0.68 0 0 Z " fill="#9999CC" transform="translate(116,423)"/>
<path d="M0 0 C3 1 3 1 3 1 Z " fill="#462A63" transform="translate(270,194)"/>
<path d="M0 0 C0.66 0.66 1.32 1.32 2 2 C1.34 2 0.68 2 0 2 C0 1.34 0 0.68 0 0 Z " fill="#8D8D8D" transform="translate(162,178)"/>
<path d="M0 0 C2 1 2 1 2 1 Z " fill="#FFFFFF" transform="translate(225,479)"/>
<path d="M0 0 C2 1 2 1 2 1 Z " fill="#7F7F7F" transform="translate(193,463)"/>
<path d="M0 0 C2 1 2 1 2 1 Z " fill="#FFFFFF" transform="translate(386,401)"/>
<path d="" fill="#1F1F1F" transform="translate(0,0)"/>
<path d="M0 0 C2 1 2 1 2 1 Z " fill="#555555" transform="translate(138,126)"/>
<path d="" fill="#AAAAD4" transform="translate(0,0)"/>
<path d="" fill="#7F7F7F" transform="translate(0,0)"/>
<path d="" fill="#CCCCCC" transform="translate(0,0)"/>
<path d="" fill="#FFFFFF" transform="translate(0,0)"/>
<path d="" fill="#AAAAAA" transform="translate(0,0)"/>
<path d="" fill="#FFFFFF" transform="translate(0,0)"/>
<path d="" fill="#FFFFFF" transform="translate(0,0)"/>
<path d="" fill="#FFFFFF" transform="translate(0,0)"/>
<path d="" fill="#000000" transform="translate(0,0)"/>
<path d="" fill="#FFFFFF" transform="translate(0,0)"/>
<path d="" fill="#7F7F7F" transform="translate(0,0)"/>
<path d="" fill="#7F7F7F" transform="translate(0,0)"/>
<path d="" fill="#7F7F7F" transform="translate(0,0)"/>
<path d="" fill="#3F3F3F" transform="translate(0,0)"/>
<path d="" fill="#7F7F7F" transform="translate(0,0)"/>
<path d="" fill="#FFFFFF" transform="translate(0,0)"/>
<path d="" fill="#FFFFFF" transform="translate(0,0)"/>
<path d="" fill="#7F7F7F" transform="translate(0,0)"/>
<path d="" fill="#FFFFFF" transform="translate(0,0)"/>
<path d="" fill="#7F7F7F" transform="translate(0,0)"/>
<path d="" fill="#FF00FF" transform="translate(0,0)"/>
<path d="" fill="#AAAAAA" transform="translate(0,0)"/>
<path d="" fill="#FFFFFF" transform="translate(0,0)"/>
<path d="" fill="#FFFFFF" transform="translate(0,0)"/>
<path d="" fill="#FFFFFF" transform="translate(0,0)"/>
</svg>
