<svg xmlns="http://www.w3.org/2000/svg" viewBox="0 0 24 24" fill="#82318E">
  <!-- Tsinghua University emblem (清华大学校徽): three concentric ring bands + five-pointed star
       Outer ring = university name band, middle ring = motto band, inner ring = bell design border -->
  <path fill-rule="evenodd" d="M0 12a12 12 0 1024 0 12 12 0 10-24 0zm1 0a11 11 0 1122 0 11 11 0 11-22 0zm1.8 0a9.2 9.2 0 1018.4 0 9.2 9.2 0 10-18.4 0zm.7 0a8.5 8.5 0 1117 0 8.5 8.5 0 11-17 0zm1.5 0a7 7 0 1014 0 7 7 0 10-14 0zm.7 0a6.3 6.3 0 1112.6 0 6.3 6.3 0 11-12.6 0z"/>
  <polygon points="12,8.8 12.8,11 15,11 13.2,12.4 13.9,14.6 12,13.3 10.1,14.6 10.8,12.4 9,11 11.2,11"/>
</svg>
