<?xml version="1.0" encoding="UTF-8"?>
<!-- Generator: visioncortex VTracer 0.6.4 -->
<svg version="1.1" xmlns="http://www.w3.org/2000/svg" width="128" height="128">
<path d="M0 0 C42.24 0 84.48 0 128 0 C128 42.24 128 84.48 128 128 C85.76 128 43.52 128 0 128 C0 85.76 0 43.52 0 0 Z " fill="#474747" transform="translate(0,0)"/>
<path d="M0 0 C42.24 0 84.48 0 128 0 C128 28.38 128 56.76 128 86 C127.01 86 126.02 86 125 86 C125 84.02 125 82.04 125 80 C124.01 80 123.02 80 122 80 C122 79.01 122 78.02 122 77 C121.01 77 120.02 77 119 77 C119 74 119 74 121 72 C119.515 71.01 119.515 71.01 118 70 C117.505 71.98 117.505 71.98 117 74 C116.34 74 115.68 74 115 74 C115 73.01 115 72.02 115 71 C114.01 71 113.02 71 112 71 C112 71.66 112 72.32 112 73 C111.01 73 110.02 73 109 73 C109 72.01 109 71.02 109 70 C108.381 70.66 107.763 71.32 107.125 72 C105 74 105 74 103 74 C103 74.99 103 75.98 103 77 C103.66 77 104.32 77 105 77 C105 77.99 105 78.98 105 80 C104.01 80 103.02 80 102 80 C102 81.98 102 83.96 102 86 C101.01 86 100.02 86 99 86 C99 84.02 99 82.04 99 80 C98.01 80 97.02 80 96 80 C96 81.98 96 83.96 96 86 C95.01 86 94.02 86 93 86 C93 84.02 93 82.04 93 80 C92.01 80 91.02 80 90 80 C89.951 79.362 89.902 78.724 89.852 78.066 C89.739 76.827 89.739 76.827 89.625 75.562 C89.521 74.327 89.521 74.327 89.414 73.066 C89.209 72.044 89.209 72.044 89 71 C88.34 70.67 87.68 70.34 87 70 C87 69.01 87 68.02 87 67 C87.99 67 88.98 67 90 67 C90 67.99 90 68.98 90 70 C90.99 70 91.98 70 93 70 C93 69.01 93 68.02 93 67 C93.99 67 94.98 67 96 67 C96 66.01 96 65.02 96 64 C95.01 64 94.02 64 93 64 C93 63.01 93 62.02 93 61 C92.01 61 91.02 61 90 61 C91.163 58.251 92.647 56.133 94.562 53.875 C98.046 49.766 98.286 47.545 98.219 42.32 C97.812 38.003 96.178 35.067 93 32.188 C89.914 30.355 87.217 29.803 83.688 29.688 C82.949 29.65 82.21 29.613 81.449 29.574 C75.936 30.533 71.88 34.885 68.109 38.766 C67.235 39.655 66.361 40.545 65.461 41.461 C64.566 42.381 63.672 43.302 62.75 44.25 C60.958 46.093 59.161 47.932 57.359 49.766 C56.57 50.578 55.781 51.39 54.968 52.228 C53 54 53 54 51 54 C51 53.01 51 52.02 51 51 C51.99 51 52.98 51 54 51 C54 50.01 54 49.02 54 48 C53.01 48 52.02 48 51 48 C51 47.01 51 46.02 51 45 C51.99 45 52.98 45 54 45 C54 44.01 54 43.02 54 42 C53.01 42 52.02 42 51 42 C51 41.01 51 40.02 51 39 C50.01 39 49.02 39 48 39 C48 39.66 48 40.32 48 41 C47.01 41 46.02 41 45 41 C45 40.01 45 39.02 45 38 C45.99 38 46.98 38 48 38 C48 37.01 48 36.02 48 35 C47.01 35 46.02 35 45 35 C45 34.01 45 33.02 45 32 C44.01 32 43.02 32 42 32 C42 31.01 42 30.02 42 29 C41.01 29 40.02 29 39 29 C39 29.99 39 30.98 39 32 C39.66 32 40.32 32 41 32 C41 32.99 41 33.98 41 35 C40.01 35 39.02 35 38 35 C38 35.99 38 36.98 38 38 C37.01 38 36.02 38 35 38 C35 37.01 35 36.02 35 35 C34.01 35 33.02 35 32 35 C32 34.01 32 33.02 32 32 C31.01 32 30.02 32 29 32 C29 31.01 29 30.02 29 29 C28.01 29 27.02 29 26 29 C25.67 28.34 25.34 27.68 25 27 C24.01 26.34 23.02 25.68 22 25 C22.33 24.34 22.66 23.68 23 23 C25 24 27 25 29 26 C29 25.01 29 24.02 29 23 C29.99 23 30.98 23 32 23 C32 23.66 32 24.32 32 25 C32.99 25 33.98 25 35 25 C35 24.01 35 23.02 35 22 C35.99 22 36.98 22 38 22 C38 21.01 38 20.02 38 19 C37.01 19 36.02 19 35 19 C35 18.01 35 17.02 35 16 C35.99 16 36.98 16 38 16 C38 15.01 38 14.02 38 13 C37.01 13 36.02 13 35 13 C35 10 35 10 36.5 8.312 C36.995 7.879 37.49 7.446 38 7 C37.01 7 36.02 7 35 7 C35 7.66 35 8.32 35 9 C34.01 9 33.02 9 32 9 C32 8.01 32 7.02 32 6 C31.01 6 30.02 6 29 6 C29 5.01 29 4.02 29 3 C28.01 3 27.02 3 26 3 C26 3.99 26 4.98 26 6 C24.68 6 23.36 6 22 6 C22.66 6.784 23.32 7.567 24 8.375 C26 11 26 11 26 13 C25.01 13 24.02 13 23 13 C23 13.99 23 14.98 23 16 C23.66 16 24.32 16 25 16 C25 16.99 25 17.98 25 19 C24.01 19 23.02 19 22 19 C22 19.99 22 20.98 22 22 C21.01 22 20.02 22 19 22 C19 22.99 19 23.98 19 25 C18.01 25 17.02 25 16 25 C16 24.34 16 23.68 16 23 C15.01 23 14.02 23 13 23 C13 23.99 13 24.98 13 26 C10.506 24.796 8.319 23.546 6 22 C6 22.99 6 23.98 6 25 C5.01 25 4.02 25 3 25 C3 24.34 3 23.68 3 23 C2.01 23 1.02 23 0 23 C0 15.41 0 7.82 0 0 Z M26 7 C26.99 7 27.98 7 29 7 C29 7.66 29 8.32 29 9 C27.68 8.67 26.36 8.34 25 8 C25.33 7.67 25.66 7.34 26 7 Z " fill="#393939" transform="translate(0,0)"/>
<path d="M0 0 C0.99 0.33 1.98 0.66 3 1 C3 1.66 3 2.32 3 3 C3.99 3 4.98 3 6 3 C6 3.99 6 4.98 6 6 C6.99 6 7.98 6 9 6 C9 6.99 9 7.98 9 9 C9.99 9 10.98 9 12 9 C12 8.01 12 7.02 12 6 C12.99 6 13.98 6 15 6 C15 5.01 15 4.02 15 3 C15.99 3 16.98 3 18 3 C18 3.99 18 4.98 18 6 C17.34 6 16.68 6 16 6 C16 6.99 16 7.98 16 9 C16.99 9 17.98 9 19 9 C19 9.99 19 10.98 19 12 C17.68 12 16.36 12 15 12 C15 12.99 15 13.98 15 15 C15.99 15.33 16.98 15.66 18 16 C18 16.99 18 17.98 18 19 C17.34 19 16.68 19 16 19 C16 19.99 16 20.98 16 22 C16.66 22 17.32 22 18 22 C18 22.99 18 23.98 18 25 C17.34 25 16.68 25 16 25 C16 25.99 16 26.98 16 28 C16.99 28 17.98 28 19 28 C19 27.01 19 26.02 19 25 C19.99 25 20.98 25 22 25 C22 24.01 22 23.02 22 22 C22.99 22 23.98 22 25 22 C25 21.01 25 20.02 25 19 C24.01 19 23.02 19 22 19 C22 18.01 22 17.02 22 16 C21.01 16 20.02 16 19 16 C19 15.01 19 14.02 19 13 C19.99 13 20.98 13 22 13 C22 13.66 22 14.32 22 15 C22.99 15 23.98 15 25 15 C25 14.34 25 13.68 25 13 C25.99 13 26.98 13 28 13 C28 13.99 28 14.98 28 16 C28.99 16 29.98 16 31 16 C31 16.99 31 17.98 31 19 C30.01 19 29.02 19 28 19 C28 19.99 28 20.98 28 22 C28.99 22 29.98 22 31 22 C31 22.99 31 23.98 31 25 C31.99 25 32.98 25 34 25 C34 24.01 34 23.02 34 22 C33.34 22 32.68 22 32 22 C32 21.01 32 20.02 32 19 C32.99 19 33.98 19 35 19 C35 19.99 35 20.98 35 22 C35.99 22 36.98 22 38 22 C38 22.99 38 23.98 38 25 C37.01 25 36.02 25 35 25 C35 25.99 35 26.98 35 28 C33.68 28 32.36 28 31 28 C31 28.99 31 29.98 31 31 C32.32 31.66 33.64 32.32 35 33 C35 33.66 35 34.32 35 35 C35.99 35.33 36.98 35.66 38 36 C37.073 36.915 36.146 37.83 35.191 38.773 C33.982 39.974 32.772 41.174 31.562 42.375 C30.951 42.978 30.339 43.582 29.709 44.203 C29.126 44.783 28.542 45.363 27.941 45.961 C27.132 46.762 27.132 46.762 26.307 47.58 C24.892 48.987 24.892 48.987 24 51 C23.34 51 22.68 51 22 51 C22.275 59.344 22.275 59.344 27 66 C30.599 67.799 34.087 67.664 38 67 C39.812 65.932 39.812 65.932 41.434 64.332 C42.121 63.697 42.808 63.061 43.516 62.407 C48.414 57.661 53.27 52.877 58.084 48.046 C59.954 46.171 61.829 44.301 63.705 42.432 C64.896 41.24 66.087 40.048 67.277 38.855 C67.838 38.297 68.398 37.739 68.975 37.164 C73.102 33.08 73.102 33.08 74.25 27.562 C74.26 24.155 74.26 24.155 72.938 22.062 C69.658 20.264 67.692 20.395 64 21 C62.104 22.3 62.104 22.3 60.289 24.027 C59.244 24.979 59.244 24.979 58.178 25.95 C54.596 29.321 51.053 32.723 47.562 36.188 C46.485 37.235 46.485 37.235 45.385 38.303 C44.702 38.98 44.02 39.658 43.316 40.355 C42.702 40.96 42.088 41.565 41.455 42.188 C39.886 44.142 39.405 45.55 39 48 C43.399 44.31 47.569 40.491 51.543 36.344 C52.307 35.55 53.071 34.756 53.857 33.938 C55.432 32.29 56.997 30.634 58.553 28.969 C59.313 28.185 60.073 27.401 60.855 26.594 C61.871 25.522 61.871 25.522 62.907 24.428 C65 23 65 23 67.634 23.15 C70 24 70 24 72 26 C71.703 29.848 70.642 31.863 67.968 34.581 C67.33 35.238 66.692 35.895 66.035 36.572 C65.34 37.265 64.645 37.958 63.93 38.672 C63.215 39.395 62.501 40.118 61.765 40.863 C60.252 42.387 58.733 43.907 57.21 45.421 C54.887 47.738 52.591 50.081 50.297 52.426 C48.822 53.905 47.345 55.383 45.867 56.859 C45.185 57.56 44.502 58.261 43.799 58.984 C40.565 62.156 38.638 63.826 34.188 65.04 C31 65 31 65 28.125 63.5 C25.25 60.118 24.703 58.452 25 54 C26.244 52.201 26.244 52.201 27.962 50.33 C28.602 49.63 29.243 48.929 29.902 48.208 C33.505 44.415 37.159 40.678 40.855 36.977 C41.68 36.149 42.504 35.322 43.353 34.469 C45.082 32.735 46.812 31.002 48.544 29.271 C51.195 26.617 53.839 23.955 56.482 21.293 C58.169 19.604 59.856 17.915 61.543 16.227 C62.332 15.431 63.12 14.635 63.933 13.815 C64.671 13.08 65.408 12.345 66.169 11.588 C66.814 10.942 67.459 10.295 68.123 9.629 C71.543 6.661 73.336 5.979 77.938 6.125 C81.887 6.75 84.175 8.092 87 11 C89.289 14.269 89.472 17.07 89 21 C85.903 26.464 81.677 30.489 77.172 34.812 C75.635 36.315 74.098 37.817 72.562 39.32 C70.15 41.67 67.734 44.016 65.307 46.351 C62.957 48.616 60.626 50.9 58.297 53.188 C57.2 54.228 57.2 54.228 56.081 55.29 C52.019 59.193 52.019 59.193 50.544 64.488 C50.694 65.317 50.845 66.146 51 67 C51.99 67 52.98 67 54 67 C54 67.99 54 68.98 54 70 C54.99 70 55.98 70 57 70 C57 70.99 57 71.98 57 73 C57.99 73 58.98 73 60 73 C60 72.01 60 71.02 60 70 C60.99 70 61.98 70 63 70 C63 69.01 63 68.02 63 67 C63.99 67 64.98 67 66 67 C66 67.99 66 68.98 66 70 C65.34 70 64.68 70 64 70 C64 70.99 64 71.98 64 73 C64.99 73 65.98 73 67 73 C67 73.99 67 74.98 67 76 C65.68 76 64.36 76 63 76 C63.66 76.598 64.32 77.196 65 77.812 C67 80 67 80 67 83 C66.01 83 65.02 83 64 83 C64 83.99 64 84.98 64 86 C64.66 86 65.32 86 66 86 C66 86.99 66 87.98 66 89 C65.01 89 64.02 89 63 89 C63 88.01 63 87.02 63 86 C62.01 86 61.02 86 60 86 C60 85.01 60 84.02 60 83 C60.99 83 61.98 83 63 83 C63 82.01 63 81.02 63 80 C62.01 80 61.02 80 60 80 C60 79.01 60 78.02 60 77 C59.01 77 58.02 77 57 77 C57 77.66 57 78.32 57 79 C56.01 79 55.02 79 54 79 C54 78.01 54 77.02 54 76 C53.072 76.99 53.072 76.99 52.125 78 C50 80 50 80 48 80 C48 80.99 48 81.98 48 83 C48.66 83 49.32 83 50 83 C50 83.99 50 84.98 50 86 C49.34 86 48.68 86 48 86 C48 86.99 48 87.98 48 89 C48.66 89 49.32 89 50 89 C50 89.99 50 90.98 50 92 C49.01 92 48.02 92 47 92 C47 92.99 47 93.98 47 95 C46.01 95 45.02 95 44 95 C44 94.34 44 93.68 44 93 C43.01 93 42.02 93 41 93 C41 93.66 41 94.32 41 95 C40.01 95 39.02 95 38 95 C38 94.34 38 93.68 38 93 C37.01 93 36.02 93 35 93 C35.495 93.433 35.99 93.866 36.5 94.312 C38 96 38 96 38 99 C37.01 99 36.02 99 35 99 C35 98.01 35 97.02 35 96 C34.01 96 33.02 96 32 96 C32 96.99 32 97.98 32 99 C32.66 99 33.32 99 34 99 C34 99.99 34 100.98 34 102 C20.47 102 6.94 102 -7 102 C-7 76.59 -7 51.18 -7 25 C-6.01 25 -5.02 25 -4 25 C-4 25.99 -4 26.98 -4 28 C-3.01 28 -2.02 28 -1 28 C-1.33 29.32 -1.66 30.64 -2 32 C-2.66 32 -3.32 32 -4 32 C-4 32.99 -4 33.98 -4 35 C-3.01 35 -2.02 35 -1 35 C-1 35.99 -1 36.98 -1 38 C-1.99 38 -2.98 38 -4 38 C-4 38.99 -4 39.98 -4 41 C-3.103 41.093 -3.103 41.093 -2.188 41.188 C0.871 42.324 1.55 44.173 3 47 C1.515 47.495 1.515 47.495 0 48 C0 48.99 0 49.98 0 51 C0.66 51 1.32 51 2 51 C2 51.99 2 52.98 2 54 C1.34 54 0.68 54 0 54 C0 54.99 0 55.98 0 57 C0.66 57 1.32 57 2 57 C2 57.99 2 58.98 2 60 C1.34 60 0.68 60 0 60 C0 60.99 0 61.98 0 63 C0.99 63 1.98 63 3 63 C3 62.01 3 61.02 3 60 C3.99 60 4.98 60 6 60 C6 60.99 6 61.98 6 63 C6.99 63 7.98 63 9 63 C9 62.34 9 61.68 9 61 C9.99 61 10.98 61 12 61 C12 61.99 12 62.98 12 64 C12.99 64 13.98 64 15 64 C15 62.68 15 61.36 15 60 C14.01 60 13.02 60 12 60 C12 59.01 12 58.02 12 57 C12.99 57 13.98 57 15 57 C15 56.01 15 55.02 15 54 C14.01 54 13.02 54 12 54 C12 53.01 12 52.02 12 51 C12.99 51 13.98 51 15 51 C15 50.01 15 49.02 15 48 C14.01 48 13.02 48 12 48 C12 46.68 12 45.36 12 44 C11.01 44 10.02 44 9 44 C9 43.01 9 42.02 9 41 C9.99 41 10.98 41 12 41 C12 40.01 12 39.02 12 38 C12.99 38 13.98 38 15 38 C15 37.01 15 36.02 15 35 C14.01 35 13.02 35 12 35 C12 33.68 12 32.36 12 31 C12.99 31 13.98 31 15 31 C15 30.01 15 29.02 15 28 C14.01 28 13.02 28 12 28 C12 27.01 12 26.02 12 25 C12.99 25 13.98 25 15 25 C15 24.01 15 23.02 15 22 C14.01 22 13.02 22 12 22 C12 21.01 12 20.02 12 19 C12.99 19 13.98 19 15 19 C15 18.01 15 17.02 15 16 C14.01 16 13.02 16 12 16 C12 15.01 12 14.02 12 13 C11.01 13 10.02 13 9 13 C9 13.66 9 14.32 9 15 C8.01 15 7.02 15 6 15 C6 14.01 6 13.02 6 12 C5.01 12 4.02 12 3 12 C3 11.01 3 10.02 3 9 C2.01 9 1.02 9 0 9 C0 8.01 0 7.02 0 6 C0.66 6 1.32 6 2 6 C2 5.01 2 4.02 2 3 C1.34 3 0.68 3 0 3 C0 2.01 0 1.02 0 0 Z M-1 25 C0.32 25 1.64 25 3 25 C3 25.99 3 26.98 3 28 C1.68 28 0.36 28 -1 28 C-1 27.01 -1 26.02 -1 25 Z " fill="#454545" transform="translate(7,26)"/>
<path d="M0 0 C0.99 0 1.98 0 3 0 C3 0.99 3 1.98 3 3 C3.99 3 4.98 3 6 3 C6 3.99 6 4.98 6 6 C6.99 6 7.98 6 9 6 C9 5.34 9 4.68 9 4 C9.99 4 10.98 4 12 4 C11.67 4.99 11.34 5.98 11 7 C10.34 7 9.68 7 9 7 C9 7.99 9 8.98 9 10 C9.99 10 10.98 10 12 10 C12 10.99 12 11.98 12 13 C11.01 13 10.02 13 9 13 C9 13.99 9 14.98 9 16 C9.99 16 10.98 16 12 16 C12 16.99 12 17.98 12 19 C11.01 19 10.02 19 9 19 C9 19.99 9 20.98 9 22 C8.01 22 7.02 22 6 22 C6 21.34 6 20.68 6 20 C5.01 20 4.02 20 3 20 C3 20.99 3 21.98 3 23 C1 22 -1 21 -3 20 C-3 20.66 -3 21.32 -3 22 C-2.01 22.66 -1.02 23.32 0 24 C0 24.66 0 25.32 0 26 C0.99 26 1.98 26 3 26 C3 26.99 3 27.98 3 29 C3.99 29 4.98 29 6 29 C6 29.99 6 30.98 6 32 C6.99 32 7.98 32 9 32 C9 32.99 9 33.98 9 35 C9.99 35 10.98 35 12 35 C12 34.01 12 33.02 12 32 C12.99 32 13.98 32 15 32 C15 31.01 15 30.02 15 29 C14.34 29 13.68 29 13 29 C13 28.01 13 27.02 13 26 C13.99 26 14.98 26 16 26 C16 26.99 16 27.98 16 29 C16.99 29 17.98 29 19 29 C19 29.99 19 30.98 19 32 C19.99 32 20.98 32 22 32 C22 32.99 22 33.98 22 35 C21.01 35 20.02 35 19 35 C19 35.99 19 36.98 19 38 C19.99 38 20.98 38 22 38 C22 37.34 22 36.68 22 36 C22.99 36 23.98 36 25 36 C25 36.99 25 37.98 25 39 C25.99 39 26.98 39 28 39 C28 39.99 28 40.98 28 42 C27.01 42 26.02 42 25 42 C25 42.99 25 43.98 25 45 C25.99 45 26.98 45 28 45 C28 45.99 28 46.98 28 48 C27.01 48 26.02 48 25 48 C25 48.99 25 49.98 25 51 C31.478 45.503 37.439 39.615 43.352 33.521 C44.024 32.838 44.697 32.154 45.391 31.449 C45.989 30.834 46.588 30.219 47.204 29.585 C51.189 26.069 54.598 25.615 59.754 25.75 C64.41 26.268 67.187 28.121 70.312 31.5 C72.526 34.78 73.185 37.428 73.312 41.312 C73.369 42.42 73.369 42.42 73.426 43.551 C72.227 50.445 65.7 55.561 60.953 60.242 C60.182 61.011 59.411 61.779 58.616 62.571 C56.165 65.01 53.708 67.443 51.25 69.875 C49.582 71.533 47.914 73.192 46.246 74.852 C42.169 78.906 38.087 82.955 34 87 C33.01 86.67 32.02 86.34 31 86 C32.369 82.925 33.92 80.842 36.316 78.488 C36.991 77.821 37.665 77.153 38.359 76.466 C39.086 75.755 39.813 75.045 40.562 74.312 C41.31 73.573 42.057 72.833 42.826 72.072 C46.021 68.91 49.227 65.76 52.433 62.608 C54.772 60.305 57.105 57.997 59.438 55.688 C60.165 54.977 60.892 54.266 61.641 53.534 C62.652 52.533 62.652 52.533 63.684 51.512 C64.574 50.637 64.574 50.637 65.482 49.745 C67.877 46.992 68.903 44.74 69.375 41.125 C68.892 37.099 67.597 35.088 65 32 C62.038 30.159 60.18 30.003 56.688 29.938 C53.09 30.974 51.983 31.628 49.322 34.033 C48.621 34.666 47.921 35.299 47.199 35.951 C40.892 41.827 34.767 47.886 28.643 53.952 C26.916 55.657 25.183 57.356 23.444 59.048 C20.918 61.507 18.412 63.986 15.91 66.469 C15.131 67.22 14.352 67.971 13.549 68.745 C9.068 73.131 9.068 73.131 6.881 78.846 C6.731 82.163 6.731 82.163 9 85 C11.842 87.282 11.842 87.282 15.191 87.071 C20.459 85.59 23.163 82.701 26.938 78.859 C27.662 78.14 28.387 77.421 29.134 76.68 C30.658 75.161 32.173 73.634 33.682 72.1 C35.999 69.751 38.347 67.435 40.699 65.121 C42.176 63.64 43.652 62.157 45.125 60.672 C45.83 59.979 46.535 59.286 47.261 58.572 C48.219 57.587 48.219 57.587 49.195 56.581 C49.763 56.009 50.33 55.437 50.915 54.847 C52.274 52.96 52.274 52.96 51.675 50.276 C51.452 49.525 51.23 48.774 51 48 C48.791 47.031 48.791 47.031 46 47 C43.828 48.657 42.17 50.175 40.332 52.152 C39.811 52.686 39.29 53.221 38.754 53.771 C37.092 55.48 35.452 57.207 33.812 58.938 C32.159 60.661 30.502 62.38 28.839 64.093 C27.806 65.161 26.778 66.235 25.758 67.315 C24.543 68.581 23.276 69.796 22 71 C21.34 71 20.68 71 20 71 C20.441 66.15 22.428 64.091 25.84 60.734 C26.322 60.256 26.804 59.777 27.301 59.283 C28.318 58.277 29.339 57.275 30.365 56.278 C31.938 54.75 33.496 53.209 35.053 51.664 C43.715 43.119 43.715 43.119 48.375 42.688 C52 43 52 43 54.438 44.562 C56.702 48.094 56.759 49.861 56 54 C50.823 61.604 43.119 68.033 36.619 74.511 C34.671 76.454 32.729 78.401 30.787 80.35 C29.55 81.586 28.312 82.823 27.074 84.059 C26.494 84.641 25.914 85.223 25.316 85.823 C21.72 89.398 19.814 91.151 14.75 91.375 C11.197 91.352 9.253 90.897 6.5 88.625 C3.133 85.089 2.877 83.623 2.938 78.875 C2.947 77.965 2.956 77.055 2.965 76.117 C2.976 75.419 2.988 74.72 3 74 C3.66 74 4.32 74 5 74 C5.214 73.459 5.428 72.917 5.648 72.359 C7.481 69.161 9.998 66.79 12.625 64.25 C13.141 63.743 13.656 63.237 14.188 62.715 C15.454 61.472 16.726 60.235 18 59 C17.01 58.237 16.02 57.474 15 56.688 C13.312 55.387 13.312 55.387 12 54 C12 53.01 12 52.02 12 51 C13.32 51 14.64 51 16 51 C16 50.01 16 49.02 16 48 C16.99 48 17.98 48 19 48 C19 47.01 19 46.02 19 45 C18.01 45 17.02 45 16 45 C16 44.01 16 43.02 16 42 C15.01 42 14.02 42 13 42 C13 42.99 13 43.98 13 45 C13.66 45 14.32 45 15 45 C15 45.99 15 46.98 15 48 C14.01 48 13.02 48 12 48 C12 47.01 12 46.02 12 45 C11.01 45 10.02 45 9 45 C9 44.01 9 43.02 9 42 C9.99 42 10.98 42 12 42 C12 41.01 12 40.02 12 39 C11.01 39 10.02 39 9 39 C9 38.01 9 37.02 9 36 C8.01 36 7.02 36 6 36 C6 36.66 6 37.32 6 38 C5.01 38 4.02 38 3 38 C3 37.34 3 36.68 3 36 C2.01 36 1.02 36 0 36 C0 36.99 0 37.98 0 39 C0.99 39 1.98 39 3 39 C3 39.99 3 40.98 3 42 C3.99 42 4.98 42 6 42 C6 42.99 6 43.98 6 45 C5.01 45 4.02 45 3 45 C3 45.99 3 46.98 3 48 C2.01 48 1.02 48 0 48 C0 48.99 0 49.98 0 51 C-0.99 51 -1.98 51 -3 51 C-3 50.01 -3 49.02 -3 48 C-2.34 48 -1.68 48 -1 48 C-1 47.01 -1 46.02 -1 45 C-1.66 45 -2.32 45 -3 45 C-3 44.01 -3 43.02 -3 42 C-2.34 42 -1.68 42 -1 42 C-1.33 41.01 -1.66 40.02 -2 39 C-2.66 38.67 -3.32 38.34 -4 38 C-4 37.01 -4 36.02 -4 35 C-2.68 35 -1.36 35 0 35 C0 34.01 0 33.02 0 32 C-0.99 32 -1.98 32 -3 32 C-3 31.01 -3 30.02 -3 29 C-2.34 29 -1.68 29 -1 29 C-1 28.01 -1 27.02 -1 26 C-1.99 26 -2.98 26 -4 26 C-4 26.99 -4 27.98 -4 29 C-4.99 29 -5.98 29 -7 29 C-7 29.99 -7 30.98 -7 32 C-7.99 32 -8.98 32 -10 32 C-10 31.01 -10 30.02 -10 29 C-10.99 29 -11.98 29 -13 29 C-13 28.01 -13 27.02 -13 26 C-13.99 26 -14.98 26 -16 26 C-17.688 24.5 -17.688 24.5 -19 23 C-19 23.99 -19 24.98 -19 26 C-18.34 26 -17.68 26 -17 26 C-17 26.99 -17 27.98 -17 29 C-17.66 29 -18.32 29 -19 29 C-19 29.99 -19 30.98 -19 32 C-18.01 32 -17.02 32 -16 32 C-16 32.99 -16 33.98 -16 35 C-15.01 35 -14.02 35 -13 35 C-13 35.99 -13 36.98 -13 38 C-12.01 38 -11.02 38 -10 38 C-10 37.34 -10 36.68 -10 36 C-9.01 36 -8.02 36 -7 36 C-7 36.99 -7 37.98 -7 39 C-6.01 39 -5.02 39 -4 39 C-4 39.99 -4 40.98 -4 42 C-4.99 42 -5.98 42 -7 42 C-7 42.99 -7 43.98 -7 45 C-6.01 45 -5.02 45 -4 45 C-4 45.99 -4 46.98 -4 48 C-4.99 48 -5.98 48 -7 48 C-7 48.99 -7 49.98 -7 51 C-6.01 51 -5.02 51 -4 51 C-4 51.99 -4 52.98 -4 54 C-4.99 54 -5.98 54 -7 54 C-7 55.32 -7 56.64 -7 58 C-6.01 58 -5.02 58 -4 58 C-4 58.99 -4 59.98 -4 61 C-4.99 61 -5.98 61 -7 61 C-7 61.99 -7 62.98 -7 64 C-7.99 64 -8.98 64 -10 64 C-10 64.99 -10 65.98 -10 67 C-9.01 67 -8.02 67 -7 67 C-7 68.32 -7 69.64 -7 71 C-6.01 71 -5.02 71 -4 71 C-4 71.99 -4 72.98 -4 74 C-4.99 74 -5.98 74 -7 74 C-7 74.99 -7 75.98 -7 77 C-6.01 77 -5.02 77 -4 77 C-4 77.99 -4 78.98 -4 80 C-4.99 80 -5.98 80 -7 80 C-7 80.99 -7 81.98 -7 83 C-6.01 83 -5.02 83 -4 83 C-4 84.32 -4 85.64 -4 87 C-4.99 87 -5.98 87 -7 87 C-7 86.01 -7 85.02 -7 84 C-7.99 84 -8.98 84 -10 84 C-10 84.66 -10 85.32 -10 86 C-10.99 86 -11.98 86 -13 86 C-13 85.01 -13 84.02 -13 83 C-13.99 83 -14.98 83 -16 83 C-16 83.99 -16 84.98 -16 86 C-16.99 86 -17.98 86 -19 86 C-19 85.01 -19 84.02 -19 83 C-18.34 83 -17.68 83 -17 83 C-17 82.01 -17 81.02 -17 80 C-17.66 80 -18.32 80 -19 80 C-19 79.01 -19 78.02 -19 77 C-18.34 77 -17.68 77 -17 77 C-17 76.01 -17 75.02 -17 74 C-17.66 74 -18.32 74 -19 74 C-19 71 -19 71 -17 69 C-19.274 65.629 -19.274 65.629 -23 64 C-23 63.01 -23 62.02 -23 61 C-22.01 61 -21.02 61 -20 61 C-20 60.01 -20 59.02 -20 58 C-20.99 58 -21.98 58 -23 58 C-23 57.01 -23 56.02 -23 55 C-22.01 54.505 -22.01 54.505 -21 54 C-20.67 53.01 -20.34 52.02 -20 51 C-20.99 51 -21.98 51 -23 51 C-23 50.01 -23 49.02 -23 48 C-23.99 48 -24.98 48 -26 48 C-26 38.76 -26 29.52 -26 20 C-25.01 20 -24.02 20 -23 20 C-23 20.66 -23 21.32 -23 22 C-22.01 22 -21.02 22 -20 22 C-20 21.01 -20 20.02 -20 19 C-17.506 20.204 -15.319 21.454 -13 23 C-13 22.01 -13 21.02 -13 20 C-12.01 20 -11.02 20 -10 20 C-10 20.66 -10 21.32 -10 22 C-9.01 22 -8.02 22 -7 22 C-7 21.01 -7 20.02 -7 19 C-6.01 19 -5.02 19 -4 19 C-4 18.01 -4 17.02 -4 16 C-3.01 16 -2.02 16 -1 16 C-1 15.01 -1 14.02 -1 13 C-1.66 13 -2.32 13 -3 13 C-3 12.01 -3 11.02 -3 10 C-2.01 10 -1.02 10 0 10 C-0.267 8.015 -0.267 8.015 -1 6 C-1.99 5.67 -2.98 5.34 -4 5 C-4 4.34 -4 3.68 -4 3 C-2.68 3 -1.36 3 0 3 C0 2.01 0 1.02 0 0 Z M0 4 C-0.33 4.66 -0.66 5.32 -1 6 C0.32 6 1.64 6 3 6 C3 5.34 3 4.68 3 4 C2.01 4 1.02 4 0 4 Z M-20 48 C-20 48.99 -20 49.98 -20 51 C-18.68 51 -17.36 51 -16 51 C-16 50.01 -16 49.02 -16 48 C-17.32 48 -18.64 48 -20 48 Z " fill="#464646" transform="translate(26,3)"/>
<path d="M0 0 C0.99 0.33 1.98 0.66 3 1 C3 1.66 3 2.32 3 3 C3.99 3 4.98 3 6 3 C6 3.99 6 4.98 6 6 C6.99 6 7.98 6 9 6 C9 6.99 9 7.98 9 9 C9.99 9 10.98 9 12 9 C12 8.01 12 7.02 12 6 C12.99 6 13.98 6 15 6 C15 5.01 15 4.02 15 3 C15.99 3 16.98 3 18 3 C18 3.99 18 4.98 18 6 C17.34 6 16.68 6 16 6 C16 6.99 16 7.98 16 9 C16.99 9 17.98 9 19 9 C19 9.99 19 10.98 19 12 C17.68 12 16.36 12 15 12 C15 12.99 15 13.98 15 15 C15.99 15.33 16.98 15.66 18 16 C18 16.99 18 17.98 18 19 C17.34 19 16.68 19 16 19 C16 19.99 16 20.98 16 22 C16.66 22 17.32 22 18 22 C18 22.99 18 23.98 18 25 C17.34 25 16.68 25 16 25 C16 25.99 16 26.98 16 28 C16.99 28 17.98 28 19 28 C19 27.01 19 26.02 19 25 C19.99 25 20.98 25 22 25 C22 24.01 22 23.02 22 22 C22.99 22 23.98 22 25 22 C25 21.01 25 20.02 25 19 C24.01 19 23.02 19 22 19 C22 18.01 22 17.02 22 16 C21.01 16 20.02 16 19 16 C19 15.01 19 14.02 19 13 C19.99 13 20.98 13 22 13 C22 13.66 22 14.32 22 15 C22.99 15 23.98 15 25 15 C25 14.34 25 13.68 25 13 C25.99 13 26.98 13 28 13 C28 13.99 28 14.98 28 16 C28.99 16 29.98 16 31 16 C31 16.99 31 17.98 31 19 C30.01 19 29.02 19 28 19 C28 19.99 28 20.98 28 22 C28.99 22 29.98 22 31 22 C31 22.99 31 23.98 31 25 C31.99 25 32.98 25 34 25 C34 24.01 34 23.02 34 22 C33.34 22 32.68 22 32 22 C32 21.01 32 20.02 32 19 C32.99 19 33.98 19 35 19 C35 19.99 35 20.98 35 22 C35.99 22 36.98 22 38 22 C38 22.99 38 23.98 38 25 C37.01 25 36.02 25 35 25 C35 25.99 35 26.98 35 28 C33.68 28 32.36 28 31 28 C31 28.99 31 29.98 31 31 C32.32 31.66 33.64 32.32 35 33 C35 33.66 35 34.32 35 35 C35.99 35.33 36.98 35.66 38 36 C37.073 36.915 36.146 37.83 35.191 38.773 C33.982 39.974 32.772 41.174 31.562 42.375 C30.951 42.978 30.339 43.582 29.709 44.203 C29.126 44.783 28.542 45.363 27.941 45.961 C27.132 46.762 27.132 46.762 26.307 47.58 C24.892 48.987 24.892 48.987 24 51 C23.34 51 22.68 51 22 51 C22 51.99 22 52.98 22 54 C21.01 54 20.02 54 19 54 C19 53.01 19 52.02 19 51 C18.01 51 17.02 51 16 51 C16 51.99 16 52.98 16 54 C16.66 54 17.32 54 18 54 C18 54.99 18 55.98 18 57 C17.34 57 16.68 57 16 57 C16 57.99 16 58.98 16 60 C16.66 60 17.32 60 18 60 C18 61.98 18 63.96 18 66 C17.01 66 16.02 66 15 66 C15 67.32 15 68.64 15 70 C14.01 70 13.02 70 12 70 C12 70.99 12 71.98 12 73 C12.99 73 13.98 73 15 73 C15 73.99 15 74.98 15 76 C15.99 76 16.98 76 18 76 C18 76.99 18 77.98 18 79 C17.01 79 16.02 79 15 79 C15 78.34 15 77.68 15 77 C14.01 77 13.02 77 12 77 C12 77.66 12 78.32 12 79 C11.01 79 10.02 79 9 79 C9 78.34 9 77.68 9 77 C8.01 77 7.02 77 6 77 C6 77.99 6 78.98 6 80 C5.01 80 4.02 80 3 80 C3 80.99 3 81.98 3 83 C3.99 83 4.98 83 6 83 C6 83.99 6 84.98 6 86 C6.99 86 7.98 86 9 86 C9 86.99 9 87.98 9 89 C8.01 89 7.02 89 6 89 C6 89.99 6 90.98 6 92 C5.01 92 4.02 92 3 92 C3 91.01 3 90.02 3 89 C2.01 89 1.02 89 0 89 C0 88.01 0 87.02 0 86 C0.66 86 1.32 86 2 86 C2 85.01 2 84.02 2 83 C1.34 83 0.68 83 0 83 C0 80 0 80 2 78 C2 77.34 2 76.68 2 76 C1.01 76 0.02 76 -1 76 C-1 77.32 -1 78.64 -1 80 C-1.99 80 -2.98 80 -4 80 C-4 80.99 -4 81.98 -4 83 C-3.01 83 -2.02 83 -1 83 C-1 83.99 -1 84.98 -1 86 C-1.99 86 -2.98 86 -4 86 C-4 86.99 -4 87.98 -4 89 C-3.01 89 -2.02 89 -1 89 C-1 89.99 -1 90.98 -1 92 C0.32 92.66 1.64 93.32 3 94 C2.505 94.99 2.505 94.99 2 96 C1.34 96 0.68 96 0 96 C0 96.99 0 97.98 0 99 C0.66 99 1.32 99 2 99 C2 99.99 2 100.98 2 102 C-0.97 102 -3.94 102 -7 102 C-7 76.59 -7 51.18 -7 25 C-6.01 25 -5.02 25 -4 25 C-4 25.99 -4 26.98 -4 28 C-3.01 28 -2.02 28 -1 28 C-1.33 29.32 -1.66 30.64 -2 32 C-2.66 32 -3.32 32 -4 32 C-4 32.99 -4 33.98 -4 35 C-3.01 35 -2.02 35 -1 35 C-1 35.99 -1 36.98 -1 38 C-1.99 38 -2.98 38 -4 38 C-4 38.99 -4 39.98 -4 41 C-3.103 41.093 -3.103 41.093 -2.188 41.188 C0.871 42.324 1.55 44.173 3 47 C1.515 47.495 1.515 47.495 0 48 C0 48.99 0 49.98 0 51 C0.66 51 1.32 51 2 51 C2 51.99 2 52.98 2 54 C1.34 54 0.68 54 0 54 C0 54.99 0 55.98 0 57 C0.66 57 1.32 57 2 57 C2 57.99 2 58.98 2 60 C1.34 60 0.68 60 0 60 C0 60.99 0 61.98 0 63 C0.99 63 1.98 63 3 63 C3 62.01 3 61.02 3 60 C3.99 60 4.98 60 6 60 C6 60.99 6 61.98 6 63 C6.99 63 7.98 63 9 63 C9 62.34 9 61.68 9 61 C9.99 61 10.98 61 12 61 C12 61.99 12 62.98 12 64 C12.99 64 13.98 64 15 64 C15 62.68 15 61.36 15 60 C14.01 60 13.02 60 12 60 C12 59.01 12 58.02 12 57 C12.99 57 13.98 57 15 57 C15 56.01 15 55.02 15 54 C14.01 54 13.02 54 12 54 C12 53.01 12 52.02 12 51 C12.99 51 13.98 51 15 51 C15 50.01 15 49.02 15 48 C14.01 48 13.02 48 12 48 C12 46.68 12 45.36 12 44 C11.01 44 10.02 44 9 44 C9 43.01 9 42.02 9 41 C9.99 41 10.98 41 12 41 C12 40.01 12 39.02 12 38 C12.99 38 13.98 38 15 38 C15 37.01 15 36.02 15 35 C14.01 35 13.02 35 12 35 C12 33.68 12 32.36 12 31 C12.99 31 13.98 31 15 31 C15 30.01 15 29.02 15 28 C14.01 28 13.02 28 12 28 C12 27.01 12 26.02 12 25 C12.99 25 13.98 25 15 25 C15 24.01 15 23.02 15 22 C14.01 22 13.02 22 12 22 C12 21.01 12 20.02 12 19 C12.99 19 13.98 19 15 19 C15 18.01 15 17.02 15 16 C14.01 16 13.02 16 12 16 C12 15.01 12 14.02 12 13 C11.01 13 10.02 13 9 13 C9 13.66 9 14.32 9 15 C8.01 15 7.02 15 6 15 C6 14.01 6 13.02 6 12 C5.01 12 4.02 12 3 12 C3 11.01 3 10.02 3 9 C2.01 9 1.02 9 0 9 C0 8.01 0 7.02 0 6 C0.66 6 1.32 6 2 6 C2 5.01 2 4.02 2 3 C1.34 3 0.68 3 0 3 C0 2.01 0 1.02 0 0 Z M0 70 C0 70.99 0 71.98 0 73 C0.66 73 1.32 73 2 73 C2 73.99 2 74.98 2 76 C3.32 76 4.64 76 6 76 C6 75.01 6 74.02 6 73 C5.01 73 4.02 73 3 73 C3 72.01 3 71.02 3 70 C2.01 70 1.02 70 0 70 Z M-1 25 C0.32 25 1.64 25 3 25 C3 25.99 3 26.98 3 28 C1.68 28 0.36 28 -1 28 C-1 27.01 -1 26.02 -1 25 Z " fill="#363535" transform="translate(7,26)"/>
<path d="M0 0 C18.15 0 36.3 0 55 0 C55 2.97 55 5.94 55 9 C54.01 9 53.02 9 52 9 C52 8.34 52 7.68 52 7 C51.01 7 50.02 7 49 7 C48.67 7.99 48.34 8.98 48 10 C47.34 10 46.68 10 46 10 C46 10.99 46 11.98 46 13 C46.66 13 47.32 13 48 13 C48 13.99 48 14.98 48 16 C47.34 16 46.68 16 46 16 C46 16.99 46 17.98 46 19 C46.66 19 47.32 19 48 19 C48 19.99 48 20.98 48 22 C47.01 22 46.02 22 45 22 C44.67 23.32 44.34 24.64 44 26 C43.34 26 42.68 26 42 26 C42 25.01 42 24.02 42 23 C41.01 23 40.02 23 39 23 C39 23.66 39 24.32 39 25 C38.01 25 37.02 25 36 25 C36 24.34 36 23.68 36 23 C35.01 23 34.02 23 33 23 C33 23.99 33 24.98 33 26 C33.99 26 34.98 26 36 26 C36 26.99 36 27.98 36 29 C36.99 29 37.98 29 39 29 C39 29.99 39 30.98 39 32 C39.99 32 40.98 32 42 32 C42 32.99 42 33.98 42 35 C41.01 35 40.02 35 39 35 C39 35.99 39 36.98 39 38 C38.01 38 37.02 38 36 38 C36 37.01 36 36.02 36 35 C35.01 35 34.02 35 33 35 C32.409 36.946 32.409 36.946 32 39 C32.33 39.33 32.66 39.66 33 40 C33.041 41.666 33.043 43.334 33 45 C33.99 45 34.98 45 36 45 C36 45.99 36 46.98 36 48 C36.99 48 37.98 48 39 48 C39 48.99 39 49.98 39 51 C38.01 51 37.02 51 36 51 C36 51.99 36 52.98 36 54 C34.68 54 33.36 54 32 54 C32 53.01 32 52.02 32 51 C31.34 51 30.68 51 30 51 C30 50.01 30 49.02 30 48 C30.66 48 31.32 48 32 48 C32 47.01 32 46.02 32 45 C31.01 44.67 30.02 44.34 29 44 C29 43.34 29 42.68 29 42 C28.34 42 27.68 42 27 42 C27 42.99 27 43.98 27 45 C27.66 45 28.32 45 29 45 C29 45.99 29 46.98 29 48 C28.01 48 27.02 48 26 48 C25.853 46.896 25.853 46.896 25.703 45.77 C24.614 38.058 24.614 38.058 20 32 C15.901 29.723 11.598 29.468 7 29 C7 28.01 7 27.02 7 26 C7.99 26 8.98 26 10 26 C10 26.66 10 27.32 10 28 C10.99 28 11.98 28 13 28 C13 27.34 13 26.68 13 26 C12.01 25.67 11.02 25.34 10 25 C10 24.01 10 23.02 10 22 C9.01 22 8.02 22 7 22 C7 21.01 7 20.02 7 19 C7.99 19 8.98 19 10 19 C10 18.01 10 17.02 10 16 C10.99 16 11.98 16 13 16 C13 15.01 13 14.02 13 13 C13.99 13 14.98 13 16 13 C16 13.99 16 14.98 16 16 C15.34 16 14.68 16 14 16 C14 16.99 14 17.98 14 19 C14.99 19 15.98 19 17 19 C17 19.99 17 20.98 17 22 C17.99 22 18.98 22 20 22 C20 21.01 20 20.02 20 19 C20.99 19 21.98 19 23 19 C23 18.01 23 17.02 23 16 C22.01 16 21.02 16 20 16 C20 15.01 20 14.02 20 13 C19.01 13 18.02 13 17 13 C17 12.01 17 11.02 17 10 C17.99 10 18.98 10 20 10 C20 9.01 20 8.02 20 7 C20.99 7 21.98 7 23 7 C23 7.66 23 8.32 23 9 C23.99 9 24.98 9 26 9 C26 8.01 26 7.02 26 6 C25.01 6 24.02 6 23 6 C23 5.01 23 4.02 23 3 C22.01 3 21.02 3 20 3 C20 3.99 20 4.98 20 6 C18.68 6 17.36 6 16 6 C16 5.34 16 4.68 16 4 C15.01 4.66 14.02 5.32 13 6 C12.01 6 11.02 6 10 6 C10 5.01 10 4.02 10 3 C9.01 3 8.02 3 7 3 C7 3.99 7 4.98 7 6 C6.01 6 5.02 6 4 6 C4 5.01 4 4.02 4 3 C3.01 3 2.02 3 1 3 C0.67 3.99 0.34 4.98 0 6 C-0.66 6 -1.32 6 -2 6 C-2 5.01 -2 4.02 -2 3 C-1.34 3 -0.68 3 0 3 C0 2.01 0 1.02 0 0 Z M13 6 C13.99 6 14.98 6 16 6 C16.33 6.99 16.66 7.98 17 9 C15.68 9.33 14.36 9.66 13 10 C13 8.68 13 7.36 13 6 Z " fill="#484848" transform="translate(73,0)"/>
<path d="M0 0 C3.932 2.652 6.186 5.309 7.688 9.812 C7.926 11.863 7.926 11.863 8 14.125 C8.056 15.233 8.056 15.233 8.113 16.363 C6.915 23.258 0.388 28.373 -4.359 33.055 C-5.131 33.823 -5.902 34.591 -6.696 35.383 C-9.147 37.823 -11.605 40.255 -14.062 42.688 C-15.731 44.346 -17.399 46.005 -19.066 47.664 C-23.143 51.719 -27.226 55.768 -31.312 59.812 C-32.797 59.317 -32.797 59.317 -34.312 58.812 C-32.943 55.737 -31.392 53.654 -28.996 51.301 C-28.322 50.633 -27.648 49.966 -26.953 49.278 C-26.226 48.568 -25.499 47.857 -24.75 47.125 C-24.003 46.385 -23.256 45.646 -22.486 44.884 C-19.291 41.722 -16.085 38.572 -12.88 35.421 C-10.541 33.118 -8.208 30.809 -5.875 28.5 C-5.148 27.789 -4.421 27.079 -3.672 26.347 C-2.998 25.679 -2.323 25.012 -1.629 24.324 C-1.035 23.741 -0.442 23.158 0.17 22.557 C2.564 19.804 3.591 17.553 4.062 13.938 C3.579 9.911 2.285 7.901 -0.312 4.812 C-3.275 2.971 -5.132 2.816 -8.625 2.75 C-12.222 3.786 -13.33 4.441 -15.99 6.846 C-16.691 7.479 -17.392 8.112 -18.113 8.764 C-24.42 14.639 -30.546 20.699 -36.669 26.764 C-38.396 28.469 -40.129 30.168 -41.868 31.861 C-44.394 34.32 -46.9 36.798 -49.402 39.281 C-50.181 40.032 -50.96 40.784 -51.763 41.558 C-56.245 45.943 -56.245 45.943 -58.432 51.658 C-58.582 54.975 -58.582 54.975 -56.312 57.812 C-53.471 60.094 -53.471 60.094 -50.121 59.884 C-44.854 58.402 -42.15 55.513 -38.375 51.672 C-37.65 50.953 -36.925 50.233 -36.178 49.492 C-34.655 47.973 -33.139 46.446 -31.63 44.913 C-29.313 42.563 -26.966 40.248 -24.613 37.934 C-23.136 36.452 -21.661 34.969 -20.188 33.484 C-19.482 32.791 -18.777 32.099 -18.051 31.385 C-17.413 30.728 -16.775 30.071 -16.117 29.394 C-15.55 28.821 -14.982 28.249 -14.398 27.66 C-13.039 25.773 -13.039 25.773 -13.637 23.089 C-13.971 21.962 -13.971 21.962 -14.312 20.812 C-16.521 19.844 -16.521 19.844 -19.312 19.812 C-21.484 21.469 -23.142 22.988 -24.98 24.965 C-25.762 25.766 -25.762 25.766 -26.559 26.583 C-28.221 28.292 -29.861 30.02 -31.5 31.75 C-33.153 33.473 -34.81 35.192 -36.473 36.906 C-37.507 37.974 -38.534 39.047 -39.555 40.128 C-40.77 41.393 -42.037 42.608 -43.312 43.812 C-43.972 43.812 -44.633 43.812 -45.312 43.812 C-44.871 38.963 -42.885 36.904 -39.473 33.547 C-38.991 33.068 -38.508 32.589 -38.012 32.096 C-36.995 31.089 -35.973 30.088 -34.948 29.091 C-33.375 27.562 -31.816 26.021 -30.26 24.477 C-21.597 15.931 -21.597 15.931 -16.938 15.5 C-13.312 15.812 -13.312 15.812 -10.875 17.375 C-8.611 20.907 -8.554 22.674 -9.312 26.812 C-14.489 34.416 -22.193 40.845 -28.694 47.324 C-30.641 49.266 -32.584 51.214 -34.525 53.162 C-35.763 54.399 -37 55.635 -38.238 56.871 C-38.818 57.453 -39.399 58.036 -39.996 58.635 C-43.593 62.211 -45.498 63.964 -50.562 64.188 C-54.116 64.165 -56.06 63.709 -58.812 61.438 C-62.18 57.902 -62.436 56.435 -62.375 51.688 C-62.366 50.777 -62.357 49.867 -62.348 48.93 C-62.336 48.231 -62.324 47.532 -62.312 46.812 C-61.653 46.812 -60.992 46.812 -60.312 46.812 C-59.942 45.955 -59.942 45.955 -59.564 45.08 C-58.11 42.446 -56.419 40.664 -54.293 38.535 C-53.466 37.701 -52.638 36.866 -51.785 36.007 C-50.889 35.115 -49.993 34.223 -49.07 33.305 C-48.15 32.383 -47.23 31.461 -46.283 30.511 C-44.337 28.563 -42.388 26.618 -40.437 24.676 C-37.94 22.19 -35.451 19.696 -32.966 17.198 C-30.589 14.812 -28.204 12.434 -25.82 10.055 C-24.929 9.159 -24.037 8.263 -23.118 7.34 C-22.284 6.512 -21.45 5.684 -20.59 4.832 C-19.494 3.737 -19.494 3.737 -18.375 2.621 C-12.866 -2.209 -6.746 -2.419 0 0 Z " fill="#F0F0F0" transform="translate(91.3125,30.1875)"/>
<path d="M0 0 C0 2 0 2 -1.5 3.625 C-1.995 4.079 -2.49 4.532 -3 5 C-2.01 5 -1.02 5 0 5 C0.33 8.3 0.66 11.6 1 15 C1.66 15 2.32 15 3 15 C3 16.98 3 18.96 3 21 C2.01 21 1.02 21 0 21 C0 21.99 0 22.98 0 24 C1.32 24.33 2.64 24.66 4 25 C4 24.01 4 23.02 4 22 C4.99 22 5.98 22 7 22 C7 22.66 7 23.32 7 24 C7.99 24 8.98 24 10 24 C10 23.34 10 22.68 10 22 C10.99 22 11.98 22 13 22 C13 22.66 13 23.32 13 24 C13.99 24 14.98 24 16 24 C16 25.32 16 26.64 16 28 C15.01 28 14.02 28 13 28 C13 28.99 13 29.98 13 31 C13.99 31 14.98 31 16 31 C16 31.99 16 32.98 16 34 C16.99 34 17.98 34 19 34 C19 33.01 19 32.02 19 31 C18.34 31 17.68 31 17 31 C17 29.02 17 27.04 17 25 C18.98 24.67 20.96 24.34 23 24 C23 23.01 23 22.02 23 21 C22.01 21 21.02 21 20 21 C20 19.02 20 17.04 20 15 C20.66 15 21.32 15 22 15 C22.33 14.01 22.66 13.02 23 12 C23.99 12 24.98 12 26 12 C26 13.98 26 15.96 26 18 C26.99 18 27.98 18 29 18 C29 18.99 29 19.98 29 21 C29.99 21 30.98 21 32 21 C31.67 22.32 31.34 23.64 31 25 C30.34 25 29.68 25 29 25 C29 25.99 29 26.98 29 28 C29.99 28 30.98 28 32 28 C32 28.99 32 29.98 32 31 C31.01 31 30.02 31 29 31 C29 31.99 29 32.98 29 34 C28.01 34 27.02 34 26 34 C26 34.99 26 35.98 26 37 C25.01 37 24.02 37 23 37 C23 36.01 23 35.02 23 34 C22.01 34 21.02 34 20 34 C19.67 35.32 19.34 36.64 19 38 C18.01 37.67 17.02 37.34 16 37 C16 37.99 16 38.98 16 40 C15.01 40 14.02 40 13 40 C13 39.01 13 38.02 13 37 C12.01 37 11.02 37 10 37 C10 36.01 10 35.02 10 34 C9.01 34 8.02 34 7 34 C7 33.01 7 32.02 7 31 C6.01 31 5.02 31 4 31 C4 30.01 4 29.02 4 28 C3.01 28 2.02 28 1 28 C1 28.99 1 29.98 1 31 C1.66 31 2.32 31 3 31 C3 31.99 3 32.98 3 34 C2.01 34 1.02 34 0 34 C0 33.01 0 32.02 0 31 C-0.99 31 -1.98 31 -3 31 C-3 30.01 -3 29.02 -3 28 C-2.01 28 -1.02 28 0 28 C0 27.01 0 26.02 0 25 C-0.99 25 -1.98 25 -3 25 C-3 24.01 -3 23.02 -3 22 C-3.99 22 -4.98 22 -6 22 C-6 22.66 -6 23.32 -6 24 C-6.99 24 -7.98 24 -9 24 C-8.67 23.01 -8.34 22.02 -8 21 C-7.34 21 -6.68 21 -6 21 C-6 19.02 -6 17.04 -6 15 C-6.99 15 -7.98 15 -9 15 C-9 14.01 -9 13.02 -9 12 C-9.99 12 -10.98 12 -12 12 C-12 13.98 -12 15.96 -12 18 C-12.99 18 -13.98 18 -15 18 C-15.398 15.926 -15.398 15.926 -15 13 C-13.146 10.451 -10.91 8.349 -8.625 6.188 C-7.72 5.291 -7.72 5.291 -6.797 4.377 C-2.295 0 -2.295 0 0 0 Z M33 15 C33.66 15 34.32 15 35 15 C35 16.98 35 18.96 35 21 C34.01 21 33.02 21 32 21 C32.33 19.02 32.66 17.04 33 15 Z " fill="#373737" transform="translate(86,65)"/>
<path d="M0 0 C9.57 0 19.14 0 29 0 C29 0.99 29 1.98 29 3 C28.01 3 27.02 3 26 3 C26 3.99 26 4.98 26 6 C25.01 6 24.02 6 23 6 C23 6.99 23 7.98 23 9 C23.99 9 24.98 9 26 9 C26 8.34 26 7.68 26 7 C26.99 7 27.98 7 29 7 C28.67 7.99 28.34 8.98 28 10 C27.34 10 26.68 10 26 10 C26 10.99 26 11.98 26 13 C26.99 13 27.98 13 29 13 C29 13.99 29 14.98 29 16 C28.01 16 27.02 16 26 16 C26 16.99 26 17.98 26 19 C25.01 19 24.02 19 23 19 C23 19.99 23 20.98 23 22 C22.01 22 21.02 22 20 22 C20 21.01 20 20.02 20 19 C19.01 19 18.02 19 17 19 C17 19.99 17 20.98 17 22 C16.01 22 15.02 22 14 22 C14 21.01 14 20.02 14 19 C14.66 19 15.32 19 16 19 C16 18.01 16 17.02 16 16 C15.01 16 14.02 16 13 16 C13 16.99 13 17.98 13 19 C12.01 19 11.02 19 10 19 C10 19.99 10 20.98 10 22 C10.99 22 11.98 22 13 22 C12.67 23.32 12.34 24.64 12 26 C11.34 26 10.68 26 10 26 C10 25.01 10 24.02 10 23 C9.01 23 8.02 23 7 23 C7 23.66 7 24.32 7 25 C6.01 25 5.02 25 4 25 C4 24.34 4 23.68 4 23 C3.01 23 2.02 23 1 23 C1 23.99 1 24.98 1 26 C-0.32 25.67 -1.64 25.34 -3 25 C-3 24.01 -3 23.02 -3 22 C-1.68 22 -0.36 22 1 22 C1 21.01 1 20.02 1 19 C0.01 19 -0.98 19 -2 19 C-2 18.01 -2 17.02 -2 16 C-1.34 16 -0.68 16 0 16 C0 15.01 0 14.02 0 13 C-0.66 13 -1.32 13 -2 13 C-2 10 -2 10 -0.688 8.312 C1 7 1 7 4 7 C4 7.66 4 8.32 4 9 C4.99 9 5.98 9 7 9 C7 8.01 7 7.02 7 6 C6.01 6 5.02 6 4 6 C4 5.01 4 4.02 4 3 C3.01 3 2.02 3 1 3 C1 3.99 1 4.98 1 6 C0.01 6 -0.98 6 -2 6 C-2 5.01 -2 4.02 -2 3 C-1.34 3 -0.68 3 0 3 C0 2.01 0 1.02 0 0 Z " fill="#404040" transform="translate(41,0)"/>
<path d="M0 0 C0.66 0.33 1.32 0.66 2 1 C2 3.97 2 6.94 2 10 C2.99 10 3.98 10 5 10 C5 10.99 5 11.98 5 13 C5.99 13 6.98 13 8 13 C8 13.99 8 14.98 8 16 C8.99 16 9.98 16 11 16 C11 15.01 11 14.02 11 13 C11.99 13 12.98 13 14 13 C14 12.01 14 11.02 14 10 C14.99 10 15.98 10 17 10 C17 10.99 17 11.98 17 13 C16.34 13 15.68 13 15 13 C15 13.99 15 14.98 15 16 C15.99 16 16.98 16 18 16 C18 16.99 18 17.98 18 19 C16.68 19 15.36 19 14 19 C14.66 19.598 15.32 20.196 16 20.812 C18 23 18 23 18 26 C17.01 26 16.02 26 15 26 C15 26.99 15 27.98 15 29 C15.66 29 16.32 29 17 29 C17 29.99 17 30.98 17 32 C16.01 32 15.02 32 14 32 C14 31.01 14 30.02 14 29 C13.01 29 12.02 29 11 29 C11 28.01 11 27.02 11 26 C11.99 26 12.98 26 14 26 C14 25.01 14 24.02 14 23 C13.01 23 12.02 23 11 23 C11 22.01 11 21.02 11 20 C10.01 20 9.02 20 8 20 C8 20.66 8 21.32 8 22 C7.01 22 6.02 22 5 22 C5 21.01 5 20.02 5 19 C4.381 19.66 3.763 20.32 3.125 21 C1 23 1 23 -1 23 C-1 23.99 -1 24.98 -1 26 C-0.34 26 0.32 26 1 26 C1 26.99 1 27.98 1 29 C0.34 29 -0.32 29 -1 29 C-1 29.99 -1 30.98 -1 32 C-0.34 32 0.32 32 1 32 C1 32.99 1 33.98 1 35 C0.01 35 -0.98 35 -2 35 C-2 35.99 -2 36.98 -2 38 C-2.99 38 -3.98 38 -5 38 C-5 37.34 -5 36.68 -5 36 C-5.99 36 -6.98 36 -8 36 C-8 36.66 -8 37.32 -8 38 C-8.99 38 -9.98 38 -11 38 C-11 37.34 -11 36.68 -11 36 C-11.99 36 -12.98 36 -14 36 C-13.505 36.433 -13.01 36.866 -12.5 37.312 C-11 39 -11 39 -11 42 C-11.99 42 -12.98 42 -14 42 C-14 41.01 -14 40.02 -14 39 C-14.99 39 -15.98 39 -17 39 C-17 39.99 -17 40.98 -17 42 C-16.34 42 -15.68 42 -15 42 C-15 42.99 -15 43.98 -15 45 C-15.99 45 -16.98 45 -18 45 C-18 44.01 -18 43.02 -18 42 C-18.99 42 -19.98 42 -21 42 C-21 41.01 -21 40.02 -21 39 C-20.01 38.505 -20.01 38.505 -19 38 C-18.67 37.01 -18.34 36.02 -18 35 C-16.68 35 -15.36 35 -14 35 C-14 34.01 -14 33.02 -14 32 C-13.01 32 -12.02 32 -11 32 C-11 32.99 -11 33.98 -11 35 C-10.01 35 -9.02 35 -8 35 C-8 34.01 -8 33.02 -8 32 C-7.01 32 -6.02 32 -5 32 C-5 31.01 -5 30.02 -5 29 C-5.99 29 -6.98 29 -8 29 C-8 28.01 -8 27.02 -8 26 C-8.99 26 -9.98 26 -11 26 C-11 25.01 -11 24.02 -11 23 C-11.99 23 -12.98 23 -14 23 C-14 22.01 -14 21.02 -14 20 C-13.01 20 -12.02 20 -11 20 C-11 20.66 -11 21.32 -11 22 C-10.01 22 -9.02 22 -8 22 C-8 21.34 -8 20.68 -8 20 C-7.01 20 -6.02 20 -5 20 C-5 20.99 -5 21.98 -5 23 C-4.34 22.67 -3.68 22.34 -3 22 C-2.67 21.01 -2.34 20.02 -2 19 C-2.99 19 -3.98 19 -5 19 C-5 18.01 -5 17.02 -5 16 C-5.99 16 -6.98 16 -8 16 C-8 15.01 -8 14.02 -8 13 C-8.99 13 -9.98 13 -11 13 C-11 10 -11 10 -9.355 8.281 C-8.64 7.693 -7.925 7.106 -7.188 6.5 C-4.68 4.417 -2.266 2.345 0 0 Z " fill="#383737" transform="translate(56,83)"/>
<path d="M0 0 C2.25 0.25 2.25 0.25 4 1 C4 1.99 4 2.98 4 4 C4.99 4 5.98 4 7 4 C7 4.99 7 5.98 7 7 C6.01 7 5.02 7 4 7 C4 7.99 4 8.98 4 10 C3.01 10 2.02 10 1 10 C1 9.01 1 8.02 1 7 C0.01 7 -0.98 7 -2 7 C-2 7.99 -2 8.98 -2 10 C-1.01 10.33 -0.02 10.66 1 11 C1 13.97 1 16.94 1 20 C1.99 20 2.98 20 4 20 C4 21.98 4 23.96 4 26 C4.99 26 5.98 26 7 26 C7 24.02 7 22.04 7 20 C7.99 20 8.98 20 10 20 C10 21.98 10 23.96 10 26 C10.99 26 11.98 26 13 26 C13 24.02 13 22.04 13 20 C13.99 20 14.98 20 16 20 C16 19.01 16 18.02 16 17 C15.34 17 14.68 17 14 17 C14 14 14 14 15.875 11.812 C18 10 18 10 20 10 C20 10.99 20 11.98 20 13 C20.99 13 21.98 13 23 13 C23 12.34 23 11.68 23 11 C23.99 11 24.98 11 26 11 C26 11.99 26 12.98 26 14 C26.66 13.67 27.32 13.34 28 13 C28.33 12.01 28.66 11.02 29 10 C30.32 10.66 31.64 11.32 33 12 C32.67 12.66 32.34 13.32 32 14 C31.34 14 30.68 14 30 14 C30 14.99 30 15.98 30 17 C30.99 17 31.98 17 33 17 C33 17.99 33 18.98 33 20 C33.99 20 34.98 20 36 20 C36 21.98 36 23.96 36 26 C36.99 26 37.98 26 39 26 C39 26.99 39 27.98 39 29 C38.01 29 37.02 29 36 29 C36 28.34 36 27.68 36 27 C34.02 27.66 32.04 28.32 30 29 C30.66 26.03 31.32 23.06 32 20 C31.34 20 30.68 20 30 20 C29.67 21.98 29.34 23.96 29 26 C28.01 26 27.02 26 26 26 C26 25.01 26 24.02 26 23 C25.01 23 24.02 23 23 23 C23 21.02 23 19.04 23 17 C19.882 17.646 19.882 17.646 19 20 C18.34 20 17.68 20 17 20 C17 21.98 17 23.96 17 26 C17.99 26 18.98 26 20 26 C20 26.99 20 27.98 20 29 C18.02 29.33 16.04 29.66 14 30 C14 31.98 14 33.96 14 36 C14.66 36 15.32 36 16 36 C16 36.99 16 37.98 16 39 C15.01 39 14.02 39 13 39 C13 38.01 13 37.02 13 36 C12.01 36 11.02 36 10 36 C10 35.01 10 34.02 10 33 C10.99 33 11.98 33 13 33 C13 31.68 13 30.36 13 29 C12.01 29 11.02 29 10 29 C10 28.34 10 27.68 10 27 C9.01 27 8.02 27 7 27 C7 27.66 7 28.32 7 29 C6.01 29 5.02 29 4 29 C4 28.34 4 27.68 4 27 C3.01 27 2.02 27 1 27 C1 27.99 1 28.98 1 30 C-0.32 29.67 -1.64 29.34 -3 29 C-3 28.01 -3 27.02 -3 26 C-2.01 26 -1.02 26 0 26 C0 24.02 0 22.04 0 20 C-0.66 20 -1.32 20 -2 20 C-4.125 13.375 -4.125 13.375 -3 10 C-3.99 10 -4.98 10 -6 10 C-5.67 9.01 -5.34 8.02 -5 7 C-4.34 7 -3.68 7 -3 7 C-3.33 6.01 -3.66 5.02 -4 4 C-2.25 1.938 -2.25 1.938 0 0 Z " fill="#4E4E4E" transform="translate(89,60)"/>
<path d="M0 0 C2.282 0.922 2.282 0.922 4.282 2.922 C3.988 6.798 2.908 8.799 0.203 11.519 C-0.445 12.18 -1.093 12.84 -1.76 13.52 C-2.816 14.564 -2.816 14.564 -3.894 15.629 C-4.615 16.355 -5.337 17.08 -6.08 17.828 C-7.606 19.356 -9.137 20.88 -10.673 22.399 C-13.025 24.73 -15.356 27.081 -17.685 29.436 C-19.17 30.918 -20.656 32.4 -22.144 33.879 C-22.842 34.586 -23.54 35.292 -24.259 36.019 C-24.916 36.664 -25.573 37.308 -26.25 37.972 C-26.825 38.544 -27.399 39.115 -27.991 39.703 C-29.718 40.922 -29.718 40.922 -33.718 40.922 C-33.718 39.602 -33.718 38.282 -33.718 36.922 C-32.398 36.922 -31.078 36.922 -29.718 36.922 C-29.718 35.932 -29.718 34.942 -29.718 33.922 C-28.728 33.922 -27.738 33.922 -26.718 33.922 C-26.718 32.932 -26.718 31.942 -26.718 30.922 C-25.728 30.922 -24.738 30.922 -23.718 30.922 C-23.718 29.932 -23.718 28.942 -23.718 27.922 C-24.708 27.922 -25.698 27.922 -26.718 27.922 C-26.293 23.122 -24.047 20.637 -20.765 17.368 C-20.267 16.862 -19.77 16.356 -19.258 15.835 C-18.207 14.773 -17.151 13.716 -16.09 12.664 C-14.469 11.049 -12.877 9.409 -11.284 7.766 C-10.258 6.736 -9.231 5.707 -8.202 4.68 C-7.728 4.188 -7.254 3.695 -6.765 3.188 C-4.439 0.925 -3.315 -0.095 0 0 Z " fill="#434243" transform="translate(74.7177734375,49.07763671875)"/>
<path d="M0 0 C0.99 0 1.98 0 3 0 C3 0.99 3 1.98 3 3 C3.99 3 4.98 3 6 3 C6 3.99 6 4.98 6 6 C4.68 6 3.36 6 2 6 C2 5.01 2 4.02 2 3 C1.34 3 0.68 3 0 3 C0 2.01 0 1.02 0 0 Z M15 3 C16.32 3 17.64 3 19 3 C19 3.99 19 4.98 19 6 C19.99 6 20.98 6 22 6 C22 5.01 22 4.02 22 3 C22.99 3 23.98 3 25 3 C25 3.99 25 4.98 25 6 C25.99 6 26.98 6 28 6 C28 6.99 28 7.98 28 9 C27.01 9 26.02 9 25 9 C25 8.34 25 7.68 25 7 C24.01 7 23.02 7 22 7 C22 7.99 22 8.98 22 10 C21.01 10 20.02 10 19 10 C19 10.99 19 11.98 19 13 C19.99 13 20.98 13 22 13 C22 13.99 22 14.98 22 16 C22.99 16 23.98 16 25 16 C25 16.99 25 17.98 25 19 C24.01 19 23.02 19 22 19 C22 19.99 22 20.98 22 22 C21.01 22 20.02 22 19 22 C19 21.01 19 20.02 19 19 C18.01 19 17.02 19 16 19 C16 18.01 16 17.02 16 16 C16.66 16 17.32 16 18 16 C18 15.01 18 14.02 18 13 C17.01 13 16.02 13 15 13 C15 13.99 15 14.98 15 16 C14.01 16 13.02 16 12 16 C12 16.99 12 17.98 12 19 C12.99 19 13.98 19 15 19 C15 19.99 15 20.98 15 22 C13.02 22.33 11.04 22.66 9 23 C9 23.66 9 24.32 9 25 C7.02 25.33 5.04 25.66 3 26 C3 26.99 3 27.98 3 29 C3.99 29 4.98 29 6 29 C6 29.99 6 30.98 6 32 C4.68 32 3.36 32 2 32 C2 31.01 2 30.02 2 29 C1.34 29 0.68 29 0 29 C0 26 0 26 2 24 C1.01 23.34 0.02 22.68 -1 22 C-1 21.01 -1 20.02 -1 19 C-1.99 19 -2.98 19 -4 19 C-4 18.01 -4 17.02 -4 16 C-3.01 16 -2.02 16 -1 16 C-1 15.01 -1 14.02 -1 13 C-1.99 13 -2.98 13 -4 13 C-4 12.01 -4 11.02 -4 10 C-3.01 10 -2.02 10 -1 10 C-1 8.68 -1 7.36 -1 6 C-0.01 6 0.98 6 2 6 C2.33 6.99 2.66 7.98 3 9 C2.01 9.33 1.02 9.66 0 10 C0 10.99 0 11.98 0 13 C0.66 13 1.32 13 2 13 C2 13.99 2 14.98 2 16 C1.34 16 0.68 16 0 16 C0 16.99 0 17.98 0 19 C0.99 19 1.98 19 3 19 C3 19.99 3 20.98 3 22 C3.99 22 4.98 22 6 22 C6 21.01 6 20.02 6 19 C6.99 19 7.98 19 9 19 C9 18.01 9 17.02 9 16 C8.01 16 7.02 16 6 16 C6 15.01 6 14.02 6 13 C5.01 13 4.02 13 3 13 C3 12.01 3 11.02 3 10 C3.99 10 4.98 10 6 10 C6 9.01 6 8.02 6 7 C6.99 7 7.98 7 9 7 C9 7.66 9 8.32 9 9 C9.99 9 10.98 9 12 9 C12 8.34 12 7.68 12 7 C12.99 7 13.98 7 15 7 C15 7.66 15 8.32 15 9 C15.99 9 16.98 9 18 9 C18 8.01 18 7.02 18 6 C17.01 6 16.02 6 15 6 C15 5.01 15 4.02 15 3 Z " fill="#4C4C4C" transform="translate(7,96)"/>
<path d="M0 0 C0.99 0 1.98 0 3 0 C3 0.99 3 1.98 3 3 C3.99 3 4.98 3 6 3 C6 3.99 6 4.98 6 6 C5.01 6 4.02 6 3 6 C3 5.34 3 4.68 3 4 C2.01 4 1.02 4 0 4 C-0.33 4.99 -0.66 5.98 -1 7 C-1.66 7 -2.32 7 -3 7 C-3 7.99 -3 8.98 -3 10 C-2.34 10 -1.68 10 -1 10 C-1 10.99 -1 11.98 -1 13 C-1.66 13 -2.32 13 -3 13 C-3 13.99 -3 14.98 -3 16 C-2.34 16 -1.68 16 -1 16 C-1 16.99 -1 17.98 -1 19 C-1.99 19 -2.98 19 -4 19 C-4.33 20.32 -4.66 21.64 -5 23 C-5.66 23 -6.32 23 -7 23 C-7 22.01 -7 21.02 -7 20 C-7.99 20 -8.98 20 -10 20 C-10 20.66 -10 21.32 -10 22 C-10.99 22 -11.98 22 -13 22 C-13 21.34 -13 20.68 -13 20 C-13.99 20 -14.98 20 -16 20 C-16 20.99 -16 21.98 -16 23 C-15.01 23 -14.02 23 -13 23 C-13 23.99 -13 24.98 -13 26 C-12.01 26 -11.02 26 -10 26 C-10 26.99 -10 27.98 -10 29 C-9.01 29 -8.02 29 -7 29 C-7 29.99 -7 30.98 -7 32 C-7.99 32 -8.98 32 -10 32 C-10 32.99 -10 33.98 -10 35 C-10.99 35 -11.98 35 -13 35 C-13 34.01 -13 33.02 -13 32 C-13.99 32 -14.98 32 -16 32 C-16.591 33.946 -16.591 33.946 -17 36 C-16.67 36.33 -16.34 36.66 -16 37 C-15.959 38.666 -15.957 40.334 -16 42 C-15.01 42 -14.02 42 -13 42 C-13 42.99 -13 43.98 -13 45 C-12.01 45 -11.02 45 -10 45 C-10 45.99 -10 46.98 -10 48 C-10.99 48 -11.98 48 -13 48 C-13 48.99 -13 49.98 -13 51 C-14.32 51 -15.64 51 -17 51 C-17 50.01 -17 49.02 -17 48 C-17.66 48 -18.32 48 -19 48 C-19 47.01 -19 46.02 -19 45 C-18.34 45 -17.68 45 -17 45 C-17 44.01 -17 43.02 -17 42 C-17.99 41.67 -18.98 41.34 -20 41 C-20 40.34 -20 39.68 -20 39 C-20.66 39 -21.32 39 -22 39 C-22 39.99 -22 40.98 -22 42 C-21.34 42 -20.68 42 -20 42 C-20 42.99 -20 43.98 -20 45 C-20.99 45 -21.98 45 -23 45 C-23.66 41.04 -24.32 37.08 -25 33 C-24.34 33 -23.68 33 -23 33 C-23 33.66 -23 34.32 -23 35 C-22.01 35 -21.02 35 -20 35 C-20 34.01 -20 33.02 -20 32 C-19.01 32 -18.02 32 -17 32 C-17 31.01 -17 30.02 -17 29 C-17.66 29 -18.32 29 -19 29 C-19 28.01 -19 27.02 -19 26 C-18.01 26 -17.02 26 -16 26 C-16.66 25.216 -17.32 24.433 -18 23.625 C-20 21 -20 21 -20 19 C-19.01 19 -18.02 19 -17 19 C-16.67 18.01 -16.34 17.02 -16 16 C-16 16.99 -16 17.98 -16 19 C-15.01 19 -14.02 19 -13 19 C-13 18.01 -13 17.02 -13 16 C-11.02 16 -9.04 16 -7 16 C-7 15.01 -7 14.02 -7 13 C-6.01 13 -5.02 13 -4 13 C-4 12.01 -4 11.02 -4 10 C-4.99 10 -5.98 10 -7 10 C-7 9.01 -7 8.02 -7 7 C-6.34 6.67 -5.68 6.34 -5 6 C-4.67 5.01 -4.34 4.02 -4 3 C-3.01 2.67 -2.02 2.34 -1 2 C-0.67 1.34 -0.34 0.68 0 0 Z " fill="#4A4949" transform="translate(122,3)"/>
<path d="M0 0 C0 0.66 0 1.32 0 2 C0.99 2 1.98 2 3 2 C3 7.28 3 12.56 3 18 C2.01 18 1.02 18 0 18 C0 17.34 0 16.68 0 16 C-0.99 16 -1.98 16 -3 16 C-3.33 16.99 -3.66 17.98 -4 19 C-4.66 19 -5.32 19 -6 19 C-6 19.99 -6 20.98 -6 22 C-5.34 22 -4.68 22 -4 22 C-4 22.99 -4 23.98 -4 25 C-4.66 25 -5.32 25 -6 25 C-6 25.99 -6 26.98 -6 28 C-5.01 28 -4.02 28 -3 28 C-3 28.99 -3 29.98 -3 31 C-4.32 31 -5.64 31 -7 31 C-7 31.99 -7 32.98 -7 34 C-6.01 34.33 -5.02 34.66 -4 35 C-4 35.99 -4 36.98 -4 38 C-4.66 38 -5.32 38 -6 38 C-6 38.99 -6 39.98 -6 41 C-5.34 41 -4.68 41 -4 41 C-4 41.99 -4 42.98 -4 44 C-4.99 44 -5.98 44 -7 44 C-7 43.01 -7 42.02 -7 41 C-7.99 41 -8.98 41 -10 41 C-10 40.01 -10 39.02 -10 38 C-9.01 38 -8.02 38 -7 38 C-7 37.01 -7 36.02 -7 35 C-7.99 35 -8.98 35 -10 35 C-10 34.01 -10 33.02 -10 32 C-10.99 32 -11.98 32 -13 32 C-13 32.66 -13 33.32 -13 34 C-13.99 34 -14.98 34 -16 34 C-16 33.34 -16 32.68 -16 32 C-17.98 32.495 -17.98 32.495 -20 33 C-20.33 32.34 -20.66 31.68 -21 31 C-20.34 31 -19.68 31 -19 31 C-19 30.01 -19 29.02 -19 28 C-18.01 28 -17.02 28 -16 28 C-16 28.99 -16 29.98 -16 31 C-15.01 31 -14.02 31 -13 31 C-13 30.01 -13 29.02 -13 28 C-12.01 28 -11.02 28 -10 28 C-10 27.01 -10 26.02 -10 25 C-10.99 25 -11.98 25 -13 25 C-13 24.01 -13 23.02 -13 22 C-13.99 22 -14.98 22 -16 22 C-16 21.01 -16 20.02 -16 19 C-16.99 19 -17.98 19 -19 19 C-19 18.01 -19 17.02 -19 16 C-18.01 16 -17.02 16 -16 16 C-16 16.66 -16 17.32 -16 18 C-15.01 18 -14.02 18 -13 18 C-13 17.34 -13 16.68 -13 16 C-12.01 16 -11.02 16 -10 16 C-10 16.99 -10 17.98 -10 19 C-9.34 18.67 -8.68 18.34 -8 18 C-7.67 17.01 -7.34 16.02 -7 15 C-6.01 15 -5.02 15 -4 15 C-4 14.01 -4 13.02 -4 12 C-4.66 12 -5.32 12 -6 12 C-6 11.01 -6 10.02 -6 9 C-5.34 9 -4.68 9 -4 9 C-4 8.01 -4 7.02 -4 6 C-4.66 6 -5.32 6 -6 6 C-6 3 -6 3 -4.688 1.312 C-3 0 -3 0 0 0 Z " fill="#313131" transform="translate(125,7)"/>
<path d="M0 0 C1.32 0 2.64 0 4 0 C3.67 1.32 3.34 2.64 3 4 C2.34 4 1.68 4 1 4 C1 4.99 1 5.98 1 7 C1.66 7 2.32 7 3 7 C3 7.99 3 8.98 3 10 C2.34 10 1.68 10 1 10 C1 10.99 1 11.98 1 13 C1.99 13 2.98 13 4 13 C4 13.99 4 14.98 4 16 C4.99 16 5.98 16 7 16 C7 15.01 7 14.02 7 13 C7.99 13 8.98 13 10 13 C10 13.99 10 14.98 10 16 C10.99 16 11.98 16 13 16 C13 17.32 13 18.64 13 20 C13.99 20 14.98 20 16 20 C16 20.99 16 21.98 16 23 C15.01 23 14.02 23 13 23 C13 23.99 13 24.98 13 26 C13.99 26 14.98 26 16 26 C16 26.99 16 27.98 16 29 C15.01 29 14.02 29 13 29 C13 29.99 13 30.98 13 32 C13.99 32 14.98 32 16 32 C16 33.32 16 34.64 16 36 C15.01 36 14.02 36 13 36 C13 35.01 13 34.02 13 33 C12.01 33 11.02 33 10 33 C10 33.66 10 34.32 10 35 C9.01 35 8.02 35 7 35 C7 34.01 7 33.02 7 32 C6.01 32 5.02 32 4 32 C4 32.99 4 33.98 4 35 C3.01 35 2.02 35 1 35 C1 34.01 1 33.02 1 32 C1.66 32 2.32 32 3 32 C3 31.01 3 30.02 3 29 C2.34 29 1.68 29 1 29 C1 28.01 1 27.02 1 26 C1.66 26 2.32 26 3 26 C3 25.01 3 24.02 3 23 C2.34 23 1.68 23 1 23 C1 20 1 20 3 18 C0.726 14.629 0.726 14.629 -3 13 C-3 12.01 -3 11.02 -3 10 C-2.01 10 -1.02 10 0 10 C0 9.01 0 8.02 0 7 C-0.99 7 -1.98 7 -3 7 C-3 6.01 -3 5.02 -3 4 C-2.34 3.67 -1.68 3.34 -1 3 C-0.67 2.01 -0.34 1.02 0 0 Z " fill="#494949" transform="translate(6,54)"/>
<path d="M0 0 C0.99 0 1.98 0 3 0 C3.33 0.66 3.66 1.32 4 2 C4.99 2.33 5.98 2.66 7 3 C7 2.34 7 1.68 7 1 C7.99 1 8.98 1 10 1 C10 1.99 10 2.98 10 4 C10.99 4 11.98 4 13 4 C13 4.99 13 5.98 13 7 C13.99 7 14.98 7 16 7 C16 5.68 16 4.36 16 3 C17.32 3.33 18.64 3.66 20 4 C20 4.99 20 5.98 20 7 C19.01 7 18.02 7 17 7 C17 7.99 17 8.98 17 10 C17.66 10 18.32 10 19 10 C19 10.99 19 11.98 19 13 C18.01 13 17.02 13 16 13 C16 13.99 16 14.98 16 16 C15.01 16 14.02 16 13 16 C13 15.01 13 14.02 13 13 C12.01 13 11.02 13 10 13 C10 13.99 10 14.98 10 16 C9.01 16 8.02 16 7 16 C7 15.01 7 14.02 7 13 C6.01 13 5.02 13 4 13 C3.67 14.32 3.34 15.64 3 17 C2.01 17 1.02 17 0 17 C0 17.99 0 18.98 0 20 C-0.99 20 -1.98 20 -3 20 C-3 20.99 -3 21.98 -3 23 C-2.01 23 -1.02 23 0 23 C0 23.99 0 24.98 0 26 C-2.97 26 -5.94 26 -9 26 C-9 25.01 -9 24.02 -9 23 C-9.99 23 -10.98 23 -12 23 C-12 22.01 -12 21.02 -12 20 C-11.01 20 -10.02 20 -9 20 C-9 19.01 -9 18.02 -9 17 C-8.01 17 -7.02 17 -6 17 C-6 17.66 -6 18.32 -6 19 C-5.01 19 -4.02 19 -3 19 C-3 18.01 -3 17.02 -3 16 C-2.01 16 -1.02 16 0 16 C0 15.01 0 14.02 0 13 C0.99 13 1.98 13 3 13 C3 12.01 3 11.02 3 10 C2.34 10 1.68 10 1 10 C1 9.01 1 8.02 1 7 C1.66 7 2.32 7 3 7 C3 6.01 3 5.02 3 4 C2.01 4 1.02 4 0 4 C0 2.68 0 1.36 0 0 Z " fill="#363636" transform="translate(86,102)"/>
<path d="M0 0 C6.27 0 12.54 0 19 0 C19 0.99 19 1.98 19 3 C19.99 3 20.98 3 22 3 C22 3.99 22 4.98 22 6 C21.01 6 20.02 6 19 6 C19 6.99 19 7.98 19 9 C18.01 9 17.02 9 16 9 C16 8.34 16 7.68 16 7 C15.01 7 14.02 7 13 7 C12.67 7.99 12.34 8.98 12 10 C11.34 10 10.68 10 10 10 C10 10.99 10 11.98 10 13 C9.01 13 8.02 13 7 13 C7 13.99 7 14.98 7 16 C7.66 16 8.32 16 9 16 C9 16.99 9 17.98 9 19 C8.01 19 7.02 19 6 19 C6 19.99 6 20.98 6 22 C5.01 22 4.02 22 3 22 C3 21.01 3 20.02 3 19 C2.01 19 1.02 19 0 19 C0 12.73 0 6.46 0 0 Z " fill="#424242" transform="translate(0,0)"/>
<path d="M0 0 C0.99 0 1.98 0 3 0 C3 0.99 3 1.98 3 3 C3.99 3 4.98 3 6 3 C6 3.99 6 4.98 6 6 C5.01 6 4.02 6 3 6 C3 6.99 3 7.98 3 9 C3.66 9 4.32 9 5 9 C5 9.99 5 10.98 5 12 C3 11 1 10 -1 9 C-1 8.01 -1 7.02 -1 6 C-0.01 6 0.98 6 2 6 C2 5.01 2 4.02 2 3 C1.34 3 0.68 3 0 3 C0 2.01 0 1.02 0 0 Z M-13 6 C-12.01 6 -11.02 6 -10 6 C-10 6.99 -10 7.98 -10 9 C-9.01 9 -8.02 9 -7 9 C-7 8.01 -7 7.02 -7 6 C-6.01 6 -5.02 6 -4 6 C-4 6.99 -4 7.98 -4 9 C-3.01 9 -2.02 9 -1 9 C-1.33 10.32 -1.66 11.64 -2 13 C-2.66 13 -3.32 13 -4 13 C-4 12.01 -4 11.02 -4 10 C-4.99 10 -5.98 10 -7 10 C-7 10.66 -7 11.32 -7 12 C-7.99 12 -8.98 12 -10 12 C-10 11.34 -10 10.68 -10 10 C-10.99 10 -11.98 10 -13 10 C-13 10.99 -13 11.98 -13 13 C-12.01 13 -11.02 13 -10 13 C-10 13.99 -10 14.98 -10 16 C-9.01 16 -8.02 16 -7 16 C-7 16.99 -7 17.98 -7 19 C-14.59 19 -22.18 19 -30 19 C-30 18.01 -30 17.02 -30 16 C-30.66 16 -31.32 16 -32 16 C-32 13 -32 13 -30.688 11.312 C-29 10 -29 10 -26 10 C-26 10.66 -26 11.32 -26 12 C-25.01 12 -24.02 12 -23 12 C-23 11.34 -23 10.68 -23 10 C-22.01 10 -21.02 10 -20 10 C-20 10.99 -20 11.98 -20 13 C-19.01 13 -18.02 13 -17 13 C-17 11.68 -17 10.36 -17 9 C-15.68 9 -14.36 9 -13 9 C-13 8.01 -13 7.02 -13 6 Z " fill="#3B3B3B" transform="translate(119,109)"/>
<path d="M0 0 C8.25 0 16.5 0 25 0 C25 1.98 25 3.96 25 6 C24.01 6 23.02 6 22 6 C22 5.01 22 4.02 22 3 C21.01 3 20.02 3 19 3 C18.67 3.99 18.34 4.98 18 6 C17.01 6 16.02 6 15 6 C14.67 7.32 14.34 8.64 14 10 C13.34 10 12.68 10 12 10 C12 10.99 12 11.98 12 13 C12.99 13 13.98 13 15 13 C15 13.99 15 14.98 15 16 C14.01 16 13.02 16 12 16 C12 16.99 12 17.98 12 19 C11.01 19 10.02 19 9 19 C9 18.01 9 17.02 9 16 C8.01 16 7.02 16 6 16 C6 15.01 6 14.02 6 13 C5.01 13 4.02 13 3 13 C3 12.01 3 11.02 3 10 C3.99 10 4.98 10 6 10 C6 9.01 6 8.02 6 7 C4.68 7.33 3.36 7.66 2 8 C2 6.68 2 5.36 2 4 C1.34 4 0.68 4 0 4 C0 2.68 0 1.36 0 0 Z " fill="#414141" transform="translate(103,0)"/>
<path d="M0 0 C0 1.32 0 2.64 0 4 C-0.99 4 -1.98 4 -3 4 C-3 4.99 -3 5.98 -3 7 C-2.01 7 -1.02 7 0 7 C0 7.99 0 8.98 0 10 C0.99 10 1.98 10 3 10 C3 10.99 3 11.98 3 13 C3.99 13 4.98 13 6 13 C6 12.01 6 11.02 6 10 C6.99 10 7.98 10 9 10 C9 9.01 9 8.02 9 7 C8.01 7 7.02 7 6 7 C6 6.01 6 5.02 6 4 C6.99 4 7.98 4 9 4 C9 2.68 9 1.36 9 0 C9.99 0 10.98 0 12 0 C11.424 2.386 10.778 4.667 10 7 C10.66 7 11.32 7 12 7 C12 7.99 12 8.98 12 10 C11.34 10 10.68 10 10 10 C9.914 10.736 9.827 11.472 9.738 12.23 C8.855 15.543 7.614 16.922 5.188 19.312 C4.5 20.01 3.813 20.707 3.105 21.426 C1 23 1 23 -3 23 C-5.25 21.188 -5.25 21.188 -7 19 C-7 18.01 -7 17.02 -7 16 C-5.68 16 -4.36 16 -3 16 C-3 15.01 -3 14.02 -3 13 C-3.99 13 -4.98 13 -6 13 C-6 12.01 -6 11.02 -6 10 C-5.34 10 -4.68 10 -4 10 C-4 9.01 -4 8.02 -4 7 C-4.66 7 -5.32 7 -6 7 C-6 4 -6 4 -4.125 1.812 C-2 0 -2 0 0 0 Z " fill="#444444" transform="translate(61,22)"/>
<path d="M0 0 C0 0.66 0 1.32 0 2 C0.99 2 1.98 2 3 2 C3 1.34 3 0.68 3 0 C3.99 0 4.98 0 6 0 C6 0.99 6 1.98 6 3 C6.99 3 7.98 3 9 3 C9 3.99 9 4.98 9 6 C8.01 6 7.02 6 6 6 C6 6.99 6 7.98 6 9 C6.99 9 7.98 9 9 9 C9 9.99 9 10.98 9 12 C8.01 12 7.02 12 6 12 C6.33 13.32 6.66 14.64 7 16 C5.68 16 4.36 16 3 16 C3 16.66 3 17.32 3 18 C2.01 18 1.02 18 0 18 C0 17.34 0 16.68 0 16 C-0.99 16 -1.98 16 -3 16 C-3 16.99 -3 17.98 -3 19 C-4.32 18.67 -5.64 18.34 -7 18 C-7 17.01 -7 16.02 -7 15 C-5.68 15 -4.36 15 -3 15 C-3 14.01 -3 13.02 -3 12 C-3.99 12 -4.98 12 -6 12 C-6 11.01 -6 10.02 -6 9 C-5.34 9 -4.68 9 -4 9 C-4 8.01 -4 7.02 -4 6 C-4.66 6 -5.32 6 -6 6 C-6 3 -6 3 -4.688 1.312 C-3 0 -3 0 0 0 Z " fill="#444343" transform="translate(29,55)"/>
<path d="M0 0 C0.99 0 1.98 0 3 0 C2.534 4.713 0.743 6.771 -2.551 10.082 C-3.477 11.013 -4.403 11.945 -5.357 12.904 C-6.085 13.62 -6.085 13.62 -6.828 14.349 C-8.311 15.811 -9.772 17.294 -11.232 18.779 C-12.162 19.704 -13.093 20.629 -14.051 21.582 C-14.903 22.43 -15.756 23.278 -16.634 24.152 C-19 26 -19 26 -23 26 C-23 24.68 -23 23.36 -23 22 C-21.68 22 -20.36 22 -19 22 C-19 21.01 -19 20.02 -19 19 C-18.01 19 -17.02 19 -16 19 C-16 18.01 -16 17.02 -16 16 C-15.01 16 -14.02 16 -13 16 C-13 15.01 -13 14.02 -13 13 C-13.99 13 -14.98 13 -16 13 C-15.695 9.439 -15 8 -12.688 5.188 C-10 3 -10 3 -6 3 C-6 3.99 -6 4.98 -6 6 C-5.01 6 -4.02 6 -3 6 C-3 5.01 -3 4.02 -3 3 C-2.01 3 -1.02 3 0 3 C0 2.01 0 1.02 0 0 Z " fill="#3A3A3A" transform="translate(64,64)"/>
<path d="M0 0 C0.99 0 1.98 0 3 0 C3 0.99 3 1.98 3 3 C3.99 3 4.98 3 6 3 C6 6.3 6 9.6 6 13 C5.01 13 4.02 13 3 13 C3 12.01 3 11.02 3 10 C2.01 10 1.02 10 0 10 C0 7 0 7 2 5 C1.34 4.67 0.68 4.34 0 4 C-0.33 4.99 -0.66 5.98 -1 7 C-1.66 7 -2.32 7 -3 7 C-3 7.99 -3 8.98 -3 10 C-2.34 10 -1.68 10 -1 10 C-1 10.99 -1 11.98 -1 13 C-1.66 13 -2.32 13 -3 13 C-3 13.99 -3 14.98 -3 16 C-2.01 16 -1.02 16 0 16 C-0.33 16.99 -0.66 17.98 -1 19 C-1.99 19 -2.98 19 -4 19 C-4.33 20.32 -4.66 21.64 -5 23 C-5.66 23 -6.32 23 -7 23 C-7 22.01 -7 21.02 -7 20 C-7.99 20 -8.98 20 -10 20 C-10 20.66 -10 21.32 -10 22 C-10.99 22 -11.98 22 -13 22 C-13 21.01 -13 20.02 -13 19 C-12.01 19 -11.02 19 -10 19 C-10 18.01 -10 17.02 -10 16 C-9.01 16 -8.02 16 -7 16 C-7 15.01 -7 14.02 -7 13 C-6.01 13 -5.02 13 -4 13 C-4 12.01 -4 11.02 -4 10 C-4.99 10 -5.98 10 -7 10 C-7 9.01 -7 8.02 -7 7 C-6.34 6.67 -5.68 6.34 -5 6 C-4.67 5.01 -4.34 4.02 -4 3 C-3.01 3 -2.02 3 -1 3 C-0.67 2.01 -0.34 1.02 0 0 Z " fill="#313131" transform="translate(122,51)"/>
<path d="M0 0 C0.99 0.33 1.98 0.66 3 1 C3 1.66 3 2.32 3 3 C2.01 3 1.02 3 0 3 C0 2.01 0 1.02 0 0 Z M-3 3 C-2.01 3 -1.02 3 0 3 C2.357 5.532 3 6.472 3 10 C2.34 10 1.68 10 1 10 C1 10.99 1 11.98 1 13 C1.66 13 2.32 13 3 13 C3 13.99 3 14.98 3 16 C2.01 16 1.02 16 0 16 C0 16.99 0 17.98 0 19 C-0.99 19 -1.98 19 -3 19 C-3 18.01 -3 17.02 -3 16 C-3.99 16 -4.98 16 -6 16 C-6 15.01 -6 14.02 -6 13 C-6.99 13 -7.98 13 -9 13 C-9 12.01 -9 11.02 -9 10 C-9.99 10 -10.98 10 -12 10 C-12 9.01 -12 8.02 -12 7 C-11.01 7 -10.02 7 -9 7 C-9 6.01 -9 5.02 -9 4 C-8.01 4 -7.02 4 -6 4 C-6 4.66 -6 5.32 -6 6 C-5.01 6 -4.02 6 -3 6 C-3 5.01 -3 4.02 -3 3 Z " fill="#363636" transform="translate(38,99)"/>
<path d="M0 0 C0.99 0 1.98 0 3 0 C3.33 0.99 3.66 1.98 4 3 C3.01 3.33 2.02 3.66 1 4 C1 4.99 1 5.98 1 7 C1.66 7 2.32 7 3 7 C3 7.99 3 8.98 3 10 C-2.28 10 -7.56 10 -13 10 C-13 9.01 -13 8.02 -13 7 C-13.66 7 -14.32 7 -15 7 C-15 4 -15 4 -13.688 2.312 C-12 1 -12 1 -9 1 C-9 1.66 -9 2.32 -9 3 C-8.01 3 -7.02 3 -6 3 C-6 2.34 -6 1.68 -6 1 C-5.01 1 -4.02 1 -3 1 C-3 1.99 -3 2.98 -3 4 C-2.34 3.67 -1.68 3.34 -1 3 C-0.67 2.01 -0.34 1.02 0 0 Z " fill="#393939" transform="translate(70,118)"/>
<path d="M0 0 C0 0.66 0 1.32 0 2 C0.99 2 1.98 2 3 2 C3 7.28 3 12.56 3 18 C2.01 18 1.02 18 0 18 C0 17.34 0 16.68 0 16 C-0.99 16 -1.98 16 -3 16 C-3 16.99 -3 17.98 -3 19 C-4.32 18.67 -5.64 18.34 -7 18 C-7 17.01 -7 16.02 -7 15 C-5.68 15 -4.36 15 -3 15 C-3 14.01 -3 13.02 -3 12 C-3.99 12 -4.98 12 -6 12 C-6 11.01 -6 10.02 -6 9 C-5.34 9 -4.68 9 -4 9 C-4 8.01 -4 7.02 -4 6 C-4.66 6 -5.32 6 -6 6 C-6 3 -6 3 -4.688 1.312 C-3 0 -3 0 0 0 Z " fill="#383838" transform="translate(125,87)"/>
<path d="M0 0 C0.99 0.99 1.98 1.98 3 3 C-1.962 8.995 -7.348 14.464 -12.875 19.938 C-13.754 20.812 -14.633 21.687 -15.539 22.588 C-17.69 24.728 -19.844 26.865 -22 29 C-22.66 28.34 -23.32 27.68 -24 27 C-22.443 23.251 -20.127 20.91 -17.246 18.086 C-16.31 17.16 -15.373 16.235 -14.408 15.281 C-13.418 14.312 -12.428 13.343 -11.438 12.375 C-9.495 10.469 -7.558 8.56 -5.621 6.648 C-4.759 5.805 -3.897 4.961 -3.01 4.091 C-0.958 2.164 -0.958 2.164 0 0 Z " fill="#4A4A4A" transform="translate(81,57)"/>
<path d="M0 0 C0.99 0 1.98 0 3 0 C3 0.66 3 1.32 3 2 C3.99 2 4.98 2 6 2 C6 1.34 6 0.68 6 0 C6.99 0 7.98 0 9 0 C9 0.99 9 1.98 9 3 C9.99 3 10.98 3 12 3 C12 3.99 12 4.98 12 6 C11.01 6 10.02 6 9 6 C9 6.99 9 7.98 9 9 C9.99 9 10.98 9 12 9 C12 9.99 12 10.98 12 12 C11.01 12.495 11.01 12.495 10 13 C9.01 14.485 9.01 14.485 8 16 C7.711 15.051 7.422 14.102 7.125 13.125 C6.232 9.948 6.232 9.948 4 8 C0.756 7.246 0.756 7.246 -3 8 C-5.306 9.629 -7.278 11.404 -9.301 13.371 C-11 15 -11 15 -13 16 C-12.67 14.68 -12.34 13.36 -12 12 C-11.34 12 -10.68 12 -10 12 C-9.67 11.01 -9.34 10.02 -9 9 C-8.34 9 -7.68 9 -7 9 C-6.67 8.01 -6.34 7.02 -6 6 C-5.34 6 -4.68 6 -4 6 C-4.33 5.01 -4.66 4.02 -5 3 C-4.34 2.67 -3.68 2.34 -3 2 C-2.34 2.33 -1.68 2.66 -1 3 C-1 3.99 -1 4.98 -1 6 C0.32 6 1.64 6 3 6 C3 5.01 3 4.02 3 3 C2.01 2.67 1.02 2.34 0 2 C0 1.34 0 0.68 0 0 Z " fill="#535353" transform="translate(74,39)"/>
<path d="M0 0 C0.99 0 1.98 0 3 0 C3 0.99 3 1.98 3 3 C2.34 3 1.68 3 1 3 C1 3.99 1 4.98 1 6 C1.66 6 2.32 6 3 6 C3 6.99 3 7.98 3 9 C2.01 9 1.02 9 0 9 C0 8.01 0 7.02 0 6 C-0.99 6 -1.98 6 -3 6 C-3 5.01 -3 4.02 -3 3 C-2.01 3 -1.02 3 0 3 C0 2.01 0 1.02 0 0 Z M-3 9 C-2.01 9 -1.02 9 0 9 C4 13.343 4 13.343 4 16 C3.01 16 2.02 16 1 16 C1 16.99 1 17.98 1 19 C1.66 19 2.32 19 3 19 C3 19.99 3 20.98 3 22 C2.01 22 1.02 22 0 22 C0 22.99 0 23.98 0 25 C-0.99 25 -1.98 25 -3 25 C-3 24.34 -3 23.68 -3 23 C-3.928 22.567 -3.928 22.567 -4.875 22.125 C-7 21 -7 21 -9 19 C-9 18.01 -9 17.02 -9 16 C-8.01 16 -7.02 16 -6 16 C-6 16.99 -6 17.98 -6 19 C-5.01 19 -4.02 19 -3 19 C-3 18.01 -3 17.02 -3 16 C-2.01 16 -1.02 16 0 16 C0 15.01 0 14.02 0 13 C-0.99 13 -1.98 13 -3 13 C-3 11.68 -3 10.36 -3 9 Z " fill="#302F2F" transform="translate(102,13)"/>
<path d="M0 0 C0.99 0 1.98 0 3 0 C3 0.99 3 1.98 3 3 C3.99 3 4.98 3 6 3 C6 3.99 6 4.98 6 6 C6.99 6 7.98 6 9 6 C9 6.99 9 7.98 9 9 C9.99 9 10.98 9 12 9 C12 9.99 12 10.98 12 12 C12.99 12 13.98 12 15 12 C14.67 13.32 14.34 14.64 14 16 C13.34 16 12.68 16 12 16 C12 15.01 12 14.02 12 13 C11.01 13 10.02 13 9 13 C9 13.66 9 14.32 9 15 C8.01 15 7.02 15 6 15 C6 14.34 6 13.68 6 13 C5.01 13 4.02 13 3 13 C3 13.99 3 14.98 3 16 C1.68 15.67 0.36 15.34 -1 15 C-1 14.01 -1 13.02 -1 12 C0.32 12 1.64 12 3 12 C3 11.01 3 10.02 3 9 C2.01 9 1.02 9 0 9 C0 8.01 0 7.02 0 6 C0.66 6 1.32 6 2 6 C2 5.01 2 4.02 2 3 C1.34 3 0.68 3 0 3 C0 2.01 0 1.02 0 0 Z " fill="#4B4B4B" transform="translate(39,10)"/>
<path d="M0 0 C0.99 0 1.98 0 3 0 C3 0.99 3 1.98 3 3 C3.99 3 4.98 3 6 3 C6 2.01 6 1.02 6 0 C6.99 0 7.98 0 9 0 C9 0.99 9 1.98 9 3 C9.99 3 10.98 3 12 3 C12 3.99 12 4.98 12 6 C11.01 6 10.02 6 9 6 C9 5.34 9 4.68 9 4 C8.01 4 7.02 4 6 4 C6 4.66 6 5.32 6 6 C5.01 6 4.02 6 3 6 C3 5.34 3 4.68 3 4 C2.01 4 1.02 4 0 4 C0 4.99 0 5.98 0 7 C-0.99 7 -1.98 7 -3 7 C-3 7.99 -3 8.98 -3 10 C-2.01 10 -1.02 10 0 10 C0 10.99 0 11.98 0 13 C0.99 13 1.98 13 3 13 C3 13.99 3 14.98 3 16 C2.01 16 1.02 16 0 16 C0 16.99 0 17.98 0 19 C-0.99 19 -1.98 19 -3 19 C-3 18.01 -3 17.02 -3 16 C-3.99 16 -4.98 16 -6 16 C-6 15.01 -6 14.02 -6 13 C-5.34 13 -4.68 13 -4 13 C-4 12.01 -4 11.02 -4 10 C-4.66 10 -5.32 10 -6 10 C-6 7 -6 7 -4 5 C-4 4.34 -4 3.68 -4 3 C-2.68 3 -1.36 3 0 3 C0 2.01 0 1.02 0 0 Z " fill="#2F2F2F" transform="translate(13,99)"/>
<path d="M0 0 C0.99 0 1.98 0 3 0 C3 0.99 3 1.98 3 3 C3.99 3 4.98 3 6 3 C6 3.99 6 4.98 6 6 C5.01 6 4.02 6 3 6 C3 6.99 3 7.98 3 9 C1.68 9 0.36 9 -1 9 C-1 8.01 -1 7.02 -1 6 C-0.01 6 0.98 6 2 6 C2 5.01 2 4.02 2 3 C1.34 3 0.68 3 0 3 C0 2.01 0 1.02 0 0 Z M-13 6 C-12.01 6 -11.02 6 -10 6 C-10 6.99 -10 7.98 -10 9 C-9.01 9 -8.02 9 -7 9 C-7 8.01 -7 7.02 -7 6 C-6.01 6 -5.02 6 -4 6 C-4 6.99 -4 7.98 -4 9 C-3.01 9 -2.02 9 -1 9 C-1 10.32 -1 11.64 -1 13 C-1.99 13 -2.98 13 -4 13 C-4 12.01 -4 11.02 -4 10 C-4.99 10 -5.98 10 -7 10 C-7 10.66 -7 11.32 -7 12 C-7.99 12 -8.98 12 -10 12 C-10 11.34 -10 10.68 -10 10 C-10.99 10 -11.98 10 -13 10 C-13.33 10.99 -13.66 11.98 -14 13 C-14.66 13 -15.32 13 -16 13 C-16 13.99 -16 14.98 -16 16 C-15.34 16 -14.68 16 -14 16 C-14 16.99 -14 17.98 -14 19 C-14.99 19 -15.98 19 -17 19 C-17 18.01 -17 17.02 -17 16 C-17.99 16 -18.98 16 -20 16 C-20 15.01 -20 14.02 -20 13 C-19.01 13 -18.02 13 -17 13 C-17 12.01 -17 11.02 -17 10 C-16.01 9.67 -15.02 9.34 -14 9 C-13.67 8.01 -13.34 7.02 -13 6 Z " fill="#545353" transform="translate(103,109)"/>
<path d="M0 0 C0.99 0 1.98 0 3 0 C3 0.99 3 1.98 3 3 C2.34 3 1.68 3 1 3 C1 3.99 1 4.98 1 6 C1.66 6 2.32 6 3 6 C3 6.99 3 7.98 3 9 C2.01 9 1.02 9 0 9 C0 8.01 0 7.02 0 6 C-0.99 6 -1.98 6 -3 6 C-3 5.01 -3 4.02 -3 3 C-2.01 3 -1.02 3 0 3 C0 2.01 0 1.02 0 0 Z M0 9 C0 10.32 0 11.64 0 13 C-0.99 13 -1.98 13 -3 13 C-3 13.99 -3 14.98 -3 16 C-2.01 16 -1.02 16 0 16 C0 16.99 0 17.98 0 19 C-2.97 19 -5.94 19 -9 19 C-9 18.01 -9 17.02 -9 16 C-9.99 16 -10.98 16 -12 16 C-12 15.01 -12 14.02 -12 13 C-10.02 12.67 -8.04 12.34 -6 12 C-6 11.34 -6 10.68 -6 10 C-3 9 -3 9 0 9 Z " fill="#363636" transform="translate(22,109)"/>
<path d="M0 0 C0.99 0 1.98 0 3 0 C3 0.99 3 1.98 3 3 C3.99 3 4.98 3 6 3 C6 3.99 6 4.98 6 6 C5.01 6 4.02 6 3 6 C3 7.32 3 8.64 3 10 C3.99 10 4.98 10 6 10 C6 10.99 6 11.98 6 13 C5.01 13 4.02 13 3 13 C3 13.99 3 14.98 3 16 C2.01 16 1.02 16 0 16 C0 15.01 0 14.02 0 13 C-0.99 13 -1.98 13 -3 13 C-3 12.01 -3 11.02 -3 10 C-3.99 10 -4.98 10 -6 10 C-6 9.01 -6 8.02 -6 7 C-5.01 7 -4.02 7 -3 7 C-3 5.68 -3 4.36 -3 3 C-2.01 3 -1.02 3 0 3 C0 2.01 0 1.02 0 0 Z " fill="#4A4A4A" transform="translate(16,51)"/>
<path d="M0 0 C2 1 4 2 6 3 C6 2.01 6 1.02 6 0 C6.99 0 7.98 0 9 0 C9 0.66 9 1.32 9 2 C11.97 2.495 11.97 2.495 15 3 C15 3.99 15 4.98 15 6 C14.01 6 13.02 6 12 6 C12 6.99 12 7.98 12 9 C12.99 9 13.98 9 15 9 C15 10.98 15 12.96 15 15 C14.01 15 13.02 15 12 15 C12 14.01 12 13.02 12 12 C11.01 12 10.02 12 9 12 C9 11.01 9 10.02 9 9 C8.01 9 7.02 9 6 9 C6 8.01 6 7.02 6 6 C5.01 6 4.02 6 3 6 C2.67 5.34 2.34 4.68 2 4 C1.01 3.34 0.02 2.68 -1 2 C-0.67 1.34 -0.34 0.68 0 0 Z " fill="#393939" transform="translate(23,23)"/>
<path d="M0 0 C0.99 0 1.98 0 3 0 C3 0.99 3 1.98 3 3 C3.99 3 4.98 3 6 3 C6 3.99 6 4.98 6 6 C5.01 6 4.02 6 3 6 C3 6.99 3 7.98 3 9 C3.66 9 4.32 9 5 9 C5 9.99 5 10.98 5 12 C3 11 1 10 -1 9 C-1 8.01 -1 7.02 -1 6 C-0.01 6 0.98 6 2 6 C2 5.01 2 4.02 2 3 C1.34 3 0.68 3 0 3 C0 2.01 0 1.02 0 0 Z M-13 6 C-12.01 6 -11.02 6 -10 6 C-10 6.99 -10 7.98 -10 9 C-9.01 9 -8.02 9 -7 9 C-7 8.01 -7 7.02 -7 6 C-6.01 6 -5.02 6 -4 6 C-4 6.99 -4 7.98 -4 9 C-3.01 9 -2.02 9 -1 9 C-1.33 10.32 -1.66 11.64 -2 13 C-2.66 13 -3.32 13 -4 13 C-4 12.01 -4 11.02 -4 10 C-4.99 10 -5.98 10 -7 10 C-7 10.66 -7 11.32 -7 12 C-7.99 12 -8.98 12 -10 12 C-10 11.34 -10 10.68 -10 10 C-10.99 10 -11.98 10 -13 10 C-13 10.99 -13 11.98 -13 13 C-14.32 13 -15.64 13 -17 13 C-17 11.68 -17 10.36 -17 9 C-15.68 9 -14.36 9 -13 9 C-13 8.01 -13 7.02 -13 6 Z " fill="#2E2E2D" transform="translate(119,109)"/>
<path d="M0 0 C0.99 0 1.98 0 3 0 C3 0.66 3 1.32 3 2 C3.99 2 4.98 2 6 2 C6 1.34 6 0.68 6 0 C6.99 0 7.98 0 9 0 C9 0.99 9 1.98 9 3 C9.99 3 10.98 3 12 3 C12 3.99 12 4.98 12 6 C11.01 6 10.02 6 9 6 C9 6.99 9 7.98 9 9 C9.99 9 10.98 9 12 9 C12 10.98 12 12.96 12 15 C11.01 15 10.02 15 9 15 C9 14.01 9 13.02 9 12 C8.01 12 7.02 12 6 12 C6 12.99 6 13.98 6 15 C5.01 15 4.02 15 3 15 C3 13.02 3 11.04 3 9 C3.99 9 4.98 9 6 9 C6 8.01 6 7.02 6 6 C5.01 6 4.02 6 3 6 C3 5.01 3 4.02 3 3 C2.01 3 1.02 3 0 3 C0 2.01 0 1.02 0 0 Z " fill="#393939" transform="translate(26,39)"/>
<path d="M0 0 C0.99 0 1.98 0 3 0 C3 0.66 3 1.32 3 2 C3.99 2 4.98 2 6 2 C6 1.34 6 0.68 6 0 C6.99 0 7.98 0 9 0 C9 1.98 9 3.96 9 6 C9.99 6 10.98 6 12 6 C12 6.99 12 7.98 12 9 C11.01 9 10.02 9 9 9 C9 9.99 9 10.98 9 12 C7.02 12 5.04 12 3 12 C3 11.01 3 10.02 3 9 C2.01 9 1.02 9 0 9 C0 6.03 0 3.06 0 0 Z " fill="#3D3D3D" transform="translate(42,23)"/>
<path d="M0 0 C0.99 0 1.98 0 3 0 C3 0.99 3 1.98 3 3 C3.99 3 4.98 3 6 3 C6 3.99 6 4.98 6 6 C6.99 6 7.98 6 9 6 C9 5.34 9 4.68 9 4 C9.99 4 10.98 4 12 4 C11.67 4.99 11.34 5.98 11 7 C10.34 7 9.68 7 9 7 C9 7.99 9 8.98 9 10 C9.99 10 10.98 10 12 10 C12 10.99 12 11.98 12 13 C11.01 13 10.02 13 9 13 C9 13.99 9 14.98 9 16 C8.01 16 7.02 16 6 16 C6 15.01 6 14.02 6 13 C5.01 13 4.02 13 3 13 C3 12.01 3 11.02 3 10 C2.01 10 1.02 10 0 10 C0 9.01 0 8.02 0 7 C0.99 7 1.98 7 3 7 C3 6.01 3 5.02 3 4 C1.68 4.33 0.36 4.66 -1 5 C-1 2 -1 2 0 0 Z " fill="#4C4C4B" transform="translate(58,3)"/>
<path d="M0 0 C0.99 0 1.98 0 3 0 C3 0.99 3 1.98 3 3 C3.99 3 4.98 3 6 3 C6 2.01 6 1.02 6 0 C6.99 0 7.98 0 9 0 C9 0.99 9 1.98 9 3 C9.99 3 10.98 3 12 3 C12 3.99 12 4.98 12 6 C11.01 6 10.02 6 9 6 C9 5.34 9 4.68 9 4 C8.01 4 7.02 4 6 4 C6 4.66 6 5.32 6 6 C5.01 6 4.02 6 3 6 C3 5.34 3 4.68 3 4 C2.01 4 1.02 4 0 4 C0.495 4.433 0.99 4.866 1.5 5.312 C3 7 3 7 3 10 C2.01 10 1.02 10 0 10 C0 9.01 0 8.02 0 7 C-0.99 7 -1.98 7 -3 7 C-3 7.99 -3 8.98 -3 10 C-2.34 10 -1.68 10 -1 10 C-1 10.99 -1 11.98 -1 13 C-1.99 13 -2.98 13 -4 13 C-4 12.01 -4 11.02 -4 10 C-4.99 10 -5.98 10 -7 10 C-7 9.01 -7 8.02 -7 7 C-6.34 6.67 -5.68 6.34 -5 6 C-4.67 5.01 -4.34 4.02 -4 3 C-2.68 3 -1.36 3 0 3 C0 2.01 0 1.02 0 0 Z M12 0 C12.99 0 13.98 0 15 0 C15 0.99 15 1.98 15 3 C14.01 3 13.02 3 12 3 C12 2.01 12 1.02 12 0 Z " fill="#2D2D2D" transform="translate(42,115)"/>
<path d="M0 0 C0.99 0 1.98 0 3 0 C3 0.99 3 1.98 3 3 C3.99 3 4.98 3 6 3 C6 3.99 6 4.98 6 6 C6.99 6 7.98 6 9 6 C9 6.99 9 7.98 9 9 C9.99 9 10.98 9 12 9 C12 9.99 12 10.98 12 12 C11.01 12 10.02 12 9 12 C9 11.34 9 10.68 9 10 C8.01 10 7.02 10 6 10 C6 10.99 6 11.98 6 13 C3.506 11.796 1.319 10.546 -1 9 C-1 8.01 -1 7.02 -1 6 C-0.01 6 0.98 6 2 6 C2 5.01 2 4.02 2 3 C1.34 3 0.68 3 0 3 C0 2.01 0 1.02 0 0 Z M-7 6 C-6.01 6 -5.02 6 -4 6 C-4 6.99 -4 7.98 -4 9 C-3.01 9 -2.02 9 -1 9 C-1 9.99 -1 10.98 -1 12 C-1.99 12 -2.98 12 -4 12 C-4 11.34 -4 10.68 -4 10 C-4.99 10 -5.98 10 -7 10 C-7 8.68 -7 7.36 -7 6 Z " fill="#303030" transform="translate(7,13)"/>
<path d="M0 0 C0 0.99 0 1.98 0 3 C0.99 3 1.98 3 3 3 C3 2.34 3 1.68 3 1 C3.99 1 4.98 1 6 1 C6 2.98 6 4.96 6 7 C6.99 7 7.98 7 9 7 C9 7.99 9 8.98 9 10 C8.01 10 7.02 10 6 10 C6 10.99 6 11.98 6 13 C5.01 13 4.02 13 3 13 C3 11.02 3 9.04 3 7 C-0.118 7.646 -0.118 7.646 -1 10 C-1.99 10 -2.98 10 -4 10 C-4 9.01 -4 8.02 -4 7 C-4.66 7 -5.32 7 -6 7 C-6 4 -6 4 -4.125 1.812 C-2 0 -2 0 0 0 Z " fill="#454545" transform="translate(109,70)"/>
<path d="M0 0 C0 0.66 0 1.32 0 2 C0.99 2 1.98 2 3 2 C3 6.29 3 10.58 3 15 C2.01 15 1.02 15 0 15 C0 14.01 0 13.02 0 12 C-1.98 12 -3.96 12 -6 12 C-6 11.01 -6 10.02 -6 9 C-5.34 9 -4.68 9 -4 9 C-4 8.01 -4 7.02 -4 6 C-4.66 6 -5.32 6 -6 6 C-6 3 -6 3 -4.688 1.312 C-3 0 -3 0 0 0 Z " fill="#3B3B3B" transform="translate(125,7)"/>
<path d="M0 0 C3.3 0 6.6 0 10 0 C10 0.99 10 1.98 10 3 C10.99 3 11.98 3 13 3 C13 3.99 13 4.98 13 6 C12.01 6 11.02 6 10 6 C10 6.99 10 7.98 10 9 C9.01 9 8.02 9 7 9 C7 8.34 7 7.68 7 7 C6.01 7 5.02 7 4 7 C3.67 7.99 3.34 8.98 3 10 C2.34 10 1.68 10 1 10 C1 10.99 1 11.98 1 13 C0.01 13 -0.98 13 -2 13 C-2 10 -2 10 -0.125 7.812 C2 6 2 6 4 6 C4 5.01 4 4.02 4 3 C3.01 3 2.02 3 1 3 C0.67 3.99 0.34 4.98 0 6 C-0.66 6 -1.32 6 -2 6 C-2 5.01 -2 4.02 -2 3 C-1.34 3 -0.68 3 0 3 C0 2.01 0 1.02 0 0 Z " fill="#4B4B4B" transform="translate(9,0)"/>
<path d="M0 0 C0.99 0 1.98 0 3 0 C3 0.66 3 1.32 3 2 C3.99 2 4.98 2 6 2 C6 1.34 6 0.68 6 0 C6.99 0 7.98 0 9 0 C9 1.98 9 3.96 9 6 C9.99 6 10.98 6 12 6 C12 6.99 12 7.98 12 9 C7.71 9 3.42 9 -1 9 C-1 8.01 -1 7.02 -1 6 C-1.66 6 -2.32 6 -3 6 C-3 5.01 -3 4.02 -3 3 C-2.01 3 -1.02 3 0 3 C0 2.01 0 1.02 0 0 Z " fill="#3D3D3D" transform="translate(26,119)"/>
<path d="M0 0 C0.99 0 1.98 0 3 0 C3 0.99 3 1.98 3 3 C3.99 3 4.98 3 6 3 C6 3.99 6 4.98 6 6 C5.01 6 4.02 6 3 6 C3 5.34 3 4.68 3 4 C2.01 4 1.02 4 0 4 C0 4.99 0 5.98 0 7 C-0.99 7 -1.98 7 -3 7 C-3 7.99 -3 8.98 -3 10 C-2.01 10 -1.02 10 0 10 C0 10.99 0 11.98 0 13 C0.99 13 1.98 13 3 13 C3 13.99 3 14.98 3 16 C2.01 16 1.02 16 0 16 C0 16.99 0 17.98 0 19 C-0.99 19 -1.98 19 -3 19 C-3 18.01 -3 17.02 -3 16 C-3.99 16 -4.98 16 -6 16 C-6 15.01 -6 14.02 -6 13 C-5.34 13 -4.68 13 -4 13 C-4 12.01 -4 11.02 -4 10 C-4.99 10 -5.98 10 -7 10 C-7 9.01 -7 8.02 -7 7 C-6.01 6.34 -5.02 5.68 -4 5 C-4 4.34 -4 3.68 -4 3 C-2.68 3 -1.36 3 0 3 C0 2.01 0 1.02 0 0 Z " fill="#2F2F2F" transform="translate(93,3)"/>
<path d="M0 0 C0.99 0 1.98 0 3 0 C3 1.98 3 3.96 3 6 C3.99 6 4.98 6 6 6 C6 6.99 6 7.98 6 9 C6.99 9 7.98 9 9 9 C8.67 10.32 8.34 11.64 8 13 C7.34 13 6.68 13 6 13 C6 12.01 6 11.02 6 10 C5.01 10 4.02 10 3 10 C3 10.66 3 11.32 3 12 C2.01 12 1.02 12 0 12 C0 11.01 0 10.02 0 9 C-0.99 9 -1.98 9 -3 9 C-3 7.02 -3 5.04 -3 3 C-2.34 3 -1.68 3 -1 3 C-0.67 2.01 -0.34 1.02 0 0 Z M10 3 C10.66 3 11.32 3 12 3 C12 4.98 12 6.96 12 9 C11.01 9 10.02 9 9 9 C9.33 7.02 9.66 5.04 10 3 Z " fill="#303030" transform="translate(109,77)"/>
<path d="M0 0 C0.99 0 1.98 0 3 0 C3 0.99 3 1.98 3 3 C3.99 3 4.98 3 6 3 C6 3.99 6 4.98 6 6 C5.01 6 4.02 6 3 6 C3 6.99 3 7.98 3 9 C3.99 9 4.98 9 6 9 C6 10.98 6 12.96 6 15 C5.01 15 4.02 15 3 15 C3 14.01 3 13.02 3 12 C2.01 12 1.02 12 0 12 C0 11.01 0 10.02 0 9 C-0.99 9 -1.98 9 -3 9 C-3 8.01 -3 7.02 -3 6 C-3.99 6 -4.98 6 -6 6 C-6 5.01 -6 4.02 -6 3 C-4.02 2.67 -2.04 2.34 0 2 C0 1.34 0 0.68 0 0 Z " fill="#3F3F3F" transform="translate(64,103)"/>
<path d="M0 0 C0.99 0 1.98 0 3 0 C3 0.99 3 1.98 3 3 C3.99 3 4.98 3 6 3 C6 3.99 6 4.98 6 6 C5.01 6 4.02 6 3 6 C3 5.34 3 4.68 3 4 C2.01 4 1.02 4 0 4 C-0.33 4.99 -0.66 5.98 -1 7 C-1.66 7 -2.32 7 -3 7 C-3 7.99 -3 8.98 -3 10 C-2.34 10 -1.68 10 -1 10 C-1 10.99 -1 11.98 -1 13 C-1.66 13 -2.32 13 -3 13 C-3 13.99 -3 14.98 -3 16 C-2.34 16 -1.68 16 -1 16 C-1 16.99 -1 17.98 -1 19 C-1.99 19 -2.98 19 -4 19 C-4 18.01 -4 17.02 -4 16 C-4.99 16 -5.98 16 -7 16 C-7 15.01 -7 14.02 -7 13 C-6.01 13 -5.02 13 -4 13 C-4 12.01 -4 11.02 -4 10 C-4.99 10 -5.98 10 -7 10 C-7 9.01 -7 8.02 -7 7 C-6.34 6.67 -5.68 6.34 -5 6 C-4.67 5.01 -4.34 4.02 -4 3 C-3.01 2.67 -2.02 2.34 -1 2 C-0.67 1.34 -0.34 0.68 0 0 Z M-7 19 C-6.01 19 -5.02 19 -4 19 C-4.33 20.32 -4.66 21.64 -5 23 C-5.66 23 -6.32 23 -7 23 C-7 21.68 -7 20.36 -7 19 Z " fill="#505050" transform="translate(122,3)"/>
<path d="M0 0 C2 0 2 0 3.625 1.312 C5 3 5 3 5 6 C4.34 6 3.68 6 3 6 C3 6.99 3 7.98 3 9 C3.66 9 4.32 9 5 9 C5 9.99 5 10.98 5 12 C4.01 12 3.02 12 2 12 C2 12.99 2 13.98 2 15 C2.99 15.33 3.98 15.66 5 16 C5 16.99 5 17.98 5 19 C4.01 19 3.02 19 2 19 C2 18.01 2 17.02 2 16 C1.01 16 0.02 16 -1 16 C-1 15.01 -1 14.02 -1 13 C-1.99 13 -2.98 13 -4 13 C-4 13.66 -4 14.32 -4 15 C-4.99 14.67 -5.98 14.34 -7 14 C-6.381 13.237 -5.763 12.474 -5.125 11.688 C-2.944 9.004 -2.944 9.004 -1 6 C-0.01 6 0.98 6 2 6 C2 5.01 2 4.02 2 3 C1.34 3 0.68 3 0 3 C0 2.01 0 1.02 0 0 Z " fill="#303030" transform="translate(100,42)"/>
<path d="M0 0 C0 0.66 0 1.32 0 2 C-1.636 3.371 -3.307 4.701 -5 6 C-7.109 7.797 -7.931 8.82 -8.938 11.438 C-10.175 14.422 -11.515 15.953 -14 18 C-14.66 18.144 -15.32 18.289 -16 18.438 C-19.028 19.289 -20.091 21.571 -22 24 C-24.75 25.812 -24.75 25.812 -27 27 C-25.416 23.117 -22.771 20.481 -19.844 17.578 C-19.341 17.073 -18.838 16.568 -18.32 16.048 C-17.26 14.987 -16.197 13.928 -15.132 12.872 C-13.499 11.249 -11.876 9.615 -10.254 7.98 C-9.222 6.95 -8.189 5.92 -7.156 4.891 C-6.67 4.4 -6.183 3.91 -5.682 3.404 C-2.23 0 -2.23 0 0 0 Z " fill="#3A3A3A" transform="translate(70,43)"/>
<path d="M0 0 C0.99 0 1.98 0 3 0 C3 0.99 3 1.98 3 3 C3.99 3 4.98 3 6 3 C6 3.99 6 4.98 6 6 C4.68 6 3.36 6 2 6 C2 5.01 2 4.02 2 3 C1.34 3 0.68 3 0 3 C0 2.01 0 1.02 0 0 Z M-1 6 C-0.01 6 0.98 6 2 6 C2.33 6.99 2.66 7.98 3 9 C2.01 9.33 1.02 9.66 0 10 C0 10.99 0 11.98 0 13 C0.66 13 1.32 13 2 13 C2 13.99 2 14.98 2 16 C1.34 16 0.68 16 0 16 C0 16.99 0 17.98 0 19 C0.66 19 1.32 19 2 19 C2 19.99 2 20.98 2 22 C1.01 22 0.02 22 -1 22 C-1 21.01 -1 20.02 -1 19 C-1.99 19 -2.98 19 -4 19 C-4 18.01 -4 17.02 -4 16 C-3.01 16 -2.02 16 -1 16 C-1 15.01 -1 14.02 -1 13 C-1.99 13 -2.98 13 -4 13 C-4 12.01 -4 11.02 -4 10 C-3.01 10 -2.02 10 -1 10 C-1 8.68 -1 7.36 -1 6 Z " fill="#535353" transform="translate(7,96)"/>
<path d="M0 0 C0.99 0 1.98 0 3 0 C3 0.66 3 1.32 3 2 C3.99 2 4.98 2 6 2 C6 3.32 6 4.64 6 6 C6.99 6 7.98 6 9 6 C9 6.99 9 7.98 9 9 C8.01 9 7.02 9 6 9 C6 9.99 6 10.98 6 12 C5.01 12 4.02 12 3 12 C3 11.01 3 10.02 3 9 C2.01 9 1.02 9 0 9 C0 8.01 0 7.02 0 6 C-0.99 6 -1.98 6 -3 6 C-3 5.01 -3 4.02 -3 3 C-2.01 3 -1.02 3 0 3 C0 2.01 0 1.02 0 0 Z " fill="#333333" transform="translate(109,7)"/>
<path d="M0 0 C0.99 0 1.98 0 3 0 C3 1.32 3 2.64 3 4 C2.01 4 1.02 4 0 4 C0 4.99 0 5.98 0 7 C0.99 7 1.98 7 3 7 C3 7.99 3 8.98 3 10 C3.99 10 4.98 10 6 10 C6 10.99 6 11.98 6 13 C5.01 13 4.02 13 3 13 C3 13.99 3 14.98 3 16 C2.01 16 1.02 16 0 16 C0 15.01 0 14.02 0 13 C-0.99 13 -1.98 13 -3 13 C-3 12.01 -3 11.02 -3 10 C-2.34 10 -1.68 10 -1 10 C-1 9.01 -1 8.02 -1 7 C-1.66 7 -2.32 7 -3 7 C-3 6.01 -3 5.02 -3 4 C-2.34 3.67 -1.68 3.34 -1 3 C-0.67 2.01 -0.34 1.02 0 0 Z " fill="#303030" transform="translate(10,54)"/>
<path d="M0 0 C0 1.32 0 2.64 0 4 C-0.99 4 -1.98 4 -3 4 C-3 4.99 -3 5.98 -3 7 C-2.01 7 -1.02 7 0 7 C0 7.99 0 8.98 0 10 C0.99 10 1.98 10 3 10 C3 10.99 3 11.98 3 13 C2.01 13 1.02 13 0 13 C0 13.99 0 14.98 0 16 C-0.99 16 -1.98 16 -3 16 C-3 15.01 -3 14.02 -3 13 C-3.99 13 -4.98 13 -6 13 C-6 12.01 -6 11.02 -6 10 C-5.34 10 -4.68 10 -4 10 C-4 9.01 -4 8.02 -4 7 C-4.66 7 -5.32 7 -6 7 C-6 4 -6 4 -4.125 1.812 C-2 0 -2 0 0 0 Z " fill="#4E4E4E" transform="translate(61,22)"/>
<path d="M0 0 C4.95 0 9.9 0 15 0 C15 0.99 15 1.98 15 3 C14.01 3 13.02 3 12 3 C12 3.99 12 4.98 12 6 C11.01 6 10.02 6 9 6 C9 5.01 9 4.02 9 3 C8.01 3 7.02 3 6 3 C6 3.99 6 4.98 6 6 C4.68 6 3.36 6 2 6 C2 5.34 2 4.68 2 4 C1.34 4 0.68 4 0 4 C0 2.68 0 1.36 0 0 Z " fill="#363636" transform="translate(103,0)"/>
<path d="M0 0 C0 0.99 0 1.98 0 3 C-0.99 3 -1.98 3 -3 3 C-3 3.99 -3 4.98 -3 6 C-2.01 6 -1.02 6 0 6 C0 6.99 0 7.98 0 9 C0.99 9 1.98 9 3 9 C3 9.99 3 10.98 3 12 C2.01 12 1.02 12 0 12 C0 12.99 0 13.98 0 15 C-0.99 15 -1.98 15 -3 15 C-3 14.01 -3 13.02 -3 12 C-3.99 12 -4.98 12 -6 12 C-6 11.01 -6 10.02 -6 9 C-5.34 9 -4.68 9 -4 9 C-4 8.01 -4 7.02 -4 6 C-4.66 6 -5.32 6 -6 6 C-6 3 -6 3 -4.688 1.312 C-3 0 -3 0 0 0 Z " fill="#4F4F4F" transform="translate(29,55)"/>
<path d="M0 0 C0 0.99 0 1.98 0 3 C-0.99 3 -1.98 3 -3 3 C-3 3.99 -3 4.98 -3 6 C-2.01 6 -1.02 6 0 6 C0 6.99 0 7.98 0 9 C0.99 9 1.98 9 3 9 C3 9.99 3 10.98 3 12 C2.01 12 1.02 12 0 12 C0 12.99 0 13.98 0 15 C-0.99 15 -1.98 15 -3 15 C-3 14.01 -3 13.02 -3 12 C-3.99 12 -4.98 12 -6 12 C-6 11.01 -6 10.02 -6 9 C-5.34 9 -4.68 9 -4 9 C-4 8.01 -4 7.02 -4 6 C-4.66 6 -5.32 6 -6 6 C-6 3 -6 3 -4.688 1.312 C-3 0 -3 0 0 0 Z " fill="#4F4E4E" transform="translate(77,7)"/>
<path d="M0 0 C2.97 0 5.94 0 9 0 C9 0.99 9 1.98 9 3 C8.34 3 7.68 3 7 3 C7.66 4.98 8.32 6.96 9 9 C7.02 8.34 5.04 7.68 3 7 C3 7.66 3 8.32 3 9 C2.01 9 1.02 9 0 9 C0 6.03 0 3.06 0 0 Z " fill="#363636" transform="translate(0,0)"/>
<path d="M0 0 C0.99 0.33 1.98 0.66 3 1 C2.67 1.66 2.34 2.32 2 3 C1.34 3 0.68 3 0 3 C0 3.99 0 4.98 0 6 C0.99 6 1.98 6 3 6 C3 6.99 3 7.98 3 9 C3.99 9 4.98 9 6 9 C6 9.99 6 10.98 6 12 C5.01 12 4.02 12 3 12 C3 12.99 3 13.98 3 15 C2.01 15 1.02 15 0 15 C0 14.01 0 13.02 0 12 C-0.99 12 -1.98 12 -3 12 C-3 11.01 -3 10.02 -3 9 C-2.34 9 -1.68 9 -1 9 C-1 8.01 -1 7.02 -1 6 C-1.66 6 -2.32 6 -3 6 C-3 3 -3 3 -1.5 1.312 C-0.757 0.663 -0.757 0.663 0 0 Z " fill="#4F4F4F" transform="translate(122,55)"/>
</svg>
