<?xml version="1.0" encoding="UTF-8"?>
<!-- Generator: visioncortex VTracer 0.6.4 -->
<svg version="1.1" xmlns="http://www.w3.org/2000/svg" width="512" height="512">
<path d="M0 0 C0.963 0.204 1.926 0.409 2.918 0.619 C8.352 1.863 13.24 3.487 18.248 5.947 C20.611 6.958 22.587 7.078 25.125 6.75 C25.455 7.74 25.785 8.73 26.125 9.75 C29.637 10.98 29.637 10.98 33.125 11.75 C33.125 12.41 33.125 13.07 33.125 13.75 C36.977 16.642 36.977 16.642 41.438 18.312 C42.273 18.529 42.273 18.529 43.125 18.75 C43.455 19.74 43.785 20.73 44.125 21.75 C46.007 23.509 46.007 23.509 48.312 25.188 C49.122 25.799 49.932 26.41 50.766 27.039 C52.675 28.424 54.593 29.766 56.562 31.062 C61.393 34.244 65.446 38.944 69.438 43.125 C71.203 44.895 71.203 44.895 73.75 46.688 C76.125 48.75 76.125 48.75 76.625 50.812 C76.96 53.049 76.96 53.049 79.625 54.25 C82.645 56.062 82.326 56.553 83.125 59.75 C84.783 60.764 86.452 61.761 88.125 62.75 C90.839 65.479 92.893 68.054 94.125 71.75 C95.362 72.988 95.362 72.988 96.625 74.25 C99.125 76.75 99.125 76.75 100.125 79.75 C100.785 80.08 101.445 80.41 102.125 80.75 C102.455 81.74 102.785 82.73 103.125 83.75 C103.764 84.369 104.404 84.987 105.062 85.625 C107.125 87.75 107.125 87.75 108.062 90.188 C109.024 92.967 109.024 92.967 111.625 95.25 C114.173 97.798 114.862 99.466 116.125 102.75 C117.437 104.104 118.771 105.437 120.125 106.75 C121.895 109.438 123.105 111.691 124.125 114.75 C125.103 115.772 126.106 116.77 127.125 117.75 C128.834 119.788 129.995 121.215 130.625 123.812 C131.251 126.237 132.358 127.004 134.125 128.75 C134.916 129.862 135.672 130.999 136.395 132.156 C136.805 132.812 137.216 133.468 137.639 134.144 C138.068 134.839 138.496 135.534 138.938 136.25 C139.383 136.968 139.829 137.687 140.288 138.427 C143.247 143.23 146.039 148.095 148.68 153.082 C150.894 157.17 153.306 161.14 155.707 165.121 C157.125 167.75 157.125 167.75 157.637 169.91 C158.259 172.256 159.412 173.05 161.125 174.75 C162.16 176.637 163.134 178.558 164.062 180.5 C165.744 183.959 167.422 187.374 169.375 190.688 C171.125 193.75 171.125 193.75 171.977 195.973 C173.744 200.248 176.083 204.211 178.379 208.223 C180.393 211.875 181.626 214.548 181.125 218.75 C181.785 218.75 182.445 218.75 183.125 218.75 C183.918 220.479 184.709 222.208 185.5 223.938 C185.941 224.9 186.382 225.863 186.836 226.855 C187.632 228.644 188.4 230.445 189.121 232.266 C190.621 235.977 192.431 239.538 194.199 243.129 C195.184 245.918 195.177 247.04 194.125 249.75 C195.115 250.08 196.105 250.41 197.125 250.75 C197.851 253.065 198.509 255.403 199.125 257.75 C199.62 258.699 200.115 259.647 200.625 260.625 C202.924 265.414 204.125 270.431 204.125 275.75 C204.62 276.183 205.115 276.616 205.625 277.062 C207.125 278.75 207.125 278.75 207.312 281.938 C207.251 282.866 207.189 283.794 207.125 284.75 C207.785 284.75 208.445 284.75 209.125 284.75 C211.421 296.272 211.421 296.272 211.125 301.75 C211.785 301.75 212.445 301.75 213.125 301.75 C214.518 306.176 215.317 309.604 214.691 314.219 C213.981 320.443 213.978 326.616 214 332.875 C213.996 334.003 213.992 335.131 213.988 336.293 C213.994 341.012 214.022 345.631 214.688 350.309 C215.233 354.602 214.589 356.764 213.125 360.75 C212.795 361.08 212.465 361.41 212.125 361.75 C211.999 362.634 211.872 363.519 211.742 364.43 C211.077 368.01 209.911 370.644 208.25 373.875 C207.737 374.888 207.224 375.901 206.695 376.945 C204.948 380.067 203.145 382.771 200.562 385.25 C198.928 386.955 198.124 388.62 197.125 390.75 C195.125 393.75 195.125 393.75 192.562 394.75 C191.758 395.08 190.954 395.41 190.125 395.75 C189.795 396.74 189.465 397.73 189.125 398.75 C188.465 399.08 187.805 399.41 187.125 399.75 C186.465 400.41 185.805 401.07 185.125 401.75 C183.768 402.552 182.39 403.319 181 404.062 C178.089 405.64 175.305 407.274 172.562 409.125 C154.304 420.678 132.872 424.983 111.75 427.375 C110.664 427.498 109.578 427.621 108.459 427.748 C92.716 429.436 77.063 429.9 61.248 429.895 C59.318 429.898 57.387 429.902 55.456 429.905 C50.261 429.914 45.067 429.917 39.872 429.917 C36.61 429.918 33.349 429.92 30.088 429.923 C18.666 429.932 7.244 429.936 -4.178 429.935 C-14.752 429.935 -25.326 429.945 -35.9 429.961 C-45.038 429.974 -54.176 429.979 -63.314 429.979 C-68.745 429.979 -74.175 429.981 -79.606 429.992 C-181.756 430.18 -181.756 430.18 -220.141 402.879 C-221.99 401.572 -221.99 401.572 -224.875 400.75 C-225.205 400.09 -225.535 399.43 -225.875 398.75 C-226.853 397.728 -227.856 396.73 -228.875 395.75 C-229.349 395.255 -229.824 394.76 -230.312 394.25 C-231.893 392.658 -231.893 392.658 -234 391.25 C-235.875 389.75 -235.875 389.75 -236.875 386.75 C-237.865 385.74 -238.867 384.742 -239.875 383.75 C-244.763 377.074 -249.875 369.343 -249.875 360.75 C-250.865 359.265 -250.865 359.265 -251.875 357.75 C-252.858 353.015 -252.667 349.461 -251.875 344.75 C-251.787 342.766 -251.744 340.779 -251.742 338.793 C-251.741 337.68 -251.74 336.567 -251.738 335.42 C-251.742 334.271 -251.746 333.122 -251.75 331.938 C-251.746 330.8 -251.742 329.662 -251.738 328.49 C-251.744 323.507 -251.814 318.624 -252.434 313.676 C-252.937 309.199 -252.511 306.883 -250.875 302.75 C-250.215 302.42 -249.555 302.09 -248.875 301.75 C-248.898 301.193 -248.921 300.636 -248.945 300.062 C-249.075 294.574 -248.408 290.021 -246.875 284.75 C-246.215 284.75 -245.555 284.75 -244.875 284.75 C-244.751 283.616 -244.627 282.481 -244.5 281.312 C-244.294 280.137 -244.088 278.961 -243.875 277.75 C-243.215 277.42 -242.555 277.09 -241.875 276.75 C-242.088 276.223 -242.3 275.696 -242.52 275.152 C-243.029 271.71 -241.874 269.509 -240.562 266.312 C-240.113 265.2 -239.663 264.088 -239.199 262.941 C-238.762 261.888 -238.325 260.835 -237.875 259.75 C-237.522 258.853 -237.169 257.956 -236.805 257.031 C-235.875 254.75 -235.875 254.75 -234.312 251.688 C-232.866 248.996 -232.866 248.996 -232.426 246.91 C-231.742 244.227 -230.707 241.798 -229.625 239.25 C-228.241 235.987 -226.865 232.725 -225.539 229.438 C-225.114 228.386 -224.688 227.334 -224.25 226.25 C-223.866 225.291 -223.482 224.332 -223.086 223.344 C-221.875 220.75 -221.875 220.75 -220.352 218.781 C-218.505 216.24 -217.835 213.736 -216.875 210.75 C-215.808 208.482 -214.702 206.233 -213.562 204 C-212.936 202.768 -212.31 201.537 -211.684 200.305 C-211.087 199.132 -210.49 197.959 -209.875 196.75 C-208.584 194.114 -207.296 191.477 -206.016 188.836 C-204.813 186.636 -203.387 184.745 -201.875 182.75 C-201.201 181.086 -200.535 179.419 -199.875 177.75 C-196.481 171.356 -196.481 171.356 -194.875 169.75 C-194.513 168.424 -194.178 167.091 -193.875 165.75 C-192.555 165.75 -191.235 165.75 -189.875 165.75 C-190.098 165.019 -190.321 164.288 -190.551 163.535 C-190.962 160.004 -190.15 158.998 -188.062 156.188 C-186.055 153.436 -184.332 150.829 -182.875 147.75 C-178.74 139.824 -173.919 132.306 -169.137 124.761 C-168.252 123.351 -167.381 121.933 -166.52 120.508 C-166.08 119.785 -165.64 119.062 -165.188 118.316 C-164.792 117.657 -164.396 116.998 -163.988 116.319 C-162.875 114.75 -162.875 114.75 -160.875 113.75 C-160.185 112.093 -159.522 110.424 -158.875 108.75 C-156.25 103.938 -156.25 103.938 -153.875 102.75 C-153.586 101.987 -153.298 101.224 -153 100.438 C-151.741 97.431 -150.194 95.996 -147.875 93.75 C-147.173 92.435 -146.51 91.099 -145.875 89.75 C-142.218 83.921 -142.218 83.921 -139.875 82.75 C-139.205 81.419 -138.539 80.085 -137.875 78.75 C-136.404 76.656 -134.916 74.603 -133.375 72.562 C-132.972 72.017 -132.568 71.471 -132.152 70.908 C-129.123 66.874 -129.123 66.874 -126.875 65.75 C-126.215 66.08 -125.555 66.41 -124.875 66.75 C-124.607 65.616 -124.339 64.481 -124.062 63.312 C-123.475 61.549 -123.475 61.549 -122.875 59.75 C-121.885 59.42 -120.895 59.09 -119.875 58.75 C-119.689 57.822 -119.689 57.822 -119.5 56.875 C-118.596 53.802 -116.546 53.353 -113.875 51.75 C-113.503 50.427 -113.169 49.093 -112.875 47.75 C-110.937 46.125 -110.937 46.125 -108.875 44.75 C-107.885 43.76 -107.885 43.76 -106.875 42.75 C-99.875 35.75 -99.875 35.75 -98.312 34.25 C-96.772 32.791 -96.772 32.791 -95.875 30.75 C-95.322 30.651 -94.769 30.551 -94.199 30.449 C-90.695 29.395 -88.365 26.954 -85.688 24.562 C-72.445 13.095 -58.008 4.753 -40.875 0.75 C-39.733 0.452 -38.591 0.154 -37.414 -0.152 C-24.363 -3.334 -12.992 -2.758 0 0 Z M179.125 214.75 C180.125 216.75 180.125 216.75 180.125 216.75 Z M182.125 220.75 C183.125 222.75 183.125 222.75 183.125 222.75 Z M199.125 261.75 C200.125 263.75 200.125 263.75 200.125 263.75 Z M-241.875 273.75 C-240.875 275.75 -240.875 275.75 -240.875 275.75 Z M205.125 279.75 C206.125 281.75 206.125 281.75 206.125 281.75 Z M-250.875 305.75 C-249.875 308.75 -249.875 308.75 -249.875 308.75 Z M212.125 305.75 C213.125 308.75 213.125 308.75 213.125 308.75 Z M-251.875 309.75 C-250.875 313.75 -250.875 313.75 -250.875 313.75 Z M213.125 309.75 C214.125 313.75 214.125 313.75 214.125 313.75 Z M-251.875 350.75 C-250.875 353.75 -250.875 353.75 -250.875 353.75 Z M213.125 350.75 C214.125 353.75 214.125 353.75 214.125 353.75 Z M212.125 354.75 C213.125 356.75 213.125 356.75 213.125 356.75 Z M-247.875 364.75 C-246.875 366.75 -246.875 366.75 -246.875 366.75 Z M209.125 364.75 C210.125 366.75 210.125 366.75 210.125 366.75 Z " fill="#EBEBEB" transform="translate(274.875,42.25)"/>
<path d="M0 0 C0.963 0.204 1.926 0.409 2.918 0.619 C8.352 1.863 13.24 3.487 18.248 5.947 C20.611 6.958 22.587 7.078 25.125 6.75 C25.455 7.74 25.785 8.73 26.125 9.75 C29.637 10.98 29.637 10.98 33.125 11.75 C33.125 12.41 33.125 13.07 33.125 13.75 C36.977 16.642 36.977 16.642 41.438 18.312 C42.273 18.529 42.273 18.529 43.125 18.75 C43.455 19.74 43.785 20.73 44.125 21.75 C46.007 23.509 46.007 23.509 48.312 25.188 C49.122 25.799 49.932 26.41 50.766 27.039 C52.675 28.424 54.593 29.766 56.562 31.062 C61.393 34.244 65.446 38.944 69.438 43.125 C71.203 44.895 71.203 44.895 73.75 46.688 C76.125 48.75 76.125 48.75 76.625 50.812 C76.96 53.049 76.96 53.049 79.625 54.25 C82.645 56.062 82.326 56.553 83.125 59.75 C84.783 60.764 86.452 61.761 88.125 62.75 C90.839 65.479 92.893 68.054 94.125 71.75 C95.362 72.988 95.362 72.988 96.625 74.25 C99.125 76.75 99.125 76.75 100.125 79.75 C100.785 80.08 101.445 80.41 102.125 80.75 C102.455 81.74 102.785 82.73 103.125 83.75 C103.764 84.369 104.404 84.987 105.062 85.625 C107.125 87.75 107.125 87.75 108.062 90.188 C109.024 92.967 109.024 92.967 111.625 95.25 C114.173 97.798 114.862 99.466 116.125 102.75 C117.437 104.104 118.771 105.437 120.125 106.75 C121.895 109.438 123.105 111.691 124.125 114.75 C125.103 115.772 126.106 116.77 127.125 117.75 C128.834 119.788 129.995 121.215 130.625 123.812 C131.251 126.237 132.358 127.004 134.125 128.75 C134.916 129.862 135.672 130.999 136.395 132.156 C136.805 132.812 137.216 133.468 137.639 134.144 C138.068 134.839 138.496 135.534 138.938 136.25 C139.383 136.968 139.829 137.687 140.288 138.427 C143.247 143.23 146.039 148.095 148.68 153.082 C150.894 157.17 153.306 161.14 155.707 165.121 C157.125 167.75 157.125 167.75 157.637 169.91 C158.259 172.256 159.412 173.05 161.125 174.75 C162.16 176.637 163.134 178.558 164.062 180.5 C165.744 183.959 167.422 187.374 169.375 190.688 C171.125 193.75 171.125 193.75 171.977 195.973 C173.744 200.248 176.083 204.211 178.379 208.223 C180.393 211.875 181.626 214.548 181.125 218.75 C181.785 218.75 182.445 218.75 183.125 218.75 C183.918 220.479 184.709 222.208 185.5 223.938 C185.941 224.9 186.382 225.863 186.836 226.855 C187.632 228.644 188.4 230.445 189.121 232.266 C190.621 235.977 192.431 239.538 194.199 243.129 C195.184 245.918 195.177 247.04 194.125 249.75 C195.115 250.08 196.105 250.41 197.125 250.75 C197.851 253.065 198.509 255.403 199.125 257.75 C199.62 258.699 200.115 259.647 200.625 260.625 C202.924 265.414 204.125 270.431 204.125 275.75 C204.62 276.183 205.115 276.616 205.625 277.062 C207.125 278.75 207.125 278.75 207.312 281.938 C207.251 282.866 207.189 283.794 207.125 284.75 C207.785 284.75 208.445 284.75 209.125 284.75 C211.421 296.272 211.421 296.272 211.125 301.75 C211.785 301.75 212.445 301.75 213.125 301.75 C214.518 306.176 215.317 309.604 214.691 314.219 C213.981 320.443 213.978 326.616 214 332.875 C213.996 334.003 213.992 335.131 213.988 336.293 C213.994 341.012 214.022 345.631 214.688 350.309 C215.233 354.602 214.589 356.764 213.125 360.75 C212.795 361.08 212.465 361.41 212.125 361.75 C211.999 362.634 211.872 363.519 211.742 364.43 C211.077 368.01 209.911 370.644 208.25 373.875 C207.737 374.888 207.224 375.901 206.695 376.945 C204.948 380.067 203.145 382.771 200.562 385.25 C198.928 386.955 198.124 388.62 197.125 390.75 C195.125 393.75 195.125 393.75 192.562 394.75 C191.758 395.08 190.954 395.41 190.125 395.75 C189.795 396.74 189.465 397.73 189.125 398.75 C188.465 399.08 187.805 399.41 187.125 399.75 C186.465 400.41 185.805 401.07 185.125 401.75 C183.768 402.552 182.39 403.319 181 404.062 C178.089 405.64 175.305 407.274 172.562 409.125 C154.304 420.678 132.872 424.983 111.75 427.375 C110.664 427.498 109.578 427.621 108.459 427.748 C92.716 429.436 77.063 429.9 61.248 429.895 C59.318 429.898 57.387 429.902 55.456 429.905 C50.261 429.914 45.067 429.917 39.872 429.917 C36.61 429.918 33.349 429.92 30.088 429.923 C18.666 429.932 7.244 429.936 -4.178 429.935 C-14.752 429.935 -25.326 429.945 -35.9 429.961 C-45.038 429.974 -54.176 429.979 -63.314 429.979 C-68.745 429.979 -74.175 429.981 -79.606 429.992 C-181.756 430.18 -181.756 430.18 -220.141 402.879 C-221.99 401.572 -221.99 401.572 -224.875 400.75 C-225.205 400.09 -225.535 399.43 -225.875 398.75 C-226.853 397.728 -227.856 396.73 -228.875 395.75 C-229.349 395.255 -229.824 394.76 -230.312 394.25 C-231.893 392.658 -231.893 392.658 -234 391.25 C-235.875 389.75 -235.875 389.75 -236.875 386.75 C-237.865 385.74 -238.867 384.742 -239.875 383.75 C-244.763 377.074 -249.875 369.343 -249.875 360.75 C-250.865 359.265 -250.865 359.265 -251.875 357.75 C-252.858 353.015 -252.667 349.461 -251.875 344.75 C-251.787 342.766 -251.744 340.779 -251.742 338.793 C-251.741 337.68 -251.74 336.567 -251.738 335.42 C-251.742 334.271 -251.746 333.122 -251.75 331.938 C-251.746 330.8 -251.742 329.662 -251.738 328.49 C-251.744 323.507 -251.814 318.624 -252.434 313.676 C-252.937 309.199 -252.511 306.883 -250.875 302.75 C-250.215 302.42 -249.555 302.09 -248.875 301.75 C-248.898 301.193 -248.921 300.636 -248.945 300.062 C-249.075 294.574 -248.408 290.021 -246.875 284.75 C-246.215 284.75 -245.555 284.75 -244.875 284.75 C-244.751 283.616 -244.627 282.481 -244.5 281.312 C-244.294 280.137 -244.088 278.961 -243.875 277.75 C-243.215 277.42 -242.555 277.09 -241.875 276.75 C-242.088 276.223 -242.3 275.696 -242.52 275.152 C-243.029 271.71 -241.874 269.509 -240.562 266.312 C-240.113 265.2 -239.663 264.088 -239.199 262.941 C-238.762 261.888 -238.325 260.835 -237.875 259.75 C-237.522 258.853 -237.169 257.956 -236.805 257.031 C-235.875 254.75 -235.875 254.75 -234.312 251.688 C-232.866 248.996 -232.866 248.996 -232.426 246.91 C-231.742 244.227 -230.707 241.798 -229.625 239.25 C-228.241 235.987 -226.865 232.725 -225.539 229.438 C-225.114 228.386 -224.688 227.334 -224.25 226.25 C-223.866 225.291 -223.482 224.332 -223.086 223.344 C-221.875 220.75 -221.875 220.75 -220.352 218.781 C-218.505 216.24 -217.835 213.736 -216.875 210.75 C-215.808 208.482 -214.702 206.233 -213.562 204 C-212.936 202.768 -212.31 201.537 -211.684 200.305 C-211.087 199.132 -210.49 197.959 -209.875 196.75 C-208.584 194.114 -207.296 191.477 -206.016 188.836 C-204.813 186.636 -203.387 184.745 -201.875 182.75 C-201.201 181.086 -200.535 179.419 -199.875 177.75 C-196.481 171.356 -196.481 171.356 -194.875 169.75 C-194.513 168.424 -194.178 167.091 -193.875 165.75 C-192.555 165.75 -191.235 165.75 -189.875 165.75 C-190.098 165.019 -190.321 164.288 -190.551 163.535 C-190.962 160.004 -190.15 158.998 -188.062 156.188 C-186.055 153.436 -184.332 150.829 -182.875 147.75 C-178.74 139.824 -173.919 132.306 -169.137 124.761 C-168.252 123.351 -167.381 121.933 -166.52 120.508 C-166.08 119.785 -165.64 119.062 -165.188 118.316 C-164.792 117.657 -164.396 116.998 -163.988 116.319 C-162.875 114.75 -162.875 114.75 -160.875 113.75 C-160.185 112.093 -159.522 110.424 -158.875 108.75 C-156.25 103.938 -156.25 103.938 -153.875 102.75 C-153.586 101.987 -153.298 101.224 -153 100.438 C-151.741 97.431 -150.194 95.996 -147.875 93.75 C-147.173 92.435 -146.51 91.099 -145.875 89.75 C-142.218 83.921 -142.218 83.921 -139.875 82.75 C-139.205 81.419 -138.539 80.085 -137.875 78.75 C-136.404 76.656 -134.916 74.603 -133.375 72.562 C-132.972 72.017 -132.568 71.471 -132.152 70.908 C-129.123 66.874 -129.123 66.874 -126.875 65.75 C-126.215 66.08 -125.555 66.41 -124.875 66.75 C-124.607 65.616 -124.339 64.481 -124.062 63.312 C-123.475 61.549 -123.475 61.549 -122.875 59.75 C-121.885 59.42 -120.895 59.09 -119.875 58.75 C-119.689 57.822 -119.689 57.822 -119.5 56.875 C-118.596 53.802 -116.546 53.353 -113.875 51.75 C-113.503 50.427 -113.169 49.093 -112.875 47.75 C-110.937 46.125 -110.937 46.125 -108.875 44.75 C-107.885 43.76 -107.885 43.76 -106.875 42.75 C-99.875 35.75 -99.875 35.75 -98.312 34.25 C-96.772 32.791 -96.772 32.791 -95.875 30.75 C-95.322 30.651 -94.769 30.551 -94.199 30.449 C-90.695 29.395 -88.365 26.954 -85.688 24.562 C-72.445 13.095 -58.008 4.753 -40.875 0.75 C-39.733 0.452 -38.591 0.154 -37.414 -0.152 C-24.363 -3.334 -12.992 -2.758 0 0 Z M-40.875 12.75 C-41.969 13.079 -43.064 13.407 -44.191 13.746 C-59.352 18.641 -71.139 27.252 -82.875 37.75 C-84.229 38.896 -85.583 40.042 -86.938 41.188 C-90.392 44.232 -93.672 47.443 -96.938 50.688 C-97.42 51.166 -97.903 51.644 -98.401 52.136 C-125.9 79.756 -146.777 113.62 -166.875 146.75 C-167.384 147.583 -167.893 148.416 -168.418 149.274 C-178.285 165.45 -187.182 182.114 -195.921 198.917 C-196.797 200.6 -197.678 202.28 -198.559 203.96 C-211.16 228.055 -221.935 253.028 -230.562 278.812 C-230.929 279.899 -230.929 279.899 -231.303 281.007 C-233.981 289.002 -236.292 297.019 -238.145 305.246 C-238.307 305.964 -238.469 306.681 -238.636 307.421 C-243.553 330.282 -242.411 355.379 -229.72 375.589 C-215.08 397.133 -191.458 408.062 -166.5 413.243 C-153.776 415.631 -141.081 416.772 -128.132 416.757 C-126.961 416.756 -125.789 416.755 -124.582 416.754 C-123.242 416.752 -123.242 416.752 -121.875 416.75 C-121.874 416.065 -121.872 415.38 -121.871 414.674 C-121.833 397.998 -121.774 381.322 -121.691 364.647 C-121.651 356.582 -121.619 348.518 -121.604 340.454 C-121.591 333.424 -121.564 326.394 -121.52 319.365 C-121.498 315.643 -121.482 311.922 -121.483 308.201 C-121.484 304.044 -121.454 299.888 -121.421 295.732 C-121.428 293.885 -121.428 293.885 -121.436 292 C-121.343 284.399 -120.642 280.63 -115.312 275.141 C-109.839 270.797 -106.826 269.501 -99.773 269.476 C-99.057 269.471 -98.341 269.465 -97.604 269.46 C-95.205 269.445 -92.806 269.444 -90.407 269.444 C-88.688 269.436 -86.968 269.428 -85.248 269.418 C-80.574 269.396 -75.9 269.388 -71.226 269.383 C-68.305 269.379 -65.383 269.373 -62.462 269.366 C-52.265 269.341 -42.069 269.328 -31.872 269.324 C-22.376 269.321 -12.88 269.291 -3.383 269.249 C4.775 269.214 12.933 269.199 21.091 269.198 C25.961 269.197 30.831 269.189 35.701 269.16 C40.286 269.134 44.869 269.132 49.454 269.148 C51.132 269.15 52.81 269.143 54.488 269.127 C71.373 268.976 71.373 268.976 78.125 274.75 C82.025 279.126 83.245 283.39 83.283 289.16 C83.298 290.845 83.298 290.845 83.313 292.564 C83.319 293.796 83.324 295.029 83.33 296.3 C83.34 297.597 83.35 298.895 83.36 300.232 C83.387 303.791 83.408 307.351 83.428 310.911 C83.45 314.63 83.478 318.35 83.504 322.07 C83.554 329.114 83.599 336.158 83.642 343.202 C83.692 351.221 83.747 359.24 83.802 367.26 C83.916 383.756 84.023 400.253 84.125 416.75 C87.477 416.773 90.829 416.786 94.181 416.798 C95.124 416.805 96.066 416.811 97.036 416.818 C104.269 416.837 111.066 416.249 118.188 414.938 C119.185 414.772 120.182 414.606 121.209 414.436 C131.913 412.597 142.189 410.057 152.25 405.938 C153.117 405.585 153.983 405.232 154.876 404.869 C175.444 396.331 189.316 383.086 198.125 362.75 C213.553 324.963 195.12 280.539 180.488 245.324 C167.972 216.031 153.402 187.13 137.125 159.75 C136.627 158.905 136.13 158.059 135.617 157.188 C125.702 140.351 115.341 123.78 104.377 107.604 C103.081 105.684 101.798 103.757 100.516 101.828 C94.344 92.62 87.64 84.003 80.554 75.483 C78.661 73.188 76.832 70.845 75 68.5 C61.312 51.376 45.419 35.868 27.125 23.75 C25.994 22.98 25.994 22.98 24.84 22.195 C5.747 9.891 -19.151 5.547 -40.875 12.75 Z M179.125 214.75 C180.125 216.75 180.125 216.75 180.125 216.75 Z M182.125 220.75 C183.125 222.75 183.125 222.75 183.125 222.75 Z M199.125 261.75 C200.125 263.75 200.125 263.75 200.125 263.75 Z M-241.875 273.75 C-240.875 275.75 -240.875 275.75 -240.875 275.75 Z M205.125 279.75 C206.125 281.75 206.125 281.75 206.125 281.75 Z M-250.875 305.75 C-249.875 308.75 -249.875 308.75 -249.875 308.75 Z M212.125 305.75 C213.125 308.75 213.125 308.75 213.125 308.75 Z M-251.875 309.75 C-250.875 313.75 -250.875 313.75 -250.875 313.75 Z M213.125 309.75 C214.125 313.75 214.125 313.75 214.125 313.75 Z M-251.875 350.75 C-250.875 353.75 -250.875 353.75 -250.875 353.75 Z M213.125 350.75 C214.125 353.75 214.125 353.75 214.125 353.75 Z M212.125 354.75 C213.125 356.75 213.125 356.75 213.125 356.75 Z M-247.875 364.75 C-246.875 366.75 -246.875 366.75 -246.875 366.75 Z M209.125 364.75 C210.125 366.75 210.125 366.75 210.125 366.75 Z " fill="#314723" transform="translate(274.875,42.25)"/>
<path d="M0 0 C0.963 0.204 1.926 0.409 2.918 0.619 C8.352 1.863 13.24 3.487 18.248 5.947 C20.611 6.958 22.587 7.078 25.125 6.75 C25.455 7.74 25.785 8.73 26.125 9.75 C29.637 10.98 29.637 10.98 33.125 11.75 C33.125 12.41 33.125 13.07 33.125 13.75 C36.977 16.642 36.977 16.642 41.438 18.312 C42.273 18.529 42.273 18.529 43.125 18.75 C43.455 19.74 43.785 20.73 44.125 21.75 C46.007 23.509 46.007 23.509 48.312 25.188 C49.122 25.799 49.932 26.41 50.766 27.039 C52.675 28.424 54.593 29.766 56.562 31.062 C61.393 34.244 65.446 38.944 69.438 43.125 C71.203 44.895 71.203 44.895 73.75 46.688 C76.125 48.75 76.125 48.75 76.625 50.812 C76.96 53.049 76.96 53.049 79.625 54.25 C82.645 56.062 82.326 56.553 83.125 59.75 C84.783 60.764 86.452 61.761 88.125 62.75 C90.839 65.479 92.893 68.054 94.125 71.75 C95.362 72.988 95.362 72.988 96.625 74.25 C99.125 76.75 99.125 76.75 100.125 79.75 C100.785 80.08 101.445 80.41 102.125 80.75 C102.455 81.74 102.785 82.73 103.125 83.75 C103.764 84.369 104.404 84.987 105.062 85.625 C107.125 87.75 107.125 87.75 108.062 90.188 C109.024 92.967 109.024 92.967 111.625 95.25 C114.173 97.798 114.862 99.466 116.125 102.75 C117.437 104.104 118.771 105.437 120.125 106.75 C121.895 109.438 123.105 111.691 124.125 114.75 C125.103 115.772 126.106 116.77 127.125 117.75 C128.834 119.788 129.995 121.215 130.625 123.812 C131.251 126.237 132.358 127.004 134.125 128.75 C134.916 129.862 135.672 130.999 136.395 132.156 C136.805 132.812 137.216 133.468 137.639 134.144 C138.068 134.839 138.496 135.534 138.938 136.25 C139.383 136.968 139.829 137.687 140.288 138.427 C143.247 143.23 146.039 148.095 148.68 153.082 C150.894 157.17 153.306 161.14 155.707 165.121 C157.125 167.75 157.125 167.75 157.637 169.91 C158.259 172.256 159.412 173.05 161.125 174.75 C162.16 176.637 163.134 178.558 164.062 180.5 C165.744 183.959 167.422 187.374 169.375 190.688 C171.125 193.75 171.125 193.75 171.977 195.973 C173.744 200.248 176.083 204.211 178.379 208.223 C180.393 211.875 181.626 214.548 181.125 218.75 C181.785 218.75 182.445 218.75 183.125 218.75 C183.918 220.479 184.709 222.208 185.5 223.938 C185.941 224.9 186.382 225.863 186.836 226.855 C187.632 228.644 188.4 230.445 189.121 232.266 C190.621 235.977 192.431 239.538 194.199 243.129 C195.184 245.918 195.177 247.04 194.125 249.75 C195.115 250.08 196.105 250.41 197.125 250.75 C197.851 253.065 198.509 255.403 199.125 257.75 C199.62 258.699 200.115 259.647 200.625 260.625 C202.924 265.414 204.125 270.431 204.125 275.75 C204.62 276.183 205.115 276.616 205.625 277.062 C207.125 278.75 207.125 278.75 207.312 281.938 C207.251 282.866 207.189 283.794 207.125 284.75 C207.785 284.75 208.445 284.75 209.125 284.75 C211.421 296.272 211.421 296.272 211.125 301.75 C211.785 301.75 212.445 301.75 213.125 301.75 C214.518 306.176 215.317 309.604 214.691 314.219 C213.981 320.443 213.978 326.616 214 332.875 C213.996 334.003 213.992 335.131 213.988 336.293 C213.994 341.012 214.022 345.631 214.688 350.309 C215.233 354.602 214.589 356.764 213.125 360.75 C212.795 361.08 212.465 361.41 212.125 361.75 C211.999 362.634 211.872 363.519 211.742 364.43 C211.077 368.01 209.911 370.644 208.25 373.875 C207.737 374.888 207.224 375.901 206.695 376.945 C204.948 380.067 203.145 382.771 200.562 385.25 C198.928 386.955 198.124 388.62 197.125 390.75 C195.125 393.75 195.125 393.75 192.562 394.75 C191.758 395.08 190.954 395.41 190.125 395.75 C189.795 396.74 189.465 397.73 189.125 398.75 C188.465 399.08 187.805 399.41 187.125 399.75 C186.465 400.41 185.805 401.07 185.125 401.75 C183.768 402.552 182.39 403.319 181 404.062 C178.089 405.64 175.305 407.274 172.562 409.125 C154.304 420.678 132.872 424.983 111.75 427.375 C110.664 427.498 109.578 427.621 108.459 427.748 C92.716 429.436 77.063 429.9 61.248 429.895 C59.318 429.898 57.387 429.902 55.456 429.905 C50.261 429.914 45.067 429.917 39.872 429.917 C36.61 429.918 33.349 429.92 30.088 429.923 C18.666 429.932 7.244 429.936 -4.178 429.935 C-14.752 429.935 -25.326 429.945 -35.9 429.961 C-45.038 429.974 -54.176 429.979 -63.314 429.979 C-68.745 429.979 -74.175 429.981 -79.606 429.992 C-181.756 430.18 -181.756 430.18 -220.141 402.879 C-221.99 401.572 -221.99 401.572 -224.875 400.75 C-225.205 400.09 -225.535 399.43 -225.875 398.75 C-226.853 397.728 -227.856 396.73 -228.875 395.75 C-229.349 395.255 -229.824 394.76 -230.312 394.25 C-231.893 392.658 -231.893 392.658 -234 391.25 C-235.875 389.75 -235.875 389.75 -236.875 386.75 C-237.865 385.74 -238.867 384.742 -239.875 383.75 C-244.763 377.074 -249.875 369.343 -249.875 360.75 C-250.865 359.265 -250.865 359.265 -251.875 357.75 C-252.858 353.015 -252.667 349.461 -251.875 344.75 C-251.787 342.766 -251.744 340.779 -251.742 338.793 C-251.741 337.68 -251.74 336.567 -251.738 335.42 C-251.742 334.271 -251.746 333.122 -251.75 331.938 C-251.746 330.8 -251.742 329.662 -251.738 328.49 C-251.744 323.507 -251.814 318.624 -252.434 313.676 C-252.937 309.199 -252.511 306.883 -250.875 302.75 C-250.215 302.42 -249.555 302.09 -248.875 301.75 C-248.898 301.193 -248.921 300.636 -248.945 300.062 C-249.075 294.574 -248.408 290.021 -246.875 284.75 C-246.215 284.75 -245.555 284.75 -244.875 284.75 C-244.751 283.616 -244.627 282.481 -244.5 281.312 C-244.294 280.137 -244.088 278.961 -243.875 277.75 C-243.215 277.42 -242.555 277.09 -241.875 276.75 C-242.088 276.223 -242.3 275.696 -242.52 275.152 C-243.029 271.71 -241.874 269.509 -240.562 266.312 C-240.113 265.2 -239.663 264.088 -239.199 262.941 C-238.762 261.888 -238.325 260.835 -237.875 259.75 C-237.522 258.853 -237.169 257.956 -236.805 257.031 C-235.875 254.75 -235.875 254.75 -234.312 251.688 C-232.866 248.996 -232.866 248.996 -232.426 246.91 C-231.742 244.227 -230.707 241.798 -229.625 239.25 C-228.241 235.987 -226.865 232.725 -225.539 229.438 C-225.114 228.386 -224.688 227.334 -224.25 226.25 C-223.866 225.291 -223.482 224.332 -223.086 223.344 C-221.875 220.75 -221.875 220.75 -220.352 218.781 C-218.505 216.24 -217.835 213.736 -216.875 210.75 C-215.808 208.482 -214.702 206.233 -213.562 204 C-212.936 202.768 -212.31 201.537 -211.684 200.305 C-211.087 199.132 -210.49 197.959 -209.875 196.75 C-208.584 194.114 -207.296 191.477 -206.016 188.836 C-204.813 186.636 -203.387 184.745 -201.875 182.75 C-201.201 181.086 -200.535 179.419 -199.875 177.75 C-196.481 171.356 -196.481 171.356 -194.875 169.75 C-194.513 168.424 -194.178 167.091 -193.875 165.75 C-192.555 165.75 -191.235 165.75 -189.875 165.75 C-190.098 165.019 -190.321 164.288 -190.551 163.535 C-190.962 160.004 -190.15 158.998 -188.062 156.188 C-186.055 153.436 -184.332 150.829 -182.875 147.75 C-178.74 139.824 -173.919 132.306 -169.137 124.761 C-168.252 123.351 -167.381 121.933 -166.52 120.508 C-166.08 119.785 -165.64 119.062 -165.188 118.316 C-164.792 117.657 -164.396 116.998 -163.988 116.319 C-162.875 114.75 -162.875 114.75 -160.875 113.75 C-160.185 112.093 -159.522 110.424 -158.875 108.75 C-156.25 103.938 -156.25 103.938 -153.875 102.75 C-153.586 101.987 -153.298 101.224 -153 100.438 C-151.741 97.431 -150.194 95.996 -147.875 93.75 C-147.173 92.435 -146.51 91.099 -145.875 89.75 C-142.218 83.921 -142.218 83.921 -139.875 82.75 C-139.205 81.419 -138.539 80.085 -137.875 78.75 C-136.404 76.656 -134.916 74.603 -133.375 72.562 C-132.972 72.017 -132.568 71.471 -132.152 70.908 C-129.123 66.874 -129.123 66.874 -126.875 65.75 C-126.215 66.08 -125.555 66.41 -124.875 66.75 C-124.607 65.616 -124.339 64.481 -124.062 63.312 C-123.475 61.549 -123.475 61.549 -122.875 59.75 C-121.885 59.42 -120.895 59.09 -119.875 58.75 C-119.689 57.822 -119.689 57.822 -119.5 56.875 C-118.596 53.802 -116.546 53.353 -113.875 51.75 C-113.503 50.427 -113.169 49.093 -112.875 47.75 C-110.937 46.125 -110.937 46.125 -108.875 44.75 C-107.885 43.76 -107.885 43.76 -106.875 42.75 C-99.875 35.75 -99.875 35.75 -98.312 34.25 C-96.772 32.791 -96.772 32.791 -95.875 30.75 C-95.322 30.651 -94.769 30.551 -94.199 30.449 C-90.695 29.395 -88.365 26.954 -85.688 24.562 C-72.445 13.095 -58.008 4.753 -40.875 0.75 C-39.733 0.452 -38.591 0.154 -37.414 -0.152 C-24.363 -3.334 -12.992 -2.758 0 0 Z M-40.875 12.75 C-41.969 13.079 -43.064 13.407 -44.191 13.746 C-59.352 18.641 -71.139 27.252 -82.875 37.75 C-84.229 38.896 -85.583 40.042 -86.938 41.188 C-90.392 44.232 -93.672 47.443 -96.938 50.688 C-97.42 51.166 -97.903 51.644 -98.401 52.136 C-125.9 79.756 -146.777 113.62 -166.875 146.75 C-167.384 147.583 -167.893 148.416 -168.418 149.274 C-178.285 165.45 -187.182 182.114 -195.921 198.917 C-196.797 200.6 -197.678 202.28 -198.559 203.96 C-211.16 228.055 -221.935 253.028 -230.562 278.812 C-230.929 279.899 -230.929 279.899 -231.303 281.007 C-233.981 289.002 -236.292 297.019 -238.145 305.246 C-238.307 305.964 -238.469 306.681 -238.636 307.421 C-243.553 330.282 -242.411 355.379 -229.72 375.589 C-215.08 397.133 -191.458 408.062 -166.5 413.243 C-153.776 415.631 -141.081 416.772 -128.132 416.757 C-126.961 416.756 -125.789 416.755 -124.582 416.754 C-123.242 416.752 -123.242 416.752 -121.875 416.75 C-121.874 416.065 -121.872 415.38 -121.871 414.674 C-121.833 397.998 -121.774 381.322 -121.691 364.647 C-121.651 356.582 -121.619 348.518 -121.604 340.454 C-121.591 333.424 -121.564 326.394 -121.52 319.365 C-121.498 315.643 -121.482 311.922 -121.483 308.201 C-121.484 304.044 -121.454 299.888 -121.421 295.732 C-121.428 293.885 -121.428 293.885 -121.436 292 C-121.343 284.399 -120.642 280.63 -115.312 275.141 C-109.839 270.797 -106.826 269.501 -99.773 269.476 C-99.057 269.471 -98.341 269.465 -97.604 269.46 C-95.205 269.445 -92.806 269.444 -90.407 269.444 C-88.688 269.436 -86.968 269.428 -85.248 269.418 C-80.574 269.396 -75.9 269.388 -71.226 269.383 C-68.305 269.379 -65.383 269.373 -62.462 269.366 C-52.265 269.341 -42.069 269.328 -31.872 269.324 C-22.376 269.321 -12.88 269.291 -3.383 269.249 C4.775 269.214 12.933 269.199 21.091 269.198 C25.961 269.197 30.831 269.189 35.701 269.16 C40.286 269.134 44.869 269.132 49.454 269.148 C51.132 269.15 52.81 269.143 54.488 269.127 C71.373 268.976 71.373 268.976 78.125 274.75 C82.025 279.126 83.245 283.39 83.283 289.16 C83.298 290.845 83.298 290.845 83.313 292.564 C83.319 293.796 83.324 295.029 83.33 296.3 C83.34 297.597 83.35 298.895 83.36 300.232 C83.387 303.791 83.408 307.351 83.428 310.911 C83.45 314.63 83.478 318.35 83.504 322.07 C83.554 329.114 83.599 336.158 83.642 343.202 C83.692 351.221 83.747 359.24 83.802 367.26 C83.916 383.756 84.023 400.253 84.125 416.75 C87.477 416.773 90.829 416.786 94.181 416.798 C95.124 416.805 96.066 416.811 97.036 416.818 C104.269 416.837 111.066 416.249 118.188 414.938 C119.185 414.772 120.182 414.606 121.209 414.436 C131.913 412.597 142.189 410.057 152.25 405.938 C153.117 405.585 153.983 405.232 154.876 404.869 C175.444 396.331 189.316 383.086 198.125 362.75 C213.553 324.963 195.12 280.539 180.488 245.324 C167.972 216.031 153.402 187.13 137.125 159.75 C136.627 158.905 136.13 158.059 135.617 157.188 C125.702 140.351 115.341 123.78 104.377 107.604 C103.081 105.684 101.798 103.757 100.516 101.828 C94.344 92.62 87.64 84.003 80.554 75.483 C78.661 73.188 76.832 70.845 75 68.5 C61.312 51.376 45.419 35.868 27.125 23.75 C25.994 22.98 25.994 22.98 24.84 22.195 C5.747 9.891 -19.151 5.547 -40.875 12.75 Z M179.125 214.75 C180.125 216.75 180.125 216.75 180.125 216.75 Z M182.125 220.75 C183.125 222.75 183.125 222.75 183.125 222.75 Z M199.125 261.75 C200.125 263.75 200.125 263.75 200.125 263.75 Z M-241.875 273.75 C-240.875 275.75 -240.875 275.75 -240.875 275.75 Z M-110.875 284.75 C-111.602 287.446 -111.602 287.446 -111.476 290.363 C-111.483 291.478 -111.49 292.593 -111.497 293.742 C-111.479 294.961 -111.461 296.179 -111.443 297.435 C-111.443 298.744 -111.444 300.053 -111.444 301.402 C-111.446 304.936 -111.417 308.47 -111.381 312.004 C-111.353 315.323 -111.352 318.642 -111.348 321.961 C-111.322 331.662 -111.252 341.362 -111.188 351.062 C-111.084 372.739 -110.981 394.416 -110.875 416.75 C-50.155 416.75 10.565 416.75 73.125 416.75 C73.28 384.235 73.28 384.235 73.438 351.062 C73.483 344.217 73.529 337.371 73.575 330.318 C73.592 324.184 73.592 324.184 73.602 318.05 C73.61 315.316 73.626 312.584 73.653 309.851 C73.694 305.712 73.695 301.574 73.693 297.435 C73.711 296.216 73.729 294.998 73.747 293.742 C73.74 292.627 73.733 291.512 73.726 290.363 C73.731 289.394 73.735 288.425 73.74 287.427 C72.853 283.568 71.263 282.11 68.125 279.75 C64.738 279.002 64.738 279.002 60.952 279.115 C59.885 279.103 59.885 279.103 58.796 279.091 C56.418 279.072 54.042 279.087 51.664 279.103 C49.957 279.096 48.25 279.087 46.543 279.076 C41.911 279.054 37.279 279.063 32.647 279.078 C27.799 279.091 22.952 279.079 18.104 279.071 C9.963 279.062 1.822 279.074 -6.318 279.098 C-15.73 279.125 -25.142 279.117 -34.554 279.089 C-42.635 279.066 -50.715 279.063 -58.796 279.076 C-63.623 279.084 -68.449 279.085 -73.275 279.069 C-77.813 279.054 -82.35 279.064 -86.887 279.093 C-88.552 279.1 -90.218 279.098 -91.883 279.087 C-94.157 279.073 -96.428 279.09 -98.702 279.115 C-100.61 279.118 -100.61 279.118 -102.556 279.121 C-106.828 279.931 -108.302 281.288 -110.875 284.75 Z M205.125 279.75 C206.125 281.75 206.125 281.75 206.125 281.75 Z M-250.875 305.75 C-249.875 308.75 -249.875 308.75 -249.875 308.75 Z M212.125 305.75 C213.125 308.75 213.125 308.75 213.125 308.75 Z M-251.875 309.75 C-250.875 313.75 -250.875 313.75 -250.875 313.75 Z M213.125 309.75 C214.125 313.75 214.125 313.75 214.125 313.75 Z M-251.875 350.75 C-250.875 353.75 -250.875 353.75 -250.875 353.75 Z M213.125 350.75 C214.125 353.75 214.125 353.75 214.125 353.75 Z M212.125 354.75 C213.125 356.75 213.125 356.75 213.125 356.75 Z M-247.875 364.75 C-246.875 366.75 -246.875 366.75 -246.875 366.75 Z M209.125 364.75 C210.125 366.75 210.125 366.75 210.125 366.75 Z " fill="#161616" transform="translate(274.875,42.25)"/>
<path d="M0 0 C3.609 2.725 4.785 4.014 5.75 8.438 C4.708 13.386 2.12 15.295 -2 18 C-8.737 22.005 -17.423 21.644 -25 21 C-31.311 19.383 -35.57 16.532 -39 11 C-39.75 8 -39.75 8 -39 5 C-30.356 -6.314 -11.373 -7.235 0 0 Z " fill="#F88B91" transform="translate(354,245)"/>
<path d="M0 0 C3.385 2.542 4.65 4.03 5.695 8.211 C4.458 13.158 2.09 15.097 -2.18 17.711 C-9.58 21.533 -18.561 22.037 -26.613 20.137 C-31.767 18.295 -36.125 16.293 -39.18 11.711 C-39.742 8.398 -39.742 8.398 -39.18 4.711 C-30.417 -7.091 -11.676 -6.905 0 0 Z " fill="#F88A91" transform="translate(192.1796875,245.2890625)"/>
<path d="M0 0 C4.24 3.533 7.996 7.334 8.562 13 C8.135 18.296 6.71 22.546 2.777 26.27 C-1.995 29.462 -7.173 29.795 -12.75 28.875 C-17.883 26.262 -20.93 23.336 -22.75 17.875 C-23.299 13.151 -23.216 9.774 -21 5.5 C-15.45 -0.975 -8.12 -3.322 0 0 Z " fill="#040404" transform="translate(323.75,203.125)"/>
<path d="M0 0 C3.846 1.966 6.139 4.653 8.438 8.25 C9.473 13.312 10.438 18.452 7.797 23.133 C4.562 27.037 1.579 29.547 -3.516 30.441 C-9.036 30.686 -12.335 30.358 -16.625 26.688 C-20.358 23.053 -21.21 19.954 -21.5 14.812 C-21.485 9.089 -19.677 6.444 -15.727 2.461 C-11.276 -1.305 -5.527 -0.748 0 0 Z " fill="#040404" transform="translate(202,202)"/>
<path d="M0 0 C2.438 0.75 2.438 0.75 4.438 2.75 C5.24 4.767 5.894 6.809 6.559 8.875 C7.405 11.103 7.405 11.103 10.438 12.75 C14.028 13.082 16.712 13.003 20.125 11.812 C22.62 9.587 23.219 8.178 24.438 5.125 C26.145 0.903 26.145 0.903 28.938 -0.562 C31.438 -0.25 31.438 -0.25 33.812 1.312 C35.438 3.75 35.438 3.75 35.438 6.5 C33.138 13.974 30.491 18.937 23.438 22.75 C17.51 24.726 10.654 24.936 4.758 22.762 C-1.191 19.207 -4.529 14.343 -6.562 7.75 C-6.562 4.25 -6.562 4.25 -5.562 1.75 C-2.562 -0.25 -2.562 -0.25 0 0 Z " fill="#0A0A0A" transform="translate(241.5625,241.25)"/>
<path d="M0 0 C0.495 1.485 0.495 1.485 1 3 C-2.802 6.852 -6.611 10.697 -10.426 14.536 C-11.723 15.843 -13.019 17.153 -14.313 18.464 C-16.17 20.346 -18.034 22.22 -19.898 24.094 C-20.769 24.98 -20.769 24.98 -21.657 25.883 C-23.067 27.294 -24.529 28.653 -26 30 C-26.66 30 -27.32 30 -28 30 C-28.248 30.619 -28.495 31.237 -28.75 31.875 C-30.206 34.351 -31.378 34.951 -34 36 C-34 35.01 -34 34.02 -34 33 C-32.515 32.505 -32.515 32.505 -31 32 C-30.876 31.381 -30.752 30.763 -30.625 30.125 C-29.721 27.052 -27.671 26.603 -25 25 C-24.628 23.677 -24.294 22.343 -24 21 C-22.062 19.375 -22.062 19.375 -20 18 C-19.34 17.34 -18.68 16.68 -18 16 C-11 9 -11 9 -9.438 7.5 C-7.897 6.041 -7.897 6.041 -7 4 C-6.381 3.856 -5.762 3.711 -5.125 3.562 C-2.633 2.903 -1.667 1.917 0 0 Z " fill="#727273" transform="translate(186,69)"/>
<path d="M0 0 C0.99 0 1.98 0 3 0 C1.756 3.846 -0.083 6.446 -2.719 9.488 C-7.077 14.63 -10.149 20.725 -13.414 26.586 C-13.937 27.383 -14.461 28.179 -15 29 C-15.66 29 -16.32 29 -17 29 C-17.66 30.98 -18.32 32.96 -19 35 C-19.99 34.67 -20.98 34.34 -22 34 C-20.789 30.552 -19.615 28.506 -17 26 C-16.296 24.686 -15.637 23.348 -15 22 C-11.398 15.199 -11.398 15.199 -9 14 C-8.711 13.237 -8.422 12.474 -8.125 11.688 C-6.866 8.681 -5.319 7.246 -3 5 C-1.824 2.9 -1.824 2.9 -1 1 C-0.67 0.67 -0.34 0.34 0 0 Z " fill="#9C9B9B" transform="translate(130,131)"/>
<path d="M0 0 C0.99 0 1.98 0 3 0 C3 1.32 3 2.64 3 4 C2.34 4 1.68 4 1 4 C0.845 4.959 0.845 4.959 0.688 5.938 C-0.24 10.068 -1.628 13.999 -3 18 C-3.564 19.687 -4.127 21.374 -4.688 23.062 C-5.125 24.375 -5.562 25.688 -6 27 C-6.99 26.67 -7.98 26.34 -9 26 C-8.355 22.332 -7.361 18.989 -6.062 15.5 C-5.723 14.582 -5.384 13.664 -5.035 12.719 C-4.051 10.134 -3.035 7.565 -2 5 C-1.629 4.072 -1.258 3.144 -0.875 2.188 C-0.586 1.466 -0.297 0.744 0 0 Z M-8 24 C-7 26 -7 26 -7 26 Z " fill="#868687" transform="translate(41,292)"/>
<path d="M0 0 C0.99 0 1.98 0 3 0 C1.821 3.991 0.505 6.724 -2 10 C-3.051 11.988 -4.033 14.005 -5.016 16.027 C-6.216 18.434 -7.575 20.72 -9 23 C-9.99 22.67 -10.98 22.34 -12 22 C-9.089 14.334 -5.074 6.474 0 0 Z " fill="#8A8B8A" transform="translate(99,178)"/>
<path d="M0 0 C0.33 0 0.66 0 1 0 C1 8.25 1 16.5 1 25 C0.67 25 0.34 25 0 25 C0 16.75 0 8.5 0 0 Z " fill="#555050" transform="translate(21,362)"/>
<path d="M0 0 C0.33 0 0.66 0 1 0 C1 8.25 1 16.5 1 25 C0.67 25 0.34 25 0 25 C0 16.75 0 8.5 0 0 Z " fill="#575555" transform="translate(490,362)"/>
<path d="M0 0 C5.61 0 11.22 0 17 0 C17 0.33 17 0.66 17 1 C11.39 1 5.78 1 0 1 C0 0.67 0 0.34 0 0 Z " fill="#5F5F5F" transform="translate(356,472)"/>
<path d="M0 0 C4.95 0 9.9 0 15 0 C15 0.33 15 0.66 15 1 C10.05 1 5.1 1 0 1 C0 0.67 0 0.34 0 0 Z " fill="#606060" transform="translate(140,472)"/>
<path d="M0 0 C3.3 0 6.6 0 10 0 C10 0.33 10 0.66 10 1 C6.7 1 3.4 1 0 1 C0 0.67 0 0.34 0 0 Z " fill="#6E6E6E" transform="translate(130,471)"/>
<path d="M0 0 C2.97 0 5.94 0 9 0 C9 0.33 9 0.66 9 1 C6.03 1 3.06 1 0 1 C0 0.67 0 0.34 0 0 Z " fill="#6D6D6D" transform="translate(373,471)"/>
<path d="M0 0 C2.31 0 4.62 0 7 0 C7 0.33 7 0.66 7 1 C4.69 1 2.38 1 0 1 C0 0.67 0 0.34 0 0 Z " fill="#747474" transform="translate(382,470)"/>
<path d="M0 0 C2.31 0 4.62 0 7 0 C7 0.33 7 0.66 7 1 C4.69 1 2.38 1 0 1 C0 0.67 0 0.34 0 0 Z " fill="#919191" transform="translate(123,470)"/>
<path d="M0 0 C1.98 0 3.96 0 6 0 C6 0.33 6 0.66 6 1 C4.02 1 2.04 1 0 1 C0 0.67 0 0.34 0 0 Z " fill="#2A3838" transform="translate(408,466)"/>
<path d="M0 0 C1.98 0 3.96 0 6 0 C6 0.33 6 0.66 6 1 C4.02 1 2.04 1 0 1 C0 0.67 0 0.34 0 0 Z " fill="#636363" transform="translate(98,466)"/>
<path d="M0 0 C1.98 0 3.96 0 6 0 C6 0.33 6 0.66 6 1 C4.02 1 2.04 1 0 1 C0 0.67 0 0.34 0 0 Z " fill="#555555" transform="translate(263,39)"/>
<path d="M0 0 C1.65 0 3.3 0 5 0 C5 0.33 5 0.66 5 1 C3.35 1 1.7 1 0 1 C0 0.67 0 0.34 0 0 Z " fill="#7F7F7F" transform="translate(395,469)"/>
<path d="M0 0 C1.65 0 3.3 0 5 0 C5 0.33 5 0.66 5 1 C3.35 1 1.7 1 0 1 C0 0.67 0 0.34 0 0 Z " fill="#323232" transform="translate(113,469)"/>
<path d="M0 0 C1.65 0 3.3 0 5 0 C5 0.33 5 0.66 5 1 C3.35 1 1.7 1 0 1 C0 0.67 0 0.34 0 0 Z " fill="#757575" transform="translate(108,468)"/>
<path d="M0 0 C0.66 0.33 1.32 0.66 2 1 C1.01 1.66 0.02 2.32 -1 3 C-0.67 2.01 -0.34 1.02 0 0 Z " fill="#6A6A6A" transform="translate(149,105)"/>
<path d="M0 0 C1.65 0 3.3 0 5 0 C5 0.33 5 0.66 5 1 C3.35 1 1.7 1 0 1 C0 0.67 0 0.34 0 0 Z " fill="#676767" transform="translate(269,40)"/>
<path d="M0 0 C1.65 0 3.3 0 5 0 C5 0.33 5 0.66 5 1 C3.35 1 1.7 1 0 1 C0 0.67 0 0.34 0 0 Z " fill="#676767" transform="translate(238,40)"/>
<path d="M0 0 C1.65 0 3.3 0 5 0 C5 0.33 5 0.66 5 1 C3.35 1 1.7 1 0 1 C0 0.67 0 0.34 0 0 Z " fill="#666666" transform="translate(243,39)"/>
<path d="M0 0 C4 1 4 1 4 1 Z " fill="#929292" transform="translate(400,468)"/>
<path d="M0 0 C4 1 4 1 4 1 Z " fill="#7E7E7E" transform="translate(404,467)"/>
<path d="M0 0 C4 1 4 1 4 1 Z " fill="#888888" transform="translate(104,467)"/>
<path d="M0 0 C4 1 4 1 4 1 Z " fill="#2E2E2E" transform="translate(221,45)"/>
<path d="M0 0 C4 1 4 1 4 1 Z " fill="#898989" transform="translate(274,41)"/>
<path d="M0 0 C4 1 4 1 4 1 Z " fill="#898989" transform="translate(234,41)"/>
<path d="M0 0 C3 1 3 1 3 1 Z " fill="#636363" transform="translate(417,464)"/>
<path d="M0 0 C3 1 3 1 3 1 Z " fill="#636363" transform="translate(92,464)"/>
<path d="M0 0 C3 1 3 1 3 1 Z " fill="#888888" transform="translate(420,463)"/>
<path d="M0 0 C3 1 3 1 3 1 Z " fill="#888888" transform="translate(89,463)"/>
<path d="M0 0 C3 1 3 1 3 1 Z " fill="#AAAAAA" transform="translate(427,461)"/>
<path d="M0 0 C3 1 3 1 3 1 Z " fill="#AAAAAA" transform="translate(82,461)"/>
<path d="M0 0 C3 1 3 1 3 1 Z " fill="#8D8D8D" transform="translate(446,452)"/>
<path d="M0 0 C3 1 3 1 3 1 Z " fill="#555555" transform="translate(63,452)"/>
<path d="" fill="#545454" transform="translate(0,0)"/>
<path d="" fill="#545454" transform="translate(0,0)"/>
<path d="" fill="#8D8D8D" transform="translate(0,0)"/>
<path d="M0 0 C3 1 3 1 3 1 Z " fill="#1C1C1C" transform="translate(288,45)"/>
<path d="M0 0 C3 1 3 1 3 1 Z " fill="#5D5D5D" transform="translate(283,43)"/>
<path d="M0 0 C3 1 3 1 3 1 Z " fill="#5D5D5D" transform="translate(226,43)"/>
<path d="M0 0 C3 1 3 1 3 1 Z " fill="#545454" transform="translate(280,42)"/>
<path d="M0 0 C3 1 3 1 3 1 Z " fill="#545454" transform="translate(229,42)"/>
<path d="M0 0 C2 1 2 1 2 1 Z " fill="#7F7F7F" transform="translate(415,465)"/>
<path d="M0 0 C2 1 2 1 2 1 Z " fill="#7F7F7F" transform="translate(95,465)"/>
<path d="M0 0 C2 1 2 1 2 1 Z " fill="#7F7F7F" transform="translate(425,462)"/>
<path d="M0 0 C2 1 2 1 2 1 Z " fill="#7F7F7F" transform="translate(85,462)"/>
<path d="M0 0 C2 1 2 1 2 1 Z " fill="#D4D4D4" transform="translate(430,460)"/>
<path d="M0 0 C2 1 2 1 2 1 Z " fill="#D4D4D4" transform="translate(80,460)"/>
<path d="M0 0 C2 1 2 1 2 1 Z " fill="#9F9F9F" transform="translate(435,458)"/>
<path d="M0 0 C2 1 2 1 2 1 Z " fill="#9F9F9F" transform="translate(75,458)"/>
<path d="M0 0 C2 1 2 1 2 1 Z " fill="#AAAAAA" transform="translate(437,457)"/>
<path d="M0 0 C2 1 2 1 2 1 Z " fill="#BFBFBF" transform="translate(73,457)"/>
<path d="M0 0 C2 1 2 1 2 1 Z " fill="#7F7F5F" transform="translate(443,454)"/>
<path d="M0 0 C2 1 2 1 2 1 Z " fill="#6A6A6A" transform="translate(66,453)"/>
<path d="M0 0 C2 1 2 1 2 1 Z " fill="#797979" transform="translate(454,447)"/>
<path d="M0 0 C2 1 2 1 2 1 Z " fill="#799279" transform="translate(56,447)"/>
<path d="M0 0 C2 1 2 1 2 1 Z " fill="#CCCCCC" transform="translate(457,445)"/>
<path d="M0 0 C2 1 2 1 2 1 Z " fill="#CCCCCC" transform="translate(53,445)"/>
<path d="" fill="#AAAAAA" transform="translate(0,0)"/>
<path d="" fill="#7F7F7F" transform="translate(0,0)"/>
<path d="" fill="#7F7F7F" transform="translate(0,0)"/>
<path d="M0 0 C2 1 2 1 2 1 Z " fill="#CFCFCF" transform="translate(329,71)"/>
<path d="M0 0 C2 1 2 1 2 1 Z " fill="#AFAFAF" transform="translate(186,67)"/>
<path d="M0 0 C2 1 2 1 2 1 Z " fill="#BFBFBF" transform="translate(323,66)"/>
<path d="M0 0 C2 1 2 1 2 1 Z " fill="#555555" transform="translate(319,63)"/>
<path d="M0 0 C2 1 2 1 2 1 Z " fill="#555555" transform="translate(191,63)"/>
<path d="M0 0 C2 1 2 1 2 1 Z " fill="#BFBFBF" transform="translate(198,58)"/>
<path d="M0 0 C2 1 2 1 2 1 Z " fill="#A1A1A1" transform="translate(311,57)"/>
<path d="M0 0 C2 1 2 1 2 1 Z " fill="#B6B6B6" transform="translate(301,51)"/>
<path d="M0 0 C2 1 2 1 2 1 Z " fill="#AAAAAA" transform="translate(209,51)"/>
<path d="M0 0 C2 1 2 1 2 1 Z " fill="#929292" transform="translate(295,48)"/>
<path d="M0 0 C2 1 2 1 2 1 Z " fill="#929292" transform="translate(215,48)"/>
<path d="M0 0 C2 1 2 1 2 1 Z " fill="#5F3F3F" transform="translate(293,47)"/>
<path d="M0 0 C2 1 2 1 2 1 Z " fill="#3F3F3F" transform="translate(217,47)"/>
<path d="M0 0 C2 1 2 1 2 1 Z " fill="#9F9F9F" transform="translate(286,44)"/>
<path d="" fill="#000000" transform="translate(0,0)"/>
<path d="" fill="#7F7F7F" transform="translate(0,0)"/>
<path d="" fill="#7F7F7F" transform="translate(0,0)"/>
<path d="" fill="#000000" transform="translate(0,0)"/>
<path d="" fill="#7F7F7F" transform="translate(0,0)"/>
<path d="" fill="#BFBFBF" transform="translate(0,0)"/>
<path d="" fill="#FFFFFF" transform="translate(0,0)"/>
<path d="" fill="#FFFFFF" transform="translate(0,0)"/>
<path d="" fill="#000000" transform="translate(0,0)"/>
<path d="" fill="#AAAAAA" transform="translate(0,0)"/>
<path d="" fill="#7F7F7F" transform="translate(0,0)"/>
<path d="" fill="#7F7F7F" transform="translate(0,0)"/>
<path d="" fill="#B6B6B6" transform="translate(0,0)"/>
<path d="" fill="#B6B6B6" transform="translate(0,0)"/>
<path d="" fill="#7F7F7F" transform="translate(0,0)"/>
<path d="" fill="#7F7F7F" transform="translate(0,0)"/>
<path d="" fill="#000000" transform="translate(0,0)"/>
<path d="" fill="#000000" transform="translate(0,0)"/>
<path d="" fill="#7F7F7F" transform="translate(0,0)"/>
<path d="" fill="#7F7F7F" transform="translate(0,0)"/>
<path d="" fill="#7F7FFF" transform="translate(0,0)"/>
<path d="" fill="#7F7F7F" transform="translate(0,0)"/>
<path d="" fill="#555555" transform="translate(0,0)"/>
<path d="" fill="#555555" transform="translate(0,0)"/>
<path d="" fill="#555555" transform="translate(0,0)"/>
<path d="" fill="#9F9F9F" transform="translate(0,0)"/>
<path d="" fill="#555555" transform="translate(0,0)"/>
<path d="" fill="#AAAAAA" transform="translate(0,0)"/>
<path d="" fill="#AAAAAA" transform="translate(0,0)"/>
<path d="" fill="#AAAAAA" transform="translate(0,0)"/>
<path d="" fill="#999999" transform="translate(0,0)"/>
<path d="" fill="#AAAAAA" transform="translate(0,0)"/>
<path d="" fill="#B69191" transform="translate(0,0)"/>
<path d="" fill="#CCCCCC" transform="translate(0,0)"/>
<path d="" fill="#CCCCCC" transform="translate(0,0)"/>
<path d="" fill="#AAAAAA" transform="translate(0,0)"/>
<path d="" fill="#FFFFFF" transform="translate(0,0)"/>
<path d="" fill="#7F7F7F" transform="translate(0,0)"/>
<path d="" fill="#7F7F7F" transform="translate(0,0)"/>
<path d="" fill="#AAAAAA" transform="translate(0,0)"/>
<path d="" fill="#AAAAAA" transform="translate(0,0)"/>
<path d="" fill="#7F7F7F" transform="translate(0,0)"/>
<path d="" fill="#AAAA55" transform="translate(0,0)"/>
<path d="" fill="#B6B6B6" transform="translate(0,0)"/>
<path d="" fill="#6D6D6D" transform="translate(0,0)"/>
<path d="" fill="#919191" transform="translate(0,0)"/>
<path d="" fill="#555555" transform="translate(0,0)"/>
<path d="" fill="#55AA55" transform="translate(0,0)"/>
<path d="" fill="#AAAAAA" transform="translate(0,0)"/>
<path d="" fill="#BFBFBF" transform="translate(0,0)"/>
<path d="" fill="#BFBFBF" transform="translate(0,0)"/>
<path d="" fill="#555555" transform="translate(0,0)"/>
<path d="" fill="#7F7F7F" transform="translate(0,0)"/>
<path d="" fill="#3F3F3F" transform="translate(0,0)"/>
<path d="" fill="#7F7F7F" transform="translate(0,0)"/>
<path d="" fill="#AAAAAA" transform="translate(0,0)"/>
<path d="" fill="#AAAAAA" transform="translate(0,0)"/>
<path d="" fill="#555555" transform="translate(0,0)"/>
<path d="" fill="#AAAAAA" transform="translate(0,0)"/>
<path d="" fill="#7F7F7F" transform="translate(0,0)"/>
<path d="" fill="#7F7F7F" transform="translate(0,0)"/>
<path d="" fill="#555555" transform="translate(0,0)"/>
<path d="" fill="#AAAAAA" transform="translate(0,0)"/>
<path d="" fill="#FFFFFF" transform="translate(0,0)"/>
<path d="" fill="#FFFFFF" transform="translate(0,0)"/>
<path d="" fill="#FFFFFF" transform="translate(0,0)"/>
<path d="" fill="#FFFFFF" transform="translate(0,0)"/>
<path d="" fill="#FFFFFF" transform="translate(0,0)"/>
<path d="" fill="#AAAAAA" transform="translate(0,0)"/>
<path d="" fill="#7F7F7F" transform="translate(0,0)"/>
<path d="" fill="#7F7F7F" transform="translate(0,0)"/>
<path d="" fill="#7F7F7F" transform="translate(0,0)"/>
<path d="" fill="#BFBFBF" transform="translate(0,0)"/>
<path d="" fill="#BFBFBF" transform="translate(0,0)"/>
<path d="" fill="#AAAAAA" transform="translate(0,0)"/>
<path d="" fill="#FFFFFF" transform="translate(0,0)"/>
<path d="" fill="#AAAAAA" transform="translate(0,0)"/>
<path d="" fill="#7F7F7F" transform="translate(0,0)"/>
<path d="" fill="#AAAAAA" transform="translate(0,0)"/>
<path d="" fill="#AAAAAA" transform="translate(0,0)"/>
<path d="" fill="#996699" transform="translate(0,0)"/>
<path d="" fill="#999999" transform="translate(0,0)"/>
<path d="" fill="#7F7F7F" transform="translate(0,0)"/>
<path d="" fill="#7F7F7F" transform="translate(0,0)"/>
<path d="" fill="#B6B6B6" transform="translate(0,0)"/>
<path d="" fill="#FFFFFF" transform="translate(0,0)"/>
<path d="" fill="#BFBFBF" transform="translate(0,0)"/>
<path d="" fill="#000000" transform="translate(0,0)"/>
<path d="" fill="#FFFFFF" transform="translate(0,0)"/>
<path d="" fill="#3F3F3F" transform="translate(0,0)"/>
<path d="" fill="#000000" transform="translate(0,0)"/>
<path d="" fill="#000000" transform="translate(0,0)"/>
<path d="" fill="#7F7F7F" transform="translate(0,0)"/>
<path d="" fill="#7F7F7F" transform="translate(0,0)"/>
<path d="" fill="#D4D4D4" transform="translate(0,0)"/>
<path d="" fill="#FFFFFF" transform="translate(0,0)"/>
<path d="" fill="#7F7F7F" transform="translate(0,0)"/>
<path d="" fill="#7F7F7F" transform="translate(0,0)"/>
<path d="" fill="#555555" transform="translate(0,0)"/>
<path d="" fill="#FFFFFF" transform="translate(0,0)"/>
<path d="" fill="#AAAAAA" transform="translate(0,0)"/>
<path d="" fill="#AAAAAA" transform="translate(0,0)"/>
<path d="" fill="#7F7F7F" transform="translate(0,0)"/>
</svg>
