<svg xmlns="http://www.w3.org/2000/svg" viewBox="0 0 32 32" width="32" height="32"><defs><linearGradient id="t" x1="0" y1="0" x2="0.6" y2="1"><stop offset="0" style="stop-color:var(--pet-top-a, #FEFDFA)"/><stop offset="1" style="stop-color:var(--pet-top-b, #FBF0D6)"/></linearGradient><linearGradient id="l" x1="0" y1="0" x2="0.3" y2="1"><stop offset="0" style="stop-color:var(--pet-front-a, #F6E3CB)"/><stop offset="1" style="stop-color:var(--pet-front-b, #E9D0AE)"/></linearGradient><linearGradient id="r" x1="0" y1="0" x2="1" y2="0.7"><stop offset="0" style="stop-color:var(--pet-right-a, #DFC4A3)"/><stop offset="1" style="stop-color:var(--pet-right-b, #E0C6A1)"/></linearGradient><linearGradient id="ao" x1="0" y1="0.62" x2="0" y2="1"><stop offset="0" stop-color="#E0C6A1" stop-opacity="0"/><stop offset="1" stop-color="#E0C6A1" stop-opacity="0.42"/></linearGradient></defs><g transform="translate(14.40 29.90) rotate(1.00) scale(0.9009 1.1100) translate(-14.00 -29.00)"><g data-space="char" style="transform-box:view-box;transform-origin:0 0;transform:translate(14.00px,0) scaleX(var(--pet-face-flip, 1)) translate(-14.00px,0)"><ellipse cx="9.00" cy="26.15" rx="2.6" ry="1.95" fill="#E0C6A1" stroke="#1F1C25" stroke-width="1.5" stroke-linejoin="round"/><ellipse cx="21.00" cy="27.50" rx="2.9" ry="2.15" fill="#E9D0AE" stroke="#1F1C25" stroke-width="1.5" stroke-linejoin="round"/></g><g data-space="world"><path d="M6.0 11.0 L11.0 7.6 L27.0 7.6 L22.0 11.0 Z" fill="url(#t)"/><path d="M22.0 11.0 L27.0 7.6 L27.0 22.6 L22.0 26.0 Z" fill="url(#r)"/><path d="M6.0 11.0 L22.0 11.0 L22.0 26.0 L6.0 26.0 Z" fill="url(#l)"/><path d="M6.0 11.0 L22.0 11.0 L22.0 26.0 L6.0 26.0 Z" fill="url(#ao)"/><path d="M6.0 12.4 L6.0 24.8" stroke="#FFFFFF" stroke-width="0.9" stroke-linecap="round" style="opacity:var(--pet-rim, 0.34)"/><path d="M8.2 10.1 L12.4 7.9" stroke="#FFFFFF" stroke-width="1.5" stroke-linecap="round" style="opacity:var(--pet-sheen, 0.5)"/><path d="M6.0 26.0 L6.0 11.0 L11.0 7.6 L27.0 7.6 L27.0 22.6 L22.0 26.0 Z" fill="none" stroke="#1F1C25" stroke-width="1.5" stroke-linejoin="round" stroke-linecap="round"/><path d="M6.0 11.0 L22.0 11.0 L22.0 26.0 M22.0 11.0 L27.0 7.6" fill="none" stroke="#1F1C25" stroke-width="0.66" stroke-linejoin="round" stroke-linecap="round" opacity="0.42"/></g><g data-space="char" style="transform-box:view-box;transform-origin:0 0;transform:translate(14.00px,0) scaleX(var(--pet-face-flip, 1)) translate(-14.00px,0)"><ellipse cx="8.70" cy="20.50" rx="1.85" ry="1.0" fill="#FAADA6" opacity="0.38"/><ellipse cx="19.30" cy="20.50" rx="1.85" ry="1.0" fill="#FAADA6" opacity="0.38"/><rect x="8.95" y="15.00" width="3.30" height="4.40" rx="1.65" fill="#1F1C25"/><circle cx="11.22" cy="16.12" r="0.80" fill="#FFFFFF"/><circle cx="9.94" cy="18.25" r="0.36" fill="#FFFFFF" opacity="0.62"/><rect x="15.75" y="15.00" width="3.30" height="4.40" rx="1.65" fill="#1F1C25"/><circle cx="18.02" cy="16.12" r="0.80" fill="#FFFFFF"/><circle cx="16.74" cy="18.25" r="0.36" fill="#FFFFFF" opacity="0.62"/><path d="M12.00 20.90 Q14.00 22.90 16.00 20.90" fill="none" stroke="#1F1C25" stroke-width="1.15" stroke-linecap="round"/></g></g></svg>
