<?xml version="1.0" encoding="UTF-8"?>
<!-- Generator: visioncortex VTracer 0.6.12 -->
<svg version="1.1" xmlns="http://www.w3.org/2000/svg" width="512" height="512">
<path d="M0 0 C2.325 0.508 4.296 0.685 6.664 0.617 C10.227 0.54 11.608 1.831 14.348 3.961 C17.953 6.583 21.882 8.649 25.762 10.836 C28.096 12.28 29.671 13.6 31.539 15.555 C33.727 16.242 33.727 16.242 35.539 16.555 C35.57 16.843 35.57 16.843 35.727 18.305 C36.866 21.461 38.875 22.588 41.539 24.555 C50.093 31.817 53.275 46.138 55.539 56.555 C55.646 57.023 55.646 57.023 56.188 59.395 C59.39 75.567 58.684 92.74 58.4 109.149 C58.322 114.027 58.283 118.905 58.236 123.783 C58.176 129.926 58.104 136.068 57.99 142.21 C57.898 147.241 57.846 152.271 57.819 157.303 C57.802 159.204 57.77 161.104 57.724 163.005 C57.372 177.776 57.372 177.776 60.294 182.231 C62.3 184.001 64.2 185.277 66.539 186.555 C77.814 197.547 89.576 213.828 90.707 229.949 C90.762 236.748 90.318 243.649 86.539 249.555 C85.879 249.885 85.219 250.215 84.539 250.555 C84.209 251.545 83.879 252.535 83.539 253.555 C81.889 254.262 80.218 254.92 78.539 255.555 C77.549 256.235 76.559 256.916 75.539 257.617 C68.372 262.246 60.431 260.698 52.48 258.992 C51.84 258.848 51.199 258.703 50.539 258.555 C50.357 259.666 50.176 260.777 49.988 261.922 C48.638 269.985 47.168 277.794 44.539 285.555 C44.315 286.309 44.09 287.063 43.859 287.84 C40.414 299.126 34.88 306.4 25.211 313.125 C23.539 314.555 23.539 314.555 22.539 317.555 C22.223 317.602 22.223 317.602 20.621 317.84 C15.493 319.029 10.662 321.06 5.752 322.939 C0.724 324.834 -4.222 326.355 -9.461 327.555 C-9.461 328.215 -9.461 328.875 -9.461 329.555 C-10.451 329.555 -11.441 329.555 -12.461 329.555 C-12.461 331.535 -12.461 333.515 -12.461 335.555 C-13.121 335.885 -13.781 336.215 -14.461 336.555 C-14.213 337.503 -13.966 338.452 -13.711 339.43 C-12.955 344.655 -15.081 348.995 -17.461 353.555 C-19.211 355.805 -19.211 355.805 -21.461 357.555 C-21.738 357.789 -21.738 357.789 -23.141 358.977 C-34.901 368.517 -48.534 369.729 -63.238 368.281 C-71.535 366.892 -79.231 363.235 -85.461 357.555 C-86.108 356.989 -86.755 356.423 -87.422 355.84 C-89.887 353.078 -90.924 350.518 -92.211 347.055 C-92.425 346.493 -92.425 346.493 -93.508 343.648 C-94.461 340.555 -94.461 340.555 -94.461 336.555 C-95.19 336.557 -95.92 336.559 -96.671 336.561 C-103.585 336.582 -110.498 336.597 -117.412 336.606 C-120.965 336.612 -124.518 336.619 -128.072 336.63 C-132.168 336.643 -136.263 336.648 -140.359 336.652 C-140.99 336.655 -140.99 336.655 -144.18 336.668 C-151.006 336.668 -157.687 336.417 -164.461 335.555 C-164.631 336.34 -164.801 337.125 -164.977 337.934 C-168.305 352.363 -168.305 352.363 -173.711 356.117 C-174.618 356.592 -175.526 357.066 -176.461 357.555 C-177.719 358.545 -178.968 359.546 -180.211 360.555 C-189.536 367.659 -201.141 368.235 -212.461 367.555 C-224.155 365.536 -233.508 360.368 -241.461 351.555 C-242.955 348.771 -243.593 347.367 -243.086 344.242 C-242.983 343.964 -242.983 343.964 -242.461 342.555 C-243.121 342.555 -243.781 342.555 -244.461 342.555 C-245.784 337.594 -245.55 332.644 -245.461 327.555 C-246.451 327.225 -247.441 326.895 -248.461 326.555 C-249.451 325.895 -250.441 325.235 -251.461 324.555 C-252.785 324.045 -254.128 323.581 -255.48 323.152 C-255.868 323.027 -255.868 323.027 -257.83 322.393 C-259.447 321.879 -261.064 321.366 -262.682 320.854 C-267.161 319.405 -271.298 317.792 -275.461 315.555 C-276.121 315.225 -276.781 314.895 -277.461 314.555 C-279.128 312.888 -280.794 311.221 -282.461 309.555 C-284.458 307.884 -286.457 306.217 -288.461 304.555 C-291.814 301.551 -293.683 298.597 -295.648 294.555 C-296.158 293.523 -296.667 292.492 -297.191 291.43 C-298.231 289.075 -298.927 287.049 -299.461 284.555 C-299.663 283.887 -299.866 283.219 -300.074 282.531 C-305.097 265.64 -307.1 248.063 -308.461 230.555 C-310.111 230.555 -311.761 230.555 -313.461 230.555 C-313.131 229.895 -312.801 229.235 -312.461 228.555 C-313.234 228.191 -314.008 227.828 -314.805 227.453 C-321.25 224.342 -326.937 221.09 -332.461 216.555 C-334.209 215.136 -335.959 213.719 -337.711 212.305 C-338.52 211.64 -339.33 210.974 -340.164 210.289 C-342.461 208.555 -342.461 208.555 -344.727 207.445 C-345.299 207.151 -345.871 206.857 -346.461 206.555 C-346.794 205.221 -347.128 203.888 -347.461 202.555 C-348.047 202.319 -348.634 202.083 -349.238 201.84 C-352.453 199.981 -353.797 197.16 -355.523 193.992 C-355.873 193.355 -356.223 192.718 -356.584 192.062 C-362.02 181.97 -363.689 173.011 -362.461 161.555 C-360.984 156.655 -359.134 152.875 -355.086 149.68 C-354.653 149.494 -354.653 149.494 -352.461 148.555 C-351.268 147.855 -350.081 147.146 -348.898 146.43 C-342.647 143.02 -336.098 142.57 -329.125 144.051 C-324.153 145.595 -319.768 147.9 -315.309 150.566 C-313.461 151.555 -313.461 151.555 -311.461 151.555 C-311.466 150.793 -311.471 150.03 -311.477 149.245 C-311.849 86.192 -311.849 86.192 -305.461 56.555 C-305.259 55.5 -305.056 54.446 -304.848 53.359 C-303.148 45.371 -299.868 38.405 -295.461 31.555 C-294.801 31.225 -294.141 30.895 -293.461 30.555 C-293.358 29.915 -293.255 29.276 -293.148 28.617 C-292.922 27.937 -292.695 27.256 -292.461 26.555 C-291.727 26.284 -290.994 26.013 -290.238 25.734 C-286.794 24.272 -284.92 22.308 -282.336 19.617 C-281.912 19.18 -281.912 19.18 -279.766 16.965 C-279.005 16.169 -278.245 15.374 -277.461 14.555 C-275.245 12.24 -273.404 10.874 -270.461 9.555 C-270.461 8.895 -270.461 8.235 -270.461 7.555 C-269.512 7.307 -268.563 7.06 -267.586 6.805 C-264.527 5.939 -261.644 4.84 -258.711 3.617 C-242.012 -3.189 -223.447 -5.343 -205.586 -6.508 C-204.956 -6.549 -204.956 -6.549 -201.765 -6.757 C-59.801 -15.305 -59.801 -15.305 0 0 Z M51.539 48.555 C51.539 50.205 51.539 51.855 51.539 53.555 C51.869 53.555 52.199 53.555 52.539 53.555 C52.539 51.905 52.539 50.255 52.539 48.555 C52.209 48.555 51.879 48.555 51.539 48.555 Z M-302.461 49.555 C-301.461 51.555 -301.461 51.555 -301.461 51.555 Z M-303.461 52.555 C-302.461 54.555 -302.461 54.555 -302.461 54.555 Z M53.539 56.555 C53.539 58.205 53.539 59.855 53.539 61.555 C53.869 61.555 54.199 61.555 54.539 61.555 C54.539 59.905 54.539 58.255 54.539 56.555 C54.209 56.555 53.879 56.555 53.539 56.555 Z M-304.461 57.555 C-303.461 59.555 -303.461 59.555 -303.461 59.555 Z M-305.461 60.555 C-305.461 62.205 -305.461 63.855 -305.461 65.555 C-305.131 65.555 -304.801 65.555 -304.461 65.555 C-304.461 63.905 -304.461 62.255 -304.461 60.555 C-304.791 60.555 -305.121 60.555 -305.461 60.555 Z M54.539 64.555 C55.539 68.555 55.539 68.555 55.539 68.555 Z M-306.461 68.555 C-305.461 72.555 -305.461 72.555 -305.461 72.555 Z M55.539 69.555 C55.539 73.185 55.539 76.815 55.539 80.555 C55.869 80.555 56.199 80.555 56.539 80.555 C56.539 76.925 56.539 73.295 56.539 69.555 C56.209 69.555 55.879 69.555 55.539 69.555 Z M-307.461 72.555 C-307.461 75.525 -307.461 78.495 -307.461 81.555 C-307.131 81.555 -306.801 81.555 -306.461 81.555 C-306.461 78.585 -306.461 75.615 -306.461 72.555 C-306.791 72.555 -307.121 72.555 -307.461 72.555 Z M56.539 83.555 C56.539 85.535 56.539 87.515 56.539 89.555 C56.869 89.555 57.199 89.555 57.539 89.555 C57.539 87.575 57.539 85.595 57.539 83.555 C57.209 83.555 56.879 83.555 56.539 83.555 Z M-308.461 84.555 C-308.461 87.195 -308.461 89.835 -308.461 92.555 C-308.131 92.555 -307.801 92.555 -307.461 92.555 C-307.461 89.915 -307.461 87.275 -307.461 84.555 C-307.791 84.555 -308.121 84.555 -308.461 84.555 Z M-309.461 93.555 C-309.461 102.135 -309.461 110.715 -309.461 119.555 C-309.131 119.555 -308.801 119.555 -308.461 119.555 C-308.461 110.975 -308.461 102.395 -308.461 93.555 C-308.791 93.555 -309.121 93.555 -309.461 93.555 Z M-310.461 122.555 C-310.461 132.785 -310.461 143.015 -310.461 153.555 C-310.131 153.555 -309.801 153.555 -309.461 153.555 C-309.461 143.325 -309.461 133.095 -309.461 122.555 C-309.791 122.555 -310.121 122.555 -310.461 122.555 Z M-361.461 162.555 C-360.461 165.555 -360.461 165.555 -360.461 165.555 Z M-361.461 173.555 C-360.461 176.555 -360.461 176.555 -360.461 176.555 Z M87.539 222.555 C88.539 225.555 88.539 225.555 88.539 225.555 Z M88.539 230.555 C88.539 232.865 88.539 235.175 88.539 237.555 C88.869 237.555 89.199 237.555 89.539 237.555 C89.539 235.245 89.539 232.935 89.539 230.555 C89.209 230.555 88.879 230.555 88.539 230.555 Z M-306.461 232.555 C-306.461 234.205 -306.461 235.855 -306.461 237.555 C-306.131 237.555 -305.801 237.555 -305.461 237.555 C-305.461 235.905 -305.461 234.255 -305.461 232.555 C-305.791 232.555 -306.121 232.555 -306.461 232.555 Z M87.539 238.555 C87.539 240.205 87.539 241.855 87.539 243.555 C87.869 243.555 88.199 243.555 88.539 243.555 C88.539 241.905 88.539 240.255 88.539 238.555 C88.209 238.555 87.879 238.555 87.539 238.555 Z M-305.461 240.555 C-305.461 243.855 -305.461 247.155 -305.461 250.555 C-305.131 250.555 -304.801 250.555 -304.461 250.555 C-304.461 247.255 -304.461 243.955 -304.461 240.555 C-304.791 240.555 -305.121 240.555 -305.461 240.555 Z M85.539 245.555 C86.539 247.555 86.539 247.555 86.539 247.555 Z M-304.461 251.555 C-303.461 254.555 -303.461 254.555 -303.461 254.555 Z M-303.461 257.555 C-303.461 259.535 -303.461 261.515 -303.461 263.555 C-303.131 263.555 -302.801 263.555 -302.461 263.555 C-302.461 261.575 -302.461 259.595 -302.461 257.555 C-302.791 257.555 -303.121 257.555 -303.461 257.555 Z M47.539 257.555 C47.539 259.535 47.539 261.515 47.539 263.555 C47.869 263.555 48.199 263.555 48.539 263.555 C48.539 261.575 48.539 259.595 48.539 257.555 C48.209 257.555 47.879 257.555 47.539 257.555 Z M-302.461 264.555 C-301.461 266.555 -301.461 266.555 -301.461 266.555 Z M46.539 266.555 C47.539 268.555 47.539 268.555 47.539 268.555 Z M-301.461 269.555 C-300.461 273.555 -300.461 273.555 -300.461 273.555 Z M45.539 270.555 C46.539 274.555 46.539 274.555 46.539 274.555 Z M-299.461 278.555 C-298.461 281.555 -298.461 281.555 -298.461 281.555 Z M43.539 278.555 C44.539 282.555 44.539 282.555 44.539 282.555 Z M-244.461 327.555 C-244.461 330.525 -244.461 333.495 -244.461 336.555 C-244.131 336.555 -243.801 336.555 -243.461 336.555 C-243.461 333.585 -243.461 330.615 -243.461 327.555 C-243.791 327.555 -244.121 327.555 -244.461 327.555 Z M-166.461 333.555 C-166.461 333.885 -166.461 334.215 -166.461 334.555 C-162.501 334.555 -158.541 334.555 -154.461 334.555 C-154.461 334.225 -154.461 333.895 -154.461 333.555 C-158.421 333.555 -162.381 333.555 -166.461 333.555 Z M-154.461 334.555 C-154.461 334.885 -154.461 335.215 -154.461 335.555 C-134.001 335.555 -113.541 335.555 -92.461 335.555 C-92.461 335.225 -92.461 334.895 -92.461 334.555 C-112.921 334.555 -133.381 334.555 -154.461 334.555 Z M-166.461 335.555 C-165.461 337.555 -165.461 337.555 -165.461 337.555 Z M-93.461 336.555 C-92.461 339.555 -92.461 339.555 -92.461 339.555 Z M-15.461 339.555 C-14.461 342.555 -14.461 342.555 -14.461 342.555 Z M-92.461 340.555 C-91.461 343.555 -91.461 343.555 -91.461 343.555 Z M-168.461 342.555 C-167.461 344.555 -167.461 344.555 -167.461 344.555 Z M-91.461 344.555 C-90.461 346.555 -90.461 346.555 -90.461 346.555 Z M-16.461 345.555 C-15.461 347.555 -15.461 347.555 -15.461 347.555 Z M-240.461 348.555 C-239.461 350.555 -239.461 350.555 -239.461 350.555 Z " fill="#F9F0DF" transform="translate(383.4609375,88.4453125)"/>
<path d="M0 0 C2.325 0.508 4.296 0.685 6.664 0.617 C10.227 0.54 11.608 1.831 14.348 3.961 C17.953 6.583 21.882 8.649 25.762 10.836 C28.096 12.28 29.671 13.6 31.539 15.555 C33.727 16.242 33.727 16.242 35.539 16.555 C35.57 16.843 35.57 16.843 35.727 18.305 C36.866 21.461 38.875 22.588 41.539 24.555 C50.093 31.817 53.275 46.138 55.539 56.555 C55.646 57.023 55.646 57.023 56.188 59.395 C59.39 75.567 58.684 92.74 58.4 109.149 C58.322 114.027 58.283 118.905 58.236 123.783 C58.176 129.926 58.104 136.068 57.99 142.21 C57.898 147.241 57.846 152.271 57.819 157.303 C57.802 159.204 57.77 161.104 57.724 163.005 C57.372 177.776 57.372 177.776 60.294 182.231 C62.3 184.001 64.2 185.277 66.539 186.555 C77.814 197.547 89.576 213.828 90.707 229.949 C90.762 236.748 90.318 243.649 86.539 249.555 C85.879 249.885 85.219 250.215 84.539 250.555 C84.209 251.545 83.879 252.535 83.539 253.555 C81.889 254.262 80.218 254.92 78.539 255.555 C77.549 256.235 76.559 256.916 75.539 257.617 C68.372 262.246 60.431 260.698 52.48 258.992 C51.84 258.848 51.199 258.703 50.539 258.555 C50.357 259.666 50.176 260.777 49.988 261.922 C48.638 269.985 47.168 277.794 44.539 285.555 C44.315 286.309 44.09 287.063 43.859 287.84 C40.414 299.126 34.88 306.4 25.211 313.125 C23.539 314.555 23.539 314.555 22.539 317.555 C22.223 317.602 22.223 317.602 20.621 317.84 C15.493 319.029 10.662 321.06 5.752 322.939 C0.724 324.834 -4.222 326.355 -9.461 327.555 C-9.461 328.215 -9.461 328.875 -9.461 329.555 C-10.451 329.555 -11.441 329.555 -12.461 329.555 C-12.461 331.535 -12.461 333.515 -12.461 335.555 C-13.121 335.885 -13.781 336.215 -14.461 336.555 C-14.213 337.503 -13.966 338.452 -13.711 339.43 C-12.955 344.655 -15.081 348.995 -17.461 353.555 C-19.211 355.805 -19.211 355.805 -21.461 357.555 C-21.738 357.789 -21.738 357.789 -23.141 358.977 C-34.901 368.517 -48.534 369.729 -63.238 368.281 C-71.535 366.892 -79.231 363.235 -85.461 357.555 C-86.108 356.989 -86.755 356.423 -87.422 355.84 C-89.887 353.078 -90.924 350.518 -92.211 347.055 C-92.425 346.493 -92.425 346.493 -93.508 343.648 C-94.461 340.555 -94.461 340.555 -94.461 336.555 C-95.19 336.557 -95.92 336.559 -96.671 336.561 C-103.585 336.582 -110.498 336.597 -117.412 336.606 C-120.965 336.612 -124.518 336.619 -128.072 336.63 C-132.168 336.643 -136.263 336.648 -140.359 336.652 C-140.99 336.655 -140.99 336.655 -144.18 336.668 C-151.006 336.668 -157.687 336.417 -164.461 335.555 C-164.631 336.34 -164.801 337.125 -164.977 337.934 C-168.305 352.363 -168.305 352.363 -173.711 356.117 C-174.618 356.592 -175.526 357.066 -176.461 357.555 C-177.719 358.545 -178.968 359.546 -180.211 360.555 C-189.536 367.659 -201.141 368.235 -212.461 367.555 C-224.155 365.536 -233.508 360.368 -241.461 351.555 C-242.955 348.771 -243.593 347.367 -243.086 344.242 C-242.983 343.964 -242.983 343.964 -242.461 342.555 C-243.121 342.555 -243.781 342.555 -244.461 342.555 C-245.784 337.594 -245.55 332.644 -245.461 327.555 C-246.451 327.225 -247.441 326.895 -248.461 326.555 C-249.451 325.895 -250.441 325.235 -251.461 324.555 C-252.785 324.045 -254.128 323.581 -255.48 323.152 C-255.868 323.027 -255.868 323.027 -257.83 322.393 C-259.447 321.879 -261.064 321.366 -262.682 320.854 C-267.161 319.405 -271.298 317.792 -275.461 315.555 C-276.121 315.225 -276.781 314.895 -277.461 314.555 C-279.128 312.888 -280.794 311.221 -282.461 309.555 C-284.458 307.884 -286.457 306.217 -288.461 304.555 C-291.814 301.551 -293.683 298.597 -295.648 294.555 C-296.158 293.523 -296.667 292.492 -297.191 291.43 C-298.231 289.075 -298.927 287.049 -299.461 284.555 C-299.663 283.887 -299.866 283.219 -300.074 282.531 C-305.097 265.64 -307.1 248.063 -308.461 230.555 C-310.111 230.555 -311.761 230.555 -313.461 230.555 C-313.131 229.895 -312.801 229.235 -312.461 228.555 C-313.234 228.191 -314.008 227.828 -314.805 227.453 C-321.25 224.342 -326.937 221.09 -332.461 216.555 C-334.209 215.136 -335.959 213.719 -337.711 212.305 C-338.52 211.64 -339.33 210.974 -340.164 210.289 C-342.461 208.555 -342.461 208.555 -344.727 207.445 C-345.299 207.151 -345.871 206.857 -346.461 206.555 C-346.794 205.221 -347.128 203.888 -347.461 202.555 C-348.047 202.319 -348.634 202.083 -349.238 201.84 C-352.453 199.981 -353.797 197.16 -355.523 193.992 C-355.873 193.355 -356.223 192.718 -356.584 192.062 C-362.02 181.97 -363.689 173.011 -362.461 161.555 C-360.984 156.655 -359.134 152.875 -355.086 149.68 C-354.653 149.494 -354.653 149.494 -352.461 148.555 C-351.268 147.855 -350.081 147.146 -348.898 146.43 C-342.647 143.02 -336.098 142.57 -329.125 144.051 C-324.153 145.595 -319.768 147.9 -315.309 150.566 C-313.461 151.555 -313.461 151.555 -311.461 151.555 C-311.466 150.793 -311.471 150.03 -311.477 149.245 C-311.849 86.192 -311.849 86.192 -305.461 56.555 C-305.259 55.5 -305.056 54.446 -304.848 53.359 C-303.148 45.371 -299.868 38.405 -295.461 31.555 C-294.801 31.225 -294.141 30.895 -293.461 30.555 C-293.358 29.915 -293.255 29.276 -293.148 28.617 C-292.922 27.937 -292.695 27.256 -292.461 26.555 C-291.727 26.284 -290.994 26.013 -290.238 25.734 C-286.794 24.272 -284.92 22.308 -282.336 19.617 C-281.912 19.18 -281.912 19.18 -279.766 16.965 C-279.005 16.169 -278.245 15.374 -277.461 14.555 C-275.245 12.24 -273.404 10.874 -270.461 9.555 C-270.461 8.895 -270.461 8.235 -270.461 7.555 C-269.512 7.307 -268.563 7.06 -267.586 6.805 C-264.527 5.939 -261.644 4.84 -258.711 3.617 C-242.012 -3.189 -223.447 -5.343 -205.586 -6.508 C-204.956 -6.549 -204.956 -6.549 -201.765 -6.757 C-59.801 -15.305 -59.801 -15.305 0 0 Z M-282.461 27.555 C-283.149 28.222 -283.838 28.89 -284.547 29.578 C-300.299 45.881 -301.222 73.61 -302.57 94.969 C-302.612 95.624 -302.654 96.28 -302.697 96.955 C-303.634 111.909 -303.777 126.852 -303.718 141.831 C-303.711 143.972 -303.707 146.113 -303.704 148.254 C-303.662 171.731 -303.071 195.128 -301.461 218.555 C-301.386 219.734 -301.311 220.912 -301.234 222.127 C-296.948 288.92 -296.948 288.92 -278.461 305.555 C-256.084 323.062 -223.186 324.43 -196.023 326.68 C-195.121 326.755 -194.22 326.831 -193.29 326.909 C-171.129 328.605 -148.942 328.743 -126.73 328.74 C-123.405 328.74 -120.081 328.747 -116.756 328.76 C-98.818 328.833 -80.934 328.656 -63.02 327.66 C-62.657 327.64 -62.657 327.64 -60.82 327.541 C8.747 323.657 8.747 323.657 27.492 303.449 C38.698 288.906 43.378 266.611 42.539 248.555 C41.539 245.055 41.539 245.055 40.539 242.555 C41.529 242.555 42.519 242.555 43.539 242.555 C43.79 243.15 44.042 243.746 44.301 244.359 C46.806 248.801 51.584 251.423 55.914 253.93 C62.68 255.541 68.773 255.255 74.852 251.75 C79.714 248.306 81.43 244.287 82.539 238.555 C83.917 222.816 76.897 209.767 67.082 197.927 C60.329 190.006 60.329 190.006 57.508 188.394 C54.329 186.417 51.999 184.491 51.102 180.712 C50.416 174.825 50.702 168.895 50.863 162.984 C50.886 161.024 50.904 159.063 50.919 157.102 C50.967 151.927 51.059 146.754 51.165 141.58 C51.345 132.403 51.454 123.225 51.551 114.047 C51.556 113.555 51.556 113.555 51.585 111.063 C52.14 57.762 52.14 57.762 40.539 36.555 C40.12 35.749 39.701 34.943 39.27 34.113 C31.31 19.751 19.259 12.024 3.852 7.305 C3.087 7.07 2.323 6.836 1.536 6.595 C-12.079 2.706 -26.137 1.034 -40.211 -0.07 C-40.983 -0.132 -41.756 -0.194 -42.552 -0.258 C-71.067 -2.513 -99.605 -2.532 -128.193 -2.567 C-130.355 -2.57 -132.516 -2.574 -134.678 -2.579 C-252.845 -2.777 -252.845 -2.777 -282.461 27.555 Z M51.539 48.555 C51.539 50.205 51.539 51.855 51.539 53.555 C51.869 53.555 52.199 53.555 52.539 53.555 C52.539 51.905 52.539 50.255 52.539 48.555 C52.209 48.555 51.879 48.555 51.539 48.555 Z M-302.461 49.555 C-301.461 51.555 -301.461 51.555 -301.461 51.555 Z M-303.461 52.555 C-302.461 54.555 -302.461 54.555 -302.461 54.555 Z M53.539 56.555 C53.539 58.205 53.539 59.855 53.539 61.555 C53.869 61.555 54.199 61.555 54.539 61.555 C54.539 59.905 54.539 58.255 54.539 56.555 C54.209 56.555 53.879 56.555 53.539 56.555 Z M-304.461 57.555 C-303.461 59.555 -303.461 59.555 -303.461 59.555 Z M-305.461 60.555 C-305.461 62.205 -305.461 63.855 -305.461 65.555 C-305.131 65.555 -304.801 65.555 -304.461 65.555 C-304.461 63.905 -304.461 62.255 -304.461 60.555 C-304.791 60.555 -305.121 60.555 -305.461 60.555 Z M54.539 64.555 C55.539 68.555 55.539 68.555 55.539 68.555 Z M-306.461 68.555 C-305.461 72.555 -305.461 72.555 -305.461 72.555 Z M55.539 69.555 C55.539 73.185 55.539 76.815 55.539 80.555 C55.869 80.555 56.199 80.555 56.539 80.555 C56.539 76.925 56.539 73.295 56.539 69.555 C56.209 69.555 55.879 69.555 55.539 69.555 Z M-307.461 72.555 C-307.461 75.525 -307.461 78.495 -307.461 81.555 C-307.131 81.555 -306.801 81.555 -306.461 81.555 C-306.461 78.585 -306.461 75.615 -306.461 72.555 C-306.791 72.555 -307.121 72.555 -307.461 72.555 Z M56.539 83.555 C56.539 85.535 56.539 87.515 56.539 89.555 C56.869 89.555 57.199 89.555 57.539 89.555 C57.539 87.575 57.539 85.595 57.539 83.555 C57.209 83.555 56.879 83.555 56.539 83.555 Z M-308.461 84.555 C-308.461 87.195 -308.461 89.835 -308.461 92.555 C-308.131 92.555 -307.801 92.555 -307.461 92.555 C-307.461 89.915 -307.461 87.275 -307.461 84.555 C-307.791 84.555 -308.121 84.555 -308.461 84.555 Z M-309.461 93.555 C-309.461 102.135 -309.461 110.715 -309.461 119.555 C-309.131 119.555 -308.801 119.555 -308.461 119.555 C-308.461 110.975 -308.461 102.395 -308.461 93.555 C-308.791 93.555 -309.121 93.555 -309.461 93.555 Z M-310.461 122.555 C-310.461 132.785 -310.461 143.015 -310.461 153.555 C-310.131 153.555 -309.801 153.555 -309.461 153.555 C-309.461 143.325 -309.461 133.095 -309.461 122.555 C-309.791 122.555 -310.121 122.555 -310.461 122.555 Z M-361.461 162.555 C-360.461 165.555 -360.461 165.555 -360.461 165.555 Z M-361.461 173.555 C-360.461 176.555 -360.461 176.555 -360.461 176.555 Z M87.539 222.555 C88.539 225.555 88.539 225.555 88.539 225.555 Z M88.539 230.555 C88.539 232.865 88.539 235.175 88.539 237.555 C88.869 237.555 89.199 237.555 89.539 237.555 C89.539 235.245 89.539 232.935 89.539 230.555 C89.209 230.555 88.879 230.555 88.539 230.555 Z M-306.461 232.555 C-306.461 234.205 -306.461 235.855 -306.461 237.555 C-306.131 237.555 -305.801 237.555 -305.461 237.555 C-305.461 235.905 -305.461 234.255 -305.461 232.555 C-305.791 232.555 -306.121 232.555 -306.461 232.555 Z M87.539 238.555 C87.539 240.205 87.539 241.855 87.539 243.555 C87.869 243.555 88.199 243.555 88.539 243.555 C88.539 241.905 88.539 240.255 88.539 238.555 C88.209 238.555 87.879 238.555 87.539 238.555 Z M-305.461 240.555 C-305.461 243.855 -305.461 247.155 -305.461 250.555 C-305.131 250.555 -304.801 250.555 -304.461 250.555 C-304.461 247.255 -304.461 243.955 -304.461 240.555 C-304.791 240.555 -305.121 240.555 -305.461 240.555 Z M85.539 245.555 C86.539 247.555 86.539 247.555 86.539 247.555 Z M-304.461 251.555 C-303.461 254.555 -303.461 254.555 -303.461 254.555 Z M-303.461 257.555 C-303.461 259.535 -303.461 261.515 -303.461 263.555 C-303.131 263.555 -302.801 263.555 -302.461 263.555 C-302.461 261.575 -302.461 259.595 -302.461 257.555 C-302.791 257.555 -303.121 257.555 -303.461 257.555 Z M47.539 257.555 C47.539 259.535 47.539 261.515 47.539 263.555 C47.869 263.555 48.199 263.555 48.539 263.555 C48.539 261.575 48.539 259.595 48.539 257.555 C48.209 257.555 47.879 257.555 47.539 257.555 Z M-302.461 264.555 C-301.461 266.555 -301.461 266.555 -301.461 266.555 Z M46.539 266.555 C47.539 268.555 47.539 268.555 47.539 268.555 Z M-301.461 269.555 C-300.461 273.555 -300.461 273.555 -300.461 273.555 Z M45.539 270.555 C46.539 274.555 46.539 274.555 46.539 274.555 Z M-299.461 278.555 C-298.461 281.555 -298.461 281.555 -298.461 281.555 Z M43.539 278.555 C44.539 282.555 44.539 282.555 44.539 282.555 Z M-244.461 327.555 C-244.461 330.525 -244.461 333.495 -244.461 336.555 C-244.131 336.555 -243.801 336.555 -243.461 336.555 C-243.461 333.585 -243.461 330.615 -243.461 327.555 C-243.791 327.555 -244.121 327.555 -244.461 327.555 Z M-166.461 333.555 C-166.461 333.885 -166.461 334.215 -166.461 334.555 C-162.501 334.555 -158.541 334.555 -154.461 334.555 C-154.461 334.225 -154.461 333.895 -154.461 333.555 C-158.421 333.555 -162.381 333.555 -166.461 333.555 Z M-154.461 334.555 C-154.461 334.885 -154.461 335.215 -154.461 335.555 C-134.001 335.555 -113.541 335.555 -92.461 335.555 C-92.461 335.225 -92.461 334.895 -92.461 334.555 C-112.921 334.555 -133.381 334.555 -154.461 334.555 Z M-166.461 335.555 C-165.461 337.555 -165.461 337.555 -165.461 337.555 Z M-93.461 336.555 C-92.461 339.555 -92.461 339.555 -92.461 339.555 Z M-15.461 339.555 C-14.461 342.555 -14.461 342.555 -14.461 342.555 Z M-92.461 340.555 C-91.461 343.555 -91.461 343.555 -91.461 343.555 Z M-168.461 342.555 C-167.461 344.555 -167.461 344.555 -167.461 344.555 Z M-91.461 344.555 C-90.461 346.555 -90.461 346.555 -90.461 346.555 Z M-16.461 345.555 C-15.461 347.555 -15.461 347.555 -15.461 347.555 Z M-240.461 348.555 C-239.461 350.555 -239.461 350.555 -239.461 350.555 Z " fill="#332A24" transform="translate(383.4609375,88.4453125)"/>
<path d="M0 0 C2.325 0.508 4.296 0.685 6.664 0.617 C10.227 0.54 11.608 1.831 14.348 3.961 C17.953 6.583 21.882 8.649 25.762 10.836 C28.096 12.28 29.671 13.6 31.539 15.555 C33.727 16.242 33.727 16.242 35.539 16.555 C35.57 16.843 35.57 16.843 35.727 18.305 C36.866 21.461 38.875 22.588 41.539 24.555 C50.093 31.817 53.275 46.138 55.539 56.555 C55.646 57.023 55.646 57.023 56.188 59.395 C59.39 75.567 58.684 92.74 58.4 109.149 C58.322 114.027 58.283 118.905 58.236 123.783 C58.176 129.926 58.104 136.068 57.99 142.21 C57.898 147.241 57.846 152.271 57.819 157.303 C57.802 159.204 57.77 161.104 57.724 163.005 C57.372 177.776 57.372 177.776 60.294 182.231 C62.3 184.001 64.2 185.277 66.539 186.555 C77.814 197.547 89.576 213.828 90.707 229.949 C90.762 236.748 90.318 243.649 86.539 249.555 C85.879 249.885 85.219 250.215 84.539 250.555 C84.209 251.545 83.879 252.535 83.539 253.555 C81.889 254.262 80.218 254.92 78.539 255.555 C77.549 256.235 76.559 256.916 75.539 257.617 C68.372 262.246 60.431 260.698 52.48 258.992 C51.84 258.848 51.199 258.703 50.539 258.555 C50.357 259.666 50.176 260.777 49.988 261.922 C48.638 269.985 47.168 277.794 44.539 285.555 C44.315 286.309 44.09 287.063 43.859 287.84 C40.414 299.126 34.88 306.4 25.211 313.125 C23.539 314.555 23.539 314.555 22.539 317.555 C22.174 317.62 22.174 317.62 20.325 317.953 C17.742 318.511 15.431 319.245 12.965 320.184 C12.133 320.496 11.301 320.809 10.443 321.131 C10.016 321.294 10.016 321.294 7.852 322.117 C6.14 322.767 4.428 323.415 2.715 324.059 C1.961 324.345 1.207 324.632 0.431 324.928 C-1.461 325.555 -1.461 325.555 -3.461 325.555 C-3.461 324.895 -3.461 324.235 -3.461 323.555 C-2.471 322.895 -1.481 322.235 -0.461 321.555 C-0.378 320.913 -0.296 320.271 -0.211 319.609 C0.539 317.555 0.539 317.555 3.602 316.062 C4.91 315.59 6.223 315.13 7.539 314.68 C19.993 310.013 27.299 304.411 33.164 292.16 C38.848 278.865 42.243 263.03 41.539 248.555 C41.209 248.225 40.879 247.895 40.539 247.555 C40.498 245.889 40.496 244.221 40.539 242.555 C41.529 242.555 42.519 242.555 43.539 242.555 C44.878 244.217 46.21 245.884 47.539 247.555 C54.422 252.68 59.997 254.498 68.539 253.555 C72.039 252.055 72.039 252.055 74.539 250.555 C75.199 250.555 75.859 250.555 76.539 250.555 C81.52 241.359 83.132 232.998 80.539 222.742 C75.557 208.165 65.28 194.34 53 185.117 C49.472 181.343 50.419 175.322 50.473 170.461 C50.478 169.658 50.482 168.856 50.487 168.028 C50.498 166.286 50.51 164.543 50.525 162.8 C50.547 160.011 50.561 157.222 50.573 154.433 C50.606 146.501 50.647 138.57 50.71 130.638 C51.275 57.975 51.275 57.975 39.539 36.555 C39.109 35.737 38.678 34.92 38.234 34.078 C30.421 20.099 18.844 12.888 3.852 8.305 C3.47 8.188 3.47 8.188 1.536 7.595 C-12.078 3.705 -26.137 2.034 -40.211 0.93 C-40.983 0.868 -41.756 0.806 -42.552 0.742 C-71.067 -1.513 -99.605 -1.532 -128.193 -1.567 C-130.355 -1.57 -132.516 -1.574 -134.678 -1.579 C-252.168 -1.776 -252.168 -1.776 -279.871 25.832 C-288.666 35.078 -293.66 44.418 -296.648 56.805 C-296.803 57.447 -296.958 58.089 -297.118 58.75 C-299.737 70.476 -300.792 82.571 -301.555 94.539 C-301.639 95.852 -301.723 97.165 -301.809 98.518 C-302.909 116.786 -302.866 135.094 -302.977 153.388 C-303.008 158.447 -303.047 163.505 -303.097 168.563 C-303.117 170.901 -303.125 173.238 -303.133 175.575 C-303.146 176.99 -303.16 178.406 -303.174 179.821 C-303.181 181.053 -303.188 182.286 -303.196 183.555 C-303.461 186.555 -303.461 186.555 -305.461 189.555 C-305.755 191.941 -305.954 194.341 -306.086 196.742 C-306.161 198.014 -306.235 199.287 -306.312 200.598 C-306.361 201.573 -306.41 202.549 -306.461 203.555 C-306.791 203.555 -307.121 203.555 -307.461 203.555 C-307.486 202.8 -307.511 202.045 -307.537 201.267 C-307.654 197.779 -307.776 194.292 -307.898 190.805 C-307.938 189.617 -307.977 188.43 -308.018 187.207 C-308.144 183.655 -308.298 180.105 -308.461 176.555 C-308.501 175.428 -308.542 174.301 -308.583 173.14 C-308.639 172.083 -308.696 171.026 -308.754 169.938 C-308.797 169.003 -308.839 168.069 -308.884 167.106 C-310.055 161.93 -314.247 159.355 -318.461 156.555 C-319.303 155.954 -320.144 155.353 -321.012 154.734 C-328.27 150.11 -334.989 149.363 -343.461 150.555 C-348.482 152.492 -349.852 155.081 -352.086 159.742 C-352.268 160.182 -352.268 160.182 -353.188 162.41 C-354.461 164.555 -354.461 164.555 -356.609 165.355 C-357.22 165.421 -357.831 165.487 -358.461 165.555 C-358.682 167.512 -358.888 169.47 -359.086 171.43 C-359.202 172.52 -359.318 173.611 -359.438 174.734 C-359.445 175.665 -359.453 176.596 -359.461 177.555 C-358.801 178.215 -358.141 178.875 -357.461 179.555 C-356.896 182.21 -356.723 184.846 -356.461 187.555 C-357.121 187.885 -357.781 188.215 -358.461 188.555 C-362.951 179.093 -364.59 168.57 -361.508 158.414 C-359.335 153.711 -357.345 150.648 -352.461 148.555 C-351.268 147.855 -350.081 147.146 -348.898 146.43 C-342.647 143.02 -336.098 142.57 -329.125 144.051 C-324.153 145.595 -319.768 147.9 -315.309 150.566 C-313.461 151.555 -313.461 151.555 -311.461 151.555 C-311.466 150.793 -311.471 150.03 -311.477 149.245 C-311.849 86.192 -311.849 86.192 -305.461 56.555 C-305.259 55.5 -305.056 54.446 -304.848 53.359 C-303.148 45.371 -299.868 38.405 -295.461 31.555 C-294.801 31.225 -294.141 30.895 -293.461 30.555 C-293.358 29.915 -293.255 29.276 -293.148 28.617 C-292.922 27.937 -292.695 27.256 -292.461 26.555 C-291.727 26.284 -290.994 26.013 -290.238 25.734 C-286.794 24.272 -284.92 22.308 -282.336 19.617 C-281.912 19.18 -281.912 19.18 -279.766 16.965 C-279.005 16.169 -278.245 15.374 -277.461 14.555 C-275.245 12.24 -273.404 10.874 -270.461 9.555 C-270.461 8.895 -270.461 8.235 -270.461 7.555 C-269.512 7.307 -268.563 7.06 -267.586 6.805 C-264.527 5.939 -261.644 4.84 -258.711 3.617 C-242.012 -3.189 -223.447 -5.343 -205.586 -6.508 C-204.956 -6.549 -204.956 -6.549 -201.765 -6.757 C-59.801 -15.305 -59.801 -15.305 0 0 Z M51.539 48.555 C51.539 50.205 51.539 51.855 51.539 53.555 C51.869 53.555 52.199 53.555 52.539 53.555 C52.539 51.905 52.539 50.255 52.539 48.555 C52.209 48.555 51.879 48.555 51.539 48.555 Z M-302.461 49.555 C-301.461 51.555 -301.461 51.555 -301.461 51.555 Z M-303.461 52.555 C-302.461 54.555 -302.461 54.555 -302.461 54.555 Z M53.539 56.555 C53.539 58.205 53.539 59.855 53.539 61.555 C53.869 61.555 54.199 61.555 54.539 61.555 C54.539 59.905 54.539 58.255 54.539 56.555 C54.209 56.555 53.879 56.555 53.539 56.555 Z M-304.461 57.555 C-303.461 59.555 -303.461 59.555 -303.461 59.555 Z M-305.461 60.555 C-305.461 62.205 -305.461 63.855 -305.461 65.555 C-305.131 65.555 -304.801 65.555 -304.461 65.555 C-304.461 63.905 -304.461 62.255 -304.461 60.555 C-304.791 60.555 -305.121 60.555 -305.461 60.555 Z M54.539 64.555 C55.539 68.555 55.539 68.555 55.539 68.555 Z M-306.461 68.555 C-305.461 72.555 -305.461 72.555 -305.461 72.555 Z M55.539 69.555 C55.539 73.185 55.539 76.815 55.539 80.555 C55.869 80.555 56.199 80.555 56.539 80.555 C56.539 76.925 56.539 73.295 56.539 69.555 C56.209 69.555 55.879 69.555 55.539 69.555 Z M-307.461 72.555 C-307.461 75.525 -307.461 78.495 -307.461 81.555 C-307.131 81.555 -306.801 81.555 -306.461 81.555 C-306.461 78.585 -306.461 75.615 -306.461 72.555 C-306.791 72.555 -307.121 72.555 -307.461 72.555 Z M56.539 83.555 C56.539 85.535 56.539 87.515 56.539 89.555 C56.869 89.555 57.199 89.555 57.539 89.555 C57.539 87.575 57.539 85.595 57.539 83.555 C57.209 83.555 56.879 83.555 56.539 83.555 Z M-308.461 84.555 C-308.461 87.195 -308.461 89.835 -308.461 92.555 C-308.131 92.555 -307.801 92.555 -307.461 92.555 C-307.461 89.915 -307.461 87.275 -307.461 84.555 C-307.791 84.555 -308.121 84.555 -308.461 84.555 Z M-309.461 93.555 C-309.461 102.135 -309.461 110.715 -309.461 119.555 C-309.131 119.555 -308.801 119.555 -308.461 119.555 C-308.461 110.975 -308.461 102.395 -308.461 93.555 C-308.791 93.555 -309.121 93.555 -309.461 93.555 Z M-310.461 122.555 C-310.461 132.785 -310.461 143.015 -310.461 153.555 C-310.131 153.555 -309.801 153.555 -309.461 153.555 C-309.461 143.325 -309.461 133.095 -309.461 122.555 C-309.791 122.555 -310.121 122.555 -310.461 122.555 Z M-361.461 162.555 C-360.461 165.555 -360.461 165.555 -360.461 165.555 Z M-361.461 173.555 C-360.461 176.555 -360.461 176.555 -360.461 176.555 Z M87.539 222.555 C88.539 225.555 88.539 225.555 88.539 225.555 Z M88.539 230.555 C88.539 232.865 88.539 235.175 88.539 237.555 C88.869 237.555 89.199 237.555 89.539 237.555 C89.539 235.245 89.539 232.935 89.539 230.555 C89.209 230.555 88.879 230.555 88.539 230.555 Z M87.539 238.555 C87.539 240.205 87.539 241.855 87.539 243.555 C87.869 243.555 88.199 243.555 88.539 243.555 C88.539 241.905 88.539 240.255 88.539 238.555 C88.209 238.555 87.879 238.555 87.539 238.555 Z M85.539 245.555 C86.539 247.555 86.539 247.555 86.539 247.555 Z M47.539 257.555 C47.539 259.535 47.539 261.515 47.539 263.555 C47.869 263.555 48.199 263.555 48.539 263.555 C48.539 261.575 48.539 259.595 48.539 257.555 C48.209 257.555 47.879 257.555 47.539 257.555 Z M46.539 266.555 C47.539 268.555 47.539 268.555 47.539 268.555 Z M45.539 270.555 C46.539 274.555 46.539 274.555 46.539 274.555 Z M43.539 278.555 C44.539 282.555 44.539 282.555 44.539 282.555 Z " fill="#433B36" transform="translate(383.4609375,88.4453125)"/>
<path d="M0 0 C2.866 1.458 5.392 3.081 8 4.961 C8.946 5.614 9.892 6.268 10.867 6.941 C17.676 12.236 17.676 12.236 18.474 16.486 C18.759 19.647 18.904 22.788 19 25.961 C19.047 27.005 19.094 28.049 19.143 29.125 C19.285 32.382 19.396 35.64 19.5 38.898 C19.902 50.592 20.411 62.276 21 73.961 C8.003 70.109 -2.45 62.478 -12 52.961 C-12.708 52.276 -13.415 51.592 -14.145 50.887 C-22.81 41.923 -28.047 30.406 -29.438 18.086 C-29.247 12.053 -26.309 6.843 -22.602 2.215 C-16.595 -3.167 -7.179 -2.487 0 0 Z " fill="#F7EDDC" transform="translate(57,239.0390625)"/>
<path d="M0 0 C6.878 3.689 10.191 9.84 12.895 16.941 C17.382 32.135 15.838 48.638 8.512 62.574 C5.747 67.006 2.888 69.546 -2.141 71.223 C-8.396 72 -13.185 71.547 -18.387 67.848 C-25.274 61.467 -27.767 52.79 -28.285 43.692 C-29.223 16.196 -29.223 16.196 -19.766 4.848 C-14.188 -0.73 -7.534 -2.736 0 0 Z " fill="#221B16" transform="translate(175.140625,202.77734375)"/>
<path d="M0 0 C7.054 4.907 11.878 11.276 13.578 19.82 C15.597 34.622 15.213 49.214 8 62.438 C4.384 66.798 0.742 70.387 -5.07 71.309 C-10.731 71.643 -14.481 70.474 -19.047 67.098 C-27.566 58.498 -29.286 46.697 -29.438 35.188 C-29.381 23.788 -27.7 13.926 -20.125 5 C-13.987 -1.051 -8.318 -2.662 0 0 Z " fill="#211B15" transform="translate(344.125,204)"/>
<path d="M0 0 C0 0.66 0 1.32 0 2 C-0.99 2.66 -1.98 3.32 -3 4 C-2.01 4.66 -1.02 5.32 0 6 C-1.238 6.392 -2.475 6.784 -3.75 7.188 C-18.244 12.057 -30.038 18.241 -41 29 C-41.651 29.626 -42.302 30.253 -42.973 30.898 C-58.675 47.256 -59.729 74.574 -61.094 95.984 C-61.178 97.298 -61.262 98.611 -61.348 99.964 C-62.448 118.232 -62.405 136.539 -62.516 154.834 C-62.547 159.892 -62.586 164.951 -62.636 170.009 C-62.656 172.346 -62.664 174.683 -62.672 177.02 C-62.685 178.436 -62.699 179.851 -62.713 181.267 C-62.72 182.499 -62.727 183.731 -62.735 185.001 C-63 188 -63 188 -65 191 C-65.295 193.387 -65.493 195.786 -65.625 198.188 C-65.7 199.46 -65.775 200.732 -65.852 202.043 C-65.901 203.019 -65.95 203.995 -66 205 C-66.33 205 -66.66 205 -67 205 C-67.025 204.245 -67.05 203.49 -67.076 202.712 C-67.193 199.224 -67.315 195.737 -67.438 192.25 C-67.477 191.063 -67.516 189.876 -67.557 188.652 C-67.683 185.1 -67.837 181.551 -68 178 C-68.04 176.873 -68.081 175.746 -68.122 174.585 C-68.178 173.529 -68.235 172.472 -68.293 171.383 C-68.336 170.448 -68.379 169.514 -68.423 168.551 C-69.594 163.375 -73.786 160.801 -78 158 C-78.842 157.399 -79.684 156.799 -80.551 156.18 C-87.81 151.556 -94.528 150.808 -103 152 C-108.021 153.938 -109.391 156.526 -111.625 161.188 C-111.807 161.628 -111.807 161.628 -112.727 163.855 C-114 166 -114 166 -116.148 166.801 C-116.759 166.867 -117.37 166.932 -118 167 C-118.221 168.957 -118.427 170.916 -118.625 172.875 C-118.741 173.966 -118.857 175.056 -118.977 176.18 C-118.984 177.11 -118.992 178.041 -119 179 C-118.34 179.66 -117.68 180.32 -117 181 C-116.435 183.655 -116.262 186.291 -116 189 C-116.66 189.33 -117.32 189.66 -118 190 C-122.49 180.539 -124.129 170.015 -121.047 159.859 C-118.874 155.156 -116.884 152.093 -112 150 C-110.808 149.3 -109.62 148.591 -108.438 147.875 C-102.186 144.465 -95.637 144.015 -88.664 145.496 C-83.692 147.04 -79.307 149.345 -74.848 152.012 C-73 153 -73 153 -71 153 C-71.005 152.238 -71.01 151.476 -71.016 150.69 C-71.388 87.637 -71.388 87.637 -65 58 C-64.798 56.946 -64.595 55.891 -64.387 54.805 C-62.687 46.817 -59.407 39.85 -55 33 C-54.34 32.67 -53.68 32.34 -53 32 C-52.897 31.361 -52.794 30.721 -52.688 30.062 C-52.461 29.382 -52.234 28.701 -52 28 C-51.267 27.729 -50.533 27.459 -49.777 27.18 C-46.333 25.717 -44.459 23.753 -41.875 21.062 C-41.451 20.625 -41.451 20.625 -39.305 18.41 C-38.544 17.615 -37.784 16.819 -37 16 C-34.784 13.685 -32.943 12.319 -30 11 C-30 10.34 -30 9.68 -30 9 C-29.051 8.752 -28.103 8.505 -27.125 8.25 C-24.067 7.384 -21.183 6.285 -18.25 5.062 C-5.888 0 -5.888 0 0 0 Z M-62 51 C-61 53 -61 53 -61 53 Z M-63 54 C-62 56 -62 56 -62 56 Z M-64 59 C-63 61 -63 61 -63 61 Z M-65 62 C-65 63.65 -65 65.3 -65 67 C-64.67 67 -64.34 67 -64 67 C-64 65.35 -64 63.7 -64 62 C-64.33 62 -64.66 62 -65 62 Z M-66 70 C-65 74 -65 74 -65 74 Z M-67 74 C-67 76.97 -67 79.94 -67 83 C-66.67 83 -66.34 83 -66 83 C-66 80.03 -66 77.06 -66 74 C-66.33 74 -66.66 74 -67 74 Z M-68 86 C-68 88.64 -68 91.28 -68 94 C-67.67 94 -67.34 94 -67 94 C-67 91.36 -67 88.72 -67 86 C-67.33 86 -67.66 86 -68 86 Z M-69 95 C-69 103.58 -69 112.16 -69 121 C-68.67 121 -68.34 121 -68 121 C-68 112.42 -68 103.84 -68 95 C-68.33 95 -68.66 95 -69 95 Z M-70 124 C-70 134.23 -70 144.46 -70 155 C-69.67 155 -69.34 155 -69 155 C-69 144.77 -69 134.54 -69 124 C-69.33 124 -69.66 124 -70 124 Z M-121 164 C-120 167 -120 167 -120 167 Z M-121 175 C-120 178 -120 178 -120 178 Z " fill="#453E39" transform="translate(143,87)"/>
<path d="M0 0 C0.608 0.01 0.608 0.01 3.688 0.062 C4.301 9.987 2.942 16.989 -2.438 25.375 C-11.75 34.08 -22.481 34.523 -34.551 34.344 C-43.168 34.005 -50.28 31.242 -56.312 25.062 C-61.288 18.705 -62.426 12.999 -62.312 5.062 C-61.453 5.012 -60.594 4.962 -59.708 4.911 C-30.71 3.203 -30.71 3.203 -18.125 2 C-17.291 1.921 -16.456 1.842 -15.597 1.76 C-10.365 1.237 -5.259 -0.089 0 0 Z " fill="#F4E6CD" transform="translate(359.3125,416.9375)"/>
<path d="M0 0 C1.245 0.12 2.491 0.239 3.774 0.363 C17.283 1.658 30.797 2.902 44.312 4.125 C46.337 4.309 48.361 4.492 50.385 4.676 C55.256 5.118 60.128 5.559 65 6 C64.857 7.441 64.709 8.881 64.559 10.322 C64.477 11.124 64.395 11.926 64.311 12.752 C63.349 19.705 59.309 25.609 53.824 29.82 C44.077 36.123 31.362 36.323 20.188 34.375 C13.547 32.594 7.904 28.847 4.062 23.125 C-0.08 15.569 -0.232 8.482 0 0 Z " fill="#F4E6CD" transform="translate(146,415)"/>
<path d="M0 0 C3.343 -0.074 5.804 -0.065 9 1 C9.144 1.969 9.289 2.939 9.438 3.938 C10 7 10 7 11 8 C11.512 9.552 11.984 11.117 12.438 12.688 C12.707 13.589 12.976 14.49 13.254 15.418 C13.836 17.434 14.366 19.465 14.875 21.5 C16 24 16 24 18.438 25.25 C19.283 25.498 20.129 25.745 21 26 C24 28 24 28 25 30 C25.99 30.66 26.98 31.32 28 32 C28.688 34.125 28.688 34.125 29 36 C28.031 36.412 27.061 36.825 26.062 37.25 C25.427 37.526 24.791 37.802 24.137 38.086 C22.668 38.714 21.191 39.323 19.707 39.914 C14.867 41.908 11.314 43.783 8 48 C7.269 49.977 6.606 51.981 6 54 C4.926 56.827 3.872 58.488 2 61 C-0.895 62.08 -2.822 62.051 -6 62 C-8.698 59.302 -9.06 56.792 -10.062 53.125 C-10.404 51.89 -10.746 50.655 -11.098 49.383 C-11.607 47.472 -12.093 45.553 -12.496 43.617 C-12.662 43.084 -12.829 42.55 -13 42 C-13.66 41.67 -14.32 41.34 -15 41 C-15 40.01 -15 39.02 -15 38 C-17.301 36.211 -17.301 36.211 -20.312 34.375 C-21.299 33.764 -22.285 33.153 -23.301 32.523 C-26 31 -26 31 -29 30 C-28.67 28.35 -28.34 26.7 -28 25 C-27.031 24.732 -26.061 24.464 -25.062 24.188 C-23.708 23.792 -22.354 23.396 -21 23 C-20.209 22.782 -19.417 22.564 -18.602 22.34 C-17.805 22.104 -17.008 21.868 -16.188 21.625 C-15.439 21.411 -14.69 21.197 -13.918 20.977 C-11.455 19.723 -11.069 18.498 -10 16 C-9.237 15.134 -8.474 14.267 -7.688 13.375 C-4.251 9.407 -2.196 4.729 0 0 Z M8 3 C9 6 9 6 9 6 Z M10 13 C11 15 11 15 11 15 Z M-28 27 C-27 29 -27 29 -27 29 Z M-9 50 C-8 52 -8 52 -8 52 Z M-8 53 C-7 55 -7 55 -7 55 Z " fill="#3C342D" transform="translate(455,54)"/>
<path d="M0 0 C3.644 0.066 7.288 0.125 10.932 0.184 C13.257 0.226 15.582 0.269 17.906 0.311 C18.449 0.32 18.449 0.32 21.195 0.362 C22.201 0.382 23.207 0.402 24.244 0.422 C24.684 0.43 24.684 0.43 26.915 0.469 C29.163 0.619 31.133 1.003 33.293 1.628 C33.293 2.288 33.293 2.948 33.293 3.628 C33.953 3.628 34.613 3.628 35.293 3.628 C35.623 4.618 35.953 5.608 36.293 6.628 C34.994 6.625 33.695 6.623 32.357 6.621 C19.975 6.6 7.594 6.586 -4.788 6.576 C-11.15 6.571 -17.512 6.564 -23.874 6.552 C-107.673 6.405 -107.673 6.405 -142.4 11.838 C-142.85 11.904 -142.85 11.904 -145.129 12.237 C-145.919 12.36 -146.708 12.484 -147.522 12.611 C-150.097 12.631 -151.519 11.935 -153.707 10.628 C-152.387 9.968 -151.067 9.308 -149.707 8.628 C-149.707 7.968 -149.707 7.308 -149.707 6.628 C-138.352 3.448 -126.568 2.331 -114.832 1.565 C-114.201 1.524 -114.201 1.524 -111.011 1.316 C-74.117 -0.906 -36.941 -0.68 0 0 Z " fill="#312721" transform="translate(292.706787109375,80.372314453125)"/>
<path d="M0 0 C0.33 0.33 0.33 0.33 2 2 C2.33 2.165 2.33 2.165 4 3 C7.153 12.636 6.857 22.036 3 31.438 C2 33 2 33 0 34 C-0.33 34.99 -0.66 35.98 -1 37 C-2.65 37.707 -4.321 38.366 -6 39 C-6.99 39.681 -7.98 40.361 -9 41.062 C-16.167 45.691 -24.108 44.144 -32.059 42.438 C-32.699 42.293 -33.34 42.149 -34 42 C-34.182 43.111 -34.364 44.222 -34.551 45.367 C-35.901 53.431 -37.372 61.239 -40 69 C-40.112 69.377 -40.112 69.377 -40.68 71.285 C-44.126 82.571 -49.659 89.845 -59.328 96.57 C-61 98 -61 98 -62 101 C-62.731 101.131 -63.461 101.263 -64.214 101.398 C-66.797 101.956 -69.108 102.691 -71.574 103.629 C-72.406 103.942 -73.238 104.254 -74.096 104.576 C-74.951 104.902 -75.806 105.227 -76.688 105.562 C-78.399 106.213 -80.111 106.86 -81.824 107.504 C-82.578 107.791 -83.332 108.078 -84.108 108.373 C-86 109 -86 109 -88 109 C-88 108.34 -88 107.68 -88 107 C-87.505 106.67 -87.505 106.67 -85 105 C-84.918 104.358 -84.835 103.716 -84.75 103.055 C-84 101 -84 101 -80.938 99.508 C-79.629 99.036 -78.316 98.575 -77 98.125 C-64.547 93.458 -57.24 87.857 -51.375 75.605 C-45.691 62.31 -42.296 46.475 -43 32 C-43.33 31.67 -43.66 31.34 -44 31 C-44.041 29.334 -44.043 27.666 -44 26 C-43.01 26 -42.02 26 -41 26 C-39.661 27.662 -38.329 29.33 -37 31 C-30.117 36.125 -24.542 37.943 -16 37 C-12.5 35.5 -12.5 35.5 -10 34 C-9.34 34 -8.68 34 -8 34 C-6.221 30.716 -5.089 27.356 -3.977 23.805 C-2.724 21.489 -1.401 20.958 1 20 C1.027 17.854 1.046 15.708 1.062 13.562 C1.074 12.368 1.086 11.173 1.098 9.941 C1 7 1 7 0 6 C-0.041 4 -0.043 2 0 0 Z M3 6 C4 9 4 9 4 9 Z M4 14 C4 16.31 4 18.62 4 21 C4.33 21 4.66 21 5 21 C5 18.69 5 16.38 5 14 C4.67 14 4.34 14 4 14 Z M3 22 C3 23.65 3 25.3 3 27 C3.33 27 3.66 27 4 27 C4 25.35 4 23.7 4 22 C3.67 22 3.34 22 3 22 Z M1 29 C2 31 2 31 2 31 Z M-37 41 C-37 42.98 -37 44.96 -37 47 C-36.67 47 -36.34 47 -36 47 C-36 45.02 -36 43.04 -36 41 C-36.33 41 -36.66 41 -37 41 Z M-38 50 C-37 52 -37 52 -37 52 Z M-39 54 C-38 58 -38 58 -38 58 Z M-41 62 C-40 66 -40 66 -40 66 Z " fill="#443C37" transform="translate(468,305)"/>
<path d="M0 0 C0.66 0.33 1.32 0.66 2 1 C2.995 4.578 3.143 8.035 3.189 11.733 C3.206 12.862 3.223 13.99 3.24 15.153 C3.254 16.365 3.267 17.576 3.281 18.824 C3.29 19.453 3.29 19.453 3.337 22.632 C3.396 26.65 3.449 30.669 3.5 34.688 C3.568 39.962 3.642 45.237 3.719 50.512 C3.732 51.713 3.746 52.914 3.76 54.152 C4.03 72.643 4.03 72.643 6.566 76.191 C7.225 76.644 7.884 77.096 8.562 77.562 C19.397 85.895 28.472 98.47 34 111 C33.688 113.375 33.688 113.375 33 115 C32.67 114.01 32.34 113.02 32 112 C31.957 113.666 31.959 115.334 32 117 C32.33 117.33 32.66 117.66 33 118 C33.073 120.353 33.084 122.708 33.062 125.062 C33.053 126.353 33.044 127.643 33.035 128.973 C33.024 129.972 33.012 130.971 33 132 C32.34 132 31.68 132 31 132 C30.34 132.99 29.68 133.98 29 135 C28.948 133.886 28.897 132.773 28.844 131.625 C27.711 114.539 21.285 102.664 10 90 C9.339 89.148 8.677 88.296 7.996 87.418 C5.534 84.436 2.734 82.225 -0.293 79.844 C-3.688 76.176 -3.112 71.244 -3.053 66.485 C-3.04 65.186 -3.026 63.888 -3.012 62.55 C-2.992 61.14 -2.971 59.73 -2.949 58.32 C-2.93 56.864 -2.911 55.409 -2.892 53.953 C-2.851 50.905 -2.806 47.857 -2.758 44.809 C-2.698 40.917 -2.651 37.024 -2.607 33.132 C-2.572 30.126 -2.528 27.12 -2.481 24.113 C-2.46 22.679 -2.442 21.245 -2.427 19.81 C-2.405 17.798 -2.37 15.786 -2.335 13.774 C-2.318 12.632 -2.302 11.49 -2.285 10.314 C-1.966 6.609 -1.125 3.535 0 0 Z " fill="#372E29" transform="translate(437,194)"/>
<path d="M0 0 C2.96 2.024 4.415 4.002 5.852 7.266 C5.933 11.252 5.2 12.825 2.727 15.953 C-3.925 21.303 -9.788 22.123 -18.148 21.266 C-24.074 20.086 -28.44 18.249 -32.148 13.266 C-33.529 9.448 -33.411 7.891 -31.836 4.141 C-23.798 -4.458 -10.184 -5.259 0 0 Z " fill="#F8C2B8" transform="translate(376.1484375,278.734375)"/>
<path d="M0 0 C2.548 2.063 4.454 4.099 6 7 C6.25 10.625 6.25 10.625 5 14 C0.204 19.02 -4.461 21.048 -11.312 21.25 C-18.967 21.018 -24.995 20.025 -30.68 14.578 C-32.55 12.342 -33.15 10.925 -33 8 C-31.195 3.888 -28.753 1.419 -25 -1 C-16.713 -3.762 -7.793 -4.614 0 0 Z " fill="#F8C1B7" transform="translate(155,278)"/>
<path d="M0 0 C0 3 0 6 0 9 C0.33 9.99 0.66 10.98 1 12 C1.33 11.01 1.66 10.02 2 9 C2.66 9 3.32 9 4 9 C4 6.36 4 3.72 4 1 C4.33 1 4.66 1 5 1 C5.086 2.123 5.173 3.246 5.262 4.402 C6.856 22.405 6.856 22.405 14.012 28.797 C23.731 35.921 34.961 35.958 46.617 34.723 C53.285 33.511 58.599 30.466 63.312 25.625 C66.258 21.043 68.183 16.391 69 11 C69.165 11.33 69.165 11.33 70 13 C71.32 13 72.64 13 74 13 C74.33 11.35 74.66 9.7 75 8 C79.29 8.33 83.58 8.66 88 9 C88 9.33 88 9.66 88 10 C84.7 10 81.4 10 78 10 C77.83 10.785 77.66 11.57 77.484 12.379 C74.156 26.808 74.156 26.808 68.75 30.562 C67.843 31.037 66.935 31.511 66 32 C64.742 32.99 63.493 33.991 62.25 35 C52.925 42.104 41.32 42.68 30 42 C18.306 39.982 8.953 34.813 1 26 C-0.494 23.217 -1.132 21.812 -0.625 18.688 C-0.419 18.131 -0.213 17.574 0 17 C-0.66 17 -1.32 17 -2 17 C-3.323 12.039 -3.089 7.089 -3 2 C-3.99 1.67 -4.98 1.34 -6 1 C-1.125 0 -1.125 0 0 0 Z M76 10 C77 12 77 12 77 12 Z M74 17 C75 19 75 19 75 19 Z M2 23 C3 25 3 25 3 25 Z " fill="#48413C" transform="translate(141,414)"/>
<path d="M0 0 C1.902 2.853 2.429 4.443 3.188 7.688 C5.391 15.35 10.656 20.386 17 25 C16.336 25.231 15.672 25.461 14.988 25.699 C5.443 29.225 1.335 34.585 -4 43 C-6.424 40.576 -6.97 38.532 -8.125 35.312 C-10.785 28.706 -14.582 24.209 -21 21 C-21 20.34 -21 19.68 -21 19 C-20.432 18.781 -19.863 18.562 -19.277 18.336 C-9.593 14.359 -4.545 9.426 0 0 Z " fill="#F6D684" transform="translate(458,63)"/>
<path d="M0 0 C2 3 2 3 3.375 6.375 C6.818 14.055 11.421 16.842 19 20 C28.757 22.843 42.871 22.485 52 18 C58.373 14.254 58.373 14.254 60 11 C60.99 11 61.98 11 63 11 C63.66 9.35 64.32 7.7 65 6 C65.99 6 66.98 6 68 6 C68.66 4.35 69.32 2.7 70 1 C70.99 1 71.98 1 73 1 C71.812 7.049 70.05 12.233 66 17 C64.109 18.039 64.109 18.039 62 19 C60.53 19.983 59.072 20.984 57.625 22 C46.939 29.177 33.188 29.395 20.75 27.312 C11.028 25.054 1.354 19.427 -4.312 11.062 C-5.245 8.266 -4.971 6.775 -4 4 C-1.938 1.688 -1.938 1.688 0 0 Z M70 5 C71 7 71 7 71 7 Z " fill="#433B35" transform="translate(297,429)"/>
<path d="M0 0 C-0.495 0.433 -0.99 0.866 -1.5 1.312 C-3 3 -3 3 -3 6 C-3.99 6 -4.98 6 -6 6 C-6 6.66 -6 7.32 -6 8 C-5.319 8.165 -4.639 8.33 -3.938 8.5 C3.9 12.502 7.352 19.973 10 28 C10.577 27.278 11.155 26.556 11.75 25.812 C12.493 24.884 13.235 23.956 14 23 C14.66 22.134 15.32 21.267 16 20.375 C17.87 18.154 19.554 16.549 22 15 C22.66 15 23.32 15 24 15 C23.34 16.65 22.68 18.3 22 20 C24.511 18.745 24.871 17.499 26 15 C26.165 15.33 26.165 15.33 27 17 C29.062 17.625 29.062 17.625 31 18 C30.729 18.121 30.729 18.121 29.355 18.734 C22.03 22.166 22.03 22.166 20 26 C19.691 26.928 19.381 27.856 19.062 28.812 C17.721 32.837 16.558 35.567 14 39 C11.105 40.08 9.178 40.051 6 40 C3.302 37.302 2.94 34.792 1.938 31.125 C1.596 29.89 1.254 28.655 0.902 27.383 C0.393 25.472 -0.093 23.553 -0.496 21.617 C-0.662 21.084 -0.829 20.55 -1 20 C-1.66 19.67 -2.32 19.34 -3 19 C-3 18.01 -3 17.02 -3 16 C-5.301 14.211 -5.301 14.211 -8.312 12.375 C-9.299 11.764 -10.285 11.153 -11.301 10.523 C-14 9 -14 9 -17 8 C-16.67 6.35 -16.34 4.7 -16 3 C-14.339 2.525 -12.678 2.052 -11.016 1.582 C-9.065 1.019 -7.126 0.416 -5.188 -0.188 C-2 -1 -2 -1 0 0 Z M-16 5 C-15 7 -15 7 -15 7 Z M3 28 C4 30 4 30 4 30 Z M4 31 C5 33 5 33 5 33 Z " fill="#49423C" transform="translate(443,76)"/>
<path d="M0 0 C0.66 0 1.32 0 2 0 C2 0.99 2 1.98 2 3 C2.99 3 3.98 3 5 3 C5.33 2.01 5.66 1.02 6 0 C7.863 2.794 8.716 4.911 9.75 8.062 C14.072 20.019 20.394 27.888 31.562 34.188 C38.326 37.323 45.837 39.014 53 41 C52.67 41.165 52.67 41.165 51 42 C51 43.32 51 44.64 51 46 C52.65 46.33 54.3 46.66 56 47 C56 47.33 56 47.66 56 48 C49.941 47.434 44.616 46.11 38.875 44.125 C38.103 43.868 37.331 43.612 36.535 43.348 C32.165 41.866 28.085 40.173 24 38 C23.34 37.67 22.68 37.34 22 37 C20.333 35.333 18.667 33.667 17 32 C15.003 30.329 13.003 28.662 11 27 C7.647 23.997 5.778 21.042 3.812 17 C3.303 15.969 2.794 14.938 2.27 13.875 C1.237 11.536 0.515 9.486 0 7 C-0.206 6.319 -0.412 5.639 -0.625 4.938 C-1 3 -1 3 0 0 Z " fill="#453D37" transform="translate(84,366)"/>
<path d="M0 0 C1.003 2.281 1.62 4.476 2.164 6.906 C3 9 3 9 5.086 10.281 C5.718 10.518 6.349 10.756 7 11 C7 12.32 7 13.64 7 15 C4.084 17.835 1.862 19.034 -2 20 C-2.33 20.99 -2.66 21.98 -3 23 C-5.464 24.825 -6.976 25 -10.062 25.062 C-13 24 -13 24 -14.625 20.688 C-15.079 19.471 -15.533 18.254 -16 17 C-16.722 16.299 -17.444 15.597 -18.188 14.875 C-20 13 -20 13 -20.25 10.25 C-20.168 9.507 -20.085 8.765 -20 8 C-18.886 7.773 -17.772 7.546 -16.625 7.312 C-13 6 -13 6 -11.625 3.5 C-11.419 2.675 -11.212 1.85 -11 1 C-10 -1 -10 -1 -8.312 -1.75 C-4.834 -2.126 -3.084 -1.706 0 0 Z M-19 9 C-18 12 -18 12 -18 12 Z M-13 19 C-12 21 -12 21 -12 21 Z " fill="#59534E" transform="translate(484,112)"/>
<path d="M0 0 C-0.99 1.32 -1.98 2.64 -3 4 C0.63 4.33 4.26 4.66 8 5 C8 5.33 8 5.66 8 6 C7.608 6.01 7.608 6.01 5.627 6.06 C-16.947 6.656 -39.348 7.715 -61.693 11.21 C-62.143 11.276 -62.143 11.276 -64.422 11.609 C-65.212 11.733 -66.002 11.856 -66.815 11.983 C-69.391 12.003 -70.812 11.308 -73 10 C-71.68 9.34 -70.36 8.68 -69 8 C-69 7.34 -69 6.68 -69 6 C-56.807 2.586 -44.219 1.637 -31.625 0.875 C-30.952 0.833 -30.279 0.79 -29.585 0.747 C-19.715 0.128 -9.889 -0.289 0 0 Z " fill="#362D27" transform="translate(212,81)"/>
<path d="M0 0 C1.875 1.062 1.875 1.062 3 3 C4.057 7.606 4.422 9.881 2.75 14.312 C-0.668 19.561 -0.668 19.561 -4.086 20.688 C-8.353 21.27 -10.327 21.404 -14.125 19.125 C-16.36 15.399 -16.506 13.491 -15.789 9.289 C-13.029 1.283 -8.054 -1.696 0 0 Z " fill="#F6F5F3" transform="translate(340,210)"/>
<path d="M0 0 C2.674 1.812 2.959 2.878 4 6 C4.47 9.491 4.679 11.942 2.73 14.977 C-0.471 18.762 -2.267 20.84 -7.375 21.312 C-11 21 -11 21 -13.438 19.562 C-15.766 15.744 -15.763 12.358 -15 8 C-11.36 1.096 -7.548 -1.04 0 0 Z " fill="#F9F8F6" transform="translate(171,209)"/>
<path d="M0 0 C3.506 0.556 4.738 1.541 6.812 4.375 C10.564 8.909 14.007 10.623 19.762 11.348 C27.221 11.72 32.874 10.334 39 6 C40.981 4.091 42.416 2.27 44 0 C45.32 0.33 46.64 0.66 48 1 C47.881 4.938 46.449 6.89 43.812 9.625 C36.922 16.094 29.772 17.339 20.586 17.215 C13.492 16.626 7.242 13.803 2 9 C0 6.438 0 6.438 -1 4 C-0.688 1.688 -0.688 1.688 0 0 Z " fill="#261E19" transform="translate(228,270)"/>
<path d="M0 0 C4.29 0.33 8.58 0.66 13 1 C13 1.33 13 1.66 13 2 C9.7 2 6.4 2 3 2 C2.83 2.785 2.66 3.57 2.484 4.379 C-0.844 18.808 -0.844 18.808 -6.25 22.562 C-7.157 23.037 -8.065 23.511 -9 24 C-10.258 24.99 -11.507 25.991 -12.75 27 C-20.262 32.723 -29.055 34.149 -38.312 34.062 C-39.567 34.053 -40.821 34.044 -42.113 34.035 C-43.066 34.024 -44.019 34.012 -45 34 C-45 33.67 -45 33.34 -45 33 C-39.39 32.34 -33.78 31.68 -28 31 C-28 30.34 -28 29.68 -28 29 C-28.99 28.34 -29.98 27.68 -31 27 C-30.443 26.914 -29.886 26.827 -29.312 26.738 C-22.155 25.42 -16.793 22.869 -11.688 17.625 C-8.742 13.043 -6.817 8.391 -6 3 C-5.835 3.33 -5.835 3.33 -5 5 C-3.68 5 -2.36 5 -1 5 C-0.67 3.35 -0.34 1.7 0 0 Z M1 2 C2 4 2 4 2 4 Z M-1 9 C0 11 0 11 0 11 Z " fill="#4B423D" transform="translate(216,422)"/>
<path d="M0 0 C0.66 0.66 1.32 1.32 2 2 C2.66 2.33 3.32 2.66 4 3 C7.153 12.636 6.857 22.036 3 31.438 C2 33 2 33 0 34 C-0.33 34.99 -0.66 35.98 -1 37 C-2.65 37.707 -4.321 38.366 -6 39 C-7.011 39.722 -8.021 40.444 -9.062 41.188 C-12 43 -12 43 -14.375 42.75 C-14.911 42.502 -15.447 42.255 -16 42 C-15.34 41.835 -15.34 41.835 -12 41 C-11.835 40.01 -11.835 40.01 -11 35 C-10.505 34.835 -10.505 34.835 -8 34 C-6.783 32.098 -6.055 30.167 -5.352 28.027 C-5.232 27.672 -5.232 27.672 -4.625 25.875 C-4.411 25.192 -4.197 24.509 -3.977 23.805 C-2.724 21.489 -1.401 20.958 1 20 C1.027 17.854 1.046 15.708 1.062 13.562 C1.074 12.368 1.086 11.173 1.098 9.941 C1 7 1 7 0 6 C-0.041 4 -0.043 2 0 0 Z M3 6 C4 9 4 9 4 9 Z M4 14 C4 16.31 4 18.62 4 21 C4.33 21 4.66 21 5 21 C5 18.69 5 16.38 5 14 C4.67 14 4.34 14 4 14 Z M3 22 C3 23.65 3 25.3 3 27 C3.33 27 3.66 27 4 27 C4 25.35 4 23.7 4 22 C3.67 22 3.34 22 3 22 Z M1 29 C2 31 2 31 2 31 Z " fill="#5C5551" transform="translate(468,305)"/>
<path d="M0 0 C0.99 0 1.98 0 3 0 C1.812 6.049 0.05 11.233 -4 16 C-5.891 17.039 -5.891 17.039 -8 18 C-9.47 18.983 -10.928 19.984 -12.375 21 C-17.469 24.424 -21.76 26.367 -28 26 C-24.25 24 -24.25 24 -22 24 C-21.959 23.381 -21.918 22.762 -21.875 22.125 C-21.586 21.424 -21.298 20.723 -21 20 C-17.938 18.75 -17.938 18.75 -15 18 C-15 17.01 -15 16.02 -15 15 C-12.688 12.312 -12.688 12.312 -10 10 C-9.01 10 -8.02 10 -7 10 C-6.34 8.35 -5.68 6.7 -5 5 C-4.01 5 -3.02 5 -2 5 C-1.34 3.35 -0.68 1.7 0 0 Z M0 4 C1 6 1 6 1 6 Z " fill="#554E49" transform="translate(367,430)"/>
<path d="M0 0 C0.33 1.98 0.66 3.96 1 6 C0.257 6.103 -0.485 6.206 -1.25 6.312 C-4.17 7.043 -5.732 8.068 -8 10 C-7.505 10.598 -7.01 11.196 -6.5 11.812 C-5 14 -5 14 -5 17 C-5.99 17.33 -6.98 17.66 -8 18 C-8 17.34 -8 16.68 -8 16 C-8.557 16.268 -9.114 16.536 -9.688 16.812 C-12 17 -12 17 -14.75 14.875 C-17 12 -17 12 -17.312 9.188 C-17.209 8.466 -17.106 7.744 -17 7 C-13.123 5.807 -10.084 5 -6 5 C-5.876 4.361 -5.752 3.721 -5.625 3.062 C-5.419 2.382 -5.212 1.701 -5 1 C-3 0 -3 0 0 0 Z M-16 8 C-15 11 -15 11 -15 11 Z " fill="#39312B" transform="translate(481,113)"/>
<path d="M0 0 C-0.773 6.247 -4.49 9.864 -9 14 C-11.357 15.408 -13.361 16.175 -16 17 C-16.66 16.34 -17.32 15.68 -18 15 C-17.691 14.629 -17.691 14.629 -16.125 12.75 C-14 10 -14 10 -13.062 8.062 C-11.154 4.358 -8.757 0.775 -4.875 -0.938 C-3 -1 -3 -1 0 0 Z " fill="#38302B" transform="translate(457,64)"/>
<path d="M0 0 C3 0.375 3 0.375 6 1.375 C6.144 2.344 6.289 3.314 6.438 4.312 C7 7.375 7 7.375 8 8.375 C8.455 11.03 8.702 13.697 9 16.375 C8.34 16.705 7.68 17.035 7 17.375 C6.67 16.385 6.34 15.395 6 14.375 C4.762 12.203 4.762 12.203 3 10.375 C0.52 9.984 0.52 9.984 -2.188 10.125 C-3.089 10.161 -3.99 10.197 -4.918 10.234 C-5.605 10.281 -6.292 10.327 -7 10.375 C-6.291 5.413 -5.546 0.693 0 0 Z M5 3.375 C6 6.375 6 6.375 6 6.375 Z " fill="#5B5551" transform="translate(458,53.625)"/>
<path d="M0 0 C1.546 2.319 2.796 4.506 4 7 C3.505 7.454 3.01 7.907 2.5 8.375 C1 10 1 10 1 12 C1.99 12.66 2.98 13.32 4 14 C3 17 3 17 1.312 18.25 C-1.732 19.237 -3.919 18.7 -7 18 C-7.33 16.02 -7.66 14.04 -8 12 C-5 11 -5 11 -2 12 C-2.602 9.98 -3.273 7.979 -4 6 C-4.66 5.67 -5.32 5.34 -6 5 C-4.02 3.35 -2.04 1.7 0 0 Z M-7 13 C-6 15 -6 15 -6 15 Z " fill="#9D8E67" transform="translate(478,118)"/>
<path d="M0 0 C0.736 0.005 1.472 0.009 2.23 0.014 C4.029 0.025 5.827 0.043 7.625 0.062 C6.635 1.382 5.645 2.703 4.625 4.062 C6.44 4.228 6.44 4.228 15.625 5.062 C15.625 5.392 15.625 5.722 15.625 6.062 C5.241 6.16 -5.037 6.218 -15.375 5.062 C-15.045 3.743 -14.715 2.422 -14.375 1.062 C-9.518 0.09 -4.925 -0.058 0 0 Z " fill="#3E3630" transform="translate(204.375,80.9375)"/>
<path d="M0 0 C-0.495 0.433 -0.99 0.866 -1.5 1.312 C-3 3 -3 3 -3 6 C-3.99 6 -4.98 6 -6 6 C-6 6.66 -6 7.32 -6 8 C-4.68 8.66 -3.36 9.32 -2 10 C-2.598 10.144 -3.196 10.289 -3.812 10.438 C-5.562 10.887 -7.287 11.429 -9 12 C-12.062 10.625 -12.062 10.625 -15 9 C-15.66 8.67 -16.32 8.34 -17 8 C-16.67 6.35 -16.34 4.7 -16 3 C-14.339 2.525 -12.678 2.052 -11.016 1.582 C-9.065 1.019 -7.126 0.416 -5.188 -0.188 C-2 -1 -2 -1 0 0 Z M-16 5 C-15 7 -15 7 -15 7 Z " fill="#534C46" transform="translate(443,76)"/>
<path d="M0 0 C1.5 1.25 1.5 1.25 3 3 C3 4.32 3 5.64 3 7 C4.32 6.67 5.64 6.34 7 6 C7 7.65 7 9.3 7 11 C5.68 11 4.36 11 3 11 C3 13.64 3 16.28 3 19 C2.34 19 1.68 19 1 19 C1 19.66 1 20.32 1 21 C0.34 21.33 0.34 21.33 -3 23 C-2.337 15.276 -1.235 7.652 0 0 Z " fill="#2A221C" transform="translate(424,351)"/>
<path d="M0 0 C6.6 0 13.2 0 20 0 C19.67 1.32 19.34 2.64 19 4 C14.647 4.84 10.556 5.108 6.125 5.062 C4.973 5.053 3.82 5.044 2.633 5.035 C1.764 5.024 0.895 5.012 0 5 C0 4.34 0 3.68 0 3 C-0.99 2.67 -1.98 2.34 -3 2 C-2.01 2 -1.02 2 0 2 C0 1.34 0 0.68 0 0 Z " fill="#251B14" transform="translate(169,450)"/>
<path d="M0 0 C0.33 0.66 0.66 1.32 1 2 C0.031 2.433 -0.939 2.866 -1.938 3.312 C-5 5 -5 5 -6 8 C-13.263 10.848 -20.376 9.792 -28 9 C-27.01 8.67 -26.02 8.34 -25 8 C-25 7.34 -25 6.68 -25 6 C-24.391 5.909 -24.391 5.909 -21.309 5.449 C-19.685 5.196 -18.061 4.942 -16.438 4.688 C-15.638 4.57 -14.838 4.452 -14.014 4.33 C-8.91 3.518 -4.663 2.235 0 0 Z " fill="#221912" transform="translate(351,446)"/>
<path d="M0 0 C2.456 2.553 2.988 3.859 3.293 7.453 C3.276 8.08 3.276 8.08 3.188 11.25 C3.174 11.882 3.174 11.882 3.105 15.078 C3.071 16.042 3.036 17.007 3 18 C2.34 18 1.68 18 1 18 C0.34 18.99 -0.32 19.98 -1 21 C-1.33 15.06 -1.66 9.12 -2 3 C-1.34 3 -0.68 3 0 3 C0 2.01 0 1.02 0 0 Z " fill="#241B14" transform="translate(467,308)"/>
<path d="M0 0 C0.33 0 0.66 0 1 0 C1 21.45 1 42.9 1 65 C0.67 65 0.34 65 0 65 C0 43.55 0 22.1 0 0 Z " fill="#666361" transform="translate(442,193)"/>
<path d="M0 0 C18.48 0 36.96 0 56 0 C56 0.33 56 0.66 56 1 C37.52 1 19.04 1 0 1 C0 0.67 0 0.34 0 0 Z " fill="#1D1D1B" transform="translate(196,79)"/>
<path d="M0 0 C17.49 0 34.98 0 53 0 C53 0.33 53 0.66 53 1 C35.51 1 18.02 1 0 1 C0 0.67 0 0.34 0 0 Z " fill="#2F2B28" transform="translate(269,79)"/>
<path d="M0 0 C0 3 0 3 -1.312 4.605 C-1.869 5.128 -2.426 5.65 -3 6.188 C-3.557 6.717 -4.114 7.247 -4.688 7.793 C-5.121 8.191 -5.554 8.59 -6 9 C-6.66 8.67 -7.32 8.34 -8 8 C-5.36 5.36 -2.72 2.72 0 0 Z " fill="#303030" transform="translate(101,105)"/>
<path d="M0 0 C5.61 0 11.22 0 17 0 C17 0.33 17 0.66 17 1 C11.39 1 5.78 1 0 1 C0 0.67 0 0.34 0 0 Z " fill="#464646" transform="translate(165,81)"/>
<path d="M0 0 C5.61 0 11.22 0 17 0 C17 0.33 17 0.66 17 1 C11.39 1 5.78 1 0 1 C0 0.67 0 0.34 0 0 Z " fill="#D8D8D8" transform="translate(252,78)"/>
<path d="M0 0 C5.28 0 10.56 0 16 0 C16 0.33 16 0.66 16 1 C10.72 1 5.44 1 0 1 C0 0.67 0 0.34 0 0 Z " fill="#2A2A2A" transform="translate(334,81)"/>
<path d="M0 0 C4.62 0 9.24 0 14 0 C14 0.33 14 0.66 14 1 C9.38 1 4.76 1 0 1 C0 0.67 0 0.34 0 0 Z " fill="#8C8383" transform="translate(323,458)"/>
<path d="M0 0 C4.62 0 9.24 0 14 0 C14 0.33 14 0.66 14 1 C9.38 1 4.76 1 0 1 C0 0.67 0 0.34 0 0 Z " fill="#5B4848" transform="translate(171,457)"/>
<path d="M0 0 C4.62 0 9.24 0 14 0 C14 0.33 14 0.66 14 1 C9.38 1 4.76 1 0 1 C0 0.67 0 0.34 0 0 Z " fill="#726760" transform="translate(182,80)"/>
<path d="M0 0 C3.96 0 7.92 0 12 0 C12 0.33 12 0.66 12 1 C8.04 1 4.08 1 0 1 C0 0.67 0 0.34 0 0 Z " fill="#8C7F7F" transform="translate(322,80)"/>
<path d="M0 0 C3.3 0 6.6 0 10 0 C10 0.33 10 0.66 10 1 C6.7 1 3.4 1 0 1 C0 0.67 0 0.34 0 0 Z " fill="#7A7A75" transform="translate(42,230)"/>
<path d="M0 0 C3.3 0 6.6 0 10 0 C10 0.33 10 0.66 10 1 C6.7 1 3.4 1 0 1 C0 0.67 0 0.34 0 0 Z " fill="#3B3B33" transform="translate(151,83)"/>
<path d="M0 0 C2.64 0 5.28 0 8 0 C8 0.33 8 0.66 8 1 C5.36 1 2.72 1 0 1 C0 0.67 0 0.34 0 0 Z " fill="#6F3F37" transform="translate(315,457)"/>
<path d="M0 0 C2.64 0 5.28 0 8 0 C8 0.33 8 0.66 8 1 C5.36 1 2.72 1 0 1 C0 0.67 0 0.34 0 0 Z " fill="#3F3F35" transform="translate(358,83)"/>
<path d="M0 0 C2.31 0 4.62 0 7 0 C7 0.33 7 0.66 7 1 C4.69 1 2.38 1 0 1 C0 0.67 0 0.34 0 0 Z " fill="#6C635A" transform="translate(337,457)"/>
<path d="M0 0 C0.99 0.33 1.98 0.66 3 1 C1.02 1.33 -0.96 1.66 -3 2 C-2.01 1.34 -1.02 0.68 0 0 Z " fill="#838383" transform="translate(388,412)"/>
<path d="M0 0 C2.31 0 4.62 0 7 0 C7 0.33 7 0.66 7 1 C4.69 1 2.38 1 0 1 C0 0.67 0 0.34 0 0 Z " fill="#D1D1D1" transform="translate(444,350)"/>
<path d="M0 0 C0.33 0 0.66 0 1 0 C1 1.98 1 3.96 1 6 C0.67 6 0.34 6 0 6 C0 4.02 0 2.04 0 0 Z " fill="#FFFFFF" transform="translate(20,255)"/>
<path d="M0 0 C1.98 0 3.96 0 6 0 C6 0.33 6 0.66 6 1 C4.02 1 2.04 1 0 1 C0 0.67 0 0.34 0 0 Z " fill="#686060" transform="translate(350,82)"/>
<path d="M0 0 C1.65 0 3.3 0 5 0 C5 0.33 5 0.66 5 1 C3.35 1 1.7 1 0 1 C0 0.67 0 0.34 0 0 Z " fill="#7F7F75" transform="translate(185,456)"/>
<path d="M0 0 C1.65 0 3.3 0 5 0 C5 0.33 5 0.66 5 1 C3.35 1 1.7 1 0 1 C0 0.67 0 0.34 0 0 Z " fill="#75756B" transform="translate(166,456)"/>
<path d="M0 0 C1.65 0 3.3 0 5 0 C5 0.33 5 0.66 5 1 C3.35 1 1.7 1 0 1 C0 0.67 0 0.34 0 0 Z " fill="#505050" transform="translate(190,455)"/>
<path d="M0 0 C1.65 0 3.3 0 5 0 C5 0.33 5 0.66 5 1 C3.35 1 1.7 1 0 1 C0 0.67 0 0.34 0 0 Z " fill="#5D5D4C" transform="translate(377,415)"/>
<path d="M0 0 C1.65 0 3.3 0 5 0 C5 0.33 5 0.66 5 1 C3.35 1 1.7 1 0 1 C0 0.67 0 0.34 0 0 Z " fill="#494949" transform="translate(451,349)"/>
<path d="M0 0 C1.65 0 3.3 0 5 0 C5 0.33 5 0.66 5 1 C3.35 1 1.7 1 0 1 C0 0.67 0 0.34 0 0 Z " fill="#3D3D3D" transform="translate(439,349)"/>
<path d="M0 0 C0.66 0.33 0.66 0.33 4 2 C2.68 1.67 1.36 1.34 0 1 C0 0.67 0 0.34 0 0 Z " fill="#332222" transform="translate(65,315)"/>
<path d="M0 0 C1.65 0 3.3 0 5 0 C5 0.33 5 0.66 5 1 C3.35 1 1.7 1 0 1 C0 0.67 0 0.34 0 0 Z " fill="#887777" transform="translate(141,85)"/>
<path d="M0 0 C1.65 0 3.3 0 5 0 C5 0.33 5 0.66 5 1 C3.35 1 1.7 1 0 1 C0 0.67 0 0.34 0 0 Z " fill="#7A7A7A" transform="translate(366,84)"/>
<path d="M0 0 C4 1 4 1 4 1 Z " fill="#747474" transform="translate(162,455)"/>
<path d="M0 0 C4 1 4 1 4 1 Z " fill="#3F3F3F" transform="translate(128,413)"/>
<path d="M0 0 C0.99 0.33 1.98 0.66 3 1 C2.01 1 1.02 1 0 1 C0 0.67 0 0.34 0 0 Z " fill="#7F7F7F" transform="translate(61,313)"/>
<path d="M0 0 C0.99 0.33 1.98 0.66 3 1 C2.01 1 1.02 1 0 1 C0 0.67 0 0.34 0 0 Z " fill="#AFAF9F" transform="translate(48,304)"/>
<path d="M0 0 C4 1 4 1 4 1 Z " fill="#1F1F1F" transform="translate(474,138)"/>
<path d="M0 0 C4 1 4 1 4 1 Z " fill="#5F5F5F" transform="translate(467,117)"/>
<path d="M0 0 C0.99 0.33 1.98 0.66 3 1 C2.01 1 1.02 1 0 1 C0 0.67 0 0.34 0 0 Z " fill="#AAAA94" transform="translate(450,116)"/>
<path d="M0 0 C0.99 0.33 1.98 0.66 3 1 C2.01 1 1.02 1 0 1 C0 0.67 0 0.34 0 0 Z " fill="#7B7B7B" transform="translate(414,102)"/>
<path d="M0 0 C4 1 4 1 4 1 Z " fill="#5C5C5C" transform="translate(386,88)"/>
<path d="M0 0 C4 1 4 1 4 1 Z " fill="#727272" transform="translate(130,88)"/>
<path d="M0 0 C4 1 4 1 4 1 Z " fill="#7F7F7F" transform="translate(161,82)"/>
<path d="M0 0 C4 1 4 1 4 1 Z " fill="#BFBFBF" transform="translate(434,75)"/>
<path d="M0 0 C3 1 3 1 3 1 Z " fill="#888888" transform="translate(344,456)"/>
<path d="M0 0 C3 1 3 1 3 1 Z " fill="#545454" transform="translate(347,455)"/>
<path d="M0 0 C3 1 3 1 3 1 Z " fill="#7F7F7F" transform="translate(310,455)"/>
<path d="M0 0 C3 1 3 1 3 1 Z " fill="#949494" transform="translate(157,453)"/>
<path d="M0 0 C3 1 3 1 3 1 Z " fill="#BBBBBB" transform="translate(374,416)"/>
<path d="M0 0 C3 1 3 1 3 1 Z " fill="#909090" transform="translate(382,414)"/>
<path d="M0 0 C3 1 3 1 3 1 Z " fill="#555555" transform="translate(132,414)"/>
<path d="M0 0 C3 1 3 1 3 1 Z " fill="#BBAAAA" transform="translate(125,412)"/>
<path d="M0 0 C3 1 3 1 3 1 Z " fill="#7F7F7F" transform="translate(391,411)"/>
<path d="M0 0 C3 1 3 1 3 1 Z " fill="#2A2A2A" transform="translate(122,411)"/>
<path d="M0 0 C3 1 3 1 3 1 Z " fill="#B8B8B8" transform="translate(434,347)"/>
<path d="M0 0 C3 1 3 1 3 1 Z " fill="#8D8D8D" transform="translate(54,231)"/>
<path d="M0 0 C0.33 0.66 0.66 1.32 1 2 C0.34 1.67 -0.32 1.34 -1 1 C-0.67 0.67 -0.34 0.34 0 0 Z " fill="#313131" transform="translate(479,135)"/>
<path d="M0 0 C0.66 0 1.32 0 2 0 C1.67 0.66 1.34 1.32 1 2 C0.67 1.34 0.34 0.68 0 0 Z " fill="#545454" transform="translate(423,111)"/>
<path d="M0 0 C0.66 0 1.32 0 2 0 C1.67 0.66 1.34 1.32 1 2 C0.67 1.34 0.34 0.68 0 0 Z " fill="#23230E" transform="translate(421,109)"/>
<path d="M0 0 C0.66 0 1.32 0 2 0 C1.67 0.66 1.34 1.32 1 2 C0.67 1.34 0.34 0.68 0 0 Z " fill="#222200" transform="translate(419,107)"/>
<path d="M0 0 C3 1 3 1 3 1 Z " fill="#636363" transform="translate(474,94)"/>
<path d="M0 0 C3 1 3 1 3 1 Z " fill="#A9A9A9" transform="translate(116,94)"/>
<path d="M0 0 C3 1 3 1 3 1 Z " fill="#5A3E3E" transform="translate(477,93)"/>
<path d="M0 0 C3 1 3 1 3 1 Z " fill="#4C4C4C" transform="translate(120,92)"/>
<path d="M0 0 C3 1 3 1 3 1 Z " fill="#949494" transform="translate(127,89)"/>
<path d="M0 0 C3 1 3 1 3 1 Z " fill="#7F7F7F" transform="translate(383,87)"/>
<path d="M0 0 C3 1 3 1 3 1 Z " fill="#4C4C3B" transform="translate(377,86)"/>
<path d="M0 0 C3 1 3 1 3 1 Z " fill="#AAAAAA" transform="translate(138,86)"/>
<path d="M0 0 C3 1 3 1 3 1 Z " fill="#717171" transform="translate(374,85)"/>
<path d="M0 0 C3 1 3 1 3 1 Z " fill="#666666" transform="translate(148,84)"/>
<path d="M0 0 C3 1 3 1 3 1 Z " fill="#8D8D7C" transform="translate(431,76)"/>
<path d="M0 0 C3 1 3 1 3 1 Z " fill="#888888" transform="translate(438,74)"/>
<path d="M0 0 C3 1 3 1 3 1 Z " fill="#000000" transform="translate(458,52)"/>
<path d="M0 0 C2 1 2 1 2 1 Z " fill="#6C6C6C" transform="translate(313,456)"/>
<path d="M0 0 C2 1 2 1 2 1 Z " fill="#888888" transform="translate(350,454)"/>
<path d="M0 0 C2 1 2 1 2 1 Z " fill="#555555" transform="translate(308,454)"/>
<path d="M0 0 C2 1 2 1 2 1 Z " fill="#8C8C8C" transform="translate(195,454)"/>
<path d="M0 0 C2 1 2 1 2 1 Z " fill="#555555" transform="translate(160,454)"/>
<path d="M0 0 C2 1 2 1 2 1 Z " fill="#BFBFBF" transform="translate(306,453)"/>
<path d="M0 0 C2 1 2 1 2 1 Z " fill="#2A2A2A" transform="translate(197,453)"/>
<path d="M0 0 C2 1 2 1 2 1 Z " fill="#5F5F5F" transform="translate(199,452)"/>
<path d="M0 0 C2 1 2 1 2 1 Z " fill="#CCB2B2" transform="translate(155,452)"/>
<path d="M0 0 C2 1 2 1 2 1 Z " fill="#7F7F7F" transform="translate(303,451)"/>
<path d="M0 0 C2 1 2 1 2 1 Z " fill="#7F7F7F" transform="translate(356,450)"/>
<path d="M0 0 C2 1 2 1 2 1 Z " fill="#7F5555" transform="translate(202,450)"/>
<path d="M0 0 C2 1 2 1 2 1 Z " fill="#BF9F9F" transform="translate(152,450)"/>
<path d="M0 0 C2 1 2 1 2 1 Z " fill="#CCCCCC" transform="translate(394,410)"/>
<path d="M0 0 C2 1 2 1 2 1 Z " fill="#CCB2B2" transform="translate(120,410)"/>
<path d="M0 0 C2 1 2 1 2 1 Z " fill="#2A2A2A" transform="translate(396,409)"/>
<path d="M0 0 C2 1 2 1 2 1 Z " fill="#555555" transform="translate(117,409)"/>
<path d="M0 0 C2 1 2 1 2 1 Z " fill="#666666" transform="translate(398,408)"/>
<path d="M0 0 C2 1 2 1 2 1 Z " fill="#4C3333" transform="translate(115,408)"/>
<path d="M0 0 C2 1 2 1 2 1 Z " fill="#725959" transform="translate(402,406)"/>
<path d="M0 0 C2 1 2 1 2 1 Z " fill="#555555" transform="translate(109,405)"/>
<path d="M0 0 C2 1 2 1 2 1 Z " fill="#7F7F7F" transform="translate(408,402)"/>
<path d="M0 0 C2 1 2 1 2 1 Z " fill="#9F9F9F" transform="translate(104,402)"/>
<path d="M0 0 C2 1 2 1 2 1 Z " fill="#949474" transform="translate(437,348)"/>
<path d="M0 0 C2 1 2 1 2 1 Z " fill="#5F5F3F" transform="translate(457,347)"/>
<path d="M0 0 C2 1 2 1 2 1 Z " fill="#555555" transform="translate(462,344)"/>
<path d="M0 0 C2 1 2 1 2 1 Z " fill="#555555" transform="translate(56,310)"/>
<path d="M0 0 C2 1 2 1 2 1 Z " fill="#9F9F9F" transform="translate(44,301)"/>
<path d="M0 0 C2 1 2 1 2 1 Z " fill="#555555" transform="translate(63,235)"/>
<path d="M0 0 C2 1 2 1 2 1 Z " fill="#B2B299" transform="translate(61,234)"/>
<path d="M0 0 C2 1 2 1 2 1 Z " fill="#2A2A2A" transform="translate(59,233)"/>
<path d="M0 0 C2 1 2 1 2 1 Z " fill="#CCCCCC" transform="translate(57,232)"/>
<path d="M0 0 C2 1 2 1 2 1 Z " fill="#4C4C4C" transform="translate(36,232)"/>
<path d="M0 0 C2 1 2 1 2 1 Z " fill="#555555" transform="translate(38,231)"/>
<path d="M0 0 C2 1 2 1 2 1 Z " fill="#3F3F3F" transform="translate(453,116)"/>
<path d="M0 0 C2 1 2 1 2 1 Z " fill="#BFBFBF" transform="translate(478,108)"/>
<path d="M0 0 C2 1 2 1 2 1 Z " fill="#7F7F7F" transform="translate(102,104)"/>
<path d="M0 0 C2 1 2 1 2 1 Z " fill="#6F6F6F" transform="translate(106,101)"/>
<path d="M0 0 C2 1 2 1 2 1 Z " fill="#B2B2B2" transform="translate(466,98)"/>
<path d="M0 0 C2 1 2 1 2 1 Z " fill="#2A2A2A" transform="translate(409,98)"/>
<path d="M0 0 C2 1 2 1 2 1 Z " fill="#555555" transform="translate(407,97)"/>
<path d="M0 0 C2 1 2 1 2 1 Z " fill="#7F7F7F" transform="translate(469,96)"/>
<path d="M0 0 C2 1 2 1 2 1 Z " fill="#CCB2B2" transform="translate(471,95)"/>
<path d="M0 0 C2 1 2 1 2 1 Z " fill="#B2B299" transform="translate(404,95)"/>
<path d="M0 0 C2 1 2 1 2 1 Z " fill="#7F7F7F" transform="translate(402,94)"/>
<path d="M0 0 C2 1 2 1 2 1 Z " fill="#5F5F5F" transform="translate(400,93)"/>
<path d="M0 0 C2 1 2 1 2 1 Z " fill="#AAAAAA" transform="translate(438,92)"/>
<path d="M0 0 C2 1 2 1 2 1 Z " fill="#7F7F7F" transform="translate(398,92)"/>
<path d="M0 0 C2 1 2 1 2 1 Z " fill="#AAAAAA" transform="translate(396,91)"/>
<path d="M0 0 C2 1 2 1 2 1 Z " fill="#8C8C8C" transform="translate(125,90)"/>
<path d="M0 0 C2 1 2 1 2 1 Z " fill="#5F5F5F" transform="translate(434,89)"/>
<path d="" fill="#CCCCCC" transform="translate(0,0)"/>
<path d="M0 0 C2 1 2 1 2 1 Z " fill="#B2B2B2" transform="translate(432,88)"/>
<path d="M0 0 C2 1 2 1 2 1 Z " fill="#AAAAAA" transform="translate(430,87)"/>
<path d="M0 0 C2 1 2 1 2 1 Z " fill="#747474" transform="translate(134,87)"/>
<path d="M0 0 C2 1 2 1 2 1 Z " fill="#555555" transform="translate(480,83)"/>
<path d="M0 0 C2 1 2 1 2 1 Z " fill="#A3A3A3" transform="translate(472,78)"/>
<path d="M0 0 C2 1 2 1 2 1 Z " fill="#B2B2B2" transform="translate(441,73)"/>
<path d="M0 0 C2 1 2 1 2 1 Z " fill="#555555" transform="translate(456,53)"/>
<path d="" fill="#AAAAAA" transform="translate(0,0)"/>
<path d="" fill="#7F7F7F" transform="translate(0,0)"/>
<path d="" fill="#000000" transform="translate(0,0)"/>
<path d="" fill="#555555" transform="translate(0,0)"/>
<path d="" fill="#555555" transform="translate(0,0)"/>
<path d="" fill="#7F7F7F" transform="translate(0,0)"/>
<path d="" fill="#555555" transform="translate(0,0)"/>
<path d="" fill="#7F7F7F" transform="translate(0,0)"/>
<path d="" fill="#7F0000" transform="translate(0,0)"/>
<path d="" fill="#555555" transform="translate(0,0)"/>
<path d="" fill="#7F7F7F" transform="translate(0,0)"/>
<path d="" fill="#999999" transform="translate(0,0)"/>
<path d="" fill="#666666" transform="translate(0,0)"/>
<path d="" fill="#555555" transform="translate(0,0)"/>
<path d="" fill="#999999" transform="translate(0,0)"/>
<path d="" fill="#7F7F7F" transform="translate(0,0)"/>
<path d="" fill="#3F3F3F" transform="translate(0,0)"/>
<path d="" fill="#7F7F3F" transform="translate(0,0)"/>
<path d="" fill="#3F3F3F" transform="translate(0,0)"/>
<path d="" fill="#999999" transform="translate(0,0)"/>
<path d="" fill="#996666" transform="translate(0,0)"/>
<path d="" fill="#2A2A2A" transform="translate(0,0)"/>
<path d="" fill="#333333" transform="translate(0,0)"/>
<path d="" fill="#7F3F3F" transform="translate(0,0)"/>
<path d="" fill="#7F7F7F" transform="translate(0,0)"/>
<path d="" fill="#555555" transform="translate(0,0)"/>
<path d="" fill="#555555" transform="translate(0,0)"/>
<path d="" fill="#7F7F7F" transform="translate(0,0)"/>
<path d="" fill="#666666" transform="translate(0,0)"/>
<path d="" fill="#666666" transform="translate(0,0)"/>
<path d="" fill="#3F0000" transform="translate(0,0)"/>
<path d="" fill="#7F7F7F" transform="translate(0,0)"/>
<path d="" fill="#FFFFFF" transform="translate(0,0)"/>
<path d="" fill="#7F7F7F" transform="translate(0,0)"/>
<path d="" fill="#7F7F7F" transform="translate(0,0)"/>
<path d="" fill="#666666" transform="translate(0,0)"/>
<path d="" fill="#666666" transform="translate(0,0)"/>
<path d="" fill="#AAAAAA" transform="translate(0,0)"/>
<path d="" fill="#7F7F7F" transform="translate(0,0)"/>
<path d="" fill="#999999" transform="translate(0,0)"/>
<path d="" fill="#333333" transform="translate(0,0)"/>
<path d="" fill="#555555" transform="translate(0,0)"/>
<path d="" fill="#333333" transform="translate(0,0)"/>
<path d="" fill="#3F3F3F" transform="translate(0,0)"/>
<path d="" fill="#999999" transform="translate(0,0)"/>
<path d="" fill="#7F7F7F" transform="translate(0,0)"/>
<path d="" fill="#BFBFBF" transform="translate(0,0)"/>
<path d="" fill="#3F0000" transform="translate(0,0)"/>
<path d="" fill="#7F7F7F" transform="translate(0,0)"/>
<path d="" fill="#CCCCCC" transform="translate(0,0)"/>
<path d="" fill="#555555" transform="translate(0,0)"/>
<path d="" fill="#996666" transform="translate(0,0)"/>
<path d="" fill="#AAAAAA" transform="translate(0,0)"/>
<path d="" fill="#FFFFFF" transform="translate(0,0)"/>
<path d="" fill="#7F7F7F" transform="translate(0,0)"/>
<path d="" fill="#555555" transform="translate(0,0)"/>
<path d="" fill="#FFFFFF" transform="translate(0,0)"/>
<path d="" fill="#7F7F7F" transform="translate(0,0)"/>
<path d="" fill="#000000" transform="translate(0,0)"/>
<path d="" fill="#000000" transform="translate(0,0)"/>
<path d="" fill="#996666" transform="translate(0,0)"/>
<path d="" fill="#FFFFFF" transform="translate(0,0)"/>
<path d="" fill="#AAAAAA" transform="translate(0,0)"/>
<path d="" fill="#7F7F7F" transform="translate(0,0)"/>
<path d="" fill="#FFFFFF" transform="translate(0,0)"/>
<path d="" fill="#FFFFFF" transform="translate(0,0)"/>
<path d="" fill="#666666" transform="translate(0,0)"/>
<path d="" fill="#996666" transform="translate(0,0)"/>
<path d="" fill="#000000" transform="translate(0,0)"/>
<path d="" fill="#7F7F7F" transform="translate(0,0)"/>
<path d="" fill="#7F7F7F" transform="translate(0,0)"/>
<path d="" fill="#7F7F7F" transform="translate(0,0)"/>
<path d="" fill="#BFBFBF" transform="translate(0,0)"/>
<path d="" fill="#555555" transform="translate(0,0)"/>
<path d="" fill="#7F7F7F" transform="translate(0,0)"/>
<path d="" fill="#7F7F7F" transform="translate(0,0)"/>
<path d="" fill="#000000" transform="translate(0,0)"/>
<path d="" fill="#AAAAAA" transform="translate(0,0)"/>
<path d="" fill="#AAAAAA" transform="translate(0,0)"/>
<path d="" fill="#000000" transform="translate(0,0)"/>
<path d="" fill="#555555" transform="translate(0,0)"/>
<path d="" fill="#BFBFBF" transform="translate(0,0)"/>
<path d="" fill="#FFFFFF" transform="translate(0,0)"/>
<path d="" fill="#000000" transform="translate(0,0)"/>
<path d="" fill="#7F7F7F" transform="translate(0,0)"/>
<path d="" fill="#FFFFFF" transform="translate(0,0)"/>
<path d="" fill="#555555" transform="translate(0,0)"/>
<path d="" fill="#000000" transform="translate(0,0)"/>
<path d="" fill="#B6B6B6" transform="translate(0,0)"/>
<path d="" fill="#000000" transform="translate(0,0)"/>
<path d="" fill="#7F7F7F" transform="translate(0,0)"/>
<path d="" fill="#000000" transform="translate(0,0)"/>
<path d="" fill="#7F7F7F" transform="translate(0,0)"/>
<path d="" fill="#555555" transform="translate(0,0)"/>
<path d="" fill="#555555" transform="translate(0,0)"/>
<path d="" fill="#CCCCCC" transform="translate(0,0)"/>
<path d="" fill="#BFBFBF" transform="translate(0,0)"/>
<path d="" fill="#555555" transform="translate(0,0)"/>
<path d="" fill="#FF00FF" transform="translate(0,0)"/>
<path d="" fill="#7F7F7F" transform="translate(0,0)"/>
<path d="" fill="#AAAA7F" transform="translate(0,0)"/>
<path d="" fill="#555555" transform="translate(0,0)"/>
<path d="" fill="#BFBF7F" transform="translate(0,0)"/>
<path d="" fill="#BFBFBF" transform="translate(0,0)"/>
<path d="" fill="#000000" transform="translate(0,0)"/>
<path d="" fill="#000000" transform="translate(0,0)"/>
<path d="" fill="#BFBF7F" transform="translate(0,0)"/>
<path d="" fill="#AA7F7F" transform="translate(0,0)"/>
<path d="" fill="#000000" transform="translate(0,0)"/>
<path d="" fill="#FF7F7F" transform="translate(0,0)"/>
<path d="" fill="#000000" transform="translate(0,0)"/>
<path d="" fill="#000000" transform="translate(0,0)"/>
<path d="" fill="#999999" transform="translate(0,0)"/>
<path d="" fill="#7F7F7F" transform="translate(0,0)"/>
<path d="" fill="#555555" transform="translate(0,0)"/>
<path d="" fill="#555555" transform="translate(0,0)"/>
<path d="" fill="#330000" transform="translate(0,0)"/>
<path d="" fill="#555555" transform="translate(0,0)"/>
</svg>
